G04 #@! TF.GenerationSoftware,KiCad,Pcbnew,5.0.2+dfsg1-1*
G04 #@! TF.CreationDate,2019-02-23T22:10:21+01:00*
G04 #@! TF.ProjectId,motherboard,6d6f7468-6572-4626-9f61-72642e6b6963,rev?*
G04 #@! TF.SameCoordinates,Original*
G04 #@! TF.FileFunction,Soldermask,Bot*
G04 #@! TF.FilePolarity,Negative*
%FSLAX46Y46*%
G04 Gerber Fmt 4.6, Leading zero omitted, Abs format (unit mm)*
G04 Created by KiCad (PCBNEW 5.0.2+dfsg1-1) date sob, 23 lut 2019, 22:10:21*
%MOMM*%
%LPD*%
G01*
G04 APERTURE LIST*
%ADD10C,0.100000*%
G04 APERTURE END LIST*
D10*
G36*
X185364612Y-120798037D02*
X185592096Y-120892264D01*
X185796831Y-121029064D01*
X185970936Y-121203169D01*
X186107736Y-121407904D01*
X186201963Y-121635388D01*
X186250000Y-121876885D01*
X186250000Y-122123115D01*
X186201963Y-122364612D01*
X186107736Y-122592096D01*
X185970936Y-122796831D01*
X185796831Y-122970936D01*
X185592096Y-123107736D01*
X185364612Y-123201963D01*
X185123115Y-123250000D01*
X184876885Y-123250000D01*
X184635388Y-123201963D01*
X184407904Y-123107736D01*
X184203169Y-122970936D01*
X184029064Y-122796831D01*
X183892264Y-122592096D01*
X183798037Y-122364612D01*
X183750000Y-122123115D01*
X183750000Y-121876885D01*
X183798037Y-121635388D01*
X183892264Y-121407904D01*
X184029064Y-121203169D01*
X184203169Y-121029064D01*
X184407904Y-120892264D01*
X184635388Y-120798037D01*
X184876885Y-120750000D01*
X185123115Y-120750000D01*
X185364612Y-120798037D01*
X185364612Y-120798037D01*
G37*
G36*
X64364612Y-120798037D02*
X64592096Y-120892264D01*
X64796831Y-121029064D01*
X64970936Y-121203169D01*
X65107736Y-121407904D01*
X65201963Y-121635388D01*
X65250000Y-121876885D01*
X65250000Y-122123115D01*
X65201963Y-122364612D01*
X65107736Y-122592096D01*
X64970936Y-122796831D01*
X64796831Y-122970936D01*
X64592096Y-123107736D01*
X64364612Y-123201963D01*
X64123115Y-123250000D01*
X63876885Y-123250000D01*
X63635388Y-123201963D01*
X63407904Y-123107736D01*
X63203169Y-122970936D01*
X63029064Y-122796831D01*
X62892264Y-122592096D01*
X62798037Y-122364612D01*
X62750000Y-122123115D01*
X62750000Y-121876885D01*
X62798037Y-121635388D01*
X62892264Y-121407904D01*
X63029064Y-121203169D01*
X63203169Y-121029064D01*
X63407904Y-120892264D01*
X63635388Y-120798037D01*
X63876885Y-120750000D01*
X64123115Y-120750000D01*
X64364612Y-120798037D01*
X64364612Y-120798037D01*
G37*
G36*
X83483000Y-120821000D02*
X83376643Y-120821000D01*
X83352257Y-120823402D01*
X83328808Y-120830515D01*
X83307197Y-120842066D01*
X83288255Y-120857612D01*
X83272709Y-120876554D01*
X83261158Y-120898165D01*
X83254045Y-120921614D01*
X83251643Y-120946000D01*
X83254045Y-120970386D01*
X83261158Y-120993835D01*
X83272709Y-121015446D01*
X83297341Y-121042624D01*
X83359974Y-121094026D01*
X83413086Y-121158743D01*
X83452549Y-121232573D01*
X83476851Y-121312684D01*
X83485056Y-121396000D01*
X83476851Y-121479316D01*
X83452549Y-121559427D01*
X83413086Y-121633257D01*
X83413084Y-121633260D01*
X83359974Y-121697974D01*
X83295260Y-121751084D01*
X83295258Y-121751085D01*
X83295257Y-121751086D01*
X83221427Y-121790549D01*
X83141316Y-121814851D01*
X83078878Y-121821000D01*
X83037122Y-121821000D01*
X82974684Y-121814851D01*
X82894573Y-121790549D01*
X82820743Y-121751086D01*
X82820742Y-121751085D01*
X82820740Y-121751084D01*
X82756026Y-121697974D01*
X82702916Y-121633260D01*
X82702914Y-121633257D01*
X82663451Y-121559427D01*
X82639149Y-121479316D01*
X82630944Y-121396000D01*
X82639149Y-121312684D01*
X82663451Y-121232573D01*
X82702914Y-121158743D01*
X82756026Y-121094026D01*
X82818660Y-121042623D01*
X82835984Y-121025299D01*
X82849597Y-121004924D01*
X82858975Y-120982285D01*
X82863755Y-120958252D01*
X82863755Y-120933747D01*
X82858974Y-120909714D01*
X82849597Y-120887075D01*
X82835983Y-120866700D01*
X82818656Y-120849373D01*
X82798281Y-120835760D01*
X82775642Y-120826382D01*
X82739357Y-120821000D01*
X82633000Y-120821000D01*
X82633000Y-119971000D01*
X83483000Y-119971000D01*
X83483000Y-120821000D01*
X83483000Y-120821000D01*
G37*
G36*
X101300000Y-120300000D02*
X98700000Y-120300000D01*
X98700000Y-117700000D01*
X101300000Y-117700000D01*
X101300000Y-120300000D01*
X101300000Y-120300000D01*
G37*
G36*
X105379196Y-117749958D02*
X105615780Y-117847954D01*
X105828705Y-117990226D01*
X106009774Y-118171295D01*
X106152046Y-118384220D01*
X106250042Y-118620804D01*
X106300000Y-118871960D01*
X106300000Y-119128040D01*
X106250042Y-119379196D01*
X106152046Y-119615780D01*
X106009774Y-119828705D01*
X105828705Y-120009774D01*
X105615780Y-120152046D01*
X105379196Y-120250042D01*
X105128040Y-120300000D01*
X104871960Y-120300000D01*
X104620804Y-120250042D01*
X104384220Y-120152046D01*
X104171295Y-120009774D01*
X103990226Y-119828705D01*
X103847954Y-119615780D01*
X103749958Y-119379196D01*
X103700000Y-119128040D01*
X103700000Y-118871960D01*
X103749958Y-118620804D01*
X103847954Y-118384220D01*
X103990226Y-118171295D01*
X104171295Y-117990226D01*
X104384220Y-117847954D01*
X104620804Y-117749958D01*
X104871960Y-117700000D01*
X105128040Y-117700000D01*
X105379196Y-117749958D01*
X105379196Y-117749958D01*
G37*
G36*
X174238337Y-103351685D02*
X174274732Y-103366760D01*
X174274733Y-103366761D01*
X174274736Y-103366762D01*
X174307493Y-103388650D01*
X174307497Y-103388653D01*
X174335347Y-103416503D01*
X174335349Y-103416506D01*
X174335350Y-103416507D01*
X174357238Y-103449264D01*
X174357239Y-103449267D01*
X174357240Y-103449268D01*
X174372315Y-103485663D01*
X174380000Y-103524299D01*
X174380000Y-103563701D01*
X174372315Y-103602337D01*
X174357240Y-103638732D01*
X174357238Y-103638736D01*
X174335350Y-103671493D01*
X174335347Y-103671497D01*
X174307497Y-103699347D01*
X174307494Y-103699349D01*
X174307493Y-103699350D01*
X174274736Y-103721238D01*
X174274733Y-103721239D01*
X174274732Y-103721240D01*
X174238337Y-103736315D01*
X174199701Y-103744000D01*
X174160299Y-103744000D01*
X174121663Y-103736315D01*
X174085268Y-103721240D01*
X174085267Y-103721239D01*
X174085264Y-103721238D01*
X174052507Y-103699350D01*
X174052506Y-103699349D01*
X174052503Y-103699347D01*
X174024653Y-103671497D01*
X174024650Y-103671493D01*
X174002762Y-103638736D01*
X174002760Y-103638732D01*
X173987685Y-103602337D01*
X173980000Y-103563701D01*
X173980000Y-103524299D01*
X173987685Y-103485663D01*
X174002760Y-103449268D01*
X174002761Y-103449267D01*
X174002762Y-103449264D01*
X174024650Y-103416507D01*
X174024651Y-103416506D01*
X174024653Y-103416503D01*
X174052503Y-103388653D01*
X174052507Y-103388650D01*
X174085264Y-103366762D01*
X174085267Y-103366761D01*
X174085268Y-103366760D01*
X174121663Y-103351685D01*
X174160299Y-103344000D01*
X174199701Y-103344000D01*
X174238337Y-103351685D01*
X174238337Y-103351685D01*
G37*
G36*
X175238337Y-103351685D02*
X175274732Y-103366760D01*
X175274733Y-103366761D01*
X175274736Y-103366762D01*
X175307493Y-103388650D01*
X175307497Y-103388653D01*
X175335347Y-103416503D01*
X175335349Y-103416506D01*
X175335350Y-103416507D01*
X175357238Y-103449264D01*
X175357239Y-103449267D01*
X175357240Y-103449268D01*
X175372315Y-103485663D01*
X175380000Y-103524299D01*
X175380000Y-103563701D01*
X175372315Y-103602337D01*
X175357240Y-103638732D01*
X175357238Y-103638736D01*
X175335350Y-103671493D01*
X175335347Y-103671497D01*
X175307497Y-103699347D01*
X175307494Y-103699349D01*
X175307493Y-103699350D01*
X175274736Y-103721238D01*
X175274733Y-103721239D01*
X175274732Y-103721240D01*
X175238337Y-103736315D01*
X175199701Y-103744000D01*
X175160299Y-103744000D01*
X175121663Y-103736315D01*
X175085268Y-103721240D01*
X175085267Y-103721239D01*
X175085264Y-103721238D01*
X175052507Y-103699350D01*
X175052506Y-103699349D01*
X175052503Y-103699347D01*
X175024653Y-103671497D01*
X175024650Y-103671493D01*
X175002762Y-103638736D01*
X175002760Y-103638732D01*
X174987685Y-103602337D01*
X174980000Y-103563701D01*
X174980000Y-103524299D01*
X174987685Y-103485663D01*
X175002760Y-103449268D01*
X175002761Y-103449267D01*
X175002762Y-103449264D01*
X175024650Y-103416507D01*
X175024651Y-103416506D01*
X175024653Y-103416503D01*
X175052503Y-103388653D01*
X175052507Y-103388650D01*
X175085264Y-103366762D01*
X175085267Y-103366761D01*
X175085268Y-103366760D01*
X175121663Y-103351685D01*
X175160299Y-103344000D01*
X175199701Y-103344000D01*
X175238337Y-103351685D01*
X175238337Y-103351685D01*
G37*
G36*
X176238337Y-103351685D02*
X176274732Y-103366760D01*
X176274733Y-103366761D01*
X176274736Y-103366762D01*
X176307493Y-103388650D01*
X176307497Y-103388653D01*
X176335347Y-103416503D01*
X176335349Y-103416506D01*
X176335350Y-103416507D01*
X176357238Y-103449264D01*
X176357239Y-103449267D01*
X176357240Y-103449268D01*
X176372315Y-103485663D01*
X176380000Y-103524299D01*
X176380000Y-103563701D01*
X176372315Y-103602337D01*
X176357240Y-103638732D01*
X176357238Y-103638736D01*
X176335350Y-103671493D01*
X176335347Y-103671497D01*
X176307497Y-103699347D01*
X176307494Y-103699349D01*
X176307493Y-103699350D01*
X176274736Y-103721238D01*
X176274733Y-103721239D01*
X176274732Y-103721240D01*
X176238337Y-103736315D01*
X176199701Y-103744000D01*
X176160299Y-103744000D01*
X176121663Y-103736315D01*
X176085268Y-103721240D01*
X176085267Y-103721239D01*
X176085264Y-103721238D01*
X176052507Y-103699350D01*
X176052506Y-103699349D01*
X176052503Y-103699347D01*
X176024653Y-103671497D01*
X176024650Y-103671493D01*
X176002762Y-103638736D01*
X176002760Y-103638732D01*
X175987685Y-103602337D01*
X175980000Y-103563701D01*
X175980000Y-103524299D01*
X175987685Y-103485663D01*
X176002760Y-103449268D01*
X176002761Y-103449267D01*
X176002762Y-103449264D01*
X176024650Y-103416507D01*
X176024651Y-103416506D01*
X176024653Y-103416503D01*
X176052503Y-103388653D01*
X176052507Y-103388650D01*
X176085264Y-103366762D01*
X176085267Y-103366761D01*
X176085268Y-103366760D01*
X176121663Y-103351685D01*
X176160299Y-103344000D01*
X176199701Y-103344000D01*
X176238337Y-103351685D01*
X176238337Y-103351685D01*
G37*
G36*
X176238337Y-102351685D02*
X176274732Y-102366760D01*
X176274733Y-102366761D01*
X176274736Y-102366762D01*
X176307493Y-102388650D01*
X176307497Y-102388653D01*
X176335347Y-102416503D01*
X176335349Y-102416506D01*
X176335350Y-102416507D01*
X176357238Y-102449264D01*
X176357239Y-102449267D01*
X176357240Y-102449268D01*
X176372315Y-102485663D01*
X176380000Y-102524299D01*
X176380000Y-102563701D01*
X176372315Y-102602337D01*
X176357240Y-102638732D01*
X176357238Y-102638736D01*
X176335350Y-102671493D01*
X176335347Y-102671497D01*
X176307497Y-102699347D01*
X176307494Y-102699349D01*
X176307493Y-102699350D01*
X176274736Y-102721238D01*
X176274733Y-102721239D01*
X176274732Y-102721240D01*
X176238337Y-102736315D01*
X176199701Y-102744000D01*
X176160299Y-102744000D01*
X176121663Y-102736315D01*
X176085268Y-102721240D01*
X176085267Y-102721239D01*
X176085264Y-102721238D01*
X176052507Y-102699350D01*
X176052506Y-102699349D01*
X176052503Y-102699347D01*
X176024653Y-102671497D01*
X176024650Y-102671493D01*
X176002762Y-102638736D01*
X176002760Y-102638732D01*
X175987685Y-102602337D01*
X175980000Y-102563701D01*
X175980000Y-102524299D01*
X175987685Y-102485663D01*
X176002760Y-102449268D01*
X176002761Y-102449267D01*
X176002762Y-102449264D01*
X176024650Y-102416507D01*
X176024651Y-102416506D01*
X176024653Y-102416503D01*
X176052503Y-102388653D01*
X176052507Y-102388650D01*
X176085264Y-102366762D01*
X176085267Y-102366761D01*
X176085268Y-102366760D01*
X176121663Y-102351685D01*
X176160299Y-102344000D01*
X176199701Y-102344000D01*
X176238337Y-102351685D01*
X176238337Y-102351685D01*
G37*
G36*
X175238337Y-102351685D02*
X175274732Y-102366760D01*
X175274733Y-102366761D01*
X175274736Y-102366762D01*
X175307493Y-102388650D01*
X175307497Y-102388653D01*
X175335347Y-102416503D01*
X175335349Y-102416506D01*
X175335350Y-102416507D01*
X175357238Y-102449264D01*
X175357239Y-102449267D01*
X175357240Y-102449268D01*
X175372315Y-102485663D01*
X175380000Y-102524299D01*
X175380000Y-102563701D01*
X175372315Y-102602337D01*
X175357240Y-102638732D01*
X175357238Y-102638736D01*
X175335350Y-102671493D01*
X175335347Y-102671497D01*
X175307497Y-102699347D01*
X175307494Y-102699349D01*
X175307493Y-102699350D01*
X175274736Y-102721238D01*
X175274733Y-102721239D01*
X175274732Y-102721240D01*
X175238337Y-102736315D01*
X175199701Y-102744000D01*
X175160299Y-102744000D01*
X175121663Y-102736315D01*
X175085268Y-102721240D01*
X175085267Y-102721239D01*
X175085264Y-102721238D01*
X175052507Y-102699350D01*
X175052506Y-102699349D01*
X175052503Y-102699347D01*
X175024653Y-102671497D01*
X175024650Y-102671493D01*
X175002762Y-102638736D01*
X175002760Y-102638732D01*
X174987685Y-102602337D01*
X174980000Y-102563701D01*
X174980000Y-102524299D01*
X174987685Y-102485663D01*
X175002760Y-102449268D01*
X175002761Y-102449267D01*
X175002762Y-102449264D01*
X175024650Y-102416507D01*
X175024651Y-102416506D01*
X175024653Y-102416503D01*
X175052503Y-102388653D01*
X175052507Y-102388650D01*
X175085264Y-102366762D01*
X175085267Y-102366761D01*
X175085268Y-102366760D01*
X175121663Y-102351685D01*
X175160299Y-102344000D01*
X175199701Y-102344000D01*
X175238337Y-102351685D01*
X175238337Y-102351685D01*
G37*
G36*
X174238337Y-102351685D02*
X174274732Y-102366760D01*
X174274733Y-102366761D01*
X174274736Y-102366762D01*
X174307493Y-102388650D01*
X174307497Y-102388653D01*
X174335347Y-102416503D01*
X174335349Y-102416506D01*
X174335350Y-102416507D01*
X174357238Y-102449264D01*
X174357239Y-102449267D01*
X174357240Y-102449268D01*
X174372315Y-102485663D01*
X174380000Y-102524299D01*
X174380000Y-102563701D01*
X174372315Y-102602337D01*
X174357240Y-102638732D01*
X174357238Y-102638736D01*
X174335350Y-102671493D01*
X174335347Y-102671497D01*
X174307497Y-102699347D01*
X174307494Y-102699349D01*
X174307493Y-102699350D01*
X174274736Y-102721238D01*
X174274733Y-102721239D01*
X174274732Y-102721240D01*
X174238337Y-102736315D01*
X174199701Y-102744000D01*
X174160299Y-102744000D01*
X174121663Y-102736315D01*
X174085268Y-102721240D01*
X174085267Y-102721239D01*
X174085264Y-102721238D01*
X174052507Y-102699350D01*
X174052506Y-102699349D01*
X174052503Y-102699347D01*
X174024653Y-102671497D01*
X174024650Y-102671493D01*
X174002762Y-102638736D01*
X174002760Y-102638732D01*
X173987685Y-102602337D01*
X173980000Y-102563701D01*
X173980000Y-102524299D01*
X173987685Y-102485663D01*
X174002760Y-102449268D01*
X174002761Y-102449267D01*
X174002762Y-102449264D01*
X174024650Y-102416507D01*
X174024651Y-102416506D01*
X174024653Y-102416503D01*
X174052503Y-102388653D01*
X174052507Y-102388650D01*
X174085264Y-102366762D01*
X174085267Y-102366761D01*
X174085268Y-102366760D01*
X174121663Y-102351685D01*
X174160299Y-102344000D01*
X174199701Y-102344000D01*
X174238337Y-102351685D01*
X174238337Y-102351685D01*
G37*
G36*
X175238337Y-101351685D02*
X175274732Y-101366760D01*
X175274733Y-101366761D01*
X175274736Y-101366762D01*
X175307493Y-101388650D01*
X175307497Y-101388653D01*
X175335347Y-101416503D01*
X175335349Y-101416506D01*
X175335350Y-101416507D01*
X175357238Y-101449264D01*
X175357239Y-101449267D01*
X175357240Y-101449268D01*
X175372315Y-101485663D01*
X175380000Y-101524299D01*
X175380000Y-101563701D01*
X175372315Y-101602337D01*
X175357240Y-101638732D01*
X175357238Y-101638736D01*
X175335350Y-101671493D01*
X175335347Y-101671497D01*
X175307497Y-101699347D01*
X175307494Y-101699349D01*
X175307493Y-101699350D01*
X175274736Y-101721238D01*
X175274733Y-101721239D01*
X175274732Y-101721240D01*
X175238337Y-101736315D01*
X175199701Y-101744000D01*
X175160299Y-101744000D01*
X175121663Y-101736315D01*
X175085268Y-101721240D01*
X175085267Y-101721239D01*
X175085264Y-101721238D01*
X175052507Y-101699350D01*
X175052506Y-101699349D01*
X175052503Y-101699347D01*
X175024653Y-101671497D01*
X175024650Y-101671493D01*
X175002762Y-101638736D01*
X175002760Y-101638732D01*
X174987685Y-101602337D01*
X174980000Y-101563701D01*
X174980000Y-101524299D01*
X174987685Y-101485663D01*
X175002760Y-101449268D01*
X175002761Y-101449267D01*
X175002762Y-101449264D01*
X175024650Y-101416507D01*
X175024651Y-101416506D01*
X175024653Y-101416503D01*
X175052503Y-101388653D01*
X175052507Y-101388650D01*
X175085264Y-101366762D01*
X175085267Y-101366761D01*
X175085268Y-101366760D01*
X175121663Y-101351685D01*
X175160299Y-101344000D01*
X175199701Y-101344000D01*
X175238337Y-101351685D01*
X175238337Y-101351685D01*
G37*
G36*
X176238337Y-101351685D02*
X176274732Y-101366760D01*
X176274733Y-101366761D01*
X176274736Y-101366762D01*
X176307493Y-101388650D01*
X176307497Y-101388653D01*
X176335347Y-101416503D01*
X176335349Y-101416506D01*
X176335350Y-101416507D01*
X176357238Y-101449264D01*
X176357239Y-101449267D01*
X176357240Y-101449268D01*
X176372315Y-101485663D01*
X176380000Y-101524299D01*
X176380000Y-101563701D01*
X176372315Y-101602337D01*
X176357240Y-101638732D01*
X176357238Y-101638736D01*
X176335350Y-101671493D01*
X176335347Y-101671497D01*
X176307497Y-101699347D01*
X176307494Y-101699349D01*
X176307493Y-101699350D01*
X176274736Y-101721238D01*
X176274733Y-101721239D01*
X176274732Y-101721240D01*
X176238337Y-101736315D01*
X176199701Y-101744000D01*
X176160299Y-101744000D01*
X176121663Y-101736315D01*
X176085268Y-101721240D01*
X176085267Y-101721239D01*
X176085264Y-101721238D01*
X176052507Y-101699350D01*
X176052506Y-101699349D01*
X176052503Y-101699347D01*
X176024653Y-101671497D01*
X176024650Y-101671493D01*
X176002762Y-101638736D01*
X176002760Y-101638732D01*
X175987685Y-101602337D01*
X175980000Y-101563701D01*
X175980000Y-101524299D01*
X175987685Y-101485663D01*
X176002760Y-101449268D01*
X176002761Y-101449267D01*
X176002762Y-101449264D01*
X176024650Y-101416507D01*
X176024651Y-101416506D01*
X176024653Y-101416503D01*
X176052503Y-101388653D01*
X176052507Y-101388650D01*
X176085264Y-101366762D01*
X176085267Y-101366761D01*
X176085268Y-101366760D01*
X176121663Y-101351685D01*
X176160299Y-101344000D01*
X176199701Y-101344000D01*
X176238337Y-101351685D01*
X176238337Y-101351685D01*
G37*
G36*
X174238337Y-101351685D02*
X174274732Y-101366760D01*
X174274733Y-101366761D01*
X174274736Y-101366762D01*
X174307493Y-101388650D01*
X174307497Y-101388653D01*
X174335347Y-101416503D01*
X174335349Y-101416506D01*
X174335350Y-101416507D01*
X174357238Y-101449264D01*
X174357239Y-101449267D01*
X174357240Y-101449268D01*
X174372315Y-101485663D01*
X174380000Y-101524299D01*
X174380000Y-101563701D01*
X174372315Y-101602337D01*
X174357240Y-101638732D01*
X174357238Y-101638736D01*
X174335350Y-101671493D01*
X174335347Y-101671497D01*
X174307497Y-101699347D01*
X174307494Y-101699349D01*
X174307493Y-101699350D01*
X174274736Y-101721238D01*
X174274733Y-101721239D01*
X174274732Y-101721240D01*
X174238337Y-101736315D01*
X174199701Y-101744000D01*
X174160299Y-101744000D01*
X174121663Y-101736315D01*
X174085268Y-101721240D01*
X174085267Y-101721239D01*
X174085264Y-101721238D01*
X174052507Y-101699350D01*
X174052506Y-101699349D01*
X174052503Y-101699347D01*
X174024653Y-101671497D01*
X174024650Y-101671493D01*
X174002762Y-101638736D01*
X174002760Y-101638732D01*
X173987685Y-101602337D01*
X173980000Y-101563701D01*
X173980000Y-101524299D01*
X173987685Y-101485663D01*
X174002760Y-101449268D01*
X174002761Y-101449267D01*
X174002762Y-101449264D01*
X174024650Y-101416507D01*
X174024651Y-101416506D01*
X174024653Y-101416503D01*
X174052503Y-101388653D01*
X174052507Y-101388650D01*
X174085264Y-101366762D01*
X174085267Y-101366761D01*
X174085268Y-101366760D01*
X174121663Y-101351685D01*
X174160299Y-101344000D01*
X174199701Y-101344000D01*
X174238337Y-101351685D01*
X174238337Y-101351685D01*
G37*
G36*
X92000000Y-93000000D02*
X88000000Y-93000000D01*
X88000000Y-91000000D01*
X92000000Y-91000000D01*
X92000000Y-93000000D01*
X92000000Y-93000000D01*
G37*
G36*
X90846030Y-85014469D02*
X90846033Y-85014470D01*
X90846034Y-85014470D01*
X91034535Y-85071651D01*
X91034537Y-85071652D01*
X91208260Y-85164509D01*
X91360528Y-85289472D01*
X91485491Y-85441740D01*
X91485492Y-85441742D01*
X91578349Y-85615465D01*
X91634060Y-85799120D01*
X91635531Y-85803970D01*
X91654838Y-86000000D01*
X91635531Y-86196030D01*
X91635530Y-86196033D01*
X91635530Y-86196034D01*
X91601487Y-86308260D01*
X91578348Y-86384537D01*
X91485491Y-86558260D01*
X91360528Y-86710528D01*
X91208260Y-86835491D01*
X91208258Y-86835492D01*
X91034535Y-86928349D01*
X90846034Y-86985530D01*
X90846033Y-86985530D01*
X90846030Y-86985531D01*
X90699124Y-87000000D01*
X89300876Y-87000000D01*
X89153970Y-86985531D01*
X89153967Y-86985530D01*
X89153966Y-86985530D01*
X88965465Y-86928349D01*
X88791742Y-86835492D01*
X88791740Y-86835491D01*
X88639472Y-86710528D01*
X88514509Y-86558260D01*
X88421652Y-86384537D01*
X88398514Y-86308260D01*
X88364470Y-86196034D01*
X88364470Y-86196033D01*
X88364469Y-86196030D01*
X88345162Y-86000000D01*
X88364469Y-85803970D01*
X88365940Y-85799120D01*
X88421651Y-85615465D01*
X88514508Y-85441742D01*
X88514509Y-85441740D01*
X88639472Y-85289472D01*
X88791740Y-85164509D01*
X88965463Y-85071652D01*
X88965465Y-85071651D01*
X89153966Y-85014470D01*
X89153967Y-85014470D01*
X89153970Y-85014469D01*
X89300876Y-85000000D01*
X90699124Y-85000000D01*
X90846030Y-85014469D01*
X90846030Y-85014469D01*
G37*
G36*
X85696030Y-83264469D02*
X85696033Y-83264470D01*
X85696034Y-83264470D01*
X85884535Y-83321651D01*
X85884537Y-83321652D01*
X86058260Y-83414509D01*
X86210528Y-83539472D01*
X86335491Y-83691740D01*
X86335492Y-83691742D01*
X86428349Y-83865465D01*
X86485530Y-84053966D01*
X86485531Y-84053970D01*
X86500000Y-84200876D01*
X86500000Y-85799124D01*
X86485531Y-85946030D01*
X86485530Y-85946033D01*
X86485530Y-85946034D01*
X86466195Y-86009774D01*
X86428348Y-86134537D01*
X86335491Y-86308260D01*
X86210528Y-86460528D01*
X86058258Y-86585493D01*
X85884539Y-86678347D01*
X85884536Y-86678348D01*
X85884534Y-86678349D01*
X85696033Y-86735530D01*
X85696032Y-86735530D01*
X85696029Y-86735531D01*
X85500000Y-86754838D01*
X85303970Y-86735531D01*
X85303967Y-86735530D01*
X85303966Y-86735530D01*
X85115465Y-86678349D01*
X84941742Y-86585492D01*
X84941740Y-86585491D01*
X84789472Y-86460528D01*
X84664507Y-86308258D01*
X84571653Y-86134539D01*
X84514471Y-85946034D01*
X84514470Y-85946033D01*
X84514470Y-85946032D01*
X84514469Y-85946029D01*
X84500000Y-85799123D01*
X84500000Y-84200876D01*
X84514469Y-84053965D01*
X84571651Y-83865467D01*
X84664510Y-83691740D01*
X84789473Y-83539472D01*
X84941741Y-83414509D01*
X85115464Y-83321652D01*
X85115466Y-83321651D01*
X85303967Y-83264470D01*
X85303968Y-83264470D01*
X85303971Y-83264469D01*
X85500000Y-83245162D01*
X85696030Y-83264469D01*
X85696030Y-83264469D01*
G37*
G36*
X94696030Y-83264469D02*
X94696033Y-83264470D01*
X94696034Y-83264470D01*
X94884535Y-83321651D01*
X94884537Y-83321652D01*
X95058260Y-83414509D01*
X95210528Y-83539472D01*
X95335491Y-83691740D01*
X95335492Y-83691742D01*
X95428349Y-83865465D01*
X95485530Y-84053966D01*
X95485531Y-84053970D01*
X95500000Y-84200876D01*
X95500000Y-85799124D01*
X95485531Y-85946030D01*
X95485530Y-85946033D01*
X95485530Y-85946034D01*
X95466195Y-86009774D01*
X95428348Y-86134537D01*
X95335491Y-86308260D01*
X95210528Y-86460528D01*
X95058258Y-86585493D01*
X94884539Y-86678347D01*
X94884536Y-86678348D01*
X94884534Y-86678349D01*
X94696033Y-86735530D01*
X94696032Y-86735530D01*
X94696029Y-86735531D01*
X94500000Y-86754838D01*
X94303970Y-86735531D01*
X94303967Y-86735530D01*
X94303966Y-86735530D01*
X94115465Y-86678349D01*
X93941742Y-86585492D01*
X93941740Y-86585491D01*
X93789472Y-86460528D01*
X93664507Y-86308258D01*
X93571653Y-86134539D01*
X93514471Y-85946034D01*
X93514470Y-85946033D01*
X93514470Y-85946032D01*
X93514469Y-85946029D01*
X93500000Y-85799123D01*
X93500000Y-84200876D01*
X93514469Y-84053965D01*
X93571651Y-83865467D01*
X93664510Y-83691740D01*
X93789473Y-83539472D01*
X93941741Y-83414509D01*
X94115464Y-83321652D01*
X94115466Y-83321651D01*
X94303967Y-83264470D01*
X94303968Y-83264470D01*
X94303971Y-83264469D01*
X94500000Y-83245162D01*
X94696030Y-83264469D01*
X94696030Y-83264469D01*
G37*
G36*
X181090000Y-86320000D02*
X178670000Y-86320000D01*
X178670000Y-81240000D01*
X181090000Y-81240000D01*
X181090000Y-86320000D01*
X181090000Y-86320000D01*
G37*
G36*
X172330000Y-86320000D02*
X169910000Y-86320000D01*
X169910000Y-81240000D01*
X172330000Y-81240000D01*
X172330000Y-86320000D01*
X172330000Y-86320000D01*
G37*
G36*
X78300000Y-86300000D02*
X75700000Y-86300000D01*
X75700000Y-83700000D01*
X78300000Y-83700000D01*
X78300000Y-86300000D01*
X78300000Y-86300000D01*
G37*
G36*
X72379196Y-83749958D02*
X72615780Y-83847954D01*
X72828705Y-83990226D01*
X73009774Y-84171295D01*
X73152046Y-84384220D01*
X73250042Y-84620804D01*
X73300000Y-84871960D01*
X73300000Y-85128040D01*
X73250042Y-85379196D01*
X73152046Y-85615780D01*
X73009774Y-85828705D01*
X72828705Y-86009774D01*
X72615780Y-86152046D01*
X72379196Y-86250042D01*
X72128040Y-86300000D01*
X71871960Y-86300000D01*
X71620804Y-86250042D01*
X71384220Y-86152046D01*
X71171295Y-86009774D01*
X70990226Y-85828705D01*
X70847954Y-85615780D01*
X70749958Y-85379196D01*
X70700000Y-85128040D01*
X70700000Y-84871960D01*
X70749958Y-84620804D01*
X70847954Y-84384220D01*
X70990226Y-84171295D01*
X71171295Y-83990226D01*
X71384220Y-83847954D01*
X71620804Y-83749958D01*
X71871960Y-83700000D01*
X72128040Y-83700000D01*
X72379196Y-83749958D01*
X72379196Y-83749958D01*
G37*
G36*
X90233352Y-82230743D02*
X90378941Y-82291048D01*
X90509973Y-82378601D01*
X90621399Y-82490027D01*
X90708952Y-82621059D01*
X90769257Y-82766648D01*
X90800000Y-82921205D01*
X90800000Y-83078795D01*
X90769257Y-83233352D01*
X90708952Y-83378941D01*
X90621399Y-83509973D01*
X90509973Y-83621399D01*
X90378941Y-83708952D01*
X90233352Y-83769257D01*
X90078795Y-83800000D01*
X89921205Y-83800000D01*
X89766648Y-83769257D01*
X89621059Y-83708952D01*
X89490027Y-83621399D01*
X89378601Y-83509973D01*
X89291048Y-83378941D01*
X89230743Y-83233352D01*
X89200000Y-83078795D01*
X89200000Y-82921205D01*
X89230743Y-82766648D01*
X89291048Y-82621059D01*
X89378601Y-82490027D01*
X89490027Y-82378601D01*
X89621059Y-82291048D01*
X89766648Y-82230743D01*
X89921205Y-82200000D01*
X90078795Y-82200000D01*
X90233352Y-82230743D01*
X90233352Y-82230743D01*
G37*
G36*
X142994000Y-83000000D02*
X141994000Y-83000000D01*
X141994000Y-82000000D01*
X142994000Y-82000000D01*
X142994000Y-83000000D01*
X142994000Y-83000000D01*
G37*
G36*
X147672015Y-82007234D02*
X147766268Y-82035825D01*
X147812697Y-82060643D01*
X147853129Y-82082254D01*
X147929264Y-82144736D01*
X147991746Y-82220871D01*
X148013357Y-82261303D01*
X148038175Y-82307732D01*
X148066766Y-82401985D01*
X148076419Y-82500000D01*
X148066766Y-82598015D01*
X148038175Y-82692268D01*
X148013357Y-82738697D01*
X147991746Y-82779129D01*
X147929264Y-82855264D01*
X147853129Y-82917746D01*
X147812697Y-82939357D01*
X147766268Y-82964175D01*
X147672015Y-82992766D01*
X147598564Y-83000000D01*
X147549436Y-83000000D01*
X147475985Y-82992766D01*
X147381732Y-82964175D01*
X147335303Y-82939357D01*
X147294871Y-82917746D01*
X147218736Y-82855264D01*
X147156254Y-82779129D01*
X147134643Y-82738697D01*
X147109825Y-82692268D01*
X147081234Y-82598015D01*
X147071581Y-82500000D01*
X147081234Y-82401985D01*
X147109825Y-82307732D01*
X147134643Y-82261303D01*
X147156254Y-82220871D01*
X147218736Y-82144736D01*
X147294871Y-82082254D01*
X147335303Y-82060643D01*
X147381732Y-82035825D01*
X147475985Y-82007234D01*
X147549436Y-82000000D01*
X147598564Y-82000000D01*
X147672015Y-82007234D01*
X147672015Y-82007234D01*
G37*
G36*
X146402015Y-82007234D02*
X146496268Y-82035825D01*
X146542697Y-82060643D01*
X146583129Y-82082254D01*
X146659264Y-82144736D01*
X146721746Y-82220871D01*
X146743357Y-82261303D01*
X146768175Y-82307732D01*
X146796766Y-82401985D01*
X146806419Y-82500000D01*
X146796766Y-82598015D01*
X146768175Y-82692268D01*
X146743357Y-82738697D01*
X146721746Y-82779129D01*
X146659264Y-82855264D01*
X146583129Y-82917746D01*
X146542697Y-82939357D01*
X146496268Y-82964175D01*
X146402015Y-82992766D01*
X146328564Y-83000000D01*
X146279436Y-83000000D01*
X146205985Y-82992766D01*
X146111732Y-82964175D01*
X146065303Y-82939357D01*
X146024871Y-82917746D01*
X145948736Y-82855264D01*
X145886254Y-82779129D01*
X145864643Y-82738697D01*
X145839825Y-82692268D01*
X145811234Y-82598015D01*
X145801581Y-82500000D01*
X145811234Y-82401985D01*
X145839825Y-82307732D01*
X145864643Y-82261303D01*
X145886254Y-82220871D01*
X145948736Y-82144736D01*
X146024871Y-82082254D01*
X146065303Y-82060643D01*
X146111732Y-82035825D01*
X146205985Y-82007234D01*
X146279436Y-82000000D01*
X146328564Y-82000000D01*
X146402015Y-82007234D01*
X146402015Y-82007234D01*
G37*
G36*
X145132015Y-82007234D02*
X145226268Y-82035825D01*
X145272697Y-82060643D01*
X145313129Y-82082254D01*
X145389264Y-82144736D01*
X145451746Y-82220871D01*
X145473357Y-82261303D01*
X145498175Y-82307732D01*
X145526766Y-82401985D01*
X145536419Y-82500000D01*
X145526766Y-82598015D01*
X145498175Y-82692268D01*
X145473357Y-82738697D01*
X145451746Y-82779129D01*
X145389264Y-82855264D01*
X145313129Y-82917746D01*
X145272697Y-82939357D01*
X145226268Y-82964175D01*
X145132015Y-82992766D01*
X145058564Y-83000000D01*
X145009436Y-83000000D01*
X144935985Y-82992766D01*
X144841732Y-82964175D01*
X144795303Y-82939357D01*
X144754871Y-82917746D01*
X144678736Y-82855264D01*
X144616254Y-82779129D01*
X144594643Y-82738697D01*
X144569825Y-82692268D01*
X144541234Y-82598015D01*
X144531581Y-82500000D01*
X144541234Y-82401985D01*
X144569825Y-82307732D01*
X144594643Y-82261303D01*
X144616254Y-82220871D01*
X144678736Y-82144736D01*
X144754871Y-82082254D01*
X144795303Y-82060643D01*
X144841732Y-82035825D01*
X144935985Y-82007234D01*
X145009436Y-82000000D01*
X145058564Y-82000000D01*
X145132015Y-82007234D01*
X145132015Y-82007234D01*
G37*
G36*
X143862015Y-82007234D02*
X143956268Y-82035825D01*
X144002697Y-82060643D01*
X144043129Y-82082254D01*
X144119264Y-82144736D01*
X144181746Y-82220871D01*
X144203357Y-82261303D01*
X144228175Y-82307732D01*
X144256766Y-82401985D01*
X144266419Y-82500000D01*
X144256766Y-82598015D01*
X144228175Y-82692268D01*
X144203357Y-82738697D01*
X144181746Y-82779129D01*
X144119264Y-82855264D01*
X144043129Y-82917746D01*
X144002697Y-82939357D01*
X143956268Y-82964175D01*
X143862015Y-82992766D01*
X143788564Y-83000000D01*
X143739436Y-83000000D01*
X143665985Y-82992766D01*
X143571732Y-82964175D01*
X143525303Y-82939357D01*
X143484871Y-82917746D01*
X143408736Y-82855264D01*
X143346254Y-82779129D01*
X143324643Y-82738697D01*
X143299825Y-82692268D01*
X143271234Y-82598015D01*
X143261581Y-82500000D01*
X143271234Y-82401985D01*
X143299825Y-82307732D01*
X143324643Y-82261303D01*
X143346254Y-82220871D01*
X143408736Y-82144736D01*
X143484871Y-82082254D01*
X143525303Y-82060643D01*
X143571732Y-82035825D01*
X143665985Y-82007234D01*
X143739436Y-82000000D01*
X143788564Y-82000000D01*
X143862015Y-82007234D01*
X143862015Y-82007234D01*
G37*
G36*
X159600000Y-81876000D02*
X157900000Y-81876000D01*
X157900000Y-80176000D01*
X159600000Y-80176000D01*
X159600000Y-81876000D01*
X159600000Y-81876000D01*
G37*
G36*
X161456630Y-80188299D02*
X161616855Y-80236903D01*
X161764520Y-80315831D01*
X161893949Y-80422051D01*
X162000169Y-80551480D01*
X162079097Y-80699145D01*
X162127701Y-80859370D01*
X162144112Y-81026000D01*
X162127701Y-81192630D01*
X162079097Y-81352855D01*
X162000169Y-81500520D01*
X161893949Y-81629949D01*
X161764520Y-81736169D01*
X161616855Y-81815097D01*
X161456630Y-81863701D01*
X161331752Y-81876000D01*
X161248248Y-81876000D01*
X161123370Y-81863701D01*
X160963145Y-81815097D01*
X160815480Y-81736169D01*
X160686051Y-81629949D01*
X160579831Y-81500520D01*
X160500903Y-81352855D01*
X160452299Y-81192630D01*
X160435888Y-81026000D01*
X160452299Y-80859370D01*
X160500903Y-80699145D01*
X160579831Y-80551480D01*
X160686051Y-80422051D01*
X160815480Y-80315831D01*
X160963145Y-80236903D01*
X161123370Y-80188299D01*
X161248248Y-80176000D01*
X161331752Y-80176000D01*
X161456630Y-80188299D01*
X161456630Y-80188299D01*
G37*
G36*
X163996630Y-80188299D02*
X164156855Y-80236903D01*
X164304520Y-80315831D01*
X164433949Y-80422051D01*
X164540169Y-80551480D01*
X164619097Y-80699145D01*
X164667701Y-80859370D01*
X164684112Y-81026000D01*
X164667701Y-81192630D01*
X164619097Y-81352855D01*
X164540169Y-81500520D01*
X164433949Y-81629949D01*
X164304520Y-81736169D01*
X164156855Y-81815097D01*
X163996630Y-81863701D01*
X163871752Y-81876000D01*
X163788248Y-81876000D01*
X163663370Y-81863701D01*
X163503145Y-81815097D01*
X163355480Y-81736169D01*
X163226051Y-81629949D01*
X163119831Y-81500520D01*
X163040903Y-81352855D01*
X162992299Y-81192630D01*
X162975888Y-81026000D01*
X162992299Y-80859370D01*
X163040903Y-80699145D01*
X163119831Y-80551480D01*
X163226051Y-80422051D01*
X163355480Y-80315831D01*
X163503145Y-80236903D01*
X163663370Y-80188299D01*
X163788248Y-80176000D01*
X163871752Y-80176000D01*
X163996630Y-80188299D01*
X163996630Y-80188299D01*
G37*
G36*
X166536630Y-80188299D02*
X166696855Y-80236903D01*
X166844520Y-80315831D01*
X166973949Y-80422051D01*
X167080169Y-80551480D01*
X167159097Y-80699145D01*
X167207701Y-80859370D01*
X167224112Y-81026000D01*
X167207701Y-81192630D01*
X167159097Y-81352855D01*
X167080169Y-81500520D01*
X166973949Y-81629949D01*
X166844520Y-81736169D01*
X166696855Y-81815097D01*
X166536630Y-81863701D01*
X166411752Y-81876000D01*
X166328248Y-81876000D01*
X166203370Y-81863701D01*
X166043145Y-81815097D01*
X165895480Y-81736169D01*
X165766051Y-81629949D01*
X165659831Y-81500520D01*
X165580903Y-81352855D01*
X165532299Y-81192630D01*
X165515888Y-81026000D01*
X165532299Y-80859370D01*
X165580903Y-80699145D01*
X165659831Y-80551480D01*
X165766051Y-80422051D01*
X165895480Y-80315831D01*
X166043145Y-80236903D01*
X166203370Y-80188299D01*
X166328248Y-80176000D01*
X166411752Y-80176000D01*
X166536630Y-80188299D01*
X166536630Y-80188299D01*
G37*
G36*
X147672015Y-80737234D02*
X147766268Y-80765825D01*
X147812697Y-80790643D01*
X147853129Y-80812254D01*
X147853131Y-80812255D01*
X147853130Y-80812255D01*
X147929264Y-80874736D01*
X147991745Y-80950870D01*
X148038175Y-81037732D01*
X148066766Y-81131985D01*
X148076419Y-81230000D01*
X148066766Y-81328015D01*
X148038175Y-81422268D01*
X148013357Y-81468697D01*
X147991746Y-81509129D01*
X147929264Y-81585264D01*
X147853129Y-81647746D01*
X147812697Y-81669357D01*
X147766268Y-81694175D01*
X147672015Y-81722766D01*
X147598564Y-81730000D01*
X147549436Y-81730000D01*
X147475985Y-81722766D01*
X147381732Y-81694175D01*
X147335303Y-81669357D01*
X147294871Y-81647746D01*
X147218736Y-81585264D01*
X147156254Y-81509129D01*
X147134643Y-81468697D01*
X147109825Y-81422268D01*
X147081234Y-81328015D01*
X147071581Y-81230000D01*
X147081234Y-81131985D01*
X147109825Y-81037732D01*
X147156255Y-80950870D01*
X147218736Y-80874736D01*
X147294870Y-80812255D01*
X147294869Y-80812255D01*
X147294871Y-80812254D01*
X147335303Y-80790643D01*
X147381732Y-80765825D01*
X147475985Y-80737234D01*
X147549436Y-80730000D01*
X147598564Y-80730000D01*
X147672015Y-80737234D01*
X147672015Y-80737234D01*
G37*
G36*
X146402015Y-80737234D02*
X146496268Y-80765825D01*
X146542697Y-80790643D01*
X146583129Y-80812254D01*
X146583131Y-80812255D01*
X146583130Y-80812255D01*
X146659264Y-80874736D01*
X146721745Y-80950870D01*
X146768175Y-81037732D01*
X146796766Y-81131985D01*
X146806419Y-81230000D01*
X146796766Y-81328015D01*
X146768175Y-81422268D01*
X146743357Y-81468697D01*
X146721746Y-81509129D01*
X146659264Y-81585264D01*
X146583129Y-81647746D01*
X146542697Y-81669357D01*
X146496268Y-81694175D01*
X146402015Y-81722766D01*
X146328564Y-81730000D01*
X146279436Y-81730000D01*
X146205985Y-81722766D01*
X146111732Y-81694175D01*
X146065303Y-81669357D01*
X146024871Y-81647746D01*
X145948736Y-81585264D01*
X145886254Y-81509129D01*
X145864643Y-81468697D01*
X145839825Y-81422268D01*
X145811234Y-81328015D01*
X145801581Y-81230000D01*
X145811234Y-81131985D01*
X145839825Y-81037732D01*
X145886255Y-80950870D01*
X145948736Y-80874736D01*
X146024870Y-80812255D01*
X146024869Y-80812255D01*
X146024871Y-80812254D01*
X146065303Y-80790643D01*
X146111732Y-80765825D01*
X146205985Y-80737234D01*
X146279436Y-80730000D01*
X146328564Y-80730000D01*
X146402015Y-80737234D01*
X146402015Y-80737234D01*
G37*
G36*
X143862015Y-80737234D02*
X143956268Y-80765825D01*
X144002697Y-80790643D01*
X144043129Y-80812254D01*
X144043131Y-80812255D01*
X144043130Y-80812255D01*
X144119264Y-80874736D01*
X144181745Y-80950870D01*
X144228175Y-81037732D01*
X144256766Y-81131985D01*
X144266419Y-81230000D01*
X144256766Y-81328015D01*
X144228175Y-81422268D01*
X144203357Y-81468697D01*
X144181746Y-81509129D01*
X144119264Y-81585264D01*
X144043129Y-81647746D01*
X144002697Y-81669357D01*
X143956268Y-81694175D01*
X143862015Y-81722766D01*
X143788564Y-81730000D01*
X143739436Y-81730000D01*
X143665985Y-81722766D01*
X143571732Y-81694175D01*
X143525303Y-81669357D01*
X143484871Y-81647746D01*
X143408736Y-81585264D01*
X143346254Y-81509129D01*
X143324643Y-81468697D01*
X143299825Y-81422268D01*
X143271234Y-81328015D01*
X143261581Y-81230000D01*
X143271234Y-81131985D01*
X143299825Y-81037732D01*
X143346255Y-80950870D01*
X143408736Y-80874736D01*
X143484870Y-80812255D01*
X143484869Y-80812255D01*
X143484871Y-80812254D01*
X143525303Y-80790643D01*
X143571732Y-80765825D01*
X143665985Y-80737234D01*
X143739436Y-80730000D01*
X143788564Y-80730000D01*
X143862015Y-80737234D01*
X143862015Y-80737234D01*
G37*
G36*
X145132015Y-80737234D02*
X145226268Y-80765825D01*
X145272697Y-80790643D01*
X145313129Y-80812254D01*
X145313131Y-80812255D01*
X145313130Y-80812255D01*
X145389264Y-80874736D01*
X145451745Y-80950870D01*
X145498175Y-81037732D01*
X145526766Y-81131985D01*
X145536419Y-81230000D01*
X145526766Y-81328015D01*
X145498175Y-81422268D01*
X145473357Y-81468697D01*
X145451746Y-81509129D01*
X145389264Y-81585264D01*
X145313129Y-81647746D01*
X145272697Y-81669357D01*
X145226268Y-81694175D01*
X145132015Y-81722766D01*
X145058564Y-81730000D01*
X145009436Y-81730000D01*
X144935985Y-81722766D01*
X144841732Y-81694175D01*
X144795303Y-81669357D01*
X144754871Y-81647746D01*
X144678736Y-81585264D01*
X144616254Y-81509129D01*
X144594643Y-81468697D01*
X144569825Y-81422268D01*
X144541234Y-81328015D01*
X144531581Y-81230000D01*
X144541234Y-81131985D01*
X144569825Y-81037732D01*
X144616255Y-80950870D01*
X144678736Y-80874736D01*
X144754870Y-80812255D01*
X144754869Y-80812255D01*
X144754871Y-80812254D01*
X144795303Y-80790643D01*
X144841732Y-80765825D01*
X144935985Y-80737234D01*
X145009436Y-80730000D01*
X145058564Y-80730000D01*
X145132015Y-80737234D01*
X145132015Y-80737234D01*
G37*
G36*
X142592015Y-80737234D02*
X142686268Y-80765825D01*
X142732697Y-80790643D01*
X142773129Y-80812254D01*
X142773131Y-80812255D01*
X142773130Y-80812255D01*
X142849264Y-80874736D01*
X142911745Y-80950870D01*
X142958175Y-81037732D01*
X142986766Y-81131985D01*
X142996419Y-81230000D01*
X142986766Y-81328015D01*
X142958175Y-81422268D01*
X142933357Y-81468697D01*
X142911746Y-81509129D01*
X142849264Y-81585264D01*
X142773129Y-81647746D01*
X142732697Y-81669357D01*
X142686268Y-81694175D01*
X142592015Y-81722766D01*
X142518564Y-81730000D01*
X142469436Y-81730000D01*
X142395985Y-81722766D01*
X142301732Y-81694175D01*
X142255303Y-81669357D01*
X142214871Y-81647746D01*
X142138736Y-81585264D01*
X142076254Y-81509129D01*
X142054643Y-81468697D01*
X142029825Y-81422268D01*
X142001234Y-81328015D01*
X141991581Y-81230000D01*
X142001234Y-81131985D01*
X142029825Y-81037732D01*
X142076255Y-80950870D01*
X142138736Y-80874736D01*
X142214870Y-80812255D01*
X142214869Y-80812255D01*
X142214871Y-80812254D01*
X142255303Y-80790643D01*
X142301732Y-80765825D01*
X142395985Y-80737234D01*
X142469436Y-80730000D01*
X142518564Y-80730000D01*
X142592015Y-80737234D01*
X142592015Y-80737234D01*
G37*
M02*
