G04 #@! TF.GenerationSoftware,KiCad,Pcbnew,5.0.2-5.0.2*
G04 #@! TF.CreationDate,2019-03-08T22:42:58+01:00*
G04 #@! TF.ProjectId,motherboard,6d6f7468-6572-4626-9f61-72642e6b6963,rev?*
G04 #@! TF.SameCoordinates,Original*
G04 #@! TF.FileFunction,Copper,L2,Inr*
G04 #@! TF.FilePolarity,Positive*
%FSLAX46Y46*%
G04 Gerber Fmt 4.6, Leading zero omitted, Abs format (unit mm)*
G04 Created by KiCad (PCBNEW 5.0.2-5.0.2) date Fri 08 Mar 2019 10:42:58 PM CET*
%MOMM*%
%LPD*%
G01*
G04 APERTURE LIST*
G04 #@! TA.AperFunction,ViaPad*
%ADD10R,2.600000X2.600000*%
G04 #@! TD*
G04 #@! TA.AperFunction,ViaPad*
%ADD11C,2.600000*%
G04 #@! TD*
G04 #@! TA.AperFunction,ViaPad*
%ADD12R,4.000000X2.000000*%
G04 #@! TD*
G04 #@! TA.AperFunction,ViaPad*
%ADD13O,3.300000X2.000000*%
G04 #@! TD*
G04 #@! TA.AperFunction,ViaPad*
%ADD14O,2.000000X3.500000*%
G04 #@! TD*
G04 #@! TA.AperFunction,ViaPad*
%ADD15R,1.700000X1.700000*%
G04 #@! TD*
G04 #@! TA.AperFunction,ViaPad*
%ADD16O,1.700000X1.700000*%
G04 #@! TD*
G04 #@! TA.AperFunction,ViaPad*
%ADD17C,0.970000*%
G04 #@! TD*
G04 #@! TA.AperFunction,ViaPad*
%ADD18R,1.000000X1.000000*%
G04 #@! TD*
G04 #@! TA.AperFunction,ViaPad*
%ADD19O,1.000000X1.000000*%
G04 #@! TD*
G04 #@! TA.AperFunction,ViaPad*
%ADD20R,0.850000X0.850000*%
G04 #@! TD*
G04 #@! TA.AperFunction,ViaPad*
%ADD21O,0.850000X0.850000*%
G04 #@! TD*
G04 #@! TA.AperFunction,ViaPad*
%ADD22C,0.200000*%
G04 #@! TD*
G04 #@! TA.AperFunction,ViaPad*
%ADD23C,0.800000*%
G04 #@! TD*
G04 #@! TA.AperFunction,Conductor*
%ADD24C,0.254000*%
G04 #@! TD*
G04 APERTURE END LIST*
D10*
G04 #@! TO.N,+12V*
G04 #@! TO.C,J1*
X77000000Y-85000000D03*
D11*
G04 #@! TO.N,GND*
X72000000Y-85000000D03*
G04 #@! TD*
D12*
G04 #@! TO.N,Net-(C1-Pad1)*
G04 #@! TO.C,J2*
X90000000Y-92000000D03*
D13*
G04 #@! TO.N,GND*
X90000000Y-86000000D03*
D14*
G04 #@! TO.N,N/C*
X94500000Y-85000000D03*
X85500000Y-85000000D03*
G04 #@! TD*
D15*
G04 #@! TO.N,DUST_TX*
G04 #@! TO.C,J3*
X158750000Y-81026000D03*
D16*
G04 #@! TO.N,DUST_RX*
X161290000Y-81026000D03*
G04 #@! TO.N,ESP_VCC*
X163830000Y-81026000D03*
G04 #@! TO.N,GND*
X166370000Y-81026000D03*
G04 #@! TD*
D17*
G04 #@! TO.N,GND*
G04 #@! TO.C,J4*
X179880000Y-87220000D03*
X171120000Y-87220000D03*
G04 #@! TD*
D11*
G04 #@! TO.N,GND*
G04 #@! TO.C,J5*
X105000000Y-119000000D03*
D10*
G04 #@! TO.N,+BATT*
X100000000Y-119000000D03*
G04 #@! TD*
D18*
G04 #@! TO.N,DUST_VCC*
G04 #@! TO.C,J7*
X142494000Y-82500000D03*
D19*
X142494000Y-81230000D03*
G04 #@! TO.N,GND*
X143764000Y-82500000D03*
X143764000Y-81230000D03*
G04 #@! TO.N,Net-(J7-Pad5)*
X145034000Y-82500000D03*
G04 #@! TO.N,N/C*
X145034000Y-81230000D03*
G04 #@! TO.N,DUST_RX*
X146304000Y-82500000D03*
G04 #@! TO.N,N/C*
X146304000Y-81230000D03*
G04 #@! TO.N,DUST_TX*
X147574000Y-82500000D03*
G04 #@! TO.N,Net-(J7-Pad10)*
X147574000Y-81230000D03*
G04 #@! TD*
D20*
G04 #@! TO.N,Net-(TH1-Pad1)*
G04 #@! TO.C,TH1*
X83058000Y-120396000D03*
D21*
G04 #@! TO.N,GND*
X83058000Y-121396000D03*
G04 #@! TD*
D22*
G04 #@! TO.N,GND*
G04 #@! TO.C,U4*
X176180000Y-103544000D03*
X175180000Y-103544000D03*
X174180000Y-103544000D03*
X176180000Y-102544000D03*
X175180000Y-102544000D03*
X174180000Y-102544000D03*
X176180000Y-101544000D03*
X175180000Y-101544000D03*
X174180000Y-101544000D03*
G04 #@! TD*
D23*
G04 #@! TO.N,GND*
X115062000Y-90297000D03*
X115189000Y-85852000D03*
X115062000Y-95504000D03*
X119126000Y-93599000D03*
X128016000Y-90297000D03*
X129794000Y-93105000D03*
X127762000Y-98157000D03*
X125081000Y-99822000D03*
X173482000Y-91186000D03*
X174498000Y-91186000D03*
X175514000Y-91186000D03*
X178562000Y-89662000D03*
X178562000Y-90678000D03*
X178562000Y-91694000D03*
X178562000Y-92710000D03*
X178562000Y-93726000D03*
X178562000Y-94742000D03*
X178562000Y-95758000D03*
X176530000Y-95504000D03*
X176530000Y-94488000D03*
X172466000Y-88646000D03*
X172466000Y-89662000D03*
X172466000Y-90678000D03*
X172466000Y-91694000D03*
X172466000Y-92710000D03*
X87122000Y-96153000D03*
X173228000Y-96266000D03*
X73660000Y-108204000D03*
X152600911Y-113859664D03*
X152651711Y-115739264D03*
X151737311Y-115739264D03*
X152651711Y-114824864D03*
X151737311Y-114824864D03*
X151737311Y-113859664D03*
X105491162Y-94721072D03*
X170101097Y-106601097D03*
X138430000Y-98552000D03*
X77216000Y-110991610D03*
X186313000Y-94488000D03*
X182992970Y-101346000D03*
X183783024Y-106172000D03*
X185533000Y-111252012D03*
X171889561Y-113334646D03*
X162306000Y-116833970D03*
X155242529Y-116185064D03*
X147763497Y-119092064D03*
X153831511Y-112234080D03*
X65278000Y-107583024D03*
X71628002Y-106680000D03*
X77433500Y-104394016D03*
X82550000Y-94482026D03*
X105043000Y-90678000D03*
X138810000Y-81345028D03*
X119190000Y-84655020D03*
X173876998Y-92710000D03*
X173876974Y-89662000D03*
X141758963Y-90387238D03*
X154432000Y-81148972D03*
X132328000Y-91185972D03*
X133490980Y-95758000D03*
X138797000Y-101345962D03*
X143622974Y-96012000D03*
X166370000Y-103632000D03*
X164243019Y-101713000D03*
X165862000Y-101713000D03*
X106366148Y-98785058D03*
X108539162Y-98136071D03*
X102302178Y-97007072D03*
X124714000Y-97282000D03*
X114689500Y-92837000D03*
G04 #@! TO.N,+12V*
X74458500Y-104394000D03*
X86484022Y-103632000D03*
X77000000Y-90424000D03*
X77000000Y-91440000D03*
X77000000Y-92456000D03*
X77000000Y-93472000D03*
X77000000Y-94488000D03*
X77000000Y-95504000D03*
X77000000Y-96520000D03*
X77000000Y-97536000D03*
X77000000Y-98552000D03*
X77000000Y-89408000D03*
X77000000Y-88392000D03*
X77000000Y-87376000D03*
X77000000Y-99606000D03*
X76962000Y-100584000D03*
X77978000Y-100584000D03*
X78740000Y-101346000D03*
X80264000Y-102870000D03*
X81026000Y-103632000D03*
X82042000Y-103632000D03*
X83058000Y-103632000D03*
X84074000Y-103632000D03*
X85090000Y-103632000D03*
G04 #@! TO.N,DUST_VCC*
X144780000Y-97536000D03*
X141758957Y-85081228D03*
X137928022Y-91186000D03*
G04 #@! TO.N,BME280_VCC*
X129794000Y-94855000D03*
X126379000Y-94742000D03*
X123077000Y-94742000D03*
X122428000Y-90297000D03*
X136270000Y-84655000D03*
G04 #@! TO.N,WIND_VCC*
X109601000Y-85852000D03*
X113284000Y-90297000D03*
X116713000Y-90297000D03*
X116713000Y-88646000D03*
X121730000Y-81344998D03*
G04 #@! TO.N,BME280_SDA*
X129032000Y-85090000D03*
X130302000Y-81280000D03*
X134620000Y-89154000D03*
X156467503Y-89896474D03*
X159258000Y-89408000D03*
X167894000Y-93218000D03*
X167894000Y-97631210D03*
X143454107Y-92506789D03*
G04 #@! TO.N,BME280_SCL*
X168656000Y-95504000D03*
X158496000Y-88646000D03*
X155956000Y-89154000D03*
X168656000Y-91694000D03*
X131826000Y-87884000D03*
X143191096Y-91644391D03*
G04 #@! TO.N,DUST_RX*
X147320000Y-87884000D03*
X177655000Y-104435602D03*
G04 #@! TO.N,DUST_TX*
X149860000Y-87630000D03*
X153924000Y-87630000D03*
X154432000Y-89408000D03*
X155702000Y-94488000D03*
X159004000Y-94488000D03*
X171958000Y-110236000D03*
X182993000Y-103632000D03*
X168148000Y-109727992D03*
G04 #@! TO.N,PRG*
X171471077Y-104032021D03*
X172612021Y-100060256D03*
G04 #@! TO.N,ADC*
X174244000Y-97536000D03*
G04 #@! TO.N,DUST_EN*
X140208000Y-100330000D03*
X144018000Y-100330000D03*
G04 #@! TO.N,WIND_EN*
X159512000Y-100330000D03*
X158496000Y-99314000D03*
X116124500Y-100122500D03*
X156636534Y-97631210D03*
G04 #@! TO.N,BME280_EN*
X135128000Y-92710000D03*
X158242000Y-97028000D03*
G04 #@! TO.N,Net-(C11-Pad1)*
X172974000Y-97790000D03*
X167273015Y-106680015D03*
G04 #@! TO.N,Net-(R8-Pad2)*
X179578000Y-108204000D03*
X172466000Y-107950014D03*
G04 #@! TO.N,ESP_VCC*
X170180000Y-117348000D03*
X165100000Y-98806000D03*
X175260000Y-99060000D03*
X178054000Y-97028000D03*
X172212000Y-105918000D03*
X178308000Y-99568000D03*
X178816000Y-101853956D03*
X168567155Y-101854000D03*
X171697643Y-101824856D03*
X164733000Y-92202000D03*
X162305994Y-122434000D03*
X175699573Y-118264668D03*
X182748998Y-91948000D03*
G04 #@! TO.N,+9VA*
X104540000Y-84654962D03*
X106793000Y-90678022D03*
G04 #@! TO.N,5V6*
X105745162Y-97261072D03*
X105745162Y-92181072D03*
X101681162Y-93959072D03*
X131799604Y-103013902D03*
X100656146Y-98785072D03*
X114170000Y-103124000D03*
X122806000Y-103124000D03*
X144780000Y-103123990D03*
X151220064Y-103378002D03*
G04 #@! TO.N,Net-(C15-Pad1)*
X179832000Y-102362000D03*
X179623534Y-104602466D03*
G04 #@! TO.N,Net-(C16-Pad1)*
X181610000Y-104902000D03*
X179832000Y-103345255D03*
G04 #@! TO.N,Net-(C17-Pad1)*
X149098000Y-115570000D03*
X150622000Y-112268000D03*
X152048566Y-107647489D03*
G04 #@! TO.N,Net-(C25-Pad1)*
X127000000Y-97282000D03*
X123331000Y-99822000D03*
G04 #@! TO.N,Net-(C26-Pad1)*
X117602000Y-91898500D03*
X113298000Y-95504000D03*
X123444000Y-101346000D03*
G04 #@! TO.N,+9V*
X89283980Y-103632000D03*
X99460000Y-84655018D03*
G04 #@! TO.N,+BATT*
X148336000Y-107696000D03*
X173228000Y-94488000D03*
X163322000Y-96012000D03*
X166116000Y-96012000D03*
X73406000Y-111252000D03*
X103124000Y-110540812D03*
X129963084Y-107077902D03*
X70996044Y-111506000D03*
X112587500Y-106934000D03*
X121158000Y-106934000D03*
X67055982Y-107583000D03*
G04 #@! TO.N,Net-(R5-Pad2)*
X174589093Y-106907234D03*
X176532094Y-107555616D03*
G04 #@! TO.N,Net-(R6-Pad2)*
X178308000Y-107188000D03*
X175514006Y-106679994D03*
G04 #@! TO.N,Net-(R12-Pad2)*
X103124000Y-103835200D03*
X74422000Y-110998000D03*
G04 #@! TO.N,Net-(TH1-Pad1)*
X78740000Y-116078000D03*
X72390000Y-110998000D03*
G04 #@! TO.N,~CHARGE*
X72644000Y-104648000D03*
X159512000Y-97536000D03*
G04 #@! TO.N,~FAULT*
X178054000Y-105410000D03*
X71882000Y-105156000D03*
X70358000Y-101854000D03*
X171450000Y-108204000D03*
X73502957Y-102711210D03*
G04 #@! TO.N,Net-(J7-Pad10)*
X149352000Y-81280000D03*
X145796000Y-91186000D03*
G04 #@! TD*
D24*
G04 #@! TO.N,GND*
G36*
X157442191Y-79718191D02*
X157301843Y-79928235D01*
X157252560Y-80176000D01*
X157252560Y-81876000D01*
X157301843Y-82123765D01*
X157442191Y-82333809D01*
X157652235Y-82474157D01*
X157900000Y-82523440D01*
X159600000Y-82523440D01*
X159847765Y-82474157D01*
X160057809Y-82333809D01*
X160198157Y-82123765D01*
X160207184Y-82078381D01*
X160219375Y-82096625D01*
X160710582Y-82424839D01*
X161143744Y-82511000D01*
X161436256Y-82511000D01*
X161869418Y-82424839D01*
X162360625Y-82096625D01*
X162560000Y-81798239D01*
X162759375Y-82096625D01*
X163250582Y-82424839D01*
X163683744Y-82511000D01*
X163976256Y-82511000D01*
X164409418Y-82424839D01*
X164900625Y-82096625D01*
X165113843Y-81777522D01*
X165174817Y-81907358D01*
X165603076Y-82297645D01*
X166013110Y-82467476D01*
X166243000Y-82346155D01*
X166243000Y-81153000D01*
X166497000Y-81153000D01*
X166497000Y-82346155D01*
X166726890Y-82467476D01*
X167136924Y-82297645D01*
X167565183Y-81907358D01*
X167811486Y-81382892D01*
X167690819Y-81153000D01*
X166497000Y-81153000D01*
X166243000Y-81153000D01*
X166223000Y-81153000D01*
X166223000Y-80899000D01*
X166243000Y-80899000D01*
X166243000Y-80879000D01*
X166497000Y-80879000D01*
X166497000Y-80899000D01*
X167690819Y-80899000D01*
X167811486Y-80669108D01*
X167565183Y-80144642D01*
X167136924Y-79754355D01*
X166969476Y-79685000D01*
X181315001Y-79685000D01*
X181315000Y-87932538D01*
X181301581Y-88000000D01*
X181354745Y-88267273D01*
X181506143Y-88493857D01*
X181732727Y-88645255D01*
X182000000Y-88698419D01*
X182067461Y-88685000D01*
X187315000Y-88685000D01*
X187315001Y-118999000D01*
X182118000Y-118999000D01*
X182069399Y-119008667D01*
X182028197Y-119036197D01*
X182000667Y-119077399D01*
X181991000Y-119126000D01*
X181991000Y-124315000D01*
X66929000Y-124315000D01*
X66929000Y-121686062D01*
X82038460Y-121686062D01*
X82131959Y-121911826D01*
X82399848Y-122226942D01*
X82767935Y-122415554D01*
X82931000Y-122289628D01*
X82931000Y-121523000D01*
X83185000Y-121523000D01*
X83185000Y-122289628D01*
X83348065Y-122415554D01*
X83713841Y-122228126D01*
X161270994Y-122228126D01*
X161270994Y-122639874D01*
X161428563Y-123020280D01*
X161719714Y-123311431D01*
X162100120Y-123469000D01*
X162511868Y-123469000D01*
X162892274Y-123311431D01*
X163183425Y-123020280D01*
X163340994Y-122639874D01*
X163340994Y-122228126D01*
X163183425Y-121847720D01*
X162892274Y-121556569D01*
X162511868Y-121399000D01*
X162100120Y-121399000D01*
X161719714Y-121556569D01*
X161428563Y-121847720D01*
X161270994Y-122228126D01*
X83713841Y-122228126D01*
X83716152Y-122226942D01*
X83984041Y-121911826D01*
X84077540Y-121686062D01*
X83950257Y-121523000D01*
X83185000Y-121523000D01*
X82931000Y-121523000D01*
X82165743Y-121523000D01*
X82038460Y-121686062D01*
X66929000Y-121686062D01*
X66929000Y-119971000D01*
X81985560Y-119971000D01*
X81985560Y-120821000D01*
X82034843Y-121068765D01*
X82046580Y-121086331D01*
X82038460Y-121105938D01*
X82165743Y-121269000D01*
X82168637Y-121269000D01*
X82175191Y-121278809D01*
X82385235Y-121419157D01*
X82633000Y-121468440D01*
X83483000Y-121468440D01*
X83730765Y-121419157D01*
X83940809Y-121278809D01*
X83947363Y-121269000D01*
X83950257Y-121269000D01*
X84077540Y-121105938D01*
X84069420Y-121086331D01*
X84081157Y-121068765D01*
X84130440Y-120821000D01*
X84130440Y-119971000D01*
X84081157Y-119723235D01*
X83940809Y-119513191D01*
X83730765Y-119372843D01*
X83483000Y-119323560D01*
X82633000Y-119323560D01*
X82385235Y-119372843D01*
X82175191Y-119513191D01*
X82034843Y-119723235D01*
X81985560Y-119971000D01*
X66929000Y-119971000D01*
X66929000Y-119126000D01*
X66919333Y-119077399D01*
X66891803Y-119036197D01*
X66850601Y-119008667D01*
X66802000Y-118999000D01*
X61685000Y-118999000D01*
X61685000Y-117700000D01*
X98052560Y-117700000D01*
X98052560Y-120300000D01*
X98101843Y-120547765D01*
X98242191Y-120757809D01*
X98452235Y-120898157D01*
X98700000Y-120947440D01*
X101300000Y-120947440D01*
X101547765Y-120898157D01*
X101757809Y-120757809D01*
X101898157Y-120547765D01*
X101933623Y-120369459D01*
X103810146Y-120369459D01*
X103945504Y-120667455D01*
X104663880Y-120944066D01*
X105433427Y-120924710D01*
X106054496Y-120667455D01*
X106189854Y-120369459D01*
X105000000Y-119179605D01*
X103810146Y-120369459D01*
X101933623Y-120369459D01*
X101947440Y-120300000D01*
X101947440Y-118663880D01*
X103055934Y-118663880D01*
X103075290Y-119433427D01*
X103332545Y-120054496D01*
X103630541Y-120189854D01*
X104820395Y-119000000D01*
X105179605Y-119000000D01*
X106369459Y-120189854D01*
X106667455Y-120054496D01*
X106944066Y-119336120D01*
X106924710Y-118566573D01*
X106667455Y-117945504D01*
X106369459Y-117810146D01*
X105179605Y-119000000D01*
X104820395Y-119000000D01*
X103630541Y-117810146D01*
X103332545Y-117945504D01*
X103055934Y-118663880D01*
X101947440Y-118663880D01*
X101947440Y-117700000D01*
X101933624Y-117630541D01*
X103810146Y-117630541D01*
X105000000Y-118820395D01*
X106189854Y-117630541D01*
X106054496Y-117332545D01*
X105559966Y-117142126D01*
X169145000Y-117142126D01*
X169145000Y-117553874D01*
X169302569Y-117934280D01*
X169593720Y-118225431D01*
X169974126Y-118383000D01*
X170385874Y-118383000D01*
X170766280Y-118225431D01*
X170932917Y-118058794D01*
X174664573Y-118058794D01*
X174664573Y-118470542D01*
X174822142Y-118850948D01*
X175113293Y-119142099D01*
X175493699Y-119299668D01*
X175905447Y-119299668D01*
X176285853Y-119142099D01*
X176577004Y-118850948D01*
X176734573Y-118470542D01*
X176734573Y-118058794D01*
X176577004Y-117678388D01*
X176285853Y-117387237D01*
X175905447Y-117229668D01*
X175493699Y-117229668D01*
X175113293Y-117387237D01*
X174822142Y-117678388D01*
X174664573Y-118058794D01*
X170932917Y-118058794D01*
X171057431Y-117934280D01*
X171215000Y-117553874D01*
X171215000Y-117142126D01*
X171057431Y-116761720D01*
X170766280Y-116470569D01*
X170385874Y-116313000D01*
X169974126Y-116313000D01*
X169593720Y-116470569D01*
X169302569Y-116761720D01*
X169145000Y-117142126D01*
X105559966Y-117142126D01*
X105336120Y-117055934D01*
X104566573Y-117075290D01*
X103945504Y-117332545D01*
X103810146Y-117630541D01*
X101933624Y-117630541D01*
X101898157Y-117452235D01*
X101757809Y-117242191D01*
X101547765Y-117101843D01*
X101300000Y-117052560D01*
X98700000Y-117052560D01*
X98452235Y-117101843D01*
X98242191Y-117242191D01*
X98101843Y-117452235D01*
X98052560Y-117700000D01*
X61685000Y-117700000D01*
X61685000Y-115872126D01*
X77705000Y-115872126D01*
X77705000Y-116283874D01*
X77862569Y-116664280D01*
X78153720Y-116955431D01*
X78534126Y-117113000D01*
X78945874Y-117113000D01*
X79326280Y-116955431D01*
X79617431Y-116664280D01*
X79775000Y-116283874D01*
X79775000Y-115872126D01*
X79617431Y-115491720D01*
X79489837Y-115364126D01*
X148063000Y-115364126D01*
X148063000Y-115775874D01*
X148220569Y-116156280D01*
X148511720Y-116447431D01*
X148892126Y-116605000D01*
X149303874Y-116605000D01*
X149684280Y-116447431D01*
X149975431Y-116156280D01*
X150133000Y-115775874D01*
X150133000Y-115364126D01*
X149975431Y-114983720D01*
X149684280Y-114692569D01*
X149303874Y-114535000D01*
X148892126Y-114535000D01*
X148511720Y-114692569D01*
X148220569Y-114983720D01*
X148063000Y-115364126D01*
X79489837Y-115364126D01*
X79326280Y-115200569D01*
X78945874Y-115043000D01*
X78534126Y-115043000D01*
X78153720Y-115200569D01*
X77862569Y-115491720D01*
X77705000Y-115872126D01*
X61685000Y-115872126D01*
X61685000Y-111300126D01*
X69961044Y-111300126D01*
X69961044Y-111711874D01*
X70118613Y-112092280D01*
X70409764Y-112383431D01*
X70790170Y-112541000D01*
X71201918Y-112541000D01*
X71582324Y-112383431D01*
X71873475Y-112092280D01*
X71939927Y-111931850D01*
X72184126Y-112033000D01*
X72595874Y-112033000D01*
X72685970Y-111995681D01*
X72819720Y-112129431D01*
X73200126Y-112287000D01*
X73611874Y-112287000D01*
X73992280Y-112129431D01*
X74059585Y-112062126D01*
X149587000Y-112062126D01*
X149587000Y-112473874D01*
X149744569Y-112854280D01*
X150035720Y-113145431D01*
X150416126Y-113303000D01*
X150827874Y-113303000D01*
X151208280Y-113145431D01*
X151499431Y-112854280D01*
X151657000Y-112473874D01*
X151657000Y-112062126D01*
X151499431Y-111681720D01*
X151208280Y-111390569D01*
X150827874Y-111233000D01*
X150416126Y-111233000D01*
X150035720Y-111390569D01*
X149744569Y-111681720D01*
X149587000Y-112062126D01*
X74059585Y-112062126D01*
X74126030Y-111995681D01*
X74216126Y-112033000D01*
X74627874Y-112033000D01*
X75008280Y-111875431D01*
X75299431Y-111584280D01*
X75457000Y-111203874D01*
X75457000Y-110792126D01*
X75299431Y-110411720D01*
X75222649Y-110334938D01*
X102089000Y-110334938D01*
X102089000Y-110746686D01*
X102246569Y-111127092D01*
X102537720Y-111418243D01*
X102918126Y-111575812D01*
X103329874Y-111575812D01*
X103710280Y-111418243D01*
X104001431Y-111127092D01*
X104159000Y-110746686D01*
X104159000Y-110334938D01*
X104001431Y-109954532D01*
X103710280Y-109663381D01*
X103369241Y-109522118D01*
X167113000Y-109522118D01*
X167113000Y-109933866D01*
X167270569Y-110314272D01*
X167561720Y-110605423D01*
X167942126Y-110762992D01*
X168353874Y-110762992D01*
X168734280Y-110605423D01*
X169025431Y-110314272D01*
X169143127Y-110030126D01*
X170923000Y-110030126D01*
X170923000Y-110441874D01*
X171080569Y-110822280D01*
X171371720Y-111113431D01*
X171752126Y-111271000D01*
X172163874Y-111271000D01*
X172544280Y-111113431D01*
X172835431Y-110822280D01*
X172993000Y-110441874D01*
X172993000Y-110030126D01*
X172835431Y-109649720D01*
X172544280Y-109358569D01*
X172163874Y-109201000D01*
X171752126Y-109201000D01*
X171371720Y-109358569D01*
X171080569Y-109649720D01*
X170923000Y-110030126D01*
X169143127Y-110030126D01*
X169183000Y-109933866D01*
X169183000Y-109522118D01*
X169025431Y-109141712D01*
X168734280Y-108850561D01*
X168353874Y-108692992D01*
X167942126Y-108692992D01*
X167561720Y-108850561D01*
X167270569Y-109141712D01*
X167113000Y-109522118D01*
X103369241Y-109522118D01*
X103329874Y-109505812D01*
X102918126Y-109505812D01*
X102537720Y-109663381D01*
X102246569Y-109954532D01*
X102089000Y-110334938D01*
X75222649Y-110334938D01*
X75008280Y-110120569D01*
X74627874Y-109963000D01*
X74216126Y-109963000D01*
X73835720Y-110120569D01*
X73701970Y-110254319D01*
X73611874Y-110217000D01*
X73200126Y-110217000D01*
X73110030Y-110254319D01*
X72976280Y-110120569D01*
X72595874Y-109963000D01*
X72184126Y-109963000D01*
X71803720Y-110120569D01*
X71512569Y-110411720D01*
X71446117Y-110572150D01*
X71201918Y-110471000D01*
X70790170Y-110471000D01*
X70409764Y-110628569D01*
X70118613Y-110919720D01*
X69961044Y-111300126D01*
X61685000Y-111300126D01*
X61685000Y-107377126D01*
X66020982Y-107377126D01*
X66020982Y-107788874D01*
X66178551Y-108169280D01*
X66469702Y-108460431D01*
X66850108Y-108618000D01*
X67261856Y-108618000D01*
X67642262Y-108460431D01*
X67933413Y-108169280D01*
X68090982Y-107788874D01*
X68090982Y-107377126D01*
X67933413Y-106996720D01*
X67664819Y-106728126D01*
X111552500Y-106728126D01*
X111552500Y-107139874D01*
X111710069Y-107520280D01*
X112001220Y-107811431D01*
X112381626Y-107969000D01*
X112793374Y-107969000D01*
X113173780Y-107811431D01*
X113464931Y-107520280D01*
X113622500Y-107139874D01*
X113622500Y-106728126D01*
X120123000Y-106728126D01*
X120123000Y-107139874D01*
X120280569Y-107520280D01*
X120571720Y-107811431D01*
X120952126Y-107969000D01*
X121363874Y-107969000D01*
X121744280Y-107811431D01*
X122035431Y-107520280D01*
X122193000Y-107139874D01*
X122193000Y-106872028D01*
X128928084Y-106872028D01*
X128928084Y-107283776D01*
X129085653Y-107664182D01*
X129376804Y-107955333D01*
X129757210Y-108112902D01*
X130168958Y-108112902D01*
X130549364Y-107955333D01*
X130840515Y-107664182D01*
X130912611Y-107490126D01*
X147301000Y-107490126D01*
X147301000Y-107901874D01*
X147458569Y-108282280D01*
X147749720Y-108573431D01*
X148130126Y-108731000D01*
X148541874Y-108731000D01*
X148922280Y-108573431D01*
X149213431Y-108282280D01*
X149371000Y-107901874D01*
X149371000Y-107490126D01*
X149350907Y-107441615D01*
X151013566Y-107441615D01*
X151013566Y-107853363D01*
X151171135Y-108233769D01*
X151462286Y-108524920D01*
X151842692Y-108682489D01*
X152254440Y-108682489D01*
X152634846Y-108524920D01*
X152925997Y-108233769D01*
X153023603Y-107998126D01*
X170415000Y-107998126D01*
X170415000Y-108409874D01*
X170572569Y-108790280D01*
X170863720Y-109081431D01*
X171244126Y-109239000D01*
X171655874Y-109239000D01*
X172036280Y-109081431D01*
X172170020Y-108947691D01*
X172260126Y-108985014D01*
X172671874Y-108985014D01*
X173052280Y-108827445D01*
X173343431Y-108536294D01*
X173501000Y-108155888D01*
X173501000Y-107744140D01*
X173343431Y-107363734D01*
X173052280Y-107072583D01*
X172671874Y-106915014D01*
X172509581Y-106915014D01*
X172798280Y-106795431D01*
X172892351Y-106701360D01*
X173554093Y-106701360D01*
X173554093Y-107113108D01*
X173711662Y-107493514D01*
X174002813Y-107784665D01*
X174383219Y-107942234D01*
X174794967Y-107942234D01*
X175175373Y-107784665D01*
X175263522Y-107696516D01*
X175308132Y-107714994D01*
X175497094Y-107714994D01*
X175497094Y-107761490D01*
X175654663Y-108141896D01*
X175945814Y-108433047D01*
X176326220Y-108590616D01*
X176737968Y-108590616D01*
X177118374Y-108433047D01*
X177409525Y-108141896D01*
X177523361Y-107867072D01*
X177721720Y-108065431D01*
X178102126Y-108223000D01*
X178513874Y-108223000D01*
X178543000Y-108210936D01*
X178543000Y-108409874D01*
X178700569Y-108790280D01*
X178991720Y-109081431D01*
X179372126Y-109239000D01*
X179783874Y-109239000D01*
X180164280Y-109081431D01*
X180455431Y-108790280D01*
X180613000Y-108409874D01*
X180613000Y-107998126D01*
X180455431Y-107617720D01*
X180164280Y-107326569D01*
X179783874Y-107169000D01*
X179372126Y-107169000D01*
X179343000Y-107181064D01*
X179343000Y-106982126D01*
X179185431Y-106601720D01*
X178894280Y-106310569D01*
X178698314Y-106229397D01*
X178931431Y-105996280D01*
X179089000Y-105615874D01*
X179089000Y-105501331D01*
X179417660Y-105637466D01*
X179829408Y-105637466D01*
X180209814Y-105479897D01*
X180500965Y-105188746D01*
X180575000Y-105010009D01*
X180575000Y-105107874D01*
X180732569Y-105488280D01*
X181023720Y-105779431D01*
X181404126Y-105937000D01*
X181815874Y-105937000D01*
X182196280Y-105779431D01*
X182487431Y-105488280D01*
X182645000Y-105107874D01*
X182645000Y-104696126D01*
X182601002Y-104589905D01*
X182787126Y-104667000D01*
X183198874Y-104667000D01*
X183579280Y-104509431D01*
X183870431Y-104218280D01*
X184028000Y-103837874D01*
X184028000Y-103426126D01*
X183870431Y-103045720D01*
X183579280Y-102754569D01*
X183198874Y-102597000D01*
X182787126Y-102597000D01*
X182406720Y-102754569D01*
X182115569Y-103045720D01*
X181958000Y-103426126D01*
X181958000Y-103837874D01*
X182001998Y-103944095D01*
X181815874Y-103867000D01*
X181404126Y-103867000D01*
X181023720Y-104024569D01*
X180732569Y-104315720D01*
X180658534Y-104494457D01*
X180658534Y-104396592D01*
X180537230Y-104103736D01*
X180709431Y-103931535D01*
X180867000Y-103551129D01*
X180867000Y-103139381D01*
X180748637Y-102853628D01*
X180867000Y-102567874D01*
X180867000Y-102156126D01*
X180709431Y-101775720D01*
X180418280Y-101484569D01*
X180037874Y-101327000D01*
X179718004Y-101327000D01*
X179693431Y-101267676D01*
X179402280Y-100976525D01*
X179021874Y-100818956D01*
X178610126Y-100818956D01*
X178229720Y-100976525D01*
X177938569Y-101267676D01*
X177781000Y-101648082D01*
X177781000Y-102059830D01*
X177938569Y-102440236D01*
X178229720Y-102731387D01*
X178610126Y-102888956D01*
X178900729Y-102888956D01*
X178797000Y-103139381D01*
X178797000Y-103551129D01*
X178918304Y-103843985D01*
X178746103Y-104016186D01*
X178673826Y-104190679D01*
X178532431Y-103849322D01*
X178241280Y-103558171D01*
X177860874Y-103400602D01*
X177449126Y-103400602D01*
X177068720Y-103558171D01*
X176895086Y-103731805D01*
X176918742Y-103669935D01*
X176910702Y-103377645D01*
X176814315Y-103144946D01*
X176631509Y-103163202D01*
X176250711Y-103544000D01*
X176286067Y-103579356D01*
X176215356Y-103650067D01*
X176180000Y-103614711D01*
X175799202Y-103995509D01*
X175780946Y-104178315D01*
X176054065Y-104282742D01*
X176346355Y-104274702D01*
X176579054Y-104178315D01*
X176572880Y-104116488D01*
X176618342Y-104161950D01*
X176669099Y-104111193D01*
X176620000Y-104229728D01*
X176620000Y-104641476D01*
X176777569Y-105021882D01*
X177019000Y-105263313D01*
X177019000Y-105615874D01*
X177176569Y-105996280D01*
X177467720Y-106287431D01*
X177663686Y-106368603D01*
X177430569Y-106601720D01*
X177316733Y-106876544D01*
X177118374Y-106678185D01*
X176737968Y-106520616D01*
X176549006Y-106520616D01*
X176549006Y-106474120D01*
X176391437Y-106093714D01*
X176100286Y-105802563D01*
X175719880Y-105644994D01*
X175308132Y-105644994D01*
X174927726Y-105802563D01*
X174839577Y-105890712D01*
X174794967Y-105872234D01*
X174383219Y-105872234D01*
X174002813Y-106029803D01*
X173711662Y-106320954D01*
X173554093Y-106701360D01*
X172892351Y-106701360D01*
X173089431Y-106504280D01*
X173247000Y-106123874D01*
X173247000Y-105712126D01*
X173089431Y-105331720D01*
X172798280Y-105040569D01*
X172417874Y-104883000D01*
X172083809Y-104883000D01*
X172348508Y-104618301D01*
X172506077Y-104237895D01*
X172506077Y-104178315D01*
X173780946Y-104178315D01*
X174054065Y-104282742D01*
X174346355Y-104274702D01*
X174579054Y-104178315D01*
X174780946Y-104178315D01*
X175054065Y-104282742D01*
X175346355Y-104274702D01*
X175579054Y-104178315D01*
X175560798Y-103995509D01*
X175180000Y-103614711D01*
X174799202Y-103995509D01*
X174780946Y-104178315D01*
X174579054Y-104178315D01*
X174560798Y-103995509D01*
X174180000Y-103614711D01*
X173799202Y-103995509D01*
X173780946Y-104178315D01*
X172506077Y-104178315D01*
X172506077Y-103826147D01*
X172348508Y-103445741D01*
X172320832Y-103418065D01*
X173441258Y-103418065D01*
X173449298Y-103710355D01*
X173545685Y-103943054D01*
X173728491Y-103924798D01*
X174109289Y-103544000D01*
X173728491Y-103163202D01*
X173545685Y-103144946D01*
X173441258Y-103418065D01*
X172320832Y-103418065D01*
X172057357Y-103154590D01*
X171676951Y-102997021D01*
X171265203Y-102997021D01*
X170884797Y-103154590D01*
X170593646Y-103445741D01*
X170436077Y-103826147D01*
X170436077Y-104237895D01*
X170593646Y-104618301D01*
X170884797Y-104909452D01*
X171265203Y-105067021D01*
X171599268Y-105067021D01*
X171334569Y-105331720D01*
X171177000Y-105712126D01*
X171177000Y-106123874D01*
X171334569Y-106504280D01*
X171625720Y-106795431D01*
X172006126Y-106953000D01*
X172168419Y-106953000D01*
X171879720Y-107072583D01*
X171745980Y-107206323D01*
X171655874Y-107169000D01*
X171244126Y-107169000D01*
X170863720Y-107326569D01*
X170572569Y-107617720D01*
X170415000Y-107998126D01*
X153023603Y-107998126D01*
X153083566Y-107853363D01*
X153083566Y-107441615D01*
X152925997Y-107061209D01*
X152634846Y-106770058D01*
X152254440Y-106612489D01*
X151842692Y-106612489D01*
X151462286Y-106770058D01*
X151171135Y-107061209D01*
X151013566Y-107441615D01*
X149350907Y-107441615D01*
X149213431Y-107109720D01*
X148922280Y-106818569D01*
X148541874Y-106661000D01*
X148130126Y-106661000D01*
X147749720Y-106818569D01*
X147458569Y-107109720D01*
X147301000Y-107490126D01*
X130912611Y-107490126D01*
X130998084Y-107283776D01*
X130998084Y-106872028D01*
X130840515Y-106491622D01*
X130823034Y-106474141D01*
X166238015Y-106474141D01*
X166238015Y-106885889D01*
X166395584Y-107266295D01*
X166686735Y-107557446D01*
X167067141Y-107715015D01*
X167478889Y-107715015D01*
X167859295Y-107557446D01*
X168150446Y-107266295D01*
X168308015Y-106885889D01*
X168308015Y-106474141D01*
X168150446Y-106093735D01*
X167859295Y-105802584D01*
X167478889Y-105645015D01*
X167067141Y-105645015D01*
X166686735Y-105802584D01*
X166395584Y-106093735D01*
X166238015Y-106474141D01*
X130823034Y-106474141D01*
X130549364Y-106200471D01*
X130168958Y-106042902D01*
X129757210Y-106042902D01*
X129376804Y-106200471D01*
X129085653Y-106491622D01*
X128928084Y-106872028D01*
X122193000Y-106872028D01*
X122193000Y-106728126D01*
X122035431Y-106347720D01*
X121744280Y-106056569D01*
X121363874Y-105899000D01*
X120952126Y-105899000D01*
X120571720Y-106056569D01*
X120280569Y-106347720D01*
X120123000Y-106728126D01*
X113622500Y-106728126D01*
X113464931Y-106347720D01*
X113173780Y-106056569D01*
X112793374Y-105899000D01*
X112381626Y-105899000D01*
X112001220Y-106056569D01*
X111710069Y-106347720D01*
X111552500Y-106728126D01*
X67664819Y-106728126D01*
X67642262Y-106705569D01*
X67261856Y-106548000D01*
X66850108Y-106548000D01*
X66469702Y-106705569D01*
X66178551Y-106996720D01*
X66020982Y-107377126D01*
X61685000Y-107377126D01*
X61685000Y-104950126D01*
X70847000Y-104950126D01*
X70847000Y-105361874D01*
X71004569Y-105742280D01*
X71295720Y-106033431D01*
X71676126Y-106191000D01*
X72087874Y-106191000D01*
X72468280Y-106033431D01*
X72759431Y-105742280D01*
X72783986Y-105683000D01*
X72849874Y-105683000D01*
X73230280Y-105525431D01*
X73521431Y-105234280D01*
X73613293Y-105012504D01*
X73872220Y-105271431D01*
X74252626Y-105429000D01*
X74664374Y-105429000D01*
X75044780Y-105271431D01*
X75335931Y-104980280D01*
X75493500Y-104599874D01*
X75493500Y-104188126D01*
X75335931Y-103807720D01*
X75044780Y-103516569D01*
X74664374Y-103359000D01*
X74318878Y-103359000D01*
X74380388Y-103297490D01*
X74537957Y-102917084D01*
X74537957Y-102664126D01*
X79229000Y-102664126D01*
X79229000Y-103075874D01*
X79386569Y-103456280D01*
X79677720Y-103747431D01*
X80010661Y-103885339D01*
X80148569Y-104218280D01*
X80439720Y-104509431D01*
X80820126Y-104667000D01*
X81231874Y-104667000D01*
X81534000Y-104541856D01*
X81836126Y-104667000D01*
X82247874Y-104667000D01*
X82550000Y-104541856D01*
X82852126Y-104667000D01*
X83263874Y-104667000D01*
X83566000Y-104541856D01*
X83868126Y-104667000D01*
X84279874Y-104667000D01*
X84582000Y-104541856D01*
X84884126Y-104667000D01*
X85295874Y-104667000D01*
X85676280Y-104509431D01*
X85787011Y-104398700D01*
X85897742Y-104509431D01*
X86278148Y-104667000D01*
X86689896Y-104667000D01*
X87070302Y-104509431D01*
X87361453Y-104218280D01*
X87519022Y-103837874D01*
X87519022Y-103426126D01*
X88248980Y-103426126D01*
X88248980Y-103837874D01*
X88406549Y-104218280D01*
X88697700Y-104509431D01*
X89078106Y-104667000D01*
X89489854Y-104667000D01*
X89870260Y-104509431D01*
X90161411Y-104218280D01*
X90318980Y-103837874D01*
X90318980Y-103629326D01*
X102089000Y-103629326D01*
X102089000Y-104041074D01*
X102246569Y-104421480D01*
X102537720Y-104712631D01*
X102918126Y-104870200D01*
X103329874Y-104870200D01*
X103710280Y-104712631D01*
X104001431Y-104421480D01*
X104159000Y-104041074D01*
X104159000Y-103629326D01*
X104001431Y-103248920D01*
X103710280Y-102957769D01*
X103614574Y-102918126D01*
X113135000Y-102918126D01*
X113135000Y-103329874D01*
X113292569Y-103710280D01*
X113583720Y-104001431D01*
X113964126Y-104159000D01*
X114375874Y-104159000D01*
X114756280Y-104001431D01*
X115047431Y-103710280D01*
X115205000Y-103329874D01*
X115205000Y-102918126D01*
X121771000Y-102918126D01*
X121771000Y-103329874D01*
X121928569Y-103710280D01*
X122219720Y-104001431D01*
X122600126Y-104159000D01*
X123011874Y-104159000D01*
X123392280Y-104001431D01*
X123683431Y-103710280D01*
X123841000Y-103329874D01*
X123841000Y-102918126D01*
X123795397Y-102808028D01*
X130764604Y-102808028D01*
X130764604Y-103219776D01*
X130922173Y-103600182D01*
X131213324Y-103891333D01*
X131593730Y-104048902D01*
X132005478Y-104048902D01*
X132385884Y-103891333D01*
X132677035Y-103600182D01*
X132834604Y-103219776D01*
X132834604Y-102918116D01*
X143745000Y-102918116D01*
X143745000Y-103329864D01*
X143902569Y-103710270D01*
X144193720Y-104001421D01*
X144574126Y-104158990D01*
X144985874Y-104158990D01*
X145366280Y-104001421D01*
X145657431Y-103710270D01*
X145815000Y-103329864D01*
X145815000Y-103172128D01*
X150185064Y-103172128D01*
X150185064Y-103583876D01*
X150342633Y-103964282D01*
X150633784Y-104255433D01*
X151014190Y-104413002D01*
X151425938Y-104413002D01*
X151806344Y-104255433D01*
X152097495Y-103964282D01*
X152255064Y-103583876D01*
X152255064Y-103172128D01*
X152097495Y-102791722D01*
X151806344Y-102500571D01*
X151425938Y-102343002D01*
X151014190Y-102343002D01*
X150633784Y-102500571D01*
X150342633Y-102791722D01*
X150185064Y-103172128D01*
X145815000Y-103172128D01*
X145815000Y-102918116D01*
X145657431Y-102537710D01*
X145366280Y-102246559D01*
X144985874Y-102088990D01*
X144574126Y-102088990D01*
X144193720Y-102246559D01*
X143902569Y-102537710D01*
X143745000Y-102918116D01*
X132834604Y-102918116D01*
X132834604Y-102808028D01*
X132677035Y-102427622D01*
X132385884Y-102136471D01*
X132005478Y-101978902D01*
X131593730Y-101978902D01*
X131213324Y-102136471D01*
X130922173Y-102427622D01*
X130764604Y-102808028D01*
X123795397Y-102808028D01*
X123683431Y-102537720D01*
X123526711Y-102381000D01*
X123649874Y-102381000D01*
X124030280Y-102223431D01*
X124321431Y-101932280D01*
X124439131Y-101648126D01*
X167532155Y-101648126D01*
X167532155Y-102059874D01*
X167689724Y-102440280D01*
X167980875Y-102731431D01*
X168361281Y-102889000D01*
X168773029Y-102889000D01*
X169153435Y-102731431D01*
X169444586Y-102440280D01*
X169602155Y-102059874D01*
X169602155Y-101648126D01*
X169590084Y-101618982D01*
X170662643Y-101618982D01*
X170662643Y-102030730D01*
X170820212Y-102411136D01*
X171111363Y-102702287D01*
X171491769Y-102859856D01*
X171903517Y-102859856D01*
X172283923Y-102702287D01*
X172568145Y-102418065D01*
X173441258Y-102418065D01*
X173449298Y-102710355D01*
X173545685Y-102943054D01*
X173728491Y-102924798D01*
X174109289Y-102544000D01*
X173728491Y-102163202D01*
X173545685Y-102144946D01*
X173441258Y-102418065D01*
X172568145Y-102418065D01*
X172575074Y-102411136D01*
X172732643Y-102030730D01*
X172732643Y-101618982D01*
X172649421Y-101418065D01*
X173441258Y-101418065D01*
X173449298Y-101710355D01*
X173545685Y-101943054D01*
X173728491Y-101924798D01*
X173743604Y-101909685D01*
X173780946Y-101909685D01*
X173794359Y-102044000D01*
X173780946Y-102178315D01*
X173949456Y-102242745D01*
X174180000Y-102473289D01*
X174401378Y-102251911D01*
X174524246Y-102201017D01*
X174481255Y-102313456D01*
X174250711Y-102544000D01*
X174472089Y-102765378D01*
X174522983Y-102888246D01*
X174410544Y-102845255D01*
X174180000Y-102614711D01*
X173958622Y-102836089D01*
X173780946Y-102909685D01*
X173794359Y-103044000D01*
X173780946Y-103178315D01*
X173949456Y-103242745D01*
X174180000Y-103473289D01*
X174401378Y-103251911D01*
X174524246Y-103201017D01*
X174481255Y-103313456D01*
X174250711Y-103544000D01*
X174472089Y-103765378D01*
X174545685Y-103943054D01*
X174680000Y-103929641D01*
X174814315Y-103943054D01*
X174878745Y-103774544D01*
X175109289Y-103544000D01*
X174887911Y-103322622D01*
X174837017Y-103199754D01*
X174949456Y-103242745D01*
X175180000Y-103473289D01*
X175401378Y-103251911D01*
X175524246Y-103201017D01*
X175481255Y-103313456D01*
X175250711Y-103544000D01*
X175472089Y-103765378D01*
X175545685Y-103943054D01*
X175680000Y-103929641D01*
X175814315Y-103943054D01*
X175878745Y-103774544D01*
X176109289Y-103544000D01*
X175887911Y-103322622D01*
X175837017Y-103199754D01*
X175949456Y-103242745D01*
X176180000Y-103473289D01*
X176401378Y-103251911D01*
X176579054Y-103178315D01*
X176565641Y-103044000D01*
X176579054Y-102909685D01*
X176410544Y-102845255D01*
X176180000Y-102614711D01*
X175958622Y-102836089D01*
X175835754Y-102886983D01*
X175878745Y-102774544D01*
X176109289Y-102544000D01*
X176250711Y-102544000D01*
X176631509Y-102924798D01*
X176814315Y-102943054D01*
X176918742Y-102669935D01*
X176910702Y-102377645D01*
X176814315Y-102144946D01*
X176631509Y-102163202D01*
X176250711Y-102544000D01*
X176109289Y-102544000D01*
X175887911Y-102322622D01*
X175837017Y-102199754D01*
X175949456Y-102242745D01*
X176180000Y-102473289D01*
X176401378Y-102251911D01*
X176579054Y-102178315D01*
X176565641Y-102044000D01*
X176579054Y-101909685D01*
X176410544Y-101845255D01*
X176180000Y-101614711D01*
X175958622Y-101836089D01*
X175835754Y-101886983D01*
X175878745Y-101774544D01*
X176109289Y-101544000D01*
X176250711Y-101544000D01*
X176631509Y-101924798D01*
X176814315Y-101943054D01*
X176918742Y-101669935D01*
X176910702Y-101377645D01*
X176814315Y-101144946D01*
X176631509Y-101163202D01*
X176250711Y-101544000D01*
X176109289Y-101544000D01*
X175887911Y-101322622D01*
X175814315Y-101144946D01*
X175680000Y-101158359D01*
X175545685Y-101144946D01*
X175481255Y-101313456D01*
X175250711Y-101544000D01*
X175472089Y-101765378D01*
X175522983Y-101888246D01*
X175410544Y-101845255D01*
X175180000Y-101614711D01*
X174958622Y-101836089D01*
X174835754Y-101886983D01*
X174878745Y-101774544D01*
X175109289Y-101544000D01*
X174887911Y-101322622D01*
X174814315Y-101144946D01*
X174680000Y-101158359D01*
X174545685Y-101144946D01*
X174481255Y-101313456D01*
X174250711Y-101544000D01*
X174472089Y-101765378D01*
X174522983Y-101888246D01*
X174410544Y-101845255D01*
X174180000Y-101614711D01*
X173958622Y-101836089D01*
X173780946Y-101909685D01*
X173743604Y-101909685D01*
X174109289Y-101544000D01*
X173728491Y-101163202D01*
X173545685Y-101144946D01*
X173441258Y-101418065D01*
X172649421Y-101418065D01*
X172575074Y-101238576D01*
X172431754Y-101095256D01*
X172817895Y-101095256D01*
X173198301Y-100937687D01*
X173226303Y-100909685D01*
X173780946Y-100909685D01*
X173799202Y-101092491D01*
X174180000Y-101473289D01*
X174560798Y-101092491D01*
X174579054Y-100909685D01*
X174780946Y-100909685D01*
X174799202Y-101092491D01*
X175180000Y-101473289D01*
X175560798Y-101092491D01*
X175579054Y-100909685D01*
X175780946Y-100909685D01*
X175799202Y-101092491D01*
X176180000Y-101473289D01*
X176560798Y-101092491D01*
X176579054Y-100909685D01*
X176305935Y-100805258D01*
X176013645Y-100813298D01*
X175780946Y-100909685D01*
X175579054Y-100909685D01*
X175305935Y-100805258D01*
X175013645Y-100813298D01*
X174780946Y-100909685D01*
X174579054Y-100909685D01*
X174305935Y-100805258D01*
X174013645Y-100813298D01*
X173780946Y-100909685D01*
X173226303Y-100909685D01*
X173489452Y-100646536D01*
X173647021Y-100266130D01*
X173647021Y-99854382D01*
X173489452Y-99473976D01*
X173198301Y-99182825D01*
X172817895Y-99025256D01*
X172406147Y-99025256D01*
X172025741Y-99182825D01*
X171734590Y-99473976D01*
X171577021Y-99854382D01*
X171577021Y-100266130D01*
X171734590Y-100646536D01*
X171877910Y-100789856D01*
X171491769Y-100789856D01*
X171111363Y-100947425D01*
X170820212Y-101238576D01*
X170662643Y-101618982D01*
X169590084Y-101618982D01*
X169444586Y-101267720D01*
X169153435Y-100976569D01*
X168773029Y-100819000D01*
X168361281Y-100819000D01*
X167980875Y-100976569D01*
X167689724Y-101267720D01*
X167532155Y-101648126D01*
X124439131Y-101648126D01*
X124479000Y-101551874D01*
X124479000Y-101140126D01*
X124321431Y-100759720D01*
X124089211Y-100527500D01*
X124208431Y-100408280D01*
X124326131Y-100124126D01*
X139173000Y-100124126D01*
X139173000Y-100535874D01*
X139330569Y-100916280D01*
X139621720Y-101207431D01*
X140002126Y-101365000D01*
X140413874Y-101365000D01*
X140794280Y-101207431D01*
X141085431Y-100916280D01*
X141243000Y-100535874D01*
X141243000Y-100124126D01*
X142983000Y-100124126D01*
X142983000Y-100535874D01*
X143140569Y-100916280D01*
X143431720Y-101207431D01*
X143812126Y-101365000D01*
X144223874Y-101365000D01*
X144604280Y-101207431D01*
X144895431Y-100916280D01*
X145053000Y-100535874D01*
X145053000Y-100124126D01*
X144895431Y-99743720D01*
X144604280Y-99452569D01*
X144223874Y-99295000D01*
X143812126Y-99295000D01*
X143431720Y-99452569D01*
X143140569Y-99743720D01*
X142983000Y-100124126D01*
X141243000Y-100124126D01*
X141085431Y-99743720D01*
X140794280Y-99452569D01*
X140413874Y-99295000D01*
X140002126Y-99295000D01*
X139621720Y-99452569D01*
X139330569Y-99743720D01*
X139173000Y-100124126D01*
X124326131Y-100124126D01*
X124366000Y-100027874D01*
X124366000Y-99616126D01*
X124208431Y-99235720D01*
X123917280Y-98944569D01*
X123536874Y-98787000D01*
X123125126Y-98787000D01*
X122744720Y-98944569D01*
X122453569Y-99235720D01*
X122296000Y-99616126D01*
X122296000Y-100027874D01*
X122453569Y-100408280D01*
X122685789Y-100640500D01*
X122566569Y-100759720D01*
X122409000Y-101140126D01*
X122409000Y-101551874D01*
X122566569Y-101932280D01*
X122723289Y-102089000D01*
X122600126Y-102089000D01*
X122219720Y-102246569D01*
X121928569Y-102537720D01*
X121771000Y-102918126D01*
X115205000Y-102918126D01*
X115047431Y-102537720D01*
X114756280Y-102246569D01*
X114375874Y-102089000D01*
X113964126Y-102089000D01*
X113583720Y-102246569D01*
X113292569Y-102537720D01*
X113135000Y-102918126D01*
X103614574Y-102918126D01*
X103329874Y-102800200D01*
X102918126Y-102800200D01*
X102537720Y-102957769D01*
X102246569Y-103248920D01*
X102089000Y-103629326D01*
X90318980Y-103629326D01*
X90318980Y-103426126D01*
X90161411Y-103045720D01*
X89870260Y-102754569D01*
X89489854Y-102597000D01*
X89078106Y-102597000D01*
X88697700Y-102754569D01*
X88406549Y-103045720D01*
X88248980Y-103426126D01*
X87519022Y-103426126D01*
X87361453Y-103045720D01*
X87070302Y-102754569D01*
X86689896Y-102597000D01*
X86278148Y-102597000D01*
X85897742Y-102754569D01*
X85787011Y-102865300D01*
X85676280Y-102754569D01*
X85295874Y-102597000D01*
X84884126Y-102597000D01*
X84582000Y-102722144D01*
X84279874Y-102597000D01*
X83868126Y-102597000D01*
X83566000Y-102722144D01*
X83263874Y-102597000D01*
X82852126Y-102597000D01*
X82550000Y-102722144D01*
X82247874Y-102597000D01*
X81836126Y-102597000D01*
X81534000Y-102722144D01*
X81279339Y-102616661D01*
X81141431Y-102283720D01*
X80850280Y-101992569D01*
X80469874Y-101835000D01*
X80058126Y-101835000D01*
X79677720Y-101992569D01*
X79386569Y-102283720D01*
X79229000Y-102664126D01*
X74537957Y-102664126D01*
X74537957Y-102505336D01*
X74380388Y-102124930D01*
X74089237Y-101833779D01*
X73708831Y-101676210D01*
X73297083Y-101676210D01*
X72916677Y-101833779D01*
X72625526Y-102124930D01*
X72467957Y-102505336D01*
X72467957Y-102917084D01*
X72625526Y-103297490D01*
X72916677Y-103588641D01*
X73297083Y-103746210D01*
X73642579Y-103746210D01*
X73581069Y-103807720D01*
X73489207Y-104029496D01*
X73230280Y-103770569D01*
X72849874Y-103613000D01*
X72438126Y-103613000D01*
X72057720Y-103770569D01*
X71766569Y-104061720D01*
X71742014Y-104121000D01*
X71676126Y-104121000D01*
X71295720Y-104278569D01*
X71004569Y-104569720D01*
X70847000Y-104950126D01*
X61685000Y-104950126D01*
X61685000Y-101648126D01*
X69323000Y-101648126D01*
X69323000Y-102059874D01*
X69480569Y-102440280D01*
X69771720Y-102731431D01*
X70152126Y-102889000D01*
X70563874Y-102889000D01*
X70944280Y-102731431D01*
X71235431Y-102440280D01*
X71393000Y-102059874D01*
X71393000Y-101648126D01*
X71235431Y-101267720D01*
X70944280Y-100976569D01*
X70563874Y-100819000D01*
X70152126Y-100819000D01*
X69771720Y-100976569D01*
X69480569Y-101267720D01*
X69323000Y-101648126D01*
X61685000Y-101648126D01*
X61685000Y-88685000D01*
X67932539Y-88685000D01*
X68000000Y-88698419D01*
X68267273Y-88645255D01*
X68493857Y-88493857D01*
X68645255Y-88267273D01*
X68685000Y-88067462D01*
X68685000Y-88067461D01*
X68698419Y-88000000D01*
X68685000Y-87932538D01*
X68685000Y-86369459D01*
X70810146Y-86369459D01*
X70945504Y-86667455D01*
X71663880Y-86944066D01*
X72433427Y-86924710D01*
X73054496Y-86667455D01*
X73189854Y-86369459D01*
X72000000Y-85179605D01*
X70810146Y-86369459D01*
X68685000Y-86369459D01*
X68685000Y-84663880D01*
X70055934Y-84663880D01*
X70075290Y-85433427D01*
X70332545Y-86054496D01*
X70630541Y-86189854D01*
X71820395Y-85000000D01*
X72179605Y-85000000D01*
X73369459Y-86189854D01*
X73667455Y-86054496D01*
X73944066Y-85336120D01*
X73924710Y-84566573D01*
X73667455Y-83945504D01*
X73369459Y-83810146D01*
X72179605Y-85000000D01*
X71820395Y-85000000D01*
X70630541Y-83810146D01*
X70332545Y-83945504D01*
X70055934Y-84663880D01*
X68685000Y-84663880D01*
X68685000Y-83630541D01*
X70810146Y-83630541D01*
X72000000Y-84820395D01*
X73120395Y-83700000D01*
X75052560Y-83700000D01*
X75052560Y-86300000D01*
X75101843Y-86547765D01*
X75242191Y-86757809D01*
X75452235Y-86898157D01*
X75700000Y-86947440D01*
X76057239Y-86947440D01*
X75965000Y-87170126D01*
X75965000Y-87581874D01*
X76090144Y-87884000D01*
X75965000Y-88186126D01*
X75965000Y-88597874D01*
X76090144Y-88900000D01*
X75965000Y-89202126D01*
X75965000Y-89613874D01*
X76090144Y-89916000D01*
X75965000Y-90218126D01*
X75965000Y-90629874D01*
X76090144Y-90932000D01*
X75965000Y-91234126D01*
X75965000Y-91645874D01*
X76090144Y-91948000D01*
X75965000Y-92250126D01*
X75965000Y-92661874D01*
X76090144Y-92964000D01*
X75965000Y-93266126D01*
X75965000Y-93677874D01*
X76090144Y-93980000D01*
X75965000Y-94282126D01*
X75965000Y-94693874D01*
X76090144Y-94996000D01*
X75965000Y-95298126D01*
X75965000Y-95709874D01*
X76090144Y-96012000D01*
X75965000Y-96314126D01*
X75965000Y-96725874D01*
X76090144Y-97028000D01*
X75965000Y-97330126D01*
X75965000Y-97741874D01*
X76090144Y-98044000D01*
X75965000Y-98346126D01*
X75965000Y-98757874D01*
X76098014Y-99079000D01*
X75965000Y-99400126D01*
X75965000Y-99811874D01*
X76063274Y-100049130D01*
X75927000Y-100378126D01*
X75927000Y-100789874D01*
X76084569Y-101170280D01*
X76375720Y-101461431D01*
X76756126Y-101619000D01*
X77167874Y-101619000D01*
X77470000Y-101493856D01*
X77724661Y-101599339D01*
X77862569Y-101932280D01*
X78153720Y-102223431D01*
X78534126Y-102381000D01*
X78945874Y-102381000D01*
X79326280Y-102223431D01*
X79617431Y-101932280D01*
X79775000Y-101551874D01*
X79775000Y-101140126D01*
X79617431Y-100759720D01*
X79326280Y-100468569D01*
X78993339Y-100330661D01*
X78855431Y-99997720D01*
X78774337Y-99916626D01*
X115089500Y-99916626D01*
X115089500Y-100328374D01*
X115247069Y-100708780D01*
X115538220Y-100999931D01*
X115918626Y-101157500D01*
X116330374Y-101157500D01*
X116710780Y-100999931D01*
X117001931Y-100708780D01*
X117159500Y-100328374D01*
X117159500Y-99916626D01*
X117001931Y-99536220D01*
X116710780Y-99245069D01*
X116330374Y-99087500D01*
X115918626Y-99087500D01*
X115538220Y-99245069D01*
X115247069Y-99536220D01*
X115089500Y-99916626D01*
X78774337Y-99916626D01*
X78564280Y-99706569D01*
X78183874Y-99549000D01*
X78035000Y-99549000D01*
X78035000Y-99400126D01*
X77901986Y-99079000D01*
X78035000Y-98757874D01*
X78035000Y-98579198D01*
X99621146Y-98579198D01*
X99621146Y-98990946D01*
X99778715Y-99371352D01*
X100069866Y-99662503D01*
X100450272Y-99820072D01*
X100862020Y-99820072D01*
X101242426Y-99662503D01*
X101533577Y-99371352D01*
X101691146Y-98990946D01*
X101691146Y-98579198D01*
X101533577Y-98198792D01*
X101242426Y-97907641D01*
X100862020Y-97750072D01*
X100450272Y-97750072D01*
X100069866Y-97907641D01*
X99778715Y-98198792D01*
X99621146Y-98579198D01*
X78035000Y-98579198D01*
X78035000Y-98346126D01*
X77909856Y-98044000D01*
X78035000Y-97741874D01*
X78035000Y-97330126D01*
X77921122Y-97055198D01*
X104710162Y-97055198D01*
X104710162Y-97466946D01*
X104867731Y-97847352D01*
X105158882Y-98138503D01*
X105539288Y-98296072D01*
X105951036Y-98296072D01*
X106331442Y-98138503D01*
X106622593Y-97847352D01*
X106780162Y-97466946D01*
X106780162Y-97076126D01*
X125965000Y-97076126D01*
X125965000Y-97487874D01*
X126122569Y-97868280D01*
X126413720Y-98159431D01*
X126794126Y-98317000D01*
X127205874Y-98317000D01*
X127586280Y-98159431D01*
X127877431Y-97868280D01*
X128035000Y-97487874D01*
X128035000Y-97330126D01*
X143745000Y-97330126D01*
X143745000Y-97741874D01*
X143902569Y-98122280D01*
X144193720Y-98413431D01*
X144574126Y-98571000D01*
X144985874Y-98571000D01*
X145366280Y-98413431D01*
X145657431Y-98122280D01*
X145815000Y-97741874D01*
X145815000Y-97425336D01*
X155601534Y-97425336D01*
X155601534Y-97837084D01*
X155759103Y-98217490D01*
X156050254Y-98508641D01*
X156430660Y-98666210D01*
X156842408Y-98666210D01*
X157222814Y-98508641D01*
X157513965Y-98217490D01*
X157646884Y-97896595D01*
X157655720Y-97905431D01*
X158036126Y-98063000D01*
X158447874Y-98063000D01*
X158586270Y-98005675D01*
X158634569Y-98122280D01*
X158854515Y-98342226D01*
X158701874Y-98279000D01*
X158290126Y-98279000D01*
X157909720Y-98436569D01*
X157618569Y-98727720D01*
X157461000Y-99108126D01*
X157461000Y-99519874D01*
X157618569Y-99900280D01*
X157909720Y-100191431D01*
X158290126Y-100349000D01*
X158477000Y-100349000D01*
X158477000Y-100535874D01*
X158634569Y-100916280D01*
X158925720Y-101207431D01*
X159306126Y-101365000D01*
X159717874Y-101365000D01*
X160098280Y-101207431D01*
X160389431Y-100916280D01*
X160547000Y-100535874D01*
X160547000Y-100124126D01*
X160389431Y-99743720D01*
X160098280Y-99452569D01*
X159717874Y-99295000D01*
X159531000Y-99295000D01*
X159531000Y-99108126D01*
X159373431Y-98727720D01*
X159245837Y-98600126D01*
X164065000Y-98600126D01*
X164065000Y-99011874D01*
X164222569Y-99392280D01*
X164513720Y-99683431D01*
X164894126Y-99841000D01*
X165305874Y-99841000D01*
X165686280Y-99683431D01*
X165977431Y-99392280D01*
X166135000Y-99011874D01*
X166135000Y-98600126D01*
X165977431Y-98219720D01*
X165686280Y-97928569D01*
X165305874Y-97771000D01*
X164894126Y-97771000D01*
X164513720Y-97928569D01*
X164222569Y-98219720D01*
X164065000Y-98600126D01*
X159245837Y-98600126D01*
X159153485Y-98507774D01*
X159306126Y-98571000D01*
X159717874Y-98571000D01*
X160098280Y-98413431D01*
X160389431Y-98122280D01*
X160547000Y-97741874D01*
X160547000Y-97425336D01*
X166859000Y-97425336D01*
X166859000Y-97837084D01*
X167016569Y-98217490D01*
X167307720Y-98508641D01*
X167688126Y-98666210D01*
X168099874Y-98666210D01*
X168480280Y-98508641D01*
X168771431Y-98217490D01*
X168929000Y-97837084D01*
X168929000Y-97584126D01*
X171939000Y-97584126D01*
X171939000Y-97995874D01*
X172096569Y-98376280D01*
X172387720Y-98667431D01*
X172768126Y-98825000D01*
X173179874Y-98825000D01*
X173560280Y-98667431D01*
X173768425Y-98459286D01*
X174038126Y-98571000D01*
X174342274Y-98571000D01*
X174225000Y-98854126D01*
X174225000Y-99265874D01*
X174382569Y-99646280D01*
X174673720Y-99937431D01*
X175054126Y-100095000D01*
X175465874Y-100095000D01*
X175846280Y-99937431D01*
X176137431Y-99646280D01*
X176255131Y-99362126D01*
X177273000Y-99362126D01*
X177273000Y-99773874D01*
X177430569Y-100154280D01*
X177721720Y-100445431D01*
X178102126Y-100603000D01*
X178513874Y-100603000D01*
X178894280Y-100445431D01*
X179185431Y-100154280D01*
X179343000Y-99773874D01*
X179343000Y-99362126D01*
X179185431Y-98981720D01*
X178894280Y-98690569D01*
X178513874Y-98533000D01*
X178102126Y-98533000D01*
X177721720Y-98690569D01*
X177430569Y-98981720D01*
X177273000Y-99362126D01*
X176255131Y-99362126D01*
X176295000Y-99265874D01*
X176295000Y-98854126D01*
X176137431Y-98473720D01*
X175846280Y-98182569D01*
X175465874Y-98025000D01*
X175161726Y-98025000D01*
X175279000Y-97741874D01*
X175279000Y-97330126D01*
X175121431Y-96949720D01*
X174993837Y-96822126D01*
X177019000Y-96822126D01*
X177019000Y-97233874D01*
X177176569Y-97614280D01*
X177467720Y-97905431D01*
X177848126Y-98063000D01*
X178259874Y-98063000D01*
X178640280Y-97905431D01*
X178931431Y-97614280D01*
X179089000Y-97233874D01*
X179089000Y-96822126D01*
X178931431Y-96441720D01*
X178640280Y-96150569D01*
X178259874Y-95993000D01*
X177848126Y-95993000D01*
X177467720Y-96150569D01*
X177176569Y-96441720D01*
X177019000Y-96822126D01*
X174993837Y-96822126D01*
X174830280Y-96658569D01*
X174449874Y-96501000D01*
X174038126Y-96501000D01*
X173657720Y-96658569D01*
X173449575Y-96866714D01*
X173179874Y-96755000D01*
X172768126Y-96755000D01*
X172387720Y-96912569D01*
X172096569Y-97203720D01*
X171939000Y-97584126D01*
X168929000Y-97584126D01*
X168929000Y-97425336D01*
X168771431Y-97044930D01*
X168480280Y-96753779D01*
X168099874Y-96596210D01*
X167688126Y-96596210D01*
X167307720Y-96753779D01*
X167016569Y-97044930D01*
X166859000Y-97425336D01*
X160547000Y-97425336D01*
X160547000Y-97330126D01*
X160389431Y-96949720D01*
X160098280Y-96658569D01*
X159717874Y-96501000D01*
X159306126Y-96501000D01*
X159167730Y-96558325D01*
X159119431Y-96441720D01*
X158828280Y-96150569D01*
X158447874Y-95993000D01*
X158036126Y-95993000D01*
X157655720Y-96150569D01*
X157364569Y-96441720D01*
X157231650Y-96762615D01*
X157222814Y-96753779D01*
X156842408Y-96596210D01*
X156430660Y-96596210D01*
X156050254Y-96753779D01*
X155759103Y-97044930D01*
X155601534Y-97425336D01*
X145815000Y-97425336D01*
X145815000Y-97330126D01*
X145657431Y-96949720D01*
X145366280Y-96658569D01*
X144985874Y-96501000D01*
X144574126Y-96501000D01*
X144193720Y-96658569D01*
X143902569Y-96949720D01*
X143745000Y-97330126D01*
X128035000Y-97330126D01*
X128035000Y-97076126D01*
X127877431Y-96695720D01*
X127586280Y-96404569D01*
X127205874Y-96247000D01*
X126794126Y-96247000D01*
X126413720Y-96404569D01*
X126122569Y-96695720D01*
X125965000Y-97076126D01*
X106780162Y-97076126D01*
X106780162Y-97055198D01*
X106622593Y-96674792D01*
X106331442Y-96383641D01*
X105951036Y-96226072D01*
X105539288Y-96226072D01*
X105158882Y-96383641D01*
X104867731Y-96674792D01*
X104710162Y-97055198D01*
X77921122Y-97055198D01*
X77909856Y-97028000D01*
X78035000Y-96725874D01*
X78035000Y-96314126D01*
X77909856Y-96012000D01*
X78035000Y-95709874D01*
X78035000Y-95298126D01*
X112263000Y-95298126D01*
X112263000Y-95709874D01*
X112420569Y-96090280D01*
X112711720Y-96381431D01*
X113092126Y-96539000D01*
X113503874Y-96539000D01*
X113884280Y-96381431D01*
X114175431Y-96090280D01*
X114333000Y-95709874D01*
X114333000Y-95298126D01*
X114175431Y-94917720D01*
X113884280Y-94626569D01*
X113665931Y-94536126D01*
X122042000Y-94536126D01*
X122042000Y-94947874D01*
X122199569Y-95328280D01*
X122490720Y-95619431D01*
X122871126Y-95777000D01*
X123282874Y-95777000D01*
X123663280Y-95619431D01*
X123954431Y-95328280D01*
X124112000Y-94947874D01*
X124112000Y-94536126D01*
X125344000Y-94536126D01*
X125344000Y-94947874D01*
X125501569Y-95328280D01*
X125792720Y-95619431D01*
X126173126Y-95777000D01*
X126584874Y-95777000D01*
X126965280Y-95619431D01*
X127256431Y-95328280D01*
X127414000Y-94947874D01*
X127414000Y-94649126D01*
X128759000Y-94649126D01*
X128759000Y-95060874D01*
X128916569Y-95441280D01*
X129207720Y-95732431D01*
X129588126Y-95890000D01*
X129999874Y-95890000D01*
X130202364Y-95806126D01*
X162287000Y-95806126D01*
X162287000Y-96217874D01*
X162444569Y-96598280D01*
X162735720Y-96889431D01*
X163116126Y-97047000D01*
X163527874Y-97047000D01*
X163908280Y-96889431D01*
X164199431Y-96598280D01*
X164357000Y-96217874D01*
X164357000Y-95806126D01*
X165081000Y-95806126D01*
X165081000Y-96217874D01*
X165238569Y-96598280D01*
X165529720Y-96889431D01*
X165910126Y-97047000D01*
X166321874Y-97047000D01*
X166702280Y-96889431D01*
X166993431Y-96598280D01*
X167151000Y-96217874D01*
X167151000Y-95806126D01*
X166993431Y-95425720D01*
X166865837Y-95298126D01*
X167621000Y-95298126D01*
X167621000Y-95709874D01*
X167778569Y-96090280D01*
X168069720Y-96381431D01*
X168450126Y-96539000D01*
X168861874Y-96539000D01*
X169242280Y-96381431D01*
X169533431Y-96090280D01*
X169691000Y-95709874D01*
X169691000Y-95298126D01*
X169533431Y-94917720D01*
X169242280Y-94626569D01*
X168861874Y-94469000D01*
X168450126Y-94469000D01*
X168069720Y-94626569D01*
X167778569Y-94917720D01*
X167621000Y-95298126D01*
X166865837Y-95298126D01*
X166702280Y-95134569D01*
X166321874Y-94977000D01*
X165910126Y-94977000D01*
X165529720Y-95134569D01*
X165238569Y-95425720D01*
X165081000Y-95806126D01*
X164357000Y-95806126D01*
X164199431Y-95425720D01*
X163908280Y-95134569D01*
X163527874Y-94977000D01*
X163116126Y-94977000D01*
X162735720Y-95134569D01*
X162444569Y-95425720D01*
X162287000Y-95806126D01*
X130202364Y-95806126D01*
X130380280Y-95732431D01*
X130671431Y-95441280D01*
X130829000Y-95060874D01*
X130829000Y-94649126D01*
X130676984Y-94282126D01*
X154667000Y-94282126D01*
X154667000Y-94693874D01*
X154824569Y-95074280D01*
X155115720Y-95365431D01*
X155496126Y-95523000D01*
X155907874Y-95523000D01*
X156288280Y-95365431D01*
X156579431Y-95074280D01*
X156737000Y-94693874D01*
X156737000Y-94282126D01*
X157969000Y-94282126D01*
X157969000Y-94693874D01*
X158126569Y-95074280D01*
X158417720Y-95365431D01*
X158798126Y-95523000D01*
X159209874Y-95523000D01*
X159590280Y-95365431D01*
X159881431Y-95074280D01*
X160039000Y-94693874D01*
X160039000Y-94282126D01*
X172193000Y-94282126D01*
X172193000Y-94693874D01*
X172350569Y-95074280D01*
X172641720Y-95365431D01*
X173022126Y-95523000D01*
X173433874Y-95523000D01*
X173814280Y-95365431D01*
X174105431Y-95074280D01*
X174263000Y-94693874D01*
X174263000Y-94282126D01*
X174105431Y-93901720D01*
X173814280Y-93610569D01*
X173433874Y-93453000D01*
X173022126Y-93453000D01*
X172641720Y-93610569D01*
X172350569Y-93901720D01*
X172193000Y-94282126D01*
X160039000Y-94282126D01*
X159881431Y-93901720D01*
X159590280Y-93610569D01*
X159209874Y-93453000D01*
X158798126Y-93453000D01*
X158417720Y-93610569D01*
X158126569Y-93901720D01*
X157969000Y-94282126D01*
X156737000Y-94282126D01*
X156579431Y-93901720D01*
X156288280Y-93610569D01*
X155907874Y-93453000D01*
X155496126Y-93453000D01*
X155115720Y-93610569D01*
X154824569Y-93901720D01*
X154667000Y-94282126D01*
X130676984Y-94282126D01*
X130671431Y-94268720D01*
X130380280Y-93977569D01*
X129999874Y-93820000D01*
X129588126Y-93820000D01*
X129207720Y-93977569D01*
X128916569Y-94268720D01*
X128759000Y-94649126D01*
X127414000Y-94649126D01*
X127414000Y-94536126D01*
X127256431Y-94155720D01*
X126965280Y-93864569D01*
X126584874Y-93707000D01*
X126173126Y-93707000D01*
X125792720Y-93864569D01*
X125501569Y-94155720D01*
X125344000Y-94536126D01*
X124112000Y-94536126D01*
X123954431Y-94155720D01*
X123663280Y-93864569D01*
X123282874Y-93707000D01*
X122871126Y-93707000D01*
X122490720Y-93864569D01*
X122199569Y-94155720D01*
X122042000Y-94536126D01*
X113665931Y-94536126D01*
X113503874Y-94469000D01*
X113092126Y-94469000D01*
X112711720Y-94626569D01*
X112420569Y-94917720D01*
X112263000Y-95298126D01*
X78035000Y-95298126D01*
X77909856Y-94996000D01*
X78035000Y-94693874D01*
X78035000Y-94282126D01*
X77909856Y-93980000D01*
X78003799Y-93753198D01*
X100646162Y-93753198D01*
X100646162Y-94164946D01*
X100803731Y-94545352D01*
X101094882Y-94836503D01*
X101475288Y-94994072D01*
X101887036Y-94994072D01*
X102267442Y-94836503D01*
X102558593Y-94545352D01*
X102716162Y-94164946D01*
X102716162Y-93753198D01*
X102558593Y-93372792D01*
X102267442Y-93081641D01*
X101887036Y-92924072D01*
X101475288Y-92924072D01*
X101094882Y-93081641D01*
X100803731Y-93372792D01*
X100646162Y-93753198D01*
X78003799Y-93753198D01*
X78035000Y-93677874D01*
X78035000Y-93266126D01*
X77909856Y-92964000D01*
X78035000Y-92661874D01*
X78035000Y-92250126D01*
X77909856Y-91948000D01*
X78035000Y-91645874D01*
X78035000Y-91234126D01*
X77938023Y-91000000D01*
X87352560Y-91000000D01*
X87352560Y-93000000D01*
X87401843Y-93247765D01*
X87542191Y-93457809D01*
X87752235Y-93598157D01*
X88000000Y-93647440D01*
X92000000Y-93647440D01*
X92247765Y-93598157D01*
X92457809Y-93457809D01*
X92598157Y-93247765D01*
X92647440Y-93000000D01*
X92647440Y-91975198D01*
X104710162Y-91975198D01*
X104710162Y-92386946D01*
X104867731Y-92767352D01*
X105158882Y-93058503D01*
X105539288Y-93216072D01*
X105951036Y-93216072D01*
X106331442Y-93058503D01*
X106622593Y-92767352D01*
X106780162Y-92386946D01*
X106780162Y-91975198D01*
X106671565Y-91713022D01*
X106998874Y-91713022D01*
X107379280Y-91555453D01*
X107670431Y-91264302D01*
X107828000Y-90883896D01*
X107828000Y-90472148D01*
X107670431Y-90091742D01*
X107669815Y-90091126D01*
X112249000Y-90091126D01*
X112249000Y-90502874D01*
X112406569Y-90883280D01*
X112697720Y-91174431D01*
X113078126Y-91332000D01*
X113489874Y-91332000D01*
X113870280Y-91174431D01*
X114161431Y-90883280D01*
X114319000Y-90502874D01*
X114319000Y-90091126D01*
X114161431Y-89710720D01*
X113870280Y-89419569D01*
X113489874Y-89262000D01*
X113078126Y-89262000D01*
X112697720Y-89419569D01*
X112406569Y-89710720D01*
X112249000Y-90091126D01*
X107669815Y-90091126D01*
X107379280Y-89800591D01*
X106998874Y-89643022D01*
X106587126Y-89643022D01*
X106206720Y-89800591D01*
X105915569Y-90091742D01*
X105758000Y-90472148D01*
X105758000Y-90883896D01*
X105866597Y-91146072D01*
X105539288Y-91146072D01*
X105158882Y-91303641D01*
X104867731Y-91594792D01*
X104710162Y-91975198D01*
X92647440Y-91975198D01*
X92647440Y-91000000D01*
X92598157Y-90752235D01*
X92457809Y-90542191D01*
X92247765Y-90401843D01*
X92000000Y-90352560D01*
X88000000Y-90352560D01*
X87752235Y-90401843D01*
X87542191Y-90542191D01*
X87401843Y-90752235D01*
X87352560Y-91000000D01*
X77938023Y-91000000D01*
X77909856Y-90932000D01*
X78035000Y-90629874D01*
X78035000Y-90218126D01*
X77909856Y-89916000D01*
X78035000Y-89613874D01*
X78035000Y-89202126D01*
X77909856Y-88900000D01*
X78035000Y-88597874D01*
X78035000Y-88440126D01*
X115678000Y-88440126D01*
X115678000Y-88851874D01*
X115835569Y-89232280D01*
X116074789Y-89471500D01*
X115835569Y-89710720D01*
X115678000Y-90091126D01*
X115678000Y-90502874D01*
X115835569Y-90883280D01*
X116126720Y-91174431D01*
X116507126Y-91332000D01*
X116716376Y-91332000D01*
X116567000Y-91692626D01*
X116567000Y-92104374D01*
X116724569Y-92484780D01*
X117015720Y-92775931D01*
X117396126Y-92933500D01*
X117807874Y-92933500D01*
X118188280Y-92775931D01*
X118460085Y-92504126D01*
X134093000Y-92504126D01*
X134093000Y-92915874D01*
X134250569Y-93296280D01*
X134541720Y-93587431D01*
X134922126Y-93745000D01*
X135333874Y-93745000D01*
X135714280Y-93587431D01*
X136005431Y-93296280D01*
X136163000Y-92915874D01*
X136163000Y-92504126D01*
X136005431Y-92123720D01*
X135714280Y-91832569D01*
X135333874Y-91675000D01*
X134922126Y-91675000D01*
X134541720Y-91832569D01*
X134250569Y-92123720D01*
X134093000Y-92504126D01*
X118460085Y-92504126D01*
X118479431Y-92484780D01*
X118637000Y-92104374D01*
X118637000Y-91692626D01*
X118479431Y-91312220D01*
X118188280Y-91021069D01*
X117807874Y-90863500D01*
X117598624Y-90863500D01*
X117748000Y-90502874D01*
X117748000Y-90091126D01*
X121393000Y-90091126D01*
X121393000Y-90502874D01*
X121550569Y-90883280D01*
X121841720Y-91174431D01*
X122222126Y-91332000D01*
X122633874Y-91332000D01*
X123014280Y-91174431D01*
X123208585Y-90980126D01*
X136893022Y-90980126D01*
X136893022Y-91391874D01*
X137050591Y-91772280D01*
X137341742Y-92063431D01*
X137722148Y-92221000D01*
X138133896Y-92221000D01*
X138514302Y-92063431D01*
X138805453Y-91772280D01*
X138943701Y-91438517D01*
X142156096Y-91438517D01*
X142156096Y-91850265D01*
X142313665Y-92230671D01*
X142419107Y-92336113D01*
X142419107Y-92712663D01*
X142576676Y-93093069D01*
X142867827Y-93384220D01*
X143248233Y-93541789D01*
X143659981Y-93541789D01*
X144040387Y-93384220D01*
X144331538Y-93093069D01*
X144489107Y-92712663D01*
X144489107Y-92300915D01*
X144331538Y-91920509D01*
X144226096Y-91815067D01*
X144226096Y-91438517D01*
X144068527Y-91058111D01*
X143990542Y-90980126D01*
X144761000Y-90980126D01*
X144761000Y-91391874D01*
X144918569Y-91772280D01*
X145209720Y-92063431D01*
X145590126Y-92221000D01*
X146001874Y-92221000D01*
X146382280Y-92063431D01*
X146449585Y-91996126D01*
X163698000Y-91996126D01*
X163698000Y-92407874D01*
X163855569Y-92788280D01*
X164146720Y-93079431D01*
X164527126Y-93237000D01*
X164938874Y-93237000D01*
X165319280Y-93079431D01*
X165386585Y-93012126D01*
X166859000Y-93012126D01*
X166859000Y-93423874D01*
X167016569Y-93804280D01*
X167307720Y-94095431D01*
X167688126Y-94253000D01*
X168099874Y-94253000D01*
X168480280Y-94095431D01*
X168771431Y-93804280D01*
X168929000Y-93423874D01*
X168929000Y-93012126D01*
X168811726Y-92729000D01*
X168861874Y-92729000D01*
X169242280Y-92571431D01*
X169533431Y-92280280D01*
X169691000Y-91899874D01*
X169691000Y-91742126D01*
X181713998Y-91742126D01*
X181713998Y-92153874D01*
X181871567Y-92534280D01*
X182162718Y-92825431D01*
X182543124Y-92983000D01*
X182954872Y-92983000D01*
X183335278Y-92825431D01*
X183626429Y-92534280D01*
X183783998Y-92153874D01*
X183783998Y-91742126D01*
X183626429Y-91361720D01*
X183335278Y-91070569D01*
X182954872Y-90913000D01*
X182543124Y-90913000D01*
X182162718Y-91070569D01*
X181871567Y-91361720D01*
X181713998Y-91742126D01*
X169691000Y-91742126D01*
X169691000Y-91488126D01*
X169533431Y-91107720D01*
X169242280Y-90816569D01*
X168861874Y-90659000D01*
X168450126Y-90659000D01*
X168069720Y-90816569D01*
X167778569Y-91107720D01*
X167621000Y-91488126D01*
X167621000Y-91899874D01*
X167738274Y-92183000D01*
X167688126Y-92183000D01*
X167307720Y-92340569D01*
X167016569Y-92631720D01*
X166859000Y-93012126D01*
X165386585Y-93012126D01*
X165610431Y-92788280D01*
X165768000Y-92407874D01*
X165768000Y-91996126D01*
X165610431Y-91615720D01*
X165319280Y-91324569D01*
X164938874Y-91167000D01*
X164527126Y-91167000D01*
X164146720Y-91324569D01*
X163855569Y-91615720D01*
X163698000Y-91996126D01*
X146449585Y-91996126D01*
X146673431Y-91772280D01*
X146831000Y-91391874D01*
X146831000Y-90980126D01*
X146673431Y-90599720D01*
X146382280Y-90308569D01*
X146001874Y-90151000D01*
X145590126Y-90151000D01*
X145209720Y-90308569D01*
X144918569Y-90599720D01*
X144761000Y-90980126D01*
X143990542Y-90980126D01*
X143777376Y-90766960D01*
X143396970Y-90609391D01*
X142985222Y-90609391D01*
X142604816Y-90766960D01*
X142313665Y-91058111D01*
X142156096Y-91438517D01*
X138943701Y-91438517D01*
X138963022Y-91391874D01*
X138963022Y-90980126D01*
X138805453Y-90599720D01*
X138514302Y-90308569D01*
X138133896Y-90151000D01*
X137722148Y-90151000D01*
X137341742Y-90308569D01*
X137050591Y-90599720D01*
X136893022Y-90980126D01*
X123208585Y-90980126D01*
X123305431Y-90883280D01*
X123463000Y-90502874D01*
X123463000Y-90091126D01*
X123305431Y-89710720D01*
X123014280Y-89419569D01*
X122633874Y-89262000D01*
X122222126Y-89262000D01*
X121841720Y-89419569D01*
X121550569Y-89710720D01*
X121393000Y-90091126D01*
X117748000Y-90091126D01*
X117590431Y-89710720D01*
X117351211Y-89471500D01*
X117590431Y-89232280D01*
X117708131Y-88948126D01*
X133585000Y-88948126D01*
X133585000Y-89359874D01*
X133742569Y-89740280D01*
X134033720Y-90031431D01*
X134414126Y-90189000D01*
X134825874Y-90189000D01*
X135206280Y-90031431D01*
X135497431Y-89740280D01*
X135655000Y-89359874D01*
X135655000Y-88948126D01*
X135497431Y-88567720D01*
X135206280Y-88276569D01*
X134825874Y-88119000D01*
X134414126Y-88119000D01*
X134033720Y-88276569D01*
X133742569Y-88567720D01*
X133585000Y-88948126D01*
X117708131Y-88948126D01*
X117748000Y-88851874D01*
X117748000Y-88440126D01*
X117590431Y-88059720D01*
X117299280Y-87768569D01*
X117080931Y-87678126D01*
X130791000Y-87678126D01*
X130791000Y-88089874D01*
X130948569Y-88470280D01*
X131239720Y-88761431D01*
X131620126Y-88919000D01*
X132031874Y-88919000D01*
X132412280Y-88761431D01*
X132703431Y-88470280D01*
X132861000Y-88089874D01*
X132861000Y-87678126D01*
X146285000Y-87678126D01*
X146285000Y-88089874D01*
X146442569Y-88470280D01*
X146733720Y-88761431D01*
X147114126Y-88919000D01*
X147525874Y-88919000D01*
X147906280Y-88761431D01*
X148197431Y-88470280D01*
X148355000Y-88089874D01*
X148355000Y-87678126D01*
X148249790Y-87424126D01*
X148825000Y-87424126D01*
X148825000Y-87835874D01*
X148982569Y-88216280D01*
X149273720Y-88507431D01*
X149654126Y-88665000D01*
X150065874Y-88665000D01*
X150446280Y-88507431D01*
X150737431Y-88216280D01*
X150895000Y-87835874D01*
X150895000Y-87424126D01*
X152889000Y-87424126D01*
X152889000Y-87835874D01*
X153046569Y-88216280D01*
X153337720Y-88507431D01*
X153713292Y-88662997D01*
X153554569Y-88821720D01*
X153397000Y-89202126D01*
X153397000Y-89613874D01*
X153554569Y-89994280D01*
X153845720Y-90285431D01*
X154226126Y-90443000D01*
X154637874Y-90443000D01*
X155018280Y-90285431D01*
X155309431Y-89994280D01*
X155316208Y-89977919D01*
X155369720Y-90031431D01*
X155432503Y-90057437D01*
X155432503Y-90102348D01*
X155590072Y-90482754D01*
X155881223Y-90773905D01*
X156261629Y-90931474D01*
X156673377Y-90931474D01*
X157053783Y-90773905D01*
X157344934Y-90482754D01*
X157502503Y-90102348D01*
X157502503Y-89690600D01*
X157344934Y-89310194D01*
X157053783Y-89019043D01*
X156991000Y-88993037D01*
X156991000Y-88948126D01*
X156833431Y-88567720D01*
X156705837Y-88440126D01*
X157461000Y-88440126D01*
X157461000Y-88851874D01*
X157618569Y-89232280D01*
X157909720Y-89523431D01*
X158242661Y-89661339D01*
X158380569Y-89994280D01*
X158671720Y-90285431D01*
X159052126Y-90443000D01*
X159463874Y-90443000D01*
X159844280Y-90285431D01*
X160135431Y-89994280D01*
X160293000Y-89613874D01*
X160293000Y-89202126D01*
X160135431Y-88821720D01*
X159844280Y-88530569D01*
X159511339Y-88392661D01*
X159373431Y-88059720D01*
X159312911Y-87999200D01*
X170520405Y-87999200D01*
X170555692Y-88212768D01*
X170978564Y-88353149D01*
X171422968Y-88321018D01*
X171684308Y-88212768D01*
X171719595Y-87999200D01*
X179280405Y-87999200D01*
X179315692Y-88212768D01*
X179738564Y-88353149D01*
X180182968Y-88321018D01*
X180444308Y-88212768D01*
X180479595Y-87999200D01*
X179880000Y-87399605D01*
X179280405Y-87999200D01*
X171719595Y-87999200D01*
X171120000Y-87399605D01*
X170520405Y-87999200D01*
X159312911Y-87999200D01*
X159082280Y-87768569D01*
X158701874Y-87611000D01*
X158290126Y-87611000D01*
X157909720Y-87768569D01*
X157618569Y-88059720D01*
X157461000Y-88440126D01*
X156705837Y-88440126D01*
X156542280Y-88276569D01*
X156161874Y-88119000D01*
X155750126Y-88119000D01*
X155369720Y-88276569D01*
X155078569Y-88567720D01*
X155071792Y-88584081D01*
X155018280Y-88530569D01*
X154642708Y-88375003D01*
X154801431Y-88216280D01*
X154959000Y-87835874D01*
X154959000Y-87424126D01*
X154815864Y-87078564D01*
X169986851Y-87078564D01*
X170018982Y-87522968D01*
X170127232Y-87784308D01*
X170340800Y-87819595D01*
X170940395Y-87220000D01*
X171299605Y-87220000D01*
X171899200Y-87819595D01*
X172112768Y-87784308D01*
X172253149Y-87361436D01*
X172232697Y-87078564D01*
X178746851Y-87078564D01*
X178778982Y-87522968D01*
X178887232Y-87784308D01*
X179100800Y-87819595D01*
X179700395Y-87220000D01*
X180059605Y-87220000D01*
X180659200Y-87819595D01*
X180872768Y-87784308D01*
X181013149Y-87361436D01*
X180981018Y-86917032D01*
X180872768Y-86655692D01*
X180659200Y-86620405D01*
X180059605Y-87220000D01*
X179700395Y-87220000D01*
X179100800Y-86620405D01*
X178887232Y-86655692D01*
X178746851Y-87078564D01*
X172232697Y-87078564D01*
X172221018Y-86917032D01*
X172112768Y-86655692D01*
X171899200Y-86620405D01*
X171299605Y-87220000D01*
X170940395Y-87220000D01*
X170340800Y-86620405D01*
X170127232Y-86655692D01*
X169986851Y-87078564D01*
X154815864Y-87078564D01*
X154801431Y-87043720D01*
X154510280Y-86752569D01*
X154129874Y-86595000D01*
X153718126Y-86595000D01*
X153337720Y-86752569D01*
X153046569Y-87043720D01*
X152889000Y-87424126D01*
X150895000Y-87424126D01*
X150737431Y-87043720D01*
X150446280Y-86752569D01*
X150065874Y-86595000D01*
X149654126Y-86595000D01*
X149273720Y-86752569D01*
X148982569Y-87043720D01*
X148825000Y-87424126D01*
X148249790Y-87424126D01*
X148197431Y-87297720D01*
X147906280Y-87006569D01*
X147525874Y-86849000D01*
X147114126Y-86849000D01*
X146733720Y-87006569D01*
X146442569Y-87297720D01*
X146285000Y-87678126D01*
X132861000Y-87678126D01*
X132703431Y-87297720D01*
X132412280Y-87006569D01*
X132031874Y-86849000D01*
X131620126Y-86849000D01*
X131239720Y-87006569D01*
X130948569Y-87297720D01*
X130791000Y-87678126D01*
X117080931Y-87678126D01*
X116918874Y-87611000D01*
X116507126Y-87611000D01*
X116126720Y-87768569D01*
X115835569Y-88059720D01*
X115678000Y-88440126D01*
X78035000Y-88440126D01*
X78035000Y-88186126D01*
X77909856Y-87884000D01*
X78035000Y-87581874D01*
X78035000Y-87170126D01*
X77942761Y-86947440D01*
X78300000Y-86947440D01*
X78547765Y-86898157D01*
X78757809Y-86757809D01*
X78898157Y-86547765D01*
X78947440Y-86300000D01*
X78947440Y-84088969D01*
X83865000Y-84088969D01*
X83865000Y-85911030D01*
X83959864Y-86387944D01*
X84321231Y-86928769D01*
X84862055Y-87290136D01*
X85500000Y-87417031D01*
X86137944Y-87290136D01*
X86678769Y-86928769D01*
X87040136Y-86387945D01*
X87041630Y-86380434D01*
X87759876Y-86380434D01*
X87790856Y-86508355D01*
X88104078Y-87066317D01*
X88606980Y-87461942D01*
X89223000Y-87635000D01*
X89873000Y-87635000D01*
X89873000Y-86127000D01*
X90127000Y-86127000D01*
X90127000Y-87635000D01*
X90777000Y-87635000D01*
X91393020Y-87461942D01*
X91895922Y-87066317D01*
X92209144Y-86508355D01*
X92240124Y-86380434D01*
X92120777Y-86127000D01*
X90127000Y-86127000D01*
X89873000Y-86127000D01*
X87879223Y-86127000D01*
X87759876Y-86380434D01*
X87041630Y-86380434D01*
X87135000Y-85911031D01*
X87135000Y-85619566D01*
X87759876Y-85619566D01*
X87879223Y-85873000D01*
X89873000Y-85873000D01*
X89873000Y-85853000D01*
X90127000Y-85853000D01*
X90127000Y-85873000D01*
X92120777Y-85873000D01*
X92240124Y-85619566D01*
X92209144Y-85491645D01*
X91895922Y-84933683D01*
X91393020Y-84538058D01*
X90777000Y-84365000D01*
X90454434Y-84365000D01*
X90812862Y-84216534D01*
X90940427Y-84088969D01*
X92865000Y-84088969D01*
X92865000Y-85911030D01*
X92959864Y-86387944D01*
X93321231Y-86928769D01*
X93862055Y-87290136D01*
X94500000Y-87417031D01*
X95137944Y-87290136D01*
X95678769Y-86928769D01*
X96040136Y-86387945D01*
X96135000Y-85911031D01*
X96135000Y-84449144D01*
X98425000Y-84449144D01*
X98425000Y-84860892D01*
X98582569Y-85241298D01*
X98873720Y-85532449D01*
X99254126Y-85690018D01*
X99665874Y-85690018D01*
X100046280Y-85532449D01*
X100337431Y-85241298D01*
X100495000Y-84860892D01*
X100495000Y-84449144D01*
X100494977Y-84449088D01*
X103505000Y-84449088D01*
X103505000Y-84860836D01*
X103662569Y-85241242D01*
X103953720Y-85532393D01*
X104334126Y-85689962D01*
X104745874Y-85689962D01*
X104851703Y-85646126D01*
X108566000Y-85646126D01*
X108566000Y-86057874D01*
X108723569Y-86438280D01*
X109014720Y-86729431D01*
X109395126Y-86887000D01*
X109806874Y-86887000D01*
X110187280Y-86729431D01*
X110475911Y-86440800D01*
X170520405Y-86440800D01*
X171120000Y-87040395D01*
X171719595Y-86440800D01*
X179280405Y-86440800D01*
X179880000Y-87040395D01*
X180479595Y-86440800D01*
X180444308Y-86227232D01*
X180021436Y-86086851D01*
X179577032Y-86118982D01*
X179315692Y-86227232D01*
X179280405Y-86440800D01*
X171719595Y-86440800D01*
X171684308Y-86227232D01*
X171261436Y-86086851D01*
X170817032Y-86118982D01*
X170555692Y-86227232D01*
X170520405Y-86440800D01*
X110475911Y-86440800D01*
X110478431Y-86438280D01*
X110636000Y-86057874D01*
X110636000Y-85646126D01*
X110478431Y-85265720D01*
X110187280Y-84974569D01*
X109968931Y-84884126D01*
X127997000Y-84884126D01*
X127997000Y-85295874D01*
X128154569Y-85676280D01*
X128445720Y-85967431D01*
X128826126Y-86125000D01*
X129237874Y-86125000D01*
X129618280Y-85967431D01*
X129909431Y-85676280D01*
X130067000Y-85295874D01*
X130067000Y-84884126D01*
X129909431Y-84503720D01*
X129854837Y-84449126D01*
X135235000Y-84449126D01*
X135235000Y-84860874D01*
X135392569Y-85241280D01*
X135683720Y-85532431D01*
X136064126Y-85690000D01*
X136475874Y-85690000D01*
X136856280Y-85532431D01*
X137147431Y-85241280D01*
X137299002Y-84875354D01*
X140723957Y-84875354D01*
X140723957Y-85287102D01*
X140881526Y-85667508D01*
X141172677Y-85958659D01*
X141553083Y-86116228D01*
X141964831Y-86116228D01*
X142345237Y-85958659D01*
X142636388Y-85667508D01*
X142793957Y-85287102D01*
X142793957Y-84875354D01*
X142636388Y-84494948D01*
X142345237Y-84203797D01*
X141964831Y-84046228D01*
X141553083Y-84046228D01*
X141172677Y-84203797D01*
X140881526Y-84494948D01*
X140723957Y-84875354D01*
X137299002Y-84875354D01*
X137305000Y-84860874D01*
X137305000Y-84449126D01*
X137147431Y-84068720D01*
X136856280Y-83777569D01*
X136475874Y-83620000D01*
X136064126Y-83620000D01*
X135683720Y-83777569D01*
X135392569Y-84068720D01*
X135235000Y-84449126D01*
X129854837Y-84449126D01*
X129618280Y-84212569D01*
X129237874Y-84055000D01*
X128826126Y-84055000D01*
X128445720Y-84212569D01*
X128154569Y-84503720D01*
X127997000Y-84884126D01*
X109968931Y-84884126D01*
X109806874Y-84817000D01*
X109395126Y-84817000D01*
X109014720Y-84974569D01*
X108723569Y-85265720D01*
X108566000Y-85646126D01*
X104851703Y-85646126D01*
X105126280Y-85532393D01*
X105417431Y-85241242D01*
X105575000Y-84860836D01*
X105575000Y-84449088D01*
X105417431Y-84068682D01*
X105126280Y-83777531D01*
X104745874Y-83619962D01*
X104334126Y-83619962D01*
X103953720Y-83777531D01*
X103662569Y-84068682D01*
X103505000Y-84449088D01*
X100494977Y-84449088D01*
X100337431Y-84068738D01*
X100046280Y-83777587D01*
X99665874Y-83620018D01*
X99254126Y-83620018D01*
X98873720Y-83777587D01*
X98582569Y-84068738D01*
X98425000Y-84449144D01*
X96135000Y-84449144D01*
X96135000Y-84088969D01*
X96040136Y-83612055D01*
X95678769Y-83071231D01*
X95137945Y-82709864D01*
X94500000Y-82582969D01*
X93862056Y-82709864D01*
X93321232Y-83071231D01*
X92959865Y-83612055D01*
X92865000Y-84088969D01*
X90940427Y-84088969D01*
X91216534Y-83812862D01*
X91435000Y-83285439D01*
X91435000Y-82714561D01*
X91216534Y-82187138D01*
X90812862Y-81783466D01*
X90285439Y-81565000D01*
X89714561Y-81565000D01*
X89187138Y-81783466D01*
X88783466Y-82187138D01*
X88565000Y-82714561D01*
X88565000Y-83285439D01*
X88783466Y-83812862D01*
X89187138Y-84216534D01*
X89545566Y-84365000D01*
X89223000Y-84365000D01*
X88606980Y-84538058D01*
X88104078Y-84933683D01*
X87790856Y-85491645D01*
X87759876Y-85619566D01*
X87135000Y-85619566D01*
X87135000Y-84088969D01*
X87040136Y-83612055D01*
X86678769Y-83071231D01*
X86137945Y-82709864D01*
X85500000Y-82582969D01*
X84862056Y-82709864D01*
X84321232Y-83071231D01*
X83959865Y-83612055D01*
X83865000Y-84088969D01*
X78947440Y-84088969D01*
X78947440Y-83700000D01*
X78898157Y-83452235D01*
X78757809Y-83242191D01*
X78547765Y-83101843D01*
X78300000Y-83052560D01*
X75700000Y-83052560D01*
X75452235Y-83101843D01*
X75242191Y-83242191D01*
X75101843Y-83452235D01*
X75052560Y-83700000D01*
X73120395Y-83700000D01*
X73189854Y-83630541D01*
X73054496Y-83332545D01*
X72336120Y-83055934D01*
X71566573Y-83075290D01*
X70945504Y-83332545D01*
X70810146Y-83630541D01*
X68685000Y-83630541D01*
X68685000Y-81139124D01*
X120695000Y-81139124D01*
X120695000Y-81550872D01*
X120852569Y-81931278D01*
X121143720Y-82222429D01*
X121524126Y-82379998D01*
X121935874Y-82379998D01*
X122316280Y-82222429D01*
X122607431Y-81931278D01*
X122765000Y-81550872D01*
X122765000Y-81139124D01*
X122738078Y-81074126D01*
X129267000Y-81074126D01*
X129267000Y-81485874D01*
X129424569Y-81866280D01*
X129715720Y-82157431D01*
X130096126Y-82315000D01*
X130507874Y-82315000D01*
X130888280Y-82157431D01*
X131179431Y-81866280D01*
X131337000Y-81485874D01*
X131337000Y-81230000D01*
X141336765Y-81230000D01*
X141424854Y-81672855D01*
X141436869Y-81690836D01*
X141395843Y-81752235D01*
X141346560Y-82000000D01*
X141346560Y-83000000D01*
X141395843Y-83247765D01*
X141536191Y-83457809D01*
X141746235Y-83598157D01*
X141994000Y-83647440D01*
X142994000Y-83647440D01*
X143241765Y-83598157D01*
X143329817Y-83539322D01*
X143462126Y-83594119D01*
X143637000Y-83467954D01*
X143637000Y-83022322D01*
X143641440Y-83000000D01*
X143641440Y-82000000D01*
X143637000Y-81977678D01*
X143637000Y-81357000D01*
X143625973Y-81357000D01*
X143651235Y-81230000D01*
X143876765Y-81230000D01*
X143902027Y-81357000D01*
X143891000Y-81357000D01*
X143891000Y-82373000D01*
X143902027Y-82373000D01*
X143876765Y-82500000D01*
X143902027Y-82627000D01*
X143891000Y-82627000D01*
X143891000Y-83467954D01*
X144065874Y-83594119D01*
X144324209Y-83487127D01*
X144387090Y-83432801D01*
X144591145Y-83569146D01*
X144922217Y-83635000D01*
X145145783Y-83635000D01*
X145476855Y-83569146D01*
X145669000Y-83440759D01*
X145861145Y-83569146D01*
X146192217Y-83635000D01*
X146415783Y-83635000D01*
X146746855Y-83569146D01*
X146939000Y-83440759D01*
X147131145Y-83569146D01*
X147462217Y-83635000D01*
X147685783Y-83635000D01*
X148016855Y-83569146D01*
X148392289Y-83318289D01*
X148643146Y-82942855D01*
X148731235Y-82500000D01*
X148643146Y-82057145D01*
X148598265Y-81989976D01*
X148765720Y-82157431D01*
X149146126Y-82315000D01*
X149557874Y-82315000D01*
X149938280Y-82157431D01*
X150229431Y-81866280D01*
X150387000Y-81485874D01*
X150387000Y-81074126D01*
X150229431Y-80693720D01*
X149938280Y-80402569D01*
X149557874Y-80245000D01*
X149146126Y-80245000D01*
X148765720Y-80402569D01*
X148538203Y-80630086D01*
X148392289Y-80411711D01*
X148016855Y-80160854D01*
X147685783Y-80095000D01*
X147462217Y-80095000D01*
X147131145Y-80160854D01*
X146939000Y-80289241D01*
X146746855Y-80160854D01*
X146415783Y-80095000D01*
X146192217Y-80095000D01*
X145861145Y-80160854D01*
X145669000Y-80289241D01*
X145476855Y-80160854D01*
X145145783Y-80095000D01*
X144922217Y-80095000D01*
X144591145Y-80160854D01*
X144387090Y-80297199D01*
X144324209Y-80242873D01*
X144065874Y-80135881D01*
X143891000Y-80262046D01*
X143891000Y-81103000D01*
X143902027Y-81103000D01*
X143876765Y-81230000D01*
X143651235Y-81230000D01*
X143625973Y-81103000D01*
X143637000Y-81103000D01*
X143637000Y-80262046D01*
X143462126Y-80135881D01*
X143203791Y-80242873D01*
X143140910Y-80297199D01*
X142936855Y-80160854D01*
X142605783Y-80095000D01*
X142382217Y-80095000D01*
X142051145Y-80160854D01*
X141675711Y-80411711D01*
X141424854Y-80787145D01*
X141336765Y-81230000D01*
X131337000Y-81230000D01*
X131337000Y-81074126D01*
X131179431Y-80693720D01*
X130888280Y-80402569D01*
X130507874Y-80245000D01*
X130096126Y-80245000D01*
X129715720Y-80402569D01*
X129424569Y-80693720D01*
X129267000Y-81074126D01*
X122738078Y-81074126D01*
X122607431Y-80758718D01*
X122316280Y-80467567D01*
X121935874Y-80309998D01*
X121524126Y-80309998D01*
X121143720Y-80467567D01*
X120852569Y-80758718D01*
X120695000Y-81139124D01*
X68685000Y-81139124D01*
X68685000Y-79685000D01*
X157491864Y-79685000D01*
X157442191Y-79718191D01*
X157442191Y-79718191D01*
G37*
X157442191Y-79718191D02*
X157301843Y-79928235D01*
X157252560Y-80176000D01*
X157252560Y-81876000D01*
X157301843Y-82123765D01*
X157442191Y-82333809D01*
X157652235Y-82474157D01*
X157900000Y-82523440D01*
X159600000Y-82523440D01*
X159847765Y-82474157D01*
X160057809Y-82333809D01*
X160198157Y-82123765D01*
X160207184Y-82078381D01*
X160219375Y-82096625D01*
X160710582Y-82424839D01*
X161143744Y-82511000D01*
X161436256Y-82511000D01*
X161869418Y-82424839D01*
X162360625Y-82096625D01*
X162560000Y-81798239D01*
X162759375Y-82096625D01*
X163250582Y-82424839D01*
X163683744Y-82511000D01*
X163976256Y-82511000D01*
X164409418Y-82424839D01*
X164900625Y-82096625D01*
X165113843Y-81777522D01*
X165174817Y-81907358D01*
X165603076Y-82297645D01*
X166013110Y-82467476D01*
X166243000Y-82346155D01*
X166243000Y-81153000D01*
X166497000Y-81153000D01*
X166497000Y-82346155D01*
X166726890Y-82467476D01*
X167136924Y-82297645D01*
X167565183Y-81907358D01*
X167811486Y-81382892D01*
X167690819Y-81153000D01*
X166497000Y-81153000D01*
X166243000Y-81153000D01*
X166223000Y-81153000D01*
X166223000Y-80899000D01*
X166243000Y-80899000D01*
X166243000Y-80879000D01*
X166497000Y-80879000D01*
X166497000Y-80899000D01*
X167690819Y-80899000D01*
X167811486Y-80669108D01*
X167565183Y-80144642D01*
X167136924Y-79754355D01*
X166969476Y-79685000D01*
X181315001Y-79685000D01*
X181315000Y-87932538D01*
X181301581Y-88000000D01*
X181354745Y-88267273D01*
X181506143Y-88493857D01*
X181732727Y-88645255D01*
X182000000Y-88698419D01*
X182067461Y-88685000D01*
X187315000Y-88685000D01*
X187315001Y-118999000D01*
X182118000Y-118999000D01*
X182069399Y-119008667D01*
X182028197Y-119036197D01*
X182000667Y-119077399D01*
X181991000Y-119126000D01*
X181991000Y-124315000D01*
X66929000Y-124315000D01*
X66929000Y-121686062D01*
X82038460Y-121686062D01*
X82131959Y-121911826D01*
X82399848Y-122226942D01*
X82767935Y-122415554D01*
X82931000Y-122289628D01*
X82931000Y-121523000D01*
X83185000Y-121523000D01*
X83185000Y-122289628D01*
X83348065Y-122415554D01*
X83713841Y-122228126D01*
X161270994Y-122228126D01*
X161270994Y-122639874D01*
X161428563Y-123020280D01*
X161719714Y-123311431D01*
X162100120Y-123469000D01*
X162511868Y-123469000D01*
X162892274Y-123311431D01*
X163183425Y-123020280D01*
X163340994Y-122639874D01*
X163340994Y-122228126D01*
X163183425Y-121847720D01*
X162892274Y-121556569D01*
X162511868Y-121399000D01*
X162100120Y-121399000D01*
X161719714Y-121556569D01*
X161428563Y-121847720D01*
X161270994Y-122228126D01*
X83713841Y-122228126D01*
X83716152Y-122226942D01*
X83984041Y-121911826D01*
X84077540Y-121686062D01*
X83950257Y-121523000D01*
X83185000Y-121523000D01*
X82931000Y-121523000D01*
X82165743Y-121523000D01*
X82038460Y-121686062D01*
X66929000Y-121686062D01*
X66929000Y-119971000D01*
X81985560Y-119971000D01*
X81985560Y-120821000D01*
X82034843Y-121068765D01*
X82046580Y-121086331D01*
X82038460Y-121105938D01*
X82165743Y-121269000D01*
X82168637Y-121269000D01*
X82175191Y-121278809D01*
X82385235Y-121419157D01*
X82633000Y-121468440D01*
X83483000Y-121468440D01*
X83730765Y-121419157D01*
X83940809Y-121278809D01*
X83947363Y-121269000D01*
X83950257Y-121269000D01*
X84077540Y-121105938D01*
X84069420Y-121086331D01*
X84081157Y-121068765D01*
X84130440Y-120821000D01*
X84130440Y-119971000D01*
X84081157Y-119723235D01*
X83940809Y-119513191D01*
X83730765Y-119372843D01*
X83483000Y-119323560D01*
X82633000Y-119323560D01*
X82385235Y-119372843D01*
X82175191Y-119513191D01*
X82034843Y-119723235D01*
X81985560Y-119971000D01*
X66929000Y-119971000D01*
X66929000Y-119126000D01*
X66919333Y-119077399D01*
X66891803Y-119036197D01*
X66850601Y-119008667D01*
X66802000Y-118999000D01*
X61685000Y-118999000D01*
X61685000Y-117700000D01*
X98052560Y-117700000D01*
X98052560Y-120300000D01*
X98101843Y-120547765D01*
X98242191Y-120757809D01*
X98452235Y-120898157D01*
X98700000Y-120947440D01*
X101300000Y-120947440D01*
X101547765Y-120898157D01*
X101757809Y-120757809D01*
X101898157Y-120547765D01*
X101933623Y-120369459D01*
X103810146Y-120369459D01*
X103945504Y-120667455D01*
X104663880Y-120944066D01*
X105433427Y-120924710D01*
X106054496Y-120667455D01*
X106189854Y-120369459D01*
X105000000Y-119179605D01*
X103810146Y-120369459D01*
X101933623Y-120369459D01*
X101947440Y-120300000D01*
X101947440Y-118663880D01*
X103055934Y-118663880D01*
X103075290Y-119433427D01*
X103332545Y-120054496D01*
X103630541Y-120189854D01*
X104820395Y-119000000D01*
X105179605Y-119000000D01*
X106369459Y-120189854D01*
X106667455Y-120054496D01*
X106944066Y-119336120D01*
X106924710Y-118566573D01*
X106667455Y-117945504D01*
X106369459Y-117810146D01*
X105179605Y-119000000D01*
X104820395Y-119000000D01*
X103630541Y-117810146D01*
X103332545Y-117945504D01*
X103055934Y-118663880D01*
X101947440Y-118663880D01*
X101947440Y-117700000D01*
X101933624Y-117630541D01*
X103810146Y-117630541D01*
X105000000Y-118820395D01*
X106189854Y-117630541D01*
X106054496Y-117332545D01*
X105559966Y-117142126D01*
X169145000Y-117142126D01*
X169145000Y-117553874D01*
X169302569Y-117934280D01*
X169593720Y-118225431D01*
X169974126Y-118383000D01*
X170385874Y-118383000D01*
X170766280Y-118225431D01*
X170932917Y-118058794D01*
X174664573Y-118058794D01*
X174664573Y-118470542D01*
X174822142Y-118850948D01*
X175113293Y-119142099D01*
X175493699Y-119299668D01*
X175905447Y-119299668D01*
X176285853Y-119142099D01*
X176577004Y-118850948D01*
X176734573Y-118470542D01*
X176734573Y-118058794D01*
X176577004Y-117678388D01*
X176285853Y-117387237D01*
X175905447Y-117229668D01*
X175493699Y-117229668D01*
X175113293Y-117387237D01*
X174822142Y-117678388D01*
X174664573Y-118058794D01*
X170932917Y-118058794D01*
X171057431Y-117934280D01*
X171215000Y-117553874D01*
X171215000Y-117142126D01*
X171057431Y-116761720D01*
X170766280Y-116470569D01*
X170385874Y-116313000D01*
X169974126Y-116313000D01*
X169593720Y-116470569D01*
X169302569Y-116761720D01*
X169145000Y-117142126D01*
X105559966Y-117142126D01*
X105336120Y-117055934D01*
X104566573Y-117075290D01*
X103945504Y-117332545D01*
X103810146Y-117630541D01*
X101933624Y-117630541D01*
X101898157Y-117452235D01*
X101757809Y-117242191D01*
X101547765Y-117101843D01*
X101300000Y-117052560D01*
X98700000Y-117052560D01*
X98452235Y-117101843D01*
X98242191Y-117242191D01*
X98101843Y-117452235D01*
X98052560Y-117700000D01*
X61685000Y-117700000D01*
X61685000Y-115872126D01*
X77705000Y-115872126D01*
X77705000Y-116283874D01*
X77862569Y-116664280D01*
X78153720Y-116955431D01*
X78534126Y-117113000D01*
X78945874Y-117113000D01*
X79326280Y-116955431D01*
X79617431Y-116664280D01*
X79775000Y-116283874D01*
X79775000Y-115872126D01*
X79617431Y-115491720D01*
X79489837Y-115364126D01*
X148063000Y-115364126D01*
X148063000Y-115775874D01*
X148220569Y-116156280D01*
X148511720Y-116447431D01*
X148892126Y-116605000D01*
X149303874Y-116605000D01*
X149684280Y-116447431D01*
X149975431Y-116156280D01*
X150133000Y-115775874D01*
X150133000Y-115364126D01*
X149975431Y-114983720D01*
X149684280Y-114692569D01*
X149303874Y-114535000D01*
X148892126Y-114535000D01*
X148511720Y-114692569D01*
X148220569Y-114983720D01*
X148063000Y-115364126D01*
X79489837Y-115364126D01*
X79326280Y-115200569D01*
X78945874Y-115043000D01*
X78534126Y-115043000D01*
X78153720Y-115200569D01*
X77862569Y-115491720D01*
X77705000Y-115872126D01*
X61685000Y-115872126D01*
X61685000Y-111300126D01*
X69961044Y-111300126D01*
X69961044Y-111711874D01*
X70118613Y-112092280D01*
X70409764Y-112383431D01*
X70790170Y-112541000D01*
X71201918Y-112541000D01*
X71582324Y-112383431D01*
X71873475Y-112092280D01*
X71939927Y-111931850D01*
X72184126Y-112033000D01*
X72595874Y-112033000D01*
X72685970Y-111995681D01*
X72819720Y-112129431D01*
X73200126Y-112287000D01*
X73611874Y-112287000D01*
X73992280Y-112129431D01*
X74059585Y-112062126D01*
X149587000Y-112062126D01*
X149587000Y-112473874D01*
X149744569Y-112854280D01*
X150035720Y-113145431D01*
X150416126Y-113303000D01*
X150827874Y-113303000D01*
X151208280Y-113145431D01*
X151499431Y-112854280D01*
X151657000Y-112473874D01*
X151657000Y-112062126D01*
X151499431Y-111681720D01*
X151208280Y-111390569D01*
X150827874Y-111233000D01*
X150416126Y-111233000D01*
X150035720Y-111390569D01*
X149744569Y-111681720D01*
X149587000Y-112062126D01*
X74059585Y-112062126D01*
X74126030Y-111995681D01*
X74216126Y-112033000D01*
X74627874Y-112033000D01*
X75008280Y-111875431D01*
X75299431Y-111584280D01*
X75457000Y-111203874D01*
X75457000Y-110792126D01*
X75299431Y-110411720D01*
X75222649Y-110334938D01*
X102089000Y-110334938D01*
X102089000Y-110746686D01*
X102246569Y-111127092D01*
X102537720Y-111418243D01*
X102918126Y-111575812D01*
X103329874Y-111575812D01*
X103710280Y-111418243D01*
X104001431Y-111127092D01*
X104159000Y-110746686D01*
X104159000Y-110334938D01*
X104001431Y-109954532D01*
X103710280Y-109663381D01*
X103369241Y-109522118D01*
X167113000Y-109522118D01*
X167113000Y-109933866D01*
X167270569Y-110314272D01*
X167561720Y-110605423D01*
X167942126Y-110762992D01*
X168353874Y-110762992D01*
X168734280Y-110605423D01*
X169025431Y-110314272D01*
X169143127Y-110030126D01*
X170923000Y-110030126D01*
X170923000Y-110441874D01*
X171080569Y-110822280D01*
X171371720Y-111113431D01*
X171752126Y-111271000D01*
X172163874Y-111271000D01*
X172544280Y-111113431D01*
X172835431Y-110822280D01*
X172993000Y-110441874D01*
X172993000Y-110030126D01*
X172835431Y-109649720D01*
X172544280Y-109358569D01*
X172163874Y-109201000D01*
X171752126Y-109201000D01*
X171371720Y-109358569D01*
X171080569Y-109649720D01*
X170923000Y-110030126D01*
X169143127Y-110030126D01*
X169183000Y-109933866D01*
X169183000Y-109522118D01*
X169025431Y-109141712D01*
X168734280Y-108850561D01*
X168353874Y-108692992D01*
X167942126Y-108692992D01*
X167561720Y-108850561D01*
X167270569Y-109141712D01*
X167113000Y-109522118D01*
X103369241Y-109522118D01*
X103329874Y-109505812D01*
X102918126Y-109505812D01*
X102537720Y-109663381D01*
X102246569Y-109954532D01*
X102089000Y-110334938D01*
X75222649Y-110334938D01*
X75008280Y-110120569D01*
X74627874Y-109963000D01*
X74216126Y-109963000D01*
X73835720Y-110120569D01*
X73701970Y-110254319D01*
X73611874Y-110217000D01*
X73200126Y-110217000D01*
X73110030Y-110254319D01*
X72976280Y-110120569D01*
X72595874Y-109963000D01*
X72184126Y-109963000D01*
X71803720Y-110120569D01*
X71512569Y-110411720D01*
X71446117Y-110572150D01*
X71201918Y-110471000D01*
X70790170Y-110471000D01*
X70409764Y-110628569D01*
X70118613Y-110919720D01*
X69961044Y-111300126D01*
X61685000Y-111300126D01*
X61685000Y-107377126D01*
X66020982Y-107377126D01*
X66020982Y-107788874D01*
X66178551Y-108169280D01*
X66469702Y-108460431D01*
X66850108Y-108618000D01*
X67261856Y-108618000D01*
X67642262Y-108460431D01*
X67933413Y-108169280D01*
X68090982Y-107788874D01*
X68090982Y-107377126D01*
X67933413Y-106996720D01*
X67664819Y-106728126D01*
X111552500Y-106728126D01*
X111552500Y-107139874D01*
X111710069Y-107520280D01*
X112001220Y-107811431D01*
X112381626Y-107969000D01*
X112793374Y-107969000D01*
X113173780Y-107811431D01*
X113464931Y-107520280D01*
X113622500Y-107139874D01*
X113622500Y-106728126D01*
X120123000Y-106728126D01*
X120123000Y-107139874D01*
X120280569Y-107520280D01*
X120571720Y-107811431D01*
X120952126Y-107969000D01*
X121363874Y-107969000D01*
X121744280Y-107811431D01*
X122035431Y-107520280D01*
X122193000Y-107139874D01*
X122193000Y-106872028D01*
X128928084Y-106872028D01*
X128928084Y-107283776D01*
X129085653Y-107664182D01*
X129376804Y-107955333D01*
X129757210Y-108112902D01*
X130168958Y-108112902D01*
X130549364Y-107955333D01*
X130840515Y-107664182D01*
X130912611Y-107490126D01*
X147301000Y-107490126D01*
X147301000Y-107901874D01*
X147458569Y-108282280D01*
X147749720Y-108573431D01*
X148130126Y-108731000D01*
X148541874Y-108731000D01*
X148922280Y-108573431D01*
X149213431Y-108282280D01*
X149371000Y-107901874D01*
X149371000Y-107490126D01*
X149350907Y-107441615D01*
X151013566Y-107441615D01*
X151013566Y-107853363D01*
X151171135Y-108233769D01*
X151462286Y-108524920D01*
X151842692Y-108682489D01*
X152254440Y-108682489D01*
X152634846Y-108524920D01*
X152925997Y-108233769D01*
X153023603Y-107998126D01*
X170415000Y-107998126D01*
X170415000Y-108409874D01*
X170572569Y-108790280D01*
X170863720Y-109081431D01*
X171244126Y-109239000D01*
X171655874Y-109239000D01*
X172036280Y-109081431D01*
X172170020Y-108947691D01*
X172260126Y-108985014D01*
X172671874Y-108985014D01*
X173052280Y-108827445D01*
X173343431Y-108536294D01*
X173501000Y-108155888D01*
X173501000Y-107744140D01*
X173343431Y-107363734D01*
X173052280Y-107072583D01*
X172671874Y-106915014D01*
X172509581Y-106915014D01*
X172798280Y-106795431D01*
X172892351Y-106701360D01*
X173554093Y-106701360D01*
X173554093Y-107113108D01*
X173711662Y-107493514D01*
X174002813Y-107784665D01*
X174383219Y-107942234D01*
X174794967Y-107942234D01*
X175175373Y-107784665D01*
X175263522Y-107696516D01*
X175308132Y-107714994D01*
X175497094Y-107714994D01*
X175497094Y-107761490D01*
X175654663Y-108141896D01*
X175945814Y-108433047D01*
X176326220Y-108590616D01*
X176737968Y-108590616D01*
X177118374Y-108433047D01*
X177409525Y-108141896D01*
X177523361Y-107867072D01*
X177721720Y-108065431D01*
X178102126Y-108223000D01*
X178513874Y-108223000D01*
X178543000Y-108210936D01*
X178543000Y-108409874D01*
X178700569Y-108790280D01*
X178991720Y-109081431D01*
X179372126Y-109239000D01*
X179783874Y-109239000D01*
X180164280Y-109081431D01*
X180455431Y-108790280D01*
X180613000Y-108409874D01*
X180613000Y-107998126D01*
X180455431Y-107617720D01*
X180164280Y-107326569D01*
X179783874Y-107169000D01*
X179372126Y-107169000D01*
X179343000Y-107181064D01*
X179343000Y-106982126D01*
X179185431Y-106601720D01*
X178894280Y-106310569D01*
X178698314Y-106229397D01*
X178931431Y-105996280D01*
X179089000Y-105615874D01*
X179089000Y-105501331D01*
X179417660Y-105637466D01*
X179829408Y-105637466D01*
X180209814Y-105479897D01*
X180500965Y-105188746D01*
X180575000Y-105010009D01*
X180575000Y-105107874D01*
X180732569Y-105488280D01*
X181023720Y-105779431D01*
X181404126Y-105937000D01*
X181815874Y-105937000D01*
X182196280Y-105779431D01*
X182487431Y-105488280D01*
X182645000Y-105107874D01*
X182645000Y-104696126D01*
X182601002Y-104589905D01*
X182787126Y-104667000D01*
X183198874Y-104667000D01*
X183579280Y-104509431D01*
X183870431Y-104218280D01*
X184028000Y-103837874D01*
X184028000Y-103426126D01*
X183870431Y-103045720D01*
X183579280Y-102754569D01*
X183198874Y-102597000D01*
X182787126Y-102597000D01*
X182406720Y-102754569D01*
X182115569Y-103045720D01*
X181958000Y-103426126D01*
X181958000Y-103837874D01*
X182001998Y-103944095D01*
X181815874Y-103867000D01*
X181404126Y-103867000D01*
X181023720Y-104024569D01*
X180732569Y-104315720D01*
X180658534Y-104494457D01*
X180658534Y-104396592D01*
X180537230Y-104103736D01*
X180709431Y-103931535D01*
X180867000Y-103551129D01*
X180867000Y-103139381D01*
X180748637Y-102853628D01*
X180867000Y-102567874D01*
X180867000Y-102156126D01*
X180709431Y-101775720D01*
X180418280Y-101484569D01*
X180037874Y-101327000D01*
X179718004Y-101327000D01*
X179693431Y-101267676D01*
X179402280Y-100976525D01*
X179021874Y-100818956D01*
X178610126Y-100818956D01*
X178229720Y-100976525D01*
X177938569Y-101267676D01*
X177781000Y-101648082D01*
X177781000Y-102059830D01*
X177938569Y-102440236D01*
X178229720Y-102731387D01*
X178610126Y-102888956D01*
X178900729Y-102888956D01*
X178797000Y-103139381D01*
X178797000Y-103551129D01*
X178918304Y-103843985D01*
X178746103Y-104016186D01*
X178673826Y-104190679D01*
X178532431Y-103849322D01*
X178241280Y-103558171D01*
X177860874Y-103400602D01*
X177449126Y-103400602D01*
X177068720Y-103558171D01*
X176895086Y-103731805D01*
X176918742Y-103669935D01*
X176910702Y-103377645D01*
X176814315Y-103144946D01*
X176631509Y-103163202D01*
X176250711Y-103544000D01*
X176286067Y-103579356D01*
X176215356Y-103650067D01*
X176180000Y-103614711D01*
X175799202Y-103995509D01*
X175780946Y-104178315D01*
X176054065Y-104282742D01*
X176346355Y-104274702D01*
X176579054Y-104178315D01*
X176572880Y-104116488D01*
X176618342Y-104161950D01*
X176669099Y-104111193D01*
X176620000Y-104229728D01*
X176620000Y-104641476D01*
X176777569Y-105021882D01*
X177019000Y-105263313D01*
X177019000Y-105615874D01*
X177176569Y-105996280D01*
X177467720Y-106287431D01*
X177663686Y-106368603D01*
X177430569Y-106601720D01*
X177316733Y-106876544D01*
X177118374Y-106678185D01*
X176737968Y-106520616D01*
X176549006Y-106520616D01*
X176549006Y-106474120D01*
X176391437Y-106093714D01*
X176100286Y-105802563D01*
X175719880Y-105644994D01*
X175308132Y-105644994D01*
X174927726Y-105802563D01*
X174839577Y-105890712D01*
X174794967Y-105872234D01*
X174383219Y-105872234D01*
X174002813Y-106029803D01*
X173711662Y-106320954D01*
X173554093Y-106701360D01*
X172892351Y-106701360D01*
X173089431Y-106504280D01*
X173247000Y-106123874D01*
X173247000Y-105712126D01*
X173089431Y-105331720D01*
X172798280Y-105040569D01*
X172417874Y-104883000D01*
X172083809Y-104883000D01*
X172348508Y-104618301D01*
X172506077Y-104237895D01*
X172506077Y-104178315D01*
X173780946Y-104178315D01*
X174054065Y-104282742D01*
X174346355Y-104274702D01*
X174579054Y-104178315D01*
X174780946Y-104178315D01*
X175054065Y-104282742D01*
X175346355Y-104274702D01*
X175579054Y-104178315D01*
X175560798Y-103995509D01*
X175180000Y-103614711D01*
X174799202Y-103995509D01*
X174780946Y-104178315D01*
X174579054Y-104178315D01*
X174560798Y-103995509D01*
X174180000Y-103614711D01*
X173799202Y-103995509D01*
X173780946Y-104178315D01*
X172506077Y-104178315D01*
X172506077Y-103826147D01*
X172348508Y-103445741D01*
X172320832Y-103418065D01*
X173441258Y-103418065D01*
X173449298Y-103710355D01*
X173545685Y-103943054D01*
X173728491Y-103924798D01*
X174109289Y-103544000D01*
X173728491Y-103163202D01*
X173545685Y-103144946D01*
X173441258Y-103418065D01*
X172320832Y-103418065D01*
X172057357Y-103154590D01*
X171676951Y-102997021D01*
X171265203Y-102997021D01*
X170884797Y-103154590D01*
X170593646Y-103445741D01*
X170436077Y-103826147D01*
X170436077Y-104237895D01*
X170593646Y-104618301D01*
X170884797Y-104909452D01*
X171265203Y-105067021D01*
X171599268Y-105067021D01*
X171334569Y-105331720D01*
X171177000Y-105712126D01*
X171177000Y-106123874D01*
X171334569Y-106504280D01*
X171625720Y-106795431D01*
X172006126Y-106953000D01*
X172168419Y-106953000D01*
X171879720Y-107072583D01*
X171745980Y-107206323D01*
X171655874Y-107169000D01*
X171244126Y-107169000D01*
X170863720Y-107326569D01*
X170572569Y-107617720D01*
X170415000Y-107998126D01*
X153023603Y-107998126D01*
X153083566Y-107853363D01*
X153083566Y-107441615D01*
X152925997Y-107061209D01*
X152634846Y-106770058D01*
X152254440Y-106612489D01*
X151842692Y-106612489D01*
X151462286Y-106770058D01*
X151171135Y-107061209D01*
X151013566Y-107441615D01*
X149350907Y-107441615D01*
X149213431Y-107109720D01*
X148922280Y-106818569D01*
X148541874Y-106661000D01*
X148130126Y-106661000D01*
X147749720Y-106818569D01*
X147458569Y-107109720D01*
X147301000Y-107490126D01*
X130912611Y-107490126D01*
X130998084Y-107283776D01*
X130998084Y-106872028D01*
X130840515Y-106491622D01*
X130823034Y-106474141D01*
X166238015Y-106474141D01*
X166238015Y-106885889D01*
X166395584Y-107266295D01*
X166686735Y-107557446D01*
X167067141Y-107715015D01*
X167478889Y-107715015D01*
X167859295Y-107557446D01*
X168150446Y-107266295D01*
X168308015Y-106885889D01*
X168308015Y-106474141D01*
X168150446Y-106093735D01*
X167859295Y-105802584D01*
X167478889Y-105645015D01*
X167067141Y-105645015D01*
X166686735Y-105802584D01*
X166395584Y-106093735D01*
X166238015Y-106474141D01*
X130823034Y-106474141D01*
X130549364Y-106200471D01*
X130168958Y-106042902D01*
X129757210Y-106042902D01*
X129376804Y-106200471D01*
X129085653Y-106491622D01*
X128928084Y-106872028D01*
X122193000Y-106872028D01*
X122193000Y-106728126D01*
X122035431Y-106347720D01*
X121744280Y-106056569D01*
X121363874Y-105899000D01*
X120952126Y-105899000D01*
X120571720Y-106056569D01*
X120280569Y-106347720D01*
X120123000Y-106728126D01*
X113622500Y-106728126D01*
X113464931Y-106347720D01*
X113173780Y-106056569D01*
X112793374Y-105899000D01*
X112381626Y-105899000D01*
X112001220Y-106056569D01*
X111710069Y-106347720D01*
X111552500Y-106728126D01*
X67664819Y-106728126D01*
X67642262Y-106705569D01*
X67261856Y-106548000D01*
X66850108Y-106548000D01*
X66469702Y-106705569D01*
X66178551Y-106996720D01*
X66020982Y-107377126D01*
X61685000Y-107377126D01*
X61685000Y-104950126D01*
X70847000Y-104950126D01*
X70847000Y-105361874D01*
X71004569Y-105742280D01*
X71295720Y-106033431D01*
X71676126Y-106191000D01*
X72087874Y-106191000D01*
X72468280Y-106033431D01*
X72759431Y-105742280D01*
X72783986Y-105683000D01*
X72849874Y-105683000D01*
X73230280Y-105525431D01*
X73521431Y-105234280D01*
X73613293Y-105012504D01*
X73872220Y-105271431D01*
X74252626Y-105429000D01*
X74664374Y-105429000D01*
X75044780Y-105271431D01*
X75335931Y-104980280D01*
X75493500Y-104599874D01*
X75493500Y-104188126D01*
X75335931Y-103807720D01*
X75044780Y-103516569D01*
X74664374Y-103359000D01*
X74318878Y-103359000D01*
X74380388Y-103297490D01*
X74537957Y-102917084D01*
X74537957Y-102664126D01*
X79229000Y-102664126D01*
X79229000Y-103075874D01*
X79386569Y-103456280D01*
X79677720Y-103747431D01*
X80010661Y-103885339D01*
X80148569Y-104218280D01*
X80439720Y-104509431D01*
X80820126Y-104667000D01*
X81231874Y-104667000D01*
X81534000Y-104541856D01*
X81836126Y-104667000D01*
X82247874Y-104667000D01*
X82550000Y-104541856D01*
X82852126Y-104667000D01*
X83263874Y-104667000D01*
X83566000Y-104541856D01*
X83868126Y-104667000D01*
X84279874Y-104667000D01*
X84582000Y-104541856D01*
X84884126Y-104667000D01*
X85295874Y-104667000D01*
X85676280Y-104509431D01*
X85787011Y-104398700D01*
X85897742Y-104509431D01*
X86278148Y-104667000D01*
X86689896Y-104667000D01*
X87070302Y-104509431D01*
X87361453Y-104218280D01*
X87519022Y-103837874D01*
X87519022Y-103426126D01*
X88248980Y-103426126D01*
X88248980Y-103837874D01*
X88406549Y-104218280D01*
X88697700Y-104509431D01*
X89078106Y-104667000D01*
X89489854Y-104667000D01*
X89870260Y-104509431D01*
X90161411Y-104218280D01*
X90318980Y-103837874D01*
X90318980Y-103629326D01*
X102089000Y-103629326D01*
X102089000Y-104041074D01*
X102246569Y-104421480D01*
X102537720Y-104712631D01*
X102918126Y-104870200D01*
X103329874Y-104870200D01*
X103710280Y-104712631D01*
X104001431Y-104421480D01*
X104159000Y-104041074D01*
X104159000Y-103629326D01*
X104001431Y-103248920D01*
X103710280Y-102957769D01*
X103614574Y-102918126D01*
X113135000Y-102918126D01*
X113135000Y-103329874D01*
X113292569Y-103710280D01*
X113583720Y-104001431D01*
X113964126Y-104159000D01*
X114375874Y-104159000D01*
X114756280Y-104001431D01*
X115047431Y-103710280D01*
X115205000Y-103329874D01*
X115205000Y-102918126D01*
X121771000Y-102918126D01*
X121771000Y-103329874D01*
X121928569Y-103710280D01*
X122219720Y-104001431D01*
X122600126Y-104159000D01*
X123011874Y-104159000D01*
X123392280Y-104001431D01*
X123683431Y-103710280D01*
X123841000Y-103329874D01*
X123841000Y-102918126D01*
X123795397Y-102808028D01*
X130764604Y-102808028D01*
X130764604Y-103219776D01*
X130922173Y-103600182D01*
X131213324Y-103891333D01*
X131593730Y-104048902D01*
X132005478Y-104048902D01*
X132385884Y-103891333D01*
X132677035Y-103600182D01*
X132834604Y-103219776D01*
X132834604Y-102918116D01*
X143745000Y-102918116D01*
X143745000Y-103329864D01*
X143902569Y-103710270D01*
X144193720Y-104001421D01*
X144574126Y-104158990D01*
X144985874Y-104158990D01*
X145366280Y-104001421D01*
X145657431Y-103710270D01*
X145815000Y-103329864D01*
X145815000Y-103172128D01*
X150185064Y-103172128D01*
X150185064Y-103583876D01*
X150342633Y-103964282D01*
X150633784Y-104255433D01*
X151014190Y-104413002D01*
X151425938Y-104413002D01*
X151806344Y-104255433D01*
X152097495Y-103964282D01*
X152255064Y-103583876D01*
X152255064Y-103172128D01*
X152097495Y-102791722D01*
X151806344Y-102500571D01*
X151425938Y-102343002D01*
X151014190Y-102343002D01*
X150633784Y-102500571D01*
X150342633Y-102791722D01*
X150185064Y-103172128D01*
X145815000Y-103172128D01*
X145815000Y-102918116D01*
X145657431Y-102537710D01*
X145366280Y-102246559D01*
X144985874Y-102088990D01*
X144574126Y-102088990D01*
X144193720Y-102246559D01*
X143902569Y-102537710D01*
X143745000Y-102918116D01*
X132834604Y-102918116D01*
X132834604Y-102808028D01*
X132677035Y-102427622D01*
X132385884Y-102136471D01*
X132005478Y-101978902D01*
X131593730Y-101978902D01*
X131213324Y-102136471D01*
X130922173Y-102427622D01*
X130764604Y-102808028D01*
X123795397Y-102808028D01*
X123683431Y-102537720D01*
X123526711Y-102381000D01*
X123649874Y-102381000D01*
X124030280Y-102223431D01*
X124321431Y-101932280D01*
X124439131Y-101648126D01*
X167532155Y-101648126D01*
X167532155Y-102059874D01*
X167689724Y-102440280D01*
X167980875Y-102731431D01*
X168361281Y-102889000D01*
X168773029Y-102889000D01*
X169153435Y-102731431D01*
X169444586Y-102440280D01*
X169602155Y-102059874D01*
X169602155Y-101648126D01*
X169590084Y-101618982D01*
X170662643Y-101618982D01*
X170662643Y-102030730D01*
X170820212Y-102411136D01*
X171111363Y-102702287D01*
X171491769Y-102859856D01*
X171903517Y-102859856D01*
X172283923Y-102702287D01*
X172568145Y-102418065D01*
X173441258Y-102418065D01*
X173449298Y-102710355D01*
X173545685Y-102943054D01*
X173728491Y-102924798D01*
X174109289Y-102544000D01*
X173728491Y-102163202D01*
X173545685Y-102144946D01*
X173441258Y-102418065D01*
X172568145Y-102418065D01*
X172575074Y-102411136D01*
X172732643Y-102030730D01*
X172732643Y-101618982D01*
X172649421Y-101418065D01*
X173441258Y-101418065D01*
X173449298Y-101710355D01*
X173545685Y-101943054D01*
X173728491Y-101924798D01*
X173743604Y-101909685D01*
X173780946Y-101909685D01*
X173794359Y-102044000D01*
X173780946Y-102178315D01*
X173949456Y-102242745D01*
X174180000Y-102473289D01*
X174401378Y-102251911D01*
X174524246Y-102201017D01*
X174481255Y-102313456D01*
X174250711Y-102544000D01*
X174472089Y-102765378D01*
X174522983Y-102888246D01*
X174410544Y-102845255D01*
X174180000Y-102614711D01*
X173958622Y-102836089D01*
X173780946Y-102909685D01*
X173794359Y-103044000D01*
X173780946Y-103178315D01*
X173949456Y-103242745D01*
X174180000Y-103473289D01*
X174401378Y-103251911D01*
X174524246Y-103201017D01*
X174481255Y-103313456D01*
X174250711Y-103544000D01*
X174472089Y-103765378D01*
X174545685Y-103943054D01*
X174680000Y-103929641D01*
X174814315Y-103943054D01*
X174878745Y-103774544D01*
X175109289Y-103544000D01*
X174887911Y-103322622D01*
X174837017Y-103199754D01*
X174949456Y-103242745D01*
X175180000Y-103473289D01*
X175401378Y-103251911D01*
X175524246Y-103201017D01*
X175481255Y-103313456D01*
X175250711Y-103544000D01*
X175472089Y-103765378D01*
X175545685Y-103943054D01*
X175680000Y-103929641D01*
X175814315Y-103943054D01*
X175878745Y-103774544D01*
X176109289Y-103544000D01*
X175887911Y-103322622D01*
X175837017Y-103199754D01*
X175949456Y-103242745D01*
X176180000Y-103473289D01*
X176401378Y-103251911D01*
X176579054Y-103178315D01*
X176565641Y-103044000D01*
X176579054Y-102909685D01*
X176410544Y-102845255D01*
X176180000Y-102614711D01*
X175958622Y-102836089D01*
X175835754Y-102886983D01*
X175878745Y-102774544D01*
X176109289Y-102544000D01*
X176250711Y-102544000D01*
X176631509Y-102924798D01*
X176814315Y-102943054D01*
X176918742Y-102669935D01*
X176910702Y-102377645D01*
X176814315Y-102144946D01*
X176631509Y-102163202D01*
X176250711Y-102544000D01*
X176109289Y-102544000D01*
X175887911Y-102322622D01*
X175837017Y-102199754D01*
X175949456Y-102242745D01*
X176180000Y-102473289D01*
X176401378Y-102251911D01*
X176579054Y-102178315D01*
X176565641Y-102044000D01*
X176579054Y-101909685D01*
X176410544Y-101845255D01*
X176180000Y-101614711D01*
X175958622Y-101836089D01*
X175835754Y-101886983D01*
X175878745Y-101774544D01*
X176109289Y-101544000D01*
X176250711Y-101544000D01*
X176631509Y-101924798D01*
X176814315Y-101943054D01*
X176918742Y-101669935D01*
X176910702Y-101377645D01*
X176814315Y-101144946D01*
X176631509Y-101163202D01*
X176250711Y-101544000D01*
X176109289Y-101544000D01*
X175887911Y-101322622D01*
X175814315Y-101144946D01*
X175680000Y-101158359D01*
X175545685Y-101144946D01*
X175481255Y-101313456D01*
X175250711Y-101544000D01*
X175472089Y-101765378D01*
X175522983Y-101888246D01*
X175410544Y-101845255D01*
X175180000Y-101614711D01*
X174958622Y-101836089D01*
X174835754Y-101886983D01*
X174878745Y-101774544D01*
X175109289Y-101544000D01*
X174887911Y-101322622D01*
X174814315Y-101144946D01*
X174680000Y-101158359D01*
X174545685Y-101144946D01*
X174481255Y-101313456D01*
X174250711Y-101544000D01*
X174472089Y-101765378D01*
X174522983Y-101888246D01*
X174410544Y-101845255D01*
X174180000Y-101614711D01*
X173958622Y-101836089D01*
X173780946Y-101909685D01*
X173743604Y-101909685D01*
X174109289Y-101544000D01*
X173728491Y-101163202D01*
X173545685Y-101144946D01*
X173441258Y-101418065D01*
X172649421Y-101418065D01*
X172575074Y-101238576D01*
X172431754Y-101095256D01*
X172817895Y-101095256D01*
X173198301Y-100937687D01*
X173226303Y-100909685D01*
X173780946Y-100909685D01*
X173799202Y-101092491D01*
X174180000Y-101473289D01*
X174560798Y-101092491D01*
X174579054Y-100909685D01*
X174780946Y-100909685D01*
X174799202Y-101092491D01*
X175180000Y-101473289D01*
X175560798Y-101092491D01*
X175579054Y-100909685D01*
X175780946Y-100909685D01*
X175799202Y-101092491D01*
X176180000Y-101473289D01*
X176560798Y-101092491D01*
X176579054Y-100909685D01*
X176305935Y-100805258D01*
X176013645Y-100813298D01*
X175780946Y-100909685D01*
X175579054Y-100909685D01*
X175305935Y-100805258D01*
X175013645Y-100813298D01*
X174780946Y-100909685D01*
X174579054Y-100909685D01*
X174305935Y-100805258D01*
X174013645Y-100813298D01*
X173780946Y-100909685D01*
X173226303Y-100909685D01*
X173489452Y-100646536D01*
X173647021Y-100266130D01*
X173647021Y-99854382D01*
X173489452Y-99473976D01*
X173198301Y-99182825D01*
X172817895Y-99025256D01*
X172406147Y-99025256D01*
X172025741Y-99182825D01*
X171734590Y-99473976D01*
X171577021Y-99854382D01*
X171577021Y-100266130D01*
X171734590Y-100646536D01*
X171877910Y-100789856D01*
X171491769Y-100789856D01*
X171111363Y-100947425D01*
X170820212Y-101238576D01*
X170662643Y-101618982D01*
X169590084Y-101618982D01*
X169444586Y-101267720D01*
X169153435Y-100976569D01*
X168773029Y-100819000D01*
X168361281Y-100819000D01*
X167980875Y-100976569D01*
X167689724Y-101267720D01*
X167532155Y-101648126D01*
X124439131Y-101648126D01*
X124479000Y-101551874D01*
X124479000Y-101140126D01*
X124321431Y-100759720D01*
X124089211Y-100527500D01*
X124208431Y-100408280D01*
X124326131Y-100124126D01*
X139173000Y-100124126D01*
X139173000Y-100535874D01*
X139330569Y-100916280D01*
X139621720Y-101207431D01*
X140002126Y-101365000D01*
X140413874Y-101365000D01*
X140794280Y-101207431D01*
X141085431Y-100916280D01*
X141243000Y-100535874D01*
X141243000Y-100124126D01*
X142983000Y-100124126D01*
X142983000Y-100535874D01*
X143140569Y-100916280D01*
X143431720Y-101207431D01*
X143812126Y-101365000D01*
X144223874Y-101365000D01*
X144604280Y-101207431D01*
X144895431Y-100916280D01*
X145053000Y-100535874D01*
X145053000Y-100124126D01*
X144895431Y-99743720D01*
X144604280Y-99452569D01*
X144223874Y-99295000D01*
X143812126Y-99295000D01*
X143431720Y-99452569D01*
X143140569Y-99743720D01*
X142983000Y-100124126D01*
X141243000Y-100124126D01*
X141085431Y-99743720D01*
X140794280Y-99452569D01*
X140413874Y-99295000D01*
X140002126Y-99295000D01*
X139621720Y-99452569D01*
X139330569Y-99743720D01*
X139173000Y-100124126D01*
X124326131Y-100124126D01*
X124366000Y-100027874D01*
X124366000Y-99616126D01*
X124208431Y-99235720D01*
X123917280Y-98944569D01*
X123536874Y-98787000D01*
X123125126Y-98787000D01*
X122744720Y-98944569D01*
X122453569Y-99235720D01*
X122296000Y-99616126D01*
X122296000Y-100027874D01*
X122453569Y-100408280D01*
X122685789Y-100640500D01*
X122566569Y-100759720D01*
X122409000Y-101140126D01*
X122409000Y-101551874D01*
X122566569Y-101932280D01*
X122723289Y-102089000D01*
X122600126Y-102089000D01*
X122219720Y-102246569D01*
X121928569Y-102537720D01*
X121771000Y-102918126D01*
X115205000Y-102918126D01*
X115047431Y-102537720D01*
X114756280Y-102246569D01*
X114375874Y-102089000D01*
X113964126Y-102089000D01*
X113583720Y-102246569D01*
X113292569Y-102537720D01*
X113135000Y-102918126D01*
X103614574Y-102918126D01*
X103329874Y-102800200D01*
X102918126Y-102800200D01*
X102537720Y-102957769D01*
X102246569Y-103248920D01*
X102089000Y-103629326D01*
X90318980Y-103629326D01*
X90318980Y-103426126D01*
X90161411Y-103045720D01*
X89870260Y-102754569D01*
X89489854Y-102597000D01*
X89078106Y-102597000D01*
X88697700Y-102754569D01*
X88406549Y-103045720D01*
X88248980Y-103426126D01*
X87519022Y-103426126D01*
X87361453Y-103045720D01*
X87070302Y-102754569D01*
X86689896Y-102597000D01*
X86278148Y-102597000D01*
X85897742Y-102754569D01*
X85787011Y-102865300D01*
X85676280Y-102754569D01*
X85295874Y-102597000D01*
X84884126Y-102597000D01*
X84582000Y-102722144D01*
X84279874Y-102597000D01*
X83868126Y-102597000D01*
X83566000Y-102722144D01*
X83263874Y-102597000D01*
X82852126Y-102597000D01*
X82550000Y-102722144D01*
X82247874Y-102597000D01*
X81836126Y-102597000D01*
X81534000Y-102722144D01*
X81279339Y-102616661D01*
X81141431Y-102283720D01*
X80850280Y-101992569D01*
X80469874Y-101835000D01*
X80058126Y-101835000D01*
X79677720Y-101992569D01*
X79386569Y-102283720D01*
X79229000Y-102664126D01*
X74537957Y-102664126D01*
X74537957Y-102505336D01*
X74380388Y-102124930D01*
X74089237Y-101833779D01*
X73708831Y-101676210D01*
X73297083Y-101676210D01*
X72916677Y-101833779D01*
X72625526Y-102124930D01*
X72467957Y-102505336D01*
X72467957Y-102917084D01*
X72625526Y-103297490D01*
X72916677Y-103588641D01*
X73297083Y-103746210D01*
X73642579Y-103746210D01*
X73581069Y-103807720D01*
X73489207Y-104029496D01*
X73230280Y-103770569D01*
X72849874Y-103613000D01*
X72438126Y-103613000D01*
X72057720Y-103770569D01*
X71766569Y-104061720D01*
X71742014Y-104121000D01*
X71676126Y-104121000D01*
X71295720Y-104278569D01*
X71004569Y-104569720D01*
X70847000Y-104950126D01*
X61685000Y-104950126D01*
X61685000Y-101648126D01*
X69323000Y-101648126D01*
X69323000Y-102059874D01*
X69480569Y-102440280D01*
X69771720Y-102731431D01*
X70152126Y-102889000D01*
X70563874Y-102889000D01*
X70944280Y-102731431D01*
X71235431Y-102440280D01*
X71393000Y-102059874D01*
X71393000Y-101648126D01*
X71235431Y-101267720D01*
X70944280Y-100976569D01*
X70563874Y-100819000D01*
X70152126Y-100819000D01*
X69771720Y-100976569D01*
X69480569Y-101267720D01*
X69323000Y-101648126D01*
X61685000Y-101648126D01*
X61685000Y-88685000D01*
X67932539Y-88685000D01*
X68000000Y-88698419D01*
X68267273Y-88645255D01*
X68493857Y-88493857D01*
X68645255Y-88267273D01*
X68685000Y-88067462D01*
X68685000Y-88067461D01*
X68698419Y-88000000D01*
X68685000Y-87932538D01*
X68685000Y-86369459D01*
X70810146Y-86369459D01*
X70945504Y-86667455D01*
X71663880Y-86944066D01*
X72433427Y-86924710D01*
X73054496Y-86667455D01*
X73189854Y-86369459D01*
X72000000Y-85179605D01*
X70810146Y-86369459D01*
X68685000Y-86369459D01*
X68685000Y-84663880D01*
X70055934Y-84663880D01*
X70075290Y-85433427D01*
X70332545Y-86054496D01*
X70630541Y-86189854D01*
X71820395Y-85000000D01*
X72179605Y-85000000D01*
X73369459Y-86189854D01*
X73667455Y-86054496D01*
X73944066Y-85336120D01*
X73924710Y-84566573D01*
X73667455Y-83945504D01*
X73369459Y-83810146D01*
X72179605Y-85000000D01*
X71820395Y-85000000D01*
X70630541Y-83810146D01*
X70332545Y-83945504D01*
X70055934Y-84663880D01*
X68685000Y-84663880D01*
X68685000Y-83630541D01*
X70810146Y-83630541D01*
X72000000Y-84820395D01*
X73120395Y-83700000D01*
X75052560Y-83700000D01*
X75052560Y-86300000D01*
X75101843Y-86547765D01*
X75242191Y-86757809D01*
X75452235Y-86898157D01*
X75700000Y-86947440D01*
X76057239Y-86947440D01*
X75965000Y-87170126D01*
X75965000Y-87581874D01*
X76090144Y-87884000D01*
X75965000Y-88186126D01*
X75965000Y-88597874D01*
X76090144Y-88900000D01*
X75965000Y-89202126D01*
X75965000Y-89613874D01*
X76090144Y-89916000D01*
X75965000Y-90218126D01*
X75965000Y-90629874D01*
X76090144Y-90932000D01*
X75965000Y-91234126D01*
X75965000Y-91645874D01*
X76090144Y-91948000D01*
X75965000Y-92250126D01*
X75965000Y-92661874D01*
X76090144Y-92964000D01*
X75965000Y-93266126D01*
X75965000Y-93677874D01*
X76090144Y-93980000D01*
X75965000Y-94282126D01*
X75965000Y-94693874D01*
X76090144Y-94996000D01*
X75965000Y-95298126D01*
X75965000Y-95709874D01*
X76090144Y-96012000D01*
X75965000Y-96314126D01*
X75965000Y-96725874D01*
X76090144Y-97028000D01*
X75965000Y-97330126D01*
X75965000Y-97741874D01*
X76090144Y-98044000D01*
X75965000Y-98346126D01*
X75965000Y-98757874D01*
X76098014Y-99079000D01*
X75965000Y-99400126D01*
X75965000Y-99811874D01*
X76063274Y-100049130D01*
X75927000Y-100378126D01*
X75927000Y-100789874D01*
X76084569Y-101170280D01*
X76375720Y-101461431D01*
X76756126Y-101619000D01*
X77167874Y-101619000D01*
X77470000Y-101493856D01*
X77724661Y-101599339D01*
X77862569Y-101932280D01*
X78153720Y-102223431D01*
X78534126Y-102381000D01*
X78945874Y-102381000D01*
X79326280Y-102223431D01*
X79617431Y-101932280D01*
X79775000Y-101551874D01*
X79775000Y-101140126D01*
X79617431Y-100759720D01*
X79326280Y-100468569D01*
X78993339Y-100330661D01*
X78855431Y-99997720D01*
X78774337Y-99916626D01*
X115089500Y-99916626D01*
X115089500Y-100328374D01*
X115247069Y-100708780D01*
X115538220Y-100999931D01*
X115918626Y-101157500D01*
X116330374Y-101157500D01*
X116710780Y-100999931D01*
X117001931Y-100708780D01*
X117159500Y-100328374D01*
X117159500Y-99916626D01*
X117001931Y-99536220D01*
X116710780Y-99245069D01*
X116330374Y-99087500D01*
X115918626Y-99087500D01*
X115538220Y-99245069D01*
X115247069Y-99536220D01*
X115089500Y-99916626D01*
X78774337Y-99916626D01*
X78564280Y-99706569D01*
X78183874Y-99549000D01*
X78035000Y-99549000D01*
X78035000Y-99400126D01*
X77901986Y-99079000D01*
X78035000Y-98757874D01*
X78035000Y-98579198D01*
X99621146Y-98579198D01*
X99621146Y-98990946D01*
X99778715Y-99371352D01*
X100069866Y-99662503D01*
X100450272Y-99820072D01*
X100862020Y-99820072D01*
X101242426Y-99662503D01*
X101533577Y-99371352D01*
X101691146Y-98990946D01*
X101691146Y-98579198D01*
X101533577Y-98198792D01*
X101242426Y-97907641D01*
X100862020Y-97750072D01*
X100450272Y-97750072D01*
X100069866Y-97907641D01*
X99778715Y-98198792D01*
X99621146Y-98579198D01*
X78035000Y-98579198D01*
X78035000Y-98346126D01*
X77909856Y-98044000D01*
X78035000Y-97741874D01*
X78035000Y-97330126D01*
X77921122Y-97055198D01*
X104710162Y-97055198D01*
X104710162Y-97466946D01*
X104867731Y-97847352D01*
X105158882Y-98138503D01*
X105539288Y-98296072D01*
X105951036Y-98296072D01*
X106331442Y-98138503D01*
X106622593Y-97847352D01*
X106780162Y-97466946D01*
X106780162Y-97076126D01*
X125965000Y-97076126D01*
X125965000Y-97487874D01*
X126122569Y-97868280D01*
X126413720Y-98159431D01*
X126794126Y-98317000D01*
X127205874Y-98317000D01*
X127586280Y-98159431D01*
X127877431Y-97868280D01*
X128035000Y-97487874D01*
X128035000Y-97330126D01*
X143745000Y-97330126D01*
X143745000Y-97741874D01*
X143902569Y-98122280D01*
X144193720Y-98413431D01*
X144574126Y-98571000D01*
X144985874Y-98571000D01*
X145366280Y-98413431D01*
X145657431Y-98122280D01*
X145815000Y-97741874D01*
X145815000Y-97425336D01*
X155601534Y-97425336D01*
X155601534Y-97837084D01*
X155759103Y-98217490D01*
X156050254Y-98508641D01*
X156430660Y-98666210D01*
X156842408Y-98666210D01*
X157222814Y-98508641D01*
X157513965Y-98217490D01*
X157646884Y-97896595D01*
X157655720Y-97905431D01*
X158036126Y-98063000D01*
X158447874Y-98063000D01*
X158586270Y-98005675D01*
X158634569Y-98122280D01*
X158854515Y-98342226D01*
X158701874Y-98279000D01*
X158290126Y-98279000D01*
X157909720Y-98436569D01*
X157618569Y-98727720D01*
X157461000Y-99108126D01*
X157461000Y-99519874D01*
X157618569Y-99900280D01*
X157909720Y-100191431D01*
X158290126Y-100349000D01*
X158477000Y-100349000D01*
X158477000Y-100535874D01*
X158634569Y-100916280D01*
X158925720Y-101207431D01*
X159306126Y-101365000D01*
X159717874Y-101365000D01*
X160098280Y-101207431D01*
X160389431Y-100916280D01*
X160547000Y-100535874D01*
X160547000Y-100124126D01*
X160389431Y-99743720D01*
X160098280Y-99452569D01*
X159717874Y-99295000D01*
X159531000Y-99295000D01*
X159531000Y-99108126D01*
X159373431Y-98727720D01*
X159245837Y-98600126D01*
X164065000Y-98600126D01*
X164065000Y-99011874D01*
X164222569Y-99392280D01*
X164513720Y-99683431D01*
X164894126Y-99841000D01*
X165305874Y-99841000D01*
X165686280Y-99683431D01*
X165977431Y-99392280D01*
X166135000Y-99011874D01*
X166135000Y-98600126D01*
X165977431Y-98219720D01*
X165686280Y-97928569D01*
X165305874Y-97771000D01*
X164894126Y-97771000D01*
X164513720Y-97928569D01*
X164222569Y-98219720D01*
X164065000Y-98600126D01*
X159245837Y-98600126D01*
X159153485Y-98507774D01*
X159306126Y-98571000D01*
X159717874Y-98571000D01*
X160098280Y-98413431D01*
X160389431Y-98122280D01*
X160547000Y-97741874D01*
X160547000Y-97425336D01*
X166859000Y-97425336D01*
X166859000Y-97837084D01*
X167016569Y-98217490D01*
X167307720Y-98508641D01*
X167688126Y-98666210D01*
X168099874Y-98666210D01*
X168480280Y-98508641D01*
X168771431Y-98217490D01*
X168929000Y-97837084D01*
X168929000Y-97584126D01*
X171939000Y-97584126D01*
X171939000Y-97995874D01*
X172096569Y-98376280D01*
X172387720Y-98667431D01*
X172768126Y-98825000D01*
X173179874Y-98825000D01*
X173560280Y-98667431D01*
X173768425Y-98459286D01*
X174038126Y-98571000D01*
X174342274Y-98571000D01*
X174225000Y-98854126D01*
X174225000Y-99265874D01*
X174382569Y-99646280D01*
X174673720Y-99937431D01*
X175054126Y-100095000D01*
X175465874Y-100095000D01*
X175846280Y-99937431D01*
X176137431Y-99646280D01*
X176255131Y-99362126D01*
X177273000Y-99362126D01*
X177273000Y-99773874D01*
X177430569Y-100154280D01*
X177721720Y-100445431D01*
X178102126Y-100603000D01*
X178513874Y-100603000D01*
X178894280Y-100445431D01*
X179185431Y-100154280D01*
X179343000Y-99773874D01*
X179343000Y-99362126D01*
X179185431Y-98981720D01*
X178894280Y-98690569D01*
X178513874Y-98533000D01*
X178102126Y-98533000D01*
X177721720Y-98690569D01*
X177430569Y-98981720D01*
X177273000Y-99362126D01*
X176255131Y-99362126D01*
X176295000Y-99265874D01*
X176295000Y-98854126D01*
X176137431Y-98473720D01*
X175846280Y-98182569D01*
X175465874Y-98025000D01*
X175161726Y-98025000D01*
X175279000Y-97741874D01*
X175279000Y-97330126D01*
X175121431Y-96949720D01*
X174993837Y-96822126D01*
X177019000Y-96822126D01*
X177019000Y-97233874D01*
X177176569Y-97614280D01*
X177467720Y-97905431D01*
X177848126Y-98063000D01*
X178259874Y-98063000D01*
X178640280Y-97905431D01*
X178931431Y-97614280D01*
X179089000Y-97233874D01*
X179089000Y-96822126D01*
X178931431Y-96441720D01*
X178640280Y-96150569D01*
X178259874Y-95993000D01*
X177848126Y-95993000D01*
X177467720Y-96150569D01*
X177176569Y-96441720D01*
X177019000Y-96822126D01*
X174993837Y-96822126D01*
X174830280Y-96658569D01*
X174449874Y-96501000D01*
X174038126Y-96501000D01*
X173657720Y-96658569D01*
X173449575Y-96866714D01*
X173179874Y-96755000D01*
X172768126Y-96755000D01*
X172387720Y-96912569D01*
X172096569Y-97203720D01*
X171939000Y-97584126D01*
X168929000Y-97584126D01*
X168929000Y-97425336D01*
X168771431Y-97044930D01*
X168480280Y-96753779D01*
X168099874Y-96596210D01*
X167688126Y-96596210D01*
X167307720Y-96753779D01*
X167016569Y-97044930D01*
X166859000Y-97425336D01*
X160547000Y-97425336D01*
X160547000Y-97330126D01*
X160389431Y-96949720D01*
X160098280Y-96658569D01*
X159717874Y-96501000D01*
X159306126Y-96501000D01*
X159167730Y-96558325D01*
X159119431Y-96441720D01*
X158828280Y-96150569D01*
X158447874Y-95993000D01*
X158036126Y-95993000D01*
X157655720Y-96150569D01*
X157364569Y-96441720D01*
X157231650Y-96762615D01*
X157222814Y-96753779D01*
X156842408Y-96596210D01*
X156430660Y-96596210D01*
X156050254Y-96753779D01*
X155759103Y-97044930D01*
X155601534Y-97425336D01*
X145815000Y-97425336D01*
X145815000Y-97330126D01*
X145657431Y-96949720D01*
X145366280Y-96658569D01*
X144985874Y-96501000D01*
X144574126Y-96501000D01*
X144193720Y-96658569D01*
X143902569Y-96949720D01*
X143745000Y-97330126D01*
X128035000Y-97330126D01*
X128035000Y-97076126D01*
X127877431Y-96695720D01*
X127586280Y-96404569D01*
X127205874Y-96247000D01*
X126794126Y-96247000D01*
X126413720Y-96404569D01*
X126122569Y-96695720D01*
X125965000Y-97076126D01*
X106780162Y-97076126D01*
X106780162Y-97055198D01*
X106622593Y-96674792D01*
X106331442Y-96383641D01*
X105951036Y-96226072D01*
X105539288Y-96226072D01*
X105158882Y-96383641D01*
X104867731Y-96674792D01*
X104710162Y-97055198D01*
X77921122Y-97055198D01*
X77909856Y-97028000D01*
X78035000Y-96725874D01*
X78035000Y-96314126D01*
X77909856Y-96012000D01*
X78035000Y-95709874D01*
X78035000Y-95298126D01*
X112263000Y-95298126D01*
X112263000Y-95709874D01*
X112420569Y-96090280D01*
X112711720Y-96381431D01*
X113092126Y-96539000D01*
X113503874Y-96539000D01*
X113884280Y-96381431D01*
X114175431Y-96090280D01*
X114333000Y-95709874D01*
X114333000Y-95298126D01*
X114175431Y-94917720D01*
X113884280Y-94626569D01*
X113665931Y-94536126D01*
X122042000Y-94536126D01*
X122042000Y-94947874D01*
X122199569Y-95328280D01*
X122490720Y-95619431D01*
X122871126Y-95777000D01*
X123282874Y-95777000D01*
X123663280Y-95619431D01*
X123954431Y-95328280D01*
X124112000Y-94947874D01*
X124112000Y-94536126D01*
X125344000Y-94536126D01*
X125344000Y-94947874D01*
X125501569Y-95328280D01*
X125792720Y-95619431D01*
X126173126Y-95777000D01*
X126584874Y-95777000D01*
X126965280Y-95619431D01*
X127256431Y-95328280D01*
X127414000Y-94947874D01*
X127414000Y-94649126D01*
X128759000Y-94649126D01*
X128759000Y-95060874D01*
X128916569Y-95441280D01*
X129207720Y-95732431D01*
X129588126Y-95890000D01*
X129999874Y-95890000D01*
X130202364Y-95806126D01*
X162287000Y-95806126D01*
X162287000Y-96217874D01*
X162444569Y-96598280D01*
X162735720Y-96889431D01*
X163116126Y-97047000D01*
X163527874Y-97047000D01*
X163908280Y-96889431D01*
X164199431Y-96598280D01*
X164357000Y-96217874D01*
X164357000Y-95806126D01*
X165081000Y-95806126D01*
X165081000Y-96217874D01*
X165238569Y-96598280D01*
X165529720Y-96889431D01*
X165910126Y-97047000D01*
X166321874Y-97047000D01*
X166702280Y-96889431D01*
X166993431Y-96598280D01*
X167151000Y-96217874D01*
X167151000Y-95806126D01*
X166993431Y-95425720D01*
X166865837Y-95298126D01*
X167621000Y-95298126D01*
X167621000Y-95709874D01*
X167778569Y-96090280D01*
X168069720Y-96381431D01*
X168450126Y-96539000D01*
X168861874Y-96539000D01*
X169242280Y-96381431D01*
X169533431Y-96090280D01*
X169691000Y-95709874D01*
X169691000Y-95298126D01*
X169533431Y-94917720D01*
X169242280Y-94626569D01*
X168861874Y-94469000D01*
X168450126Y-94469000D01*
X168069720Y-94626569D01*
X167778569Y-94917720D01*
X167621000Y-95298126D01*
X166865837Y-95298126D01*
X166702280Y-95134569D01*
X166321874Y-94977000D01*
X165910126Y-94977000D01*
X165529720Y-95134569D01*
X165238569Y-95425720D01*
X165081000Y-95806126D01*
X164357000Y-95806126D01*
X164199431Y-95425720D01*
X163908280Y-95134569D01*
X163527874Y-94977000D01*
X163116126Y-94977000D01*
X162735720Y-95134569D01*
X162444569Y-95425720D01*
X162287000Y-95806126D01*
X130202364Y-95806126D01*
X130380280Y-95732431D01*
X130671431Y-95441280D01*
X130829000Y-95060874D01*
X130829000Y-94649126D01*
X130676984Y-94282126D01*
X154667000Y-94282126D01*
X154667000Y-94693874D01*
X154824569Y-95074280D01*
X155115720Y-95365431D01*
X155496126Y-95523000D01*
X155907874Y-95523000D01*
X156288280Y-95365431D01*
X156579431Y-95074280D01*
X156737000Y-94693874D01*
X156737000Y-94282126D01*
X157969000Y-94282126D01*
X157969000Y-94693874D01*
X158126569Y-95074280D01*
X158417720Y-95365431D01*
X158798126Y-95523000D01*
X159209874Y-95523000D01*
X159590280Y-95365431D01*
X159881431Y-95074280D01*
X160039000Y-94693874D01*
X160039000Y-94282126D01*
X172193000Y-94282126D01*
X172193000Y-94693874D01*
X172350569Y-95074280D01*
X172641720Y-95365431D01*
X173022126Y-95523000D01*
X173433874Y-95523000D01*
X173814280Y-95365431D01*
X174105431Y-95074280D01*
X174263000Y-94693874D01*
X174263000Y-94282126D01*
X174105431Y-93901720D01*
X173814280Y-93610569D01*
X173433874Y-93453000D01*
X173022126Y-93453000D01*
X172641720Y-93610569D01*
X172350569Y-93901720D01*
X172193000Y-94282126D01*
X160039000Y-94282126D01*
X159881431Y-93901720D01*
X159590280Y-93610569D01*
X159209874Y-93453000D01*
X158798126Y-93453000D01*
X158417720Y-93610569D01*
X158126569Y-93901720D01*
X157969000Y-94282126D01*
X156737000Y-94282126D01*
X156579431Y-93901720D01*
X156288280Y-93610569D01*
X155907874Y-93453000D01*
X155496126Y-93453000D01*
X155115720Y-93610569D01*
X154824569Y-93901720D01*
X154667000Y-94282126D01*
X130676984Y-94282126D01*
X130671431Y-94268720D01*
X130380280Y-93977569D01*
X129999874Y-93820000D01*
X129588126Y-93820000D01*
X129207720Y-93977569D01*
X128916569Y-94268720D01*
X128759000Y-94649126D01*
X127414000Y-94649126D01*
X127414000Y-94536126D01*
X127256431Y-94155720D01*
X126965280Y-93864569D01*
X126584874Y-93707000D01*
X126173126Y-93707000D01*
X125792720Y-93864569D01*
X125501569Y-94155720D01*
X125344000Y-94536126D01*
X124112000Y-94536126D01*
X123954431Y-94155720D01*
X123663280Y-93864569D01*
X123282874Y-93707000D01*
X122871126Y-93707000D01*
X122490720Y-93864569D01*
X122199569Y-94155720D01*
X122042000Y-94536126D01*
X113665931Y-94536126D01*
X113503874Y-94469000D01*
X113092126Y-94469000D01*
X112711720Y-94626569D01*
X112420569Y-94917720D01*
X112263000Y-95298126D01*
X78035000Y-95298126D01*
X77909856Y-94996000D01*
X78035000Y-94693874D01*
X78035000Y-94282126D01*
X77909856Y-93980000D01*
X78003799Y-93753198D01*
X100646162Y-93753198D01*
X100646162Y-94164946D01*
X100803731Y-94545352D01*
X101094882Y-94836503D01*
X101475288Y-94994072D01*
X101887036Y-94994072D01*
X102267442Y-94836503D01*
X102558593Y-94545352D01*
X102716162Y-94164946D01*
X102716162Y-93753198D01*
X102558593Y-93372792D01*
X102267442Y-93081641D01*
X101887036Y-92924072D01*
X101475288Y-92924072D01*
X101094882Y-93081641D01*
X100803731Y-93372792D01*
X100646162Y-93753198D01*
X78003799Y-93753198D01*
X78035000Y-93677874D01*
X78035000Y-93266126D01*
X77909856Y-92964000D01*
X78035000Y-92661874D01*
X78035000Y-92250126D01*
X77909856Y-91948000D01*
X78035000Y-91645874D01*
X78035000Y-91234126D01*
X77938023Y-91000000D01*
X87352560Y-91000000D01*
X87352560Y-93000000D01*
X87401843Y-93247765D01*
X87542191Y-93457809D01*
X87752235Y-93598157D01*
X88000000Y-93647440D01*
X92000000Y-93647440D01*
X92247765Y-93598157D01*
X92457809Y-93457809D01*
X92598157Y-93247765D01*
X92647440Y-93000000D01*
X92647440Y-91975198D01*
X104710162Y-91975198D01*
X104710162Y-92386946D01*
X104867731Y-92767352D01*
X105158882Y-93058503D01*
X105539288Y-93216072D01*
X105951036Y-93216072D01*
X106331442Y-93058503D01*
X106622593Y-92767352D01*
X106780162Y-92386946D01*
X106780162Y-91975198D01*
X106671565Y-91713022D01*
X106998874Y-91713022D01*
X107379280Y-91555453D01*
X107670431Y-91264302D01*
X107828000Y-90883896D01*
X107828000Y-90472148D01*
X107670431Y-90091742D01*
X107669815Y-90091126D01*
X112249000Y-90091126D01*
X112249000Y-90502874D01*
X112406569Y-90883280D01*
X112697720Y-91174431D01*
X113078126Y-91332000D01*
X113489874Y-91332000D01*
X113870280Y-91174431D01*
X114161431Y-90883280D01*
X114319000Y-90502874D01*
X114319000Y-90091126D01*
X114161431Y-89710720D01*
X113870280Y-89419569D01*
X113489874Y-89262000D01*
X113078126Y-89262000D01*
X112697720Y-89419569D01*
X112406569Y-89710720D01*
X112249000Y-90091126D01*
X107669815Y-90091126D01*
X107379280Y-89800591D01*
X106998874Y-89643022D01*
X106587126Y-89643022D01*
X106206720Y-89800591D01*
X105915569Y-90091742D01*
X105758000Y-90472148D01*
X105758000Y-90883896D01*
X105866597Y-91146072D01*
X105539288Y-91146072D01*
X105158882Y-91303641D01*
X104867731Y-91594792D01*
X104710162Y-91975198D01*
X92647440Y-91975198D01*
X92647440Y-91000000D01*
X92598157Y-90752235D01*
X92457809Y-90542191D01*
X92247765Y-90401843D01*
X92000000Y-90352560D01*
X88000000Y-90352560D01*
X87752235Y-90401843D01*
X87542191Y-90542191D01*
X87401843Y-90752235D01*
X87352560Y-91000000D01*
X77938023Y-91000000D01*
X77909856Y-90932000D01*
X78035000Y-90629874D01*
X78035000Y-90218126D01*
X77909856Y-89916000D01*
X78035000Y-89613874D01*
X78035000Y-89202126D01*
X77909856Y-88900000D01*
X78035000Y-88597874D01*
X78035000Y-88440126D01*
X115678000Y-88440126D01*
X115678000Y-88851874D01*
X115835569Y-89232280D01*
X116074789Y-89471500D01*
X115835569Y-89710720D01*
X115678000Y-90091126D01*
X115678000Y-90502874D01*
X115835569Y-90883280D01*
X116126720Y-91174431D01*
X116507126Y-91332000D01*
X116716376Y-91332000D01*
X116567000Y-91692626D01*
X116567000Y-92104374D01*
X116724569Y-92484780D01*
X117015720Y-92775931D01*
X117396126Y-92933500D01*
X117807874Y-92933500D01*
X118188280Y-92775931D01*
X118460085Y-92504126D01*
X134093000Y-92504126D01*
X134093000Y-92915874D01*
X134250569Y-93296280D01*
X134541720Y-93587431D01*
X134922126Y-93745000D01*
X135333874Y-93745000D01*
X135714280Y-93587431D01*
X136005431Y-93296280D01*
X136163000Y-92915874D01*
X136163000Y-92504126D01*
X136005431Y-92123720D01*
X135714280Y-91832569D01*
X135333874Y-91675000D01*
X134922126Y-91675000D01*
X134541720Y-91832569D01*
X134250569Y-92123720D01*
X134093000Y-92504126D01*
X118460085Y-92504126D01*
X118479431Y-92484780D01*
X118637000Y-92104374D01*
X118637000Y-91692626D01*
X118479431Y-91312220D01*
X118188280Y-91021069D01*
X117807874Y-90863500D01*
X117598624Y-90863500D01*
X117748000Y-90502874D01*
X117748000Y-90091126D01*
X121393000Y-90091126D01*
X121393000Y-90502874D01*
X121550569Y-90883280D01*
X121841720Y-91174431D01*
X122222126Y-91332000D01*
X122633874Y-91332000D01*
X123014280Y-91174431D01*
X123208585Y-90980126D01*
X136893022Y-90980126D01*
X136893022Y-91391874D01*
X137050591Y-91772280D01*
X137341742Y-92063431D01*
X137722148Y-92221000D01*
X138133896Y-92221000D01*
X138514302Y-92063431D01*
X138805453Y-91772280D01*
X138943701Y-91438517D01*
X142156096Y-91438517D01*
X142156096Y-91850265D01*
X142313665Y-92230671D01*
X142419107Y-92336113D01*
X142419107Y-92712663D01*
X142576676Y-93093069D01*
X142867827Y-93384220D01*
X143248233Y-93541789D01*
X143659981Y-93541789D01*
X144040387Y-93384220D01*
X144331538Y-93093069D01*
X144489107Y-92712663D01*
X144489107Y-92300915D01*
X144331538Y-91920509D01*
X144226096Y-91815067D01*
X144226096Y-91438517D01*
X144068527Y-91058111D01*
X143990542Y-90980126D01*
X144761000Y-90980126D01*
X144761000Y-91391874D01*
X144918569Y-91772280D01*
X145209720Y-92063431D01*
X145590126Y-92221000D01*
X146001874Y-92221000D01*
X146382280Y-92063431D01*
X146449585Y-91996126D01*
X163698000Y-91996126D01*
X163698000Y-92407874D01*
X163855569Y-92788280D01*
X164146720Y-93079431D01*
X164527126Y-93237000D01*
X164938874Y-93237000D01*
X165319280Y-93079431D01*
X165386585Y-93012126D01*
X166859000Y-93012126D01*
X166859000Y-93423874D01*
X167016569Y-93804280D01*
X167307720Y-94095431D01*
X167688126Y-94253000D01*
X168099874Y-94253000D01*
X168480280Y-94095431D01*
X168771431Y-93804280D01*
X168929000Y-93423874D01*
X168929000Y-93012126D01*
X168811726Y-92729000D01*
X168861874Y-92729000D01*
X169242280Y-92571431D01*
X169533431Y-92280280D01*
X169691000Y-91899874D01*
X169691000Y-91742126D01*
X181713998Y-91742126D01*
X181713998Y-92153874D01*
X181871567Y-92534280D01*
X182162718Y-92825431D01*
X182543124Y-92983000D01*
X182954872Y-92983000D01*
X183335278Y-92825431D01*
X183626429Y-92534280D01*
X183783998Y-92153874D01*
X183783998Y-91742126D01*
X183626429Y-91361720D01*
X183335278Y-91070569D01*
X182954872Y-90913000D01*
X182543124Y-90913000D01*
X182162718Y-91070569D01*
X181871567Y-91361720D01*
X181713998Y-91742126D01*
X169691000Y-91742126D01*
X169691000Y-91488126D01*
X169533431Y-91107720D01*
X169242280Y-90816569D01*
X168861874Y-90659000D01*
X168450126Y-90659000D01*
X168069720Y-90816569D01*
X167778569Y-91107720D01*
X167621000Y-91488126D01*
X167621000Y-91899874D01*
X167738274Y-92183000D01*
X167688126Y-92183000D01*
X167307720Y-92340569D01*
X167016569Y-92631720D01*
X166859000Y-93012126D01*
X165386585Y-93012126D01*
X165610431Y-92788280D01*
X165768000Y-92407874D01*
X165768000Y-91996126D01*
X165610431Y-91615720D01*
X165319280Y-91324569D01*
X164938874Y-91167000D01*
X164527126Y-91167000D01*
X164146720Y-91324569D01*
X163855569Y-91615720D01*
X163698000Y-91996126D01*
X146449585Y-91996126D01*
X146673431Y-91772280D01*
X146831000Y-91391874D01*
X146831000Y-90980126D01*
X146673431Y-90599720D01*
X146382280Y-90308569D01*
X146001874Y-90151000D01*
X145590126Y-90151000D01*
X145209720Y-90308569D01*
X144918569Y-90599720D01*
X144761000Y-90980126D01*
X143990542Y-90980126D01*
X143777376Y-90766960D01*
X143396970Y-90609391D01*
X142985222Y-90609391D01*
X142604816Y-90766960D01*
X142313665Y-91058111D01*
X142156096Y-91438517D01*
X138943701Y-91438517D01*
X138963022Y-91391874D01*
X138963022Y-90980126D01*
X138805453Y-90599720D01*
X138514302Y-90308569D01*
X138133896Y-90151000D01*
X137722148Y-90151000D01*
X137341742Y-90308569D01*
X137050591Y-90599720D01*
X136893022Y-90980126D01*
X123208585Y-90980126D01*
X123305431Y-90883280D01*
X123463000Y-90502874D01*
X123463000Y-90091126D01*
X123305431Y-89710720D01*
X123014280Y-89419569D01*
X122633874Y-89262000D01*
X122222126Y-89262000D01*
X121841720Y-89419569D01*
X121550569Y-89710720D01*
X121393000Y-90091126D01*
X117748000Y-90091126D01*
X117590431Y-89710720D01*
X117351211Y-89471500D01*
X117590431Y-89232280D01*
X117708131Y-88948126D01*
X133585000Y-88948126D01*
X133585000Y-89359874D01*
X133742569Y-89740280D01*
X134033720Y-90031431D01*
X134414126Y-90189000D01*
X134825874Y-90189000D01*
X135206280Y-90031431D01*
X135497431Y-89740280D01*
X135655000Y-89359874D01*
X135655000Y-88948126D01*
X135497431Y-88567720D01*
X135206280Y-88276569D01*
X134825874Y-88119000D01*
X134414126Y-88119000D01*
X134033720Y-88276569D01*
X133742569Y-88567720D01*
X133585000Y-88948126D01*
X117708131Y-88948126D01*
X117748000Y-88851874D01*
X117748000Y-88440126D01*
X117590431Y-88059720D01*
X117299280Y-87768569D01*
X117080931Y-87678126D01*
X130791000Y-87678126D01*
X130791000Y-88089874D01*
X130948569Y-88470280D01*
X131239720Y-88761431D01*
X131620126Y-88919000D01*
X132031874Y-88919000D01*
X132412280Y-88761431D01*
X132703431Y-88470280D01*
X132861000Y-88089874D01*
X132861000Y-87678126D01*
X146285000Y-87678126D01*
X146285000Y-88089874D01*
X146442569Y-88470280D01*
X146733720Y-88761431D01*
X147114126Y-88919000D01*
X147525874Y-88919000D01*
X147906280Y-88761431D01*
X148197431Y-88470280D01*
X148355000Y-88089874D01*
X148355000Y-87678126D01*
X148249790Y-87424126D01*
X148825000Y-87424126D01*
X148825000Y-87835874D01*
X148982569Y-88216280D01*
X149273720Y-88507431D01*
X149654126Y-88665000D01*
X150065874Y-88665000D01*
X150446280Y-88507431D01*
X150737431Y-88216280D01*
X150895000Y-87835874D01*
X150895000Y-87424126D01*
X152889000Y-87424126D01*
X152889000Y-87835874D01*
X153046569Y-88216280D01*
X153337720Y-88507431D01*
X153713292Y-88662997D01*
X153554569Y-88821720D01*
X153397000Y-89202126D01*
X153397000Y-89613874D01*
X153554569Y-89994280D01*
X153845720Y-90285431D01*
X154226126Y-90443000D01*
X154637874Y-90443000D01*
X155018280Y-90285431D01*
X155309431Y-89994280D01*
X155316208Y-89977919D01*
X155369720Y-90031431D01*
X155432503Y-90057437D01*
X155432503Y-90102348D01*
X155590072Y-90482754D01*
X155881223Y-90773905D01*
X156261629Y-90931474D01*
X156673377Y-90931474D01*
X157053783Y-90773905D01*
X157344934Y-90482754D01*
X157502503Y-90102348D01*
X157502503Y-89690600D01*
X157344934Y-89310194D01*
X157053783Y-89019043D01*
X156991000Y-88993037D01*
X156991000Y-88948126D01*
X156833431Y-88567720D01*
X156705837Y-88440126D01*
X157461000Y-88440126D01*
X157461000Y-88851874D01*
X157618569Y-89232280D01*
X157909720Y-89523431D01*
X158242661Y-89661339D01*
X158380569Y-89994280D01*
X158671720Y-90285431D01*
X159052126Y-90443000D01*
X159463874Y-90443000D01*
X159844280Y-90285431D01*
X160135431Y-89994280D01*
X160293000Y-89613874D01*
X160293000Y-89202126D01*
X160135431Y-88821720D01*
X159844280Y-88530569D01*
X159511339Y-88392661D01*
X159373431Y-88059720D01*
X159312911Y-87999200D01*
X170520405Y-87999200D01*
X170555692Y-88212768D01*
X170978564Y-88353149D01*
X171422968Y-88321018D01*
X171684308Y-88212768D01*
X171719595Y-87999200D01*
X179280405Y-87999200D01*
X179315692Y-88212768D01*
X179738564Y-88353149D01*
X180182968Y-88321018D01*
X180444308Y-88212768D01*
X180479595Y-87999200D01*
X179880000Y-87399605D01*
X179280405Y-87999200D01*
X171719595Y-87999200D01*
X171120000Y-87399605D01*
X170520405Y-87999200D01*
X159312911Y-87999200D01*
X159082280Y-87768569D01*
X158701874Y-87611000D01*
X158290126Y-87611000D01*
X157909720Y-87768569D01*
X157618569Y-88059720D01*
X157461000Y-88440126D01*
X156705837Y-88440126D01*
X156542280Y-88276569D01*
X156161874Y-88119000D01*
X155750126Y-88119000D01*
X155369720Y-88276569D01*
X155078569Y-88567720D01*
X155071792Y-88584081D01*
X155018280Y-88530569D01*
X154642708Y-88375003D01*
X154801431Y-88216280D01*
X154959000Y-87835874D01*
X154959000Y-87424126D01*
X154815864Y-87078564D01*
X169986851Y-87078564D01*
X170018982Y-87522968D01*
X170127232Y-87784308D01*
X170340800Y-87819595D01*
X170940395Y-87220000D01*
X171299605Y-87220000D01*
X171899200Y-87819595D01*
X172112768Y-87784308D01*
X172253149Y-87361436D01*
X172232697Y-87078564D01*
X178746851Y-87078564D01*
X178778982Y-87522968D01*
X178887232Y-87784308D01*
X179100800Y-87819595D01*
X179700395Y-87220000D01*
X180059605Y-87220000D01*
X180659200Y-87819595D01*
X180872768Y-87784308D01*
X181013149Y-87361436D01*
X180981018Y-86917032D01*
X180872768Y-86655692D01*
X180659200Y-86620405D01*
X180059605Y-87220000D01*
X179700395Y-87220000D01*
X179100800Y-86620405D01*
X178887232Y-86655692D01*
X178746851Y-87078564D01*
X172232697Y-87078564D01*
X172221018Y-86917032D01*
X172112768Y-86655692D01*
X171899200Y-86620405D01*
X171299605Y-87220000D01*
X170940395Y-87220000D01*
X170340800Y-86620405D01*
X170127232Y-86655692D01*
X169986851Y-87078564D01*
X154815864Y-87078564D01*
X154801431Y-87043720D01*
X154510280Y-86752569D01*
X154129874Y-86595000D01*
X153718126Y-86595000D01*
X153337720Y-86752569D01*
X153046569Y-87043720D01*
X152889000Y-87424126D01*
X150895000Y-87424126D01*
X150737431Y-87043720D01*
X150446280Y-86752569D01*
X150065874Y-86595000D01*
X149654126Y-86595000D01*
X149273720Y-86752569D01*
X148982569Y-87043720D01*
X148825000Y-87424126D01*
X148249790Y-87424126D01*
X148197431Y-87297720D01*
X147906280Y-87006569D01*
X147525874Y-86849000D01*
X147114126Y-86849000D01*
X146733720Y-87006569D01*
X146442569Y-87297720D01*
X146285000Y-87678126D01*
X132861000Y-87678126D01*
X132703431Y-87297720D01*
X132412280Y-87006569D01*
X132031874Y-86849000D01*
X131620126Y-86849000D01*
X131239720Y-87006569D01*
X130948569Y-87297720D01*
X130791000Y-87678126D01*
X117080931Y-87678126D01*
X116918874Y-87611000D01*
X116507126Y-87611000D01*
X116126720Y-87768569D01*
X115835569Y-88059720D01*
X115678000Y-88440126D01*
X78035000Y-88440126D01*
X78035000Y-88186126D01*
X77909856Y-87884000D01*
X78035000Y-87581874D01*
X78035000Y-87170126D01*
X77942761Y-86947440D01*
X78300000Y-86947440D01*
X78547765Y-86898157D01*
X78757809Y-86757809D01*
X78898157Y-86547765D01*
X78947440Y-86300000D01*
X78947440Y-84088969D01*
X83865000Y-84088969D01*
X83865000Y-85911030D01*
X83959864Y-86387944D01*
X84321231Y-86928769D01*
X84862055Y-87290136D01*
X85500000Y-87417031D01*
X86137944Y-87290136D01*
X86678769Y-86928769D01*
X87040136Y-86387945D01*
X87041630Y-86380434D01*
X87759876Y-86380434D01*
X87790856Y-86508355D01*
X88104078Y-87066317D01*
X88606980Y-87461942D01*
X89223000Y-87635000D01*
X89873000Y-87635000D01*
X89873000Y-86127000D01*
X90127000Y-86127000D01*
X90127000Y-87635000D01*
X90777000Y-87635000D01*
X91393020Y-87461942D01*
X91895922Y-87066317D01*
X92209144Y-86508355D01*
X92240124Y-86380434D01*
X92120777Y-86127000D01*
X90127000Y-86127000D01*
X89873000Y-86127000D01*
X87879223Y-86127000D01*
X87759876Y-86380434D01*
X87041630Y-86380434D01*
X87135000Y-85911031D01*
X87135000Y-85619566D01*
X87759876Y-85619566D01*
X87879223Y-85873000D01*
X89873000Y-85873000D01*
X89873000Y-85853000D01*
X90127000Y-85853000D01*
X90127000Y-85873000D01*
X92120777Y-85873000D01*
X92240124Y-85619566D01*
X92209144Y-85491645D01*
X91895922Y-84933683D01*
X91393020Y-84538058D01*
X90777000Y-84365000D01*
X90454434Y-84365000D01*
X90812862Y-84216534D01*
X90940427Y-84088969D01*
X92865000Y-84088969D01*
X92865000Y-85911030D01*
X92959864Y-86387944D01*
X93321231Y-86928769D01*
X93862055Y-87290136D01*
X94500000Y-87417031D01*
X95137944Y-87290136D01*
X95678769Y-86928769D01*
X96040136Y-86387945D01*
X96135000Y-85911031D01*
X96135000Y-84449144D01*
X98425000Y-84449144D01*
X98425000Y-84860892D01*
X98582569Y-85241298D01*
X98873720Y-85532449D01*
X99254126Y-85690018D01*
X99665874Y-85690018D01*
X100046280Y-85532449D01*
X100337431Y-85241298D01*
X100495000Y-84860892D01*
X100495000Y-84449144D01*
X100494977Y-84449088D01*
X103505000Y-84449088D01*
X103505000Y-84860836D01*
X103662569Y-85241242D01*
X103953720Y-85532393D01*
X104334126Y-85689962D01*
X104745874Y-85689962D01*
X104851703Y-85646126D01*
X108566000Y-85646126D01*
X108566000Y-86057874D01*
X108723569Y-86438280D01*
X109014720Y-86729431D01*
X109395126Y-86887000D01*
X109806874Y-86887000D01*
X110187280Y-86729431D01*
X110475911Y-86440800D01*
X170520405Y-86440800D01*
X171120000Y-87040395D01*
X171719595Y-86440800D01*
X179280405Y-86440800D01*
X179880000Y-87040395D01*
X180479595Y-86440800D01*
X180444308Y-86227232D01*
X180021436Y-86086851D01*
X179577032Y-86118982D01*
X179315692Y-86227232D01*
X179280405Y-86440800D01*
X171719595Y-86440800D01*
X171684308Y-86227232D01*
X171261436Y-86086851D01*
X170817032Y-86118982D01*
X170555692Y-86227232D01*
X170520405Y-86440800D01*
X110475911Y-86440800D01*
X110478431Y-86438280D01*
X110636000Y-86057874D01*
X110636000Y-85646126D01*
X110478431Y-85265720D01*
X110187280Y-84974569D01*
X109968931Y-84884126D01*
X127997000Y-84884126D01*
X127997000Y-85295874D01*
X128154569Y-85676280D01*
X128445720Y-85967431D01*
X128826126Y-86125000D01*
X129237874Y-86125000D01*
X129618280Y-85967431D01*
X129909431Y-85676280D01*
X130067000Y-85295874D01*
X130067000Y-84884126D01*
X129909431Y-84503720D01*
X129854837Y-84449126D01*
X135235000Y-84449126D01*
X135235000Y-84860874D01*
X135392569Y-85241280D01*
X135683720Y-85532431D01*
X136064126Y-85690000D01*
X136475874Y-85690000D01*
X136856280Y-85532431D01*
X137147431Y-85241280D01*
X137299002Y-84875354D01*
X140723957Y-84875354D01*
X140723957Y-85287102D01*
X140881526Y-85667508D01*
X141172677Y-85958659D01*
X141553083Y-86116228D01*
X141964831Y-86116228D01*
X142345237Y-85958659D01*
X142636388Y-85667508D01*
X142793957Y-85287102D01*
X142793957Y-84875354D01*
X142636388Y-84494948D01*
X142345237Y-84203797D01*
X141964831Y-84046228D01*
X141553083Y-84046228D01*
X141172677Y-84203797D01*
X140881526Y-84494948D01*
X140723957Y-84875354D01*
X137299002Y-84875354D01*
X137305000Y-84860874D01*
X137305000Y-84449126D01*
X137147431Y-84068720D01*
X136856280Y-83777569D01*
X136475874Y-83620000D01*
X136064126Y-83620000D01*
X135683720Y-83777569D01*
X135392569Y-84068720D01*
X135235000Y-84449126D01*
X129854837Y-84449126D01*
X129618280Y-84212569D01*
X129237874Y-84055000D01*
X128826126Y-84055000D01*
X128445720Y-84212569D01*
X128154569Y-84503720D01*
X127997000Y-84884126D01*
X109968931Y-84884126D01*
X109806874Y-84817000D01*
X109395126Y-84817000D01*
X109014720Y-84974569D01*
X108723569Y-85265720D01*
X108566000Y-85646126D01*
X104851703Y-85646126D01*
X105126280Y-85532393D01*
X105417431Y-85241242D01*
X105575000Y-84860836D01*
X105575000Y-84449088D01*
X105417431Y-84068682D01*
X105126280Y-83777531D01*
X104745874Y-83619962D01*
X104334126Y-83619962D01*
X103953720Y-83777531D01*
X103662569Y-84068682D01*
X103505000Y-84449088D01*
X100494977Y-84449088D01*
X100337431Y-84068738D01*
X100046280Y-83777587D01*
X99665874Y-83620018D01*
X99254126Y-83620018D01*
X98873720Y-83777587D01*
X98582569Y-84068738D01*
X98425000Y-84449144D01*
X96135000Y-84449144D01*
X96135000Y-84088969D01*
X96040136Y-83612055D01*
X95678769Y-83071231D01*
X95137945Y-82709864D01*
X94500000Y-82582969D01*
X93862056Y-82709864D01*
X93321232Y-83071231D01*
X92959865Y-83612055D01*
X92865000Y-84088969D01*
X90940427Y-84088969D01*
X91216534Y-83812862D01*
X91435000Y-83285439D01*
X91435000Y-82714561D01*
X91216534Y-82187138D01*
X90812862Y-81783466D01*
X90285439Y-81565000D01*
X89714561Y-81565000D01*
X89187138Y-81783466D01*
X88783466Y-82187138D01*
X88565000Y-82714561D01*
X88565000Y-83285439D01*
X88783466Y-83812862D01*
X89187138Y-84216534D01*
X89545566Y-84365000D01*
X89223000Y-84365000D01*
X88606980Y-84538058D01*
X88104078Y-84933683D01*
X87790856Y-85491645D01*
X87759876Y-85619566D01*
X87135000Y-85619566D01*
X87135000Y-84088969D01*
X87040136Y-83612055D01*
X86678769Y-83071231D01*
X86137945Y-82709864D01*
X85500000Y-82582969D01*
X84862056Y-82709864D01*
X84321232Y-83071231D01*
X83959865Y-83612055D01*
X83865000Y-84088969D01*
X78947440Y-84088969D01*
X78947440Y-83700000D01*
X78898157Y-83452235D01*
X78757809Y-83242191D01*
X78547765Y-83101843D01*
X78300000Y-83052560D01*
X75700000Y-83052560D01*
X75452235Y-83101843D01*
X75242191Y-83242191D01*
X75101843Y-83452235D01*
X75052560Y-83700000D01*
X73120395Y-83700000D01*
X73189854Y-83630541D01*
X73054496Y-83332545D01*
X72336120Y-83055934D01*
X71566573Y-83075290D01*
X70945504Y-83332545D01*
X70810146Y-83630541D01*
X68685000Y-83630541D01*
X68685000Y-81139124D01*
X120695000Y-81139124D01*
X120695000Y-81550872D01*
X120852569Y-81931278D01*
X121143720Y-82222429D01*
X121524126Y-82379998D01*
X121935874Y-82379998D01*
X122316280Y-82222429D01*
X122607431Y-81931278D01*
X122765000Y-81550872D01*
X122765000Y-81139124D01*
X122738078Y-81074126D01*
X129267000Y-81074126D01*
X129267000Y-81485874D01*
X129424569Y-81866280D01*
X129715720Y-82157431D01*
X130096126Y-82315000D01*
X130507874Y-82315000D01*
X130888280Y-82157431D01*
X131179431Y-81866280D01*
X131337000Y-81485874D01*
X131337000Y-81230000D01*
X141336765Y-81230000D01*
X141424854Y-81672855D01*
X141436869Y-81690836D01*
X141395843Y-81752235D01*
X141346560Y-82000000D01*
X141346560Y-83000000D01*
X141395843Y-83247765D01*
X141536191Y-83457809D01*
X141746235Y-83598157D01*
X141994000Y-83647440D01*
X142994000Y-83647440D01*
X143241765Y-83598157D01*
X143329817Y-83539322D01*
X143462126Y-83594119D01*
X143637000Y-83467954D01*
X143637000Y-83022322D01*
X143641440Y-83000000D01*
X143641440Y-82000000D01*
X143637000Y-81977678D01*
X143637000Y-81357000D01*
X143625973Y-81357000D01*
X143651235Y-81230000D01*
X143876765Y-81230000D01*
X143902027Y-81357000D01*
X143891000Y-81357000D01*
X143891000Y-82373000D01*
X143902027Y-82373000D01*
X143876765Y-82500000D01*
X143902027Y-82627000D01*
X143891000Y-82627000D01*
X143891000Y-83467954D01*
X144065874Y-83594119D01*
X144324209Y-83487127D01*
X144387090Y-83432801D01*
X144591145Y-83569146D01*
X144922217Y-83635000D01*
X145145783Y-83635000D01*
X145476855Y-83569146D01*
X145669000Y-83440759D01*
X145861145Y-83569146D01*
X146192217Y-83635000D01*
X146415783Y-83635000D01*
X146746855Y-83569146D01*
X146939000Y-83440759D01*
X147131145Y-83569146D01*
X147462217Y-83635000D01*
X147685783Y-83635000D01*
X148016855Y-83569146D01*
X148392289Y-83318289D01*
X148643146Y-82942855D01*
X148731235Y-82500000D01*
X148643146Y-82057145D01*
X148598265Y-81989976D01*
X148765720Y-82157431D01*
X149146126Y-82315000D01*
X149557874Y-82315000D01*
X149938280Y-82157431D01*
X150229431Y-81866280D01*
X150387000Y-81485874D01*
X150387000Y-81074126D01*
X150229431Y-80693720D01*
X149938280Y-80402569D01*
X149557874Y-80245000D01*
X149146126Y-80245000D01*
X148765720Y-80402569D01*
X148538203Y-80630086D01*
X148392289Y-80411711D01*
X148016855Y-80160854D01*
X147685783Y-80095000D01*
X147462217Y-80095000D01*
X147131145Y-80160854D01*
X146939000Y-80289241D01*
X146746855Y-80160854D01*
X146415783Y-80095000D01*
X146192217Y-80095000D01*
X145861145Y-80160854D01*
X145669000Y-80289241D01*
X145476855Y-80160854D01*
X145145783Y-80095000D01*
X144922217Y-80095000D01*
X144591145Y-80160854D01*
X144387090Y-80297199D01*
X144324209Y-80242873D01*
X144065874Y-80135881D01*
X143891000Y-80262046D01*
X143891000Y-81103000D01*
X143902027Y-81103000D01*
X143876765Y-81230000D01*
X143651235Y-81230000D01*
X143625973Y-81103000D01*
X143637000Y-81103000D01*
X143637000Y-80262046D01*
X143462126Y-80135881D01*
X143203791Y-80242873D01*
X143140910Y-80297199D01*
X142936855Y-80160854D01*
X142605783Y-80095000D01*
X142382217Y-80095000D01*
X142051145Y-80160854D01*
X141675711Y-80411711D01*
X141424854Y-80787145D01*
X141336765Y-81230000D01*
X131337000Y-81230000D01*
X131337000Y-81074126D01*
X131179431Y-80693720D01*
X130888280Y-80402569D01*
X130507874Y-80245000D01*
X130096126Y-80245000D01*
X129715720Y-80402569D01*
X129424569Y-80693720D01*
X129267000Y-81074126D01*
X122738078Y-81074126D01*
X122607431Y-80758718D01*
X122316280Y-80467567D01*
X121935874Y-80309998D01*
X121524126Y-80309998D01*
X121143720Y-80467567D01*
X120852569Y-80758718D01*
X120695000Y-81139124D01*
X68685000Y-81139124D01*
X68685000Y-79685000D01*
X157491864Y-79685000D01*
X157442191Y-79718191D01*
G36*
X174949456Y-102242745D02*
X175180000Y-102473289D01*
X175401378Y-102251911D01*
X175524246Y-102201017D01*
X175481255Y-102313456D01*
X175250711Y-102544000D01*
X175472089Y-102765378D01*
X175522983Y-102888246D01*
X175410544Y-102845255D01*
X175180000Y-102614711D01*
X174958622Y-102836089D01*
X174835754Y-102886983D01*
X174878745Y-102774544D01*
X175109289Y-102544000D01*
X174887911Y-102322622D01*
X174837017Y-102199754D01*
X174949456Y-102242745D01*
X174949456Y-102242745D01*
G37*
X174949456Y-102242745D02*
X175180000Y-102473289D01*
X175401378Y-102251911D01*
X175524246Y-102201017D01*
X175481255Y-102313456D01*
X175250711Y-102544000D01*
X175472089Y-102765378D01*
X175522983Y-102888246D01*
X175410544Y-102845255D01*
X175180000Y-102614711D01*
X174958622Y-102836089D01*
X174835754Y-102886983D01*
X174878745Y-102774544D01*
X175109289Y-102544000D01*
X174887911Y-102322622D01*
X174837017Y-102199754D01*
X174949456Y-102242745D01*
G04 #@! TD*
M02*
