G04 #@! TF.GenerationSoftware,KiCad,Pcbnew,5.0.2-5.0.2*
G04 #@! TF.CreationDate,2019-03-08T22:42:58+01:00*
G04 #@! TF.ProjectId,motherboard,6d6f7468-6572-4626-9f61-72642e6b6963,rev?*
G04 #@! TF.SameCoordinates,Original*
G04 #@! TF.FileFunction,Legend,Top*
G04 #@! TF.FilePolarity,Positive*
%FSLAX46Y46*%
G04 Gerber Fmt 4.6, Leading zero omitted, Abs format (unit mm)*
G04 Created by KiCad (PCBNEW 5.0.2-5.0.2) date Fri 08 Mar 2019 10:42:58 PM CET*
%MOMM*%
%LPD*%
G01*
G04 APERTURE LIST*
%ADD10C,0.120000*%
%ADD11C,0.200000*%
%ADD12C,0.152400*%
%ADD13C,0.100000*%
%ADD14C,0.150000*%
G04 APERTURE END LIST*
D10*
G04 #@! TO.C,TP3*
X117028000Y-80518000D02*
G75*
G03X117028000Y-80518000I-950000J0D01*
G01*
G04 #@! TO.C,TP4*
X110932000Y-80518000D02*
G75*
G03X110932000Y-80518000I-950000J0D01*
G01*
G04 #@! TO.C,R3*
X105319895Y-98275072D02*
X105662429Y-98275072D01*
X105319895Y-99295072D02*
X105662429Y-99295072D01*
G04 #@! TO.C,C1*
X80308750Y-101325750D02*
X81096250Y-101325750D01*
X80702500Y-101719500D02*
X80702500Y-100932000D01*
X84895563Y-100692000D02*
X85960000Y-99627563D01*
X80204437Y-100692000D02*
X79140000Y-99627563D01*
X80204437Y-100692000D02*
X81490000Y-100692000D01*
X84895563Y-100692000D02*
X83610000Y-100692000D01*
X85960000Y-99627563D02*
X85960000Y-93872000D01*
X79140000Y-99627563D02*
X79140000Y-93872000D01*
X79140000Y-93872000D02*
X81490000Y-93872000D01*
X85960000Y-93872000D02*
X83610000Y-93872000D01*
G04 #@! TO.C,C2*
X86612000Y-97199267D02*
X86612000Y-96856733D01*
X87632000Y-97199267D02*
X87632000Y-96856733D01*
G04 #@! TO.C,C3*
X169670000Y-115144733D02*
X169670000Y-115487267D01*
X170690000Y-115144733D02*
X170690000Y-115487267D01*
G04 #@! TO.C,C4*
X106089267Y-90168000D02*
X105746733Y-90168000D01*
X106089267Y-91188000D02*
X105746733Y-91188000D01*
G04 #@! TO.C,C5*
X164753001Y-100666733D02*
X164753001Y-101009267D01*
X163733001Y-100666733D02*
X163733001Y-101009267D01*
G04 #@! TO.C,C6*
X165352000Y-100666733D02*
X165352000Y-101009267D01*
X166372000Y-100666733D02*
X166372000Y-101009267D01*
G04 #@! TO.C,C7*
X101255895Y-97517072D02*
X101598429Y-97517072D01*
X101255895Y-96497072D02*
X101598429Y-96497072D01*
G04 #@! TO.C,C8*
X109049162Y-97089805D02*
X109049162Y-97432339D01*
X108029162Y-97089805D02*
X108029162Y-97432339D01*
G04 #@! TO.C,C9*
X168319267Y-103122000D02*
X167976733Y-103122000D01*
X168319267Y-104142000D02*
X167976733Y-104142000D01*
G04 #@! TO.C,C10*
X75343936Y-103484000D02*
X76548064Y-103484000D01*
X75343936Y-105304000D02*
X76548064Y-105304000D01*
G04 #@! TO.C,C11*
X167976733Y-106170000D02*
X168319267Y-106170000D01*
X167976733Y-107190000D02*
X168319267Y-107190000D01*
G04 #@! TO.C,C12*
X74593267Y-112778000D02*
X74250733Y-112778000D01*
X74593267Y-111758000D02*
X74250733Y-111758000D01*
G04 #@! TO.C,C13*
X174923267Y-90172000D02*
X174580733Y-90172000D01*
X174923267Y-89152000D02*
X174580733Y-89152000D01*
G04 #@! TO.C,C14*
X174923267Y-92200000D02*
X174580733Y-92200000D01*
X174923267Y-93220000D02*
X174580733Y-93220000D01*
G04 #@! TO.C,C15*
X184486733Y-110742000D02*
X184829267Y-110742000D01*
X184486733Y-111762000D02*
X184829267Y-111762000D01*
G04 #@! TO.C,C16*
X184829267Y-106682000D02*
X184486733Y-106682000D01*
X184829267Y-105662000D02*
X184486733Y-105662000D01*
G04 #@! TO.C,C17*
X152785244Y-112744064D02*
X153127778Y-112744064D01*
X152785244Y-111724064D02*
X153127778Y-111724064D01*
G04 #@! TO.C,C18*
X137750733Y-101856000D02*
X138093267Y-101856000D01*
X137750733Y-100836000D02*
X138093267Y-100836000D01*
G04 #@! TO.C,C19*
X152463200Y-118031442D02*
X152120666Y-118031442D01*
X152463200Y-117011442D02*
X152120666Y-117011442D01*
G04 #@! TO.C,C20*
X154732511Y-117231331D02*
X154732511Y-116888797D01*
X155752511Y-117231331D02*
X155752511Y-116888797D01*
G04 #@! TO.C,C21*
X165716000Y-116224000D02*
X163366000Y-116224000D01*
X158896000Y-116224000D02*
X161246000Y-116224000D01*
X158896000Y-121979563D02*
X158896000Y-116224000D01*
X165716000Y-121979563D02*
X165716000Y-116224000D01*
X164651563Y-123044000D02*
X163366000Y-123044000D01*
X159960437Y-123044000D02*
X161246000Y-123044000D01*
X159960437Y-123044000D02*
X158896000Y-121979563D01*
X164651563Y-123044000D02*
X165716000Y-121979563D01*
X160458500Y-124071500D02*
X160458500Y-123284000D01*
X160064750Y-123677750D02*
X160852250Y-123677750D01*
G04 #@! TO.C,C22*
X142919267Y-97026000D02*
X142576733Y-97026000D01*
X142919267Y-98046000D02*
X142576733Y-98046000D01*
G04 #@! TO.C,C23*
X134537267Y-95248000D02*
X134194733Y-95248000D01*
X134537267Y-96268000D02*
X134194733Y-96268000D01*
G04 #@! TO.C,C24*
X139171750Y-93427250D02*
X139171750Y-92639750D01*
X139565500Y-93033500D02*
X138778000Y-93033500D01*
X138538000Y-88840437D02*
X137473563Y-87776000D01*
X138538000Y-93531563D02*
X137473563Y-94596000D01*
X138538000Y-93531563D02*
X138538000Y-92246000D01*
X138538000Y-88840437D02*
X138538000Y-90126000D01*
X137473563Y-87776000D02*
X131718000Y-87776000D01*
X137473563Y-94596000D02*
X131718000Y-94596000D01*
X131718000Y-94596000D02*
X131718000Y-92246000D01*
X131718000Y-87776000D02*
X131718000Y-90126000D01*
G04 #@! TO.C,C25*
X124034733Y-99312000D02*
X124377267Y-99312000D01*
X124034733Y-100332000D02*
X124377267Y-100332000D01*
G04 #@! TO.C,C26*
X114001733Y-96014000D02*
X114344267Y-96014000D01*
X114001733Y-94994000D02*
X114344267Y-94994000D01*
G04 #@! TO.C,C27*
X123780733Y-95252000D02*
X124123267Y-95252000D01*
X123780733Y-94232000D02*
X124123267Y-94232000D01*
G04 #@! TO.C,C28*
X130304000Y-94151267D02*
X130304000Y-93808733D01*
X129284000Y-94151267D02*
X129284000Y-93808733D01*
G04 #@! TO.C,C29*
X128632000Y-93707000D02*
X128632000Y-91357000D01*
X128632000Y-86887000D02*
X128632000Y-89237000D01*
X122876437Y-86887000D02*
X128632000Y-86887000D01*
X122876437Y-93707000D02*
X128632000Y-93707000D01*
X121812000Y-92642563D02*
X121812000Y-91357000D01*
X121812000Y-87951437D02*
X121812000Y-89237000D01*
X121812000Y-87951437D02*
X122876437Y-86887000D01*
X121812000Y-92642563D02*
X122876437Y-93707000D01*
X120784500Y-88449500D02*
X121572000Y-88449500D01*
X121178250Y-88055750D02*
X121178250Y-88843250D01*
G04 #@! TO.C,C30*
X117430733Y-88136000D02*
X117773267Y-88136000D01*
X117430733Y-89156000D02*
X117773267Y-89156000D01*
G04 #@! TO.C,C31*
X114001733Y-89787000D02*
X114344267Y-89787000D01*
X114001733Y-90807000D02*
X114344267Y-90807000D01*
G04 #@! TO.C,C32*
X115805000Y-89262000D02*
X115805000Y-86912000D01*
X115805000Y-82442000D02*
X115805000Y-84792000D01*
X110049437Y-82442000D02*
X115805000Y-82442000D01*
X110049437Y-89262000D02*
X115805000Y-89262000D01*
X108985000Y-88197563D02*
X108985000Y-86912000D01*
X108985000Y-83506437D02*
X108985000Y-84792000D01*
X108985000Y-83506437D02*
X110049437Y-82442000D01*
X108985000Y-88197563D02*
X110049437Y-89262000D01*
X107957500Y-84004500D02*
X108745000Y-84004500D01*
X108351250Y-83610750D02*
X108351250Y-84398250D01*
G04 #@! TO.C,D1*
X85684000Y-102632000D02*
X85684000Y-104632000D01*
X85684000Y-104632000D02*
X89534000Y-104632000D01*
X85684000Y-102632000D02*
X89534000Y-102632000D01*
G04 #@! TO.C,D2*
X76366000Y-115184000D02*
X78066000Y-115184000D01*
X78066000Y-115184000D02*
X78066000Y-112034000D01*
X76366000Y-115184000D02*
X76366000Y-112034000D01*
G04 #@! TO.C,D3*
X67396000Y-110506000D02*
X71246000Y-110506000D01*
X67396000Y-112506000D02*
X71246000Y-112506000D01*
X67396000Y-110506000D02*
X67396000Y-112506000D01*
G04 #@! TO.C,D4*
X148950064Y-108402489D02*
X149250064Y-108402489D01*
X148950064Y-106892489D02*
X149250064Y-106892489D01*
G04 #@! TO.C,D5*
X154820064Y-104378000D02*
X150970064Y-104378000D01*
X154820064Y-102378000D02*
X150970064Y-102378000D01*
X154820064Y-104378000D02*
X154820064Y-102378000D01*
G04 #@! TO.C,D6*
X130545584Y-106322902D02*
X130845584Y-106322902D01*
X130545584Y-107832902D02*
X130845584Y-107832902D01*
G04 #@! TO.C,D7*
X135399584Y-104013902D02*
X135399584Y-102013902D01*
X135399584Y-102013902D02*
X131549584Y-102013902D01*
X135399584Y-104013902D02*
X131549584Y-104013902D01*
G04 #@! TO.C,D8*
X113170000Y-107689000D02*
X113470000Y-107689000D01*
X113170000Y-106179000D02*
X113470000Y-106179000D01*
G04 #@! TO.C,D9*
X117770000Y-104124000D02*
X117770000Y-102124000D01*
X117770000Y-102124000D02*
X113920000Y-102124000D01*
X117770000Y-104124000D02*
X113920000Y-104124000D01*
G04 #@! TO.C,D10*
X121806000Y-106179000D02*
X122106000Y-106179000D01*
X121806000Y-107689000D02*
X122106000Y-107689000D01*
G04 #@! TO.C,D11*
X126406000Y-104124000D02*
X122556000Y-104124000D01*
X126406000Y-102124000D02*
X122556000Y-102124000D01*
X126406000Y-104124000D02*
X126406000Y-102124000D01*
G04 #@! TO.C,J1*
X79180000Y-85000000D02*
G75*
G03X79180000Y-85000000I-2180000J0D01*
G01*
X74180000Y-85000000D02*
G75*
G03X74180000Y-85000000I-2180000J0D01*
G01*
X79560000Y-80400000D02*
X69440000Y-80400000D01*
X79560000Y-81500000D02*
X69440000Y-81500000D01*
X79560000Y-89060000D02*
X69440000Y-89060000D01*
X79560000Y-79940000D02*
X69440000Y-79940000D01*
X79560000Y-89060000D02*
X79560000Y-79940000D01*
X69440000Y-89060000D02*
X69440000Y-79940000D01*
X75346000Y-86388000D02*
X75453000Y-86281000D01*
X78282000Y-83453000D02*
X78388000Y-83346000D01*
X75612000Y-86654000D02*
X75719000Y-86547000D01*
X78548000Y-83719000D02*
X78654000Y-83612000D01*
X70346000Y-86388000D02*
X70741000Y-85992000D01*
X73007000Y-83726000D02*
X73387000Y-83346000D01*
X70612000Y-86654000D02*
X70992000Y-86274000D01*
X73258000Y-84008000D02*
X73653000Y-83612000D01*
X79800000Y-80340000D02*
X79800000Y-79700000D01*
X79800000Y-79700000D02*
X79400000Y-79700000D01*
G04 #@! TO.C,J2*
X95110000Y-87050000D02*
X95110000Y-93110000D01*
X95110000Y-93110000D02*
X92300000Y-93110000D01*
X87700000Y-93110000D02*
X84890000Y-93110000D01*
X84890000Y-93110000D02*
X84890000Y-87050000D01*
X84890000Y-82950000D02*
X84890000Y-79890000D01*
X84890000Y-79890000D02*
X95110000Y-79890000D01*
X95110000Y-79890000D02*
X95110000Y-82950000D01*
X91000000Y-93300000D02*
X89000000Y-93300000D01*
G04 #@! TO.C,J3*
X160020000Y-82356000D02*
X160020000Y-79696000D01*
X160020000Y-82356000D02*
X167700000Y-82356000D01*
X167700000Y-82356000D02*
X167700000Y-79696000D01*
X160020000Y-79696000D02*
X167700000Y-79696000D01*
X157420000Y-79696000D02*
X158750000Y-79696000D01*
X157420000Y-81026000D02*
X157420000Y-79696000D01*
G04 #@! TO.C,J4*
X175250000Y-88000000D02*
X175500000Y-87500000D01*
X175750000Y-88000000D02*
X175250000Y-88000000D01*
X175500000Y-87500000D02*
X175750000Y-88000000D01*
G04 #@! TO.C,J5*
X97200000Y-124300000D02*
X97600000Y-124300000D01*
X97200000Y-123660000D02*
X97200000Y-124300000D01*
X103742000Y-119992000D02*
X103347000Y-120388000D01*
X106388000Y-117346000D02*
X106008000Y-117726000D01*
X103993000Y-120274000D02*
X103613000Y-120654000D01*
X106654000Y-117612000D02*
X106259000Y-118008000D01*
X98452000Y-120281000D02*
X98346000Y-120388000D01*
X101388000Y-117346000D02*
X101281000Y-117453000D01*
X98718000Y-120547000D02*
X98612000Y-120654000D01*
X101654000Y-117612000D02*
X101547000Y-117719000D01*
X107560000Y-114940000D02*
X107560000Y-124060000D01*
X97440000Y-114940000D02*
X97440000Y-124060000D01*
X97440000Y-124060000D02*
X107560000Y-124060000D01*
X97440000Y-114940000D02*
X107560000Y-114940000D01*
X97440000Y-122500000D02*
X107560000Y-122500000D01*
X97440000Y-123600000D02*
X107560000Y-123600000D01*
X107180000Y-119000000D02*
G75*
G03X107180000Y-119000000I-2180000J0D01*
G01*
X102180000Y-119000000D02*
G75*
G03X102180000Y-119000000I-2180000J0D01*
G01*
G04 #@! TO.C,J6*
X137030000Y-84330000D02*
X140140000Y-84330000D01*
X131950000Y-84330000D02*
X135510000Y-84330000D01*
X134490000Y-81670000D02*
X138050000Y-81670000D01*
X139570000Y-81670000D02*
X140140000Y-81670000D01*
X129860000Y-84330000D02*
X130430000Y-84330000D01*
X130430000Y-84330000D02*
X130430000Y-85850000D01*
X129860000Y-81670000D02*
X132970000Y-81670000D01*
X140140000Y-84330000D02*
X140140000Y-81670000D01*
X129860000Y-84330000D02*
X129860000Y-81670000D01*
G04 #@! TO.C,J7*
X148269000Y-83630000D02*
X148269000Y-82807530D01*
X148269000Y-80922470D02*
X148269000Y-80100000D01*
X148269000Y-82192470D02*
X148269000Y-81537530D01*
X143254000Y-83630000D02*
X148269000Y-83630000D01*
X141799000Y-80100000D02*
X148269000Y-80100000D01*
X143254000Y-83630000D02*
X143254000Y-83063471D01*
X143254000Y-81936529D02*
X143254000Y-81793471D01*
X143200529Y-81740000D02*
X143057471Y-81740000D01*
X141930529Y-81740000D02*
X141799000Y-81740000D01*
X141799000Y-81740000D02*
X141799000Y-81537530D01*
X141799000Y-80922470D02*
X141799000Y-80100000D01*
X142494000Y-83630000D02*
X141734000Y-83630000D01*
X141734000Y-83630000D02*
X141734000Y-82500000D01*
G04 #@! TO.C,J8*
X128140000Y-81670000D02*
X128140000Y-84330000D01*
X117860000Y-81670000D02*
X117860000Y-84330000D01*
X128140000Y-84330000D02*
X125030000Y-84330000D01*
X127570000Y-81670000D02*
X127570000Y-80150000D01*
X128140000Y-81670000D02*
X127570000Y-81670000D01*
X118430000Y-84330000D02*
X117860000Y-84330000D01*
X123510000Y-84330000D02*
X119950000Y-84330000D01*
X126050000Y-81670000D02*
X122490000Y-81670000D01*
X120970000Y-81670000D02*
X117860000Y-81670000D01*
G04 #@! TO.C,JP1*
X152652000Y-84134000D02*
X155762000Y-84134000D01*
X155192000Y-81474000D02*
X155762000Y-81474000D01*
X150562000Y-84134000D02*
X151132000Y-84134000D01*
X151132000Y-84134000D02*
X151132000Y-85654000D01*
X150562000Y-81474000D02*
X153672000Y-81474000D01*
X155762000Y-84134000D02*
X155762000Y-81474000D01*
X150562000Y-84134000D02*
X150562000Y-81474000D01*
G04 #@! TO.C,JP2*
X185734000Y-95818000D02*
X183074000Y-95818000D01*
X185734000Y-90618000D02*
X183074000Y-90618000D01*
X183074000Y-95818000D02*
X183074000Y-92708000D01*
X185734000Y-95248000D02*
X187254000Y-95248000D01*
X185734000Y-95818000D02*
X185734000Y-95248000D01*
X183074000Y-91188000D02*
X183074000Y-90618000D01*
X185734000Y-93728000D02*
X185734000Y-90618000D01*
G04 #@! TO.C,L1*
X100965162Y-92911072D02*
X100365162Y-92911072D01*
X100965162Y-88911072D02*
X100465162Y-88911072D01*
G04 #@! TO.C,L2*
X168230733Y-100332000D02*
X168573267Y-100332000D01*
X168230733Y-99312000D02*
X168573267Y-99312000D01*
D11*
G04 #@! TO.C,L3*
X75882000Y-120666000D02*
X75882000Y-114166000D01*
X68682000Y-120666000D02*
X75882000Y-120666000D01*
X75882000Y-114166000D02*
X68682000Y-114166000D01*
X68682000Y-114166000D02*
X68682000Y-120666000D01*
D10*
G04 #@! TO.C,L4*
X176782000Y-91014733D02*
X176782000Y-91357267D01*
X177802000Y-91014733D02*
X177802000Y-91357267D01*
G04 #@! TO.C,L5*
X155528511Y-113296064D02*
X155528511Y-112696064D01*
X159528511Y-113296064D02*
X159528511Y-112796064D01*
G04 #@! TO.C,L6*
X131350000Y-98760000D02*
X131350000Y-99260000D01*
X135350000Y-98760000D02*
X135350000Y-99360000D01*
G04 #@! TO.C,L7*
X118142000Y-97691000D02*
X118142000Y-98191000D01*
X122142000Y-97691000D02*
X122142000Y-98291000D01*
G04 #@! TO.C,L8*
X112045500Y-92664000D02*
X112045500Y-93264000D01*
X108045500Y-92664000D02*
X108045500Y-93164000D01*
G04 #@! TO.C,R1*
X101255895Y-95993072D02*
X101598429Y-95993072D01*
X101255895Y-94973072D02*
X101598429Y-94973072D01*
G04 #@! TO.C,R2*
X101419910Y-98075072D02*
X101942414Y-98075072D01*
X101419910Y-99495072D02*
X101942414Y-99495072D01*
G04 #@! TO.C,R4*
X168319267Y-105666000D02*
X167976733Y-105666000D01*
X168319267Y-104646000D02*
X167976733Y-104646000D01*
G04 #@! TO.C,R5*
X177054561Y-110470935D02*
X177054561Y-110128401D01*
X176034561Y-110470935D02*
X176034561Y-110128401D01*
G04 #@! TO.C,R6*
X177720000Y-110485267D02*
X177720000Y-110142733D01*
X178740000Y-110485267D02*
X178740000Y-110142733D01*
G04 #@! TO.C,R7*
X175490000Y-110485267D02*
X175490000Y-110142733D01*
X174470000Y-110485267D02*
X174470000Y-110142733D01*
G04 #@! TO.C,R8*
X179470000Y-110485267D02*
X179470000Y-110142733D01*
X180490000Y-110485267D02*
X180490000Y-110142733D01*
G04 #@! TO.C,R9*
X181946733Y-101856000D02*
X182289267Y-101856000D01*
X181946733Y-100836000D02*
X182289267Y-100836000D01*
G04 #@! TO.C,R10*
X173740000Y-110485267D02*
X173740000Y-110142733D01*
X172720000Y-110485267D02*
X172720000Y-110142733D01*
G04 #@! TO.C,R11*
X179241267Y-97788000D02*
X178898733Y-97788000D01*
X179241267Y-98808000D02*
X178898733Y-98808000D01*
D12*
G04 #@! TO.C,R12*
X103200200Y-112153700D02*
G75*
G03X103200200Y-112153700I-76200J0D01*
G01*
X95491300Y-105016652D02*
X95491300Y-109359348D01*
X110756700Y-109359348D02*
X110756700Y-105016652D01*
D10*
G04 #@! TO.C,R13*
X182289267Y-104142000D02*
X181946733Y-104142000D01*
X182289267Y-103122000D02*
X181946733Y-103122000D01*
G04 #@! TO.C,R14*
X67566000Y-108286733D02*
X67566000Y-108629267D01*
X66546000Y-108286733D02*
X66546000Y-108629267D01*
G04 #@! TO.C,R15*
X181220000Y-110485267D02*
X181220000Y-110142733D01*
X182240000Y-110485267D02*
X182240000Y-110142733D01*
G04 #@! TO.C,R16*
X69424733Y-108964000D02*
X69767267Y-108964000D01*
X69424733Y-109984000D02*
X69767267Y-109984000D01*
G04 #@! TO.C,R17*
X65788000Y-108629267D02*
X65788000Y-108286733D01*
X64768000Y-108629267D02*
X64768000Y-108286733D01*
G04 #@! TO.C,R18*
X165436733Y-90930000D02*
X165779267Y-90930000D01*
X165436733Y-91950000D02*
X165779267Y-91950000D01*
G04 #@! TO.C,R19*
X165436733Y-92708000D02*
X165779267Y-92708000D01*
X165436733Y-93728000D02*
X165779267Y-93728000D01*
G04 #@! TO.C,R20*
X174072733Y-94998000D02*
X174415267Y-94998000D01*
X174072733Y-93978000D02*
X174415267Y-93978000D01*
G04 #@! TO.C,R21*
X174415267Y-96776000D02*
X174072733Y-96776000D01*
X174415267Y-95756000D02*
X174072733Y-95756000D01*
G04 #@! TO.C,R22*
X152365778Y-118582064D02*
X152023244Y-118582064D01*
X152365778Y-119602064D02*
X152023244Y-119602064D01*
G04 #@! TO.C,R23*
X138004733Y-95248000D02*
X138347267Y-95248000D01*
X138004733Y-96268000D02*
X138347267Y-96268000D01*
G04 #@! TO.C,R24*
X148588000Y-113709267D02*
X148588000Y-113366733D01*
X149608000Y-113709267D02*
X149608000Y-113366733D01*
G04 #@! TO.C,R25*
X141476000Y-99904733D02*
X141476000Y-100247267D01*
X142496000Y-99904733D02*
X142496000Y-100247267D01*
G04 #@! TO.C,R26*
X148809778Y-118582064D02*
X148467244Y-118582064D01*
X148809778Y-119602064D02*
X148467244Y-119602064D01*
G04 #@! TO.C,R27*
X142576733Y-96522000D02*
X142919267Y-96522000D01*
X142576733Y-95502000D02*
X142919267Y-95502000D01*
G04 #@! TO.C,R28*
X143000000Y-85680733D02*
X143000000Y-86023267D01*
X144020000Y-85680733D02*
X144020000Y-86023267D01*
G04 #@! TO.C,R29*
X144020000Y-89579267D02*
X144020000Y-89236733D01*
X143000000Y-89579267D02*
X143000000Y-89236733D01*
G04 #@! TO.C,R30*
X142268963Y-85784961D02*
X142268963Y-86127495D01*
X141248963Y-85784961D02*
X141248963Y-86127495D01*
G04 #@! TO.C,R31*
X141248963Y-89340961D02*
X141248963Y-89683495D01*
X142268963Y-89340961D02*
X142268963Y-89683495D01*
G04 #@! TO.C,R32*
X127082733Y-95252000D02*
X127425267Y-95252000D01*
X127082733Y-94232000D02*
X127425267Y-94232000D01*
G04 #@! TO.C,R33*
X117430733Y-90807000D02*
X117773267Y-90807000D01*
X117430733Y-89787000D02*
X117773267Y-89787000D01*
G04 #@! TO.C,R34*
X118112000Y-92602233D02*
X118112000Y-92944767D01*
X117092000Y-92602233D02*
X117092000Y-92944767D01*
G04 #@! TO.C,R35*
X128272000Y-97110733D02*
X128272000Y-97453267D01*
X127252000Y-97110733D02*
X127252000Y-97453267D01*
G04 #@! TO.C,R36*
X119636000Y-92538733D02*
X119636000Y-92881267D01*
X118616000Y-92538733D02*
X118616000Y-92881267D01*
G04 #@! TO.C,SW1*
X98130000Y-84330000D02*
X98130000Y-81670000D01*
X105870000Y-84330000D02*
X105870000Y-81670000D01*
X98130000Y-81670000D02*
X101240000Y-81670000D01*
X98700000Y-84330000D02*
X98700000Y-85850000D01*
X98130000Y-84330000D02*
X98700000Y-84330000D01*
X105300000Y-81670000D02*
X105870000Y-81670000D01*
X102760000Y-81670000D02*
X105870000Y-81670000D01*
X100220000Y-84330000D02*
X103780000Y-84330000D01*
G04 #@! TO.C,TH1*
X82363000Y-121956000D02*
X82663507Y-121956000D01*
X83452493Y-121956000D02*
X83753000Y-121956000D01*
X82363000Y-121081000D02*
X82363000Y-121956000D01*
X83753000Y-121081000D02*
X83753000Y-121956000D01*
X82363000Y-121081000D02*
X82449724Y-121081000D01*
X83666276Y-121081000D02*
X83753000Y-121081000D01*
X82363000Y-120396000D02*
X82363000Y-119711000D01*
X82363000Y-119711000D02*
X83058000Y-119711000D01*
G04 #@! TO.C,TP1*
X159700000Y-84328000D02*
G75*
G03X159700000Y-84328000I-950000J0D01*
G01*
G04 #@! TO.C,TP2*
X162494000Y-84328000D02*
G75*
G03X162494000Y-84328000I-950000J0D01*
G01*
G04 #@! TO.C,TP5*
X146955969Y-85555105D02*
G75*
G03X146955969Y-85555105I-950000J0D01*
G01*
G04 #@! TO.C,TP6*
X149749969Y-85555105D02*
G75*
G03X149749969Y-85555105I-950000J0D01*
G01*
D13*
G04 #@! TO.C,U1*
X107091162Y-96321072D02*
X107091162Y-96021072D01*
X107091162Y-96321072D02*
X106791162Y-96321072D01*
X103891162Y-96321072D02*
X103891162Y-96021072D01*
X103891162Y-96321072D02*
X104191162Y-96321072D01*
X103891162Y-93121072D02*
X103891162Y-93721072D01*
X103891162Y-93721072D02*
X103591162Y-93721072D01*
X103891162Y-93121072D02*
X104191162Y-93121072D01*
X107091162Y-93121072D02*
X107091162Y-93421072D01*
X107091162Y-93121072D02*
X106791162Y-93121072D01*
G04 #@! TO.C,U2*
X171394561Y-113699668D02*
X171194561Y-113699668D01*
X171194561Y-113699668D02*
X171194561Y-114399668D01*
X171394561Y-117899668D02*
X171194561Y-117899668D01*
X171194561Y-117899668D02*
X171194561Y-117299668D01*
X176394561Y-117199668D02*
X176394561Y-117899668D01*
X176394561Y-117899668D02*
X176194561Y-117899668D01*
X176414561Y-113999668D02*
X176114561Y-113699668D01*
X176114561Y-113699668D02*
X176114561Y-112999668D01*
G04 #@! TO.C,U3*
X75260000Y-107304000D02*
X75260000Y-106929000D01*
X75260000Y-106929000D02*
X74960000Y-106629000D01*
X74960000Y-106629000D02*
X74960000Y-106354000D01*
X75260000Y-109804000D02*
X75260000Y-109504000D01*
X75260000Y-109804000D02*
X74960000Y-109804000D01*
X72060000Y-109804000D02*
X72360000Y-109804000D01*
X72060000Y-109804000D02*
X72060000Y-109504000D01*
X72060000Y-106604000D02*
X72060000Y-106904000D01*
X72060000Y-106604000D02*
X72360000Y-106604000D01*
G04 #@! TO.C,U4*
X177780000Y-100544000D02*
X177780000Y-100344000D01*
X177780000Y-100344000D02*
X177380000Y-99944000D01*
X177380000Y-99944000D02*
X177180000Y-99944000D01*
X177180000Y-99944000D02*
X177180000Y-99744000D01*
X172580000Y-100344000D02*
X172580000Y-99944000D01*
X172580000Y-99944000D02*
X172980000Y-99944000D01*
X177780000Y-105144000D02*
X177780000Y-104744000D01*
X177780000Y-105144000D02*
X177380000Y-105144000D01*
X172980000Y-105144000D02*
X172580000Y-105144000D01*
X172580000Y-105144000D02*
X172580000Y-104744000D01*
D10*
G04 #@! TO.C,U5*
X153694511Y-113154064D02*
X150694511Y-113154064D01*
X154069511Y-116394064D02*
X150694511Y-116394064D01*
G04 #@! TO.C,U6*
X136555000Y-96932000D02*
X139930000Y-96932000D01*
X136930000Y-100172000D02*
X139930000Y-100172000D01*
G04 #@! TO.C,U7*
X122839000Y-95662000D02*
X126214000Y-95662000D01*
X123214000Y-98902000D02*
X126214000Y-98902000D01*
G04 #@! TO.C,U8*
X113174500Y-94472000D02*
X116174500Y-94472000D01*
X112799500Y-91232000D02*
X116174500Y-91232000D01*
G04 #@! TO.C,Y1*
X183008000Y-107312000D02*
X183008000Y-110112000D01*
X183008000Y-110112000D02*
X186308000Y-110112000D01*
G04 #@! TO.C,TP3*
D14*
X113498380Y-82033904D02*
X113498380Y-81462476D01*
X114498380Y-81748190D02*
X113498380Y-81748190D01*
X114498380Y-81129142D02*
X113498380Y-81129142D01*
X113498380Y-80748190D01*
X113546000Y-80652952D01*
X113593619Y-80605333D01*
X113688857Y-80557714D01*
X113831714Y-80557714D01*
X113926952Y-80605333D01*
X113974571Y-80652952D01*
X114022190Y-80748190D01*
X114022190Y-81129142D01*
X113498380Y-80224380D02*
X113498380Y-79605333D01*
X113879333Y-79938666D01*
X113879333Y-79795809D01*
X113926952Y-79700571D01*
X113974571Y-79652952D01*
X114069809Y-79605333D01*
X114307904Y-79605333D01*
X114403142Y-79652952D01*
X114450761Y-79700571D01*
X114498380Y-79795809D01*
X114498380Y-80081523D01*
X114450761Y-80176761D01*
X114403142Y-80224380D01*
G04 #@! TO.C,TP4*
X107656380Y-82287904D02*
X107656380Y-81716476D01*
X108656380Y-82002190D02*
X107656380Y-82002190D01*
X108656380Y-81383142D02*
X107656380Y-81383142D01*
X107656380Y-81002190D01*
X107704000Y-80906952D01*
X107751619Y-80859333D01*
X107846857Y-80811714D01*
X107989714Y-80811714D01*
X108084952Y-80859333D01*
X108132571Y-80906952D01*
X108180190Y-81002190D01*
X108180190Y-81383142D01*
X107989714Y-79954571D02*
X108656380Y-79954571D01*
X107608761Y-80192666D02*
X108323047Y-80430761D01*
X108323047Y-79811714D01*
G04 #@! TO.C,R3*
X105324495Y-97807452D02*
X104991162Y-97331262D01*
X104753066Y-97807452D02*
X104753066Y-96807452D01*
X105134019Y-96807452D01*
X105229257Y-96855072D01*
X105276876Y-96902691D01*
X105324495Y-96997929D01*
X105324495Y-97140786D01*
X105276876Y-97236024D01*
X105229257Y-97283643D01*
X105134019Y-97331262D01*
X104753066Y-97331262D01*
X105657828Y-96807452D02*
X106276876Y-96807452D01*
X105943542Y-97188405D01*
X106086400Y-97188405D01*
X106181638Y-97236024D01*
X106229257Y-97283643D01*
X106276876Y-97378881D01*
X106276876Y-97616976D01*
X106229257Y-97712214D01*
X106181638Y-97759833D01*
X106086400Y-97807452D01*
X105800685Y-97807452D01*
X105705447Y-97759833D01*
X105657828Y-97712214D01*
G04 #@! TO.C,C1*
X78557142Y-97448666D02*
X78604761Y-97496285D01*
X78652380Y-97639142D01*
X78652380Y-97734380D01*
X78604761Y-97877238D01*
X78509523Y-97972476D01*
X78414285Y-98020095D01*
X78223809Y-98067714D01*
X78080952Y-98067714D01*
X77890476Y-98020095D01*
X77795238Y-97972476D01*
X77700000Y-97877238D01*
X77652380Y-97734380D01*
X77652380Y-97639142D01*
X77700000Y-97496285D01*
X77747619Y-97448666D01*
X78652380Y-96496285D02*
X78652380Y-97067714D01*
X78652380Y-96782000D02*
X77652380Y-96782000D01*
X77795238Y-96877238D01*
X77890476Y-96972476D01*
X77938095Y-97067714D01*
G04 #@! TO.C,C2*
X89003142Y-97194666D02*
X89050761Y-97242285D01*
X89098380Y-97385142D01*
X89098380Y-97480380D01*
X89050761Y-97623238D01*
X88955523Y-97718476D01*
X88860285Y-97766095D01*
X88669809Y-97813714D01*
X88526952Y-97813714D01*
X88336476Y-97766095D01*
X88241238Y-97718476D01*
X88146000Y-97623238D01*
X88098380Y-97480380D01*
X88098380Y-97385142D01*
X88146000Y-97242285D01*
X88193619Y-97194666D01*
X88193619Y-96813714D02*
X88146000Y-96766095D01*
X88098380Y-96670857D01*
X88098380Y-96432761D01*
X88146000Y-96337523D01*
X88193619Y-96289904D01*
X88288857Y-96242285D01*
X88384095Y-96242285D01*
X88526952Y-96289904D01*
X89098380Y-96861333D01*
X89098380Y-96242285D01*
G04 #@! TO.C,C3*
X169267142Y-115482666D02*
X169314761Y-115530285D01*
X169362380Y-115673142D01*
X169362380Y-115768380D01*
X169314761Y-115911238D01*
X169219523Y-116006476D01*
X169124285Y-116054095D01*
X168933809Y-116101714D01*
X168790952Y-116101714D01*
X168600476Y-116054095D01*
X168505238Y-116006476D01*
X168410000Y-115911238D01*
X168362380Y-115768380D01*
X168362380Y-115673142D01*
X168410000Y-115530285D01*
X168457619Y-115482666D01*
X168362380Y-115149333D02*
X168362380Y-114530285D01*
X168743333Y-114863619D01*
X168743333Y-114720761D01*
X168790952Y-114625523D01*
X168838571Y-114577904D01*
X168933809Y-114530285D01*
X169171904Y-114530285D01*
X169267142Y-114577904D01*
X169314761Y-114625523D01*
X169362380Y-114720761D01*
X169362380Y-115006476D01*
X169314761Y-115101714D01*
X169267142Y-115149333D01*
G04 #@! TO.C,C4*
X105243333Y-92465142D02*
X105195714Y-92512761D01*
X105052857Y-92560380D01*
X104957619Y-92560380D01*
X104814761Y-92512761D01*
X104719523Y-92417523D01*
X104671904Y-92322285D01*
X104624285Y-92131809D01*
X104624285Y-91988952D01*
X104671904Y-91798476D01*
X104719523Y-91703238D01*
X104814761Y-91608000D01*
X104957619Y-91560380D01*
X105052857Y-91560380D01*
X105195714Y-91608000D01*
X105243333Y-91655619D01*
X106100476Y-91893714D02*
X106100476Y-92560380D01*
X105862380Y-91512761D02*
X105624285Y-92227047D01*
X106243333Y-92227047D01*
G04 #@! TO.C,C5*
X164695142Y-98464666D02*
X164742761Y-98512285D01*
X164790380Y-98655142D01*
X164790380Y-98750380D01*
X164742761Y-98893238D01*
X164647523Y-98988476D01*
X164552285Y-99036095D01*
X164361809Y-99083714D01*
X164218952Y-99083714D01*
X164028476Y-99036095D01*
X163933238Y-98988476D01*
X163838000Y-98893238D01*
X163790380Y-98750380D01*
X163790380Y-98655142D01*
X163838000Y-98512285D01*
X163885619Y-98464666D01*
X163790380Y-97559904D02*
X163790380Y-98036095D01*
X164266571Y-98083714D01*
X164218952Y-98036095D01*
X164171333Y-97940857D01*
X164171333Y-97702761D01*
X164218952Y-97607523D01*
X164266571Y-97559904D01*
X164361809Y-97512285D01*
X164599904Y-97512285D01*
X164695142Y-97559904D01*
X164742761Y-97607523D01*
X164790380Y-97702761D01*
X164790380Y-97940857D01*
X164742761Y-98036095D01*
X164695142Y-98083714D01*
G04 #@! TO.C,C6*
X166219142Y-98464666D02*
X166266761Y-98512285D01*
X166314380Y-98655142D01*
X166314380Y-98750380D01*
X166266761Y-98893238D01*
X166171523Y-98988476D01*
X166076285Y-99036095D01*
X165885809Y-99083714D01*
X165742952Y-99083714D01*
X165552476Y-99036095D01*
X165457238Y-98988476D01*
X165362000Y-98893238D01*
X165314380Y-98750380D01*
X165314380Y-98655142D01*
X165362000Y-98512285D01*
X165409619Y-98464666D01*
X165314380Y-97607523D02*
X165314380Y-97798000D01*
X165362000Y-97893238D01*
X165409619Y-97940857D01*
X165552476Y-98036095D01*
X165742952Y-98083714D01*
X166123904Y-98083714D01*
X166219142Y-98036095D01*
X166266761Y-97988476D01*
X166314380Y-97893238D01*
X166314380Y-97702761D01*
X166266761Y-97607523D01*
X166219142Y-97559904D01*
X166123904Y-97512285D01*
X165885809Y-97512285D01*
X165790571Y-97559904D01*
X165742952Y-97607523D01*
X165695333Y-97702761D01*
X165695333Y-97893238D01*
X165742952Y-97988476D01*
X165790571Y-98036095D01*
X165885809Y-98083714D01*
G04 #@! TO.C,C7*
X98466495Y-97618214D02*
X98418876Y-97665833D01*
X98276019Y-97713452D01*
X98180781Y-97713452D01*
X98037923Y-97665833D01*
X97942685Y-97570595D01*
X97895066Y-97475357D01*
X97847447Y-97284881D01*
X97847447Y-97142024D01*
X97895066Y-96951548D01*
X97942685Y-96856310D01*
X98037923Y-96761072D01*
X98180781Y-96713452D01*
X98276019Y-96713452D01*
X98418876Y-96761072D01*
X98466495Y-96808691D01*
X98799828Y-96713452D02*
X99466495Y-96713452D01*
X99037923Y-97713452D01*
G04 #@! TO.C,C8*
X110326304Y-97427738D02*
X110373923Y-97475357D01*
X110421542Y-97618214D01*
X110421542Y-97713452D01*
X110373923Y-97856310D01*
X110278685Y-97951548D01*
X110183447Y-97999167D01*
X109992971Y-98046786D01*
X109850114Y-98046786D01*
X109659638Y-97999167D01*
X109564400Y-97951548D01*
X109469162Y-97856310D01*
X109421542Y-97713452D01*
X109421542Y-97618214D01*
X109469162Y-97475357D01*
X109516781Y-97427738D01*
X109850114Y-96856310D02*
X109802495Y-96951548D01*
X109754876Y-96999167D01*
X109659638Y-97046786D01*
X109612019Y-97046786D01*
X109516781Y-96999167D01*
X109469162Y-96951548D01*
X109421542Y-96856310D01*
X109421542Y-96665833D01*
X109469162Y-96570595D01*
X109516781Y-96522976D01*
X109612019Y-96475357D01*
X109659638Y-96475357D01*
X109754876Y-96522976D01*
X109802495Y-96570595D01*
X109850114Y-96665833D01*
X109850114Y-96856310D01*
X109897733Y-96951548D01*
X109945352Y-96999167D01*
X110040590Y-97046786D01*
X110231066Y-97046786D01*
X110326304Y-96999167D01*
X110373923Y-96951548D01*
X110421542Y-96856310D01*
X110421542Y-96665833D01*
X110373923Y-96570595D01*
X110326304Y-96522976D01*
X110231066Y-96475357D01*
X110040590Y-96475357D01*
X109945352Y-96522976D01*
X109897733Y-96570595D01*
X109850114Y-96665833D01*
G04 #@! TO.C,C9*
X165441333Y-103989142D02*
X165393714Y-104036761D01*
X165250857Y-104084380D01*
X165155619Y-104084380D01*
X165012761Y-104036761D01*
X164917523Y-103941523D01*
X164869904Y-103846285D01*
X164822285Y-103655809D01*
X164822285Y-103512952D01*
X164869904Y-103322476D01*
X164917523Y-103227238D01*
X165012761Y-103132000D01*
X165155619Y-103084380D01*
X165250857Y-103084380D01*
X165393714Y-103132000D01*
X165441333Y-103179619D01*
X165917523Y-104084380D02*
X166108000Y-104084380D01*
X166203238Y-104036761D01*
X166250857Y-103989142D01*
X166346095Y-103846285D01*
X166393714Y-103655809D01*
X166393714Y-103274857D01*
X166346095Y-103179619D01*
X166298476Y-103132000D01*
X166203238Y-103084380D01*
X166012761Y-103084380D01*
X165917523Y-103132000D01*
X165869904Y-103179619D01*
X165822285Y-103274857D01*
X165822285Y-103512952D01*
X165869904Y-103608190D01*
X165917523Y-103655809D01*
X166012761Y-103703428D01*
X166203238Y-103703428D01*
X166298476Y-103655809D01*
X166346095Y-103608190D01*
X166393714Y-103512952D01*
G04 #@! TO.C,C10*
X73255142Y-105036857D02*
X73302761Y-105084476D01*
X73350380Y-105227333D01*
X73350380Y-105322571D01*
X73302761Y-105465428D01*
X73207523Y-105560666D01*
X73112285Y-105608285D01*
X72921809Y-105655904D01*
X72778952Y-105655904D01*
X72588476Y-105608285D01*
X72493238Y-105560666D01*
X72398000Y-105465428D01*
X72350380Y-105322571D01*
X72350380Y-105227333D01*
X72398000Y-105084476D01*
X72445619Y-105036857D01*
X73350380Y-104084476D02*
X73350380Y-104655904D01*
X73350380Y-104370190D02*
X72350380Y-104370190D01*
X72493238Y-104465428D01*
X72588476Y-104560666D01*
X72636095Y-104655904D01*
X72350380Y-103465428D02*
X72350380Y-103370190D01*
X72398000Y-103274952D01*
X72445619Y-103227333D01*
X72540857Y-103179714D01*
X72731333Y-103132095D01*
X72969428Y-103132095D01*
X73159904Y-103179714D01*
X73255142Y-103227333D01*
X73302761Y-103274952D01*
X73350380Y-103370190D01*
X73350380Y-103465428D01*
X73302761Y-103560666D01*
X73255142Y-103608285D01*
X73159904Y-103655904D01*
X72969428Y-103703523D01*
X72731333Y-103703523D01*
X72540857Y-103655904D01*
X72445619Y-103608285D01*
X72398000Y-103560666D01*
X72350380Y-103465428D01*
G04 #@! TO.C,C11*
X164457142Y-107037142D02*
X164409523Y-107084761D01*
X164266666Y-107132380D01*
X164171428Y-107132380D01*
X164028571Y-107084761D01*
X163933333Y-106989523D01*
X163885714Y-106894285D01*
X163838095Y-106703809D01*
X163838095Y-106560952D01*
X163885714Y-106370476D01*
X163933333Y-106275238D01*
X164028571Y-106180000D01*
X164171428Y-106132380D01*
X164266666Y-106132380D01*
X164409523Y-106180000D01*
X164457142Y-106227619D01*
X165409523Y-107132380D02*
X164838095Y-107132380D01*
X165123809Y-107132380D02*
X165123809Y-106132380D01*
X165028571Y-106275238D01*
X164933333Y-106370476D01*
X164838095Y-106418095D01*
X166361904Y-107132380D02*
X165790476Y-107132380D01*
X166076190Y-107132380D02*
X166076190Y-106132380D01*
X165980952Y-106275238D01*
X165885714Y-106370476D01*
X165790476Y-106418095D01*
G04 #@! TO.C,C12*
X70731142Y-113641142D02*
X70683523Y-113688761D01*
X70540666Y-113736380D01*
X70445428Y-113736380D01*
X70302571Y-113688761D01*
X70207333Y-113593523D01*
X70159714Y-113498285D01*
X70112095Y-113307809D01*
X70112095Y-113164952D01*
X70159714Y-112974476D01*
X70207333Y-112879238D01*
X70302571Y-112784000D01*
X70445428Y-112736380D01*
X70540666Y-112736380D01*
X70683523Y-112784000D01*
X70731142Y-112831619D01*
X71683523Y-113736380D02*
X71112095Y-113736380D01*
X71397809Y-113736380D02*
X71397809Y-112736380D01*
X71302571Y-112879238D01*
X71207333Y-112974476D01*
X71112095Y-113022095D01*
X72064476Y-112831619D02*
X72112095Y-112784000D01*
X72207333Y-112736380D01*
X72445428Y-112736380D01*
X72540666Y-112784000D01*
X72588285Y-112831619D01*
X72635904Y-112926857D01*
X72635904Y-113022095D01*
X72588285Y-113164952D01*
X72016857Y-113736380D01*
X72635904Y-113736380D01*
G04 #@! TO.C,C13*
X170553142Y-90019142D02*
X170505523Y-90066761D01*
X170362666Y-90114380D01*
X170267428Y-90114380D01*
X170124571Y-90066761D01*
X170029333Y-89971523D01*
X169981714Y-89876285D01*
X169934095Y-89685809D01*
X169934095Y-89542952D01*
X169981714Y-89352476D01*
X170029333Y-89257238D01*
X170124571Y-89162000D01*
X170267428Y-89114380D01*
X170362666Y-89114380D01*
X170505523Y-89162000D01*
X170553142Y-89209619D01*
X171505523Y-90114380D02*
X170934095Y-90114380D01*
X171219809Y-90114380D02*
X171219809Y-89114380D01*
X171124571Y-89257238D01*
X171029333Y-89352476D01*
X170934095Y-89400095D01*
X171838857Y-89114380D02*
X172457904Y-89114380D01*
X172124571Y-89495333D01*
X172267428Y-89495333D01*
X172362666Y-89542952D01*
X172410285Y-89590571D01*
X172457904Y-89685809D01*
X172457904Y-89923904D01*
X172410285Y-90019142D01*
X172362666Y-90066761D01*
X172267428Y-90114380D01*
X171981714Y-90114380D01*
X171886476Y-90066761D01*
X171838857Y-90019142D01*
G04 #@! TO.C,C14*
X170553142Y-93067142D02*
X170505523Y-93114761D01*
X170362666Y-93162380D01*
X170267428Y-93162380D01*
X170124571Y-93114761D01*
X170029333Y-93019523D01*
X169981714Y-92924285D01*
X169934095Y-92733809D01*
X169934095Y-92590952D01*
X169981714Y-92400476D01*
X170029333Y-92305238D01*
X170124571Y-92210000D01*
X170267428Y-92162380D01*
X170362666Y-92162380D01*
X170505523Y-92210000D01*
X170553142Y-92257619D01*
X171505523Y-93162380D02*
X170934095Y-93162380D01*
X171219809Y-93162380D02*
X171219809Y-92162380D01*
X171124571Y-92305238D01*
X171029333Y-92400476D01*
X170934095Y-92448095D01*
X172362666Y-92495714D02*
X172362666Y-93162380D01*
X172124571Y-92114761D02*
X171886476Y-92829047D01*
X172505523Y-92829047D01*
G04 #@! TO.C,C15*
X184015142Y-113133142D02*
X183967523Y-113180761D01*
X183824666Y-113228380D01*
X183729428Y-113228380D01*
X183586571Y-113180761D01*
X183491333Y-113085523D01*
X183443714Y-112990285D01*
X183396095Y-112799809D01*
X183396095Y-112656952D01*
X183443714Y-112466476D01*
X183491333Y-112371238D01*
X183586571Y-112276000D01*
X183729428Y-112228380D01*
X183824666Y-112228380D01*
X183967523Y-112276000D01*
X184015142Y-112323619D01*
X184967523Y-113228380D02*
X184396095Y-113228380D01*
X184681809Y-113228380D02*
X184681809Y-112228380D01*
X184586571Y-112371238D01*
X184491333Y-112466476D01*
X184396095Y-112514095D01*
X185872285Y-112228380D02*
X185396095Y-112228380D01*
X185348476Y-112704571D01*
X185396095Y-112656952D01*
X185491333Y-112609333D01*
X185729428Y-112609333D01*
X185824666Y-112656952D01*
X185872285Y-112704571D01*
X185919904Y-112799809D01*
X185919904Y-113037904D01*
X185872285Y-113133142D01*
X185824666Y-113180761D01*
X185729428Y-113228380D01*
X185491333Y-113228380D01*
X185396095Y-113180761D01*
X185348476Y-113133142D01*
G04 #@! TO.C,C16*
X184015142Y-105005142D02*
X183967523Y-105052761D01*
X183824666Y-105100380D01*
X183729428Y-105100380D01*
X183586571Y-105052761D01*
X183491333Y-104957523D01*
X183443714Y-104862285D01*
X183396095Y-104671809D01*
X183396095Y-104528952D01*
X183443714Y-104338476D01*
X183491333Y-104243238D01*
X183586571Y-104148000D01*
X183729428Y-104100380D01*
X183824666Y-104100380D01*
X183967523Y-104148000D01*
X184015142Y-104195619D01*
X184967523Y-105100380D02*
X184396095Y-105100380D01*
X184681809Y-105100380D02*
X184681809Y-104100380D01*
X184586571Y-104243238D01*
X184491333Y-104338476D01*
X184396095Y-104386095D01*
X185824666Y-104100380D02*
X185634190Y-104100380D01*
X185538952Y-104148000D01*
X185491333Y-104195619D01*
X185396095Y-104338476D01*
X185348476Y-104528952D01*
X185348476Y-104909904D01*
X185396095Y-105005142D01*
X185443714Y-105052761D01*
X185538952Y-105100380D01*
X185729428Y-105100380D01*
X185824666Y-105052761D01*
X185872285Y-105005142D01*
X185919904Y-104909904D01*
X185919904Y-104671809D01*
X185872285Y-104576571D01*
X185824666Y-104528952D01*
X185729428Y-104481333D01*
X185538952Y-104481333D01*
X185443714Y-104528952D01*
X185396095Y-104576571D01*
X185348476Y-104671809D01*
G04 #@! TO.C,C17*
X152313653Y-111161206D02*
X152266034Y-111208825D01*
X152123177Y-111256444D01*
X152027939Y-111256444D01*
X151885082Y-111208825D01*
X151789844Y-111113587D01*
X151742225Y-111018349D01*
X151694606Y-110827873D01*
X151694606Y-110685016D01*
X151742225Y-110494540D01*
X151789844Y-110399302D01*
X151885082Y-110304064D01*
X152027939Y-110256444D01*
X152123177Y-110256444D01*
X152266034Y-110304064D01*
X152313653Y-110351683D01*
X153266034Y-111256444D02*
X152694606Y-111256444D01*
X152980320Y-111256444D02*
X152980320Y-110256444D01*
X152885082Y-110399302D01*
X152789844Y-110494540D01*
X152694606Y-110542159D01*
X153599368Y-110256444D02*
X154266034Y-110256444D01*
X153837463Y-111256444D01*
G04 #@! TO.C,C18*
X137279142Y-103227142D02*
X137231523Y-103274761D01*
X137088666Y-103322380D01*
X136993428Y-103322380D01*
X136850571Y-103274761D01*
X136755333Y-103179523D01*
X136707714Y-103084285D01*
X136660095Y-102893809D01*
X136660095Y-102750952D01*
X136707714Y-102560476D01*
X136755333Y-102465238D01*
X136850571Y-102370000D01*
X136993428Y-102322380D01*
X137088666Y-102322380D01*
X137231523Y-102370000D01*
X137279142Y-102417619D01*
X138231523Y-103322380D02*
X137660095Y-103322380D01*
X137945809Y-103322380D02*
X137945809Y-102322380D01*
X137850571Y-102465238D01*
X137755333Y-102560476D01*
X137660095Y-102608095D01*
X138802952Y-102750952D02*
X138707714Y-102703333D01*
X138660095Y-102655714D01*
X138612476Y-102560476D01*
X138612476Y-102512857D01*
X138660095Y-102417619D01*
X138707714Y-102370000D01*
X138802952Y-102322380D01*
X138993428Y-102322380D01*
X139088666Y-102370000D01*
X139136285Y-102417619D01*
X139183904Y-102512857D01*
X139183904Y-102560476D01*
X139136285Y-102655714D01*
X139088666Y-102703333D01*
X138993428Y-102750952D01*
X138802952Y-102750952D01*
X138707714Y-102798571D01*
X138660095Y-102846190D01*
X138612476Y-102941428D01*
X138612476Y-103131904D01*
X138660095Y-103227142D01*
X138707714Y-103274761D01*
X138802952Y-103322380D01*
X138993428Y-103322380D01*
X139088666Y-103274761D01*
X139136285Y-103227142D01*
X139183904Y-103131904D01*
X139183904Y-102941428D01*
X139136285Y-102846190D01*
X139088666Y-102798571D01*
X138993428Y-102750952D01*
G04 #@! TO.C,C19*
X148503653Y-117878584D02*
X148456034Y-117926203D01*
X148313177Y-117973822D01*
X148217939Y-117973822D01*
X148075082Y-117926203D01*
X147979844Y-117830965D01*
X147932225Y-117735727D01*
X147884606Y-117545251D01*
X147884606Y-117402394D01*
X147932225Y-117211918D01*
X147979844Y-117116680D01*
X148075082Y-117021442D01*
X148217939Y-116973822D01*
X148313177Y-116973822D01*
X148456034Y-117021442D01*
X148503653Y-117069061D01*
X149456034Y-117973822D02*
X148884606Y-117973822D01*
X149170320Y-117973822D02*
X149170320Y-116973822D01*
X149075082Y-117116680D01*
X148979844Y-117211918D01*
X148884606Y-117259537D01*
X149932225Y-117973822D02*
X150122701Y-117973822D01*
X150217939Y-117926203D01*
X150265558Y-117878584D01*
X150360796Y-117735727D01*
X150408415Y-117545251D01*
X150408415Y-117164299D01*
X150360796Y-117069061D01*
X150313177Y-117021442D01*
X150217939Y-116973822D01*
X150027463Y-116973822D01*
X149932225Y-117021442D01*
X149884606Y-117069061D01*
X149836987Y-117164299D01*
X149836987Y-117402394D01*
X149884606Y-117497632D01*
X149932225Y-117545251D01*
X150027463Y-117592870D01*
X150217939Y-117592870D01*
X150313177Y-117545251D01*
X150360796Y-117497632D01*
X150408415Y-117402394D01*
G04 #@! TO.C,C20*
X155551142Y-120784857D02*
X155598761Y-120832476D01*
X155646380Y-120975333D01*
X155646380Y-121070571D01*
X155598761Y-121213428D01*
X155503523Y-121308666D01*
X155408285Y-121356285D01*
X155217809Y-121403904D01*
X155074952Y-121403904D01*
X154884476Y-121356285D01*
X154789238Y-121308666D01*
X154694000Y-121213428D01*
X154646380Y-121070571D01*
X154646380Y-120975333D01*
X154694000Y-120832476D01*
X154741619Y-120784857D01*
X154741619Y-120403904D02*
X154694000Y-120356285D01*
X154646380Y-120261047D01*
X154646380Y-120022952D01*
X154694000Y-119927714D01*
X154741619Y-119880095D01*
X154836857Y-119832476D01*
X154932095Y-119832476D01*
X155074952Y-119880095D01*
X155646380Y-120451523D01*
X155646380Y-119832476D01*
X154646380Y-119213428D02*
X154646380Y-119118190D01*
X154694000Y-119022952D01*
X154741619Y-118975333D01*
X154836857Y-118927714D01*
X155027333Y-118880095D01*
X155265428Y-118880095D01*
X155455904Y-118927714D01*
X155551142Y-118975333D01*
X155598761Y-119022952D01*
X155646380Y-119118190D01*
X155646380Y-119213428D01*
X155598761Y-119308666D01*
X155551142Y-119356285D01*
X155455904Y-119403904D01*
X155265428Y-119451523D01*
X155027333Y-119451523D01*
X154836857Y-119403904D01*
X154741619Y-119356285D01*
X154694000Y-119308666D01*
X154646380Y-119213428D01*
G04 #@! TO.C,C21*
X166981142Y-120276857D02*
X167028761Y-120324476D01*
X167076380Y-120467333D01*
X167076380Y-120562571D01*
X167028761Y-120705428D01*
X166933523Y-120800666D01*
X166838285Y-120848285D01*
X166647809Y-120895904D01*
X166504952Y-120895904D01*
X166314476Y-120848285D01*
X166219238Y-120800666D01*
X166124000Y-120705428D01*
X166076380Y-120562571D01*
X166076380Y-120467333D01*
X166124000Y-120324476D01*
X166171619Y-120276857D01*
X166171619Y-119895904D02*
X166124000Y-119848285D01*
X166076380Y-119753047D01*
X166076380Y-119514952D01*
X166124000Y-119419714D01*
X166171619Y-119372095D01*
X166266857Y-119324476D01*
X166362095Y-119324476D01*
X166504952Y-119372095D01*
X167076380Y-119943523D01*
X167076380Y-119324476D01*
X167076380Y-118372095D02*
X167076380Y-118943523D01*
X167076380Y-118657809D02*
X166076380Y-118657809D01*
X166219238Y-118753047D01*
X166314476Y-118848285D01*
X166362095Y-118943523D01*
G04 #@! TO.C,C22*
X145407142Y-97893142D02*
X145359523Y-97940761D01*
X145216666Y-97988380D01*
X145121428Y-97988380D01*
X144978571Y-97940761D01*
X144883333Y-97845523D01*
X144835714Y-97750285D01*
X144788095Y-97559809D01*
X144788095Y-97416952D01*
X144835714Y-97226476D01*
X144883333Y-97131238D01*
X144978571Y-97036000D01*
X145121428Y-96988380D01*
X145216666Y-96988380D01*
X145359523Y-97036000D01*
X145407142Y-97083619D01*
X145788095Y-97083619D02*
X145835714Y-97036000D01*
X145930952Y-96988380D01*
X146169047Y-96988380D01*
X146264285Y-97036000D01*
X146311904Y-97083619D01*
X146359523Y-97178857D01*
X146359523Y-97274095D01*
X146311904Y-97416952D01*
X145740476Y-97988380D01*
X146359523Y-97988380D01*
X146740476Y-97083619D02*
X146788095Y-97036000D01*
X146883333Y-96988380D01*
X147121428Y-96988380D01*
X147216666Y-97036000D01*
X147264285Y-97083619D01*
X147311904Y-97178857D01*
X147311904Y-97274095D01*
X147264285Y-97416952D01*
X146692857Y-97988380D01*
X147311904Y-97988380D01*
G04 #@! TO.C,C23*
X133723142Y-94337142D02*
X133675523Y-94384761D01*
X133532666Y-94432380D01*
X133437428Y-94432380D01*
X133294571Y-94384761D01*
X133199333Y-94289523D01*
X133151714Y-94194285D01*
X133104095Y-94003809D01*
X133104095Y-93860952D01*
X133151714Y-93670476D01*
X133199333Y-93575238D01*
X133294571Y-93480000D01*
X133437428Y-93432380D01*
X133532666Y-93432380D01*
X133675523Y-93480000D01*
X133723142Y-93527619D01*
X134104095Y-93527619D02*
X134151714Y-93480000D01*
X134246952Y-93432380D01*
X134485047Y-93432380D01*
X134580285Y-93480000D01*
X134627904Y-93527619D01*
X134675523Y-93622857D01*
X134675523Y-93718095D01*
X134627904Y-93860952D01*
X134056476Y-94432380D01*
X134675523Y-94432380D01*
X135008857Y-93432380D02*
X135627904Y-93432380D01*
X135294571Y-93813333D01*
X135437428Y-93813333D01*
X135532666Y-93860952D01*
X135580285Y-93908571D01*
X135627904Y-94003809D01*
X135627904Y-94241904D01*
X135580285Y-94337142D01*
X135532666Y-94384761D01*
X135437428Y-94432380D01*
X135151714Y-94432380D01*
X135056476Y-94384761D01*
X135008857Y-94337142D01*
G04 #@! TO.C,C24*
X134485142Y-89511142D02*
X134437523Y-89558761D01*
X134294666Y-89606380D01*
X134199428Y-89606380D01*
X134056571Y-89558761D01*
X133961333Y-89463523D01*
X133913714Y-89368285D01*
X133866095Y-89177809D01*
X133866095Y-89034952D01*
X133913714Y-88844476D01*
X133961333Y-88749238D01*
X134056571Y-88654000D01*
X134199428Y-88606380D01*
X134294666Y-88606380D01*
X134437523Y-88654000D01*
X134485142Y-88701619D01*
X134866095Y-88701619D02*
X134913714Y-88654000D01*
X135008952Y-88606380D01*
X135247047Y-88606380D01*
X135342285Y-88654000D01*
X135389904Y-88701619D01*
X135437523Y-88796857D01*
X135437523Y-88892095D01*
X135389904Y-89034952D01*
X134818476Y-89606380D01*
X135437523Y-89606380D01*
X136294666Y-88939714D02*
X136294666Y-89606380D01*
X136056571Y-88558761D02*
X135818476Y-89273047D01*
X136437523Y-89273047D01*
G04 #@! TO.C,C25*
X123817142Y-101703142D02*
X123769523Y-101750761D01*
X123626666Y-101798380D01*
X123531428Y-101798380D01*
X123388571Y-101750761D01*
X123293333Y-101655523D01*
X123245714Y-101560285D01*
X123198095Y-101369809D01*
X123198095Y-101226952D01*
X123245714Y-101036476D01*
X123293333Y-100941238D01*
X123388571Y-100846000D01*
X123531428Y-100798380D01*
X123626666Y-100798380D01*
X123769523Y-100846000D01*
X123817142Y-100893619D01*
X124198095Y-100893619D02*
X124245714Y-100846000D01*
X124340952Y-100798380D01*
X124579047Y-100798380D01*
X124674285Y-100846000D01*
X124721904Y-100893619D01*
X124769523Y-100988857D01*
X124769523Y-101084095D01*
X124721904Y-101226952D01*
X124150476Y-101798380D01*
X124769523Y-101798380D01*
X125674285Y-100798380D02*
X125198095Y-100798380D01*
X125150476Y-101274571D01*
X125198095Y-101226952D01*
X125293333Y-101179333D01*
X125531428Y-101179333D01*
X125626666Y-101226952D01*
X125674285Y-101274571D01*
X125721904Y-101369809D01*
X125721904Y-101607904D01*
X125674285Y-101703142D01*
X125626666Y-101750761D01*
X125531428Y-101798380D01*
X125293333Y-101798380D01*
X125198095Y-101750761D01*
X125150476Y-101703142D01*
G04 #@! TO.C,C26*
X113530142Y-97258142D02*
X113482523Y-97305761D01*
X113339666Y-97353380D01*
X113244428Y-97353380D01*
X113101571Y-97305761D01*
X113006333Y-97210523D01*
X112958714Y-97115285D01*
X112911095Y-96924809D01*
X112911095Y-96781952D01*
X112958714Y-96591476D01*
X113006333Y-96496238D01*
X113101571Y-96401000D01*
X113244428Y-96353380D01*
X113339666Y-96353380D01*
X113482523Y-96401000D01*
X113530142Y-96448619D01*
X113911095Y-96448619D02*
X113958714Y-96401000D01*
X114053952Y-96353380D01*
X114292047Y-96353380D01*
X114387285Y-96401000D01*
X114434904Y-96448619D01*
X114482523Y-96543857D01*
X114482523Y-96639095D01*
X114434904Y-96781952D01*
X113863476Y-97353380D01*
X114482523Y-97353380D01*
X115339666Y-96353380D02*
X115149190Y-96353380D01*
X115053952Y-96401000D01*
X115006333Y-96448619D01*
X114911095Y-96591476D01*
X114863476Y-96781952D01*
X114863476Y-97162904D01*
X114911095Y-97258142D01*
X114958714Y-97305761D01*
X115053952Y-97353380D01*
X115244428Y-97353380D01*
X115339666Y-97305761D01*
X115387285Y-97258142D01*
X115434904Y-97162904D01*
X115434904Y-96924809D01*
X115387285Y-96829571D01*
X115339666Y-96781952D01*
X115244428Y-96734333D01*
X115053952Y-96734333D01*
X114958714Y-96781952D01*
X114911095Y-96829571D01*
X114863476Y-96924809D01*
G04 #@! TO.C,C27*
X123563142Y-93321142D02*
X123515523Y-93368761D01*
X123372666Y-93416380D01*
X123277428Y-93416380D01*
X123134571Y-93368761D01*
X123039333Y-93273523D01*
X122991714Y-93178285D01*
X122944095Y-92987809D01*
X122944095Y-92844952D01*
X122991714Y-92654476D01*
X123039333Y-92559238D01*
X123134571Y-92464000D01*
X123277428Y-92416380D01*
X123372666Y-92416380D01*
X123515523Y-92464000D01*
X123563142Y-92511619D01*
X123944095Y-92511619D02*
X123991714Y-92464000D01*
X124086952Y-92416380D01*
X124325047Y-92416380D01*
X124420285Y-92464000D01*
X124467904Y-92511619D01*
X124515523Y-92606857D01*
X124515523Y-92702095D01*
X124467904Y-92844952D01*
X123896476Y-93416380D01*
X124515523Y-93416380D01*
X124848857Y-92416380D02*
X125515523Y-92416380D01*
X125086952Y-93416380D01*
G04 #@! TO.C,C28*
X131675142Y-94114857D02*
X131722761Y-94162476D01*
X131770380Y-94305333D01*
X131770380Y-94400571D01*
X131722761Y-94543428D01*
X131627523Y-94638666D01*
X131532285Y-94686285D01*
X131341809Y-94733904D01*
X131198952Y-94733904D01*
X131008476Y-94686285D01*
X130913238Y-94638666D01*
X130818000Y-94543428D01*
X130770380Y-94400571D01*
X130770380Y-94305333D01*
X130818000Y-94162476D01*
X130865619Y-94114857D01*
X130865619Y-93733904D02*
X130818000Y-93686285D01*
X130770380Y-93591047D01*
X130770380Y-93352952D01*
X130818000Y-93257714D01*
X130865619Y-93210095D01*
X130960857Y-93162476D01*
X131056095Y-93162476D01*
X131198952Y-93210095D01*
X131770380Y-93781523D01*
X131770380Y-93162476D01*
X131198952Y-92591047D02*
X131151333Y-92686285D01*
X131103714Y-92733904D01*
X131008476Y-92781523D01*
X130960857Y-92781523D01*
X130865619Y-92733904D01*
X130818000Y-92686285D01*
X130770380Y-92591047D01*
X130770380Y-92400571D01*
X130818000Y-92305333D01*
X130865619Y-92257714D01*
X130960857Y-92210095D01*
X131008476Y-92210095D01*
X131103714Y-92257714D01*
X131151333Y-92305333D01*
X131198952Y-92400571D01*
X131198952Y-92591047D01*
X131246571Y-92686285D01*
X131294190Y-92733904D01*
X131389428Y-92781523D01*
X131579904Y-92781523D01*
X131675142Y-92733904D01*
X131722761Y-92686285D01*
X131770380Y-92591047D01*
X131770380Y-92400571D01*
X131722761Y-92305333D01*
X131675142Y-92257714D01*
X131579904Y-92210095D01*
X131389428Y-92210095D01*
X131294190Y-92257714D01*
X131246571Y-92305333D01*
X131198952Y-92400571D01*
G04 #@! TO.C,C29*
X124579142Y-86304142D02*
X124531523Y-86351761D01*
X124388666Y-86399380D01*
X124293428Y-86399380D01*
X124150571Y-86351761D01*
X124055333Y-86256523D01*
X124007714Y-86161285D01*
X123960095Y-85970809D01*
X123960095Y-85827952D01*
X124007714Y-85637476D01*
X124055333Y-85542238D01*
X124150571Y-85447000D01*
X124293428Y-85399380D01*
X124388666Y-85399380D01*
X124531523Y-85447000D01*
X124579142Y-85494619D01*
X124960095Y-85494619D02*
X125007714Y-85447000D01*
X125102952Y-85399380D01*
X125341047Y-85399380D01*
X125436285Y-85447000D01*
X125483904Y-85494619D01*
X125531523Y-85589857D01*
X125531523Y-85685095D01*
X125483904Y-85827952D01*
X124912476Y-86399380D01*
X125531523Y-86399380D01*
X126007714Y-86399380D02*
X126198190Y-86399380D01*
X126293428Y-86351761D01*
X126341047Y-86304142D01*
X126436285Y-86161285D01*
X126483904Y-85970809D01*
X126483904Y-85589857D01*
X126436285Y-85494619D01*
X126388666Y-85447000D01*
X126293428Y-85399380D01*
X126102952Y-85399380D01*
X126007714Y-85447000D01*
X125960095Y-85494619D01*
X125912476Y-85589857D01*
X125912476Y-85827952D01*
X125960095Y-85923190D01*
X126007714Y-85970809D01*
X126102952Y-86018428D01*
X126293428Y-86018428D01*
X126388666Y-85970809D01*
X126436285Y-85923190D01*
X126483904Y-85827952D01*
G04 #@! TO.C,C30*
X117975142Y-87606142D02*
X117927523Y-87653761D01*
X117784666Y-87701380D01*
X117689428Y-87701380D01*
X117546571Y-87653761D01*
X117451333Y-87558523D01*
X117403714Y-87463285D01*
X117356095Y-87272809D01*
X117356095Y-87129952D01*
X117403714Y-86939476D01*
X117451333Y-86844238D01*
X117546571Y-86749000D01*
X117689428Y-86701380D01*
X117784666Y-86701380D01*
X117927523Y-86749000D01*
X117975142Y-86796619D01*
X118308476Y-86701380D02*
X118927523Y-86701380D01*
X118594190Y-87082333D01*
X118737047Y-87082333D01*
X118832285Y-87129952D01*
X118879904Y-87177571D01*
X118927523Y-87272809D01*
X118927523Y-87510904D01*
X118879904Y-87606142D01*
X118832285Y-87653761D01*
X118737047Y-87701380D01*
X118451333Y-87701380D01*
X118356095Y-87653761D01*
X118308476Y-87606142D01*
X119546571Y-86701380D02*
X119641809Y-86701380D01*
X119737047Y-86749000D01*
X119784666Y-86796619D01*
X119832285Y-86891857D01*
X119879904Y-87082333D01*
X119879904Y-87320428D01*
X119832285Y-87510904D01*
X119784666Y-87606142D01*
X119737047Y-87653761D01*
X119641809Y-87701380D01*
X119546571Y-87701380D01*
X119451333Y-87653761D01*
X119403714Y-87606142D01*
X119356095Y-87510904D01*
X119308476Y-87320428D01*
X119308476Y-87082333D01*
X119356095Y-86891857D01*
X119403714Y-86796619D01*
X119451333Y-86749000D01*
X119546571Y-86701380D01*
G04 #@! TO.C,C31*
X110609142Y-88876142D02*
X110561523Y-88923761D01*
X110418666Y-88971380D01*
X110323428Y-88971380D01*
X110180571Y-88923761D01*
X110085333Y-88828523D01*
X110037714Y-88733285D01*
X109990095Y-88542809D01*
X109990095Y-88399952D01*
X110037714Y-88209476D01*
X110085333Y-88114238D01*
X110180571Y-88019000D01*
X110323428Y-87971380D01*
X110418666Y-87971380D01*
X110561523Y-88019000D01*
X110609142Y-88066619D01*
X110942476Y-87971380D02*
X111561523Y-87971380D01*
X111228190Y-88352333D01*
X111371047Y-88352333D01*
X111466285Y-88399952D01*
X111513904Y-88447571D01*
X111561523Y-88542809D01*
X111561523Y-88780904D01*
X111513904Y-88876142D01*
X111466285Y-88923761D01*
X111371047Y-88971380D01*
X111085333Y-88971380D01*
X110990095Y-88923761D01*
X110942476Y-88876142D01*
X112513904Y-88971380D02*
X111942476Y-88971380D01*
X112228190Y-88971380D02*
X112228190Y-87971380D01*
X112132952Y-88114238D01*
X112037714Y-88209476D01*
X111942476Y-88257095D01*
G04 #@! TO.C,C32*
X111752142Y-81859142D02*
X111704523Y-81906761D01*
X111561666Y-81954380D01*
X111466428Y-81954380D01*
X111323571Y-81906761D01*
X111228333Y-81811523D01*
X111180714Y-81716285D01*
X111133095Y-81525809D01*
X111133095Y-81382952D01*
X111180714Y-81192476D01*
X111228333Y-81097238D01*
X111323571Y-81002000D01*
X111466428Y-80954380D01*
X111561666Y-80954380D01*
X111704523Y-81002000D01*
X111752142Y-81049619D01*
X112085476Y-80954380D02*
X112704523Y-80954380D01*
X112371190Y-81335333D01*
X112514047Y-81335333D01*
X112609285Y-81382952D01*
X112656904Y-81430571D01*
X112704523Y-81525809D01*
X112704523Y-81763904D01*
X112656904Y-81859142D01*
X112609285Y-81906761D01*
X112514047Y-81954380D01*
X112228333Y-81954380D01*
X112133095Y-81906761D01*
X112085476Y-81859142D01*
X113085476Y-81049619D02*
X113133095Y-81002000D01*
X113228333Y-80954380D01*
X113466428Y-80954380D01*
X113561666Y-81002000D01*
X113609285Y-81049619D01*
X113656904Y-81144857D01*
X113656904Y-81240095D01*
X113609285Y-81382952D01*
X113037857Y-81954380D01*
X113656904Y-81954380D01*
G04 #@! TO.C,D1*
X85288380Y-104116095D02*
X84288380Y-104116095D01*
X84288380Y-103878000D01*
X84336000Y-103735142D01*
X84431238Y-103639904D01*
X84526476Y-103592285D01*
X84716952Y-103544666D01*
X84859809Y-103544666D01*
X85050285Y-103592285D01*
X85145523Y-103639904D01*
X85240761Y-103735142D01*
X85288380Y-103878000D01*
X85288380Y-104116095D01*
X85288380Y-102592285D02*
X85288380Y-103163714D01*
X85288380Y-102878000D02*
X84288380Y-102878000D01*
X84431238Y-102973238D01*
X84526476Y-103068476D01*
X84574095Y-103163714D01*
G04 #@! TO.C,D2*
X79446380Y-114276095D02*
X78446380Y-114276095D01*
X78446380Y-114038000D01*
X78494000Y-113895142D01*
X78589238Y-113799904D01*
X78684476Y-113752285D01*
X78874952Y-113704666D01*
X79017809Y-113704666D01*
X79208285Y-113752285D01*
X79303523Y-113799904D01*
X79398761Y-113895142D01*
X79446380Y-114038000D01*
X79446380Y-114276095D01*
X78541619Y-113323714D02*
X78494000Y-113276095D01*
X78446380Y-113180857D01*
X78446380Y-112942761D01*
X78494000Y-112847523D01*
X78541619Y-112799904D01*
X78636857Y-112752285D01*
X78732095Y-112752285D01*
X78874952Y-112799904D01*
X79446380Y-113371333D01*
X79446380Y-112752285D01*
G04 #@! TO.C,D3*
X65555904Y-111958380D02*
X65555904Y-110958380D01*
X65794000Y-110958380D01*
X65936857Y-111006000D01*
X66032095Y-111101238D01*
X66079714Y-111196476D01*
X66127333Y-111386952D01*
X66127333Y-111529809D01*
X66079714Y-111720285D01*
X66032095Y-111815523D01*
X65936857Y-111910761D01*
X65794000Y-111958380D01*
X65555904Y-111958380D01*
X66460666Y-110958380D02*
X67079714Y-110958380D01*
X66746380Y-111339333D01*
X66889238Y-111339333D01*
X66984476Y-111386952D01*
X67032095Y-111434571D01*
X67079714Y-111529809D01*
X67079714Y-111767904D01*
X67032095Y-111863142D01*
X66984476Y-111910761D01*
X66889238Y-111958380D01*
X66603523Y-111958380D01*
X66508285Y-111910761D01*
X66460666Y-111863142D01*
G04 #@! TO.C,D4*
X147518380Y-108180095D02*
X146518380Y-108180095D01*
X146518380Y-107942000D01*
X146566000Y-107799142D01*
X146661238Y-107703904D01*
X146756476Y-107656285D01*
X146946952Y-107608666D01*
X147089809Y-107608666D01*
X147280285Y-107656285D01*
X147375523Y-107703904D01*
X147470761Y-107799142D01*
X147518380Y-107942000D01*
X147518380Y-108180095D01*
X146851714Y-106751523D02*
X147518380Y-106751523D01*
X146470761Y-106989619D02*
X147185047Y-107227714D01*
X147185047Y-106608666D01*
G04 #@! TO.C,D5*
X150058380Y-103910606D02*
X149058380Y-103910606D01*
X149058380Y-103672511D01*
X149106000Y-103529653D01*
X149201238Y-103434415D01*
X149296476Y-103386796D01*
X149486952Y-103339177D01*
X149629809Y-103339177D01*
X149820285Y-103386796D01*
X149915523Y-103434415D01*
X150010761Y-103529653D01*
X150058380Y-103672511D01*
X150058380Y-103910606D01*
X149058380Y-102434415D02*
X149058380Y-102910606D01*
X149534571Y-102958225D01*
X149486952Y-102910606D01*
X149439333Y-102815368D01*
X149439333Y-102577272D01*
X149486952Y-102482034D01*
X149534571Y-102434415D01*
X149629809Y-102386796D01*
X149867904Y-102386796D01*
X149963142Y-102434415D01*
X150010761Y-102482034D01*
X150058380Y-102577272D01*
X150058380Y-102815368D01*
X150010761Y-102910606D01*
X149963142Y-102958225D01*
G04 #@! TO.C,D6*
X132611904Y-110942380D02*
X132611904Y-109942380D01*
X132850000Y-109942380D01*
X132992857Y-109990000D01*
X133088095Y-110085238D01*
X133135714Y-110180476D01*
X133183333Y-110370952D01*
X133183333Y-110513809D01*
X133135714Y-110704285D01*
X133088095Y-110799523D01*
X132992857Y-110894761D01*
X132850000Y-110942380D01*
X132611904Y-110942380D01*
X134040476Y-109942380D02*
X133850000Y-109942380D01*
X133754761Y-109990000D01*
X133707142Y-110037619D01*
X133611904Y-110180476D01*
X133564285Y-110370952D01*
X133564285Y-110751904D01*
X133611904Y-110847142D01*
X133659523Y-110894761D01*
X133754761Y-110942380D01*
X133945238Y-110942380D01*
X134040476Y-110894761D01*
X134088095Y-110847142D01*
X134135714Y-110751904D01*
X134135714Y-110513809D01*
X134088095Y-110418571D01*
X134040476Y-110370952D01*
X133945238Y-110323333D01*
X133754761Y-110323333D01*
X133659523Y-110370952D01*
X133611904Y-110418571D01*
X133564285Y-110513809D01*
G04 #@! TO.C,D7*
X130754380Y-103862095D02*
X129754380Y-103862095D01*
X129754380Y-103624000D01*
X129802000Y-103481142D01*
X129897238Y-103385904D01*
X129992476Y-103338285D01*
X130182952Y-103290666D01*
X130325809Y-103290666D01*
X130516285Y-103338285D01*
X130611523Y-103385904D01*
X130706761Y-103481142D01*
X130754380Y-103624000D01*
X130754380Y-103862095D01*
X129754380Y-102957333D02*
X129754380Y-102290666D01*
X130754380Y-102719238D01*
G04 #@! TO.C,D8*
X115490474Y-110825659D02*
X115490474Y-109825659D01*
X115728570Y-109825659D01*
X115871427Y-109873279D01*
X115966665Y-109968517D01*
X116014284Y-110063755D01*
X116061903Y-110254231D01*
X116061903Y-110397088D01*
X116014284Y-110587564D01*
X115966665Y-110682802D01*
X115871427Y-110778040D01*
X115728570Y-110825659D01*
X115490474Y-110825659D01*
X116633331Y-110254231D02*
X116538093Y-110206612D01*
X116490474Y-110158993D01*
X116442855Y-110063755D01*
X116442855Y-110016136D01*
X116490474Y-109920898D01*
X116538093Y-109873279D01*
X116633331Y-109825659D01*
X116823808Y-109825659D01*
X116919046Y-109873279D01*
X116966665Y-109920898D01*
X117014284Y-110016136D01*
X117014284Y-110063755D01*
X116966665Y-110158993D01*
X116919046Y-110206612D01*
X116823808Y-110254231D01*
X116633331Y-110254231D01*
X116538093Y-110301850D01*
X116490474Y-110349469D01*
X116442855Y-110444707D01*
X116442855Y-110635183D01*
X116490474Y-110730421D01*
X116538093Y-110778040D01*
X116633331Y-110825659D01*
X116823808Y-110825659D01*
X116919046Y-110778040D01*
X116966665Y-110730421D01*
X117014284Y-110635183D01*
X117014284Y-110444707D01*
X116966665Y-110349469D01*
X116919046Y-110301850D01*
X116823808Y-110254231D01*
G04 #@! TO.C,D9*
X113228380Y-103862095D02*
X112228380Y-103862095D01*
X112228380Y-103624000D01*
X112276000Y-103481142D01*
X112371238Y-103385904D01*
X112466476Y-103338285D01*
X112656952Y-103290666D01*
X112799809Y-103290666D01*
X112990285Y-103338285D01*
X113085523Y-103385904D01*
X113180761Y-103481142D01*
X113228380Y-103624000D01*
X113228380Y-103862095D01*
X113228380Y-102814476D02*
X113228380Y-102624000D01*
X113180761Y-102528761D01*
X113133142Y-102481142D01*
X112990285Y-102385904D01*
X112799809Y-102338285D01*
X112418857Y-102338285D01*
X112323619Y-102385904D01*
X112276000Y-102433523D01*
X112228380Y-102528761D01*
X112228380Y-102719238D01*
X112276000Y-102814476D01*
X112323619Y-102862095D01*
X112418857Y-102909714D01*
X112656952Y-102909714D01*
X112752190Y-102862095D01*
X112799809Y-102814476D01*
X112847428Y-102719238D01*
X112847428Y-102528761D01*
X112799809Y-102433523D01*
X112752190Y-102385904D01*
X112656952Y-102338285D01*
G04 #@! TO.C,D10*
X123798610Y-110854883D02*
X123798610Y-109854883D01*
X124036705Y-109854883D01*
X124179562Y-109902503D01*
X124274800Y-109997741D01*
X124322419Y-110092979D01*
X124370038Y-110283455D01*
X124370038Y-110426312D01*
X124322419Y-110616788D01*
X124274800Y-110712026D01*
X124179562Y-110807264D01*
X124036705Y-110854883D01*
X123798610Y-110854883D01*
X125322419Y-110854883D02*
X124750991Y-110854883D01*
X125036705Y-110854883D02*
X125036705Y-109854883D01*
X124941467Y-109997741D01*
X124846229Y-110092979D01*
X124750991Y-110140598D01*
X125941467Y-109854883D02*
X126036705Y-109854883D01*
X126131943Y-109902503D01*
X126179562Y-109950122D01*
X126227181Y-110045360D01*
X126274800Y-110235836D01*
X126274800Y-110473931D01*
X126227181Y-110664407D01*
X126179562Y-110759645D01*
X126131943Y-110807264D01*
X126036705Y-110854883D01*
X125941467Y-110854883D01*
X125846229Y-110807264D01*
X125798610Y-110759645D01*
X125750991Y-110664407D01*
X125703372Y-110473931D01*
X125703372Y-110235836D01*
X125750991Y-110045360D01*
X125798610Y-109950122D01*
X125846229Y-109902503D01*
X125941467Y-109854883D01*
G04 #@! TO.C,D11*
X121610380Y-104084285D02*
X120610380Y-104084285D01*
X120610380Y-103846190D01*
X120658000Y-103703333D01*
X120753238Y-103608095D01*
X120848476Y-103560476D01*
X121038952Y-103512857D01*
X121181809Y-103512857D01*
X121372285Y-103560476D01*
X121467523Y-103608095D01*
X121562761Y-103703333D01*
X121610380Y-103846190D01*
X121610380Y-104084285D01*
X121610380Y-102560476D02*
X121610380Y-103131904D01*
X121610380Y-102846190D02*
X120610380Y-102846190D01*
X120753238Y-102941428D01*
X120848476Y-103036666D01*
X120896095Y-103131904D01*
X121610380Y-101608095D02*
X121610380Y-102179523D01*
X121610380Y-101893809D02*
X120610380Y-101893809D01*
X120753238Y-101989047D01*
X120848476Y-102084285D01*
X120896095Y-102179523D01*
G04 #@! TO.C,H1*
X63238095Y-118952380D02*
X63238095Y-117952380D01*
X63238095Y-118428571D02*
X63809523Y-118428571D01*
X63809523Y-118952380D02*
X63809523Y-117952380D01*
X64809523Y-118952380D02*
X64238095Y-118952380D01*
X64523809Y-118952380D02*
X64523809Y-117952380D01*
X64428571Y-118095238D01*
X64333333Y-118190476D01*
X64238095Y-118238095D01*
G04 #@! TO.C,H2*
X184238095Y-118952380D02*
X184238095Y-117952380D01*
X184238095Y-118428571D02*
X184809523Y-118428571D01*
X184809523Y-118952380D02*
X184809523Y-117952380D01*
X185238095Y-118047619D02*
X185285714Y-118000000D01*
X185380952Y-117952380D01*
X185619047Y-117952380D01*
X185714285Y-118000000D01*
X185761904Y-118047619D01*
X185809523Y-118142857D01*
X185809523Y-118238095D01*
X185761904Y-118380952D01*
X185190476Y-118952380D01*
X185809523Y-118952380D01*
G04 #@! TO.C,J1*
X74166666Y-89512380D02*
X74166666Y-90226666D01*
X74119047Y-90369523D01*
X74023809Y-90464761D01*
X73880952Y-90512380D01*
X73785714Y-90512380D01*
X75166666Y-90512380D02*
X74595238Y-90512380D01*
X74880952Y-90512380D02*
X74880952Y-89512380D01*
X74785714Y-89655238D01*
X74690476Y-89750476D01*
X74595238Y-89798095D01*
G04 #@! TO.C,J2*
X89666666Y-93752380D02*
X89666666Y-94466666D01*
X89619047Y-94609523D01*
X89523809Y-94704761D01*
X89380952Y-94752380D01*
X89285714Y-94752380D01*
X90095238Y-93847619D02*
X90142857Y-93800000D01*
X90238095Y-93752380D01*
X90476190Y-93752380D01*
X90571428Y-93800000D01*
X90619047Y-93847619D01*
X90666666Y-93942857D01*
X90666666Y-94038095D01*
X90619047Y-94180952D01*
X90047619Y-94752380D01*
X90666666Y-94752380D01*
G04 #@! TO.C,J3*
X162480666Y-83018380D02*
X162480666Y-83732666D01*
X162433047Y-83875523D01*
X162337809Y-83970761D01*
X162194952Y-84018380D01*
X162099714Y-84018380D01*
X162861619Y-83018380D02*
X163480666Y-83018380D01*
X163147333Y-83399333D01*
X163290190Y-83399333D01*
X163385428Y-83446952D01*
X163433047Y-83494571D01*
X163480666Y-83589809D01*
X163480666Y-83827904D01*
X163433047Y-83923142D01*
X163385428Y-83970761D01*
X163290190Y-84018380D01*
X163004476Y-84018380D01*
X162909238Y-83970761D01*
X162861619Y-83923142D01*
G04 #@! TO.C,J4*
X167952380Y-84333333D02*
X168666666Y-84333333D01*
X168809523Y-84380952D01*
X168904761Y-84476190D01*
X168952380Y-84619047D01*
X168952380Y-84714285D01*
X168285714Y-83428571D02*
X168952380Y-83428571D01*
X167904761Y-83666666D02*
X168619047Y-83904761D01*
X168619047Y-83285714D01*
G04 #@! TO.C,J5*
X102166666Y-113392380D02*
X102166666Y-114106666D01*
X102119047Y-114249523D01*
X102023809Y-114344761D01*
X101880952Y-114392380D01*
X101785714Y-114392380D01*
X103119047Y-113392380D02*
X102642857Y-113392380D01*
X102595238Y-113868571D01*
X102642857Y-113820952D01*
X102738095Y-113773333D01*
X102976190Y-113773333D01*
X103071428Y-113820952D01*
X103119047Y-113868571D01*
X103166666Y-113963809D01*
X103166666Y-114201904D01*
X103119047Y-114297142D01*
X103071428Y-114344761D01*
X102976190Y-114392380D01*
X102738095Y-114392380D01*
X102642857Y-114344761D01*
X102595238Y-114297142D01*
G04 #@! TO.C,J6*
X134666666Y-86952380D02*
X134666666Y-87666666D01*
X134619047Y-87809523D01*
X134523809Y-87904761D01*
X134380952Y-87952380D01*
X134285714Y-87952380D01*
X135571428Y-86952380D02*
X135380952Y-86952380D01*
X135285714Y-87000000D01*
X135238095Y-87047619D01*
X135142857Y-87190476D01*
X135095238Y-87380952D01*
X135095238Y-87761904D01*
X135142857Y-87857142D01*
X135190476Y-87904761D01*
X135285714Y-87952380D01*
X135476190Y-87952380D01*
X135571428Y-87904761D01*
X135619047Y-87857142D01*
X135666666Y-87761904D01*
X135666666Y-87523809D01*
X135619047Y-87428571D01*
X135571428Y-87380952D01*
X135476190Y-87333333D01*
X135285714Y-87333333D01*
X135190476Y-87380952D01*
X135142857Y-87428571D01*
X135095238Y-87523809D01*
G04 #@! TO.C,J7*
X148804380Y-82121333D02*
X149518666Y-82121333D01*
X149661523Y-82168952D01*
X149756761Y-82264190D01*
X149804380Y-82407047D01*
X149804380Y-82502285D01*
X148804380Y-81740380D02*
X148804380Y-81073714D01*
X149804380Y-81502285D01*
G04 #@! TO.C,J8*
X122666666Y-86952380D02*
X122666666Y-87666666D01*
X122619047Y-87809523D01*
X122523809Y-87904761D01*
X122380952Y-87952380D01*
X122285714Y-87952380D01*
X123285714Y-87380952D02*
X123190476Y-87333333D01*
X123142857Y-87285714D01*
X123095238Y-87190476D01*
X123095238Y-87142857D01*
X123142857Y-87047619D01*
X123190476Y-87000000D01*
X123285714Y-86952380D01*
X123476190Y-86952380D01*
X123571428Y-87000000D01*
X123619047Y-87047619D01*
X123666666Y-87142857D01*
X123666666Y-87190476D01*
X123619047Y-87285714D01*
X123571428Y-87333333D01*
X123476190Y-87380952D01*
X123285714Y-87380952D01*
X123190476Y-87428571D01*
X123142857Y-87476190D01*
X123095238Y-87571428D01*
X123095238Y-87761904D01*
X123142857Y-87857142D01*
X123190476Y-87904761D01*
X123285714Y-87952380D01*
X123476190Y-87952380D01*
X123571428Y-87904761D01*
X123619047Y-87857142D01*
X123666666Y-87761904D01*
X123666666Y-87571428D01*
X123619047Y-87476190D01*
X123571428Y-87428571D01*
X123476190Y-87380952D01*
G04 #@! TO.C,JP1*
X152328666Y-86320380D02*
X152328666Y-87034666D01*
X152281047Y-87177523D01*
X152185809Y-87272761D01*
X152042952Y-87320380D01*
X151947714Y-87320380D01*
X152804857Y-87320380D02*
X152804857Y-86320380D01*
X153185809Y-86320380D01*
X153281047Y-86368000D01*
X153328666Y-86415619D01*
X153376285Y-86510857D01*
X153376285Y-86653714D01*
X153328666Y-86748952D01*
X153281047Y-86796571D01*
X153185809Y-86844190D01*
X152804857Y-86844190D01*
X154328666Y-87320380D02*
X153757238Y-87320380D01*
X154042952Y-87320380D02*
X154042952Y-86320380D01*
X153947714Y-86463238D01*
X153852476Y-86558476D01*
X153757238Y-86606095D01*
G04 #@! TO.C,JP2*
X183570666Y-96270380D02*
X183570666Y-96984666D01*
X183523047Y-97127523D01*
X183427809Y-97222761D01*
X183284952Y-97270380D01*
X183189714Y-97270380D01*
X184046857Y-97270380D02*
X184046857Y-96270380D01*
X184427809Y-96270380D01*
X184523047Y-96318000D01*
X184570666Y-96365619D01*
X184618285Y-96460857D01*
X184618285Y-96603714D01*
X184570666Y-96698952D01*
X184523047Y-96746571D01*
X184427809Y-96794190D01*
X184046857Y-96794190D01*
X184999238Y-96365619D02*
X185046857Y-96318000D01*
X185142095Y-96270380D01*
X185380190Y-96270380D01*
X185475428Y-96318000D01*
X185523047Y-96365619D01*
X185570666Y-96460857D01*
X185570666Y-96556095D01*
X185523047Y-96698952D01*
X184951619Y-97270380D01*
X185570666Y-97270380D01*
G04 #@! TO.C,L1*
X104117542Y-91077738D02*
X104117542Y-91553929D01*
X103117542Y-91553929D01*
X104117542Y-90220595D02*
X104117542Y-90792024D01*
X104117542Y-90506310D02*
X103117542Y-90506310D01*
X103260400Y-90601548D01*
X103355638Y-90696786D01*
X103403257Y-90792024D01*
G04 #@! TO.C,L2*
X168235333Y-98844380D02*
X167759142Y-98844380D01*
X167759142Y-97844380D01*
X168521047Y-97939619D02*
X168568666Y-97892000D01*
X168663904Y-97844380D01*
X168902000Y-97844380D01*
X168997238Y-97892000D01*
X169044857Y-97939619D01*
X169092476Y-98034857D01*
X169092476Y-98130095D01*
X169044857Y-98272952D01*
X168473428Y-98844380D01*
X169092476Y-98844380D01*
G04 #@! TO.C,L3*
X71715333Y-121864380D02*
X71239142Y-121864380D01*
X71239142Y-120864380D01*
X71953428Y-120864380D02*
X72572476Y-120864380D01*
X72239142Y-121245333D01*
X72382000Y-121245333D01*
X72477238Y-121292952D01*
X72524857Y-121340571D01*
X72572476Y-121435809D01*
X72572476Y-121673904D01*
X72524857Y-121769142D01*
X72477238Y-121816761D01*
X72382000Y-121864380D01*
X72096285Y-121864380D01*
X72001047Y-121816761D01*
X71953428Y-121769142D01*
G04 #@! TO.C,L4*
X175347333Y-91638380D02*
X174871142Y-91638380D01*
X174871142Y-90638380D01*
X176109238Y-90971714D02*
X176109238Y-91638380D01*
X175871142Y-90590761D02*
X175633047Y-91305047D01*
X176252095Y-91305047D01*
G04 #@! TO.C,L5*
X157567333Y-116530380D02*
X157091142Y-116530380D01*
X157091142Y-115530380D01*
X158376857Y-115530380D02*
X157900666Y-115530380D01*
X157853047Y-116006571D01*
X157900666Y-115958952D01*
X157995904Y-115911333D01*
X158234000Y-115911333D01*
X158329238Y-115958952D01*
X158376857Y-116006571D01*
X158424476Y-116101809D01*
X158424476Y-116339904D01*
X158376857Y-116435142D01*
X158329238Y-116482761D01*
X158234000Y-116530380D01*
X157995904Y-116530380D01*
X157900666Y-116482761D01*
X157853047Y-116435142D01*
G04 #@! TO.C,L6*
X133183333Y-99512380D02*
X132707142Y-99512380D01*
X132707142Y-98512380D01*
X133945238Y-98512380D02*
X133754761Y-98512380D01*
X133659523Y-98560000D01*
X133611904Y-98607619D01*
X133516666Y-98750476D01*
X133469047Y-98940952D01*
X133469047Y-99321904D01*
X133516666Y-99417142D01*
X133564285Y-99464761D01*
X133659523Y-99512380D01*
X133850000Y-99512380D01*
X133945238Y-99464761D01*
X133992857Y-99417142D01*
X134040476Y-99321904D01*
X134040476Y-99083809D01*
X133992857Y-98988571D01*
X133945238Y-98940952D01*
X133850000Y-98893333D01*
X133659523Y-98893333D01*
X133564285Y-98940952D01*
X133516666Y-98988571D01*
X133469047Y-99083809D01*
G04 #@! TO.C,L7*
X119975333Y-98496380D02*
X119499142Y-98496380D01*
X119499142Y-97496380D01*
X120213428Y-97496380D02*
X120880095Y-97496380D01*
X120451523Y-98496380D01*
G04 #@! TO.C,L8*
X109878833Y-93416380D02*
X109402642Y-93416380D01*
X109402642Y-92416380D01*
X110355023Y-92844952D02*
X110259785Y-92797333D01*
X110212166Y-92749714D01*
X110164547Y-92654476D01*
X110164547Y-92606857D01*
X110212166Y-92511619D01*
X110259785Y-92464000D01*
X110355023Y-92416380D01*
X110545500Y-92416380D01*
X110640738Y-92464000D01*
X110688357Y-92511619D01*
X110735976Y-92606857D01*
X110735976Y-92654476D01*
X110688357Y-92749714D01*
X110640738Y-92797333D01*
X110545500Y-92844952D01*
X110355023Y-92844952D01*
X110259785Y-92892571D01*
X110212166Y-92940190D01*
X110164547Y-93035428D01*
X110164547Y-93225904D01*
X110212166Y-93321142D01*
X110259785Y-93368761D01*
X110355023Y-93416380D01*
X110545500Y-93416380D01*
X110640738Y-93368761D01*
X110688357Y-93321142D01*
X110735976Y-93225904D01*
X110735976Y-93035428D01*
X110688357Y-92940190D01*
X110640738Y-92892571D01*
X110545500Y-92844952D01*
G04 #@! TO.C,R1*
X98466495Y-95935452D02*
X98133162Y-95459262D01*
X97895066Y-95935452D02*
X97895066Y-94935452D01*
X98276019Y-94935452D01*
X98371257Y-94983072D01*
X98418876Y-95030691D01*
X98466495Y-95125929D01*
X98466495Y-95268786D01*
X98418876Y-95364024D01*
X98371257Y-95411643D01*
X98276019Y-95459262D01*
X97895066Y-95459262D01*
X99418876Y-95935452D02*
X98847447Y-95935452D01*
X99133162Y-95935452D02*
X99133162Y-94935452D01*
X99037923Y-95078310D01*
X98942685Y-95173548D01*
X98847447Y-95221167D01*
G04 #@! TO.C,R2*
X98466495Y-99237452D02*
X98133162Y-98761262D01*
X97895066Y-99237452D02*
X97895066Y-98237452D01*
X98276019Y-98237452D01*
X98371257Y-98285072D01*
X98418876Y-98332691D01*
X98466495Y-98427929D01*
X98466495Y-98570786D01*
X98418876Y-98666024D01*
X98371257Y-98713643D01*
X98276019Y-98761262D01*
X97895066Y-98761262D01*
X98847447Y-98332691D02*
X98895066Y-98285072D01*
X98990304Y-98237452D01*
X99228400Y-98237452D01*
X99323638Y-98285072D01*
X99371257Y-98332691D01*
X99418876Y-98427929D01*
X99418876Y-98523167D01*
X99371257Y-98666024D01*
X98799828Y-99237452D01*
X99418876Y-99237452D01*
G04 #@! TO.C,R4*
X165441333Y-105608380D02*
X165108000Y-105132190D01*
X164869904Y-105608380D02*
X164869904Y-104608380D01*
X165250857Y-104608380D01*
X165346095Y-104656000D01*
X165393714Y-104703619D01*
X165441333Y-104798857D01*
X165441333Y-104941714D01*
X165393714Y-105036952D01*
X165346095Y-105084571D01*
X165250857Y-105132190D01*
X164869904Y-105132190D01*
X166298476Y-104941714D02*
X166298476Y-105608380D01*
X166060380Y-104560761D02*
X165822285Y-105275047D01*
X166441333Y-105275047D01*
G04 #@! TO.C,R5*
X177182380Y-107730666D02*
X176706190Y-108064000D01*
X177182380Y-108302095D02*
X176182380Y-108302095D01*
X176182380Y-107921142D01*
X176230000Y-107825904D01*
X176277619Y-107778285D01*
X176372857Y-107730666D01*
X176515714Y-107730666D01*
X176610952Y-107778285D01*
X176658571Y-107825904D01*
X176706190Y-107921142D01*
X176706190Y-108302095D01*
X176182380Y-106825904D02*
X176182380Y-107302095D01*
X176658571Y-107349714D01*
X176610952Y-107302095D01*
X176563333Y-107206857D01*
X176563333Y-106968761D01*
X176610952Y-106873523D01*
X176658571Y-106825904D01*
X176753809Y-106778285D01*
X176991904Y-106778285D01*
X177087142Y-106825904D01*
X177134761Y-106873523D01*
X177182380Y-106968761D01*
X177182380Y-107206857D01*
X177134761Y-107302095D01*
X177087142Y-107349714D01*
G04 #@! TO.C,R6*
X178760380Y-113196666D02*
X178284190Y-113530000D01*
X178760380Y-113768095D02*
X177760380Y-113768095D01*
X177760380Y-113387142D01*
X177808000Y-113291904D01*
X177855619Y-113244285D01*
X177950857Y-113196666D01*
X178093714Y-113196666D01*
X178188952Y-113244285D01*
X178236571Y-113291904D01*
X178284190Y-113387142D01*
X178284190Y-113768095D01*
X177760380Y-112339523D02*
X177760380Y-112530000D01*
X177808000Y-112625238D01*
X177855619Y-112672857D01*
X177998476Y-112768095D01*
X178188952Y-112815714D01*
X178569904Y-112815714D01*
X178665142Y-112768095D01*
X178712761Y-112720476D01*
X178760380Y-112625238D01*
X178760380Y-112434761D01*
X178712761Y-112339523D01*
X178665142Y-112291904D01*
X178569904Y-112244285D01*
X178331809Y-112244285D01*
X178236571Y-112291904D01*
X178188952Y-112339523D01*
X178141333Y-112434761D01*
X178141333Y-112625238D01*
X178188952Y-112720476D01*
X178236571Y-112768095D01*
X178331809Y-112815714D01*
G04 #@! TO.C,R7*
X175432380Y-107730666D02*
X174956190Y-108064000D01*
X175432380Y-108302095D02*
X174432380Y-108302095D01*
X174432380Y-107921142D01*
X174480000Y-107825904D01*
X174527619Y-107778285D01*
X174622857Y-107730666D01*
X174765714Y-107730666D01*
X174860952Y-107778285D01*
X174908571Y-107825904D01*
X174956190Y-107921142D01*
X174956190Y-108302095D01*
X174432380Y-107397333D02*
X174432380Y-106730666D01*
X175432380Y-107159238D01*
G04 #@! TO.C,R8*
X180538380Y-113196666D02*
X180062190Y-113530000D01*
X180538380Y-113768095D02*
X179538380Y-113768095D01*
X179538380Y-113387142D01*
X179586000Y-113291904D01*
X179633619Y-113244285D01*
X179728857Y-113196666D01*
X179871714Y-113196666D01*
X179966952Y-113244285D01*
X180014571Y-113291904D01*
X180062190Y-113387142D01*
X180062190Y-113768095D01*
X179966952Y-112625238D02*
X179919333Y-112720476D01*
X179871714Y-112768095D01*
X179776476Y-112815714D01*
X179728857Y-112815714D01*
X179633619Y-112768095D01*
X179586000Y-112720476D01*
X179538380Y-112625238D01*
X179538380Y-112434761D01*
X179586000Y-112339523D01*
X179633619Y-112291904D01*
X179728857Y-112244285D01*
X179776476Y-112244285D01*
X179871714Y-112291904D01*
X179919333Y-112339523D01*
X179966952Y-112434761D01*
X179966952Y-112625238D01*
X180014571Y-112720476D01*
X180062190Y-112768095D01*
X180157428Y-112815714D01*
X180347904Y-112815714D01*
X180443142Y-112768095D01*
X180490761Y-112720476D01*
X180538380Y-112625238D01*
X180538380Y-112434761D01*
X180490761Y-112339523D01*
X180443142Y-112291904D01*
X180347904Y-112244285D01*
X180157428Y-112244285D01*
X180062190Y-112291904D01*
X180014571Y-112339523D01*
X179966952Y-112434761D01*
G04 #@! TO.C,R9*
X181951333Y-100368380D02*
X181618000Y-99892190D01*
X181379904Y-100368380D02*
X181379904Y-99368380D01*
X181760857Y-99368380D01*
X181856095Y-99416000D01*
X181903714Y-99463619D01*
X181951333Y-99558857D01*
X181951333Y-99701714D01*
X181903714Y-99796952D01*
X181856095Y-99844571D01*
X181760857Y-99892190D01*
X181379904Y-99892190D01*
X182427523Y-100368380D02*
X182618000Y-100368380D01*
X182713238Y-100320761D01*
X182760857Y-100273142D01*
X182856095Y-100130285D01*
X182903714Y-99939809D01*
X182903714Y-99558857D01*
X182856095Y-99463619D01*
X182808476Y-99416000D01*
X182713238Y-99368380D01*
X182522761Y-99368380D01*
X182427523Y-99416000D01*
X182379904Y-99463619D01*
X182332285Y-99558857D01*
X182332285Y-99796952D01*
X182379904Y-99892190D01*
X182427523Y-99939809D01*
X182522761Y-99987428D01*
X182713238Y-99987428D01*
X182808476Y-99939809D01*
X182856095Y-99892190D01*
X182903714Y-99796952D01*
G04 #@! TO.C,R10*
X173682380Y-107706857D02*
X173206190Y-108040190D01*
X173682380Y-108278285D02*
X172682380Y-108278285D01*
X172682380Y-107897333D01*
X172730000Y-107802095D01*
X172777619Y-107754476D01*
X172872857Y-107706857D01*
X173015714Y-107706857D01*
X173110952Y-107754476D01*
X173158571Y-107802095D01*
X173206190Y-107897333D01*
X173206190Y-108278285D01*
X173682380Y-106754476D02*
X173682380Y-107325904D01*
X173682380Y-107040190D02*
X172682380Y-107040190D01*
X172825238Y-107135428D01*
X172920476Y-107230666D01*
X172968095Y-107325904D01*
X172682380Y-106135428D02*
X172682380Y-106040190D01*
X172730000Y-105944952D01*
X172777619Y-105897333D01*
X172872857Y-105849714D01*
X173063333Y-105802095D01*
X173301428Y-105802095D01*
X173491904Y-105849714D01*
X173587142Y-105897333D01*
X173634761Y-105944952D01*
X173682380Y-106040190D01*
X173682380Y-106135428D01*
X173634761Y-106230666D01*
X173587142Y-106278285D01*
X173491904Y-106325904D01*
X173301428Y-106373523D01*
X173063333Y-106373523D01*
X172872857Y-106325904D01*
X172777619Y-106278285D01*
X172730000Y-106230666D01*
X172682380Y-106135428D01*
G04 #@! TO.C,R11*
X178681142Y-97480380D02*
X178347809Y-97004190D01*
X178109714Y-97480380D02*
X178109714Y-96480380D01*
X178490666Y-96480380D01*
X178585904Y-96528000D01*
X178633523Y-96575619D01*
X178681142Y-96670857D01*
X178681142Y-96813714D01*
X178633523Y-96908952D01*
X178585904Y-96956571D01*
X178490666Y-97004190D01*
X178109714Y-97004190D01*
X179633523Y-97480380D02*
X179062095Y-97480380D01*
X179347809Y-97480380D02*
X179347809Y-96480380D01*
X179252571Y-96623238D01*
X179157333Y-96718476D01*
X179062095Y-96766095D01*
X180585904Y-97480380D02*
X180014476Y-97480380D01*
X180300190Y-97480380D02*
X180300190Y-96480380D01*
X180204952Y-96623238D01*
X180109714Y-96718476D01*
X180014476Y-96766095D01*
G04 #@! TO.C,R12*
X103576380Y-107830857D02*
X103100190Y-108164190D01*
X103576380Y-108402285D02*
X102576380Y-108402285D01*
X102576380Y-108021333D01*
X102624000Y-107926095D01*
X102671619Y-107878476D01*
X102766857Y-107830857D01*
X102909714Y-107830857D01*
X103004952Y-107878476D01*
X103052571Y-107926095D01*
X103100190Y-108021333D01*
X103100190Y-108402285D01*
X103576380Y-106878476D02*
X103576380Y-107449904D01*
X103576380Y-107164190D02*
X102576380Y-107164190D01*
X102719238Y-107259428D01*
X102814476Y-107354666D01*
X102862095Y-107449904D01*
X102671619Y-106497523D02*
X102624000Y-106449904D01*
X102576380Y-106354666D01*
X102576380Y-106116571D01*
X102624000Y-106021333D01*
X102671619Y-105973714D01*
X102766857Y-105926095D01*
X102862095Y-105926095D01*
X103004952Y-105973714D01*
X103576380Y-106545142D01*
X103576380Y-105926095D01*
X103846380Y-108426095D02*
X103846380Y-108330857D01*
X103894000Y-108235619D01*
X103941619Y-108188000D01*
X104036857Y-108140380D01*
X104227333Y-108092761D01*
X104465428Y-108092761D01*
X104655904Y-108140380D01*
X104751142Y-108188000D01*
X104798761Y-108235619D01*
X104846380Y-108330857D01*
X104846380Y-108426095D01*
X104798761Y-108521333D01*
X104751142Y-108568952D01*
X104655904Y-108616571D01*
X104465428Y-108664190D01*
X104227333Y-108664190D01*
X104036857Y-108616571D01*
X103941619Y-108568952D01*
X103894000Y-108521333D01*
X103846380Y-108426095D01*
X104751142Y-107664190D02*
X104798761Y-107616571D01*
X104846380Y-107664190D01*
X104798761Y-107711809D01*
X104751142Y-107664190D01*
X104846380Y-107664190D01*
X103846380Y-106997523D02*
X103846380Y-106902285D01*
X103894000Y-106807047D01*
X103941619Y-106759428D01*
X104036857Y-106711809D01*
X104227333Y-106664190D01*
X104465428Y-106664190D01*
X104655904Y-106711809D01*
X104751142Y-106759428D01*
X104798761Y-106807047D01*
X104846380Y-106902285D01*
X104846380Y-106997523D01*
X104798761Y-107092761D01*
X104751142Y-107140380D01*
X104655904Y-107188000D01*
X104465428Y-107235619D01*
X104227333Y-107235619D01*
X104036857Y-107188000D01*
X103941619Y-107140380D01*
X103894000Y-107092761D01*
X103846380Y-106997523D01*
X103846380Y-105759428D02*
X103846380Y-106235619D01*
X104322571Y-106283238D01*
X104274952Y-106235619D01*
X104227333Y-106140380D01*
X104227333Y-105902285D01*
X104274952Y-105807047D01*
X104322571Y-105759428D01*
X104417809Y-105711809D01*
X104655904Y-105711809D01*
X104751142Y-105759428D01*
X104798761Y-105807047D01*
X104846380Y-105902285D01*
X104846380Y-106140380D01*
X104798761Y-106235619D01*
X104751142Y-106283238D01*
G04 #@! TO.C,R13*
X184523142Y-103830380D02*
X184189809Y-103354190D01*
X183951714Y-103830380D02*
X183951714Y-102830380D01*
X184332666Y-102830380D01*
X184427904Y-102878000D01*
X184475523Y-102925619D01*
X184523142Y-103020857D01*
X184523142Y-103163714D01*
X184475523Y-103258952D01*
X184427904Y-103306571D01*
X184332666Y-103354190D01*
X183951714Y-103354190D01*
X185475523Y-103830380D02*
X184904095Y-103830380D01*
X185189809Y-103830380D02*
X185189809Y-102830380D01*
X185094571Y-102973238D01*
X184999333Y-103068476D01*
X184904095Y-103116095D01*
X185808857Y-102830380D02*
X186427904Y-102830380D01*
X186094571Y-103211333D01*
X186237428Y-103211333D01*
X186332666Y-103258952D01*
X186380285Y-103306571D01*
X186427904Y-103401809D01*
X186427904Y-103639904D01*
X186380285Y-103735142D01*
X186332666Y-103782761D01*
X186237428Y-103830380D01*
X185951714Y-103830380D01*
X185856476Y-103782761D01*
X185808857Y-103735142D01*
G04 #@! TO.C,R14*
X67508380Y-106052857D02*
X67032190Y-106386190D01*
X67508380Y-106624285D02*
X66508380Y-106624285D01*
X66508380Y-106243333D01*
X66556000Y-106148095D01*
X66603619Y-106100476D01*
X66698857Y-106052857D01*
X66841714Y-106052857D01*
X66936952Y-106100476D01*
X66984571Y-106148095D01*
X67032190Y-106243333D01*
X67032190Y-106624285D01*
X67508380Y-105100476D02*
X67508380Y-105671904D01*
X67508380Y-105386190D02*
X66508380Y-105386190D01*
X66651238Y-105481428D01*
X66746476Y-105576666D01*
X66794095Y-105671904D01*
X66841714Y-104243333D02*
X67508380Y-104243333D01*
X66460761Y-104481428D02*
X67175047Y-104719523D01*
X67175047Y-104100476D01*
G04 #@! TO.C,R15*
X182182380Y-114180857D02*
X181706190Y-114514190D01*
X182182380Y-114752285D02*
X181182380Y-114752285D01*
X181182380Y-114371333D01*
X181230000Y-114276095D01*
X181277619Y-114228476D01*
X181372857Y-114180857D01*
X181515714Y-114180857D01*
X181610952Y-114228476D01*
X181658571Y-114276095D01*
X181706190Y-114371333D01*
X181706190Y-114752285D01*
X182182380Y-113228476D02*
X182182380Y-113799904D01*
X182182380Y-113514190D02*
X181182380Y-113514190D01*
X181325238Y-113609428D01*
X181420476Y-113704666D01*
X181468095Y-113799904D01*
X181182380Y-112323714D02*
X181182380Y-112799904D01*
X181658571Y-112847523D01*
X181610952Y-112799904D01*
X181563333Y-112704666D01*
X181563333Y-112466571D01*
X181610952Y-112371333D01*
X181658571Y-112323714D01*
X181753809Y-112276095D01*
X181991904Y-112276095D01*
X182087142Y-112323714D01*
X182134761Y-112371333D01*
X182182380Y-112466571D01*
X182182380Y-112704666D01*
X182134761Y-112799904D01*
X182087142Y-112847523D01*
G04 #@! TO.C,R16*
X68953142Y-108496380D02*
X68619809Y-108020190D01*
X68381714Y-108496380D02*
X68381714Y-107496380D01*
X68762666Y-107496380D01*
X68857904Y-107544000D01*
X68905523Y-107591619D01*
X68953142Y-107686857D01*
X68953142Y-107829714D01*
X68905523Y-107924952D01*
X68857904Y-107972571D01*
X68762666Y-108020190D01*
X68381714Y-108020190D01*
X69905523Y-108496380D02*
X69334095Y-108496380D01*
X69619809Y-108496380D02*
X69619809Y-107496380D01*
X69524571Y-107639238D01*
X69429333Y-107734476D01*
X69334095Y-107782095D01*
X70762666Y-107496380D02*
X70572190Y-107496380D01*
X70476952Y-107544000D01*
X70429333Y-107591619D01*
X70334095Y-107734476D01*
X70286476Y-107924952D01*
X70286476Y-108305904D01*
X70334095Y-108401142D01*
X70381714Y-108448761D01*
X70476952Y-108496380D01*
X70667428Y-108496380D01*
X70762666Y-108448761D01*
X70810285Y-108401142D01*
X70857904Y-108305904D01*
X70857904Y-108067809D01*
X70810285Y-107972571D01*
X70762666Y-107924952D01*
X70667428Y-107877333D01*
X70476952Y-107877333D01*
X70381714Y-107924952D01*
X70334095Y-107972571D01*
X70286476Y-108067809D01*
G04 #@! TO.C,R17*
X65984380Y-105798857D02*
X65508190Y-106132190D01*
X65984380Y-106370285D02*
X64984380Y-106370285D01*
X64984380Y-105989333D01*
X65032000Y-105894095D01*
X65079619Y-105846476D01*
X65174857Y-105798857D01*
X65317714Y-105798857D01*
X65412952Y-105846476D01*
X65460571Y-105894095D01*
X65508190Y-105989333D01*
X65508190Y-106370285D01*
X65984380Y-104846476D02*
X65984380Y-105417904D01*
X65984380Y-105132190D02*
X64984380Y-105132190D01*
X65127238Y-105227428D01*
X65222476Y-105322666D01*
X65270095Y-105417904D01*
X64984380Y-104513142D02*
X64984380Y-103846476D01*
X65984380Y-104275047D01*
G04 #@! TO.C,R18*
X161917142Y-91892380D02*
X161583809Y-91416190D01*
X161345714Y-91892380D02*
X161345714Y-90892380D01*
X161726666Y-90892380D01*
X161821904Y-90940000D01*
X161869523Y-90987619D01*
X161917142Y-91082857D01*
X161917142Y-91225714D01*
X161869523Y-91320952D01*
X161821904Y-91368571D01*
X161726666Y-91416190D01*
X161345714Y-91416190D01*
X162869523Y-91892380D02*
X162298095Y-91892380D01*
X162583809Y-91892380D02*
X162583809Y-90892380D01*
X162488571Y-91035238D01*
X162393333Y-91130476D01*
X162298095Y-91178095D01*
X163440952Y-91320952D02*
X163345714Y-91273333D01*
X163298095Y-91225714D01*
X163250476Y-91130476D01*
X163250476Y-91082857D01*
X163298095Y-90987619D01*
X163345714Y-90940000D01*
X163440952Y-90892380D01*
X163631428Y-90892380D01*
X163726666Y-90940000D01*
X163774285Y-90987619D01*
X163821904Y-91082857D01*
X163821904Y-91130476D01*
X163774285Y-91225714D01*
X163726666Y-91273333D01*
X163631428Y-91320952D01*
X163440952Y-91320952D01*
X163345714Y-91368571D01*
X163298095Y-91416190D01*
X163250476Y-91511428D01*
X163250476Y-91701904D01*
X163298095Y-91797142D01*
X163345714Y-91844761D01*
X163440952Y-91892380D01*
X163631428Y-91892380D01*
X163726666Y-91844761D01*
X163774285Y-91797142D01*
X163821904Y-91701904D01*
X163821904Y-91511428D01*
X163774285Y-91416190D01*
X163726666Y-91368571D01*
X163631428Y-91320952D01*
G04 #@! TO.C,R19*
X161917142Y-93670380D02*
X161583809Y-93194190D01*
X161345714Y-93670380D02*
X161345714Y-92670380D01*
X161726666Y-92670380D01*
X161821904Y-92718000D01*
X161869523Y-92765619D01*
X161917142Y-92860857D01*
X161917142Y-93003714D01*
X161869523Y-93098952D01*
X161821904Y-93146571D01*
X161726666Y-93194190D01*
X161345714Y-93194190D01*
X162869523Y-93670380D02*
X162298095Y-93670380D01*
X162583809Y-93670380D02*
X162583809Y-92670380D01*
X162488571Y-92813238D01*
X162393333Y-92908476D01*
X162298095Y-92956095D01*
X163345714Y-93670380D02*
X163536190Y-93670380D01*
X163631428Y-93622761D01*
X163679047Y-93575142D01*
X163774285Y-93432285D01*
X163821904Y-93241809D01*
X163821904Y-92860857D01*
X163774285Y-92765619D01*
X163726666Y-92718000D01*
X163631428Y-92670380D01*
X163440952Y-92670380D01*
X163345714Y-92718000D01*
X163298095Y-92765619D01*
X163250476Y-92860857D01*
X163250476Y-93098952D01*
X163298095Y-93194190D01*
X163345714Y-93241809D01*
X163440952Y-93289428D01*
X163631428Y-93289428D01*
X163726666Y-93241809D01*
X163774285Y-93194190D01*
X163821904Y-93098952D01*
G04 #@! TO.C,R20*
X170553142Y-94940380D02*
X170219809Y-94464190D01*
X169981714Y-94940380D02*
X169981714Y-93940380D01*
X170362666Y-93940380D01*
X170457904Y-93988000D01*
X170505523Y-94035619D01*
X170553142Y-94130857D01*
X170553142Y-94273714D01*
X170505523Y-94368952D01*
X170457904Y-94416571D01*
X170362666Y-94464190D01*
X169981714Y-94464190D01*
X170934095Y-94035619D02*
X170981714Y-93988000D01*
X171076952Y-93940380D01*
X171315047Y-93940380D01*
X171410285Y-93988000D01*
X171457904Y-94035619D01*
X171505523Y-94130857D01*
X171505523Y-94226095D01*
X171457904Y-94368952D01*
X170886476Y-94940380D01*
X171505523Y-94940380D01*
X172124571Y-93940380D02*
X172219809Y-93940380D01*
X172315047Y-93988000D01*
X172362666Y-94035619D01*
X172410285Y-94130857D01*
X172457904Y-94321333D01*
X172457904Y-94559428D01*
X172410285Y-94749904D01*
X172362666Y-94845142D01*
X172315047Y-94892761D01*
X172219809Y-94940380D01*
X172124571Y-94940380D01*
X172029333Y-94892761D01*
X171981714Y-94845142D01*
X171934095Y-94749904D01*
X171886476Y-94559428D01*
X171886476Y-94321333D01*
X171934095Y-94130857D01*
X171981714Y-94035619D01*
X172029333Y-93988000D01*
X172124571Y-93940380D01*
G04 #@! TO.C,R21*
X170553142Y-96718380D02*
X170219809Y-96242190D01*
X169981714Y-96718380D02*
X169981714Y-95718380D01*
X170362666Y-95718380D01*
X170457904Y-95766000D01*
X170505523Y-95813619D01*
X170553142Y-95908857D01*
X170553142Y-96051714D01*
X170505523Y-96146952D01*
X170457904Y-96194571D01*
X170362666Y-96242190D01*
X169981714Y-96242190D01*
X170934095Y-95813619D02*
X170981714Y-95766000D01*
X171076952Y-95718380D01*
X171315047Y-95718380D01*
X171410285Y-95766000D01*
X171457904Y-95813619D01*
X171505523Y-95908857D01*
X171505523Y-96004095D01*
X171457904Y-96146952D01*
X170886476Y-96718380D01*
X171505523Y-96718380D01*
X172457904Y-96718380D02*
X171886476Y-96718380D01*
X172172190Y-96718380D02*
X172172190Y-95718380D01*
X172076952Y-95861238D01*
X171981714Y-95956476D01*
X171886476Y-96004095D01*
G04 #@! TO.C,R22*
X151551653Y-120974444D02*
X151218320Y-120498254D01*
X150980225Y-120974444D02*
X150980225Y-119974444D01*
X151361177Y-119974444D01*
X151456415Y-120022064D01*
X151504034Y-120069683D01*
X151551653Y-120164921D01*
X151551653Y-120307778D01*
X151504034Y-120403016D01*
X151456415Y-120450635D01*
X151361177Y-120498254D01*
X150980225Y-120498254D01*
X151932606Y-120069683D02*
X151980225Y-120022064D01*
X152075463Y-119974444D01*
X152313558Y-119974444D01*
X152408796Y-120022064D01*
X152456415Y-120069683D01*
X152504034Y-120164921D01*
X152504034Y-120260159D01*
X152456415Y-120403016D01*
X151884987Y-120974444D01*
X152504034Y-120974444D01*
X152884987Y-120069683D02*
X152932606Y-120022064D01*
X153027844Y-119974444D01*
X153265939Y-119974444D01*
X153361177Y-120022064D01*
X153408796Y-120069683D01*
X153456415Y-120164921D01*
X153456415Y-120260159D01*
X153408796Y-120403016D01*
X152837368Y-120974444D01*
X153456415Y-120974444D01*
G04 #@! TO.C,R23*
X137533142Y-94780380D02*
X137199809Y-94304190D01*
X136961714Y-94780380D02*
X136961714Y-93780380D01*
X137342666Y-93780380D01*
X137437904Y-93828000D01*
X137485523Y-93875619D01*
X137533142Y-93970857D01*
X137533142Y-94113714D01*
X137485523Y-94208952D01*
X137437904Y-94256571D01*
X137342666Y-94304190D01*
X136961714Y-94304190D01*
X137914095Y-93875619D02*
X137961714Y-93828000D01*
X138056952Y-93780380D01*
X138295047Y-93780380D01*
X138390285Y-93828000D01*
X138437904Y-93875619D01*
X138485523Y-93970857D01*
X138485523Y-94066095D01*
X138437904Y-94208952D01*
X137866476Y-94780380D01*
X138485523Y-94780380D01*
X138818857Y-93780380D02*
X139437904Y-93780380D01*
X139104571Y-94161333D01*
X139247428Y-94161333D01*
X139342666Y-94208952D01*
X139390285Y-94256571D01*
X139437904Y-94351809D01*
X139437904Y-94589904D01*
X139390285Y-94685142D01*
X139342666Y-94732761D01*
X139247428Y-94780380D01*
X138961714Y-94780380D01*
X138866476Y-94732761D01*
X138818857Y-94685142D01*
G04 #@! TO.C,R24*
X148120380Y-114180857D02*
X147644190Y-114514190D01*
X148120380Y-114752285D02*
X147120380Y-114752285D01*
X147120380Y-114371333D01*
X147168000Y-114276095D01*
X147215619Y-114228476D01*
X147310857Y-114180857D01*
X147453714Y-114180857D01*
X147548952Y-114228476D01*
X147596571Y-114276095D01*
X147644190Y-114371333D01*
X147644190Y-114752285D01*
X147215619Y-113799904D02*
X147168000Y-113752285D01*
X147120380Y-113657047D01*
X147120380Y-113418952D01*
X147168000Y-113323714D01*
X147215619Y-113276095D01*
X147310857Y-113228476D01*
X147406095Y-113228476D01*
X147548952Y-113276095D01*
X148120380Y-113847523D01*
X148120380Y-113228476D01*
X147453714Y-112371333D02*
X148120380Y-112371333D01*
X147072761Y-112609428D02*
X147787047Y-112847523D01*
X147787047Y-112228476D01*
G04 #@! TO.C,R25*
X143962380Y-100718857D02*
X143486190Y-101052190D01*
X143962380Y-101290285D02*
X142962380Y-101290285D01*
X142962380Y-100909333D01*
X143010000Y-100814095D01*
X143057619Y-100766476D01*
X143152857Y-100718857D01*
X143295714Y-100718857D01*
X143390952Y-100766476D01*
X143438571Y-100814095D01*
X143486190Y-100909333D01*
X143486190Y-101290285D01*
X143057619Y-100337904D02*
X143010000Y-100290285D01*
X142962380Y-100195047D01*
X142962380Y-99956952D01*
X143010000Y-99861714D01*
X143057619Y-99814095D01*
X143152857Y-99766476D01*
X143248095Y-99766476D01*
X143390952Y-99814095D01*
X143962380Y-100385523D01*
X143962380Y-99766476D01*
X142962380Y-98861714D02*
X142962380Y-99337904D01*
X143438571Y-99385523D01*
X143390952Y-99337904D01*
X143343333Y-99242666D01*
X143343333Y-99004571D01*
X143390952Y-98909333D01*
X143438571Y-98861714D01*
X143533809Y-98814095D01*
X143771904Y-98814095D01*
X143867142Y-98861714D01*
X143914761Y-98909333D01*
X143962380Y-99004571D01*
X143962380Y-99242666D01*
X143914761Y-99337904D01*
X143867142Y-99385523D01*
G04 #@! TO.C,R26*
X147995653Y-120974444D02*
X147662320Y-120498254D01*
X147424225Y-120974444D02*
X147424225Y-119974444D01*
X147805177Y-119974444D01*
X147900415Y-120022064D01*
X147948034Y-120069683D01*
X147995653Y-120164921D01*
X147995653Y-120307778D01*
X147948034Y-120403016D01*
X147900415Y-120450635D01*
X147805177Y-120498254D01*
X147424225Y-120498254D01*
X148376606Y-120069683D02*
X148424225Y-120022064D01*
X148519463Y-119974444D01*
X148757558Y-119974444D01*
X148852796Y-120022064D01*
X148900415Y-120069683D01*
X148948034Y-120164921D01*
X148948034Y-120260159D01*
X148900415Y-120403016D01*
X148328987Y-120974444D01*
X148948034Y-120974444D01*
X149805177Y-119974444D02*
X149614701Y-119974444D01*
X149519463Y-120022064D01*
X149471844Y-120069683D01*
X149376606Y-120212540D01*
X149328987Y-120403016D01*
X149328987Y-120783968D01*
X149376606Y-120879206D01*
X149424225Y-120926825D01*
X149519463Y-120974444D01*
X149709939Y-120974444D01*
X149805177Y-120926825D01*
X149852796Y-120879206D01*
X149900415Y-120783968D01*
X149900415Y-120545873D01*
X149852796Y-120450635D01*
X149805177Y-120403016D01*
X149709939Y-120355397D01*
X149519463Y-120355397D01*
X149424225Y-120403016D01*
X149376606Y-120450635D01*
X149328987Y-120545873D01*
G04 #@! TO.C,R27*
X145407142Y-96464380D02*
X145073809Y-95988190D01*
X144835714Y-96464380D02*
X144835714Y-95464380D01*
X145216666Y-95464380D01*
X145311904Y-95512000D01*
X145359523Y-95559619D01*
X145407142Y-95654857D01*
X145407142Y-95797714D01*
X145359523Y-95892952D01*
X145311904Y-95940571D01*
X145216666Y-95988190D01*
X144835714Y-95988190D01*
X145788095Y-95559619D02*
X145835714Y-95512000D01*
X145930952Y-95464380D01*
X146169047Y-95464380D01*
X146264285Y-95512000D01*
X146311904Y-95559619D01*
X146359523Y-95654857D01*
X146359523Y-95750095D01*
X146311904Y-95892952D01*
X145740476Y-96464380D01*
X146359523Y-96464380D01*
X146692857Y-95464380D02*
X147359523Y-95464380D01*
X146930952Y-96464380D01*
G04 #@! TO.C,R28*
X145392380Y-86494857D02*
X144916190Y-86828190D01*
X145392380Y-87066285D02*
X144392380Y-87066285D01*
X144392380Y-86685333D01*
X144440000Y-86590095D01*
X144487619Y-86542476D01*
X144582857Y-86494857D01*
X144725714Y-86494857D01*
X144820952Y-86542476D01*
X144868571Y-86590095D01*
X144916190Y-86685333D01*
X144916190Y-87066285D01*
X144487619Y-86113904D02*
X144440000Y-86066285D01*
X144392380Y-85971047D01*
X144392380Y-85732952D01*
X144440000Y-85637714D01*
X144487619Y-85590095D01*
X144582857Y-85542476D01*
X144678095Y-85542476D01*
X144820952Y-85590095D01*
X145392380Y-86161523D01*
X145392380Y-85542476D01*
X144820952Y-84971047D02*
X144773333Y-85066285D01*
X144725714Y-85113904D01*
X144630476Y-85161523D01*
X144582857Y-85161523D01*
X144487619Y-85113904D01*
X144440000Y-85066285D01*
X144392380Y-84971047D01*
X144392380Y-84780571D01*
X144440000Y-84685333D01*
X144487619Y-84637714D01*
X144582857Y-84590095D01*
X144630476Y-84590095D01*
X144725714Y-84637714D01*
X144773333Y-84685333D01*
X144820952Y-84780571D01*
X144820952Y-84971047D01*
X144868571Y-85066285D01*
X144916190Y-85113904D01*
X145011428Y-85161523D01*
X145201904Y-85161523D01*
X145297142Y-85113904D01*
X145344761Y-85066285D01*
X145392380Y-84971047D01*
X145392380Y-84780571D01*
X145344761Y-84685333D01*
X145297142Y-84637714D01*
X145201904Y-84590095D01*
X145011428Y-84590095D01*
X144916190Y-84637714D01*
X144868571Y-84685333D01*
X144820952Y-84780571D01*
G04 #@! TO.C,R29*
X145486380Y-90050857D02*
X145010190Y-90384190D01*
X145486380Y-90622285D02*
X144486380Y-90622285D01*
X144486380Y-90241333D01*
X144534000Y-90146095D01*
X144581619Y-90098476D01*
X144676857Y-90050857D01*
X144819714Y-90050857D01*
X144914952Y-90098476D01*
X144962571Y-90146095D01*
X145010190Y-90241333D01*
X145010190Y-90622285D01*
X144581619Y-89669904D02*
X144534000Y-89622285D01*
X144486380Y-89527047D01*
X144486380Y-89288952D01*
X144534000Y-89193714D01*
X144581619Y-89146095D01*
X144676857Y-89098476D01*
X144772095Y-89098476D01*
X144914952Y-89146095D01*
X145486380Y-89717523D01*
X145486380Y-89098476D01*
X145486380Y-88622285D02*
X145486380Y-88431809D01*
X145438761Y-88336571D01*
X145391142Y-88288952D01*
X145248285Y-88193714D01*
X145057809Y-88146095D01*
X144676857Y-88146095D01*
X144581619Y-88193714D01*
X144534000Y-88241333D01*
X144486380Y-88336571D01*
X144486380Y-88527047D01*
X144534000Y-88622285D01*
X144581619Y-88669904D01*
X144676857Y-88717523D01*
X144914952Y-88717523D01*
X145010190Y-88669904D01*
X145057809Y-88622285D01*
X145105428Y-88527047D01*
X145105428Y-88336571D01*
X145057809Y-88241333D01*
X145010190Y-88193714D01*
X144914952Y-88146095D01*
G04 #@! TO.C,R30*
X140660380Y-86748857D02*
X140184190Y-87082190D01*
X140660380Y-87320285D02*
X139660380Y-87320285D01*
X139660380Y-86939333D01*
X139708000Y-86844095D01*
X139755619Y-86796476D01*
X139850857Y-86748857D01*
X139993714Y-86748857D01*
X140088952Y-86796476D01*
X140136571Y-86844095D01*
X140184190Y-86939333D01*
X140184190Y-87320285D01*
X139660380Y-86415523D02*
X139660380Y-85796476D01*
X140041333Y-86129809D01*
X140041333Y-85986952D01*
X140088952Y-85891714D01*
X140136571Y-85844095D01*
X140231809Y-85796476D01*
X140469904Y-85796476D01*
X140565142Y-85844095D01*
X140612761Y-85891714D01*
X140660380Y-85986952D01*
X140660380Y-86272666D01*
X140612761Y-86367904D01*
X140565142Y-86415523D01*
X139660380Y-85177428D02*
X139660380Y-85082190D01*
X139708000Y-84986952D01*
X139755619Y-84939333D01*
X139850857Y-84891714D01*
X140041333Y-84844095D01*
X140279428Y-84844095D01*
X140469904Y-84891714D01*
X140565142Y-84939333D01*
X140612761Y-84986952D01*
X140660380Y-85082190D01*
X140660380Y-85177428D01*
X140612761Y-85272666D01*
X140565142Y-85320285D01*
X140469904Y-85367904D01*
X140279428Y-85415523D01*
X140041333Y-85415523D01*
X139850857Y-85367904D01*
X139755619Y-85320285D01*
X139708000Y-85272666D01*
X139660380Y-85177428D01*
G04 #@! TO.C,R31*
X140660380Y-89796857D02*
X140184190Y-90130190D01*
X140660380Y-90368285D02*
X139660380Y-90368285D01*
X139660380Y-89987333D01*
X139708000Y-89892095D01*
X139755619Y-89844476D01*
X139850857Y-89796857D01*
X139993714Y-89796857D01*
X140088952Y-89844476D01*
X140136571Y-89892095D01*
X140184190Y-89987333D01*
X140184190Y-90368285D01*
X139660380Y-89463523D02*
X139660380Y-88844476D01*
X140041333Y-89177809D01*
X140041333Y-89034952D01*
X140088952Y-88939714D01*
X140136571Y-88892095D01*
X140231809Y-88844476D01*
X140469904Y-88844476D01*
X140565142Y-88892095D01*
X140612761Y-88939714D01*
X140660380Y-89034952D01*
X140660380Y-89320666D01*
X140612761Y-89415904D01*
X140565142Y-89463523D01*
X140660380Y-87892095D02*
X140660380Y-88463523D01*
X140660380Y-88177809D02*
X139660380Y-88177809D01*
X139803238Y-88273047D01*
X139898476Y-88368285D01*
X139946095Y-88463523D01*
G04 #@! TO.C,R32*
X126611142Y-93416380D02*
X126277809Y-92940190D01*
X126039714Y-93416380D02*
X126039714Y-92416380D01*
X126420666Y-92416380D01*
X126515904Y-92464000D01*
X126563523Y-92511619D01*
X126611142Y-92606857D01*
X126611142Y-92749714D01*
X126563523Y-92844952D01*
X126515904Y-92892571D01*
X126420666Y-92940190D01*
X126039714Y-92940190D01*
X126944476Y-92416380D02*
X127563523Y-92416380D01*
X127230190Y-92797333D01*
X127373047Y-92797333D01*
X127468285Y-92844952D01*
X127515904Y-92892571D01*
X127563523Y-92987809D01*
X127563523Y-93225904D01*
X127515904Y-93321142D01*
X127468285Y-93368761D01*
X127373047Y-93416380D01*
X127087333Y-93416380D01*
X126992095Y-93368761D01*
X126944476Y-93321142D01*
X127944476Y-92511619D02*
X127992095Y-92464000D01*
X128087333Y-92416380D01*
X128325428Y-92416380D01*
X128420666Y-92464000D01*
X128468285Y-92511619D01*
X128515904Y-92606857D01*
X128515904Y-92702095D01*
X128468285Y-92844952D01*
X127896857Y-93416380D01*
X128515904Y-93416380D01*
G04 #@! TO.C,R33*
X113657142Y-88971380D02*
X113323809Y-88495190D01*
X113085714Y-88971380D02*
X113085714Y-87971380D01*
X113466666Y-87971380D01*
X113561904Y-88019000D01*
X113609523Y-88066619D01*
X113657142Y-88161857D01*
X113657142Y-88304714D01*
X113609523Y-88399952D01*
X113561904Y-88447571D01*
X113466666Y-88495190D01*
X113085714Y-88495190D01*
X113990476Y-87971380D02*
X114609523Y-87971380D01*
X114276190Y-88352333D01*
X114419047Y-88352333D01*
X114514285Y-88399952D01*
X114561904Y-88447571D01*
X114609523Y-88542809D01*
X114609523Y-88780904D01*
X114561904Y-88876142D01*
X114514285Y-88923761D01*
X114419047Y-88971380D01*
X114133333Y-88971380D01*
X114038095Y-88923761D01*
X113990476Y-88876142D01*
X114942857Y-87971380D02*
X115561904Y-87971380D01*
X115228571Y-88352333D01*
X115371428Y-88352333D01*
X115466666Y-88399952D01*
X115514285Y-88447571D01*
X115561904Y-88542809D01*
X115561904Y-88780904D01*
X115514285Y-88876142D01*
X115466666Y-88923761D01*
X115371428Y-88971380D01*
X115085714Y-88971380D01*
X114990476Y-88923761D01*
X114942857Y-88876142D01*
G04 #@! TO.C,R34*
X118389142Y-95575380D02*
X118055809Y-95099190D01*
X117817714Y-95575380D02*
X117817714Y-94575380D01*
X118198666Y-94575380D01*
X118293904Y-94623000D01*
X118341523Y-94670619D01*
X118389142Y-94765857D01*
X118389142Y-94908714D01*
X118341523Y-95003952D01*
X118293904Y-95051571D01*
X118198666Y-95099190D01*
X117817714Y-95099190D01*
X118722476Y-94575380D02*
X119341523Y-94575380D01*
X119008190Y-94956333D01*
X119151047Y-94956333D01*
X119246285Y-95003952D01*
X119293904Y-95051571D01*
X119341523Y-95146809D01*
X119341523Y-95384904D01*
X119293904Y-95480142D01*
X119246285Y-95527761D01*
X119151047Y-95575380D01*
X118865333Y-95575380D01*
X118770095Y-95527761D01*
X118722476Y-95480142D01*
X120198666Y-94908714D02*
X120198666Y-95575380D01*
X119960571Y-94527761D02*
X119722476Y-95242047D01*
X120341523Y-95242047D01*
G04 #@! TO.C,R35*
X129644380Y-97924857D02*
X129168190Y-98258190D01*
X129644380Y-98496285D02*
X128644380Y-98496285D01*
X128644380Y-98115333D01*
X128692000Y-98020095D01*
X128739619Y-97972476D01*
X128834857Y-97924857D01*
X128977714Y-97924857D01*
X129072952Y-97972476D01*
X129120571Y-98020095D01*
X129168190Y-98115333D01*
X129168190Y-98496285D01*
X128644380Y-97591523D02*
X128644380Y-96972476D01*
X129025333Y-97305809D01*
X129025333Y-97162952D01*
X129072952Y-97067714D01*
X129120571Y-97020095D01*
X129215809Y-96972476D01*
X129453904Y-96972476D01*
X129549142Y-97020095D01*
X129596761Y-97067714D01*
X129644380Y-97162952D01*
X129644380Y-97448666D01*
X129596761Y-97543904D01*
X129549142Y-97591523D01*
X128644380Y-96067714D02*
X128644380Y-96543904D01*
X129120571Y-96591523D01*
X129072952Y-96543904D01*
X129025333Y-96448666D01*
X129025333Y-96210571D01*
X129072952Y-96115333D01*
X129120571Y-96067714D01*
X129215809Y-96020095D01*
X129453904Y-96020095D01*
X129549142Y-96067714D01*
X129596761Y-96115333D01*
X129644380Y-96210571D01*
X129644380Y-96448666D01*
X129596761Y-96543904D01*
X129549142Y-96591523D01*
G04 #@! TO.C,R36*
X121008380Y-93352857D02*
X120532190Y-93686190D01*
X121008380Y-93924285D02*
X120008380Y-93924285D01*
X120008380Y-93543333D01*
X120056000Y-93448095D01*
X120103619Y-93400476D01*
X120198857Y-93352857D01*
X120341714Y-93352857D01*
X120436952Y-93400476D01*
X120484571Y-93448095D01*
X120532190Y-93543333D01*
X120532190Y-93924285D01*
X120008380Y-93019523D02*
X120008380Y-92400476D01*
X120389333Y-92733809D01*
X120389333Y-92590952D01*
X120436952Y-92495714D01*
X120484571Y-92448095D01*
X120579809Y-92400476D01*
X120817904Y-92400476D01*
X120913142Y-92448095D01*
X120960761Y-92495714D01*
X121008380Y-92590952D01*
X121008380Y-92876666D01*
X120960761Y-92971904D01*
X120913142Y-93019523D01*
X120008380Y-91543333D02*
X120008380Y-91733809D01*
X120056000Y-91829047D01*
X120103619Y-91876666D01*
X120246476Y-91971904D01*
X120436952Y-92019523D01*
X120817904Y-92019523D01*
X120913142Y-91971904D01*
X120960761Y-91924285D01*
X121008380Y-91829047D01*
X121008380Y-91638571D01*
X120960761Y-91543333D01*
X120913142Y-91495714D01*
X120817904Y-91448095D01*
X120579809Y-91448095D01*
X120484571Y-91495714D01*
X120436952Y-91543333D01*
X120389333Y-91638571D01*
X120389333Y-91829047D01*
X120436952Y-91924285D01*
X120484571Y-91971904D01*
X120579809Y-92019523D01*
G04 #@! TO.C,SW1*
X100666666Y-87404761D02*
X100809523Y-87452380D01*
X101047619Y-87452380D01*
X101142857Y-87404761D01*
X101190476Y-87357142D01*
X101238095Y-87261904D01*
X101238095Y-87166666D01*
X101190476Y-87071428D01*
X101142857Y-87023809D01*
X101047619Y-86976190D01*
X100857142Y-86928571D01*
X100761904Y-86880952D01*
X100714285Y-86833333D01*
X100666666Y-86738095D01*
X100666666Y-86642857D01*
X100714285Y-86547619D01*
X100761904Y-86500000D01*
X100857142Y-86452380D01*
X101095238Y-86452380D01*
X101238095Y-86500000D01*
X101571428Y-86452380D02*
X101809523Y-87452380D01*
X102000000Y-86738095D01*
X102190476Y-87452380D01*
X102428571Y-86452380D01*
X103333333Y-87452380D02*
X102761904Y-87452380D01*
X103047619Y-87452380D02*
X103047619Y-86452380D01*
X102952380Y-86595238D01*
X102857142Y-86690476D01*
X102761904Y-86738095D01*
G04 #@! TO.C,TH1*
X80478380Y-122189714D02*
X80478380Y-121618285D01*
X81478380Y-121904000D02*
X80478380Y-121904000D01*
X81478380Y-121284952D02*
X80478380Y-121284952D01*
X80954571Y-121284952D02*
X80954571Y-120713523D01*
X81478380Y-120713523D02*
X80478380Y-120713523D01*
X81478380Y-119713523D02*
X81478380Y-120284952D01*
X81478380Y-119999238D02*
X80478380Y-119999238D01*
X80621238Y-120094476D01*
X80716476Y-120189714D01*
X80764095Y-120284952D01*
G04 #@! TO.C,TP1*
X157234095Y-85812380D02*
X157805523Y-85812380D01*
X157519809Y-86812380D02*
X157519809Y-85812380D01*
X158138857Y-86812380D02*
X158138857Y-85812380D01*
X158519809Y-85812380D01*
X158615047Y-85860000D01*
X158662666Y-85907619D01*
X158710285Y-86002857D01*
X158710285Y-86145714D01*
X158662666Y-86240952D01*
X158615047Y-86288571D01*
X158519809Y-86336190D01*
X158138857Y-86336190D01*
X159662666Y-86812380D02*
X159091238Y-86812380D01*
X159376952Y-86812380D02*
X159376952Y-85812380D01*
X159281714Y-85955238D01*
X159186476Y-86050476D01*
X159091238Y-86098095D01*
G04 #@! TO.C,TP2*
X160282095Y-85812380D02*
X160853523Y-85812380D01*
X160567809Y-86812380D02*
X160567809Y-85812380D01*
X161186857Y-86812380D02*
X161186857Y-85812380D01*
X161567809Y-85812380D01*
X161663047Y-85860000D01*
X161710666Y-85907619D01*
X161758285Y-86002857D01*
X161758285Y-86145714D01*
X161710666Y-86240952D01*
X161663047Y-86288571D01*
X161567809Y-86336190D01*
X161186857Y-86336190D01*
X162139238Y-85907619D02*
X162186857Y-85860000D01*
X162282095Y-85812380D01*
X162520190Y-85812380D01*
X162615428Y-85860000D01*
X162663047Y-85907619D01*
X162710666Y-86002857D01*
X162710666Y-86098095D01*
X162663047Y-86240952D01*
X162091619Y-86812380D01*
X162710666Y-86812380D01*
G04 #@! TO.C,TP5*
X144744064Y-87082380D02*
X145315492Y-87082380D01*
X145029778Y-88082380D02*
X145029778Y-87082380D01*
X145648826Y-88082380D02*
X145648826Y-87082380D01*
X146029778Y-87082380D01*
X146125016Y-87130000D01*
X146172635Y-87177619D01*
X146220254Y-87272857D01*
X146220254Y-87415714D01*
X146172635Y-87510952D01*
X146125016Y-87558571D01*
X146029778Y-87606190D01*
X145648826Y-87606190D01*
X147125016Y-87082380D02*
X146648826Y-87082380D01*
X146601207Y-87558571D01*
X146648826Y-87510952D01*
X146744064Y-87463333D01*
X146982159Y-87463333D01*
X147077397Y-87510952D01*
X147125016Y-87558571D01*
X147172635Y-87653809D01*
X147172635Y-87891904D01*
X147125016Y-87987142D01*
X147077397Y-88034761D01*
X146982159Y-88082380D01*
X146744064Y-88082380D01*
X146648826Y-88034761D01*
X146601207Y-87987142D01*
G04 #@! TO.C,TP6*
X147836095Y-87082380D02*
X148407523Y-87082380D01*
X148121809Y-88082380D02*
X148121809Y-87082380D01*
X148740857Y-88082380D02*
X148740857Y-87082380D01*
X149121809Y-87082380D01*
X149217047Y-87130000D01*
X149264666Y-87177619D01*
X149312285Y-87272857D01*
X149312285Y-87415714D01*
X149264666Y-87510952D01*
X149217047Y-87558571D01*
X149121809Y-87606190D01*
X148740857Y-87606190D01*
X150169428Y-87082380D02*
X149978952Y-87082380D01*
X149883714Y-87130000D01*
X149836095Y-87177619D01*
X149740857Y-87320476D01*
X149693238Y-87510952D01*
X149693238Y-87891904D01*
X149740857Y-87987142D01*
X149788476Y-88034761D01*
X149883714Y-88082380D01*
X150074190Y-88082380D01*
X150169428Y-88034761D01*
X150217047Y-87987142D01*
X150264666Y-87891904D01*
X150264666Y-87653809D01*
X150217047Y-87558571D01*
X150169428Y-87510952D01*
X150074190Y-87463333D01*
X149883714Y-87463333D01*
X149788476Y-87510952D01*
X149740857Y-87558571D01*
X149693238Y-87653809D01*
G04 #@! TO.C,U1*
X107910380Y-95249904D02*
X108719904Y-95249904D01*
X108815142Y-95202285D01*
X108862761Y-95154666D01*
X108910380Y-95059428D01*
X108910380Y-94868952D01*
X108862761Y-94773714D01*
X108815142Y-94726095D01*
X108719904Y-94678476D01*
X107910380Y-94678476D01*
X108910380Y-93678476D02*
X108910380Y-94249904D01*
X108910380Y-93964190D02*
X107910380Y-93964190D01*
X108053238Y-94059428D01*
X108148476Y-94154666D01*
X108196095Y-94249904D01*
G04 #@! TO.C,U2*
X176744380Y-116585904D02*
X177553904Y-116585904D01*
X177649142Y-116538285D01*
X177696761Y-116490666D01*
X177744380Y-116395428D01*
X177744380Y-116204952D01*
X177696761Y-116109714D01*
X177649142Y-116062095D01*
X177553904Y-116014476D01*
X176744380Y-116014476D01*
X176839619Y-115585904D02*
X176792000Y-115538285D01*
X176744380Y-115443047D01*
X176744380Y-115204952D01*
X176792000Y-115109714D01*
X176839619Y-115062095D01*
X176934857Y-115014476D01*
X177030095Y-115014476D01*
X177172952Y-115062095D01*
X177744380Y-115633523D01*
X177744380Y-115014476D01*
G04 #@! TO.C,U3*
X75906380Y-108965904D02*
X76715904Y-108965904D01*
X76811142Y-108918285D01*
X76858761Y-108870666D01*
X76906380Y-108775428D01*
X76906380Y-108584952D01*
X76858761Y-108489714D01*
X76811142Y-108442095D01*
X76715904Y-108394476D01*
X75906380Y-108394476D01*
X75906380Y-108013523D02*
X75906380Y-107394476D01*
X76287333Y-107727809D01*
X76287333Y-107584952D01*
X76334952Y-107489714D01*
X76382571Y-107442095D01*
X76477809Y-107394476D01*
X76715904Y-107394476D01*
X76811142Y-107442095D01*
X76858761Y-107489714D01*
X76906380Y-107584952D01*
X76906380Y-107870666D01*
X76858761Y-107965904D01*
X76811142Y-108013523D01*
G04 #@! TO.C,U4*
X178522380Y-103825904D02*
X179331904Y-103825904D01*
X179427142Y-103778285D01*
X179474761Y-103730666D01*
X179522380Y-103635428D01*
X179522380Y-103444952D01*
X179474761Y-103349714D01*
X179427142Y-103302095D01*
X179331904Y-103254476D01*
X178522380Y-103254476D01*
X178855714Y-102349714D02*
X179522380Y-102349714D01*
X178474761Y-102587809D02*
X179189047Y-102825904D01*
X179189047Y-102206857D01*
G04 #@! TO.C,U5*
X148336095Y-115530380D02*
X148336095Y-116339904D01*
X148383714Y-116435142D01*
X148431333Y-116482761D01*
X148526571Y-116530380D01*
X148717047Y-116530380D01*
X148812285Y-116482761D01*
X148859904Y-116435142D01*
X148907523Y-116339904D01*
X148907523Y-115530380D01*
X149859904Y-115530380D02*
X149383714Y-115530380D01*
X149336095Y-116006571D01*
X149383714Y-115958952D01*
X149478952Y-115911333D01*
X149717047Y-115911333D01*
X149812285Y-115958952D01*
X149859904Y-116006571D01*
X149907523Y-116101809D01*
X149907523Y-116339904D01*
X149859904Y-116435142D01*
X149812285Y-116482761D01*
X149717047Y-116530380D01*
X149478952Y-116530380D01*
X149383714Y-116482761D01*
X149336095Y-116435142D01*
G04 #@! TO.C,U6*
X139700095Y-100544380D02*
X139700095Y-101353904D01*
X139747714Y-101449142D01*
X139795333Y-101496761D01*
X139890571Y-101544380D01*
X140081047Y-101544380D01*
X140176285Y-101496761D01*
X140223904Y-101449142D01*
X140271523Y-101353904D01*
X140271523Y-100544380D01*
X141176285Y-100544380D02*
X140985809Y-100544380D01*
X140890571Y-100592000D01*
X140842952Y-100639619D01*
X140747714Y-100782476D01*
X140700095Y-100972952D01*
X140700095Y-101353904D01*
X140747714Y-101449142D01*
X140795333Y-101496761D01*
X140890571Y-101544380D01*
X141081047Y-101544380D01*
X141176285Y-101496761D01*
X141223904Y-101449142D01*
X141271523Y-101353904D01*
X141271523Y-101115809D01*
X141223904Y-101020571D01*
X141176285Y-100972952D01*
X141081047Y-100925333D01*
X140890571Y-100925333D01*
X140795333Y-100972952D01*
X140747714Y-101020571D01*
X140700095Y-101115809D01*
G04 #@! TO.C,U7*
X126238095Y-99274380D02*
X126238095Y-100083904D01*
X126285714Y-100179142D01*
X126333333Y-100226761D01*
X126428571Y-100274380D01*
X126619047Y-100274380D01*
X126714285Y-100226761D01*
X126761904Y-100179142D01*
X126809523Y-100083904D01*
X126809523Y-99274380D01*
X127190476Y-99274380D02*
X127857142Y-99274380D01*
X127428571Y-100274380D01*
G04 #@! TO.C,U8*
X116078095Y-94702380D02*
X116078095Y-95511904D01*
X116125714Y-95607142D01*
X116173333Y-95654761D01*
X116268571Y-95702380D01*
X116459047Y-95702380D01*
X116554285Y-95654761D01*
X116601904Y-95607142D01*
X116649523Y-95511904D01*
X116649523Y-94702380D01*
X117268571Y-95130952D02*
X117173333Y-95083333D01*
X117125714Y-95035714D01*
X117078095Y-94940476D01*
X117078095Y-94892857D01*
X117125714Y-94797619D01*
X117173333Y-94750000D01*
X117268571Y-94702380D01*
X117459047Y-94702380D01*
X117554285Y-94750000D01*
X117601904Y-94797619D01*
X117649523Y-94892857D01*
X117649523Y-94940476D01*
X117601904Y-95035714D01*
X117554285Y-95083333D01*
X117459047Y-95130952D01*
X117268571Y-95130952D01*
X117173333Y-95178571D01*
X117125714Y-95226190D01*
X117078095Y-95321428D01*
X117078095Y-95511904D01*
X117125714Y-95607142D01*
X117173333Y-95654761D01*
X117268571Y-95702380D01*
X117459047Y-95702380D01*
X117554285Y-95654761D01*
X117601904Y-95607142D01*
X117649523Y-95511904D01*
X117649523Y-95321428D01*
X117601904Y-95226190D01*
X117554285Y-95178571D01*
X117459047Y-95130952D01*
G04 #@! TO.C,Y1*
X182348190Y-108172190D02*
X182824380Y-108172190D01*
X181824380Y-108505523D02*
X182348190Y-108172190D01*
X181824380Y-107838857D01*
X182824380Y-106981714D02*
X182824380Y-107553142D01*
X182824380Y-107267428D02*
X181824380Y-107267428D01*
X181967238Y-107362666D01*
X182062476Y-107457904D01*
X182110095Y-107553142D01*
G04 #@! TD*
M02*
