M48
; DRILL file {KiCad 5.1.0-5.1.0} date Mon 18 Mar 2019 09:11:25 PM CET
; FORMAT={-:-/ absolute / inch / decimal}
; #@! TF.CreationDate,2019-03-18T21:11:25+01:00
; #@! TF.GenerationSoftware,Kicad,Pcbnew,5.1.0-5.1.0
FMAT,2
INCH
T1C0.0079
T2C0.0157
T3C0.0181
T4C0.0197
T5C0.0256
T6C0.0394
T7C0.0512
T8C0.0630
T9C0.0984
%
G90
G05
T1
X6.8575Y-3.9978
X6.8575Y-4.0372
X6.8575Y-4.0765
X6.8969Y-3.9978
X6.8969Y-4.0372
X6.8969Y-4.0765
X6.9362Y-3.9978
X6.9362Y-4.0372
X6.9362Y-4.0765
T2
X2.57Y-4.2356
X2.64Y-4.2356
X2.77Y-4.01
X2.7951Y-4.39
X2.82Y-4.2
X2.83Y-4.14
X2.85Y-4.37
X2.86Y-4.12
X2.89Y-4.38
X2.8938Y-4.0437
X2.9Y-4.26
X2.9284Y-4.107
X2.93Y-4.37
X3.04Y-4.3697
X3.0486Y-4.11
X3.1Y-4.57
X3.25Y-3.7198
X3.4049Y-4.08
X3.43Y-3.7856
X3.5151Y-4.08
X3.9157Y-3.3329
X3.9628Y-3.8892
X4.0032Y-3.6992
X4.0276Y-3.8192
X4.06Y-4.088
X4.06Y-4.352
X4.1157Y-3.3329
X4.1356Y-3.57
X4.1532Y-3.7292
X4.1632Y-3.6292
X4.1632Y-3.8292
X4.1876Y-3.8892
X4.2044Y-3.57
X4.2732Y-3.8636
X4.315Y-3.38
X4.4326Y-4.21
X4.46Y-3.555
X4.4606Y-3.76
X4.4949Y-4.06
X4.5153Y-3.655
X4.53Y-3.555
X4.53Y-3.76
X4.535Y-3.38
X4.5718Y-3.9418
X4.595Y-3.49
X4.595Y-3.555
X4.63Y-3.6181
X4.69Y-3.685
X4.6925Y-3.3329
X4.77Y-4.21
X4.7925Y-3.2026
X4.82Y-3.555
X4.8349Y-4.06
X4.8456Y-3.73
X4.8556Y-3.93
X4.86Y-3.99
X4.91Y-3.83
X4.9244Y-3.93
X4.9756Y-3.73
X5.0Y-3.83
X5.03Y-3.8644
X5.04Y-3.555
X5.08Y-3.35
X5.11Y-3.6656
X5.11Y-3.7344
X5.1167Y-4.2157
X5.13Y-3.2
X5.189Y-4.0557
X5.19Y-3.46
X5.2098Y-3.59
X5.2556Y-3.77
X5.3Y-3.51
X5.32Y-3.65
X5.365Y-3.3329
X5.4302Y-3.59
X5.45Y-3.88
X5.4644Y-3.99
X5.465Y-3.2026
X5.52Y-3.95
X5.5811Y-3.3497
X5.5811Y-3.5586
X5.6374Y-3.608
X5.6478Y-3.642
X5.6544Y-3.78
X5.67Y-3.95
X5.7Y-3.84
X5.7Y-4.06
X5.74Y-3.59
X5.8Y-3.46
X5.8175Y-4.6887
X5.84Y-4.24
X5.87Y-4.55
X5.88Y-3.2
X5.9Y-3.45
X5.93Y-4.42
X5.9535Y-4.07
X5.9739Y-4.4827
X5.9739Y-4.5207
X5.9739Y-4.5567
X5.9862Y-4.2381
X6.0079Y-4.4827
X6.0099Y-4.5207
X6.0099Y-4.5567
X6.0564Y-4.4187
X6.06Y-3.45
X6.08Y-3.1948
X6.08Y-3.52
X6.1119Y-4.5742
X6.13Y-3.72
X6.14Y-3.51
X6.1601Y-3.5392
X6.1668Y-3.8437
X6.23Y-3.82
X6.24Y-3.49
X6.24Y-3.91
X6.26Y-3.72
X6.27Y-3.52
X6.28Y-3.84
X6.28Y-3.95
X6.39Y-4.8202
X6.39Y-4.5998
X6.43Y-3.78
X6.4663Y-4.0044
X6.4856Y-3.63
X6.5Y-3.89
X6.53Y-4.0044
X6.54Y-3.78
X6.55Y-4.08
X6.5856Y-4.2
X6.61Y-3.67
X6.61Y-3.8437
X6.62Y-4.32
X6.6365Y-4.01
X6.64Y-3.61
X6.64Y-3.76
X6.6544Y-4.2
X6.7Y-4.62
X6.75Y-4.26
X6.7508Y-4.0957
X6.7597Y-4.0089
X6.7673Y-4.462
X6.77Y-4.34
X6.78Y-4.17
X6.79Y-3.49
X6.79Y-3.53
X6.79Y-3.57
X6.79Y-3.61
X6.79Y-3.65
X6.79Y-4.25
X6.7957Y-3.9394
X6.81Y-3.85
X6.82Y-3.72
X6.8256Y-3.79
X6.83Y-3.59
X6.8456Y-3.53
X6.8456Y-3.65
X6.8504Y-3.9921
X6.8504Y-4.0354
X6.8504Y-4.0787
X6.86Y-3.84
X6.87Y-3.59
X6.8736Y-4.2089
X6.8937Y-3.9921
X6.8937Y-4.0354
X6.8937Y-4.0787
X6.9Y-3.9
X6.91Y-3.59
X6.91Y-4.2
X6.9173Y-4.6561
X6.937Y-3.9921
X6.937Y-4.0354
X6.937Y-4.0787
X6.95Y-3.72
X6.95Y-3.76
X6.9501Y-4.2345
X6.9943Y-4.1116
X7.01Y-3.82
X7.01Y-4.15
X7.02Y-3.92
X7.02Y-4.22
X7.03Y-3.53
X7.03Y-3.57
X7.03Y-3.61
X7.03Y-3.65
X7.03Y-3.69
X7.03Y-3.73
X7.03Y-3.77
X7.04Y-4.01
X7.07Y-4.26
X7.0718Y-4.1182
X7.08Y-4.03
X7.08Y-4.0687
X7.15Y-4.13
X7.1948Y-3.62
X7.2044Y-3.99
X7.2044Y-4.08
X7.2356Y-4.18
X7.3044Y-4.38
X7.3352Y-3.72
T3
X6.737Y-3.4339
X7.0819Y-3.4339
T4
X3.27Y-4.74
X3.27Y-4.7794
T5
X5.61Y-3.198
X5.61Y-3.248
X5.66Y-3.198
X5.66Y-3.248
X5.71Y-3.198
X5.71Y-3.248
X5.76Y-3.198
X5.76Y-3.248
X5.81Y-3.198
X5.81Y-3.248
T6
X6.25Y-3.19
X6.35Y-3.19
X6.45Y-3.19
X6.55Y-3.19
T7
X2.8346Y-3.3465
X3.0315Y-3.3465
X3.937Y-4.685
X4.1339Y-4.685
T8
X3.5433Y-3.2677
T9
X2.5197Y-4.8031
X7.2835Y-4.8031
T6
G00X3.3661Y-3.376
M15
G01X3.3661Y-3.3169
M16
G05
G00X3.5689Y-3.3858
M15
G01X3.5177Y-3.3858
M16
G05
G00X3.5827Y-3.622
M15
G01X3.5039Y-3.622
M16
G05
G00X3.7205Y-3.376
M15
G01X3.7205Y-3.3169
M16
G05
T0
M30
