%TF.GenerationSoftware,KiCad,Pcbnew,5.0.2-5.0.2*%
%TF.CreationDate,2019-03-08T22:42:46+01:00*%
%TF.ProjectId,motherboard,6d6f7468-6572-4626-9f61-72642e6b6963,rev?*%
%TF.SameCoordinates,Original*%
%TF.FileFunction,Plated,1,4,PTH,Mixed*%
%TF.FilePolarity,Positive*%
%FSLAX46Y46*%
G04 Gerber Fmt 4.6, Leading zero omitted, Abs format (unit mm)*
G04 Created by KiCad (PCBNEW 5.0.2-5.0.2) date Fri 08 Mar 2019 10:42:46 PM CET*
%MOMM*%
%LPD*%
G01*
G04 APERTURE LIST*
%TA.AperFunction,ComponentDrill*%
%ADD10C,0.200000*%
%TD*%
%TA.AperFunction,ViaDrill*%
%ADD11C,0.400000*%
%TD*%
%TA.AperFunction,ComponentDrill*%
%ADD12C,0.460000*%
%TD*%
%TA.AperFunction,ComponentDrill*%
%ADD13C,0.500000*%
%TD*%
%TA.AperFunction,ComponentDrill*%
%ADD14C,0.650000*%
%TD*%
%TA.AperFunction,Slot*%
%ADD15C,1.000000*%
%TD*%
%TA.AperFunction,ComponentDrill*%
%ADD16C,1.000000*%
%TD*%
%TA.AperFunction,ComponentDrill*%
%ADD17C,1.300000*%
%TD*%
G04 APERTURE END LIST*
D10*
%TO.C,U4*%
X174180000Y-101544000D03*
X174180000Y-102544000D03*
X174180000Y-103544000D03*
X175180000Y-101544000D03*
X175180000Y-102544000D03*
X175180000Y-103544000D03*
X176180000Y-101544000D03*
X176180000Y-102544000D03*
X176180000Y-103544000D03*
%TD*%
D11*
X65278000Y-107583024D03*
X67055982Y-107583000D03*
X70358000Y-101854000D03*
X70996044Y-111506000D03*
X71628002Y-106680000D03*
X71882000Y-105156000D03*
X72390000Y-110998000D03*
X72644000Y-104648000D03*
X73406000Y-111252000D03*
X73502957Y-102711210D03*
X73660000Y-108204000D03*
X74422000Y-110998000D03*
X74458500Y-104394000D03*
X76962000Y-100584000D03*
X77000000Y-87376000D03*
X77000000Y-88392000D03*
X77000000Y-89408000D03*
X77000000Y-90424000D03*
X77000000Y-91440000D03*
X77000000Y-92456000D03*
X77000000Y-93472000D03*
X77000000Y-94488000D03*
X77000000Y-95504000D03*
X77000000Y-96520000D03*
X77000000Y-97536000D03*
X77000000Y-98552000D03*
X77000000Y-99606000D03*
X77216000Y-110991610D03*
X77433500Y-104394016D03*
X77978000Y-100584000D03*
X78740000Y-101346000D03*
X78740000Y-116078000D03*
X80264000Y-102870000D03*
X81026000Y-103632000D03*
X82042000Y-103632000D03*
X82550000Y-94482026D03*
X83058000Y-103632000D03*
X84074000Y-103632000D03*
X85090000Y-103632000D03*
X86484022Y-103632000D03*
X87122000Y-96153000D03*
X89283980Y-103632000D03*
X99460000Y-84655018D03*
X100656146Y-98785072D03*
X101681162Y-93959072D03*
X102302178Y-97007072D03*
X103124000Y-103835200D03*
X103124000Y-110540812D03*
X104540000Y-84654962D03*
X105043000Y-90678000D03*
X105491162Y-94721072D03*
X105745162Y-92181072D03*
X105745162Y-97261072D03*
X106366148Y-98785058D03*
X106793000Y-90678022D03*
X108539162Y-98136071D03*
X109601000Y-85852000D03*
X112587500Y-106934000D03*
X113284000Y-90297000D03*
X113298000Y-95504000D03*
X114170000Y-103124000D03*
X114689500Y-92837000D03*
X115062000Y-90297000D03*
X115062000Y-95504000D03*
X115189000Y-85852000D03*
X116124500Y-100122500D03*
X116713000Y-88646000D03*
X116713000Y-90297000D03*
X117602000Y-91898500D03*
X119126000Y-93599000D03*
X119190000Y-84655020D03*
X121158000Y-106934000D03*
X121730000Y-81344998D03*
X122428000Y-90297000D03*
X122806000Y-103124000D03*
X123077000Y-94742000D03*
X123331000Y-99822000D03*
X123444000Y-101346000D03*
X124714000Y-97282000D03*
X125081000Y-99822000D03*
X126379000Y-94742000D03*
X127000000Y-97282000D03*
X127762000Y-98157000D03*
X128016000Y-90297000D03*
X129032000Y-85090000D03*
X129794000Y-93105000D03*
X129794000Y-94855000D03*
X129963084Y-107077902D03*
X130302000Y-81280000D03*
X131799604Y-103013902D03*
X131826000Y-87884000D03*
X132328000Y-91185972D03*
X133490980Y-95758000D03*
X134620000Y-89154000D03*
X135128000Y-92710000D03*
X136270000Y-84655000D03*
X137928022Y-91186000D03*
X138430000Y-98552000D03*
X138797000Y-101345962D03*
X138810000Y-81345028D03*
X140208000Y-100330000D03*
X141758957Y-85081228D03*
X141758963Y-90387238D03*
X143191096Y-91644391D03*
X143454107Y-92506789D03*
X143622974Y-96012000D03*
X144018000Y-100330000D03*
X144780000Y-97536000D03*
X144780000Y-103123990D03*
X145796000Y-91186000D03*
X147320000Y-87884000D03*
X147763497Y-119092064D03*
X148336000Y-107696000D03*
X149098000Y-115570000D03*
X149352000Y-81280000D03*
X149860000Y-87630000D03*
X150622000Y-112268000D03*
X151220064Y-103378002D03*
X151737311Y-113859664D03*
X151737311Y-114824864D03*
X151737311Y-115739264D03*
X152048566Y-107647489D03*
X152600911Y-113859664D03*
X152651711Y-114824864D03*
X152651711Y-115739264D03*
X153831511Y-112234080D03*
X153924000Y-87630000D03*
X154432000Y-81148972D03*
X154432000Y-89408000D03*
X155242529Y-116185064D03*
X155702000Y-94488000D03*
X155956000Y-89154000D03*
X156467503Y-89896474D03*
X156636534Y-97631210D03*
X158242000Y-97028000D03*
X158496000Y-88646000D03*
X158496000Y-99314000D03*
X159004000Y-94488000D03*
X159258000Y-89408000D03*
X159512000Y-97536000D03*
X159512000Y-100330000D03*
X162305994Y-122434000D03*
X162306000Y-116833970D03*
X163322000Y-96012000D03*
X164243019Y-101713000D03*
X164733000Y-92202000D03*
X165100000Y-98806000D03*
X165862000Y-101713000D03*
X166116000Y-96012000D03*
X166370000Y-103632000D03*
X167273015Y-106680015D03*
X167894000Y-93218000D03*
X167894000Y-97631210D03*
X168148000Y-109727992D03*
X168567155Y-101854000D03*
X168656000Y-91694000D03*
X168656000Y-95504000D03*
X170101097Y-106601097D03*
X170180000Y-117348000D03*
X171450000Y-108204000D03*
X171471077Y-104032021D03*
X171697643Y-101824856D03*
X171889561Y-113334646D03*
X171958000Y-110236000D03*
X172212000Y-105918000D03*
X172466000Y-88646000D03*
X172466000Y-89662000D03*
X172466000Y-90678000D03*
X172466000Y-91694000D03*
X172466000Y-92710000D03*
X172466000Y-107950014D03*
X172612021Y-100060256D03*
X172974000Y-97790000D03*
X173228000Y-94488000D03*
X173228000Y-96266000D03*
X173482000Y-91186000D03*
X173876974Y-89662000D03*
X173876998Y-92710000D03*
X174244000Y-97536000D03*
X174498000Y-91186000D03*
X174589093Y-106907234D03*
X175260000Y-99060000D03*
X175514000Y-91186000D03*
X175514006Y-106679994D03*
X175699573Y-118264668D03*
X176530000Y-94488000D03*
X176530000Y-95504000D03*
X176532094Y-107555616D03*
X177655000Y-104435602D03*
X178054000Y-97028000D03*
X178054000Y-105410000D03*
X178308000Y-99568000D03*
X178308000Y-107188000D03*
X178562000Y-89662000D03*
X178562000Y-90678000D03*
X178562000Y-91694000D03*
X178562000Y-92710000D03*
X178562000Y-93726000D03*
X178562000Y-94742000D03*
X178562000Y-95758000D03*
X178816000Y-101853956D03*
X179578000Y-108204000D03*
X179623534Y-104602466D03*
X179832000Y-102362000D03*
X179832000Y-103345255D03*
X181610000Y-104902000D03*
X182748998Y-91948000D03*
X182992970Y-101346000D03*
X182993000Y-103632000D03*
X183783024Y-106172000D03*
X185533000Y-111252012D03*
X186313000Y-94488000D03*
D12*
%TO.C,J4*%
X171120000Y-87220000D03*
X179880000Y-87220000D03*
D13*
%TO.C,TH1*%
X83058000Y-120396000D03*
X83058000Y-121396000D03*
D14*
%TO.C,J7*%
X142494000Y-81230000D03*
X142494000Y-82500000D03*
X143764000Y-81230000D03*
X143764000Y-82500000D03*
X145034000Y-81230000D03*
X145034000Y-82500000D03*
X146304000Y-81230000D03*
X146304000Y-82500000D03*
X147574000Y-81230000D03*
X147574000Y-82500000D03*
D15*
%TO.C,J2*%
X85500000Y-84250000D02*
X85500000Y-85750000D01*
X89350000Y-86000000D02*
X90650000Y-86000000D01*
X89000000Y-92000000D02*
X91000000Y-92000000D01*
X94500000Y-84250000D02*
X94500000Y-85750000D01*
D16*
%TO.C,J3*%
X158750000Y-81026000D03*
X161290000Y-81026000D03*
X163830000Y-81026000D03*
X166370000Y-81026000D03*
D17*
%TO.C,J5*%
X100000000Y-119000000D03*
X105000000Y-119000000D03*
%TO.C,J1*%
X72000000Y-85000000D03*
X77000000Y-85000000D03*
M02*
