G04 #@! TF.GenerationSoftware,KiCad,Pcbnew,5.0.2-5.0.2*
G04 #@! TF.CreationDate,2019-03-08T22:42:58+01:00*
G04 #@! TF.ProjectId,motherboard,6d6f7468-6572-4626-9f61-72642e6b6963,rev?*
G04 #@! TF.SameCoordinates,Original*
G04 #@! TF.FileFunction,Copper,L4,Bot*
G04 #@! TF.FilePolarity,Positive*
%FSLAX46Y46*%
G04 Gerber Fmt 4.6, Leading zero omitted, Abs format (unit mm)*
G04 Created by KiCad (PCBNEW 5.0.2-5.0.2) date Fri 08 Mar 2019 10:42:58 PM CET*
%MOMM*%
%LPD*%
G01*
G04 APERTURE LIST*
G04 #@! TA.AperFunction,ComponentPad*
%ADD10R,2.600000X2.600000*%
G04 #@! TD*
G04 #@! TA.AperFunction,ComponentPad*
%ADD11C,2.600000*%
G04 #@! TD*
G04 #@! TA.AperFunction,ComponentPad*
%ADD12R,4.000000X2.000000*%
G04 #@! TD*
G04 #@! TA.AperFunction,ComponentPad*
%ADD13O,3.300000X2.000000*%
G04 #@! TD*
G04 #@! TA.AperFunction,ComponentPad*
%ADD14O,2.000000X3.500000*%
G04 #@! TD*
G04 #@! TA.AperFunction,ComponentPad*
%ADD15R,1.700000X1.700000*%
G04 #@! TD*
G04 #@! TA.AperFunction,ComponentPad*
%ADD16O,1.700000X1.700000*%
G04 #@! TD*
G04 #@! TA.AperFunction,SMDPad,CuDef*
%ADD17R,2.420000X5.080000*%
G04 #@! TD*
G04 #@! TA.AperFunction,ViaPad*
%ADD18C,0.970000*%
G04 #@! TD*
G04 #@! TA.AperFunction,Conductor*
%ADD19R,0.460000X0.950000*%
G04 #@! TD*
G04 #@! TA.AperFunction,ComponentPad*
%ADD20R,1.000000X1.000000*%
G04 #@! TD*
G04 #@! TA.AperFunction,ComponentPad*
%ADD21O,1.000000X1.000000*%
G04 #@! TD*
G04 #@! TA.AperFunction,ComponentPad*
%ADD22R,0.850000X0.850000*%
G04 #@! TD*
G04 #@! TA.AperFunction,ComponentPad*
%ADD23O,0.850000X0.850000*%
G04 #@! TD*
G04 #@! TA.AperFunction,ComponentPad*
%ADD24C,0.200000*%
G04 #@! TD*
G04 #@! TA.AperFunction,ViaPad*
%ADD25C,0.800000*%
G04 #@! TD*
G04 #@! TA.AperFunction,Conductor*
%ADD26C,0.254000*%
G04 #@! TD*
G04 #@! TA.AperFunction,Conductor*
%ADD27C,0.304800*%
G04 #@! TD*
G04 #@! TA.AperFunction,Conductor*
%ADD28C,0.203200*%
G04 #@! TD*
G04 #@! TA.AperFunction,Conductor*
%ADD29C,0.406400*%
G04 #@! TD*
G04 APERTURE END LIST*
D10*
G04 #@! TO.P,J1,1*
G04 #@! TO.N,+12V*
X77000000Y-85000000D03*
D11*
G04 #@! TO.P,J1,2*
G04 #@! TO.N,GND*
X72000000Y-85000000D03*
G04 #@! TD*
D12*
G04 #@! TO.P,J2,1*
G04 #@! TO.N,Net-(C1-Pad1)*
X90000000Y-92000000D03*
D13*
G04 #@! TO.P,J2,2*
G04 #@! TO.N,GND*
X90000000Y-86000000D03*
D14*
G04 #@! TO.P,J2,MP*
G04 #@! TO.N,N/C*
X94500000Y-85000000D03*
X85500000Y-85000000D03*
G04 #@! TD*
D15*
G04 #@! TO.P,J3,1*
G04 #@! TO.N,DUST_TX*
X158750000Y-81026000D03*
D16*
G04 #@! TO.P,J3,2*
G04 #@! TO.N,DUST_RX*
X161290000Y-81026000D03*
G04 #@! TO.P,J3,3*
G04 #@! TO.N,ESP_VCC*
X163830000Y-81026000D03*
G04 #@! TO.P,J3,4*
G04 #@! TO.N,GND*
X166370000Y-81026000D03*
G04 #@! TD*
D17*
G04 #@! TO.P,J4,2*
G04 #@! TO.N,GND*
X179880000Y-83780000D03*
X171120000Y-83780000D03*
D18*
G04 #@! TD*
G04 #@! TO.N,GND*
G04 #@! TO.C,J4*
X179880000Y-87220000D03*
G04 #@! TO.N,GND*
G04 #@! TO.C,J4*
X171120000Y-87220000D03*
D19*
X179880000Y-86770000D03*
X171120000Y-86770000D03*
G04 #@! TD*
D11*
G04 #@! TO.P,J5,2*
G04 #@! TO.N,GND*
X105000000Y-119000000D03*
D10*
G04 #@! TO.P,J5,1*
G04 #@! TO.N,+BATT*
X100000000Y-119000000D03*
G04 #@! TD*
D20*
G04 #@! TO.P,J7,1*
G04 #@! TO.N,DUST_VCC*
X142494000Y-82500000D03*
D21*
G04 #@! TO.P,J7,2*
X142494000Y-81230000D03*
G04 #@! TO.P,J7,3*
G04 #@! TO.N,GND*
X143764000Y-82500000D03*
G04 #@! TO.P,J7,4*
X143764000Y-81230000D03*
G04 #@! TO.P,J7,5*
G04 #@! TO.N,Net-(J7-Pad5)*
X145034000Y-82500000D03*
G04 #@! TO.P,J7,6*
G04 #@! TO.N,N/C*
X145034000Y-81230000D03*
G04 #@! TO.P,J7,7*
G04 #@! TO.N,DUST_RX*
X146304000Y-82500000D03*
G04 #@! TO.P,J7,8*
G04 #@! TO.N,N/C*
X146304000Y-81230000D03*
G04 #@! TO.P,J7,9*
G04 #@! TO.N,DUST_TX*
X147574000Y-82500000D03*
G04 #@! TO.P,J7,10*
G04 #@! TO.N,Net-(J7-Pad10)*
X147574000Y-81230000D03*
G04 #@! TD*
D22*
G04 #@! TO.P,TH1,1*
G04 #@! TO.N,Net-(TH1-Pad1)*
X83058000Y-120396000D03*
D23*
G04 #@! TO.P,TH1,2*
G04 #@! TO.N,GND*
X83058000Y-121396000D03*
G04 #@! TD*
D24*
G04 #@! TO.P,U4,33*
G04 #@! TO.N,GND*
X176180000Y-103544000D03*
X175180000Y-103544000D03*
X174180000Y-103544000D03*
X176180000Y-102544000D03*
X175180000Y-102544000D03*
X174180000Y-102544000D03*
X176180000Y-101544000D03*
X175180000Y-101544000D03*
X174180000Y-101544000D03*
G04 #@! TD*
D25*
G04 #@! TO.N,GND*
X115062000Y-90297000D03*
X115189000Y-85852000D03*
X115062000Y-95504000D03*
X119126000Y-93599000D03*
X128016000Y-90297000D03*
X129794000Y-93105000D03*
X127762000Y-98157000D03*
X125081000Y-99822000D03*
X173482000Y-91186000D03*
X174498000Y-91186000D03*
X175514000Y-91186000D03*
X178562000Y-89662000D03*
X178562000Y-90678000D03*
X178562000Y-91694000D03*
X178562000Y-92710000D03*
X178562000Y-93726000D03*
X178562000Y-94742000D03*
X178562000Y-95758000D03*
X176530000Y-95504000D03*
X176530000Y-94488000D03*
X172466000Y-88646000D03*
X172466000Y-89662000D03*
X172466000Y-90678000D03*
X172466000Y-91694000D03*
X172466000Y-92710000D03*
X87122000Y-96153000D03*
X173228000Y-96266000D03*
X73660000Y-108204000D03*
X152600911Y-113859664D03*
X152651711Y-115739264D03*
X151737311Y-115739264D03*
X152651711Y-114824864D03*
X151737311Y-114824864D03*
X151737311Y-113859664D03*
X105491162Y-94721072D03*
X170101097Y-106601097D03*
X138430000Y-98552000D03*
X77216000Y-110991610D03*
X186313000Y-94488000D03*
X182992970Y-101346000D03*
X183783024Y-106172000D03*
X185533000Y-111252012D03*
X171889561Y-113334646D03*
X162306000Y-116833970D03*
X155242529Y-116185064D03*
X147763497Y-119092064D03*
X153831511Y-112234080D03*
X65278000Y-107583024D03*
X71628002Y-106680000D03*
X77433500Y-104394016D03*
X82550000Y-94482026D03*
X105043000Y-90678000D03*
X138810000Y-81345028D03*
X119190000Y-84655020D03*
X173876998Y-92710000D03*
X173876974Y-89662000D03*
X141758963Y-90387238D03*
X154432000Y-81148972D03*
X132328000Y-91185972D03*
X133490980Y-95758000D03*
X138797000Y-101345962D03*
X143622974Y-96012000D03*
X166370000Y-103632000D03*
X164243019Y-101713000D03*
X165862000Y-101713000D03*
X106366148Y-98785058D03*
X108539162Y-98136071D03*
X102302178Y-97007072D03*
X124714000Y-97282000D03*
X114689500Y-92837000D03*
G04 #@! TO.N,+12V*
X74458500Y-104394000D03*
X86484022Y-103632000D03*
X77000000Y-90424000D03*
X77000000Y-91440000D03*
X77000000Y-92456000D03*
X77000000Y-93472000D03*
X77000000Y-94488000D03*
X77000000Y-95504000D03*
X77000000Y-96520000D03*
X77000000Y-97536000D03*
X77000000Y-98552000D03*
X77000000Y-89408000D03*
X77000000Y-88392000D03*
X77000000Y-87376000D03*
X77000000Y-99606000D03*
X76962000Y-100584000D03*
X77978000Y-100584000D03*
X78740000Y-101346000D03*
X80264000Y-102870000D03*
X81026000Y-103632000D03*
X82042000Y-103632000D03*
X83058000Y-103632000D03*
X84074000Y-103632000D03*
X85090000Y-103632000D03*
G04 #@! TO.N,DUST_VCC*
X144780000Y-97536000D03*
X141758957Y-85081228D03*
X137928022Y-91186000D03*
G04 #@! TO.N,BME280_VCC*
X129794000Y-94855000D03*
X126379000Y-94742000D03*
X123077000Y-94742000D03*
X122428000Y-90297000D03*
X136270000Y-84655000D03*
G04 #@! TO.N,WIND_VCC*
X109601000Y-85852000D03*
X113284000Y-90297000D03*
X116713000Y-90297000D03*
X116713000Y-88646000D03*
X121730000Y-81344998D03*
G04 #@! TO.N,BME280_SDA*
X129032000Y-85090000D03*
X130302000Y-81280000D03*
X134620000Y-89154000D03*
X156467503Y-89896474D03*
X159258000Y-89408000D03*
X167894000Y-93218000D03*
X167894000Y-97631210D03*
X143454107Y-92506789D03*
G04 #@! TO.N,BME280_SCL*
X168656000Y-95504000D03*
X158496000Y-88646000D03*
X155956000Y-89154000D03*
X168656000Y-91694000D03*
X131826000Y-87884000D03*
X143191096Y-91644391D03*
G04 #@! TO.N,DUST_RX*
X147320000Y-87884000D03*
X177655000Y-104435602D03*
G04 #@! TO.N,DUST_TX*
X149860000Y-87630000D03*
X153924000Y-87630000D03*
X154432000Y-89408000D03*
X155702000Y-94488000D03*
X159004000Y-94488000D03*
X171958000Y-110236000D03*
X182993000Y-103632000D03*
X168148000Y-109727992D03*
G04 #@! TO.N,PRG*
X171471077Y-104032021D03*
X172612021Y-100060256D03*
G04 #@! TO.N,ADC*
X174244000Y-97536000D03*
G04 #@! TO.N,DUST_EN*
X140208000Y-100330000D03*
X144018000Y-100330000D03*
G04 #@! TO.N,WIND_EN*
X159512000Y-100330000D03*
X158496000Y-99314000D03*
X116124500Y-100122500D03*
X156636534Y-97631210D03*
G04 #@! TO.N,BME280_EN*
X135128000Y-92710000D03*
X158242000Y-97028000D03*
G04 #@! TO.N,Net-(C11-Pad1)*
X172974000Y-97790000D03*
X167273015Y-106680015D03*
G04 #@! TO.N,Net-(R8-Pad2)*
X179578000Y-108204000D03*
X172466000Y-107950014D03*
G04 #@! TO.N,ESP_VCC*
X170180000Y-117348000D03*
X165100000Y-98806000D03*
X175260000Y-99060000D03*
X178054000Y-97028000D03*
X172212000Y-105918000D03*
X178308000Y-99568000D03*
X178816000Y-101853956D03*
X168567155Y-101854000D03*
X171697643Y-101824856D03*
X164733000Y-92202000D03*
X162305994Y-122434000D03*
X175699573Y-118264668D03*
X182748998Y-91948000D03*
G04 #@! TO.N,+9VA*
X104540000Y-84654962D03*
X106793000Y-90678022D03*
G04 #@! TO.N,5V6*
X105745162Y-97261072D03*
X105745162Y-92181072D03*
X101681162Y-93959072D03*
X131799604Y-103013902D03*
X100656146Y-98785072D03*
X114170000Y-103124000D03*
X122806000Y-103124000D03*
X144780000Y-103123990D03*
X151220064Y-103378002D03*
G04 #@! TO.N,Net-(C15-Pad1)*
X179832000Y-102362000D03*
X179623534Y-104602466D03*
G04 #@! TO.N,Net-(C16-Pad1)*
X181610000Y-104902000D03*
X179832000Y-103345255D03*
G04 #@! TO.N,Net-(C17-Pad1)*
X149098000Y-115570000D03*
X150622000Y-112268000D03*
X152048566Y-107647489D03*
G04 #@! TO.N,Net-(C25-Pad1)*
X127000000Y-97282000D03*
X123331000Y-99822000D03*
G04 #@! TO.N,Net-(C26-Pad1)*
X117602000Y-91898500D03*
X113298000Y-95504000D03*
X123444000Y-101346000D03*
G04 #@! TO.N,+9V*
X89283980Y-103632000D03*
X99460000Y-84655018D03*
G04 #@! TO.N,+BATT*
X148336000Y-107696000D03*
X173228000Y-94488000D03*
X163322000Y-96012000D03*
X166116000Y-96012000D03*
X73406000Y-111252000D03*
X103124000Y-110540812D03*
X129963084Y-107077902D03*
X70996044Y-111506000D03*
X112587500Y-106934000D03*
X121158000Y-106934000D03*
X67055982Y-107583000D03*
G04 #@! TO.N,Net-(R5-Pad2)*
X174589093Y-106907234D03*
X176532094Y-107555616D03*
G04 #@! TO.N,Net-(R6-Pad2)*
X178308000Y-107188000D03*
X175514006Y-106679994D03*
G04 #@! TO.N,Net-(R12-Pad2)*
X103124000Y-103835200D03*
X74422000Y-110998000D03*
G04 #@! TO.N,Net-(TH1-Pad1)*
X78740000Y-116078000D03*
X72390000Y-110998000D03*
G04 #@! TO.N,~CHARGE*
X72644000Y-104648000D03*
X159512000Y-97536000D03*
G04 #@! TO.N,~FAULT*
X178054000Y-105410000D03*
X71882000Y-105156000D03*
X70358000Y-101854000D03*
X171450000Y-108204000D03*
X73502957Y-102711210D03*
G04 #@! TO.N,Net-(J7-Pad10)*
X149352000Y-81280000D03*
X145796000Y-91186000D03*
G04 #@! TD*
D26*
G04 #@! TO.N,GND*
X179880000Y-87220000D02*
X179880000Y-83780000D01*
X171120000Y-87220000D02*
X171120000Y-83780000D01*
D27*
G04 #@! TO.N,BME280_SDA*
X156955977Y-89408000D02*
X156867502Y-89496475D01*
X156867502Y-89496475D02*
X156467503Y-89896474D01*
X159258000Y-89408000D02*
X156955977Y-89408000D01*
X129540000Y-82042000D02*
X130302000Y-81280000D01*
X129032000Y-85090000D02*
X129540000Y-84582000D01*
X129540000Y-84582000D02*
X129540000Y-82042000D01*
D28*
X167894000Y-93783685D02*
X167894000Y-97631210D01*
X167894000Y-93218000D02*
X167894000Y-93783685D01*
D27*
X137972789Y-92506789D02*
X142888422Y-92506789D01*
X134620000Y-89154000D02*
X137972789Y-92506789D01*
X142888422Y-92506789D02*
X143454107Y-92506789D01*
G04 #@! TO.N,BME280_SCL*
X156464000Y-88646000D02*
X155956000Y-89154000D01*
X158496000Y-88646000D02*
X156464000Y-88646000D01*
D28*
X168656000Y-95504000D02*
X168656000Y-91694000D01*
D27*
X137922000Y-87884000D02*
X141682391Y-91644391D01*
X141682391Y-91644391D02*
X142625411Y-91644391D01*
X142625411Y-91644391D02*
X143191096Y-91644391D01*
X131826000Y-87884000D02*
X137922000Y-87884000D01*
G04 #@! TO.N,DUST_RX*
X161290000Y-82228081D02*
X155126081Y-88392000D01*
X161290000Y-81026000D02*
X161290000Y-82228081D01*
X147828000Y-88392000D02*
X147320000Y-87884000D01*
X155126081Y-88392000D02*
X147828000Y-88392000D01*
X155126081Y-92134081D02*
X155126081Y-88392000D01*
X160782000Y-97790000D02*
X155126081Y-92134081D01*
X167688076Y-110744000D02*
X160782000Y-103837924D01*
X169672000Y-110744000D02*
X167688076Y-110744000D01*
X160782000Y-103837924D02*
X160782000Y-97790000D01*
X172170398Y-104435602D02*
X170942000Y-105664000D01*
X177655000Y-104435602D02*
X172170398Y-104435602D01*
X170942000Y-105664000D02*
X170942000Y-107442000D01*
X170942000Y-107442000D02*
X170747922Y-107636078D01*
X170747922Y-107636078D02*
X170747922Y-109668078D01*
X170747922Y-109668078D02*
X169672000Y-110744000D01*
G04 #@! TO.N,DUST_TX*
X149860000Y-87630000D02*
X154940000Y-87630000D01*
X158750000Y-83820000D02*
X158750000Y-81026000D01*
X154940000Y-87630000D02*
X158750000Y-83820000D01*
X154432000Y-93218000D02*
X154432000Y-89408000D01*
X155702000Y-94488000D02*
X154432000Y-93218000D01*
X172357999Y-110635999D02*
X180448001Y-110635999D01*
X171958000Y-110236000D02*
X172357999Y-110635999D01*
X180448001Y-110635999D02*
X182372000Y-108712000D01*
X182372000Y-108712000D02*
X182372000Y-105664000D01*
X182372000Y-105664000D02*
X182993000Y-105043000D01*
X182993000Y-105043000D02*
X182993000Y-103632000D01*
X162306000Y-103885992D02*
X167748001Y-109327993D01*
X167748001Y-109327993D02*
X168148000Y-109727992D01*
X162306000Y-97790000D02*
X162306000Y-103885992D01*
X159004000Y-94488000D02*
X162306000Y-97790000D01*
D28*
G04 #@! TO.N,PRG*
X171471077Y-104032021D02*
X172612021Y-102891077D01*
X172612021Y-102891077D02*
X172612021Y-100625941D01*
X172612021Y-100625941D02*
X172612021Y-100060256D01*
G04 #@! TO.N,DUST_EN*
X140208000Y-100330000D02*
X144018000Y-100330000D01*
G04 #@! TO.N,WIND_EN*
X158496000Y-99314000D02*
X159512000Y-100330000D01*
X116524499Y-100522499D02*
X130032567Y-100522499D01*
X155321640Y-96882001D02*
X156070849Y-97631210D01*
X156070849Y-97631210D02*
X156636534Y-97631210D01*
X133673065Y-96882001D02*
X155321640Y-96882001D01*
X130032567Y-100522499D02*
X133673065Y-96882001D01*
X116124500Y-100122500D02*
X116524499Y-100522499D01*
G04 #@! TO.N,BME280_EN*
X135527999Y-93109999D02*
X152291999Y-93109999D01*
X135128000Y-92710000D02*
X135527999Y-93109999D01*
X156210000Y-97028000D02*
X158242000Y-97028000D01*
X152291999Y-93109999D02*
X156210000Y-97028000D01*
D29*
G04 #@! TO.N,Net-(C11-Pad1)*
X172974000Y-97790000D02*
X169953106Y-97790000D01*
X169953106Y-97790000D02*
X167273015Y-100470091D01*
X167273015Y-106114330D02*
X167273015Y-106680015D01*
X167273015Y-100470091D02*
X167273015Y-106114330D01*
D28*
G04 #@! TO.N,Net-(R8-Pad2)*
X172719986Y-108204000D02*
X172466000Y-107950014D01*
X179578000Y-108204000D02*
X172719986Y-108204000D01*
G04 #@! TO.N,Net-(C15-Pad1)*
X179223535Y-102970465D02*
X179223535Y-104202467D01*
X179223535Y-104202467D02*
X179623534Y-104602466D01*
X179832000Y-102362000D02*
X179223535Y-102970465D01*
G04 #@! TO.N,Net-(C16-Pad1)*
X180053255Y-103345255D02*
X179832000Y-103345255D01*
X181610000Y-104902000D02*
X180053255Y-103345255D01*
G04 #@! TO.N,Net-(R5-Pad2)*
X175966409Y-107555616D02*
X176532094Y-107555616D01*
X175237475Y-107555616D02*
X175966409Y-107555616D01*
X174589093Y-106907234D02*
X175237475Y-107555616D01*
G04 #@! TO.N,Net-(R6-Pad2)*
X176079691Y-106679994D02*
X175514006Y-106679994D01*
X178308000Y-107188000D02*
X177799994Y-106679994D01*
X177799994Y-106679994D02*
X176079691Y-106679994D01*
D29*
G04 #@! TO.N,Net-(TH1-Pad1)*
X78740000Y-116078000D02*
X75692000Y-116078000D01*
X75692000Y-116078000D02*
X72390000Y-112776000D01*
X72390000Y-112776000D02*
X72390000Y-110998000D01*
D28*
G04 #@! TO.N,~CHARGE*
X158946315Y-97536000D02*
X159512000Y-97536000D01*
X72244001Y-104248001D02*
X72244001Y-102507999D01*
X72244001Y-102507999D02*
X72644000Y-102108000D01*
X158873262Y-97536000D02*
X158946315Y-97536000D01*
X154301262Y-102108000D02*
X158873262Y-97536000D01*
X72644000Y-104648000D02*
X72244001Y-104248001D01*
X72644000Y-102108000D02*
X154301262Y-102108000D01*
D26*
G04 #@! TO.N,~FAULT*
X70104000Y-102108000D02*
X70358000Y-101854000D01*
X71882000Y-105156000D02*
X70104000Y-103378000D01*
X70104000Y-103378000D02*
X70104000Y-102108000D01*
X171450000Y-107950000D02*
X171450000Y-108204000D01*
X173482000Y-105918000D02*
X171450000Y-107950000D01*
X176980315Y-105918000D02*
X173482000Y-105918000D01*
X178054000Y-105410000D02*
X177488315Y-105410000D01*
X177488315Y-105410000D02*
X176980315Y-105918000D01*
X171450000Y-108769685D02*
X171450000Y-108204000D01*
X78835210Y-102711210D02*
X87503011Y-111379011D01*
X171329399Y-110356601D02*
X171329399Y-108890286D01*
X87503011Y-111379011D02*
X170306989Y-111379011D01*
X170306989Y-111379011D02*
X171329399Y-110356601D01*
X73502957Y-102711210D02*
X78835210Y-102711210D01*
X171329399Y-108890286D02*
X171450000Y-108769685D01*
D29*
G04 #@! TO.N,Net-(J7-Pad10)*
X149352000Y-81280000D02*
X149352000Y-84074000D01*
X149352000Y-84074000D02*
X145796000Y-87630000D01*
X145796000Y-87630000D02*
X145796000Y-91186000D01*
G04 #@! TD*
M02*
