%TF.GenerationSoftware,KiCad,Pcbnew,5.1.0-5.1.0*%
%TF.CreationDate,2019-03-18T21:11:32+01:00*%
%TF.ProjectId,motherboard,6d6f7468-6572-4626-9f61-72642e6b6963,rev?*%
%TF.SameCoordinates,Original*%
%TF.FileFunction,Soldermask,Top*%
%TF.FilePolarity,Negative*%
%FSLAX46Y46*%
G04 Gerber Fmt 4.6, Leading zero omitted, Abs format (unit mm)*
G04 Created by KiCad (PCBNEW 5.1.0-5.1.0) date 2019-03-18 21:11:32*
%MOMM*%
%LPD*%
G04 APERTURE LIST*
%ADD10C,0.100000*%
G04 APERTURE END LIST*
D10*
G36*
X162973825Y-120687745D02*
G01*
X163004490Y-120697048D01*
X163032748Y-120712152D01*
X163057519Y-120732481D01*
X163077848Y-120757252D01*
X163092952Y-120785510D01*
X163102255Y-120816175D01*
X163106000Y-120854203D01*
X163106000Y-124013797D01*
X163102255Y-124051825D01*
X163092952Y-124082490D01*
X163077848Y-124110748D01*
X163057519Y-124135519D01*
X163032748Y-124155848D01*
X163004490Y-124170952D01*
X162973825Y-124180255D01*
X162935797Y-124184000D01*
X161676203Y-124184000D01*
X161638175Y-124180255D01*
X161607510Y-124170952D01*
X161579252Y-124155848D01*
X161554481Y-124135519D01*
X161534152Y-124110748D01*
X161519048Y-124082490D01*
X161509745Y-124051825D01*
X161506000Y-124013797D01*
X161506000Y-120854203D01*
X161509745Y-120816175D01*
X161519048Y-120785510D01*
X161534152Y-120757252D01*
X161554481Y-120732481D01*
X161579252Y-120712152D01*
X161607510Y-120697048D01*
X161638175Y-120687745D01*
X161676203Y-120684000D01*
X162935797Y-120684000D01*
X162973825Y-120687745D01*
X162973825Y-120687745D01*
G37*
G36*
X185364610Y-120798036D02*
G01*
X185575106Y-120885227D01*
X185592097Y-120892265D01*
X185796828Y-121029062D01*
X185970938Y-121203172D01*
X186099782Y-121396000D01*
X186107736Y-121407905D01*
X186201964Y-121635390D01*
X186250000Y-121876884D01*
X186250000Y-122123116D01*
X186201964Y-122364610D01*
X186107736Y-122592095D01*
X186107735Y-122592097D01*
X185970938Y-122796828D01*
X185796828Y-122970938D01*
X185592097Y-123107735D01*
X185592096Y-123107736D01*
X185592095Y-123107736D01*
X185364610Y-123201964D01*
X185123116Y-123250000D01*
X184876884Y-123250000D01*
X184635390Y-123201964D01*
X184407905Y-123107736D01*
X184407904Y-123107736D01*
X184407903Y-123107735D01*
X184203172Y-122970938D01*
X184029062Y-122796828D01*
X183892265Y-122592097D01*
X183892264Y-122592095D01*
X183798036Y-122364610D01*
X183750000Y-122123116D01*
X183750000Y-121876884D01*
X183798036Y-121635390D01*
X183892264Y-121407905D01*
X183900219Y-121396000D01*
X184029062Y-121203172D01*
X184203172Y-121029062D01*
X184407903Y-120892265D01*
X184424894Y-120885227D01*
X184635390Y-120798036D01*
X184876884Y-120750000D01*
X185123116Y-120750000D01*
X185364610Y-120798036D01*
X185364610Y-120798036D01*
G37*
G36*
X64364610Y-120798036D02*
G01*
X64575106Y-120885227D01*
X64592097Y-120892265D01*
X64796828Y-121029062D01*
X64970938Y-121203172D01*
X65099782Y-121396000D01*
X65107736Y-121407905D01*
X65201964Y-121635390D01*
X65250000Y-121876884D01*
X65250000Y-122123116D01*
X65201964Y-122364610D01*
X65107736Y-122592095D01*
X65107735Y-122592097D01*
X64970938Y-122796828D01*
X64796828Y-122970938D01*
X64592097Y-123107735D01*
X64592096Y-123107736D01*
X64592095Y-123107736D01*
X64364610Y-123201964D01*
X64123116Y-123250000D01*
X63876884Y-123250000D01*
X63635390Y-123201964D01*
X63407905Y-123107736D01*
X63407904Y-123107736D01*
X63407903Y-123107735D01*
X63203172Y-122970938D01*
X63029062Y-122796828D01*
X62892265Y-122592097D01*
X62892264Y-122592095D01*
X62798036Y-122364610D01*
X62750000Y-122123116D01*
X62750000Y-121876884D01*
X62798036Y-121635390D01*
X62892264Y-121407905D01*
X62900219Y-121396000D01*
X63029062Y-121203172D01*
X63203172Y-121029062D01*
X63407903Y-120892265D01*
X63424894Y-120885227D01*
X63635390Y-120798036D01*
X63876884Y-120750000D01*
X64123116Y-120750000D01*
X64364610Y-120798036D01*
X64364610Y-120798036D01*
G37*
G36*
X83483000Y-120821000D02*
G01*
X83376640Y-120821000D01*
X83352254Y-120823402D01*
X83328805Y-120830515D01*
X83307194Y-120842066D01*
X83288252Y-120857611D01*
X83272707Y-120876553D01*
X83261156Y-120898164D01*
X83254043Y-120921613D01*
X83251641Y-120945999D01*
X83254043Y-120970385D01*
X83261156Y-120993834D01*
X83272707Y-121015445D01*
X83288252Y-121034387D01*
X83297342Y-121042625D01*
X83359975Y-121094025D01*
X83399250Y-121141883D01*
X83413084Y-121158740D01*
X83413085Y-121158742D01*
X83452549Y-121232573D01*
X83476851Y-121312684D01*
X83485056Y-121396000D01*
X83476851Y-121479316D01*
X83452549Y-121559427D01*
X83415633Y-121628492D01*
X83413084Y-121633260D01*
X83399250Y-121650117D01*
X83359975Y-121697975D01*
X83312117Y-121737250D01*
X83295260Y-121751084D01*
X83295258Y-121751085D01*
X83221427Y-121790549D01*
X83141316Y-121814851D01*
X83078878Y-121821000D01*
X83037122Y-121821000D01*
X82974684Y-121814851D01*
X82894573Y-121790549D01*
X82820742Y-121751085D01*
X82820740Y-121751084D01*
X82803883Y-121737250D01*
X82756025Y-121697975D01*
X82716750Y-121650117D01*
X82702916Y-121633260D01*
X82700368Y-121628492D01*
X82663451Y-121559427D01*
X82639149Y-121479316D01*
X82630944Y-121396000D01*
X82639149Y-121312684D01*
X82663451Y-121232573D01*
X82702915Y-121158742D01*
X82702916Y-121158740D01*
X82716750Y-121141883D01*
X82756025Y-121094025D01*
X82818658Y-121042625D01*
X82835985Y-121025298D01*
X82849599Y-121004924D01*
X82858976Y-120982285D01*
X82863757Y-120958252D01*
X82863757Y-120933748D01*
X82858977Y-120909715D01*
X82849600Y-120887076D01*
X82835986Y-120866701D01*
X82818659Y-120849374D01*
X82798285Y-120835760D01*
X82775646Y-120826383D01*
X82751613Y-120821602D01*
X82739360Y-120821000D01*
X82633000Y-120821000D01*
X82633000Y-119971000D01*
X83483000Y-119971000D01*
X83483000Y-120821000D01*
X83483000Y-120821000D01*
G37*
G36*
X101300000Y-120300000D02*
G01*
X98700000Y-120300000D01*
X98700000Y-117700000D01*
X101300000Y-117700000D01*
X101300000Y-120300000D01*
X101300000Y-120300000D01*
G37*
G36*
X105253617Y-117724979D02*
G01*
X105379196Y-117749958D01*
X105615781Y-117847955D01*
X105828702Y-117990224D01*
X106009776Y-118171298D01*
X106152045Y-118384219D01*
X106152046Y-118384221D01*
X106164297Y-118413797D01*
X106248493Y-118617064D01*
X106250042Y-118620805D01*
X106285329Y-118798202D01*
X106300000Y-118871961D01*
X106300000Y-119128039D01*
X106250042Y-119379196D01*
X106152045Y-119615781D01*
X106009776Y-119828702D01*
X105828702Y-120009776D01*
X105615781Y-120152045D01*
X105379196Y-120250042D01*
X105128040Y-120300000D01*
X104871960Y-120300000D01*
X104620804Y-120250042D01*
X104384219Y-120152045D01*
X104171298Y-120009776D01*
X103990224Y-119828702D01*
X103847955Y-119615781D01*
X103749958Y-119379196D01*
X103700000Y-119128039D01*
X103700000Y-118871961D01*
X103714672Y-118798202D01*
X103749958Y-118620805D01*
X103751508Y-118617064D01*
X103835703Y-118413797D01*
X103847954Y-118384221D01*
X103847955Y-118384219D01*
X103990224Y-118171298D01*
X104171298Y-117990224D01*
X104384219Y-117847955D01*
X104620804Y-117749958D01*
X104746383Y-117724979D01*
X104871960Y-117700000D01*
X105128040Y-117700000D01*
X105253617Y-117724979D01*
X105253617Y-117724979D01*
G37*
G36*
X149897535Y-118621019D02*
G01*
X149930249Y-118630943D01*
X149960396Y-118647057D01*
X149986826Y-118668749D01*
X150008518Y-118695179D01*
X150024632Y-118725326D01*
X150034556Y-118758040D01*
X150038511Y-118798202D01*
X150038511Y-119385926D01*
X150034556Y-119426088D01*
X150024632Y-119458802D01*
X150008518Y-119488949D01*
X149986826Y-119515379D01*
X149960396Y-119537071D01*
X149930249Y-119553185D01*
X149897535Y-119563109D01*
X149857373Y-119567064D01*
X149169649Y-119567064D01*
X149129487Y-119563109D01*
X149096773Y-119553185D01*
X149066626Y-119537071D01*
X149040196Y-119515379D01*
X149018504Y-119488949D01*
X149002390Y-119458802D01*
X148992466Y-119426088D01*
X148988511Y-119385926D01*
X148988511Y-118798202D01*
X148992466Y-118758040D01*
X149002390Y-118725326D01*
X149018504Y-118695179D01*
X149040196Y-118668749D01*
X149066626Y-118647057D01*
X149096773Y-118630943D01*
X149129487Y-118621019D01*
X149169649Y-118617064D01*
X149857373Y-118617064D01*
X149897535Y-118621019D01*
X149897535Y-118621019D01*
G37*
G36*
X153453535Y-118621019D02*
G01*
X153486249Y-118630943D01*
X153516396Y-118647057D01*
X153542826Y-118668749D01*
X153564518Y-118695179D01*
X153580632Y-118725326D01*
X153590556Y-118758040D01*
X153594511Y-118798202D01*
X153594511Y-119385926D01*
X153590556Y-119426088D01*
X153580632Y-119458802D01*
X153564518Y-119488949D01*
X153542826Y-119515379D01*
X153516396Y-119537071D01*
X153486249Y-119553185D01*
X153453535Y-119563109D01*
X153413373Y-119567064D01*
X152725649Y-119567064D01*
X152685487Y-119563109D01*
X152652773Y-119553185D01*
X152622626Y-119537071D01*
X152596196Y-119515379D01*
X152574504Y-119488949D01*
X152558390Y-119458802D01*
X152548466Y-119426088D01*
X152544511Y-119385926D01*
X152544511Y-118798202D01*
X152548466Y-118758040D01*
X152558390Y-118725326D01*
X152574504Y-118695179D01*
X152596196Y-118668749D01*
X152622626Y-118647057D01*
X152652773Y-118630943D01*
X152685487Y-118621019D01*
X152725649Y-118617064D01*
X153413373Y-118617064D01*
X153453535Y-118621019D01*
X153453535Y-118621019D01*
G37*
G36*
X151703535Y-118621019D02*
G01*
X151736249Y-118630943D01*
X151766396Y-118647057D01*
X151792826Y-118668749D01*
X151814518Y-118695179D01*
X151830632Y-118725326D01*
X151840556Y-118758040D01*
X151844511Y-118798202D01*
X151844511Y-119385926D01*
X151840556Y-119426088D01*
X151830632Y-119458802D01*
X151814518Y-119488949D01*
X151792826Y-119515379D01*
X151766396Y-119537071D01*
X151736249Y-119553185D01*
X151703535Y-119563109D01*
X151663373Y-119567064D01*
X150975649Y-119567064D01*
X150935487Y-119563109D01*
X150902773Y-119553185D01*
X150872626Y-119537071D01*
X150846196Y-119515379D01*
X150824504Y-119488949D01*
X150808390Y-119458802D01*
X150798466Y-119426088D01*
X150794511Y-119385926D01*
X150794511Y-118798202D01*
X150798466Y-118758040D01*
X150808390Y-118725326D01*
X150824504Y-118695179D01*
X150846196Y-118668749D01*
X150872626Y-118647057D01*
X150902773Y-118630943D01*
X150935487Y-118621019D01*
X150975649Y-118617064D01*
X151663373Y-118617064D01*
X151703535Y-118621019D01*
X151703535Y-118621019D01*
G37*
G36*
X148147535Y-118621019D02*
G01*
X148180249Y-118630943D01*
X148210396Y-118647057D01*
X148236826Y-118668749D01*
X148258518Y-118695179D01*
X148274632Y-118725326D01*
X148284556Y-118758040D01*
X148288511Y-118798202D01*
X148288511Y-119385926D01*
X148284556Y-119426088D01*
X148274632Y-119458802D01*
X148258518Y-119488949D01*
X148236826Y-119515379D01*
X148210396Y-119537071D01*
X148180249Y-119553185D01*
X148147535Y-119563109D01*
X148107373Y-119567064D01*
X147419649Y-119567064D01*
X147379487Y-119563109D01*
X147346773Y-119553185D01*
X147316626Y-119537071D01*
X147290196Y-119515379D01*
X147268504Y-119488949D01*
X147252390Y-119458802D01*
X147242466Y-119426088D01*
X147238511Y-119385926D01*
X147238511Y-118798202D01*
X147242466Y-118758040D01*
X147252390Y-118725326D01*
X147268504Y-118695179D01*
X147290196Y-118668749D01*
X147316626Y-118647057D01*
X147346773Y-118630943D01*
X147379487Y-118621019D01*
X147419649Y-118617064D01*
X148107373Y-118617064D01*
X148147535Y-118621019D01*
X148147535Y-118621019D01*
G37*
G36*
X70432000Y-119366000D02*
G01*
X66732000Y-119366000D01*
X66732000Y-115966000D01*
X70432000Y-115966000D01*
X70432000Y-119366000D01*
X70432000Y-119366000D01*
G37*
G36*
X77832000Y-119366000D02*
G01*
X74132000Y-119366000D01*
X74132000Y-115966000D01*
X77832000Y-115966000D01*
X77832000Y-119366000D01*
X77832000Y-119366000D01*
G37*
G36*
X176049561Y-119064668D02*
G01*
X175349561Y-119064668D01*
X175349561Y-117464668D01*
X176049561Y-117464668D01*
X176049561Y-119064668D01*
X176049561Y-119064668D01*
G37*
G36*
X172239561Y-119064668D02*
G01*
X171539561Y-119064668D01*
X171539561Y-117464668D01*
X172239561Y-117464668D01*
X172239561Y-119064668D01*
X172239561Y-119064668D01*
G37*
G36*
X173509561Y-119064668D02*
G01*
X172809561Y-119064668D01*
X172809561Y-117464668D01*
X173509561Y-117464668D01*
X173509561Y-119064668D01*
X173509561Y-119064668D01*
G37*
G36*
X174779561Y-119064668D02*
G01*
X174079561Y-119064668D01*
X174079561Y-117464668D01*
X174779561Y-117464668D01*
X174779561Y-119064668D01*
X174779561Y-119064668D01*
G37*
G36*
X162973825Y-115087745D02*
G01*
X163004490Y-115097048D01*
X163032748Y-115112152D01*
X163057519Y-115132481D01*
X163077848Y-115157252D01*
X163092952Y-115185510D01*
X163102255Y-115216175D01*
X163106000Y-115254203D01*
X163106000Y-118413797D01*
X163102255Y-118451825D01*
X163092952Y-118482490D01*
X163077848Y-118510748D01*
X163057519Y-118535519D01*
X163032748Y-118555848D01*
X163004490Y-118570952D01*
X162973825Y-118580255D01*
X162935797Y-118584000D01*
X161676203Y-118584000D01*
X161638175Y-118580255D01*
X161607510Y-118570952D01*
X161579252Y-118555848D01*
X161554481Y-118535519D01*
X161534152Y-118510748D01*
X161519048Y-118482490D01*
X161509745Y-118451825D01*
X161506000Y-118413797D01*
X161506000Y-115254203D01*
X161509745Y-115216175D01*
X161519048Y-115185510D01*
X161534152Y-115157252D01*
X161554481Y-115132481D01*
X161579252Y-115112152D01*
X161607510Y-115097048D01*
X161638175Y-115087745D01*
X161676203Y-115084000D01*
X162935797Y-115084000D01*
X162973825Y-115087745D01*
X162973825Y-115087745D01*
G37*
G36*
X155576535Y-117414019D02*
G01*
X155609249Y-117423943D01*
X155639396Y-117440057D01*
X155665826Y-117461749D01*
X155687518Y-117488179D01*
X155703632Y-117518326D01*
X155713556Y-117551040D01*
X155717511Y-117591202D01*
X155717511Y-118278926D01*
X155713556Y-118319088D01*
X155703632Y-118351802D01*
X155687518Y-118381949D01*
X155665826Y-118408379D01*
X155639396Y-118430071D01*
X155609249Y-118446185D01*
X155576535Y-118456109D01*
X155536373Y-118460064D01*
X154948649Y-118460064D01*
X154908487Y-118456109D01*
X154875773Y-118446185D01*
X154845626Y-118430071D01*
X154819196Y-118408379D01*
X154797504Y-118381949D01*
X154781390Y-118351802D01*
X154771466Y-118319088D01*
X154767511Y-118278926D01*
X154767511Y-117591202D01*
X154771466Y-117551040D01*
X154781390Y-117518326D01*
X154797504Y-117488179D01*
X154819196Y-117461749D01*
X154845626Y-117440057D01*
X154875773Y-117423943D01*
X154908487Y-117414019D01*
X154948649Y-117410064D01*
X155536373Y-117410064D01*
X155576535Y-117414019D01*
X155576535Y-117414019D01*
G37*
G36*
X151800957Y-117050397D02*
G01*
X151833671Y-117060321D01*
X151863818Y-117076435D01*
X151890248Y-117098127D01*
X151911940Y-117124557D01*
X151928054Y-117154704D01*
X151937978Y-117187418D01*
X151941933Y-117227580D01*
X151941933Y-117815304D01*
X151937978Y-117855466D01*
X151928054Y-117888180D01*
X151911940Y-117918327D01*
X151890248Y-117944757D01*
X151863818Y-117966449D01*
X151833671Y-117982563D01*
X151800957Y-117992487D01*
X151760795Y-117996442D01*
X151073071Y-117996442D01*
X151032909Y-117992487D01*
X151000195Y-117982563D01*
X150970048Y-117966449D01*
X150943618Y-117944757D01*
X150921926Y-117918327D01*
X150905812Y-117888180D01*
X150895888Y-117855466D01*
X150891933Y-117815304D01*
X150891933Y-117227580D01*
X150895888Y-117187418D01*
X150905812Y-117154704D01*
X150921926Y-117124557D01*
X150943618Y-117098127D01*
X150970048Y-117076435D01*
X151000195Y-117060321D01*
X151032909Y-117050397D01*
X151073071Y-117046442D01*
X151760795Y-117046442D01*
X151800957Y-117050397D01*
X151800957Y-117050397D01*
G37*
G36*
X153550957Y-117050397D02*
G01*
X153583671Y-117060321D01*
X153613818Y-117076435D01*
X153640248Y-117098127D01*
X153661940Y-117124557D01*
X153678054Y-117154704D01*
X153687978Y-117187418D01*
X153691933Y-117227580D01*
X153691933Y-117815304D01*
X153687978Y-117855466D01*
X153678054Y-117888180D01*
X153661940Y-117918327D01*
X153640248Y-117944757D01*
X153613818Y-117966449D01*
X153583671Y-117982563D01*
X153550957Y-117992487D01*
X153510795Y-117996442D01*
X152823071Y-117996442D01*
X152782909Y-117992487D01*
X152750195Y-117982563D01*
X152720048Y-117966449D01*
X152693618Y-117944757D01*
X152671926Y-117918327D01*
X152655812Y-117888180D01*
X152645888Y-117855466D01*
X152641933Y-117815304D01*
X152641933Y-117227580D01*
X152645888Y-117187418D01*
X152655812Y-117154704D01*
X152671926Y-117124557D01*
X152693618Y-117098127D01*
X152720048Y-117076435D01*
X152750195Y-117060321D01*
X152782909Y-117050397D01*
X152823071Y-117046442D01*
X153510795Y-117046442D01*
X153550957Y-117050397D01*
X153550957Y-117050397D01*
G37*
G36*
X170514024Y-115669955D02*
G01*
X170546738Y-115679879D01*
X170576885Y-115695993D01*
X170603315Y-115717685D01*
X170625007Y-115744115D01*
X170641121Y-115774262D01*
X170651045Y-115806976D01*
X170655000Y-115847138D01*
X170655000Y-116534862D01*
X170651045Y-116575024D01*
X170641121Y-116607738D01*
X170625007Y-116637885D01*
X170603315Y-116664315D01*
X170576885Y-116686007D01*
X170546738Y-116702121D01*
X170514024Y-116712045D01*
X170473862Y-116716000D01*
X169886138Y-116716000D01*
X169845976Y-116712045D01*
X169813262Y-116702121D01*
X169783115Y-116686007D01*
X169756685Y-116664315D01*
X169734993Y-116637885D01*
X169718879Y-116607738D01*
X169708955Y-116575024D01*
X169705000Y-116534862D01*
X169705000Y-115847138D01*
X169708955Y-115806976D01*
X169718879Y-115774262D01*
X169734993Y-115744115D01*
X169756685Y-115717685D01*
X169783115Y-115695993D01*
X169813262Y-115679879D01*
X169845976Y-115669955D01*
X169886138Y-115666000D01*
X170473862Y-115666000D01*
X170514024Y-115669955D01*
X170514024Y-115669955D01*
G37*
G36*
X155576535Y-115664019D02*
G01*
X155609249Y-115673943D01*
X155639396Y-115690057D01*
X155665826Y-115711749D01*
X155687518Y-115738179D01*
X155703632Y-115768326D01*
X155713556Y-115801040D01*
X155717511Y-115841202D01*
X155717511Y-116528926D01*
X155713556Y-116569088D01*
X155703632Y-116601802D01*
X155687518Y-116631949D01*
X155665826Y-116658379D01*
X155639396Y-116680071D01*
X155609249Y-116696185D01*
X155576535Y-116706109D01*
X155536373Y-116710064D01*
X154948649Y-116710064D01*
X154908487Y-116706109D01*
X154875773Y-116696185D01*
X154845626Y-116680071D01*
X154819196Y-116658379D01*
X154797504Y-116631949D01*
X154781390Y-116601802D01*
X154771466Y-116569088D01*
X154767511Y-116528926D01*
X154767511Y-115841202D01*
X154771466Y-115801040D01*
X154781390Y-115768326D01*
X154797504Y-115738179D01*
X154819196Y-115711749D01*
X154845626Y-115690057D01*
X154875773Y-115673943D01*
X154908487Y-115664019D01*
X154948649Y-115660064D01*
X155536373Y-115660064D01*
X155576535Y-115664019D01*
X155576535Y-115664019D01*
G37*
G36*
X153069511Y-113499065D02*
G01*
X153071913Y-113523451D01*
X153079026Y-113546900D01*
X153090577Y-113568511D01*
X153106122Y-113587453D01*
X153125064Y-113602998D01*
X153146675Y-113614549D01*
X153170124Y-113621662D01*
X153194510Y-113624064D01*
X154069511Y-113624064D01*
X154069511Y-115924064D01*
X153194510Y-115924064D01*
X153170124Y-115926466D01*
X153146675Y-115933579D01*
X153125064Y-115945130D01*
X153106122Y-115960675D01*
X153090577Y-115979617D01*
X153079026Y-116001228D01*
X153071913Y-116024677D01*
X153069511Y-116049063D01*
X153069511Y-116124064D01*
X151319511Y-116124064D01*
X151319511Y-116049063D01*
X151317109Y-116024677D01*
X151309996Y-116001228D01*
X151298445Y-115979617D01*
X151282900Y-115960675D01*
X151263958Y-115945130D01*
X151242347Y-115933579D01*
X151218898Y-115926466D01*
X151194512Y-115924064D01*
X150319511Y-115924064D01*
X150319511Y-113624064D01*
X151194512Y-113624064D01*
X151218898Y-113621662D01*
X151242347Y-113614549D01*
X151263958Y-113602998D01*
X151282900Y-113587453D01*
X151298445Y-113568511D01*
X151309996Y-113546900D01*
X151317109Y-113523451D01*
X151319511Y-113499065D01*
X151319511Y-113424064D01*
X153069511Y-113424064D01*
X153069511Y-113499065D01*
X153069511Y-113499065D01*
G37*
G36*
X156328511Y-113708421D02*
G01*
X156330913Y-113732807D01*
X156338026Y-113756256D01*
X156349577Y-113777867D01*
X156365122Y-113796809D01*
X156384064Y-113812354D01*
X156405677Y-113823906D01*
X156410086Y-113825732D01*
X156486345Y-113876687D01*
X156524735Y-113902338D01*
X156622237Y-113999840D01*
X156622238Y-113999842D01*
X156698845Y-114114492D01*
X156742091Y-114218899D01*
X156753642Y-114240510D01*
X156769187Y-114259452D01*
X156788129Y-114274998D01*
X156809739Y-114286549D01*
X156833188Y-114293662D01*
X156857575Y-114296064D01*
X158199447Y-114296064D01*
X158223833Y-114293662D01*
X158247282Y-114286549D01*
X158268893Y-114274998D01*
X158287835Y-114259453D01*
X158303380Y-114240511D01*
X158314931Y-114218899D01*
X158358177Y-114114492D01*
X158434784Y-113999842D01*
X158434785Y-113999840D01*
X158532287Y-113902338D01*
X158570677Y-113876687D01*
X158646936Y-113825732D01*
X158651345Y-113823906D01*
X158672956Y-113812355D01*
X158691898Y-113796810D01*
X158707444Y-113777869D01*
X158718995Y-113756258D01*
X158726109Y-113732809D01*
X158728511Y-113708421D01*
X158728511Y-113546064D01*
X159678511Y-113546064D01*
X159678511Y-114525911D01*
X159672212Y-114546677D01*
X159651611Y-114650246D01*
X159598844Y-114777637D01*
X159567181Y-114825024D01*
X159522237Y-114892288D01*
X159424735Y-114989790D01*
X159367021Y-115028353D01*
X159310084Y-115066397D01*
X159182693Y-115119164D01*
X159079124Y-115139765D01*
X159058358Y-115146064D01*
X155998664Y-115146064D01*
X155977898Y-115139765D01*
X155874329Y-115119164D01*
X155746938Y-115066397D01*
X155690001Y-115028353D01*
X155632287Y-114989790D01*
X155534785Y-114892288D01*
X155489841Y-114825024D01*
X155458178Y-114777637D01*
X155405411Y-114650246D01*
X155384810Y-114546677D01*
X155378511Y-114525911D01*
X155378511Y-113546064D01*
X156328511Y-113546064D01*
X156328511Y-113708421D01*
X156328511Y-113708421D01*
G37*
G36*
X77716000Y-115034000D02*
G01*
X76716000Y-115034000D01*
X76716000Y-114034000D01*
X77716000Y-114034000D01*
X77716000Y-115034000D01*
X77716000Y-115034000D01*
G37*
G36*
X170514024Y-113919955D02*
G01*
X170546738Y-113929879D01*
X170576885Y-113945993D01*
X170603315Y-113967685D01*
X170625007Y-113994115D01*
X170641121Y-114024262D01*
X170651045Y-114056976D01*
X170655000Y-114097138D01*
X170655000Y-114784862D01*
X170651045Y-114825024D01*
X170641121Y-114857738D01*
X170625007Y-114887885D01*
X170603315Y-114914315D01*
X170576885Y-114936007D01*
X170546738Y-114952121D01*
X170514024Y-114962045D01*
X170473862Y-114966000D01*
X169886138Y-114966000D01*
X169845976Y-114962045D01*
X169813262Y-114952121D01*
X169783115Y-114936007D01*
X169756685Y-114914315D01*
X169734993Y-114887885D01*
X169718879Y-114857738D01*
X169708955Y-114825024D01*
X169705000Y-114784862D01*
X169705000Y-114097138D01*
X169708955Y-114056976D01*
X169718879Y-114024262D01*
X169734993Y-113994115D01*
X169756685Y-113967685D01*
X169783115Y-113945993D01*
X169813262Y-113929879D01*
X169845976Y-113919955D01*
X169886138Y-113916000D01*
X170473862Y-113916000D01*
X170514024Y-113919955D01*
X170514024Y-113919955D01*
G37*
G36*
X149432024Y-113891955D02*
G01*
X149464738Y-113901879D01*
X149494885Y-113917993D01*
X149521315Y-113939685D01*
X149543007Y-113966115D01*
X149559121Y-113996262D01*
X149569045Y-114028976D01*
X149573000Y-114069138D01*
X149573000Y-114756862D01*
X149569045Y-114797024D01*
X149559121Y-114829738D01*
X149543007Y-114859885D01*
X149521315Y-114886315D01*
X149494885Y-114908007D01*
X149464738Y-114924121D01*
X149432024Y-114934045D01*
X149391862Y-114938000D01*
X148804138Y-114938000D01*
X148763976Y-114934045D01*
X148731262Y-114924121D01*
X148701115Y-114908007D01*
X148674685Y-114886315D01*
X148652993Y-114859885D01*
X148636879Y-114829738D01*
X148626955Y-114797024D01*
X148623000Y-114756862D01*
X148623000Y-114069138D01*
X148626955Y-114028976D01*
X148636879Y-113996262D01*
X148652993Y-113966115D01*
X148674685Y-113939685D01*
X148701115Y-113917993D01*
X148731262Y-113901879D01*
X148763976Y-113891955D01*
X148804138Y-113888000D01*
X149391862Y-113888000D01*
X149432024Y-113891955D01*
X149432024Y-113891955D01*
G37*
G36*
X172239561Y-114134668D02*
G01*
X171539561Y-114134668D01*
X171539561Y-112534668D01*
X172239561Y-112534668D01*
X172239561Y-114134668D01*
X172239561Y-114134668D01*
G37*
G36*
X176049561Y-114134668D02*
G01*
X175349561Y-114134668D01*
X175349561Y-112534668D01*
X176049561Y-112534668D01*
X176049561Y-114134668D01*
X176049561Y-114134668D01*
G37*
G36*
X174779561Y-114134668D02*
G01*
X174079561Y-114134668D01*
X174079561Y-112534668D01*
X174779561Y-112534668D01*
X174779561Y-114134668D01*
X174779561Y-114134668D01*
G37*
G36*
X173509561Y-114134668D02*
G01*
X172809561Y-114134668D01*
X172809561Y-112534668D01*
X173509561Y-112534668D01*
X173509561Y-114134668D01*
X173509561Y-114134668D01*
G37*
G36*
X149432024Y-112141955D02*
G01*
X149464738Y-112151879D01*
X149494885Y-112167993D01*
X149521315Y-112189685D01*
X149543007Y-112216115D01*
X149559121Y-112246262D01*
X149569045Y-112278976D01*
X149573000Y-112319138D01*
X149573000Y-113006862D01*
X149569045Y-113047024D01*
X149559121Y-113079738D01*
X149543007Y-113109885D01*
X149521315Y-113136315D01*
X149494885Y-113158007D01*
X149464738Y-113174121D01*
X149432024Y-113184045D01*
X149391862Y-113188000D01*
X148804138Y-113188000D01*
X148763976Y-113184045D01*
X148731262Y-113174121D01*
X148701115Y-113158007D01*
X148674685Y-113136315D01*
X148652993Y-113109885D01*
X148636879Y-113079738D01*
X148626955Y-113047024D01*
X148623000Y-113006862D01*
X148623000Y-112319138D01*
X148626955Y-112278976D01*
X148636879Y-112246262D01*
X148652993Y-112216115D01*
X148674685Y-112189685D01*
X148701115Y-112167993D01*
X148731262Y-112151879D01*
X148763976Y-112141955D01*
X148804138Y-112138000D01*
X149391862Y-112138000D01*
X149432024Y-112141955D01*
X149432024Y-112141955D01*
G37*
G36*
X73931024Y-111796955D02*
G01*
X73963738Y-111806879D01*
X73993885Y-111822993D01*
X74020315Y-111844685D01*
X74042007Y-111871115D01*
X74058121Y-111901262D01*
X74068045Y-111933976D01*
X74072000Y-111974138D01*
X74072000Y-112561862D01*
X74068045Y-112602024D01*
X74058121Y-112634738D01*
X74042007Y-112664885D01*
X74020315Y-112691315D01*
X73993885Y-112713007D01*
X73963738Y-112729121D01*
X73931024Y-112739045D01*
X73890862Y-112743000D01*
X73203138Y-112743000D01*
X73162976Y-112739045D01*
X73130262Y-112729121D01*
X73100115Y-112713007D01*
X73073685Y-112691315D01*
X73051993Y-112664885D01*
X73035879Y-112634738D01*
X73025955Y-112602024D01*
X73022000Y-112561862D01*
X73022000Y-111974138D01*
X73025955Y-111933976D01*
X73035879Y-111901262D01*
X73051993Y-111871115D01*
X73073685Y-111844685D01*
X73100115Y-111822993D01*
X73130262Y-111806879D01*
X73162976Y-111796955D01*
X73203138Y-111793000D01*
X73890862Y-111793000D01*
X73931024Y-111796955D01*
X73931024Y-111796955D01*
G37*
G36*
X75681024Y-111796955D02*
G01*
X75713738Y-111806879D01*
X75743885Y-111822993D01*
X75770315Y-111844685D01*
X75792007Y-111871115D01*
X75808121Y-111901262D01*
X75818045Y-111933976D01*
X75822000Y-111974138D01*
X75822000Y-112561862D01*
X75818045Y-112602024D01*
X75808121Y-112634738D01*
X75792007Y-112664885D01*
X75770315Y-112691315D01*
X75743885Y-112713007D01*
X75713738Y-112729121D01*
X75681024Y-112739045D01*
X75640862Y-112743000D01*
X74953138Y-112743000D01*
X74912976Y-112739045D01*
X74880262Y-112729121D01*
X74850115Y-112713007D01*
X74823685Y-112691315D01*
X74801993Y-112664885D01*
X74785879Y-112634738D01*
X74775955Y-112602024D01*
X74772000Y-112561862D01*
X74772000Y-111974138D01*
X74775955Y-111933976D01*
X74785879Y-111901262D01*
X74801993Y-111871115D01*
X74823685Y-111844685D01*
X74850115Y-111822993D01*
X74880262Y-111806879D01*
X74912976Y-111796955D01*
X74953138Y-111793000D01*
X75640862Y-111793000D01*
X75681024Y-111796955D01*
X75681024Y-111796955D01*
G37*
G36*
X154215535Y-111763019D02*
G01*
X154248249Y-111772943D01*
X154278396Y-111789057D01*
X154304826Y-111810749D01*
X154326518Y-111837179D01*
X154342632Y-111867326D01*
X154352556Y-111900040D01*
X154356511Y-111940202D01*
X154356511Y-112527926D01*
X154352556Y-112568088D01*
X154342632Y-112600802D01*
X154326518Y-112630949D01*
X154304826Y-112657379D01*
X154278396Y-112679071D01*
X154248249Y-112695185D01*
X154215535Y-112705109D01*
X154175373Y-112709064D01*
X153487649Y-112709064D01*
X153447487Y-112705109D01*
X153414773Y-112695185D01*
X153384626Y-112679071D01*
X153358196Y-112657379D01*
X153336504Y-112630949D01*
X153320390Y-112600802D01*
X153310466Y-112568088D01*
X153306511Y-112527926D01*
X153306511Y-111940202D01*
X153310466Y-111900040D01*
X153320390Y-111867326D01*
X153336504Y-111837179D01*
X153358196Y-111810749D01*
X153384626Y-111789057D01*
X153414773Y-111772943D01*
X153447487Y-111763019D01*
X153487649Y-111759064D01*
X154175373Y-111759064D01*
X154215535Y-111763019D01*
X154215535Y-111763019D01*
G37*
G36*
X152465535Y-111763019D02*
G01*
X152498249Y-111772943D01*
X152528396Y-111789057D01*
X152554826Y-111810749D01*
X152576518Y-111837179D01*
X152592632Y-111867326D01*
X152602556Y-111900040D01*
X152606511Y-111940202D01*
X152606511Y-112527926D01*
X152602556Y-112568088D01*
X152592632Y-112600802D01*
X152576518Y-112630949D01*
X152554826Y-112657379D01*
X152528396Y-112679071D01*
X152498249Y-112695185D01*
X152465535Y-112705109D01*
X152425373Y-112709064D01*
X151737649Y-112709064D01*
X151697487Y-112705109D01*
X151664773Y-112695185D01*
X151634626Y-112679071D01*
X151608196Y-112657379D01*
X151586504Y-112630949D01*
X151570390Y-112600802D01*
X151560466Y-112568088D01*
X151556511Y-112527926D01*
X151556511Y-111940202D01*
X151560466Y-111900040D01*
X151570390Y-111867326D01*
X151586504Y-111837179D01*
X151608196Y-111810749D01*
X151634626Y-111789057D01*
X151664773Y-111772943D01*
X151697487Y-111763019D01*
X151737649Y-111759064D01*
X152425373Y-111759064D01*
X152465535Y-111763019D01*
X152465535Y-111763019D01*
G37*
G36*
X77716000Y-112534000D02*
G01*
X76716000Y-112534000D01*
X76716000Y-111534000D01*
X77716000Y-111534000D01*
X77716000Y-112534000D01*
X77716000Y-112534000D01*
G37*
G36*
X159079124Y-110852363D02*
G01*
X159182693Y-110872964D01*
X159310084Y-110925731D01*
X159367021Y-110963775D01*
X159424735Y-111002338D01*
X159522237Y-111099840D01*
X159522238Y-111099842D01*
X159598844Y-111214491D01*
X159651611Y-111341882D01*
X159672212Y-111445451D01*
X159678511Y-111466217D01*
X159678511Y-112446064D01*
X158728511Y-112446064D01*
X158728511Y-112283707D01*
X158726109Y-112259321D01*
X158718996Y-112235872D01*
X158707445Y-112214261D01*
X158691900Y-112195319D01*
X158672958Y-112179774D01*
X158651345Y-112168222D01*
X158646936Y-112166396D01*
X158570677Y-112115441D01*
X158532287Y-112089790D01*
X158434785Y-111992288D01*
X158406683Y-111950230D01*
X158358177Y-111877636D01*
X158314931Y-111773229D01*
X158303380Y-111751618D01*
X158287835Y-111732676D01*
X158268893Y-111717130D01*
X158247283Y-111705579D01*
X158223834Y-111698466D01*
X158199447Y-111696064D01*
X156857575Y-111696064D01*
X156833189Y-111698466D01*
X156809740Y-111705579D01*
X156788129Y-111717130D01*
X156769187Y-111732675D01*
X156753642Y-111751617D01*
X156742091Y-111773229D01*
X156698845Y-111877636D01*
X156650339Y-111950230D01*
X156622237Y-111992288D01*
X156524735Y-112089790D01*
X156486345Y-112115441D01*
X156410086Y-112166396D01*
X156405677Y-112168222D01*
X156384066Y-112179773D01*
X156365124Y-112195318D01*
X156349578Y-112214259D01*
X156338027Y-112235870D01*
X156330913Y-112259319D01*
X156328511Y-112283707D01*
X156328511Y-112446064D01*
X155378511Y-112446064D01*
X155378511Y-111466217D01*
X155384810Y-111445451D01*
X155405411Y-111341882D01*
X155458178Y-111214491D01*
X155534784Y-111099842D01*
X155534785Y-111099840D01*
X155632287Y-111002338D01*
X155690001Y-110963775D01*
X155746938Y-110925731D01*
X155874329Y-110872964D01*
X155977898Y-110852363D01*
X155998664Y-110846064D01*
X159058358Y-110846064D01*
X159079124Y-110852363D01*
X159079124Y-110852363D01*
G37*
G36*
X71546000Y-112056000D02*
G01*
X70446000Y-112056000D01*
X70446000Y-110956000D01*
X71546000Y-110956000D01*
X71546000Y-112056000D01*
X71546000Y-112056000D01*
G37*
G36*
X68746000Y-112056000D02*
G01*
X67646000Y-112056000D01*
X67646000Y-110956000D01*
X68746000Y-110956000D01*
X68746000Y-112056000D01*
X68746000Y-112056000D01*
G37*
G36*
X184167024Y-110780955D02*
G01*
X184199738Y-110790879D01*
X184229885Y-110806993D01*
X184256315Y-110828685D01*
X184278007Y-110855115D01*
X184294121Y-110885262D01*
X184304045Y-110917976D01*
X184308000Y-110958138D01*
X184308000Y-111545862D01*
X184304045Y-111586024D01*
X184294121Y-111618738D01*
X184278007Y-111648885D01*
X184256315Y-111675315D01*
X184229885Y-111697007D01*
X184199738Y-111713121D01*
X184167024Y-111723045D01*
X184126862Y-111727000D01*
X183439138Y-111727000D01*
X183398976Y-111723045D01*
X183366262Y-111713121D01*
X183336115Y-111697007D01*
X183309685Y-111675315D01*
X183287993Y-111648885D01*
X183271879Y-111618738D01*
X183261955Y-111586024D01*
X183258000Y-111545862D01*
X183258000Y-110958138D01*
X183261955Y-110917976D01*
X183271879Y-110885262D01*
X183287993Y-110855115D01*
X183309685Y-110828685D01*
X183336115Y-110806993D01*
X183366262Y-110790879D01*
X183398976Y-110780955D01*
X183439138Y-110777000D01*
X184126862Y-110777000D01*
X184167024Y-110780955D01*
X184167024Y-110780955D01*
G37*
G36*
X185917024Y-110780955D02*
G01*
X185949738Y-110790879D01*
X185979885Y-110806993D01*
X186006315Y-110828685D01*
X186028007Y-110855115D01*
X186044121Y-110885262D01*
X186054045Y-110917976D01*
X186058000Y-110958138D01*
X186058000Y-111545862D01*
X186054045Y-111586024D01*
X186044121Y-111618738D01*
X186028007Y-111648885D01*
X186006315Y-111675315D01*
X185979885Y-111697007D01*
X185949738Y-111713121D01*
X185917024Y-111723045D01*
X185876862Y-111727000D01*
X185189138Y-111727000D01*
X185148976Y-111723045D01*
X185116262Y-111713121D01*
X185086115Y-111697007D01*
X185059685Y-111675315D01*
X185037993Y-111648885D01*
X185021879Y-111618738D01*
X185011955Y-111586024D01*
X185008000Y-111545862D01*
X185008000Y-110958138D01*
X185011955Y-110917976D01*
X185021879Y-110885262D01*
X185037993Y-110855115D01*
X185059685Y-110828685D01*
X185086115Y-110806993D01*
X185116262Y-110790879D01*
X185148976Y-110780955D01*
X185189138Y-110777000D01*
X185876862Y-110777000D01*
X185917024Y-110780955D01*
X185917024Y-110780955D01*
G37*
G36*
X182064024Y-110667955D02*
G01*
X182096738Y-110677879D01*
X182126885Y-110693993D01*
X182153315Y-110715685D01*
X182175007Y-110742115D01*
X182191121Y-110772262D01*
X182201045Y-110804976D01*
X182205000Y-110845138D01*
X182205000Y-111532862D01*
X182201045Y-111573024D01*
X182191121Y-111605738D01*
X182175007Y-111635885D01*
X182153315Y-111662315D01*
X182126885Y-111684007D01*
X182096738Y-111700121D01*
X182064024Y-111710045D01*
X182023862Y-111714000D01*
X181436138Y-111714000D01*
X181395976Y-111710045D01*
X181363262Y-111700121D01*
X181333115Y-111684007D01*
X181306685Y-111662315D01*
X181284993Y-111635885D01*
X181268879Y-111605738D01*
X181258955Y-111573024D01*
X181255000Y-111532862D01*
X181255000Y-110845138D01*
X181258955Y-110804976D01*
X181268879Y-110772262D01*
X181284993Y-110742115D01*
X181306685Y-110715685D01*
X181333115Y-110693993D01*
X181363262Y-110677879D01*
X181395976Y-110667955D01*
X181436138Y-110664000D01*
X182023862Y-110664000D01*
X182064024Y-110667955D01*
X182064024Y-110667955D01*
G37*
G36*
X178564024Y-110667955D02*
G01*
X178596738Y-110677879D01*
X178626885Y-110693993D01*
X178653315Y-110715685D01*
X178675007Y-110742115D01*
X178691121Y-110772262D01*
X178701045Y-110804976D01*
X178705000Y-110845138D01*
X178705000Y-111532862D01*
X178701045Y-111573024D01*
X178691121Y-111605738D01*
X178675007Y-111635885D01*
X178653315Y-111662315D01*
X178626885Y-111684007D01*
X178596738Y-111700121D01*
X178564024Y-111710045D01*
X178523862Y-111714000D01*
X177936138Y-111714000D01*
X177895976Y-111710045D01*
X177863262Y-111700121D01*
X177833115Y-111684007D01*
X177806685Y-111662315D01*
X177784993Y-111635885D01*
X177768879Y-111605738D01*
X177758955Y-111573024D01*
X177755000Y-111532862D01*
X177755000Y-110845138D01*
X177758955Y-110804976D01*
X177768879Y-110772262D01*
X177784993Y-110742115D01*
X177806685Y-110715685D01*
X177833115Y-110693993D01*
X177863262Y-110677879D01*
X177895976Y-110667955D01*
X177936138Y-110664000D01*
X178523862Y-110664000D01*
X178564024Y-110667955D01*
X178564024Y-110667955D01*
G37*
G36*
X173564024Y-110667955D02*
G01*
X173596738Y-110677879D01*
X173626885Y-110693993D01*
X173653315Y-110715685D01*
X173675007Y-110742115D01*
X173691121Y-110772262D01*
X173701045Y-110804976D01*
X173705000Y-110845138D01*
X173705000Y-111532862D01*
X173701045Y-111573024D01*
X173691121Y-111605738D01*
X173675007Y-111635885D01*
X173653315Y-111662315D01*
X173626885Y-111684007D01*
X173596738Y-111700121D01*
X173564024Y-111710045D01*
X173523862Y-111714000D01*
X172936138Y-111714000D01*
X172895976Y-111710045D01*
X172863262Y-111700121D01*
X172833115Y-111684007D01*
X172806685Y-111662315D01*
X172784993Y-111635885D01*
X172768879Y-111605738D01*
X172758955Y-111573024D01*
X172755000Y-111532862D01*
X172755000Y-110845138D01*
X172758955Y-110804976D01*
X172768879Y-110772262D01*
X172784993Y-110742115D01*
X172806685Y-110715685D01*
X172833115Y-110693993D01*
X172863262Y-110677879D01*
X172895976Y-110667955D01*
X172936138Y-110664000D01*
X173523862Y-110664000D01*
X173564024Y-110667955D01*
X173564024Y-110667955D01*
G37*
G36*
X175314024Y-110667955D02*
G01*
X175346738Y-110677879D01*
X175376885Y-110693993D01*
X175403315Y-110715685D01*
X175425007Y-110742115D01*
X175441121Y-110772262D01*
X175451045Y-110804976D01*
X175455000Y-110845138D01*
X175455000Y-111532862D01*
X175451045Y-111573024D01*
X175441121Y-111605738D01*
X175425007Y-111635885D01*
X175403315Y-111662315D01*
X175376885Y-111684007D01*
X175346738Y-111700121D01*
X175314024Y-111710045D01*
X175273862Y-111714000D01*
X174686138Y-111714000D01*
X174645976Y-111710045D01*
X174613262Y-111700121D01*
X174583115Y-111684007D01*
X174556685Y-111662315D01*
X174534993Y-111635885D01*
X174518879Y-111605738D01*
X174508955Y-111573024D01*
X174505000Y-111532862D01*
X174505000Y-110845138D01*
X174508955Y-110804976D01*
X174518879Y-110772262D01*
X174534993Y-110742115D01*
X174556685Y-110715685D01*
X174583115Y-110693993D01*
X174613262Y-110677879D01*
X174645976Y-110667955D01*
X174686138Y-110664000D01*
X175273862Y-110664000D01*
X175314024Y-110667955D01*
X175314024Y-110667955D01*
G37*
G36*
X180314024Y-110667955D02*
G01*
X180346738Y-110677879D01*
X180376885Y-110693993D01*
X180403315Y-110715685D01*
X180425007Y-110742115D01*
X180441121Y-110772262D01*
X180451045Y-110804976D01*
X180455000Y-110845138D01*
X180455000Y-111532862D01*
X180451045Y-111573024D01*
X180441121Y-111605738D01*
X180425007Y-111635885D01*
X180403315Y-111662315D01*
X180376885Y-111684007D01*
X180346738Y-111700121D01*
X180314024Y-111710045D01*
X180273862Y-111714000D01*
X179686138Y-111714000D01*
X179645976Y-111710045D01*
X179613262Y-111700121D01*
X179583115Y-111684007D01*
X179556685Y-111662315D01*
X179534993Y-111635885D01*
X179518879Y-111605738D01*
X179508955Y-111573024D01*
X179505000Y-111532862D01*
X179505000Y-110845138D01*
X179508955Y-110804976D01*
X179518879Y-110772262D01*
X179534993Y-110742115D01*
X179556685Y-110715685D01*
X179583115Y-110693993D01*
X179613262Y-110677879D01*
X179645976Y-110667955D01*
X179686138Y-110664000D01*
X180273862Y-110664000D01*
X180314024Y-110667955D01*
X180314024Y-110667955D01*
G37*
G36*
X176878585Y-110653623D02*
G01*
X176911299Y-110663547D01*
X176941446Y-110679661D01*
X176967876Y-110701353D01*
X176989568Y-110727783D01*
X177005682Y-110757930D01*
X177015606Y-110790644D01*
X177019561Y-110830806D01*
X177019561Y-111518530D01*
X177015606Y-111558692D01*
X177005682Y-111591406D01*
X176989568Y-111621553D01*
X176967876Y-111647983D01*
X176941446Y-111669675D01*
X176911299Y-111685789D01*
X176878585Y-111695713D01*
X176838423Y-111699668D01*
X176250699Y-111699668D01*
X176210537Y-111695713D01*
X176177823Y-111685789D01*
X176147676Y-111669675D01*
X176121246Y-111647983D01*
X176099554Y-111621553D01*
X176083440Y-111591406D01*
X176073516Y-111558692D01*
X176069561Y-111518530D01*
X176069561Y-110830806D01*
X176073516Y-110790644D01*
X176083440Y-110757930D01*
X176099554Y-110727783D01*
X176121246Y-110701353D01*
X176147676Y-110679661D01*
X176177823Y-110663547D01*
X176210537Y-110653623D01*
X176250699Y-110649668D01*
X176838423Y-110649668D01*
X176878585Y-110653623D01*
X176878585Y-110653623D01*
G37*
G36*
X110718600Y-111391700D02*
G01*
X95529400Y-111391700D01*
X95529400Y-109689900D01*
X110718600Y-109689900D01*
X110718600Y-111391700D01*
X110718600Y-111391700D01*
G37*
G36*
X74910000Y-110079000D02*
G01*
X72410000Y-110079000D01*
X72410000Y-109429000D01*
X74910000Y-109429000D01*
X74910000Y-110079000D01*
X74910000Y-110079000D01*
G37*
G36*
X154713564Y-109997489D02*
G01*
X149383564Y-109997489D01*
X149383564Y-105297489D01*
X154713564Y-105297489D01*
X154713564Y-109997489D01*
X154713564Y-109997489D01*
G37*
G36*
X175314024Y-108917955D02*
G01*
X175346738Y-108927879D01*
X175376885Y-108943993D01*
X175403315Y-108965685D01*
X175425007Y-108992115D01*
X175441121Y-109022262D01*
X175451045Y-109054976D01*
X175455000Y-109095138D01*
X175455000Y-109782862D01*
X175451045Y-109823024D01*
X175441121Y-109855738D01*
X175425007Y-109885885D01*
X175403315Y-109912315D01*
X175376885Y-109934007D01*
X175346738Y-109950121D01*
X175314024Y-109960045D01*
X175273862Y-109964000D01*
X174686138Y-109964000D01*
X174645976Y-109960045D01*
X174613262Y-109950121D01*
X174583115Y-109934007D01*
X174556685Y-109912315D01*
X174534993Y-109885885D01*
X174518879Y-109855738D01*
X174508955Y-109823024D01*
X174505000Y-109782862D01*
X174505000Y-109095138D01*
X174508955Y-109054976D01*
X174518879Y-109022262D01*
X174534993Y-108992115D01*
X174556685Y-108965685D01*
X174583115Y-108943993D01*
X174613262Y-108927879D01*
X174645976Y-108917955D01*
X174686138Y-108914000D01*
X175273862Y-108914000D01*
X175314024Y-108917955D01*
X175314024Y-108917955D01*
G37*
G36*
X178564024Y-108917955D02*
G01*
X178596738Y-108927879D01*
X178626885Y-108943993D01*
X178653315Y-108965685D01*
X178675007Y-108992115D01*
X178691121Y-109022262D01*
X178701045Y-109054976D01*
X178705000Y-109095138D01*
X178705000Y-109782862D01*
X178701045Y-109823024D01*
X178691121Y-109855738D01*
X178675007Y-109885885D01*
X178653315Y-109912315D01*
X178626885Y-109934007D01*
X178596738Y-109950121D01*
X178564024Y-109960045D01*
X178523862Y-109964000D01*
X177936138Y-109964000D01*
X177895976Y-109960045D01*
X177863262Y-109950121D01*
X177833115Y-109934007D01*
X177806685Y-109912315D01*
X177784993Y-109885885D01*
X177768879Y-109855738D01*
X177758955Y-109823024D01*
X177755000Y-109782862D01*
X177755000Y-109095138D01*
X177758955Y-109054976D01*
X177768879Y-109022262D01*
X177784993Y-108992115D01*
X177806685Y-108965685D01*
X177833115Y-108943993D01*
X177863262Y-108927879D01*
X177895976Y-108917955D01*
X177936138Y-108914000D01*
X178523862Y-108914000D01*
X178564024Y-108917955D01*
X178564024Y-108917955D01*
G37*
G36*
X180314024Y-108917955D02*
G01*
X180346738Y-108927879D01*
X180376885Y-108943993D01*
X180403315Y-108965685D01*
X180425007Y-108992115D01*
X180441121Y-109022262D01*
X180451045Y-109054976D01*
X180455000Y-109095138D01*
X180455000Y-109782862D01*
X180451045Y-109823024D01*
X180441121Y-109855738D01*
X180425007Y-109885885D01*
X180403315Y-109912315D01*
X180376885Y-109934007D01*
X180346738Y-109950121D01*
X180314024Y-109960045D01*
X180273862Y-109964000D01*
X179686138Y-109964000D01*
X179645976Y-109960045D01*
X179613262Y-109950121D01*
X179583115Y-109934007D01*
X179556685Y-109912315D01*
X179534993Y-109885885D01*
X179518879Y-109855738D01*
X179508955Y-109823024D01*
X179505000Y-109782862D01*
X179505000Y-109095138D01*
X179508955Y-109054976D01*
X179518879Y-109022262D01*
X179534993Y-108992115D01*
X179556685Y-108965685D01*
X179583115Y-108943993D01*
X179613262Y-108927879D01*
X179645976Y-108917955D01*
X179686138Y-108914000D01*
X180273862Y-108914000D01*
X180314024Y-108917955D01*
X180314024Y-108917955D01*
G37*
G36*
X173564024Y-108917955D02*
G01*
X173596738Y-108927879D01*
X173626885Y-108943993D01*
X173653315Y-108965685D01*
X173675007Y-108992115D01*
X173691121Y-109022262D01*
X173701045Y-109054976D01*
X173705000Y-109095138D01*
X173705000Y-109782862D01*
X173701045Y-109823024D01*
X173691121Y-109855738D01*
X173675007Y-109885885D01*
X173653315Y-109912315D01*
X173626885Y-109934007D01*
X173596738Y-109950121D01*
X173564024Y-109960045D01*
X173523862Y-109964000D01*
X172936138Y-109964000D01*
X172895976Y-109960045D01*
X172863262Y-109950121D01*
X172833115Y-109934007D01*
X172806685Y-109912315D01*
X172784993Y-109885885D01*
X172768879Y-109855738D01*
X172758955Y-109823024D01*
X172755000Y-109782862D01*
X172755000Y-109095138D01*
X172758955Y-109054976D01*
X172768879Y-109022262D01*
X172784993Y-108992115D01*
X172806685Y-108965685D01*
X172833115Y-108943993D01*
X172863262Y-108927879D01*
X172895976Y-108917955D01*
X172936138Y-108914000D01*
X173523862Y-108914000D01*
X173564024Y-108917955D01*
X173564024Y-108917955D01*
G37*
G36*
X182064024Y-108917955D02*
G01*
X182096738Y-108927879D01*
X182126885Y-108943993D01*
X182153315Y-108965685D01*
X182175007Y-108992115D01*
X182191121Y-109022262D01*
X182201045Y-109054976D01*
X182205000Y-109095138D01*
X182205000Y-109782862D01*
X182201045Y-109823024D01*
X182191121Y-109855738D01*
X182175007Y-109885885D01*
X182153315Y-109912315D01*
X182126885Y-109934007D01*
X182096738Y-109950121D01*
X182064024Y-109960045D01*
X182023862Y-109964000D01*
X181436138Y-109964000D01*
X181395976Y-109960045D01*
X181363262Y-109950121D01*
X181333115Y-109934007D01*
X181306685Y-109912315D01*
X181284993Y-109885885D01*
X181268879Y-109855738D01*
X181258955Y-109823024D01*
X181255000Y-109782862D01*
X181255000Y-109095138D01*
X181258955Y-109054976D01*
X181268879Y-109022262D01*
X181284993Y-108992115D01*
X181306685Y-108965685D01*
X181333115Y-108943993D01*
X181363262Y-108927879D01*
X181395976Y-108917955D01*
X181436138Y-108914000D01*
X182023862Y-108914000D01*
X182064024Y-108917955D01*
X182064024Y-108917955D01*
G37*
G36*
X176878585Y-108903623D02*
G01*
X176911299Y-108913547D01*
X176941446Y-108929661D01*
X176967876Y-108951353D01*
X176989568Y-108977783D01*
X177005682Y-109007930D01*
X177015606Y-109040644D01*
X177019561Y-109080806D01*
X177019561Y-109768530D01*
X177015606Y-109808692D01*
X177005682Y-109841406D01*
X176989568Y-109871553D01*
X176967876Y-109897983D01*
X176941446Y-109919675D01*
X176911299Y-109935789D01*
X176878585Y-109945713D01*
X176838423Y-109949668D01*
X176250699Y-109949668D01*
X176210537Y-109945713D01*
X176177823Y-109935789D01*
X176147676Y-109919675D01*
X176121246Y-109897983D01*
X176099554Y-109871553D01*
X176083440Y-109841406D01*
X176073516Y-109808692D01*
X176069561Y-109768530D01*
X176069561Y-109080806D01*
X176073516Y-109040644D01*
X176083440Y-109007930D01*
X176099554Y-108977783D01*
X176121246Y-108951353D01*
X176147676Y-108929661D01*
X176177823Y-108913547D01*
X176210537Y-108903623D01*
X176250699Y-108899668D01*
X176838423Y-108899668D01*
X176878585Y-108903623D01*
X176878585Y-108903623D01*
G37*
G36*
X69105024Y-109002955D02*
G01*
X69137738Y-109012879D01*
X69167885Y-109028993D01*
X69194315Y-109050685D01*
X69216007Y-109077115D01*
X69232121Y-109107262D01*
X69242045Y-109139976D01*
X69246000Y-109180138D01*
X69246000Y-109767862D01*
X69242045Y-109808024D01*
X69232121Y-109840738D01*
X69216007Y-109870885D01*
X69194315Y-109897315D01*
X69167885Y-109919007D01*
X69137738Y-109935121D01*
X69105024Y-109945045D01*
X69064862Y-109949000D01*
X68377138Y-109949000D01*
X68336976Y-109945045D01*
X68304262Y-109935121D01*
X68274115Y-109919007D01*
X68247685Y-109897315D01*
X68225993Y-109870885D01*
X68209879Y-109840738D01*
X68199955Y-109808024D01*
X68196000Y-109767862D01*
X68196000Y-109180138D01*
X68199955Y-109139976D01*
X68209879Y-109107262D01*
X68225993Y-109077115D01*
X68247685Y-109050685D01*
X68274115Y-109028993D01*
X68304262Y-109012879D01*
X68336976Y-109002955D01*
X68377138Y-108999000D01*
X69064862Y-108999000D01*
X69105024Y-109002955D01*
X69105024Y-109002955D01*
G37*
G36*
X70855024Y-109002955D02*
G01*
X70887738Y-109012879D01*
X70917885Y-109028993D01*
X70944315Y-109050685D01*
X70966007Y-109077115D01*
X70982121Y-109107262D01*
X70992045Y-109139976D01*
X70996000Y-109180138D01*
X70996000Y-109767862D01*
X70992045Y-109808024D01*
X70982121Y-109840738D01*
X70966007Y-109870885D01*
X70944315Y-109897315D01*
X70917885Y-109919007D01*
X70887738Y-109935121D01*
X70855024Y-109945045D01*
X70814862Y-109949000D01*
X70127138Y-109949000D01*
X70086976Y-109945045D01*
X70054262Y-109935121D01*
X70024115Y-109919007D01*
X69997685Y-109897315D01*
X69975993Y-109870885D01*
X69959879Y-109840738D01*
X69949955Y-109808024D01*
X69946000Y-109767862D01*
X69946000Y-109180138D01*
X69949955Y-109139976D01*
X69959879Y-109107262D01*
X69975993Y-109077115D01*
X69997685Y-109050685D01*
X70024115Y-109028993D01*
X70054262Y-109012879D01*
X70086976Y-109002955D01*
X70127138Y-108999000D01*
X70814862Y-108999000D01*
X70855024Y-109002955D01*
X70855024Y-109002955D01*
G37*
G36*
X184358000Y-109912000D02*
G01*
X183208000Y-109912000D01*
X183208000Y-108912000D01*
X184358000Y-108912000D01*
X184358000Y-109912000D01*
X184358000Y-109912000D01*
G37*
G36*
X186108000Y-109912000D02*
G01*
X184958000Y-109912000D01*
X184958000Y-108912000D01*
X186108000Y-108912000D01*
X186108000Y-109912000D01*
X186108000Y-109912000D01*
G37*
G36*
X65612024Y-108811955D02*
G01*
X65644738Y-108821879D01*
X65674885Y-108837993D01*
X65701315Y-108859685D01*
X65723007Y-108886115D01*
X65739121Y-108916262D01*
X65749045Y-108948976D01*
X65753000Y-108989138D01*
X65753000Y-109676862D01*
X65749045Y-109717024D01*
X65739121Y-109749738D01*
X65723007Y-109779885D01*
X65701315Y-109806315D01*
X65674885Y-109828007D01*
X65644738Y-109844121D01*
X65612024Y-109854045D01*
X65571862Y-109858000D01*
X64984138Y-109858000D01*
X64943976Y-109854045D01*
X64911262Y-109844121D01*
X64881115Y-109828007D01*
X64854685Y-109806315D01*
X64832993Y-109779885D01*
X64816879Y-109749738D01*
X64806955Y-109717024D01*
X64803000Y-109676862D01*
X64803000Y-108989138D01*
X64806955Y-108948976D01*
X64816879Y-108916262D01*
X64832993Y-108886115D01*
X64854685Y-108859685D01*
X64881115Y-108837993D01*
X64911262Y-108821879D01*
X64943976Y-108811955D01*
X64984138Y-108808000D01*
X65571862Y-108808000D01*
X65612024Y-108811955D01*
X65612024Y-108811955D01*
G37*
G36*
X67390024Y-108811955D02*
G01*
X67422738Y-108821879D01*
X67452885Y-108837993D01*
X67479315Y-108859685D01*
X67501007Y-108886115D01*
X67517121Y-108916262D01*
X67527045Y-108948976D01*
X67531000Y-108989138D01*
X67531000Y-109676862D01*
X67527045Y-109717024D01*
X67517121Y-109749738D01*
X67501007Y-109779885D01*
X67479315Y-109806315D01*
X67452885Y-109828007D01*
X67422738Y-109844121D01*
X67390024Y-109854045D01*
X67349862Y-109858000D01*
X66762138Y-109858000D01*
X66721976Y-109854045D01*
X66689262Y-109844121D01*
X66659115Y-109828007D01*
X66632685Y-109806315D01*
X66610993Y-109779885D01*
X66594879Y-109749738D01*
X66584955Y-109717024D01*
X66581000Y-109676862D01*
X66581000Y-108989138D01*
X66584955Y-108948976D01*
X66594879Y-108916262D01*
X66610993Y-108886115D01*
X66632685Y-108859685D01*
X66659115Y-108837993D01*
X66689262Y-108821879D01*
X66721976Y-108811955D01*
X66762138Y-108808000D01*
X67349862Y-108808000D01*
X67390024Y-108811955D01*
X67390024Y-108811955D01*
G37*
G36*
X136309084Y-109427902D02*
G01*
X130979084Y-109427902D01*
X130979084Y-104727902D01*
X136309084Y-104727902D01*
X136309084Y-109427902D01*
X136309084Y-109427902D01*
G37*
G36*
X118933500Y-109284000D02*
G01*
X113603500Y-109284000D01*
X113603500Y-104584000D01*
X118933500Y-104584000D01*
X118933500Y-109284000D01*
X118933500Y-109284000D01*
G37*
G36*
X127569500Y-109284000D02*
G01*
X122239500Y-109284000D01*
X122239500Y-104584000D01*
X127569500Y-104584000D01*
X127569500Y-109284000D01*
X127569500Y-109284000D01*
G37*
G36*
X74910000Y-109054000D02*
G01*
X72410000Y-109054000D01*
X72410000Y-107354000D01*
X74910000Y-107354000D01*
X74910000Y-109054000D01*
X74910000Y-109054000D01*
G37*
G36*
X148748564Y-108662489D02*
G01*
X147986564Y-108662489D01*
X147986564Y-106632489D01*
X148748564Y-106632489D01*
X148748564Y-108662489D01*
X148748564Y-108662489D01*
G37*
G36*
X184358000Y-108512000D02*
G01*
X183208000Y-108512000D01*
X183208000Y-107512000D01*
X184358000Y-107512000D01*
X184358000Y-108512000D01*
X184358000Y-108512000D01*
G37*
G36*
X186108000Y-108512000D02*
G01*
X184958000Y-108512000D01*
X184958000Y-107512000D01*
X186108000Y-107512000D01*
X186108000Y-108512000D01*
X186108000Y-108512000D01*
G37*
G36*
X67390024Y-107061955D02*
G01*
X67422738Y-107071879D01*
X67452885Y-107087993D01*
X67479315Y-107109685D01*
X67501007Y-107136115D01*
X67517121Y-107166262D01*
X67527045Y-107198976D01*
X67531000Y-107239138D01*
X67531000Y-107926862D01*
X67527045Y-107967024D01*
X67517121Y-107999738D01*
X67501007Y-108029885D01*
X67479315Y-108056315D01*
X67452885Y-108078007D01*
X67422738Y-108094121D01*
X67390024Y-108104045D01*
X67349862Y-108108000D01*
X66762138Y-108108000D01*
X66721976Y-108104045D01*
X66689262Y-108094121D01*
X66659115Y-108078007D01*
X66632685Y-108056315D01*
X66610993Y-108029885D01*
X66594879Y-107999738D01*
X66584955Y-107967024D01*
X66581000Y-107926862D01*
X66581000Y-107239138D01*
X66584955Y-107198976D01*
X66594879Y-107166262D01*
X66610993Y-107136115D01*
X66632685Y-107109685D01*
X66659115Y-107087993D01*
X66689262Y-107071879D01*
X66721976Y-107061955D01*
X66762138Y-107058000D01*
X67349862Y-107058000D01*
X67390024Y-107061955D01*
X67390024Y-107061955D01*
G37*
G36*
X65612024Y-107061955D02*
G01*
X65644738Y-107071879D01*
X65674885Y-107087993D01*
X65701315Y-107109685D01*
X65723007Y-107136115D01*
X65739121Y-107166262D01*
X65749045Y-107198976D01*
X65753000Y-107239138D01*
X65753000Y-107926862D01*
X65749045Y-107967024D01*
X65739121Y-107999738D01*
X65723007Y-108029885D01*
X65701315Y-108056315D01*
X65674885Y-108078007D01*
X65644738Y-108094121D01*
X65612024Y-108104045D01*
X65571862Y-108108000D01*
X64984138Y-108108000D01*
X64943976Y-108104045D01*
X64911262Y-108094121D01*
X64881115Y-108078007D01*
X64854685Y-108056315D01*
X64832993Y-108029885D01*
X64816879Y-107999738D01*
X64806955Y-107967024D01*
X64803000Y-107926862D01*
X64803000Y-107239138D01*
X64806955Y-107198976D01*
X64816879Y-107166262D01*
X64832993Y-107136115D01*
X64854685Y-107109685D01*
X64881115Y-107087993D01*
X64911262Y-107071879D01*
X64943976Y-107061955D01*
X64984138Y-107058000D01*
X65571862Y-107058000D01*
X65612024Y-107061955D01*
X65612024Y-107061955D01*
G37*
G36*
X130344084Y-108092902D02*
G01*
X129582084Y-108092902D01*
X129582084Y-106062902D01*
X130344084Y-106062902D01*
X130344084Y-108092902D01*
X130344084Y-108092902D01*
G37*
G36*
X121604500Y-107949000D02*
G01*
X120842500Y-107949000D01*
X120842500Y-105919000D01*
X121604500Y-105919000D01*
X121604500Y-107949000D01*
X121604500Y-107949000D01*
G37*
G36*
X112968500Y-107949000D02*
G01*
X112206500Y-107949000D01*
X112206500Y-105919000D01*
X112968500Y-105919000D01*
X112968500Y-107949000D01*
X112968500Y-107949000D01*
G37*
G36*
X169407024Y-106208955D02*
G01*
X169439738Y-106218879D01*
X169469885Y-106234993D01*
X169496315Y-106256685D01*
X169518007Y-106283115D01*
X169534121Y-106313262D01*
X169544045Y-106345976D01*
X169548000Y-106386138D01*
X169548000Y-106973862D01*
X169544045Y-107014024D01*
X169534121Y-107046738D01*
X169518007Y-107076885D01*
X169496315Y-107103315D01*
X169469885Y-107125007D01*
X169439738Y-107141121D01*
X169407024Y-107151045D01*
X169366862Y-107155000D01*
X168679138Y-107155000D01*
X168638976Y-107151045D01*
X168606262Y-107141121D01*
X168576115Y-107125007D01*
X168549685Y-107103315D01*
X168527993Y-107076885D01*
X168511879Y-107046738D01*
X168501955Y-107014024D01*
X168498000Y-106973862D01*
X168498000Y-106386138D01*
X168501955Y-106345976D01*
X168511879Y-106313262D01*
X168527993Y-106283115D01*
X168549685Y-106256685D01*
X168576115Y-106234993D01*
X168606262Y-106218879D01*
X168638976Y-106208955D01*
X168679138Y-106205000D01*
X169366862Y-106205000D01*
X169407024Y-106208955D01*
X169407024Y-106208955D01*
G37*
G36*
X167657024Y-106208955D02*
G01*
X167689738Y-106218879D01*
X167719885Y-106234993D01*
X167746315Y-106256685D01*
X167768007Y-106283115D01*
X167784121Y-106313262D01*
X167794045Y-106345976D01*
X167798000Y-106386138D01*
X167798000Y-106973862D01*
X167794045Y-107014024D01*
X167784121Y-107046738D01*
X167768007Y-107076885D01*
X167746315Y-107103315D01*
X167719885Y-107125007D01*
X167689738Y-107141121D01*
X167657024Y-107151045D01*
X167616862Y-107155000D01*
X166929138Y-107155000D01*
X166888976Y-107151045D01*
X166856262Y-107141121D01*
X166826115Y-107125007D01*
X166799685Y-107103315D01*
X166777993Y-107076885D01*
X166761879Y-107046738D01*
X166751955Y-107014024D01*
X166748000Y-106973862D01*
X166748000Y-106386138D01*
X166751955Y-106345976D01*
X166761879Y-106313262D01*
X166777993Y-106283115D01*
X166799685Y-106256685D01*
X166826115Y-106234993D01*
X166856262Y-106218879D01*
X166888976Y-106208955D01*
X166929138Y-106205000D01*
X167616862Y-106205000D01*
X167657024Y-106208955D01*
X167657024Y-106208955D01*
G37*
G36*
X74910000Y-106979000D02*
G01*
X72410000Y-106979000D01*
X72410000Y-106329000D01*
X74910000Y-106329000D01*
X74910000Y-106979000D01*
X74910000Y-106979000D01*
G37*
G36*
X184167024Y-105700955D02*
G01*
X184199738Y-105710879D01*
X184229885Y-105726993D01*
X184256315Y-105748685D01*
X184278007Y-105775115D01*
X184294121Y-105805262D01*
X184304045Y-105837976D01*
X184308000Y-105878138D01*
X184308000Y-106465862D01*
X184304045Y-106506024D01*
X184294121Y-106538738D01*
X184278007Y-106568885D01*
X184256315Y-106595315D01*
X184229885Y-106617007D01*
X184199738Y-106633121D01*
X184167024Y-106643045D01*
X184126862Y-106647000D01*
X183439138Y-106647000D01*
X183398976Y-106643045D01*
X183366262Y-106633121D01*
X183336115Y-106617007D01*
X183309685Y-106595315D01*
X183287993Y-106568885D01*
X183271879Y-106538738D01*
X183261955Y-106506024D01*
X183258000Y-106465862D01*
X183258000Y-105878138D01*
X183261955Y-105837976D01*
X183271879Y-105805262D01*
X183287993Y-105775115D01*
X183309685Y-105748685D01*
X183336115Y-105726993D01*
X183366262Y-105710879D01*
X183398976Y-105700955D01*
X183439138Y-105697000D01*
X184126862Y-105697000D01*
X184167024Y-105700955D01*
X184167024Y-105700955D01*
G37*
G36*
X185917024Y-105700955D02*
G01*
X185949738Y-105710879D01*
X185979885Y-105726993D01*
X186006315Y-105748685D01*
X186028007Y-105775115D01*
X186044121Y-105805262D01*
X186054045Y-105837976D01*
X186058000Y-105878138D01*
X186058000Y-106465862D01*
X186054045Y-106506024D01*
X186044121Y-106538738D01*
X186028007Y-106568885D01*
X186006315Y-106595315D01*
X185979885Y-106617007D01*
X185949738Y-106633121D01*
X185917024Y-106643045D01*
X185876862Y-106647000D01*
X185189138Y-106647000D01*
X185148976Y-106643045D01*
X185116262Y-106633121D01*
X185086115Y-106617007D01*
X185059685Y-106595315D01*
X185037993Y-106568885D01*
X185021879Y-106538738D01*
X185011955Y-106506024D01*
X185008000Y-106465862D01*
X185008000Y-105878138D01*
X185011955Y-105837976D01*
X185021879Y-105805262D01*
X185037993Y-105775115D01*
X185059685Y-105748685D01*
X185086115Y-105726993D01*
X185116262Y-105710879D01*
X185148976Y-105700955D01*
X185189138Y-105697000D01*
X185876862Y-105697000D01*
X185917024Y-105700955D01*
X185917024Y-105700955D01*
G37*
G36*
X169407024Y-104684955D02*
G01*
X169439738Y-104694879D01*
X169469885Y-104710993D01*
X169496315Y-104732685D01*
X169518007Y-104759115D01*
X169534121Y-104789262D01*
X169544045Y-104821976D01*
X169548000Y-104862138D01*
X169548000Y-105449862D01*
X169544045Y-105490024D01*
X169534121Y-105522738D01*
X169518007Y-105552885D01*
X169496315Y-105579315D01*
X169469885Y-105601007D01*
X169439738Y-105617121D01*
X169407024Y-105627045D01*
X169366862Y-105631000D01*
X168679138Y-105631000D01*
X168638976Y-105627045D01*
X168606262Y-105617121D01*
X168576115Y-105601007D01*
X168549685Y-105579315D01*
X168527993Y-105552885D01*
X168511879Y-105522738D01*
X168501955Y-105490024D01*
X168498000Y-105449862D01*
X168498000Y-104862138D01*
X168501955Y-104821976D01*
X168511879Y-104789262D01*
X168527993Y-104759115D01*
X168549685Y-104732685D01*
X168576115Y-104710993D01*
X168606262Y-104694879D01*
X168638976Y-104684955D01*
X168679138Y-104681000D01*
X169366862Y-104681000D01*
X169407024Y-104684955D01*
X169407024Y-104684955D01*
G37*
G36*
X167657024Y-104684955D02*
G01*
X167689738Y-104694879D01*
X167719885Y-104710993D01*
X167746315Y-104732685D01*
X167768007Y-104759115D01*
X167784121Y-104789262D01*
X167794045Y-104821976D01*
X167798000Y-104862138D01*
X167798000Y-105449862D01*
X167794045Y-105490024D01*
X167784121Y-105522738D01*
X167768007Y-105552885D01*
X167746315Y-105579315D01*
X167719885Y-105601007D01*
X167689738Y-105617121D01*
X167657024Y-105627045D01*
X167616862Y-105631000D01*
X166929138Y-105631000D01*
X166888976Y-105627045D01*
X166856262Y-105617121D01*
X166826115Y-105601007D01*
X166799685Y-105579315D01*
X166777993Y-105552885D01*
X166761879Y-105522738D01*
X166751955Y-105490024D01*
X166748000Y-105449862D01*
X166748000Y-104862138D01*
X166751955Y-104821976D01*
X166761879Y-104789262D01*
X166777993Y-104759115D01*
X166799685Y-104732685D01*
X166826115Y-104710993D01*
X166856262Y-104694879D01*
X166888976Y-104684955D01*
X166929138Y-104681000D01*
X167616862Y-104681000D01*
X167657024Y-104684955D01*
X167657024Y-104684955D01*
G37*
G36*
X177140000Y-100459001D02*
G01*
X177142402Y-100483387D01*
X177149515Y-100506836D01*
X177161066Y-100528447D01*
X177176611Y-100547389D01*
X177195553Y-100562934D01*
X177217164Y-100574485D01*
X177240613Y-100581598D01*
X177264999Y-100584000D01*
X178150000Y-100584000D01*
X178150000Y-104504000D01*
X177264999Y-104504000D01*
X177240613Y-104506402D01*
X177217164Y-104513515D01*
X177195553Y-104525066D01*
X177176611Y-104540611D01*
X177161066Y-104559553D01*
X177149515Y-104581164D01*
X177142402Y-104604613D01*
X177140000Y-104628999D01*
X177140000Y-105514000D01*
X173220000Y-105514000D01*
X173220000Y-104628999D01*
X173217598Y-104604613D01*
X173210485Y-104581164D01*
X173198934Y-104559553D01*
X173183389Y-104540611D01*
X173164447Y-104525066D01*
X173142836Y-104513515D01*
X173119387Y-104506402D01*
X173095001Y-104504000D01*
X172210000Y-104504000D01*
X172210000Y-100584000D01*
X173095001Y-100584000D01*
X173119387Y-100581598D01*
X173142836Y-100574485D01*
X173164447Y-100562934D01*
X173183389Y-100547389D01*
X173198934Y-100528447D01*
X173210485Y-100506836D01*
X173217598Y-100483387D01*
X173220000Y-100459001D01*
X173220000Y-99574000D01*
X177140000Y-99574000D01*
X177140000Y-100459001D01*
X177140000Y-100459001D01*
G37*
G36*
X75034964Y-103522837D02*
G01*
X75066525Y-103532412D01*
X75095620Y-103547963D01*
X75121115Y-103568885D01*
X75142037Y-103594380D01*
X75157588Y-103623475D01*
X75167163Y-103655036D01*
X75171000Y-103693998D01*
X75171000Y-105094002D01*
X75167163Y-105132964D01*
X75157588Y-105164525D01*
X75142037Y-105193620D01*
X75121115Y-105219115D01*
X75095620Y-105240037D01*
X75066525Y-105255588D01*
X75034964Y-105265163D01*
X74996002Y-105269000D01*
X73920998Y-105269000D01*
X73882036Y-105265163D01*
X73850475Y-105255588D01*
X73821380Y-105240037D01*
X73795885Y-105219115D01*
X73774963Y-105193620D01*
X73759412Y-105164525D01*
X73749837Y-105132964D01*
X73746000Y-105094002D01*
X73746000Y-103693998D01*
X73749837Y-103655036D01*
X73759412Y-103623475D01*
X73774963Y-103594380D01*
X73795885Y-103568885D01*
X73821380Y-103547963D01*
X73850475Y-103532412D01*
X73882036Y-103522837D01*
X73920998Y-103519000D01*
X74996002Y-103519000D01*
X75034964Y-103522837D01*
X75034964Y-103522837D01*
G37*
G36*
X78009964Y-103522837D02*
G01*
X78041525Y-103532412D01*
X78070620Y-103547963D01*
X78096115Y-103568885D01*
X78117037Y-103594380D01*
X78132588Y-103623475D01*
X78142163Y-103655036D01*
X78146000Y-103693998D01*
X78146000Y-105094002D01*
X78142163Y-105132964D01*
X78132588Y-105164525D01*
X78117037Y-105193620D01*
X78096115Y-105219115D01*
X78070620Y-105240037D01*
X78041525Y-105255588D01*
X78009964Y-105265163D01*
X77971002Y-105269000D01*
X76895998Y-105269000D01*
X76857036Y-105265163D01*
X76825475Y-105255588D01*
X76796380Y-105240037D01*
X76770885Y-105219115D01*
X76749963Y-105193620D01*
X76734412Y-105164525D01*
X76724837Y-105132964D01*
X76721000Y-105094002D01*
X76721000Y-103693998D01*
X76724837Y-103655036D01*
X76734412Y-103623475D01*
X76749963Y-103594380D01*
X76770885Y-103568885D01*
X76796380Y-103547963D01*
X76825475Y-103532412D01*
X76857036Y-103522837D01*
X76895998Y-103519000D01*
X77971002Y-103519000D01*
X78009964Y-103522837D01*
X78009964Y-103522837D01*
G37*
G36*
X110718600Y-104686100D02*
G01*
X95529400Y-104686100D01*
X95529400Y-102984300D01*
X110718600Y-102984300D01*
X110718600Y-104686100D01*
X110718600Y-104686100D01*
G37*
G36*
X89834000Y-104182000D02*
G01*
X88734000Y-104182000D01*
X88734000Y-103082000D01*
X89834000Y-103082000D01*
X89834000Y-104182000D01*
X89834000Y-104182000D01*
G37*
G36*
X87034000Y-104182000D02*
G01*
X85934000Y-104182000D01*
X85934000Y-103082000D01*
X87034000Y-103082000D01*
X87034000Y-104182000D01*
X87034000Y-104182000D01*
G37*
G36*
X167657024Y-103160955D02*
G01*
X167689738Y-103170879D01*
X167719885Y-103186993D01*
X167746315Y-103208685D01*
X167768007Y-103235115D01*
X167784121Y-103265262D01*
X167794045Y-103297976D01*
X167798000Y-103338138D01*
X167798000Y-103925862D01*
X167794045Y-103966024D01*
X167784121Y-103998738D01*
X167768007Y-104028885D01*
X167746315Y-104055315D01*
X167719885Y-104077007D01*
X167689738Y-104093121D01*
X167657024Y-104103045D01*
X167616862Y-104107000D01*
X166929138Y-104107000D01*
X166888976Y-104103045D01*
X166856262Y-104093121D01*
X166826115Y-104077007D01*
X166799685Y-104055315D01*
X166777993Y-104028885D01*
X166761879Y-103998738D01*
X166751955Y-103966024D01*
X166748000Y-103925862D01*
X166748000Y-103338138D01*
X166751955Y-103297976D01*
X166761879Y-103265262D01*
X166777993Y-103235115D01*
X166799685Y-103208685D01*
X166826115Y-103186993D01*
X166856262Y-103170879D01*
X166888976Y-103160955D01*
X166929138Y-103157000D01*
X167616862Y-103157000D01*
X167657024Y-103160955D01*
X167657024Y-103160955D01*
G37*
G36*
X169407024Y-103160955D02*
G01*
X169439738Y-103170879D01*
X169469885Y-103186993D01*
X169496315Y-103208685D01*
X169518007Y-103235115D01*
X169534121Y-103265262D01*
X169544045Y-103297976D01*
X169548000Y-103338138D01*
X169548000Y-103925862D01*
X169544045Y-103966024D01*
X169534121Y-103998738D01*
X169518007Y-104028885D01*
X169496315Y-104055315D01*
X169469885Y-104077007D01*
X169439738Y-104093121D01*
X169407024Y-104103045D01*
X169366862Y-104107000D01*
X168679138Y-104107000D01*
X168638976Y-104103045D01*
X168606262Y-104093121D01*
X168576115Y-104077007D01*
X168549685Y-104055315D01*
X168527993Y-104028885D01*
X168511879Y-103998738D01*
X168501955Y-103966024D01*
X168498000Y-103925862D01*
X168498000Y-103338138D01*
X168501955Y-103297976D01*
X168511879Y-103265262D01*
X168527993Y-103235115D01*
X168549685Y-103208685D01*
X168576115Y-103186993D01*
X168606262Y-103170879D01*
X168638976Y-103160955D01*
X168679138Y-103157000D01*
X169366862Y-103157000D01*
X169407024Y-103160955D01*
X169407024Y-103160955D01*
G37*
G36*
X181627024Y-103160955D02*
G01*
X181659738Y-103170879D01*
X181689885Y-103186993D01*
X181716315Y-103208685D01*
X181738007Y-103235115D01*
X181754121Y-103265262D01*
X181764045Y-103297976D01*
X181768000Y-103338138D01*
X181768000Y-103925862D01*
X181764045Y-103966024D01*
X181754121Y-103998738D01*
X181738007Y-104028885D01*
X181716315Y-104055315D01*
X181689885Y-104077007D01*
X181659738Y-104093121D01*
X181627024Y-104103045D01*
X181586862Y-104107000D01*
X180899138Y-104107000D01*
X180858976Y-104103045D01*
X180826262Y-104093121D01*
X180796115Y-104077007D01*
X180769685Y-104055315D01*
X180747993Y-104028885D01*
X180731879Y-103998738D01*
X180721955Y-103966024D01*
X180718000Y-103925862D01*
X180718000Y-103338138D01*
X180721955Y-103297976D01*
X180731879Y-103265262D01*
X180747993Y-103235115D01*
X180769685Y-103208685D01*
X180796115Y-103186993D01*
X180826262Y-103170879D01*
X180858976Y-103160955D01*
X180899138Y-103157000D01*
X181586862Y-103157000D01*
X181627024Y-103160955D01*
X181627024Y-103160955D01*
G37*
G36*
X183377024Y-103160955D02*
G01*
X183409738Y-103170879D01*
X183439885Y-103186993D01*
X183466315Y-103208685D01*
X183488007Y-103235115D01*
X183504121Y-103265262D01*
X183514045Y-103297976D01*
X183518000Y-103338138D01*
X183518000Y-103925862D01*
X183514045Y-103966024D01*
X183504121Y-103998738D01*
X183488007Y-104028885D01*
X183466315Y-104055315D01*
X183439885Y-104077007D01*
X183409738Y-104093121D01*
X183377024Y-104103045D01*
X183336862Y-104107000D01*
X182649138Y-104107000D01*
X182608976Y-104103045D01*
X182576262Y-104093121D01*
X182546115Y-104077007D01*
X182519685Y-104055315D01*
X182497993Y-104028885D01*
X182481879Y-103998738D01*
X182471955Y-103966024D01*
X182468000Y-103925862D01*
X182468000Y-103338138D01*
X182471955Y-103297976D01*
X182481879Y-103265262D01*
X182497993Y-103235115D01*
X182519685Y-103208685D01*
X182546115Y-103186993D01*
X182576262Y-103170879D01*
X182608976Y-103160955D01*
X182649138Y-103157000D01*
X183336862Y-103157000D01*
X183377024Y-103160955D01*
X183377024Y-103160955D01*
G37*
G36*
X151770064Y-103928000D02*
G01*
X150670064Y-103928000D01*
X150670064Y-102828000D01*
X151770064Y-102828000D01*
X151770064Y-103928000D01*
X151770064Y-103928000D01*
G37*
G36*
X154570064Y-103928000D02*
G01*
X153470064Y-103928000D01*
X153470064Y-102828000D01*
X154570064Y-102828000D01*
X154570064Y-103928000D01*
X154570064Y-103928000D01*
G37*
G36*
X126156000Y-103674000D02*
G01*
X125056000Y-103674000D01*
X125056000Y-102574000D01*
X126156000Y-102574000D01*
X126156000Y-103674000D01*
X126156000Y-103674000D01*
G37*
G36*
X123356000Y-103674000D02*
G01*
X122256000Y-103674000D01*
X122256000Y-102574000D01*
X123356000Y-102574000D01*
X123356000Y-103674000D01*
X123356000Y-103674000D01*
G37*
G36*
X114720000Y-103674000D02*
G01*
X113620000Y-103674000D01*
X113620000Y-102574000D01*
X114720000Y-102574000D01*
X114720000Y-103674000D01*
X114720000Y-103674000D01*
G37*
G36*
X117520000Y-103674000D02*
G01*
X116420000Y-103674000D01*
X116420000Y-102574000D01*
X117520000Y-102574000D01*
X117520000Y-103674000D01*
X117520000Y-103674000D01*
G37*
G36*
X135149584Y-103563902D02*
G01*
X134049584Y-103563902D01*
X134049584Y-102463902D01*
X135149584Y-102463902D01*
X135149584Y-103563902D01*
X135149584Y-103563902D01*
G37*
G36*
X132349584Y-103563902D02*
G01*
X131249584Y-103563902D01*
X131249584Y-102463902D01*
X132349584Y-102463902D01*
X132349584Y-103563902D01*
X132349584Y-103563902D01*
G37*
G36*
X164577025Y-101191955D02*
G01*
X164609739Y-101201879D01*
X164639886Y-101217993D01*
X164666316Y-101239685D01*
X164688008Y-101266115D01*
X164704122Y-101296262D01*
X164714046Y-101328976D01*
X164718001Y-101369138D01*
X164718001Y-102056862D01*
X164714046Y-102097024D01*
X164704122Y-102129738D01*
X164688008Y-102159885D01*
X164666316Y-102186315D01*
X164639886Y-102208007D01*
X164609739Y-102224121D01*
X164577025Y-102234045D01*
X164536863Y-102238000D01*
X163949139Y-102238000D01*
X163908977Y-102234045D01*
X163876263Y-102224121D01*
X163846116Y-102208007D01*
X163819686Y-102186315D01*
X163797994Y-102159885D01*
X163781880Y-102129738D01*
X163771956Y-102097024D01*
X163768001Y-102056862D01*
X163768001Y-101369138D01*
X163771956Y-101328976D01*
X163781880Y-101296262D01*
X163797994Y-101266115D01*
X163819686Y-101239685D01*
X163846116Y-101217993D01*
X163876263Y-101201879D01*
X163908977Y-101191955D01*
X163949139Y-101188000D01*
X164536863Y-101188000D01*
X164577025Y-101191955D01*
X164577025Y-101191955D01*
G37*
G36*
X166196024Y-101191955D02*
G01*
X166228738Y-101201879D01*
X166258885Y-101217993D01*
X166285315Y-101239685D01*
X166307007Y-101266115D01*
X166323121Y-101296262D01*
X166333045Y-101328976D01*
X166337000Y-101369138D01*
X166337000Y-102056862D01*
X166333045Y-102097024D01*
X166323121Y-102129738D01*
X166307007Y-102159885D01*
X166285315Y-102186315D01*
X166258885Y-102208007D01*
X166228738Y-102224121D01*
X166196024Y-102234045D01*
X166155862Y-102238000D01*
X165568138Y-102238000D01*
X165527976Y-102234045D01*
X165495262Y-102224121D01*
X165465115Y-102208007D01*
X165438685Y-102186315D01*
X165416993Y-102159885D01*
X165400879Y-102129738D01*
X165390955Y-102097024D01*
X165387000Y-102056862D01*
X165387000Y-101369138D01*
X165390955Y-101328976D01*
X165400879Y-101296262D01*
X165416993Y-101266115D01*
X165438685Y-101239685D01*
X165465115Y-101217993D01*
X165495262Y-101201879D01*
X165527976Y-101191955D01*
X165568138Y-101188000D01*
X166155862Y-101188000D01*
X166196024Y-101191955D01*
X166196024Y-101191955D01*
G37*
G36*
X83217825Y-98335745D02*
G01*
X83248490Y-98345048D01*
X83276748Y-98360152D01*
X83301519Y-98380481D01*
X83321848Y-98405252D01*
X83336952Y-98433510D01*
X83346255Y-98464175D01*
X83350000Y-98502203D01*
X83350000Y-101661797D01*
X83346255Y-101699825D01*
X83336952Y-101730490D01*
X83321848Y-101758748D01*
X83301519Y-101783519D01*
X83276748Y-101803848D01*
X83248490Y-101818952D01*
X83217825Y-101828255D01*
X83179797Y-101832000D01*
X81920203Y-101832000D01*
X81882175Y-101828255D01*
X81851510Y-101818952D01*
X81823252Y-101803848D01*
X81798481Y-101783519D01*
X81778152Y-101758748D01*
X81763048Y-101730490D01*
X81753745Y-101699825D01*
X81750000Y-101661797D01*
X81750000Y-98502203D01*
X81753745Y-98464175D01*
X81763048Y-98433510D01*
X81778152Y-98405252D01*
X81798481Y-98380481D01*
X81823252Y-98360152D01*
X81851510Y-98345048D01*
X81882175Y-98335745D01*
X81920203Y-98332000D01*
X83179797Y-98332000D01*
X83217825Y-98335745D01*
X83217825Y-98335745D01*
G37*
G36*
X181627024Y-100874955D02*
G01*
X181659738Y-100884879D01*
X181689885Y-100900993D01*
X181716315Y-100922685D01*
X181738007Y-100949115D01*
X181754121Y-100979262D01*
X181764045Y-101011976D01*
X181768000Y-101052138D01*
X181768000Y-101639862D01*
X181764045Y-101680024D01*
X181754121Y-101712738D01*
X181738007Y-101742885D01*
X181716315Y-101769315D01*
X181689885Y-101791007D01*
X181659738Y-101807121D01*
X181627024Y-101817045D01*
X181586862Y-101821000D01*
X180899138Y-101821000D01*
X180858976Y-101817045D01*
X180826262Y-101807121D01*
X180796115Y-101791007D01*
X180769685Y-101769315D01*
X180747993Y-101742885D01*
X180731879Y-101712738D01*
X180721955Y-101680024D01*
X180718000Y-101639862D01*
X180718000Y-101052138D01*
X180721955Y-101011976D01*
X180731879Y-100979262D01*
X180747993Y-100949115D01*
X180769685Y-100922685D01*
X180796115Y-100900993D01*
X180826262Y-100884879D01*
X180858976Y-100874955D01*
X180899138Y-100871000D01*
X181586862Y-100871000D01*
X181627024Y-100874955D01*
X181627024Y-100874955D01*
G37*
G36*
X139181024Y-100874955D02*
G01*
X139213738Y-100884879D01*
X139243885Y-100900993D01*
X139270315Y-100922685D01*
X139292007Y-100949115D01*
X139308121Y-100979262D01*
X139318045Y-101011976D01*
X139322000Y-101052138D01*
X139322000Y-101639862D01*
X139318045Y-101680024D01*
X139308121Y-101712738D01*
X139292007Y-101742885D01*
X139270315Y-101769315D01*
X139243885Y-101791007D01*
X139213738Y-101807121D01*
X139181024Y-101817045D01*
X139140862Y-101821000D01*
X138453138Y-101821000D01*
X138412976Y-101817045D01*
X138380262Y-101807121D01*
X138350115Y-101791007D01*
X138323685Y-101769315D01*
X138301993Y-101742885D01*
X138285879Y-101712738D01*
X138275955Y-101680024D01*
X138272000Y-101639862D01*
X138272000Y-101052138D01*
X138275955Y-101011976D01*
X138285879Y-100979262D01*
X138301993Y-100949115D01*
X138323685Y-100922685D01*
X138350115Y-100900993D01*
X138380262Y-100884879D01*
X138412976Y-100874955D01*
X138453138Y-100871000D01*
X139140862Y-100871000D01*
X139181024Y-100874955D01*
X139181024Y-100874955D01*
G37*
G36*
X137431024Y-100874955D02*
G01*
X137463738Y-100884879D01*
X137493885Y-100900993D01*
X137520315Y-100922685D01*
X137542007Y-100949115D01*
X137558121Y-100979262D01*
X137568045Y-101011976D01*
X137572000Y-101052138D01*
X137572000Y-101639862D01*
X137568045Y-101680024D01*
X137558121Y-101712738D01*
X137542007Y-101742885D01*
X137520315Y-101769315D01*
X137493885Y-101791007D01*
X137463738Y-101807121D01*
X137431024Y-101817045D01*
X137390862Y-101821000D01*
X136703138Y-101821000D01*
X136662976Y-101817045D01*
X136630262Y-101807121D01*
X136600115Y-101791007D01*
X136573685Y-101769315D01*
X136551993Y-101742885D01*
X136535879Y-101712738D01*
X136525955Y-101680024D01*
X136522000Y-101639862D01*
X136522000Y-101052138D01*
X136525955Y-101011976D01*
X136535879Y-100979262D01*
X136551993Y-100949115D01*
X136573685Y-100922685D01*
X136600115Y-100900993D01*
X136630262Y-100884879D01*
X136662976Y-100874955D01*
X136703138Y-100871000D01*
X137390862Y-100871000D01*
X137431024Y-100874955D01*
X137431024Y-100874955D01*
G37*
G36*
X183377024Y-100874955D02*
G01*
X183409738Y-100884879D01*
X183439885Y-100900993D01*
X183466315Y-100922685D01*
X183488007Y-100949115D01*
X183504121Y-100979262D01*
X183514045Y-101011976D01*
X183518000Y-101052138D01*
X183518000Y-101639862D01*
X183514045Y-101680024D01*
X183504121Y-101712738D01*
X183488007Y-101742885D01*
X183466315Y-101769315D01*
X183439885Y-101791007D01*
X183409738Y-101807121D01*
X183377024Y-101817045D01*
X183336862Y-101821000D01*
X182649138Y-101821000D01*
X182608976Y-101817045D01*
X182576262Y-101807121D01*
X182546115Y-101791007D01*
X182519685Y-101769315D01*
X182497993Y-101742885D01*
X182481879Y-101712738D01*
X182471955Y-101680024D01*
X182468000Y-101639862D01*
X182468000Y-101052138D01*
X182471955Y-101011976D01*
X182481879Y-100979262D01*
X182497993Y-100949115D01*
X182519685Y-100922685D01*
X182546115Y-100900993D01*
X182576262Y-100884879D01*
X182608976Y-100874955D01*
X182649138Y-100871000D01*
X183336862Y-100871000D01*
X183377024Y-100874955D01*
X183377024Y-100874955D01*
G37*
G36*
X142320024Y-100429955D02*
G01*
X142352738Y-100439879D01*
X142382885Y-100455993D01*
X142409315Y-100477685D01*
X142431007Y-100504115D01*
X142447121Y-100534262D01*
X142457045Y-100566976D01*
X142461000Y-100607138D01*
X142461000Y-101294862D01*
X142457045Y-101335024D01*
X142447121Y-101367738D01*
X142431007Y-101397885D01*
X142409315Y-101424315D01*
X142382885Y-101446007D01*
X142352738Y-101462121D01*
X142320024Y-101472045D01*
X142279862Y-101476000D01*
X141692138Y-101476000D01*
X141651976Y-101472045D01*
X141619262Y-101462121D01*
X141589115Y-101446007D01*
X141562685Y-101424315D01*
X141540993Y-101397885D01*
X141524879Y-101367738D01*
X141514955Y-101335024D01*
X141511000Y-101294862D01*
X141511000Y-100607138D01*
X141514955Y-100566976D01*
X141524879Y-100534262D01*
X141540993Y-100504115D01*
X141562685Y-100477685D01*
X141589115Y-100455993D01*
X141619262Y-100439879D01*
X141651976Y-100429955D01*
X141692138Y-100426000D01*
X142279862Y-100426000D01*
X142320024Y-100429955D01*
X142320024Y-100429955D01*
G37*
G36*
X132150000Y-99772357D02*
G01*
X132152402Y-99796743D01*
X132159515Y-99820192D01*
X132171066Y-99841803D01*
X132186611Y-99860745D01*
X132205553Y-99876290D01*
X132227166Y-99887842D01*
X132231575Y-99889668D01*
X132307834Y-99940623D01*
X132346224Y-99966274D01*
X132443726Y-100063776D01*
X132443727Y-100063778D01*
X132520334Y-100178428D01*
X132563580Y-100282835D01*
X132575131Y-100304446D01*
X132590676Y-100323388D01*
X132609618Y-100338934D01*
X132631228Y-100350485D01*
X132654677Y-100357598D01*
X132679064Y-100360000D01*
X134020936Y-100360000D01*
X134045322Y-100357598D01*
X134068771Y-100350485D01*
X134090382Y-100338934D01*
X134109324Y-100323389D01*
X134124869Y-100304447D01*
X134136420Y-100282835D01*
X134179666Y-100178428D01*
X134256273Y-100063778D01*
X134256274Y-100063776D01*
X134353776Y-99966274D01*
X134392166Y-99940623D01*
X134468425Y-99889668D01*
X134472834Y-99887842D01*
X134494445Y-99876291D01*
X134513387Y-99860746D01*
X134528933Y-99841805D01*
X134540484Y-99820194D01*
X134547598Y-99796745D01*
X134550000Y-99772357D01*
X134550000Y-99610000D01*
X135500000Y-99610000D01*
X135500000Y-100589847D01*
X135493701Y-100610613D01*
X135473100Y-100714182D01*
X135420333Y-100841573D01*
X135382289Y-100898510D01*
X135343726Y-100956224D01*
X135246224Y-101053726D01*
X135200915Y-101084000D01*
X135131573Y-101130333D01*
X135004182Y-101183100D01*
X134900613Y-101203701D01*
X134879847Y-101210000D01*
X131820153Y-101210000D01*
X131799387Y-101203701D01*
X131695818Y-101183100D01*
X131568427Y-101130333D01*
X131499085Y-101084000D01*
X131453776Y-101053726D01*
X131356274Y-100956224D01*
X131317711Y-100898510D01*
X131279667Y-100841573D01*
X131226900Y-100714182D01*
X131206299Y-100610613D01*
X131200000Y-100589847D01*
X131200000Y-99610000D01*
X132150000Y-99610000D01*
X132150000Y-99772357D01*
X132150000Y-99772357D01*
G37*
G36*
X166196024Y-99441955D02*
G01*
X166228738Y-99451879D01*
X166258885Y-99467993D01*
X166285315Y-99489685D01*
X166307007Y-99516115D01*
X166323121Y-99546262D01*
X166333045Y-99578976D01*
X166337000Y-99619138D01*
X166337000Y-100306862D01*
X166333045Y-100347024D01*
X166323121Y-100379738D01*
X166307007Y-100409885D01*
X166285315Y-100436315D01*
X166258885Y-100458007D01*
X166228738Y-100474121D01*
X166196024Y-100484045D01*
X166155862Y-100488000D01*
X165568138Y-100488000D01*
X165527976Y-100484045D01*
X165495262Y-100474121D01*
X165465115Y-100458007D01*
X165438685Y-100436315D01*
X165416993Y-100409885D01*
X165400879Y-100379738D01*
X165390955Y-100347024D01*
X165387000Y-100306862D01*
X165387000Y-99619138D01*
X165390955Y-99578976D01*
X165400879Y-99546262D01*
X165416993Y-99516115D01*
X165438685Y-99489685D01*
X165465115Y-99467993D01*
X165495262Y-99451879D01*
X165527976Y-99441955D01*
X165568138Y-99438000D01*
X166155862Y-99438000D01*
X166196024Y-99441955D01*
X166196024Y-99441955D01*
G37*
G36*
X164577025Y-99441955D02*
G01*
X164609739Y-99451879D01*
X164639886Y-99467993D01*
X164666316Y-99489685D01*
X164688008Y-99516115D01*
X164704122Y-99546262D01*
X164714046Y-99578976D01*
X164718001Y-99619138D01*
X164718001Y-100306862D01*
X164714046Y-100347024D01*
X164704122Y-100379738D01*
X164688008Y-100409885D01*
X164666316Y-100436315D01*
X164639886Y-100458007D01*
X164609739Y-100474121D01*
X164577025Y-100484045D01*
X164536863Y-100488000D01*
X163949139Y-100488000D01*
X163908977Y-100484045D01*
X163876263Y-100474121D01*
X163846116Y-100458007D01*
X163819686Y-100436315D01*
X163797994Y-100409885D01*
X163781880Y-100379738D01*
X163771956Y-100347024D01*
X163768001Y-100306862D01*
X163768001Y-99619138D01*
X163771956Y-99578976D01*
X163781880Y-99546262D01*
X163797994Y-99516115D01*
X163819686Y-99489685D01*
X163846116Y-99467993D01*
X163876263Y-99451879D01*
X163908977Y-99441955D01*
X163949139Y-99438000D01*
X164536863Y-99438000D01*
X164577025Y-99441955D01*
X164577025Y-99441955D01*
G37*
G36*
X123715024Y-99350955D02*
G01*
X123747738Y-99360879D01*
X123777885Y-99376993D01*
X123804315Y-99398685D01*
X123826007Y-99425115D01*
X123842121Y-99455262D01*
X123852045Y-99487976D01*
X123856000Y-99528138D01*
X123856000Y-100115862D01*
X123852045Y-100156024D01*
X123842121Y-100188738D01*
X123826007Y-100218885D01*
X123804315Y-100245315D01*
X123777885Y-100267007D01*
X123747738Y-100283121D01*
X123715024Y-100293045D01*
X123674862Y-100297000D01*
X122987138Y-100297000D01*
X122946976Y-100293045D01*
X122914262Y-100283121D01*
X122884115Y-100267007D01*
X122857685Y-100245315D01*
X122835993Y-100218885D01*
X122819879Y-100188738D01*
X122809955Y-100156024D01*
X122806000Y-100115862D01*
X122806000Y-99528138D01*
X122809955Y-99487976D01*
X122819879Y-99455262D01*
X122835993Y-99425115D01*
X122857685Y-99398685D01*
X122884115Y-99376993D01*
X122914262Y-99360879D01*
X122946976Y-99350955D01*
X122987138Y-99347000D01*
X123674862Y-99347000D01*
X123715024Y-99350955D01*
X123715024Y-99350955D01*
G37*
G36*
X125465024Y-99350955D02*
G01*
X125497738Y-99360879D01*
X125527885Y-99376993D01*
X125554315Y-99398685D01*
X125576007Y-99425115D01*
X125592121Y-99455262D01*
X125602045Y-99487976D01*
X125606000Y-99528138D01*
X125606000Y-100115862D01*
X125602045Y-100156024D01*
X125592121Y-100188738D01*
X125576007Y-100218885D01*
X125554315Y-100245315D01*
X125527885Y-100267007D01*
X125497738Y-100283121D01*
X125465024Y-100293045D01*
X125424862Y-100297000D01*
X124737138Y-100297000D01*
X124696976Y-100293045D01*
X124664262Y-100283121D01*
X124634115Y-100267007D01*
X124607685Y-100245315D01*
X124585993Y-100218885D01*
X124569879Y-100188738D01*
X124559955Y-100156024D01*
X124556000Y-100115862D01*
X124556000Y-99528138D01*
X124559955Y-99487976D01*
X124569879Y-99455262D01*
X124585993Y-99425115D01*
X124607685Y-99398685D01*
X124634115Y-99376993D01*
X124664262Y-99360879D01*
X124696976Y-99350955D01*
X124737138Y-99347000D01*
X125424862Y-99347000D01*
X125465024Y-99350955D01*
X125465024Y-99350955D01*
G37*
G36*
X167911024Y-99350955D02*
G01*
X167943738Y-99360879D01*
X167973885Y-99376993D01*
X168000315Y-99398685D01*
X168022007Y-99425115D01*
X168038121Y-99455262D01*
X168048045Y-99487976D01*
X168052000Y-99528138D01*
X168052000Y-100115862D01*
X168048045Y-100156024D01*
X168038121Y-100188738D01*
X168022007Y-100218885D01*
X168000315Y-100245315D01*
X167973885Y-100267007D01*
X167943738Y-100283121D01*
X167911024Y-100293045D01*
X167870862Y-100297000D01*
X167183138Y-100297000D01*
X167142976Y-100293045D01*
X167110262Y-100283121D01*
X167080115Y-100267007D01*
X167053685Y-100245315D01*
X167031993Y-100218885D01*
X167015879Y-100188738D01*
X167005955Y-100156024D01*
X167002000Y-100115862D01*
X167002000Y-99528138D01*
X167005955Y-99487976D01*
X167015879Y-99455262D01*
X167031993Y-99425115D01*
X167053685Y-99398685D01*
X167080115Y-99376993D01*
X167110262Y-99360879D01*
X167142976Y-99350955D01*
X167183138Y-99347000D01*
X167870862Y-99347000D01*
X167911024Y-99350955D01*
X167911024Y-99350955D01*
G37*
G36*
X169661024Y-99350955D02*
G01*
X169693738Y-99360879D01*
X169723885Y-99376993D01*
X169750315Y-99398685D01*
X169772007Y-99425115D01*
X169788121Y-99455262D01*
X169798045Y-99487976D01*
X169802000Y-99528138D01*
X169802000Y-100115862D01*
X169798045Y-100156024D01*
X169788121Y-100188738D01*
X169772007Y-100218885D01*
X169750315Y-100245315D01*
X169723885Y-100267007D01*
X169693738Y-100283121D01*
X169661024Y-100293045D01*
X169620862Y-100297000D01*
X168933138Y-100297000D01*
X168892976Y-100293045D01*
X168860262Y-100283121D01*
X168830115Y-100267007D01*
X168803685Y-100245315D01*
X168781993Y-100218885D01*
X168765879Y-100188738D01*
X168755955Y-100156024D01*
X168752000Y-100115862D01*
X168752000Y-99528138D01*
X168755955Y-99487976D01*
X168765879Y-99455262D01*
X168781993Y-99425115D01*
X168803685Y-99398685D01*
X168830115Y-99376993D01*
X168860262Y-99360879D01*
X168892976Y-99350955D01*
X168933138Y-99347000D01*
X169620862Y-99347000D01*
X169661024Y-99350955D01*
X169661024Y-99350955D01*
G37*
G36*
X118942000Y-98703357D02*
G01*
X118944402Y-98727743D01*
X118951515Y-98751192D01*
X118963066Y-98772803D01*
X118978611Y-98791745D01*
X118997553Y-98807290D01*
X119019166Y-98818842D01*
X119023575Y-98820668D01*
X119078156Y-98857138D01*
X119138224Y-98897274D01*
X119235726Y-98994776D01*
X119261493Y-99033340D01*
X119312334Y-99109428D01*
X119355580Y-99213835D01*
X119367131Y-99235446D01*
X119382676Y-99254388D01*
X119401618Y-99269934D01*
X119423228Y-99281485D01*
X119446677Y-99288598D01*
X119471064Y-99291000D01*
X120812936Y-99291000D01*
X120837322Y-99288598D01*
X120860771Y-99281485D01*
X120882382Y-99269934D01*
X120901324Y-99254389D01*
X120916869Y-99235447D01*
X120928420Y-99213835D01*
X120971666Y-99109428D01*
X121022507Y-99033340D01*
X121048274Y-98994776D01*
X121145776Y-98897274D01*
X121205844Y-98857138D01*
X121260425Y-98820668D01*
X121264834Y-98818842D01*
X121286445Y-98807291D01*
X121305387Y-98791746D01*
X121320933Y-98772805D01*
X121332484Y-98751194D01*
X121339598Y-98727745D01*
X121342000Y-98703357D01*
X121342000Y-98541000D01*
X122292000Y-98541000D01*
X122292000Y-99520847D01*
X122285701Y-99541613D01*
X122265100Y-99645182D01*
X122212333Y-99772573D01*
X122212332Y-99772574D01*
X122135726Y-99887224D01*
X122038224Y-99984726D01*
X121980510Y-100023289D01*
X121923573Y-100061333D01*
X121796182Y-100114100D01*
X121692613Y-100134701D01*
X121671847Y-100141000D01*
X118612153Y-100141000D01*
X118591387Y-100134701D01*
X118487818Y-100114100D01*
X118360427Y-100061333D01*
X118303490Y-100023289D01*
X118245776Y-99984726D01*
X118148274Y-99887224D01*
X118071668Y-99772574D01*
X118071667Y-99772573D01*
X118018900Y-99645182D01*
X117998299Y-99541613D01*
X117992000Y-99520847D01*
X117992000Y-98541000D01*
X118942000Y-98541000D01*
X118942000Y-98703357D01*
X118942000Y-98703357D01*
G37*
G36*
X139305000Y-97277001D02*
G01*
X139307402Y-97301387D01*
X139314515Y-97324836D01*
X139326066Y-97346447D01*
X139341611Y-97365389D01*
X139360553Y-97380934D01*
X139382164Y-97392485D01*
X139405613Y-97399598D01*
X139429999Y-97402000D01*
X140305000Y-97402000D01*
X140305000Y-99702000D01*
X139429999Y-99702000D01*
X139405613Y-99704402D01*
X139382164Y-99711515D01*
X139360553Y-99723066D01*
X139341611Y-99738611D01*
X139326066Y-99757553D01*
X139314515Y-99779164D01*
X139307402Y-99802613D01*
X139305000Y-99826999D01*
X139305000Y-99902000D01*
X137555000Y-99902000D01*
X137555000Y-99826999D01*
X137552598Y-99802613D01*
X137545485Y-99779164D01*
X137533934Y-99757553D01*
X137518389Y-99738611D01*
X137499447Y-99723066D01*
X137477836Y-99711515D01*
X137454387Y-99704402D01*
X137430001Y-99702000D01*
X136555000Y-99702000D01*
X136555000Y-97402000D01*
X137430001Y-97402000D01*
X137454387Y-97399598D01*
X137477836Y-97392485D01*
X137499447Y-97380934D01*
X137518389Y-97365389D01*
X137533934Y-97346447D01*
X137545485Y-97324836D01*
X137552598Y-97301387D01*
X137555000Y-97277001D01*
X137555000Y-97202000D01*
X139305000Y-97202000D01*
X139305000Y-97277001D01*
X139305000Y-97277001D01*
G37*
G36*
X142320024Y-98679955D02*
G01*
X142352738Y-98689879D01*
X142382885Y-98705993D01*
X142409315Y-98727685D01*
X142431007Y-98754115D01*
X142447121Y-98784262D01*
X142457045Y-98816976D01*
X142461000Y-98857138D01*
X142461000Y-99544862D01*
X142457045Y-99585024D01*
X142447121Y-99617738D01*
X142431007Y-99647885D01*
X142409315Y-99674315D01*
X142382885Y-99696007D01*
X142352738Y-99712121D01*
X142320024Y-99722045D01*
X142279862Y-99726000D01*
X141692138Y-99726000D01*
X141651976Y-99722045D01*
X141619262Y-99712121D01*
X141589115Y-99696007D01*
X141562685Y-99674315D01*
X141540993Y-99647885D01*
X141524879Y-99617738D01*
X141514955Y-99585024D01*
X141511000Y-99544862D01*
X141511000Y-98857138D01*
X141514955Y-98816976D01*
X141524879Y-98784262D01*
X141540993Y-98754115D01*
X141562685Y-98727685D01*
X141589115Y-98705993D01*
X141619262Y-98689879D01*
X141651976Y-98679955D01*
X141692138Y-98676000D01*
X142279862Y-98676000D01*
X142320024Y-98679955D01*
X142320024Y-98679955D01*
G37*
G36*
X101086684Y-98089111D02*
G01*
X101120219Y-98099284D01*
X101151118Y-98115800D01*
X101178205Y-98138029D01*
X101200434Y-98165116D01*
X101216950Y-98196015D01*
X101227123Y-98229550D01*
X101231162Y-98270559D01*
X101231162Y-99299585D01*
X101227123Y-99340594D01*
X101216950Y-99374129D01*
X101200434Y-99405028D01*
X101178205Y-99432115D01*
X101151118Y-99454344D01*
X101120219Y-99470860D01*
X101086684Y-99481033D01*
X101045675Y-99485072D01*
X100266649Y-99485072D01*
X100225640Y-99481033D01*
X100192105Y-99470860D01*
X100161206Y-99454344D01*
X100134119Y-99432115D01*
X100111890Y-99405028D01*
X100095374Y-99374129D01*
X100085201Y-99340594D01*
X100081162Y-99299585D01*
X100081162Y-98270559D01*
X100085201Y-98229550D01*
X100095374Y-98196015D01*
X100111890Y-98165116D01*
X100134119Y-98138029D01*
X100161206Y-98115800D01*
X100192105Y-98099284D01*
X100225640Y-98089111D01*
X100266649Y-98085072D01*
X101045675Y-98085072D01*
X101086684Y-98089111D01*
X101086684Y-98089111D01*
G37*
G36*
X103136684Y-98089111D02*
G01*
X103170219Y-98099284D01*
X103201118Y-98115800D01*
X103228205Y-98138029D01*
X103250434Y-98165116D01*
X103266950Y-98196015D01*
X103277123Y-98229550D01*
X103281162Y-98270559D01*
X103281162Y-99299585D01*
X103277123Y-99340594D01*
X103266950Y-99374129D01*
X103250434Y-99405028D01*
X103228205Y-99432115D01*
X103201118Y-99454344D01*
X103170219Y-99470860D01*
X103136684Y-99481033D01*
X103095675Y-99485072D01*
X102316649Y-99485072D01*
X102275640Y-99481033D01*
X102242105Y-99470860D01*
X102211206Y-99454344D01*
X102184119Y-99432115D01*
X102161890Y-99405028D01*
X102145374Y-99374129D01*
X102135201Y-99340594D01*
X102131162Y-99299585D01*
X102131162Y-98270559D01*
X102135201Y-98229550D01*
X102145374Y-98196015D01*
X102161890Y-98165116D01*
X102184119Y-98138029D01*
X102211206Y-98115800D01*
X102242105Y-98099284D01*
X102275640Y-98089111D01*
X102316649Y-98085072D01*
X103095675Y-98085072D01*
X103136684Y-98089111D01*
X103136684Y-98089111D01*
G37*
G36*
X105000186Y-98314027D02*
G01*
X105032900Y-98323951D01*
X105063047Y-98340065D01*
X105089477Y-98361757D01*
X105111169Y-98388187D01*
X105127283Y-98418334D01*
X105137207Y-98451048D01*
X105141162Y-98491210D01*
X105141162Y-99078934D01*
X105137207Y-99119096D01*
X105127283Y-99151810D01*
X105111169Y-99181957D01*
X105089477Y-99208387D01*
X105063047Y-99230079D01*
X105032900Y-99246193D01*
X105000186Y-99256117D01*
X104960024Y-99260072D01*
X104272300Y-99260072D01*
X104232138Y-99256117D01*
X104199424Y-99246193D01*
X104169277Y-99230079D01*
X104142847Y-99208387D01*
X104121155Y-99181957D01*
X104105041Y-99151810D01*
X104095117Y-99119096D01*
X104091162Y-99078934D01*
X104091162Y-98491210D01*
X104095117Y-98451048D01*
X104105041Y-98418334D01*
X104121155Y-98388187D01*
X104142847Y-98361757D01*
X104169277Y-98340065D01*
X104199424Y-98323951D01*
X104232138Y-98314027D01*
X104272300Y-98310072D01*
X104960024Y-98310072D01*
X105000186Y-98314027D01*
X105000186Y-98314027D01*
G37*
G36*
X106750186Y-98314027D02*
G01*
X106782900Y-98323951D01*
X106813047Y-98340065D01*
X106839477Y-98361757D01*
X106861169Y-98388187D01*
X106877283Y-98418334D01*
X106887207Y-98451048D01*
X106891162Y-98491210D01*
X106891162Y-99078934D01*
X106887207Y-99119096D01*
X106877283Y-99151810D01*
X106861169Y-99181957D01*
X106839477Y-99208387D01*
X106813047Y-99230079D01*
X106782900Y-99246193D01*
X106750186Y-99256117D01*
X106710024Y-99260072D01*
X106022300Y-99260072D01*
X105982138Y-99256117D01*
X105949424Y-99246193D01*
X105919277Y-99230079D01*
X105892847Y-99208387D01*
X105871155Y-99181957D01*
X105855041Y-99151810D01*
X105845117Y-99119096D01*
X105841162Y-99078934D01*
X105841162Y-98491210D01*
X105845117Y-98451048D01*
X105855041Y-98418334D01*
X105871155Y-98388187D01*
X105892847Y-98361757D01*
X105919277Y-98340065D01*
X105949424Y-98323951D01*
X105982138Y-98314027D01*
X106022300Y-98310072D01*
X106710024Y-98310072D01*
X106750186Y-98314027D01*
X106750186Y-98314027D01*
G37*
G36*
X178579024Y-97826955D02*
G01*
X178611738Y-97836879D01*
X178641885Y-97852993D01*
X178668315Y-97874685D01*
X178690007Y-97901115D01*
X178706121Y-97931262D01*
X178716045Y-97963976D01*
X178720000Y-98004138D01*
X178720000Y-98591862D01*
X178716045Y-98632024D01*
X178706121Y-98664738D01*
X178690007Y-98694885D01*
X178668315Y-98721315D01*
X178641885Y-98743007D01*
X178611738Y-98759121D01*
X178579024Y-98769045D01*
X178538862Y-98773000D01*
X177851138Y-98773000D01*
X177810976Y-98769045D01*
X177778262Y-98759121D01*
X177748115Y-98743007D01*
X177721685Y-98721315D01*
X177699993Y-98694885D01*
X177683879Y-98664738D01*
X177673955Y-98632024D01*
X177670000Y-98591862D01*
X177670000Y-98004138D01*
X177673955Y-97963976D01*
X177683879Y-97931262D01*
X177699993Y-97901115D01*
X177721685Y-97874685D01*
X177748115Y-97852993D01*
X177778262Y-97836879D01*
X177810976Y-97826955D01*
X177851138Y-97823000D01*
X178538862Y-97823000D01*
X178579024Y-97826955D01*
X178579024Y-97826955D01*
G37*
G36*
X180329024Y-97826955D02*
G01*
X180361738Y-97836879D01*
X180391885Y-97852993D01*
X180418315Y-97874685D01*
X180440007Y-97901115D01*
X180456121Y-97931262D01*
X180466045Y-97963976D01*
X180470000Y-98004138D01*
X180470000Y-98591862D01*
X180466045Y-98632024D01*
X180456121Y-98664738D01*
X180440007Y-98694885D01*
X180418315Y-98721315D01*
X180391885Y-98743007D01*
X180361738Y-98759121D01*
X180329024Y-98769045D01*
X180288862Y-98773000D01*
X179601138Y-98773000D01*
X179560976Y-98769045D01*
X179528262Y-98759121D01*
X179498115Y-98743007D01*
X179471685Y-98721315D01*
X179449993Y-98694885D01*
X179433879Y-98664738D01*
X179423955Y-98632024D01*
X179420000Y-98591862D01*
X179420000Y-98004138D01*
X179423955Y-97963976D01*
X179433879Y-97931262D01*
X179449993Y-97901115D01*
X179471685Y-97874685D01*
X179498115Y-97852993D01*
X179528262Y-97836879D01*
X179560976Y-97826955D01*
X179601138Y-97823000D01*
X180288862Y-97823000D01*
X180329024Y-97826955D01*
X180329024Y-97826955D01*
G37*
G36*
X128096024Y-97635955D02*
G01*
X128128738Y-97645879D01*
X128158885Y-97661993D01*
X128185315Y-97683685D01*
X128207007Y-97710115D01*
X128223121Y-97740262D01*
X128233045Y-97772976D01*
X128237000Y-97813138D01*
X128237000Y-98500862D01*
X128233045Y-98541024D01*
X128223121Y-98573738D01*
X128207007Y-98603885D01*
X128185315Y-98630315D01*
X128158885Y-98652007D01*
X128128738Y-98668121D01*
X128096024Y-98678045D01*
X128055862Y-98682000D01*
X127468138Y-98682000D01*
X127427976Y-98678045D01*
X127395262Y-98668121D01*
X127365115Y-98652007D01*
X127338685Y-98630315D01*
X127316993Y-98603885D01*
X127300879Y-98573738D01*
X127290955Y-98541024D01*
X127287000Y-98500862D01*
X127287000Y-97813138D01*
X127290955Y-97772976D01*
X127300879Y-97740262D01*
X127316993Y-97710115D01*
X127338685Y-97683685D01*
X127365115Y-97661993D01*
X127395262Y-97645879D01*
X127427976Y-97635955D01*
X127468138Y-97632000D01*
X128055862Y-97632000D01*
X128096024Y-97635955D01*
X128096024Y-97635955D01*
G37*
G36*
X108873186Y-97615027D02*
G01*
X108905900Y-97624951D01*
X108936047Y-97641065D01*
X108962477Y-97662757D01*
X108984169Y-97689187D01*
X109000283Y-97719334D01*
X109010207Y-97752048D01*
X109014162Y-97792210D01*
X109014162Y-98479934D01*
X109010207Y-98520096D01*
X109000283Y-98552810D01*
X108984169Y-98582957D01*
X108962477Y-98609387D01*
X108936047Y-98631079D01*
X108905900Y-98647193D01*
X108873186Y-98657117D01*
X108833024Y-98661072D01*
X108245300Y-98661072D01*
X108205138Y-98657117D01*
X108172424Y-98647193D01*
X108142277Y-98631079D01*
X108115847Y-98609387D01*
X108094155Y-98582957D01*
X108078041Y-98552810D01*
X108068117Y-98520096D01*
X108064162Y-98479934D01*
X108064162Y-97792210D01*
X108068117Y-97752048D01*
X108078041Y-97719334D01*
X108094155Y-97689187D01*
X108115847Y-97662757D01*
X108142277Y-97641065D01*
X108172424Y-97624951D01*
X108205138Y-97615027D01*
X108245300Y-97611072D01*
X108833024Y-97611072D01*
X108873186Y-97615027D01*
X108873186Y-97615027D01*
G37*
G36*
X125589000Y-96007001D02*
G01*
X125591402Y-96031387D01*
X125598515Y-96054836D01*
X125610066Y-96076447D01*
X125625611Y-96095389D01*
X125644553Y-96110934D01*
X125666164Y-96122485D01*
X125689613Y-96129598D01*
X125713999Y-96132000D01*
X126589000Y-96132000D01*
X126589000Y-98432000D01*
X125713999Y-98432000D01*
X125689613Y-98434402D01*
X125666164Y-98441515D01*
X125644553Y-98453066D01*
X125625611Y-98468611D01*
X125610066Y-98487553D01*
X125598515Y-98509164D01*
X125591402Y-98532613D01*
X125589000Y-98556999D01*
X125589000Y-98632000D01*
X123839000Y-98632000D01*
X123839000Y-98556999D01*
X123836598Y-98532613D01*
X123829485Y-98509164D01*
X123817934Y-98487553D01*
X123802389Y-98468611D01*
X123783447Y-98453066D01*
X123761836Y-98441515D01*
X123738387Y-98434402D01*
X123714001Y-98432000D01*
X122839000Y-98432000D01*
X122839000Y-96132000D01*
X123714001Y-96132000D01*
X123738387Y-96129598D01*
X123761836Y-96122485D01*
X123783447Y-96110934D01*
X123802389Y-96095389D01*
X123817934Y-96076447D01*
X123829485Y-96054836D01*
X123836598Y-96031387D01*
X123839000Y-96007001D01*
X123839000Y-95932000D01*
X125589000Y-95932000D01*
X125589000Y-96007001D01*
X125589000Y-96007001D01*
G37*
G36*
X134900613Y-96916299D02*
G01*
X135004182Y-96936900D01*
X135131573Y-96989667D01*
X135131574Y-96989668D01*
X135246224Y-97066274D01*
X135343726Y-97163776D01*
X135369250Y-97201976D01*
X135420333Y-97278427D01*
X135473100Y-97405818D01*
X135493701Y-97509387D01*
X135500000Y-97530153D01*
X135500000Y-98510000D01*
X134550000Y-98510000D01*
X134550000Y-98347643D01*
X134547598Y-98323257D01*
X134540485Y-98299808D01*
X134528934Y-98278197D01*
X134513389Y-98259255D01*
X134494447Y-98243710D01*
X134472834Y-98232158D01*
X134468425Y-98230332D01*
X134392166Y-98179377D01*
X134353776Y-98153726D01*
X134256274Y-98056224D01*
X134228172Y-98014166D01*
X134179666Y-97941572D01*
X134136420Y-97837165D01*
X134124869Y-97815554D01*
X134109324Y-97796612D01*
X134090382Y-97781066D01*
X134068772Y-97769515D01*
X134045323Y-97762402D01*
X134020936Y-97760000D01*
X132679064Y-97760000D01*
X132654678Y-97762402D01*
X132631229Y-97769515D01*
X132609618Y-97781066D01*
X132590676Y-97796611D01*
X132575131Y-97815553D01*
X132563580Y-97837165D01*
X132520334Y-97941572D01*
X132471828Y-98014166D01*
X132443726Y-98056224D01*
X132346224Y-98153726D01*
X132307834Y-98179377D01*
X132231575Y-98230332D01*
X132227166Y-98232158D01*
X132205555Y-98243709D01*
X132186613Y-98259254D01*
X132171067Y-98278195D01*
X132159516Y-98299806D01*
X132152402Y-98323255D01*
X132150000Y-98347643D01*
X132150000Y-98510000D01*
X131200000Y-98510000D01*
X131200000Y-97530153D01*
X131206299Y-97509387D01*
X131226900Y-97405818D01*
X131279667Y-97278427D01*
X131330750Y-97201976D01*
X131356274Y-97163776D01*
X131453776Y-97066274D01*
X131568426Y-96989668D01*
X131568427Y-96989667D01*
X131695818Y-96936900D01*
X131799387Y-96916299D01*
X131820153Y-96910000D01*
X134879847Y-96910000D01*
X134900613Y-96916299D01*
X134900613Y-96916299D01*
G37*
G36*
X87456024Y-97381955D02*
G01*
X87488738Y-97391879D01*
X87518885Y-97407993D01*
X87545315Y-97429685D01*
X87567007Y-97456115D01*
X87583121Y-97486262D01*
X87593045Y-97518976D01*
X87597000Y-97559138D01*
X87597000Y-98246862D01*
X87593045Y-98287024D01*
X87583121Y-98319738D01*
X87567007Y-98349885D01*
X87545315Y-98376315D01*
X87518885Y-98398007D01*
X87488738Y-98414121D01*
X87456024Y-98424045D01*
X87415862Y-98428000D01*
X86828138Y-98428000D01*
X86787976Y-98424045D01*
X86755262Y-98414121D01*
X86725115Y-98398007D01*
X86698685Y-98376315D01*
X86676993Y-98349885D01*
X86660879Y-98319738D01*
X86650955Y-98287024D01*
X86647000Y-98246862D01*
X86647000Y-97559138D01*
X86650955Y-97518976D01*
X86660879Y-97486262D01*
X86676993Y-97456115D01*
X86698685Y-97429685D01*
X86725115Y-97407993D01*
X86755262Y-97391879D01*
X86787976Y-97381955D01*
X86828138Y-97378000D01*
X87415862Y-97378000D01*
X87456024Y-97381955D01*
X87456024Y-97381955D01*
G37*
G36*
X144007024Y-97064955D02*
G01*
X144039738Y-97074879D01*
X144069885Y-97090993D01*
X144096315Y-97112685D01*
X144118007Y-97139115D01*
X144134121Y-97169262D01*
X144144045Y-97201976D01*
X144148000Y-97242138D01*
X144148000Y-97829862D01*
X144144045Y-97870024D01*
X144134121Y-97902738D01*
X144118007Y-97932885D01*
X144096315Y-97959315D01*
X144069885Y-97981007D01*
X144039738Y-97997121D01*
X144007024Y-98007045D01*
X143966862Y-98011000D01*
X143279138Y-98011000D01*
X143238976Y-98007045D01*
X143206262Y-97997121D01*
X143176115Y-97981007D01*
X143149685Y-97959315D01*
X143127993Y-97932885D01*
X143111879Y-97902738D01*
X143101955Y-97870024D01*
X143098000Y-97829862D01*
X143098000Y-97242138D01*
X143101955Y-97201976D01*
X143111879Y-97169262D01*
X143127993Y-97139115D01*
X143149685Y-97112685D01*
X143176115Y-97090993D01*
X143206262Y-97074879D01*
X143238976Y-97064955D01*
X143279138Y-97061000D01*
X143966862Y-97061000D01*
X144007024Y-97064955D01*
X144007024Y-97064955D01*
G37*
G36*
X142257024Y-97064955D02*
G01*
X142289738Y-97074879D01*
X142319885Y-97090993D01*
X142346315Y-97112685D01*
X142368007Y-97139115D01*
X142384121Y-97169262D01*
X142394045Y-97201976D01*
X142398000Y-97242138D01*
X142398000Y-97829862D01*
X142394045Y-97870024D01*
X142384121Y-97902738D01*
X142368007Y-97932885D01*
X142346315Y-97959315D01*
X142319885Y-97981007D01*
X142289738Y-97997121D01*
X142257024Y-98007045D01*
X142216862Y-98011000D01*
X141529138Y-98011000D01*
X141488976Y-98007045D01*
X141456262Y-97997121D01*
X141426115Y-97981007D01*
X141399685Y-97959315D01*
X141377993Y-97932885D01*
X141361879Y-97902738D01*
X141351955Y-97870024D01*
X141348000Y-97829862D01*
X141348000Y-97242138D01*
X141351955Y-97201976D01*
X141361879Y-97169262D01*
X141377993Y-97139115D01*
X141399685Y-97112685D01*
X141426115Y-97090993D01*
X141456262Y-97074879D01*
X141488976Y-97064955D01*
X141529138Y-97061000D01*
X142216862Y-97061000D01*
X142257024Y-97064955D01*
X142257024Y-97064955D01*
G37*
G36*
X102686186Y-96536027D02*
G01*
X102718900Y-96545951D01*
X102749047Y-96562065D01*
X102775477Y-96583757D01*
X102797169Y-96610187D01*
X102813283Y-96640334D01*
X102823207Y-96673048D01*
X102827162Y-96713210D01*
X102827162Y-97300934D01*
X102823207Y-97341096D01*
X102813283Y-97373810D01*
X102797169Y-97403957D01*
X102775477Y-97430387D01*
X102749047Y-97452079D01*
X102718900Y-97468193D01*
X102686186Y-97478117D01*
X102646024Y-97482072D01*
X101958300Y-97482072D01*
X101918138Y-97478117D01*
X101885424Y-97468193D01*
X101855277Y-97452079D01*
X101828847Y-97430387D01*
X101807155Y-97403957D01*
X101791041Y-97373810D01*
X101781117Y-97341096D01*
X101777162Y-97300934D01*
X101777162Y-96713210D01*
X101781117Y-96673048D01*
X101791041Y-96640334D01*
X101807155Y-96610187D01*
X101828847Y-96583757D01*
X101855277Y-96562065D01*
X101885424Y-96545951D01*
X101918138Y-96536027D01*
X101958300Y-96532072D01*
X102646024Y-96532072D01*
X102686186Y-96536027D01*
X102686186Y-96536027D01*
G37*
G36*
X100936186Y-96536027D02*
G01*
X100968900Y-96545951D01*
X100999047Y-96562065D01*
X101025477Y-96583757D01*
X101047169Y-96610187D01*
X101063283Y-96640334D01*
X101073207Y-96673048D01*
X101077162Y-96713210D01*
X101077162Y-97300934D01*
X101073207Y-97341096D01*
X101063283Y-97373810D01*
X101047169Y-97403957D01*
X101025477Y-97430387D01*
X100999047Y-97452079D01*
X100968900Y-97468193D01*
X100936186Y-97478117D01*
X100896024Y-97482072D01*
X100208300Y-97482072D01*
X100168138Y-97478117D01*
X100135424Y-97468193D01*
X100105277Y-97452079D01*
X100078847Y-97430387D01*
X100057155Y-97403957D01*
X100041041Y-97373810D01*
X100031117Y-97341096D01*
X100027162Y-97300934D01*
X100027162Y-96713210D01*
X100031117Y-96673048D01*
X100041041Y-96640334D01*
X100057155Y-96610187D01*
X100078847Y-96583757D01*
X100105277Y-96562065D01*
X100135424Y-96545951D01*
X100168138Y-96536027D01*
X100208300Y-96532072D01*
X100896024Y-96532072D01*
X100936186Y-96536027D01*
X100936186Y-96536027D01*
G37*
G36*
X121692613Y-95847299D02*
G01*
X121796182Y-95867900D01*
X121923573Y-95920667D01*
X121973634Y-95954117D01*
X122038224Y-95997274D01*
X122135726Y-96094776D01*
X122158993Y-96129598D01*
X122212333Y-96209427D01*
X122265100Y-96336818D01*
X122285701Y-96440387D01*
X122292000Y-96461153D01*
X122292000Y-97441000D01*
X121342000Y-97441000D01*
X121342000Y-97278643D01*
X121339598Y-97254257D01*
X121332485Y-97230808D01*
X121320934Y-97209197D01*
X121305389Y-97190255D01*
X121286447Y-97174710D01*
X121264834Y-97163158D01*
X121260425Y-97161332D01*
X121170171Y-97101026D01*
X121145776Y-97084726D01*
X121048274Y-96987224D01*
X121022507Y-96948660D01*
X120971666Y-96872572D01*
X120928420Y-96768165D01*
X120916869Y-96746554D01*
X120901324Y-96727612D01*
X120882382Y-96712066D01*
X120860772Y-96700515D01*
X120837323Y-96693402D01*
X120812936Y-96691000D01*
X119471064Y-96691000D01*
X119446678Y-96693402D01*
X119423229Y-96700515D01*
X119401618Y-96712066D01*
X119382676Y-96727611D01*
X119367131Y-96746553D01*
X119355580Y-96768165D01*
X119312334Y-96872572D01*
X119261493Y-96948660D01*
X119235726Y-96987224D01*
X119138224Y-97084726D01*
X119113829Y-97101026D01*
X119023575Y-97161332D01*
X119019166Y-97163158D01*
X118997555Y-97174709D01*
X118978613Y-97190254D01*
X118963067Y-97209195D01*
X118951516Y-97230806D01*
X118944402Y-97254255D01*
X118942000Y-97278643D01*
X118942000Y-97441000D01*
X117992000Y-97441000D01*
X117992000Y-96461153D01*
X117998299Y-96440387D01*
X118018900Y-96336818D01*
X118071667Y-96209427D01*
X118125007Y-96129598D01*
X118148274Y-96094776D01*
X118245776Y-95997274D01*
X118310366Y-95954117D01*
X118360427Y-95920667D01*
X118487818Y-95867900D01*
X118591387Y-95847299D01*
X118612153Y-95841000D01*
X121671847Y-95841000D01*
X121692613Y-95847299D01*
X121692613Y-95847299D01*
G37*
G36*
X128096024Y-95885955D02*
G01*
X128128738Y-95895879D01*
X128158885Y-95911993D01*
X128185315Y-95933685D01*
X128207007Y-95960115D01*
X128223121Y-95990262D01*
X128233045Y-96022976D01*
X128237000Y-96063138D01*
X128237000Y-96750862D01*
X128233045Y-96791024D01*
X128223121Y-96823738D01*
X128207007Y-96853885D01*
X128185315Y-96880315D01*
X128158885Y-96902007D01*
X128128738Y-96918121D01*
X128096024Y-96928045D01*
X128055862Y-96932000D01*
X127468138Y-96932000D01*
X127427976Y-96928045D01*
X127395262Y-96918121D01*
X127365115Y-96902007D01*
X127338685Y-96880315D01*
X127316993Y-96853885D01*
X127300879Y-96823738D01*
X127290955Y-96791024D01*
X127287000Y-96750862D01*
X127287000Y-96063138D01*
X127290955Y-96022976D01*
X127300879Y-95990262D01*
X127316993Y-95960115D01*
X127338685Y-95933685D01*
X127365115Y-95911993D01*
X127395262Y-95895879D01*
X127427976Y-95885955D01*
X127468138Y-95882000D01*
X128055862Y-95882000D01*
X128096024Y-95885955D01*
X128096024Y-95885955D01*
G37*
G36*
X108873186Y-95865027D02*
G01*
X108905900Y-95874951D01*
X108936047Y-95891065D01*
X108962477Y-95912757D01*
X108984169Y-95939187D01*
X109000283Y-95969334D01*
X109010207Y-96002048D01*
X109014162Y-96042210D01*
X109014162Y-96729934D01*
X109010207Y-96770096D01*
X109000283Y-96802810D01*
X108984169Y-96832957D01*
X108962477Y-96859387D01*
X108936047Y-96881079D01*
X108905900Y-96897193D01*
X108873186Y-96907117D01*
X108833024Y-96911072D01*
X108245300Y-96911072D01*
X108205138Y-96907117D01*
X108172424Y-96897193D01*
X108142277Y-96881079D01*
X108115847Y-96859387D01*
X108094155Y-96832957D01*
X108078041Y-96802810D01*
X108068117Y-96770096D01*
X108064162Y-96729934D01*
X108064162Y-96042210D01*
X108068117Y-96002048D01*
X108078041Y-95969334D01*
X108094155Y-95939187D01*
X108115847Y-95912757D01*
X108142277Y-95891065D01*
X108172424Y-95874951D01*
X108205138Y-95865027D01*
X108245300Y-95861072D01*
X108833024Y-95861072D01*
X108873186Y-95865027D01*
X108873186Y-95865027D01*
G37*
G36*
X173753024Y-95794955D02*
G01*
X173785738Y-95804879D01*
X173815885Y-95820993D01*
X173842315Y-95842685D01*
X173864007Y-95869115D01*
X173880121Y-95899262D01*
X173890045Y-95931976D01*
X173894000Y-95972138D01*
X173894000Y-96559862D01*
X173890045Y-96600024D01*
X173880121Y-96632738D01*
X173864007Y-96662885D01*
X173842315Y-96689315D01*
X173815885Y-96711007D01*
X173785738Y-96727121D01*
X173753024Y-96737045D01*
X173712862Y-96741000D01*
X173025138Y-96741000D01*
X172984976Y-96737045D01*
X172952262Y-96727121D01*
X172922115Y-96711007D01*
X172895685Y-96689315D01*
X172873993Y-96662885D01*
X172857879Y-96632738D01*
X172847955Y-96600024D01*
X172844000Y-96559862D01*
X172844000Y-95972138D01*
X172847955Y-95931976D01*
X172857879Y-95899262D01*
X172873993Y-95869115D01*
X172895685Y-95842685D01*
X172922115Y-95820993D01*
X172952262Y-95804879D01*
X172984976Y-95794955D01*
X173025138Y-95791000D01*
X173712862Y-95791000D01*
X173753024Y-95794955D01*
X173753024Y-95794955D01*
G37*
G36*
X175503024Y-95794955D02*
G01*
X175535738Y-95804879D01*
X175565885Y-95820993D01*
X175592315Y-95842685D01*
X175614007Y-95869115D01*
X175630121Y-95899262D01*
X175640045Y-95931976D01*
X175644000Y-95972138D01*
X175644000Y-96559862D01*
X175640045Y-96600024D01*
X175630121Y-96632738D01*
X175614007Y-96662885D01*
X175592315Y-96689315D01*
X175565885Y-96711007D01*
X175535738Y-96727121D01*
X175503024Y-96737045D01*
X175462862Y-96741000D01*
X174775138Y-96741000D01*
X174734976Y-96737045D01*
X174702262Y-96727121D01*
X174672115Y-96711007D01*
X174645685Y-96689315D01*
X174623993Y-96662885D01*
X174607879Y-96632738D01*
X174597955Y-96600024D01*
X174594000Y-96559862D01*
X174594000Y-95972138D01*
X174597955Y-95931976D01*
X174607879Y-95899262D01*
X174623993Y-95869115D01*
X174645685Y-95842685D01*
X174672115Y-95820993D01*
X174702262Y-95804879D01*
X174734976Y-95794955D01*
X174775138Y-95791000D01*
X175462862Y-95791000D01*
X175503024Y-95794955D01*
X175503024Y-95794955D01*
G37*
G36*
X87456024Y-95631955D02*
G01*
X87488738Y-95641879D01*
X87518885Y-95657993D01*
X87545315Y-95679685D01*
X87567007Y-95706115D01*
X87583121Y-95736262D01*
X87593045Y-95768976D01*
X87597000Y-95809138D01*
X87597000Y-96496862D01*
X87593045Y-96537024D01*
X87583121Y-96569738D01*
X87567007Y-96599885D01*
X87545315Y-96626315D01*
X87518885Y-96648007D01*
X87488738Y-96664121D01*
X87456024Y-96674045D01*
X87415862Y-96678000D01*
X86828138Y-96678000D01*
X86787976Y-96674045D01*
X86755262Y-96664121D01*
X86725115Y-96648007D01*
X86698685Y-96626315D01*
X86676993Y-96599885D01*
X86660879Y-96569738D01*
X86650955Y-96537024D01*
X86647000Y-96496862D01*
X86647000Y-95809138D01*
X86650955Y-95768976D01*
X86660879Y-95736262D01*
X86676993Y-95706115D01*
X86698685Y-95679685D01*
X86725115Y-95657993D01*
X86755262Y-95641879D01*
X86787976Y-95631955D01*
X86828138Y-95628000D01*
X87415862Y-95628000D01*
X87456024Y-95631955D01*
X87456024Y-95631955D01*
G37*
G36*
X106391162Y-96596072D02*
G01*
X104591162Y-96596072D01*
X104591162Y-95846072D01*
X106391162Y-95846072D01*
X106391162Y-96596072D01*
X106391162Y-96596072D01*
G37*
G36*
X142257024Y-95540955D02*
G01*
X142289738Y-95550879D01*
X142319885Y-95566993D01*
X142346315Y-95588685D01*
X142368007Y-95615115D01*
X142384121Y-95645262D01*
X142394045Y-95677976D01*
X142398000Y-95718138D01*
X142398000Y-96305862D01*
X142394045Y-96346024D01*
X142384121Y-96378738D01*
X142368007Y-96408885D01*
X142346315Y-96435315D01*
X142319885Y-96457007D01*
X142289738Y-96473121D01*
X142257024Y-96483045D01*
X142216862Y-96487000D01*
X141529138Y-96487000D01*
X141488976Y-96483045D01*
X141456262Y-96473121D01*
X141426115Y-96457007D01*
X141399685Y-96435315D01*
X141377993Y-96408885D01*
X141361879Y-96378738D01*
X141351955Y-96346024D01*
X141348000Y-96305862D01*
X141348000Y-95718138D01*
X141351955Y-95677976D01*
X141361879Y-95645262D01*
X141377993Y-95615115D01*
X141399685Y-95588685D01*
X141426115Y-95566993D01*
X141456262Y-95550879D01*
X141488976Y-95540955D01*
X141529138Y-95537000D01*
X142216862Y-95537000D01*
X142257024Y-95540955D01*
X142257024Y-95540955D01*
G37*
G36*
X144007024Y-95540955D02*
G01*
X144039738Y-95550879D01*
X144069885Y-95566993D01*
X144096315Y-95588685D01*
X144118007Y-95615115D01*
X144134121Y-95645262D01*
X144144045Y-95677976D01*
X144148000Y-95718138D01*
X144148000Y-96305862D01*
X144144045Y-96346024D01*
X144134121Y-96378738D01*
X144118007Y-96408885D01*
X144096315Y-96435315D01*
X144069885Y-96457007D01*
X144039738Y-96473121D01*
X144007024Y-96483045D01*
X143966862Y-96487000D01*
X143279138Y-96487000D01*
X143238976Y-96483045D01*
X143206262Y-96473121D01*
X143176115Y-96457007D01*
X143149685Y-96435315D01*
X143127993Y-96408885D01*
X143111879Y-96378738D01*
X143101955Y-96346024D01*
X143098000Y-96305862D01*
X143098000Y-95718138D01*
X143101955Y-95677976D01*
X143111879Y-95645262D01*
X143127993Y-95615115D01*
X143149685Y-95588685D01*
X143176115Y-95566993D01*
X143206262Y-95550879D01*
X143238976Y-95540955D01*
X143279138Y-95537000D01*
X143966862Y-95537000D01*
X144007024Y-95540955D01*
X144007024Y-95540955D01*
G37*
G36*
X133875024Y-95286955D02*
G01*
X133907738Y-95296879D01*
X133937885Y-95312993D01*
X133964315Y-95334685D01*
X133986007Y-95361115D01*
X134002121Y-95391262D01*
X134012045Y-95423976D01*
X134016000Y-95464138D01*
X134016000Y-96051862D01*
X134012045Y-96092024D01*
X134002121Y-96124738D01*
X133986007Y-96154885D01*
X133964315Y-96181315D01*
X133937885Y-96203007D01*
X133907738Y-96219121D01*
X133875024Y-96229045D01*
X133834862Y-96233000D01*
X133147138Y-96233000D01*
X133106976Y-96229045D01*
X133074262Y-96219121D01*
X133044115Y-96203007D01*
X133017685Y-96181315D01*
X132995993Y-96154885D01*
X132979879Y-96124738D01*
X132969955Y-96092024D01*
X132966000Y-96051862D01*
X132966000Y-95464138D01*
X132969955Y-95423976D01*
X132979879Y-95391262D01*
X132995993Y-95361115D01*
X133017685Y-95334685D01*
X133044115Y-95312993D01*
X133074262Y-95296879D01*
X133106976Y-95286955D01*
X133147138Y-95283000D01*
X133834862Y-95283000D01*
X133875024Y-95286955D01*
X133875024Y-95286955D01*
G37*
G36*
X135625024Y-95286955D02*
G01*
X135657738Y-95296879D01*
X135687885Y-95312993D01*
X135714315Y-95334685D01*
X135736007Y-95361115D01*
X135752121Y-95391262D01*
X135762045Y-95423976D01*
X135766000Y-95464138D01*
X135766000Y-96051862D01*
X135762045Y-96092024D01*
X135752121Y-96124738D01*
X135736007Y-96154885D01*
X135714315Y-96181315D01*
X135687885Y-96203007D01*
X135657738Y-96219121D01*
X135625024Y-96229045D01*
X135584862Y-96233000D01*
X134897138Y-96233000D01*
X134856976Y-96229045D01*
X134824262Y-96219121D01*
X134794115Y-96203007D01*
X134767685Y-96181315D01*
X134745993Y-96154885D01*
X134729879Y-96124738D01*
X134719955Y-96092024D01*
X134716000Y-96051862D01*
X134716000Y-95464138D01*
X134719955Y-95423976D01*
X134729879Y-95391262D01*
X134745993Y-95361115D01*
X134767685Y-95334685D01*
X134794115Y-95312993D01*
X134824262Y-95296879D01*
X134856976Y-95286955D01*
X134897138Y-95283000D01*
X135584862Y-95283000D01*
X135625024Y-95286955D01*
X135625024Y-95286955D01*
G37*
G36*
X137685024Y-95286955D02*
G01*
X137717738Y-95296879D01*
X137747885Y-95312993D01*
X137774315Y-95334685D01*
X137796007Y-95361115D01*
X137812121Y-95391262D01*
X137822045Y-95423976D01*
X137826000Y-95464138D01*
X137826000Y-96051862D01*
X137822045Y-96092024D01*
X137812121Y-96124738D01*
X137796007Y-96154885D01*
X137774315Y-96181315D01*
X137747885Y-96203007D01*
X137717738Y-96219121D01*
X137685024Y-96229045D01*
X137644862Y-96233000D01*
X136957138Y-96233000D01*
X136916976Y-96229045D01*
X136884262Y-96219121D01*
X136854115Y-96203007D01*
X136827685Y-96181315D01*
X136805993Y-96154885D01*
X136789879Y-96124738D01*
X136779955Y-96092024D01*
X136776000Y-96051862D01*
X136776000Y-95464138D01*
X136779955Y-95423976D01*
X136789879Y-95391262D01*
X136805993Y-95361115D01*
X136827685Y-95334685D01*
X136854115Y-95312993D01*
X136884262Y-95296879D01*
X136916976Y-95286955D01*
X136957138Y-95283000D01*
X137644862Y-95283000D01*
X137685024Y-95286955D01*
X137685024Y-95286955D01*
G37*
G36*
X139435024Y-95286955D02*
G01*
X139467738Y-95296879D01*
X139497885Y-95312993D01*
X139524315Y-95334685D01*
X139546007Y-95361115D01*
X139562121Y-95391262D01*
X139572045Y-95423976D01*
X139576000Y-95464138D01*
X139576000Y-96051862D01*
X139572045Y-96092024D01*
X139562121Y-96124738D01*
X139546007Y-96154885D01*
X139524315Y-96181315D01*
X139497885Y-96203007D01*
X139467738Y-96219121D01*
X139435024Y-96229045D01*
X139394862Y-96233000D01*
X138707138Y-96233000D01*
X138666976Y-96229045D01*
X138634262Y-96219121D01*
X138604115Y-96203007D01*
X138577685Y-96181315D01*
X138555993Y-96154885D01*
X138539879Y-96124738D01*
X138529955Y-96092024D01*
X138526000Y-96051862D01*
X138526000Y-95464138D01*
X138529955Y-95423976D01*
X138539879Y-95391262D01*
X138555993Y-95361115D01*
X138577685Y-95334685D01*
X138604115Y-95312993D01*
X138634262Y-95296879D01*
X138666976Y-95286955D01*
X138707138Y-95283000D01*
X139394862Y-95283000D01*
X139435024Y-95286955D01*
X139435024Y-95286955D01*
G37*
G36*
X83217825Y-92735745D02*
G01*
X83248490Y-92745048D01*
X83276748Y-92760152D01*
X83301519Y-92780481D01*
X83321848Y-92805252D01*
X83336952Y-92833510D01*
X83346255Y-92864175D01*
X83350000Y-92902203D01*
X83350000Y-96061797D01*
X83346255Y-96099825D01*
X83336952Y-96130490D01*
X83321848Y-96158748D01*
X83301519Y-96183519D01*
X83276748Y-96203848D01*
X83248490Y-96218952D01*
X83217825Y-96228255D01*
X83179797Y-96232000D01*
X81920203Y-96232000D01*
X81882175Y-96228255D01*
X81851510Y-96218952D01*
X81823252Y-96203848D01*
X81798481Y-96183519D01*
X81778152Y-96158748D01*
X81763048Y-96130490D01*
X81753745Y-96099825D01*
X81750000Y-96061797D01*
X81750000Y-92902203D01*
X81753745Y-92864175D01*
X81763048Y-92833510D01*
X81778152Y-92805252D01*
X81798481Y-92780481D01*
X81823252Y-92760152D01*
X81851510Y-92745048D01*
X81882175Y-92735745D01*
X81920203Y-92732000D01*
X83179797Y-92732000D01*
X83217825Y-92735745D01*
X83217825Y-92735745D01*
G37*
G36*
X113682024Y-95032955D02*
G01*
X113714738Y-95042879D01*
X113744885Y-95058993D01*
X113771315Y-95080685D01*
X113793007Y-95107115D01*
X113809121Y-95137262D01*
X113819045Y-95169976D01*
X113823000Y-95210138D01*
X113823000Y-95797862D01*
X113819045Y-95838024D01*
X113809121Y-95870738D01*
X113793007Y-95900885D01*
X113771315Y-95927315D01*
X113744885Y-95949007D01*
X113714738Y-95965121D01*
X113682024Y-95975045D01*
X113641862Y-95979000D01*
X112954138Y-95979000D01*
X112913976Y-95975045D01*
X112881262Y-95965121D01*
X112851115Y-95949007D01*
X112824685Y-95927315D01*
X112802993Y-95900885D01*
X112786879Y-95870738D01*
X112776955Y-95838024D01*
X112773000Y-95797862D01*
X112773000Y-95210138D01*
X112776955Y-95169976D01*
X112786879Y-95137262D01*
X112802993Y-95107115D01*
X112824685Y-95080685D01*
X112851115Y-95058993D01*
X112881262Y-95042879D01*
X112913976Y-95032955D01*
X112954138Y-95029000D01*
X113641862Y-95029000D01*
X113682024Y-95032955D01*
X113682024Y-95032955D01*
G37*
G36*
X115432024Y-95032955D02*
G01*
X115464738Y-95042879D01*
X115494885Y-95058993D01*
X115521315Y-95080685D01*
X115543007Y-95107115D01*
X115559121Y-95137262D01*
X115569045Y-95169976D01*
X115573000Y-95210138D01*
X115573000Y-95797862D01*
X115569045Y-95838024D01*
X115559121Y-95870738D01*
X115543007Y-95900885D01*
X115521315Y-95927315D01*
X115494885Y-95949007D01*
X115464738Y-95965121D01*
X115432024Y-95975045D01*
X115391862Y-95979000D01*
X114704138Y-95979000D01*
X114663976Y-95975045D01*
X114631262Y-95965121D01*
X114601115Y-95949007D01*
X114574685Y-95927315D01*
X114552993Y-95900885D01*
X114536879Y-95870738D01*
X114526955Y-95838024D01*
X114523000Y-95797862D01*
X114523000Y-95210138D01*
X114526955Y-95169976D01*
X114536879Y-95137262D01*
X114552993Y-95107115D01*
X114574685Y-95080685D01*
X114601115Y-95058993D01*
X114631262Y-95042879D01*
X114663976Y-95032955D01*
X114704138Y-95029000D01*
X115391862Y-95029000D01*
X115432024Y-95032955D01*
X115432024Y-95032955D01*
G37*
G36*
X102686186Y-95012027D02*
G01*
X102718900Y-95021951D01*
X102749047Y-95038065D01*
X102775477Y-95059757D01*
X102797169Y-95086187D01*
X102813283Y-95116334D01*
X102823207Y-95149048D01*
X102827162Y-95189210D01*
X102827162Y-95776934D01*
X102823207Y-95817096D01*
X102813283Y-95849810D01*
X102797169Y-95879957D01*
X102775477Y-95906387D01*
X102749047Y-95928079D01*
X102718900Y-95944193D01*
X102686186Y-95954117D01*
X102646024Y-95958072D01*
X101958300Y-95958072D01*
X101918138Y-95954117D01*
X101885424Y-95944193D01*
X101855277Y-95928079D01*
X101828847Y-95906387D01*
X101807155Y-95879957D01*
X101791041Y-95849810D01*
X101781117Y-95817096D01*
X101777162Y-95776934D01*
X101777162Y-95189210D01*
X101781117Y-95149048D01*
X101791041Y-95116334D01*
X101807155Y-95086187D01*
X101828847Y-95059757D01*
X101855277Y-95038065D01*
X101885424Y-95021951D01*
X101918138Y-95012027D01*
X101958300Y-95008072D01*
X102646024Y-95008072D01*
X102686186Y-95012027D01*
X102686186Y-95012027D01*
G37*
G36*
X100936186Y-95012027D02*
G01*
X100968900Y-95021951D01*
X100999047Y-95038065D01*
X101025477Y-95059757D01*
X101047169Y-95086187D01*
X101063283Y-95116334D01*
X101073207Y-95149048D01*
X101077162Y-95189210D01*
X101077162Y-95776934D01*
X101073207Y-95817096D01*
X101063283Y-95849810D01*
X101047169Y-95879957D01*
X101025477Y-95906387D01*
X100999047Y-95928079D01*
X100968900Y-95944193D01*
X100936186Y-95954117D01*
X100896024Y-95958072D01*
X100208300Y-95958072D01*
X100168138Y-95954117D01*
X100135424Y-95944193D01*
X100105277Y-95928079D01*
X100078847Y-95906387D01*
X100057155Y-95879957D01*
X100041041Y-95849810D01*
X100031117Y-95817096D01*
X100027162Y-95776934D01*
X100027162Y-95189210D01*
X100031117Y-95149048D01*
X100041041Y-95116334D01*
X100057155Y-95086187D01*
X100078847Y-95059757D01*
X100105277Y-95038065D01*
X100135424Y-95021951D01*
X100168138Y-95012027D01*
X100208300Y-95008072D01*
X100896024Y-95008072D01*
X100936186Y-95012027D01*
X100936186Y-95012027D01*
G37*
G36*
X104366162Y-95621072D02*
G01*
X103616162Y-95621072D01*
X103616162Y-93821072D01*
X104366162Y-93821072D01*
X104366162Y-95621072D01*
X104366162Y-95621072D01*
G37*
G36*
X107366162Y-95621072D02*
G01*
X106616162Y-95621072D01*
X106616162Y-93821072D01*
X107366162Y-93821072D01*
X107366162Y-95621072D01*
X107366162Y-95621072D01*
G37*
G36*
X106366162Y-95596072D02*
G01*
X104616162Y-95596072D01*
X104616162Y-93846072D01*
X106366162Y-93846072D01*
X106366162Y-95596072D01*
X106366162Y-95596072D01*
G37*
G36*
X130128024Y-94333955D02*
G01*
X130160738Y-94343879D01*
X130190885Y-94359993D01*
X130217315Y-94381685D01*
X130239007Y-94408115D01*
X130255121Y-94438262D01*
X130265045Y-94470976D01*
X130269000Y-94511138D01*
X130269000Y-95198862D01*
X130265045Y-95239024D01*
X130255121Y-95271738D01*
X130239007Y-95301885D01*
X130217315Y-95328315D01*
X130190885Y-95350007D01*
X130160738Y-95366121D01*
X130128024Y-95376045D01*
X130087862Y-95380000D01*
X129500138Y-95380000D01*
X129459976Y-95376045D01*
X129427262Y-95366121D01*
X129397115Y-95350007D01*
X129370685Y-95328315D01*
X129348993Y-95301885D01*
X129332879Y-95271738D01*
X129322955Y-95239024D01*
X129319000Y-95198862D01*
X129319000Y-94511138D01*
X129322955Y-94470976D01*
X129332879Y-94438262D01*
X129348993Y-94408115D01*
X129370685Y-94381685D01*
X129397115Y-94359993D01*
X129427262Y-94343879D01*
X129459976Y-94333955D01*
X129500138Y-94330000D01*
X130087862Y-94330000D01*
X130128024Y-94333955D01*
X130128024Y-94333955D01*
G37*
G36*
X126763024Y-94270955D02*
G01*
X126795738Y-94280879D01*
X126825885Y-94296993D01*
X126852315Y-94318685D01*
X126874007Y-94345115D01*
X126890121Y-94375262D01*
X126900045Y-94407976D01*
X126904000Y-94448138D01*
X126904000Y-95035862D01*
X126900045Y-95076024D01*
X126890121Y-95108738D01*
X126874007Y-95138885D01*
X126852315Y-95165315D01*
X126825885Y-95187007D01*
X126795738Y-95203121D01*
X126763024Y-95213045D01*
X126722862Y-95217000D01*
X126035138Y-95217000D01*
X125994976Y-95213045D01*
X125962262Y-95203121D01*
X125932115Y-95187007D01*
X125905685Y-95165315D01*
X125883993Y-95138885D01*
X125867879Y-95108738D01*
X125857955Y-95076024D01*
X125854000Y-95035862D01*
X125854000Y-94448138D01*
X125857955Y-94407976D01*
X125867879Y-94375262D01*
X125883993Y-94345115D01*
X125905685Y-94318685D01*
X125932115Y-94296993D01*
X125962262Y-94280879D01*
X125994976Y-94270955D01*
X126035138Y-94267000D01*
X126722862Y-94267000D01*
X126763024Y-94270955D01*
X126763024Y-94270955D01*
G37*
G36*
X123461024Y-94270955D02*
G01*
X123493738Y-94280879D01*
X123523885Y-94296993D01*
X123550315Y-94318685D01*
X123572007Y-94345115D01*
X123588121Y-94375262D01*
X123598045Y-94407976D01*
X123602000Y-94448138D01*
X123602000Y-95035862D01*
X123598045Y-95076024D01*
X123588121Y-95108738D01*
X123572007Y-95138885D01*
X123550315Y-95165315D01*
X123523885Y-95187007D01*
X123493738Y-95203121D01*
X123461024Y-95213045D01*
X123420862Y-95217000D01*
X122733138Y-95217000D01*
X122692976Y-95213045D01*
X122660262Y-95203121D01*
X122630115Y-95187007D01*
X122603685Y-95165315D01*
X122581993Y-95138885D01*
X122565879Y-95108738D01*
X122555955Y-95076024D01*
X122552000Y-95035862D01*
X122552000Y-94448138D01*
X122555955Y-94407976D01*
X122565879Y-94375262D01*
X122581993Y-94345115D01*
X122603685Y-94318685D01*
X122630115Y-94296993D01*
X122660262Y-94280879D01*
X122692976Y-94270955D01*
X122733138Y-94267000D01*
X123420862Y-94267000D01*
X123461024Y-94270955D01*
X123461024Y-94270955D01*
G37*
G36*
X125211024Y-94270955D02*
G01*
X125243738Y-94280879D01*
X125273885Y-94296993D01*
X125300315Y-94318685D01*
X125322007Y-94345115D01*
X125338121Y-94375262D01*
X125348045Y-94407976D01*
X125352000Y-94448138D01*
X125352000Y-95035862D01*
X125348045Y-95076024D01*
X125338121Y-95108738D01*
X125322007Y-95138885D01*
X125300315Y-95165315D01*
X125273885Y-95187007D01*
X125243738Y-95203121D01*
X125211024Y-95213045D01*
X125170862Y-95217000D01*
X124483138Y-95217000D01*
X124442976Y-95213045D01*
X124410262Y-95203121D01*
X124380115Y-95187007D01*
X124353685Y-95165315D01*
X124331993Y-95138885D01*
X124315879Y-95108738D01*
X124305955Y-95076024D01*
X124302000Y-95035862D01*
X124302000Y-94448138D01*
X124305955Y-94407976D01*
X124315879Y-94375262D01*
X124331993Y-94345115D01*
X124353685Y-94318685D01*
X124380115Y-94296993D01*
X124410262Y-94280879D01*
X124442976Y-94270955D01*
X124483138Y-94267000D01*
X125170862Y-94267000D01*
X125211024Y-94270955D01*
X125211024Y-94270955D01*
G37*
G36*
X128513024Y-94270955D02*
G01*
X128545738Y-94280879D01*
X128575885Y-94296993D01*
X128602315Y-94318685D01*
X128624007Y-94345115D01*
X128640121Y-94375262D01*
X128650045Y-94407976D01*
X128654000Y-94448138D01*
X128654000Y-95035862D01*
X128650045Y-95076024D01*
X128640121Y-95108738D01*
X128624007Y-95138885D01*
X128602315Y-95165315D01*
X128575885Y-95187007D01*
X128545738Y-95203121D01*
X128513024Y-95213045D01*
X128472862Y-95217000D01*
X127785138Y-95217000D01*
X127744976Y-95213045D01*
X127712262Y-95203121D01*
X127682115Y-95187007D01*
X127655685Y-95165315D01*
X127633993Y-95138885D01*
X127617879Y-95108738D01*
X127607955Y-95076024D01*
X127604000Y-95035862D01*
X127604000Y-94448138D01*
X127607955Y-94407976D01*
X127617879Y-94375262D01*
X127633993Y-94345115D01*
X127655685Y-94318685D01*
X127682115Y-94296993D01*
X127712262Y-94280879D01*
X127744976Y-94270955D01*
X127785138Y-94267000D01*
X128472862Y-94267000D01*
X128513024Y-94270955D01*
X128513024Y-94270955D01*
G37*
G36*
X108845500Y-93676357D02*
G01*
X108847902Y-93700743D01*
X108855015Y-93724192D01*
X108866566Y-93745803D01*
X108882111Y-93764745D01*
X108901053Y-93780290D01*
X108922666Y-93791842D01*
X108927075Y-93793668D01*
X109003334Y-93844623D01*
X109041724Y-93870274D01*
X109139226Y-93967776D01*
X109139227Y-93967778D01*
X109215834Y-94082428D01*
X109259080Y-94186835D01*
X109270631Y-94208446D01*
X109286176Y-94227388D01*
X109305118Y-94242934D01*
X109326728Y-94254485D01*
X109350177Y-94261598D01*
X109374564Y-94264000D01*
X110716436Y-94264000D01*
X110740822Y-94261598D01*
X110764271Y-94254485D01*
X110785882Y-94242934D01*
X110804824Y-94227389D01*
X110820369Y-94208447D01*
X110831920Y-94186835D01*
X110875166Y-94082428D01*
X110951773Y-93967778D01*
X110951774Y-93967776D01*
X111049276Y-93870274D01*
X111087666Y-93844623D01*
X111163925Y-93793668D01*
X111168334Y-93791842D01*
X111189945Y-93780291D01*
X111208887Y-93764746D01*
X111224433Y-93745805D01*
X111235984Y-93724194D01*
X111243098Y-93700745D01*
X111245500Y-93676357D01*
X111245500Y-93514000D01*
X112195500Y-93514000D01*
X112195500Y-94493847D01*
X112189201Y-94514613D01*
X112168600Y-94618182D01*
X112115833Y-94745573D01*
X112115832Y-94745574D01*
X112039226Y-94860224D01*
X111941724Y-94957726D01*
X111896415Y-94988000D01*
X111827073Y-95034333D01*
X111699682Y-95087100D01*
X111596113Y-95107701D01*
X111575347Y-95114000D01*
X108515653Y-95114000D01*
X108494887Y-95107701D01*
X108391318Y-95087100D01*
X108263927Y-95034333D01*
X108194585Y-94988000D01*
X108149276Y-94957726D01*
X108051774Y-94860224D01*
X107975168Y-94745574D01*
X107975167Y-94745573D01*
X107922400Y-94618182D01*
X107901799Y-94514613D01*
X107895500Y-94493847D01*
X107895500Y-93514000D01*
X108845500Y-93514000D01*
X108845500Y-93676357D01*
X108845500Y-93676357D01*
G37*
G36*
X187314000Y-94988000D02*
G01*
X184804000Y-94988000D01*
X184804000Y-93988000D01*
X187314000Y-93988000D01*
X187314000Y-94988000D01*
X187314000Y-94988000D01*
G37*
G36*
X175503024Y-94016955D02*
G01*
X175535738Y-94026879D01*
X175565885Y-94042993D01*
X175592315Y-94064685D01*
X175614007Y-94091115D01*
X175630121Y-94121262D01*
X175640045Y-94153976D01*
X175644000Y-94194138D01*
X175644000Y-94781862D01*
X175640045Y-94822024D01*
X175630121Y-94854738D01*
X175614007Y-94884885D01*
X175592315Y-94911315D01*
X175565885Y-94933007D01*
X175535738Y-94949121D01*
X175503024Y-94959045D01*
X175462862Y-94963000D01*
X174775138Y-94963000D01*
X174734976Y-94959045D01*
X174702262Y-94949121D01*
X174672115Y-94933007D01*
X174645685Y-94911315D01*
X174623993Y-94884885D01*
X174607879Y-94854738D01*
X174597955Y-94822024D01*
X174594000Y-94781862D01*
X174594000Y-94194138D01*
X174597955Y-94153976D01*
X174607879Y-94121262D01*
X174623993Y-94091115D01*
X174645685Y-94064685D01*
X174672115Y-94042993D01*
X174702262Y-94026879D01*
X174734976Y-94016955D01*
X174775138Y-94013000D01*
X175462862Y-94013000D01*
X175503024Y-94016955D01*
X175503024Y-94016955D01*
G37*
G36*
X173753024Y-94016955D02*
G01*
X173785738Y-94026879D01*
X173815885Y-94042993D01*
X173842315Y-94064685D01*
X173864007Y-94091115D01*
X173880121Y-94121262D01*
X173890045Y-94153976D01*
X173894000Y-94194138D01*
X173894000Y-94781862D01*
X173890045Y-94822024D01*
X173880121Y-94854738D01*
X173864007Y-94884885D01*
X173842315Y-94911315D01*
X173815885Y-94933007D01*
X173785738Y-94949121D01*
X173753024Y-94959045D01*
X173712862Y-94963000D01*
X173025138Y-94963000D01*
X172984976Y-94959045D01*
X172952262Y-94949121D01*
X172922115Y-94933007D01*
X172895685Y-94911315D01*
X172873993Y-94884885D01*
X172857879Y-94854738D01*
X172847955Y-94822024D01*
X172844000Y-94781862D01*
X172844000Y-94194138D01*
X172847955Y-94153976D01*
X172857879Y-94121262D01*
X172873993Y-94091115D01*
X172895685Y-94064685D01*
X172922115Y-94042993D01*
X172952262Y-94026879D01*
X172984976Y-94016955D01*
X173025138Y-94013000D01*
X173712862Y-94013000D01*
X173753024Y-94016955D01*
X173753024Y-94016955D01*
G37*
G36*
X115549500Y-91577001D02*
G01*
X115551902Y-91601387D01*
X115559015Y-91624836D01*
X115570566Y-91646447D01*
X115586111Y-91665389D01*
X115605053Y-91680934D01*
X115626664Y-91692485D01*
X115650113Y-91699598D01*
X115674499Y-91702000D01*
X116549500Y-91702000D01*
X116549500Y-94002000D01*
X115674499Y-94002000D01*
X115650113Y-94004402D01*
X115626664Y-94011515D01*
X115605053Y-94023066D01*
X115586111Y-94038611D01*
X115570566Y-94057553D01*
X115559015Y-94079164D01*
X115551902Y-94102613D01*
X115549500Y-94126999D01*
X115549500Y-94202000D01*
X113799500Y-94202000D01*
X113799500Y-94126999D01*
X113797098Y-94102613D01*
X113789985Y-94079164D01*
X113778434Y-94057553D01*
X113762889Y-94038611D01*
X113743947Y-94023066D01*
X113722336Y-94011515D01*
X113698887Y-94004402D01*
X113674501Y-94002000D01*
X112799500Y-94002000D01*
X112799500Y-91702000D01*
X113674501Y-91702000D01*
X113698887Y-91699598D01*
X113722336Y-91692485D01*
X113743947Y-91680934D01*
X113762889Y-91665389D01*
X113778434Y-91646447D01*
X113789985Y-91624836D01*
X113797098Y-91601387D01*
X113799500Y-91577001D01*
X113799500Y-91502000D01*
X115549500Y-91502000D01*
X115549500Y-91577001D01*
X115549500Y-91577001D01*
G37*
G36*
X117936024Y-93127455D02*
G01*
X117968738Y-93137379D01*
X117998885Y-93153493D01*
X118025315Y-93175185D01*
X118047007Y-93201615D01*
X118063121Y-93231762D01*
X118073045Y-93264476D01*
X118077000Y-93304638D01*
X118077000Y-93992362D01*
X118073045Y-94032524D01*
X118063121Y-94065238D01*
X118047007Y-94095385D01*
X118025315Y-94121815D01*
X117998885Y-94143507D01*
X117968738Y-94159621D01*
X117936024Y-94169545D01*
X117895862Y-94173500D01*
X117308138Y-94173500D01*
X117267976Y-94169545D01*
X117235262Y-94159621D01*
X117205115Y-94143507D01*
X117178685Y-94121815D01*
X117156993Y-94095385D01*
X117140879Y-94065238D01*
X117130955Y-94032524D01*
X117127000Y-93992362D01*
X117127000Y-93304638D01*
X117130955Y-93264476D01*
X117140879Y-93231762D01*
X117156993Y-93201615D01*
X117178685Y-93175185D01*
X117205115Y-93153493D01*
X117235262Y-93137379D01*
X117267976Y-93127455D01*
X117308138Y-93123500D01*
X117895862Y-93123500D01*
X117936024Y-93127455D01*
X117936024Y-93127455D01*
G37*
G36*
X119460024Y-93063955D02*
G01*
X119492738Y-93073879D01*
X119522885Y-93089993D01*
X119549315Y-93111685D01*
X119571007Y-93138115D01*
X119587121Y-93168262D01*
X119597045Y-93200976D01*
X119601000Y-93241138D01*
X119601000Y-93928862D01*
X119597045Y-93969024D01*
X119587121Y-94001738D01*
X119571007Y-94031885D01*
X119549315Y-94058315D01*
X119522885Y-94080007D01*
X119492738Y-94096121D01*
X119460024Y-94106045D01*
X119419862Y-94110000D01*
X118832138Y-94110000D01*
X118791976Y-94106045D01*
X118759262Y-94096121D01*
X118729115Y-94080007D01*
X118702685Y-94058315D01*
X118680993Y-94031885D01*
X118664879Y-94001738D01*
X118654955Y-93969024D01*
X118651000Y-93928862D01*
X118651000Y-93241138D01*
X118654955Y-93200976D01*
X118664879Y-93168262D01*
X118680993Y-93138115D01*
X118702685Y-93111685D01*
X118729115Y-93089993D01*
X118759262Y-93073879D01*
X118791976Y-93063955D01*
X118832138Y-93060000D01*
X119419862Y-93060000D01*
X119460024Y-93063955D01*
X119460024Y-93063955D01*
G37*
G36*
X166867024Y-92746955D02*
G01*
X166899738Y-92756879D01*
X166929885Y-92772993D01*
X166956315Y-92794685D01*
X166978007Y-92821115D01*
X166994121Y-92851262D01*
X167004045Y-92883976D01*
X167008000Y-92924138D01*
X167008000Y-93511862D01*
X167004045Y-93552024D01*
X166994121Y-93584738D01*
X166978007Y-93614885D01*
X166956315Y-93641315D01*
X166929885Y-93663007D01*
X166899738Y-93679121D01*
X166867024Y-93689045D01*
X166826862Y-93693000D01*
X166139138Y-93693000D01*
X166098976Y-93689045D01*
X166066262Y-93679121D01*
X166036115Y-93663007D01*
X166009685Y-93641315D01*
X165987993Y-93614885D01*
X165971879Y-93584738D01*
X165961955Y-93552024D01*
X165958000Y-93511862D01*
X165958000Y-92924138D01*
X165961955Y-92883976D01*
X165971879Y-92851262D01*
X165987993Y-92821115D01*
X166009685Y-92794685D01*
X166036115Y-92772993D01*
X166066262Y-92756879D01*
X166098976Y-92746955D01*
X166139138Y-92743000D01*
X166826862Y-92743000D01*
X166867024Y-92746955D01*
X166867024Y-92746955D01*
G37*
G36*
X165117024Y-92746955D02*
G01*
X165149738Y-92756879D01*
X165179885Y-92772993D01*
X165206315Y-92794685D01*
X165228007Y-92821115D01*
X165244121Y-92851262D01*
X165254045Y-92883976D01*
X165258000Y-92924138D01*
X165258000Y-93511862D01*
X165254045Y-93552024D01*
X165244121Y-93584738D01*
X165228007Y-93614885D01*
X165206315Y-93641315D01*
X165179885Y-93663007D01*
X165149738Y-93679121D01*
X165117024Y-93689045D01*
X165076862Y-93693000D01*
X164389138Y-93693000D01*
X164348976Y-93689045D01*
X164316262Y-93679121D01*
X164286115Y-93663007D01*
X164259685Y-93641315D01*
X164237993Y-93614885D01*
X164221879Y-93584738D01*
X164211955Y-93552024D01*
X164208000Y-93511862D01*
X164208000Y-92924138D01*
X164211955Y-92883976D01*
X164221879Y-92851262D01*
X164237993Y-92821115D01*
X164259685Y-92794685D01*
X164286115Y-92772993D01*
X164316262Y-92756879D01*
X164348976Y-92746955D01*
X164389138Y-92743000D01*
X165076862Y-92743000D01*
X165117024Y-92746955D01*
X165117024Y-92746955D01*
G37*
G36*
X130128024Y-92583955D02*
G01*
X130160738Y-92593879D01*
X130190885Y-92609993D01*
X130217315Y-92631685D01*
X130239007Y-92658115D01*
X130255121Y-92688262D01*
X130265045Y-92720976D01*
X130269000Y-92761138D01*
X130269000Y-93448862D01*
X130265045Y-93489024D01*
X130255121Y-93521738D01*
X130239007Y-93551885D01*
X130217315Y-93578315D01*
X130190885Y-93600007D01*
X130160738Y-93616121D01*
X130128024Y-93626045D01*
X130087862Y-93630000D01*
X129500138Y-93630000D01*
X129459976Y-93626045D01*
X129427262Y-93616121D01*
X129397115Y-93600007D01*
X129370685Y-93578315D01*
X129348993Y-93551885D01*
X129332879Y-93521738D01*
X129322955Y-93489024D01*
X129319000Y-93448862D01*
X129319000Y-92761138D01*
X129322955Y-92720976D01*
X129332879Y-92688262D01*
X129348993Y-92658115D01*
X129370685Y-92631685D01*
X129397115Y-92609993D01*
X129427262Y-92593879D01*
X129459976Y-92583955D01*
X129500138Y-92580000D01*
X130087862Y-92580000D01*
X130128024Y-92583955D01*
X130128024Y-92583955D01*
G37*
G36*
X106391162Y-93596072D02*
G01*
X104591162Y-93596072D01*
X104591162Y-92846072D01*
X106391162Y-92846072D01*
X106391162Y-93596072D01*
X106391162Y-93596072D01*
G37*
G36*
X174261024Y-92238955D02*
G01*
X174293738Y-92248879D01*
X174323885Y-92264993D01*
X174350315Y-92286685D01*
X174372007Y-92313115D01*
X174388121Y-92343262D01*
X174398045Y-92375976D01*
X174402000Y-92416138D01*
X174402000Y-93003862D01*
X174398045Y-93044024D01*
X174388121Y-93076738D01*
X174372007Y-93106885D01*
X174350315Y-93133315D01*
X174323885Y-93155007D01*
X174293738Y-93171121D01*
X174261024Y-93181045D01*
X174220862Y-93185000D01*
X173533138Y-93185000D01*
X173492976Y-93181045D01*
X173460262Y-93171121D01*
X173430115Y-93155007D01*
X173403685Y-93133315D01*
X173381993Y-93106885D01*
X173365879Y-93076738D01*
X173355955Y-93044024D01*
X173352000Y-93003862D01*
X173352000Y-92416138D01*
X173355955Y-92375976D01*
X173365879Y-92343262D01*
X173381993Y-92313115D01*
X173403685Y-92286685D01*
X173430115Y-92264993D01*
X173460262Y-92248879D01*
X173492976Y-92238955D01*
X173533138Y-92235000D01*
X174220862Y-92235000D01*
X174261024Y-92238955D01*
X174261024Y-92238955D01*
G37*
G36*
X176011024Y-92238955D02*
G01*
X176043738Y-92248879D01*
X176073885Y-92264993D01*
X176100315Y-92286685D01*
X176122007Y-92313115D01*
X176138121Y-92343262D01*
X176148045Y-92375976D01*
X176152000Y-92416138D01*
X176152000Y-93003862D01*
X176148045Y-93044024D01*
X176138121Y-93076738D01*
X176122007Y-93106885D01*
X176100315Y-93133315D01*
X176073885Y-93155007D01*
X176043738Y-93171121D01*
X176011024Y-93181045D01*
X175970862Y-93185000D01*
X175283138Y-93185000D01*
X175242976Y-93181045D01*
X175210262Y-93171121D01*
X175180115Y-93155007D01*
X175153685Y-93133315D01*
X175131993Y-93106885D01*
X175115879Y-93076738D01*
X175105955Y-93044024D01*
X175102000Y-93003862D01*
X175102000Y-92416138D01*
X175105955Y-92375976D01*
X175115879Y-92343262D01*
X175131993Y-92313115D01*
X175153685Y-92286685D01*
X175180115Y-92264993D01*
X175210262Y-92248879D01*
X175242976Y-92238955D01*
X175283138Y-92235000D01*
X175970862Y-92235000D01*
X176011024Y-92238955D01*
X176011024Y-92238955D01*
G37*
G36*
X100115162Y-89711072D02*
G01*
X99952805Y-89711072D01*
X99928419Y-89713474D01*
X99904970Y-89720587D01*
X99883359Y-89732138D01*
X99864417Y-89747683D01*
X99848872Y-89766625D01*
X99837320Y-89788238D01*
X99835494Y-89792647D01*
X99812832Y-89826563D01*
X99758888Y-89907296D01*
X99661386Y-90004798D01*
X99655335Y-90008841D01*
X99546734Y-90081406D01*
X99442327Y-90124652D01*
X99420716Y-90136203D01*
X99401774Y-90151748D01*
X99386228Y-90170690D01*
X99374677Y-90192300D01*
X99367564Y-90215749D01*
X99365162Y-90240136D01*
X99365162Y-91582008D01*
X99367564Y-91606394D01*
X99374677Y-91629843D01*
X99386228Y-91651454D01*
X99401773Y-91670396D01*
X99420715Y-91685941D01*
X99442327Y-91697492D01*
X99546734Y-91740738D01*
X99612637Y-91784773D01*
X99661386Y-91817346D01*
X99758888Y-91914848D01*
X99774036Y-91937519D01*
X99835494Y-92029497D01*
X99837320Y-92033906D01*
X99848871Y-92055517D01*
X99864416Y-92074459D01*
X99883357Y-92090005D01*
X99904968Y-92101556D01*
X99928417Y-92108670D01*
X99952805Y-92111072D01*
X100115162Y-92111072D01*
X100115162Y-93061072D01*
X99135315Y-93061072D01*
X99114549Y-93054773D01*
X99010980Y-93034172D01*
X98883589Y-92981405D01*
X98812891Y-92934166D01*
X98768938Y-92904798D01*
X98671436Y-92807296D01*
X98624335Y-92736804D01*
X98594829Y-92692645D01*
X98542062Y-92565254D01*
X98521461Y-92461685D01*
X98515162Y-92440919D01*
X98515162Y-89381225D01*
X98521461Y-89360459D01*
X98542062Y-89256890D01*
X98594829Y-89129499D01*
X98645246Y-89054045D01*
X98671436Y-89014848D01*
X98768938Y-88917346D01*
X98883588Y-88840740D01*
X98883589Y-88840739D01*
X99010980Y-88787972D01*
X99114549Y-88767371D01*
X99135315Y-88761072D01*
X100115162Y-88761072D01*
X100115162Y-89711072D01*
X100115162Y-89711072D01*
G37*
G36*
X102215775Y-88767371D02*
G01*
X102319344Y-88787972D01*
X102446735Y-88840739D01*
X102446736Y-88840740D01*
X102561386Y-88917346D01*
X102658888Y-89014848D01*
X102685078Y-89054045D01*
X102735495Y-89129499D01*
X102788262Y-89256890D01*
X102808863Y-89360459D01*
X102815162Y-89381225D01*
X102815162Y-92440919D01*
X102808863Y-92461685D01*
X102788262Y-92565254D01*
X102735495Y-92692645D01*
X102705989Y-92736804D01*
X102658888Y-92807296D01*
X102561386Y-92904798D01*
X102517433Y-92934166D01*
X102446735Y-92981405D01*
X102319344Y-93034172D01*
X102215775Y-93054773D01*
X102195009Y-93061072D01*
X101215162Y-93061072D01*
X101215162Y-92111072D01*
X101377519Y-92111072D01*
X101401905Y-92108670D01*
X101425354Y-92101557D01*
X101446965Y-92090006D01*
X101465907Y-92074461D01*
X101481452Y-92055519D01*
X101493004Y-92033906D01*
X101494830Y-92029497D01*
X101556288Y-91937519D01*
X101571436Y-91914848D01*
X101668938Y-91817346D01*
X101717687Y-91784773D01*
X101783590Y-91740738D01*
X101887997Y-91697492D01*
X101909608Y-91685941D01*
X101928550Y-91670396D01*
X101944096Y-91651454D01*
X101955647Y-91629844D01*
X101962760Y-91606395D01*
X101965162Y-91582008D01*
X101965162Y-90240136D01*
X101962760Y-90215750D01*
X101955647Y-90192301D01*
X101944096Y-90170690D01*
X101928551Y-90151748D01*
X101909609Y-90136203D01*
X101887997Y-90124652D01*
X101783590Y-90081406D01*
X101674989Y-90008841D01*
X101668938Y-90004798D01*
X101571436Y-89907296D01*
X101517492Y-89826563D01*
X101494830Y-89792647D01*
X101493004Y-89788238D01*
X101481453Y-89766627D01*
X101465908Y-89747685D01*
X101446967Y-89732139D01*
X101425356Y-89720588D01*
X101401907Y-89713474D01*
X101377519Y-89711072D01*
X101215162Y-89711072D01*
X101215162Y-88761072D01*
X102195009Y-88761072D01*
X102215775Y-88767371D01*
X102215775Y-88767371D01*
G37*
G36*
X92000000Y-93000000D02*
G01*
X88000000Y-93000000D01*
X88000000Y-91000000D01*
X92000000Y-91000000D01*
X92000000Y-93000000D01*
X92000000Y-93000000D01*
G37*
G36*
X177626024Y-91539955D02*
G01*
X177658738Y-91549879D01*
X177688885Y-91565993D01*
X177715315Y-91587685D01*
X177737007Y-91614115D01*
X177753121Y-91644262D01*
X177763045Y-91676976D01*
X177767000Y-91717138D01*
X177767000Y-92404862D01*
X177763045Y-92445024D01*
X177753121Y-92477738D01*
X177737007Y-92507885D01*
X177715315Y-92534315D01*
X177688885Y-92556007D01*
X177658738Y-92572121D01*
X177626024Y-92582045D01*
X177585862Y-92586000D01*
X176998138Y-92586000D01*
X176957976Y-92582045D01*
X176925262Y-92572121D01*
X176895115Y-92556007D01*
X176868685Y-92534315D01*
X176846993Y-92507885D01*
X176830879Y-92477738D01*
X176820955Y-92445024D01*
X176817000Y-92404862D01*
X176817000Y-91717138D01*
X176820955Y-91676976D01*
X176830879Y-91644262D01*
X176846993Y-91614115D01*
X176868685Y-91587685D01*
X176895115Y-91565993D01*
X176925262Y-91549879D01*
X176957976Y-91539955D01*
X176998138Y-91536000D01*
X177585862Y-91536000D01*
X177626024Y-91539955D01*
X177626024Y-91539955D01*
G37*
G36*
X184004000Y-92448000D02*
G01*
X181494000Y-92448000D01*
X181494000Y-91448000D01*
X184004000Y-91448000D01*
X184004000Y-92448000D01*
X184004000Y-92448000D01*
G37*
G36*
X117936024Y-91377455D02*
G01*
X117968738Y-91387379D01*
X117998885Y-91403493D01*
X118025315Y-91425185D01*
X118047007Y-91451615D01*
X118063121Y-91481762D01*
X118073045Y-91514476D01*
X118077000Y-91554638D01*
X118077000Y-92242362D01*
X118073045Y-92282524D01*
X118063121Y-92315238D01*
X118047007Y-92345385D01*
X118025315Y-92371815D01*
X117998885Y-92393507D01*
X117968738Y-92409621D01*
X117936024Y-92419545D01*
X117895862Y-92423500D01*
X117308138Y-92423500D01*
X117267976Y-92419545D01*
X117235262Y-92409621D01*
X117205115Y-92393507D01*
X117178685Y-92371815D01*
X117156993Y-92345385D01*
X117140879Y-92315238D01*
X117130955Y-92282524D01*
X117127000Y-92242362D01*
X117127000Y-91554638D01*
X117130955Y-91514476D01*
X117140879Y-91481762D01*
X117156993Y-91451615D01*
X117178685Y-91425185D01*
X117205115Y-91403493D01*
X117235262Y-91387379D01*
X117267976Y-91377455D01*
X117308138Y-91373500D01*
X117895862Y-91373500D01*
X117936024Y-91377455D01*
X117936024Y-91377455D01*
G37*
G36*
X111596113Y-90820299D02*
G01*
X111699682Y-90840900D01*
X111827073Y-90893667D01*
X111884010Y-90931711D01*
X111941724Y-90970274D01*
X112039226Y-91067776D01*
X112043976Y-91074885D01*
X112115833Y-91182427D01*
X112168600Y-91309818D01*
X112189201Y-91413387D01*
X112195500Y-91434153D01*
X112195500Y-92414000D01*
X111245500Y-92414000D01*
X111245500Y-92251643D01*
X111243098Y-92227257D01*
X111235985Y-92203808D01*
X111224434Y-92182197D01*
X111208889Y-92163255D01*
X111189947Y-92147710D01*
X111168334Y-92136158D01*
X111163925Y-92134332D01*
X111074319Y-92074459D01*
X111049276Y-92057726D01*
X110951774Y-91960224D01*
X110926007Y-91921660D01*
X110875166Y-91845572D01*
X110831920Y-91741165D01*
X110820369Y-91719554D01*
X110804824Y-91700612D01*
X110785882Y-91685066D01*
X110764272Y-91673515D01*
X110740823Y-91666402D01*
X110716436Y-91664000D01*
X109374564Y-91664000D01*
X109350178Y-91666402D01*
X109326729Y-91673515D01*
X109305118Y-91685066D01*
X109286176Y-91700611D01*
X109270631Y-91719553D01*
X109259080Y-91741165D01*
X109215834Y-91845572D01*
X109164993Y-91921660D01*
X109139226Y-91960224D01*
X109041724Y-92057726D01*
X109016681Y-92074459D01*
X108927075Y-92134332D01*
X108922666Y-92136158D01*
X108901055Y-92147709D01*
X108882113Y-92163254D01*
X108866567Y-92182195D01*
X108855016Y-92203806D01*
X108847902Y-92227255D01*
X108845500Y-92251643D01*
X108845500Y-92414000D01*
X107895500Y-92414000D01*
X107895500Y-91434153D01*
X107901799Y-91413387D01*
X107922400Y-91309818D01*
X107975167Y-91182427D01*
X108047024Y-91074885D01*
X108051774Y-91067776D01*
X108149276Y-90970274D01*
X108206990Y-90931711D01*
X108263927Y-90893667D01*
X108391318Y-90840900D01*
X108494887Y-90820299D01*
X108515653Y-90814000D01*
X111575347Y-90814000D01*
X111596113Y-90820299D01*
X111596113Y-90820299D01*
G37*
G36*
X119460024Y-91313955D02*
G01*
X119492738Y-91323879D01*
X119522885Y-91339993D01*
X119549315Y-91361685D01*
X119571007Y-91388115D01*
X119587121Y-91418262D01*
X119597045Y-91450976D01*
X119601000Y-91491138D01*
X119601000Y-92178862D01*
X119597045Y-92219024D01*
X119587121Y-92251738D01*
X119571007Y-92281885D01*
X119549315Y-92308315D01*
X119522885Y-92330007D01*
X119492738Y-92346121D01*
X119460024Y-92356045D01*
X119419862Y-92360000D01*
X118832138Y-92360000D01*
X118791976Y-92356045D01*
X118759262Y-92346121D01*
X118729115Y-92330007D01*
X118702685Y-92308315D01*
X118680993Y-92281885D01*
X118664879Y-92251738D01*
X118654955Y-92219024D01*
X118651000Y-92178862D01*
X118651000Y-91491138D01*
X118654955Y-91450976D01*
X118664879Y-91418262D01*
X118680993Y-91388115D01*
X118702685Y-91361685D01*
X118729115Y-91339993D01*
X118759262Y-91323879D01*
X118791976Y-91313955D01*
X118832138Y-91310000D01*
X119419862Y-91310000D01*
X119460024Y-91313955D01*
X119460024Y-91313955D01*
G37*
G36*
X139545825Y-90389745D02*
G01*
X139576490Y-90399048D01*
X139604748Y-90414152D01*
X139629519Y-90434481D01*
X139649848Y-90459252D01*
X139664952Y-90487510D01*
X139674255Y-90518175D01*
X139678000Y-90556203D01*
X139678000Y-91815797D01*
X139674255Y-91853825D01*
X139664952Y-91884490D01*
X139649848Y-91912748D01*
X139629519Y-91937519D01*
X139604748Y-91957848D01*
X139576490Y-91972952D01*
X139545825Y-91982255D01*
X139507797Y-91986000D01*
X136348203Y-91986000D01*
X136310175Y-91982255D01*
X136279510Y-91972952D01*
X136251252Y-91957848D01*
X136226481Y-91937519D01*
X136206152Y-91912748D01*
X136191048Y-91884490D01*
X136181745Y-91853825D01*
X136178000Y-91815797D01*
X136178000Y-90556203D01*
X136181745Y-90518175D01*
X136191048Y-90487510D01*
X136206152Y-90459252D01*
X136226481Y-90434481D01*
X136251252Y-90414152D01*
X136279510Y-90399048D01*
X136310175Y-90389745D01*
X136348203Y-90386000D01*
X139507797Y-90386000D01*
X139545825Y-90389745D01*
X139545825Y-90389745D01*
G37*
G36*
X133945825Y-90389745D02*
G01*
X133976490Y-90399048D01*
X134004748Y-90414152D01*
X134029519Y-90434481D01*
X134049848Y-90459252D01*
X134064952Y-90487510D01*
X134074255Y-90518175D01*
X134078000Y-90556203D01*
X134078000Y-91815797D01*
X134074255Y-91853825D01*
X134064952Y-91884490D01*
X134049848Y-91912748D01*
X134029519Y-91937519D01*
X134004748Y-91957848D01*
X133976490Y-91972952D01*
X133945825Y-91982255D01*
X133907797Y-91986000D01*
X130748203Y-91986000D01*
X130710175Y-91982255D01*
X130679510Y-91972952D01*
X130651252Y-91957848D01*
X130626481Y-91937519D01*
X130606152Y-91912748D01*
X130591048Y-91884490D01*
X130581745Y-91853825D01*
X130578000Y-91815797D01*
X130578000Y-90556203D01*
X130581745Y-90518175D01*
X130591048Y-90487510D01*
X130606152Y-90459252D01*
X130626481Y-90434481D01*
X130651252Y-90414152D01*
X130679510Y-90399048D01*
X130710175Y-90389745D01*
X130748203Y-90386000D01*
X133907797Y-90386000D01*
X133945825Y-90389745D01*
X133945825Y-90389745D01*
G37*
G36*
X165117024Y-90968955D02*
G01*
X165149738Y-90978879D01*
X165179885Y-90994993D01*
X165206315Y-91016685D01*
X165228007Y-91043115D01*
X165244121Y-91073262D01*
X165254045Y-91105976D01*
X165258000Y-91146138D01*
X165258000Y-91733862D01*
X165254045Y-91774024D01*
X165244121Y-91806738D01*
X165228007Y-91836885D01*
X165206315Y-91863315D01*
X165179885Y-91885007D01*
X165149738Y-91901121D01*
X165117024Y-91911045D01*
X165076862Y-91915000D01*
X164389138Y-91915000D01*
X164348976Y-91911045D01*
X164316262Y-91901121D01*
X164286115Y-91885007D01*
X164259685Y-91863315D01*
X164237993Y-91836885D01*
X164221879Y-91806738D01*
X164211955Y-91774024D01*
X164208000Y-91733862D01*
X164208000Y-91146138D01*
X164211955Y-91105976D01*
X164221879Y-91073262D01*
X164237993Y-91043115D01*
X164259685Y-91016685D01*
X164286115Y-90994993D01*
X164316262Y-90978879D01*
X164348976Y-90968955D01*
X164389138Y-90965000D01*
X165076862Y-90965000D01*
X165117024Y-90968955D01*
X165117024Y-90968955D01*
G37*
G36*
X166867024Y-90968955D02*
G01*
X166899738Y-90978879D01*
X166929885Y-90994993D01*
X166956315Y-91016685D01*
X166978007Y-91043115D01*
X166994121Y-91073262D01*
X167004045Y-91105976D01*
X167008000Y-91146138D01*
X167008000Y-91733862D01*
X167004045Y-91774024D01*
X166994121Y-91806738D01*
X166978007Y-91836885D01*
X166956315Y-91863315D01*
X166929885Y-91885007D01*
X166899738Y-91901121D01*
X166867024Y-91911045D01*
X166826862Y-91915000D01*
X166139138Y-91915000D01*
X166098976Y-91911045D01*
X166066262Y-91901121D01*
X166036115Y-91885007D01*
X166009685Y-91863315D01*
X165987993Y-91836885D01*
X165971879Y-91806738D01*
X165961955Y-91774024D01*
X165958000Y-91733862D01*
X165958000Y-91146138D01*
X165961955Y-91105976D01*
X165971879Y-91073262D01*
X165987993Y-91043115D01*
X166009685Y-91016685D01*
X166036115Y-90994993D01*
X166066262Y-90978879D01*
X166098976Y-90968955D01*
X166139138Y-90965000D01*
X166826862Y-90965000D01*
X166867024Y-90968955D01*
X166867024Y-90968955D01*
G37*
G36*
X107177024Y-90206955D02*
G01*
X107209738Y-90216879D01*
X107239885Y-90232993D01*
X107266315Y-90254685D01*
X107288007Y-90281115D01*
X107304121Y-90311262D01*
X107314045Y-90343976D01*
X107318000Y-90384138D01*
X107318000Y-90971862D01*
X107314045Y-91012024D01*
X107304121Y-91044738D01*
X107288007Y-91074885D01*
X107266315Y-91101315D01*
X107239885Y-91123007D01*
X107209738Y-91139121D01*
X107177024Y-91149045D01*
X107136862Y-91153000D01*
X106449138Y-91153000D01*
X106408976Y-91149045D01*
X106376262Y-91139121D01*
X106346115Y-91123007D01*
X106319685Y-91101315D01*
X106297993Y-91074885D01*
X106281879Y-91044738D01*
X106271955Y-91012024D01*
X106268000Y-90971862D01*
X106268000Y-90384138D01*
X106271955Y-90343976D01*
X106281879Y-90311262D01*
X106297993Y-90281115D01*
X106319685Y-90254685D01*
X106346115Y-90232993D01*
X106376262Y-90216879D01*
X106408976Y-90206955D01*
X106449138Y-90203000D01*
X107136862Y-90203000D01*
X107177024Y-90206955D01*
X107177024Y-90206955D01*
G37*
G36*
X105427024Y-90206955D02*
G01*
X105459738Y-90216879D01*
X105489885Y-90232993D01*
X105516315Y-90254685D01*
X105538007Y-90281115D01*
X105554121Y-90311262D01*
X105564045Y-90343976D01*
X105568000Y-90384138D01*
X105568000Y-90971862D01*
X105564045Y-91012024D01*
X105554121Y-91044738D01*
X105538007Y-91074885D01*
X105516315Y-91101315D01*
X105489885Y-91123007D01*
X105459738Y-91139121D01*
X105427024Y-91149045D01*
X105386862Y-91153000D01*
X104699138Y-91153000D01*
X104658976Y-91149045D01*
X104626262Y-91139121D01*
X104596115Y-91123007D01*
X104569685Y-91101315D01*
X104547993Y-91074885D01*
X104531879Y-91044738D01*
X104521955Y-91012024D01*
X104518000Y-90971862D01*
X104518000Y-90384138D01*
X104521955Y-90343976D01*
X104531879Y-90311262D01*
X104547993Y-90281115D01*
X104569685Y-90254685D01*
X104596115Y-90232993D01*
X104626262Y-90216879D01*
X104658976Y-90206955D01*
X104699138Y-90203000D01*
X105386862Y-90203000D01*
X105427024Y-90206955D01*
X105427024Y-90206955D01*
G37*
G36*
X124039825Y-89500745D02*
G01*
X124070490Y-89510048D01*
X124098748Y-89525152D01*
X124123519Y-89545481D01*
X124143848Y-89570252D01*
X124158952Y-89598510D01*
X124168255Y-89629175D01*
X124172000Y-89667203D01*
X124172000Y-90926797D01*
X124168255Y-90964825D01*
X124158952Y-90995490D01*
X124143848Y-91023748D01*
X124123519Y-91048519D01*
X124098748Y-91068848D01*
X124070490Y-91083952D01*
X124039825Y-91093255D01*
X124001797Y-91097000D01*
X120842203Y-91097000D01*
X120804175Y-91093255D01*
X120773510Y-91083952D01*
X120745252Y-91068848D01*
X120720481Y-91048519D01*
X120700152Y-91023748D01*
X120685048Y-90995490D01*
X120675745Y-90964825D01*
X120672000Y-90926797D01*
X120672000Y-89667203D01*
X120675745Y-89629175D01*
X120685048Y-89598510D01*
X120700152Y-89570252D01*
X120720481Y-89545481D01*
X120745252Y-89525152D01*
X120773510Y-89510048D01*
X120804175Y-89500745D01*
X120842203Y-89497000D01*
X124001797Y-89497000D01*
X124039825Y-89500745D01*
X124039825Y-89500745D01*
G37*
G36*
X129639825Y-89500745D02*
G01*
X129670490Y-89510048D01*
X129698748Y-89525152D01*
X129723519Y-89545481D01*
X129743848Y-89570252D01*
X129758952Y-89598510D01*
X129768255Y-89629175D01*
X129772000Y-89667203D01*
X129772000Y-90926797D01*
X129768255Y-90964825D01*
X129758952Y-90995490D01*
X129743848Y-91023748D01*
X129723519Y-91048519D01*
X129698748Y-91068848D01*
X129670490Y-91083952D01*
X129639825Y-91093255D01*
X129601797Y-91097000D01*
X126442203Y-91097000D01*
X126404175Y-91093255D01*
X126373510Y-91083952D01*
X126345252Y-91068848D01*
X126320481Y-91048519D01*
X126300152Y-91023748D01*
X126285048Y-90995490D01*
X126275745Y-90964825D01*
X126272000Y-90926797D01*
X126272000Y-89667203D01*
X126275745Y-89629175D01*
X126285048Y-89598510D01*
X126300152Y-89570252D01*
X126320481Y-89545481D01*
X126345252Y-89525152D01*
X126373510Y-89510048D01*
X126404175Y-89500745D01*
X126442203Y-89497000D01*
X129601797Y-89497000D01*
X129639825Y-89500745D01*
X129639825Y-89500745D01*
G37*
G36*
X142092987Y-89866183D02*
G01*
X142125701Y-89876107D01*
X142155848Y-89892221D01*
X142182278Y-89913913D01*
X142203970Y-89940343D01*
X142220084Y-89970490D01*
X142230008Y-90003204D01*
X142233963Y-90043366D01*
X142233963Y-90731090D01*
X142230008Y-90771252D01*
X142220084Y-90803966D01*
X142203970Y-90834113D01*
X142182278Y-90860543D01*
X142155848Y-90882235D01*
X142125701Y-90898349D01*
X142092987Y-90908273D01*
X142052825Y-90912228D01*
X141465101Y-90912228D01*
X141424939Y-90908273D01*
X141392225Y-90898349D01*
X141362078Y-90882235D01*
X141335648Y-90860543D01*
X141313956Y-90834113D01*
X141297842Y-90803966D01*
X141287918Y-90771252D01*
X141283963Y-90731090D01*
X141283963Y-90043366D01*
X141287918Y-90003204D01*
X141297842Y-89970490D01*
X141313956Y-89940343D01*
X141335648Y-89913913D01*
X141362078Y-89892221D01*
X141392225Y-89876107D01*
X141424939Y-89866183D01*
X141465101Y-89862228D01*
X142052825Y-89862228D01*
X142092987Y-89866183D01*
X142092987Y-89866183D01*
G37*
G36*
X177626024Y-89789955D02*
G01*
X177658738Y-89799879D01*
X177688885Y-89815993D01*
X177715315Y-89837685D01*
X177737007Y-89864115D01*
X177753121Y-89894262D01*
X177763045Y-89926976D01*
X177767000Y-89967138D01*
X177767000Y-90654862D01*
X177763045Y-90695024D01*
X177753121Y-90727738D01*
X177737007Y-90757885D01*
X177715315Y-90784315D01*
X177688885Y-90806007D01*
X177658738Y-90822121D01*
X177626024Y-90832045D01*
X177585862Y-90836000D01*
X176998138Y-90836000D01*
X176957976Y-90832045D01*
X176925262Y-90822121D01*
X176895115Y-90806007D01*
X176868685Y-90784315D01*
X176846993Y-90757885D01*
X176830879Y-90727738D01*
X176820955Y-90695024D01*
X176817000Y-90654862D01*
X176817000Y-89967138D01*
X176820955Y-89926976D01*
X176830879Y-89894262D01*
X176846993Y-89864115D01*
X176868685Y-89837685D01*
X176895115Y-89815993D01*
X176925262Y-89799879D01*
X176957976Y-89789955D01*
X176998138Y-89786000D01*
X177585862Y-89786000D01*
X177626024Y-89789955D01*
X177626024Y-89789955D01*
G37*
G36*
X143844024Y-89761955D02*
G01*
X143876738Y-89771879D01*
X143906885Y-89787993D01*
X143933315Y-89809685D01*
X143955007Y-89836115D01*
X143971121Y-89866262D01*
X143981045Y-89898976D01*
X143985000Y-89939138D01*
X143985000Y-90626862D01*
X143981045Y-90667024D01*
X143971121Y-90699738D01*
X143955007Y-90729885D01*
X143933315Y-90756315D01*
X143906885Y-90778007D01*
X143876738Y-90794121D01*
X143844024Y-90804045D01*
X143803862Y-90808000D01*
X143216138Y-90808000D01*
X143175976Y-90804045D01*
X143143262Y-90794121D01*
X143113115Y-90778007D01*
X143086685Y-90756315D01*
X143064993Y-90729885D01*
X143048879Y-90699738D01*
X143038955Y-90667024D01*
X143035000Y-90626862D01*
X143035000Y-89939138D01*
X143038955Y-89898976D01*
X143048879Y-89866262D01*
X143064993Y-89836115D01*
X143086685Y-89809685D01*
X143113115Y-89787993D01*
X143143262Y-89771879D01*
X143175976Y-89761955D01*
X143216138Y-89758000D01*
X143803862Y-89758000D01*
X143844024Y-89761955D01*
X143844024Y-89761955D01*
G37*
G36*
X115432024Y-89825955D02*
G01*
X115464738Y-89835879D01*
X115494885Y-89851993D01*
X115521315Y-89873685D01*
X115543007Y-89900115D01*
X115559121Y-89930262D01*
X115569045Y-89962976D01*
X115573000Y-90003138D01*
X115573000Y-90590862D01*
X115569045Y-90631024D01*
X115559121Y-90663738D01*
X115543007Y-90693885D01*
X115521315Y-90720315D01*
X115494885Y-90742007D01*
X115464738Y-90758121D01*
X115432024Y-90768045D01*
X115391862Y-90772000D01*
X114704138Y-90772000D01*
X114663976Y-90768045D01*
X114631262Y-90758121D01*
X114601115Y-90742007D01*
X114574685Y-90720315D01*
X114552993Y-90693885D01*
X114536879Y-90663738D01*
X114526955Y-90631024D01*
X114523000Y-90590862D01*
X114523000Y-90003138D01*
X114526955Y-89962976D01*
X114536879Y-89930262D01*
X114552993Y-89900115D01*
X114574685Y-89873685D01*
X114601115Y-89851993D01*
X114631262Y-89835879D01*
X114663976Y-89825955D01*
X114704138Y-89822000D01*
X115391862Y-89822000D01*
X115432024Y-89825955D01*
X115432024Y-89825955D01*
G37*
G36*
X113682024Y-89825955D02*
G01*
X113714738Y-89835879D01*
X113744885Y-89851993D01*
X113771315Y-89873685D01*
X113793007Y-89900115D01*
X113809121Y-89930262D01*
X113819045Y-89962976D01*
X113823000Y-90003138D01*
X113823000Y-90590862D01*
X113819045Y-90631024D01*
X113809121Y-90663738D01*
X113793007Y-90693885D01*
X113771315Y-90720315D01*
X113744885Y-90742007D01*
X113714738Y-90758121D01*
X113682024Y-90768045D01*
X113641862Y-90772000D01*
X112954138Y-90772000D01*
X112913976Y-90768045D01*
X112881262Y-90758121D01*
X112851115Y-90742007D01*
X112824685Y-90720315D01*
X112802993Y-90693885D01*
X112786879Y-90663738D01*
X112776955Y-90631024D01*
X112773000Y-90590862D01*
X112773000Y-90003138D01*
X112776955Y-89962976D01*
X112786879Y-89930262D01*
X112802993Y-89900115D01*
X112824685Y-89873685D01*
X112851115Y-89851993D01*
X112881262Y-89835879D01*
X112913976Y-89825955D01*
X112954138Y-89822000D01*
X113641862Y-89822000D01*
X113682024Y-89825955D01*
X113682024Y-89825955D01*
G37*
G36*
X117111024Y-89825955D02*
G01*
X117143738Y-89835879D01*
X117173885Y-89851993D01*
X117200315Y-89873685D01*
X117222007Y-89900115D01*
X117238121Y-89930262D01*
X117248045Y-89962976D01*
X117252000Y-90003138D01*
X117252000Y-90590862D01*
X117248045Y-90631024D01*
X117238121Y-90663738D01*
X117222007Y-90693885D01*
X117200315Y-90720315D01*
X117173885Y-90742007D01*
X117143738Y-90758121D01*
X117111024Y-90768045D01*
X117070862Y-90772000D01*
X116383138Y-90772000D01*
X116342976Y-90768045D01*
X116310262Y-90758121D01*
X116280115Y-90742007D01*
X116253685Y-90720315D01*
X116231993Y-90693885D01*
X116215879Y-90663738D01*
X116205955Y-90631024D01*
X116202000Y-90590862D01*
X116202000Y-90003138D01*
X116205955Y-89962976D01*
X116215879Y-89930262D01*
X116231993Y-89900115D01*
X116253685Y-89873685D01*
X116280115Y-89851993D01*
X116310262Y-89835879D01*
X116342976Y-89825955D01*
X116383138Y-89822000D01*
X117070862Y-89822000D01*
X117111024Y-89825955D01*
X117111024Y-89825955D01*
G37*
G36*
X118861024Y-89825955D02*
G01*
X118893738Y-89835879D01*
X118923885Y-89851993D01*
X118950315Y-89873685D01*
X118972007Y-89900115D01*
X118988121Y-89930262D01*
X118998045Y-89962976D01*
X119002000Y-90003138D01*
X119002000Y-90590862D01*
X118998045Y-90631024D01*
X118988121Y-90663738D01*
X118972007Y-90693885D01*
X118950315Y-90720315D01*
X118923885Y-90742007D01*
X118893738Y-90758121D01*
X118861024Y-90768045D01*
X118820862Y-90772000D01*
X118133138Y-90772000D01*
X118092976Y-90768045D01*
X118060262Y-90758121D01*
X118030115Y-90742007D01*
X118003685Y-90720315D01*
X117981993Y-90693885D01*
X117965879Y-90663738D01*
X117955955Y-90631024D01*
X117952000Y-90590862D01*
X117952000Y-90003138D01*
X117955955Y-89962976D01*
X117965879Y-89930262D01*
X117981993Y-89900115D01*
X118003685Y-89873685D01*
X118030115Y-89851993D01*
X118060262Y-89835879D01*
X118092976Y-89825955D01*
X118133138Y-89822000D01*
X118820862Y-89822000D01*
X118861024Y-89825955D01*
X118861024Y-89825955D01*
G37*
G36*
X176011024Y-89190955D02*
G01*
X176043738Y-89200879D01*
X176073885Y-89216993D01*
X176100315Y-89238685D01*
X176122007Y-89265115D01*
X176138121Y-89295262D01*
X176148045Y-89327976D01*
X176152000Y-89368138D01*
X176152000Y-89955862D01*
X176148045Y-89996024D01*
X176138121Y-90028738D01*
X176122007Y-90058885D01*
X176100315Y-90085315D01*
X176073885Y-90107007D01*
X176043738Y-90123121D01*
X176011024Y-90133045D01*
X175970862Y-90137000D01*
X175283138Y-90137000D01*
X175242976Y-90133045D01*
X175210262Y-90123121D01*
X175180115Y-90107007D01*
X175153685Y-90085315D01*
X175131993Y-90058885D01*
X175115879Y-90028738D01*
X175105955Y-89996024D01*
X175102000Y-89955862D01*
X175102000Y-89368138D01*
X175105955Y-89327976D01*
X175115879Y-89295262D01*
X175131993Y-89265115D01*
X175153685Y-89238685D01*
X175180115Y-89216993D01*
X175210262Y-89200879D01*
X175242976Y-89190955D01*
X175283138Y-89187000D01*
X175970862Y-89187000D01*
X176011024Y-89190955D01*
X176011024Y-89190955D01*
G37*
G36*
X174261024Y-89190955D02*
G01*
X174293738Y-89200879D01*
X174323885Y-89216993D01*
X174350315Y-89238685D01*
X174372007Y-89265115D01*
X174388121Y-89295262D01*
X174398045Y-89327976D01*
X174402000Y-89368138D01*
X174402000Y-89955862D01*
X174398045Y-89996024D01*
X174388121Y-90028738D01*
X174372007Y-90058885D01*
X174350315Y-90085315D01*
X174323885Y-90107007D01*
X174293738Y-90123121D01*
X174261024Y-90133045D01*
X174220862Y-90137000D01*
X173533138Y-90137000D01*
X173492976Y-90133045D01*
X173460262Y-90123121D01*
X173430115Y-90107007D01*
X173403685Y-90085315D01*
X173381993Y-90058885D01*
X173365879Y-90028738D01*
X173355955Y-89996024D01*
X173352000Y-89955862D01*
X173352000Y-89368138D01*
X173355955Y-89327976D01*
X173365879Y-89295262D01*
X173381993Y-89265115D01*
X173403685Y-89238685D01*
X173430115Y-89216993D01*
X173460262Y-89200879D01*
X173492976Y-89190955D01*
X173533138Y-89187000D01*
X174220862Y-89187000D01*
X174261024Y-89190955D01*
X174261024Y-89190955D01*
G37*
G36*
X142092987Y-88116183D02*
G01*
X142125701Y-88126107D01*
X142155848Y-88142221D01*
X142182278Y-88163913D01*
X142203970Y-88190343D01*
X142220084Y-88220490D01*
X142230008Y-88253204D01*
X142233963Y-88293366D01*
X142233963Y-88981090D01*
X142230008Y-89021252D01*
X142220084Y-89053966D01*
X142203970Y-89084113D01*
X142182278Y-89110543D01*
X142155848Y-89132235D01*
X142125701Y-89148349D01*
X142092987Y-89158273D01*
X142052825Y-89162228D01*
X141465101Y-89162228D01*
X141424939Y-89158273D01*
X141392225Y-89148349D01*
X141362078Y-89132235D01*
X141335648Y-89110543D01*
X141313956Y-89084113D01*
X141297842Y-89053966D01*
X141287918Y-89021252D01*
X141283963Y-88981090D01*
X141283963Y-88293366D01*
X141287918Y-88253204D01*
X141297842Y-88220490D01*
X141313956Y-88190343D01*
X141335648Y-88163913D01*
X141362078Y-88142221D01*
X141392225Y-88126107D01*
X141424939Y-88116183D01*
X141465101Y-88112228D01*
X142052825Y-88112228D01*
X142092987Y-88116183D01*
X142092987Y-88116183D01*
G37*
G36*
X117111024Y-88174955D02*
G01*
X117143738Y-88184879D01*
X117173885Y-88200993D01*
X117200315Y-88222685D01*
X117222007Y-88249115D01*
X117238121Y-88279262D01*
X117248045Y-88311976D01*
X117252000Y-88352138D01*
X117252000Y-88939862D01*
X117248045Y-88980024D01*
X117238121Y-89012738D01*
X117222007Y-89042885D01*
X117200315Y-89069315D01*
X117173885Y-89091007D01*
X117143738Y-89107121D01*
X117111024Y-89117045D01*
X117070862Y-89121000D01*
X116383138Y-89121000D01*
X116342976Y-89117045D01*
X116310262Y-89107121D01*
X116280115Y-89091007D01*
X116253685Y-89069315D01*
X116231993Y-89042885D01*
X116215879Y-89012738D01*
X116205955Y-88980024D01*
X116202000Y-88939862D01*
X116202000Y-88352138D01*
X116205955Y-88311976D01*
X116215879Y-88279262D01*
X116231993Y-88249115D01*
X116253685Y-88222685D01*
X116280115Y-88200993D01*
X116310262Y-88184879D01*
X116342976Y-88174955D01*
X116383138Y-88171000D01*
X117070862Y-88171000D01*
X117111024Y-88174955D01*
X117111024Y-88174955D01*
G37*
G36*
X118861024Y-88174955D02*
G01*
X118893738Y-88184879D01*
X118923885Y-88200993D01*
X118950315Y-88222685D01*
X118972007Y-88249115D01*
X118988121Y-88279262D01*
X118998045Y-88311976D01*
X119002000Y-88352138D01*
X119002000Y-88939862D01*
X118998045Y-88980024D01*
X118988121Y-89012738D01*
X118972007Y-89042885D01*
X118950315Y-89069315D01*
X118923885Y-89091007D01*
X118893738Y-89107121D01*
X118861024Y-89117045D01*
X118820862Y-89121000D01*
X118133138Y-89121000D01*
X118092976Y-89117045D01*
X118060262Y-89107121D01*
X118030115Y-89091007D01*
X118003685Y-89069315D01*
X117981993Y-89042885D01*
X117965879Y-89012738D01*
X117955955Y-88980024D01*
X117952000Y-88939862D01*
X117952000Y-88352138D01*
X117955955Y-88311976D01*
X117965879Y-88279262D01*
X117981993Y-88249115D01*
X118003685Y-88222685D01*
X118030115Y-88200993D01*
X118060262Y-88184879D01*
X118092976Y-88174955D01*
X118133138Y-88171000D01*
X118820862Y-88171000D01*
X118861024Y-88174955D01*
X118861024Y-88174955D01*
G37*
G36*
X143844024Y-88011955D02*
G01*
X143876738Y-88021879D01*
X143906885Y-88037993D01*
X143933315Y-88059685D01*
X143955007Y-88086115D01*
X143971121Y-88116262D01*
X143981045Y-88148976D01*
X143985000Y-88189138D01*
X143985000Y-88876862D01*
X143981045Y-88917024D01*
X143971121Y-88949738D01*
X143955007Y-88979885D01*
X143933315Y-89006315D01*
X143906885Y-89028007D01*
X143876738Y-89044121D01*
X143844024Y-89054045D01*
X143803862Y-89058000D01*
X143216138Y-89058000D01*
X143175976Y-89054045D01*
X143143262Y-89044121D01*
X143113115Y-89028007D01*
X143086685Y-89006315D01*
X143064993Y-88979885D01*
X143048879Y-88949738D01*
X143038955Y-88917024D01*
X143035000Y-88876862D01*
X143035000Y-88189138D01*
X143038955Y-88148976D01*
X143048879Y-88116262D01*
X143064993Y-88086115D01*
X143086685Y-88059685D01*
X143113115Y-88037993D01*
X143143262Y-88021879D01*
X143175976Y-88011955D01*
X143216138Y-88008000D01*
X143803862Y-88008000D01*
X143844024Y-88011955D01*
X143844024Y-88011955D01*
G37*
G36*
X142092987Y-86310183D02*
G01*
X142125701Y-86320107D01*
X142155848Y-86336221D01*
X142182278Y-86357913D01*
X142203970Y-86384343D01*
X142220084Y-86414490D01*
X142230008Y-86447204D01*
X142233963Y-86487366D01*
X142233963Y-87175090D01*
X142230008Y-87215252D01*
X142220084Y-87247966D01*
X142203970Y-87278113D01*
X142182278Y-87304543D01*
X142155848Y-87326235D01*
X142125701Y-87342349D01*
X142092987Y-87352273D01*
X142052825Y-87356228D01*
X141465101Y-87356228D01*
X141424939Y-87352273D01*
X141392225Y-87342349D01*
X141362078Y-87326235D01*
X141335648Y-87304543D01*
X141313956Y-87278113D01*
X141297842Y-87247966D01*
X141287918Y-87215252D01*
X141283963Y-87175090D01*
X141283963Y-86487366D01*
X141287918Y-86447204D01*
X141297842Y-86414490D01*
X141313956Y-86384343D01*
X141335648Y-86357913D01*
X141362078Y-86336221D01*
X141392225Y-86320107D01*
X141424939Y-86310183D01*
X141465101Y-86306228D01*
X142052825Y-86306228D01*
X142092987Y-86310183D01*
X142092987Y-86310183D01*
G37*
G36*
X143844024Y-86205955D02*
G01*
X143876738Y-86215879D01*
X143906885Y-86231993D01*
X143933315Y-86253685D01*
X143955007Y-86280115D01*
X143971121Y-86310262D01*
X143981045Y-86342976D01*
X143985000Y-86383138D01*
X143985000Y-87070862D01*
X143981045Y-87111024D01*
X143971121Y-87143738D01*
X143955007Y-87173885D01*
X143933315Y-87200315D01*
X143906885Y-87222007D01*
X143876738Y-87238121D01*
X143844024Y-87248045D01*
X143803862Y-87252000D01*
X143216138Y-87252000D01*
X143175976Y-87248045D01*
X143143262Y-87238121D01*
X143113115Y-87222007D01*
X143086685Y-87200315D01*
X143064993Y-87173885D01*
X143048879Y-87143738D01*
X143038955Y-87111024D01*
X143035000Y-87070862D01*
X143035000Y-86383138D01*
X143038955Y-86342976D01*
X143048879Y-86310262D01*
X143064993Y-86280115D01*
X143086685Y-86253685D01*
X143113115Y-86231993D01*
X143143262Y-86215879D01*
X143175976Y-86205955D01*
X143216138Y-86202000D01*
X143803862Y-86202000D01*
X143844024Y-86205955D01*
X143844024Y-86205955D01*
G37*
G36*
X90846032Y-85014469D02*
G01*
X90940285Y-85043061D01*
X91034535Y-85071651D01*
X91034537Y-85071652D01*
X91208258Y-85164507D01*
X91360528Y-85289472D01*
X91485493Y-85441742D01*
X91557380Y-85576235D01*
X91578349Y-85615465D01*
X91582447Y-85628974D01*
X91635531Y-85803968D01*
X91654838Y-86000000D01*
X91635531Y-86196032D01*
X91610024Y-86280115D01*
X91578773Y-86383138D01*
X91578348Y-86384537D01*
X91485493Y-86558258D01*
X91360528Y-86710528D01*
X91208258Y-86835493D01*
X91034537Y-86928348D01*
X91034535Y-86928349D01*
X90940284Y-86956940D01*
X90846032Y-86985531D01*
X90699124Y-87000000D01*
X89300876Y-87000000D01*
X89153968Y-86985531D01*
X89059716Y-86956940D01*
X88965465Y-86928349D01*
X88965463Y-86928348D01*
X88791742Y-86835493D01*
X88639472Y-86710528D01*
X88514507Y-86558258D01*
X88421652Y-86384537D01*
X88421228Y-86383138D01*
X88389976Y-86280115D01*
X88364469Y-86196032D01*
X88345162Y-86000000D01*
X88364469Y-85803968D01*
X88417553Y-85628974D01*
X88421651Y-85615465D01*
X88442620Y-85576235D01*
X88514507Y-85441742D01*
X88639472Y-85289472D01*
X88791742Y-85164507D01*
X88965463Y-85071652D01*
X88965465Y-85071651D01*
X89059715Y-85043061D01*
X89153968Y-85014469D01*
X89300876Y-85000000D01*
X90699124Y-85000000D01*
X90846032Y-85014469D01*
X90846032Y-85014469D01*
G37*
G36*
X94696032Y-83264469D02*
G01*
X94790285Y-83293061D01*
X94884535Y-83321651D01*
X94884537Y-83321652D01*
X95058258Y-83414507D01*
X95210528Y-83539472D01*
X95335493Y-83691742D01*
X95428348Y-83865463D01*
X95485531Y-84053968D01*
X95500000Y-84200876D01*
X95500000Y-85799124D01*
X95485531Y-85946032D01*
X95428348Y-86134537D01*
X95335493Y-86308258D01*
X95210528Y-86460528D01*
X95058258Y-86585493D01*
X94933830Y-86652000D01*
X94884534Y-86678349D01*
X94790284Y-86706939D01*
X94696031Y-86735531D01*
X94500000Y-86754838D01*
X94303968Y-86735531D01*
X94209715Y-86706939D01*
X94115465Y-86678349D01*
X94115463Y-86678348D01*
X93941742Y-86585493D01*
X93789472Y-86460528D01*
X93664507Y-86308258D01*
X93571652Y-86134536D01*
X93514469Y-85946031D01*
X93500000Y-85799123D01*
X93500000Y-84200876D01*
X93514469Y-84053965D01*
X93571651Y-83865466D01*
X93664508Y-83691742D01*
X93789473Y-83539472D01*
X93941743Y-83414507D01*
X94115464Y-83321652D01*
X94115466Y-83321651D01*
X94209716Y-83293061D01*
X94303969Y-83264469D01*
X94500000Y-83245162D01*
X94696032Y-83264469D01*
X94696032Y-83264469D01*
G37*
G36*
X85696032Y-83264469D02*
G01*
X85790285Y-83293061D01*
X85884535Y-83321651D01*
X85884537Y-83321652D01*
X86058258Y-83414507D01*
X86210528Y-83539472D01*
X86335493Y-83691742D01*
X86428348Y-83865463D01*
X86485531Y-84053968D01*
X86500000Y-84200876D01*
X86500000Y-85799124D01*
X86485531Y-85946032D01*
X86428348Y-86134537D01*
X86335493Y-86308258D01*
X86210528Y-86460528D01*
X86058258Y-86585493D01*
X85933830Y-86652000D01*
X85884534Y-86678349D01*
X85790284Y-86706939D01*
X85696031Y-86735531D01*
X85500000Y-86754838D01*
X85303968Y-86735531D01*
X85209715Y-86706939D01*
X85115465Y-86678349D01*
X85115463Y-86678348D01*
X84941742Y-86585493D01*
X84789472Y-86460528D01*
X84664507Y-86308258D01*
X84571652Y-86134536D01*
X84514469Y-85946031D01*
X84500000Y-85799123D01*
X84500000Y-84200876D01*
X84514469Y-84053965D01*
X84571651Y-83865466D01*
X84664508Y-83691742D01*
X84789473Y-83539472D01*
X84941743Y-83414507D01*
X85115464Y-83321652D01*
X85115466Y-83321651D01*
X85209716Y-83293061D01*
X85303969Y-83264469D01*
X85500000Y-83245162D01*
X85696032Y-83264469D01*
X85696032Y-83264469D01*
G37*
G36*
X111212825Y-85055745D02*
G01*
X111243490Y-85065048D01*
X111271748Y-85080152D01*
X111296519Y-85100481D01*
X111316848Y-85125252D01*
X111331952Y-85153510D01*
X111341255Y-85184175D01*
X111345000Y-85222203D01*
X111345000Y-86481797D01*
X111341255Y-86519825D01*
X111331952Y-86550490D01*
X111316848Y-86578748D01*
X111296519Y-86603519D01*
X111271748Y-86623848D01*
X111243490Y-86638952D01*
X111212825Y-86648255D01*
X111174797Y-86652000D01*
X108015203Y-86652000D01*
X107977175Y-86648255D01*
X107946510Y-86638952D01*
X107918252Y-86623848D01*
X107893481Y-86603519D01*
X107873152Y-86578748D01*
X107858048Y-86550490D01*
X107848745Y-86519825D01*
X107845000Y-86481797D01*
X107845000Y-85222203D01*
X107848745Y-85184175D01*
X107858048Y-85153510D01*
X107873152Y-85125252D01*
X107893481Y-85100481D01*
X107918252Y-85080152D01*
X107946510Y-85065048D01*
X107977175Y-85055745D01*
X108015203Y-85052000D01*
X111174797Y-85052000D01*
X111212825Y-85055745D01*
X111212825Y-85055745D01*
G37*
G36*
X116812825Y-85055745D02*
G01*
X116843490Y-85065048D01*
X116871748Y-85080152D01*
X116896519Y-85100481D01*
X116916848Y-85125252D01*
X116931952Y-85153510D01*
X116941255Y-85184175D01*
X116945000Y-85222203D01*
X116945000Y-86481797D01*
X116941255Y-86519825D01*
X116931952Y-86550490D01*
X116916848Y-86578748D01*
X116896519Y-86603519D01*
X116871748Y-86623848D01*
X116843490Y-86638952D01*
X116812825Y-86648255D01*
X116774797Y-86652000D01*
X113615203Y-86652000D01*
X113577175Y-86648255D01*
X113546510Y-86638952D01*
X113518252Y-86623848D01*
X113493481Y-86603519D01*
X113473152Y-86578748D01*
X113458048Y-86550490D01*
X113448745Y-86519825D01*
X113445000Y-86481797D01*
X113445000Y-85222203D01*
X113448745Y-85184175D01*
X113458048Y-85153510D01*
X113473152Y-85125252D01*
X113493481Y-85100481D01*
X113518252Y-85080152D01*
X113546510Y-85065048D01*
X113577175Y-85055745D01*
X113615203Y-85052000D01*
X116774797Y-85052000D01*
X116812825Y-85055745D01*
X116812825Y-85055745D01*
G37*
G36*
X176645000Y-86320000D02*
G01*
X174355000Y-86320000D01*
X174355000Y-81240000D01*
X176645000Y-81240000D01*
X176645000Y-86320000D01*
X176645000Y-86320000D01*
G37*
G36*
X172330000Y-86320000D02*
G01*
X169910000Y-86320000D01*
X169910000Y-81240000D01*
X172330000Y-81240000D01*
X172330000Y-86320000D01*
X172330000Y-86320000D01*
G37*
G36*
X181090000Y-86320000D02*
G01*
X178670000Y-86320000D01*
X178670000Y-81240000D01*
X181090000Y-81240000D01*
X181090000Y-86320000D01*
X181090000Y-86320000D01*
G37*
G36*
X146224735Y-84833926D02*
G01*
X146361226Y-84890463D01*
X146484066Y-84972542D01*
X146588532Y-85077008D01*
X146670611Y-85199848D01*
X146727148Y-85336339D01*
X146755969Y-85481235D01*
X146755969Y-85628975D01*
X146727148Y-85773871D01*
X146670611Y-85910362D01*
X146588532Y-86033202D01*
X146484066Y-86137668D01*
X146361226Y-86219747D01*
X146224735Y-86276284D01*
X146079839Y-86305105D01*
X145932099Y-86305105D01*
X145787203Y-86276284D01*
X145650712Y-86219747D01*
X145527872Y-86137668D01*
X145423406Y-86033202D01*
X145341327Y-85910362D01*
X145284790Y-85773871D01*
X145255969Y-85628975D01*
X145255969Y-85481235D01*
X145284790Y-85336339D01*
X145341327Y-85199848D01*
X145423406Y-85077008D01*
X145527872Y-84972542D01*
X145650712Y-84890463D01*
X145787203Y-84833926D01*
X145932099Y-84805105D01*
X146079839Y-84805105D01*
X146224735Y-84833926D01*
X146224735Y-84833926D01*
G37*
G36*
X149018735Y-84833926D02*
G01*
X149155226Y-84890463D01*
X149278066Y-84972542D01*
X149382532Y-85077008D01*
X149464611Y-85199848D01*
X149521148Y-85336339D01*
X149549969Y-85481235D01*
X149549969Y-85628975D01*
X149521148Y-85773871D01*
X149464611Y-85910362D01*
X149382532Y-86033202D01*
X149278066Y-86137668D01*
X149155226Y-86219747D01*
X149018735Y-86276284D01*
X148873839Y-86305105D01*
X148726099Y-86305105D01*
X148581203Y-86276284D01*
X148444712Y-86219747D01*
X148321872Y-86137668D01*
X148217406Y-86033202D01*
X148135327Y-85910362D01*
X148078790Y-85773871D01*
X148049969Y-85628975D01*
X148049969Y-85481235D01*
X148078790Y-85336339D01*
X148135327Y-85199848D01*
X148217406Y-85077008D01*
X148321872Y-84972542D01*
X148444712Y-84890463D01*
X148581203Y-84833926D01*
X148726099Y-84805105D01*
X148873839Y-84805105D01*
X149018735Y-84833926D01*
X149018735Y-84833926D01*
G37*
G36*
X72379196Y-83749958D02*
G01*
X72615781Y-83847955D01*
X72828702Y-83990224D01*
X73009776Y-84171298D01*
X73152045Y-84384219D01*
X73250042Y-84620804D01*
X73258732Y-84664490D01*
X73292435Y-84833926D01*
X73300000Y-84871961D01*
X73300000Y-85128039D01*
X73250042Y-85379196D01*
X73152045Y-85615781D01*
X73009776Y-85828702D01*
X72828702Y-86009776D01*
X72615781Y-86152045D01*
X72379196Y-86250042D01*
X72271007Y-86271562D01*
X72128040Y-86300000D01*
X71871960Y-86300000D01*
X71728993Y-86271562D01*
X71620804Y-86250042D01*
X71384219Y-86152045D01*
X71171298Y-86009776D01*
X70990224Y-85828702D01*
X70847955Y-85615781D01*
X70749958Y-85379196D01*
X70700000Y-85128039D01*
X70700000Y-84871961D01*
X70707566Y-84833926D01*
X70741268Y-84664490D01*
X70749958Y-84620804D01*
X70847955Y-84384219D01*
X70990224Y-84171298D01*
X71171298Y-83990224D01*
X71384219Y-83847955D01*
X71620804Y-83749958D01*
X71871960Y-83700000D01*
X72128040Y-83700000D01*
X72379196Y-83749958D01*
X72379196Y-83749958D01*
G37*
G36*
X78300000Y-86300000D02*
G01*
X75700000Y-86300000D01*
X75700000Y-83700000D01*
X78300000Y-83700000D01*
X78300000Y-86300000D01*
X78300000Y-86300000D01*
G37*
G36*
X99960000Y-85910000D02*
G01*
X98960000Y-85910000D01*
X98960000Y-83400000D01*
X99960000Y-83400000D01*
X99960000Y-85910000D01*
X99960000Y-85910000D01*
G37*
G36*
X105040000Y-85910000D02*
G01*
X104040000Y-85910000D01*
X104040000Y-83400000D01*
X105040000Y-83400000D01*
X105040000Y-85910000D01*
X105040000Y-85910000D01*
G37*
G36*
X124770000Y-85910000D02*
G01*
X123770000Y-85910000D01*
X123770000Y-83400000D01*
X124770000Y-83400000D01*
X124770000Y-85910000D01*
X124770000Y-85910000D01*
G37*
G36*
X136770000Y-85910000D02*
G01*
X135770000Y-85910000D01*
X135770000Y-83400000D01*
X136770000Y-83400000D01*
X136770000Y-85910000D01*
X136770000Y-85910000D01*
G37*
G36*
X131690000Y-85910000D02*
G01*
X130690000Y-85910000D01*
X130690000Y-83400000D01*
X131690000Y-83400000D01*
X131690000Y-85910000D01*
X131690000Y-85910000D01*
G37*
G36*
X119690000Y-85910000D02*
G01*
X118690000Y-85910000D01*
X118690000Y-83400000D01*
X119690000Y-83400000D01*
X119690000Y-85910000D01*
X119690000Y-85910000D01*
G37*
G36*
X152392000Y-85714000D02*
G01*
X151392000Y-85714000D01*
X151392000Y-83204000D01*
X152392000Y-83204000D01*
X152392000Y-85714000D01*
X152392000Y-85714000D01*
G37*
G36*
X142092987Y-84560183D02*
G01*
X142125701Y-84570107D01*
X142155848Y-84586221D01*
X142182278Y-84607913D01*
X142203970Y-84634343D01*
X142220084Y-84664490D01*
X142230008Y-84697204D01*
X142233963Y-84737366D01*
X142233963Y-85425090D01*
X142230008Y-85465252D01*
X142220084Y-85497966D01*
X142203970Y-85528113D01*
X142182278Y-85554543D01*
X142155848Y-85576235D01*
X142125701Y-85592349D01*
X142092987Y-85602273D01*
X142052825Y-85606228D01*
X141465101Y-85606228D01*
X141424939Y-85602273D01*
X141392225Y-85592349D01*
X141362078Y-85576235D01*
X141335648Y-85554543D01*
X141313956Y-85528113D01*
X141297842Y-85497966D01*
X141287918Y-85465252D01*
X141283963Y-85425090D01*
X141283963Y-84737366D01*
X141287918Y-84697204D01*
X141297842Y-84664490D01*
X141313956Y-84634343D01*
X141335648Y-84607913D01*
X141362078Y-84586221D01*
X141392225Y-84570107D01*
X141424939Y-84560183D01*
X141465101Y-84556228D01*
X142052825Y-84556228D01*
X142092987Y-84560183D01*
X142092987Y-84560183D01*
G37*
G36*
X143844024Y-84455955D02*
G01*
X143876738Y-84465879D01*
X143906885Y-84481993D01*
X143933315Y-84503685D01*
X143955007Y-84530115D01*
X143971121Y-84560262D01*
X143981045Y-84592976D01*
X143985000Y-84633138D01*
X143985000Y-85320862D01*
X143981045Y-85361024D01*
X143971121Y-85393738D01*
X143955007Y-85423885D01*
X143933315Y-85450315D01*
X143906885Y-85472007D01*
X143876738Y-85488121D01*
X143844024Y-85498045D01*
X143803862Y-85502000D01*
X143216138Y-85502000D01*
X143175976Y-85498045D01*
X143143262Y-85488121D01*
X143113115Y-85472007D01*
X143086685Y-85450315D01*
X143064993Y-85423885D01*
X143048879Y-85393738D01*
X143038955Y-85361024D01*
X143035000Y-85320862D01*
X143035000Y-84633138D01*
X143038955Y-84592976D01*
X143048879Y-84560262D01*
X143064993Y-84530115D01*
X143086685Y-84503685D01*
X143113115Y-84481993D01*
X143143262Y-84465879D01*
X143175976Y-84455955D01*
X143216138Y-84452000D01*
X143803862Y-84452000D01*
X143844024Y-84455955D01*
X143844024Y-84455955D01*
G37*
G36*
X161762766Y-83606821D02*
G01*
X161899257Y-83663358D01*
X162022097Y-83745437D01*
X162126563Y-83849903D01*
X162208642Y-83972743D01*
X162265179Y-84109234D01*
X162294000Y-84254130D01*
X162294000Y-84401870D01*
X162265179Y-84546766D01*
X162208642Y-84683257D01*
X162126563Y-84806097D01*
X162022097Y-84910563D01*
X161899257Y-84992642D01*
X161762766Y-85049179D01*
X161617870Y-85078000D01*
X161470130Y-85078000D01*
X161325234Y-85049179D01*
X161188743Y-84992642D01*
X161065903Y-84910563D01*
X160961437Y-84806097D01*
X160879358Y-84683257D01*
X160822821Y-84546766D01*
X160794000Y-84401870D01*
X160794000Y-84254130D01*
X160822821Y-84109234D01*
X160879358Y-83972743D01*
X160961437Y-83849903D01*
X161065903Y-83745437D01*
X161188743Y-83663358D01*
X161325234Y-83606821D01*
X161470130Y-83578000D01*
X161617870Y-83578000D01*
X161762766Y-83606821D01*
X161762766Y-83606821D01*
G37*
G36*
X158968766Y-83606821D02*
G01*
X159105257Y-83663358D01*
X159228097Y-83745437D01*
X159332563Y-83849903D01*
X159414642Y-83972743D01*
X159471179Y-84109234D01*
X159500000Y-84254130D01*
X159500000Y-84401870D01*
X159471179Y-84546766D01*
X159414642Y-84683257D01*
X159332563Y-84806097D01*
X159228097Y-84910563D01*
X159105257Y-84992642D01*
X158968766Y-85049179D01*
X158823870Y-85078000D01*
X158676130Y-85078000D01*
X158531234Y-85049179D01*
X158394743Y-84992642D01*
X158271903Y-84910563D01*
X158167437Y-84806097D01*
X158085358Y-84683257D01*
X158028821Y-84546766D01*
X158000000Y-84401870D01*
X158000000Y-84254130D01*
X158028821Y-84109234D01*
X158085358Y-83972743D01*
X158167437Y-83849903D01*
X158271903Y-83745437D01*
X158394743Y-83663358D01*
X158531234Y-83606821D01*
X158676130Y-83578000D01*
X158823870Y-83578000D01*
X158968766Y-83606821D01*
X158968766Y-83606821D01*
G37*
G36*
X90233351Y-82230743D02*
G01*
X90378941Y-82291048D01*
X90509970Y-82378599D01*
X90621401Y-82490030D01*
X90708952Y-82621059D01*
X90769257Y-82766649D01*
X90800000Y-82921206D01*
X90800000Y-83078794D01*
X90769257Y-83233351D01*
X90708952Y-83378941D01*
X90621401Y-83509970D01*
X90509970Y-83621401D01*
X90378941Y-83708952D01*
X90233351Y-83769257D01*
X90078794Y-83800000D01*
X89921206Y-83800000D01*
X89766649Y-83769257D01*
X89621059Y-83708952D01*
X89490030Y-83621401D01*
X89378599Y-83509970D01*
X89291048Y-83378941D01*
X89230743Y-83233351D01*
X89200000Y-83078794D01*
X89200000Y-82921206D01*
X89230743Y-82766649D01*
X89291048Y-82621059D01*
X89378599Y-82490030D01*
X89490030Y-82378599D01*
X89621059Y-82291048D01*
X89766649Y-82230743D01*
X89921206Y-82200000D01*
X90078794Y-82200000D01*
X90233351Y-82230743D01*
X90233351Y-82230743D01*
G37*
G36*
X145132015Y-82007234D02*
G01*
X145226270Y-82035826D01*
X145313128Y-82082253D01*
X145389264Y-82144736D01*
X145451747Y-82220872D01*
X145498174Y-82307730D01*
X145526766Y-82401985D01*
X145536419Y-82500000D01*
X145526766Y-82598015D01*
X145498174Y-82692270D01*
X145451747Y-82779128D01*
X145389264Y-82855264D01*
X145313128Y-82917747D01*
X145226270Y-82964174D01*
X145132015Y-82992766D01*
X145058564Y-83000000D01*
X145009436Y-83000000D01*
X144935985Y-82992766D01*
X144841730Y-82964174D01*
X144754872Y-82917747D01*
X144678736Y-82855264D01*
X144616253Y-82779128D01*
X144569826Y-82692270D01*
X144541234Y-82598015D01*
X144531581Y-82500000D01*
X144541234Y-82401985D01*
X144569826Y-82307730D01*
X144616253Y-82220872D01*
X144678736Y-82144736D01*
X144754872Y-82082253D01*
X144841730Y-82035826D01*
X144935985Y-82007234D01*
X145009436Y-82000000D01*
X145058564Y-82000000D01*
X145132015Y-82007234D01*
X145132015Y-82007234D01*
G37*
G36*
X147672015Y-82007234D02*
G01*
X147766270Y-82035826D01*
X147853128Y-82082253D01*
X147929264Y-82144736D01*
X147991747Y-82220872D01*
X148038174Y-82307730D01*
X148066766Y-82401985D01*
X148076419Y-82500000D01*
X148066766Y-82598015D01*
X148038174Y-82692270D01*
X147991747Y-82779128D01*
X147929264Y-82855264D01*
X147853128Y-82917747D01*
X147766270Y-82964174D01*
X147672015Y-82992766D01*
X147598564Y-83000000D01*
X147549436Y-83000000D01*
X147475985Y-82992766D01*
X147381730Y-82964174D01*
X147294872Y-82917747D01*
X147218736Y-82855264D01*
X147156253Y-82779128D01*
X147109826Y-82692270D01*
X147081234Y-82598015D01*
X147071581Y-82500000D01*
X147081234Y-82401985D01*
X147109826Y-82307730D01*
X147156253Y-82220872D01*
X147218736Y-82144736D01*
X147294872Y-82082253D01*
X147381730Y-82035826D01*
X147475985Y-82007234D01*
X147549436Y-82000000D01*
X147598564Y-82000000D01*
X147672015Y-82007234D01*
X147672015Y-82007234D01*
G37*
G36*
X142994000Y-83000000D02*
G01*
X141994000Y-83000000D01*
X141994000Y-82000000D01*
X142994000Y-82000000D01*
X142994000Y-83000000D01*
X142994000Y-83000000D01*
G37*
G36*
X146402015Y-82007234D02*
G01*
X146496270Y-82035826D01*
X146583128Y-82082253D01*
X146659264Y-82144736D01*
X146721747Y-82220872D01*
X146768174Y-82307730D01*
X146796766Y-82401985D01*
X146806419Y-82500000D01*
X146796766Y-82598015D01*
X146768174Y-82692270D01*
X146721747Y-82779128D01*
X146659264Y-82855264D01*
X146583128Y-82917747D01*
X146496270Y-82964174D01*
X146402015Y-82992766D01*
X146328564Y-83000000D01*
X146279436Y-83000000D01*
X146205985Y-82992766D01*
X146111730Y-82964174D01*
X146024872Y-82917747D01*
X145948736Y-82855264D01*
X145886253Y-82779128D01*
X145839826Y-82692270D01*
X145811234Y-82598015D01*
X145801581Y-82500000D01*
X145811234Y-82401985D01*
X145839826Y-82307730D01*
X145886253Y-82220872D01*
X145948736Y-82144736D01*
X146024872Y-82082253D01*
X146111730Y-82035826D01*
X146205985Y-82007234D01*
X146279436Y-82000000D01*
X146328564Y-82000000D01*
X146402015Y-82007234D01*
X146402015Y-82007234D01*
G37*
G36*
X143862015Y-82007234D02*
G01*
X143956270Y-82035826D01*
X144043128Y-82082253D01*
X144119264Y-82144736D01*
X144181747Y-82220872D01*
X144228174Y-82307730D01*
X144256766Y-82401985D01*
X144266419Y-82500000D01*
X144256766Y-82598015D01*
X144228174Y-82692270D01*
X144181747Y-82779128D01*
X144119264Y-82855264D01*
X144043128Y-82917747D01*
X143956270Y-82964174D01*
X143862015Y-82992766D01*
X143788564Y-83000000D01*
X143739436Y-83000000D01*
X143665985Y-82992766D01*
X143571730Y-82964174D01*
X143484872Y-82917747D01*
X143408736Y-82855264D01*
X143346253Y-82779128D01*
X143299826Y-82692270D01*
X143271234Y-82598015D01*
X143261581Y-82500000D01*
X143271234Y-82401985D01*
X143299826Y-82307730D01*
X143346253Y-82220872D01*
X143408736Y-82144736D01*
X143484872Y-82082253D01*
X143571730Y-82035826D01*
X143665985Y-82007234D01*
X143739436Y-82000000D01*
X143788564Y-82000000D01*
X143862015Y-82007234D01*
X143862015Y-82007234D01*
G37*
G36*
X127310000Y-82600000D02*
G01*
X126310000Y-82600000D01*
X126310000Y-80090000D01*
X127310000Y-80090000D01*
X127310000Y-82600000D01*
X127310000Y-82600000D01*
G37*
G36*
X102500000Y-82600000D02*
G01*
X101500000Y-82600000D01*
X101500000Y-80090000D01*
X102500000Y-80090000D01*
X102500000Y-82600000D01*
X102500000Y-82600000D01*
G37*
G36*
X122230000Y-82600000D02*
G01*
X121230000Y-82600000D01*
X121230000Y-80090000D01*
X122230000Y-80090000D01*
X122230000Y-82600000D01*
X122230000Y-82600000D01*
G37*
G36*
X139310000Y-82600000D02*
G01*
X138310000Y-82600000D01*
X138310000Y-80090000D01*
X139310000Y-80090000D01*
X139310000Y-82600000D01*
X139310000Y-82600000D01*
G37*
G36*
X134230000Y-82600000D02*
G01*
X133230000Y-82600000D01*
X133230000Y-80090000D01*
X134230000Y-80090000D01*
X134230000Y-82600000D01*
X134230000Y-82600000D01*
G37*
G36*
X154932000Y-82404000D02*
G01*
X153932000Y-82404000D01*
X153932000Y-79894000D01*
X154932000Y-79894000D01*
X154932000Y-82404000D01*
X154932000Y-82404000D01*
G37*
G36*
X159600000Y-81876000D02*
G01*
X157900000Y-81876000D01*
X157900000Y-80176000D01*
X159600000Y-80176000D01*
X159600000Y-81876000D01*
X159600000Y-81876000D01*
G37*
G36*
X161456627Y-80188299D02*
G01*
X161536742Y-80212602D01*
X161616855Y-80236903D01*
X161616857Y-80236904D01*
X161764518Y-80315831D01*
X161893949Y-80422051D01*
X162000168Y-80551481D01*
X162079097Y-80699145D01*
X162090509Y-80736766D01*
X162127701Y-80859373D01*
X162144112Y-81026000D01*
X162127701Y-81192627D01*
X162079096Y-81352857D01*
X162000169Y-81500518D01*
X161893949Y-81629949D01*
X161764518Y-81736169D01*
X161616857Y-81815096D01*
X161616855Y-81815097D01*
X161536742Y-81839398D01*
X161456627Y-81863701D01*
X161331752Y-81876000D01*
X161248248Y-81876000D01*
X161123373Y-81863701D01*
X161043258Y-81839398D01*
X160963145Y-81815097D01*
X160963143Y-81815096D01*
X160815482Y-81736169D01*
X160686051Y-81629949D01*
X160579831Y-81500518D01*
X160500904Y-81352857D01*
X160452299Y-81192627D01*
X160435888Y-81026000D01*
X160452299Y-80859373D01*
X160489491Y-80736766D01*
X160500903Y-80699145D01*
X160579832Y-80551481D01*
X160686051Y-80422051D01*
X160815482Y-80315831D01*
X160963143Y-80236904D01*
X160963145Y-80236903D01*
X161043258Y-80212602D01*
X161123373Y-80188299D01*
X161248248Y-80176000D01*
X161331752Y-80176000D01*
X161456627Y-80188299D01*
X161456627Y-80188299D01*
G37*
G36*
X163996627Y-80188299D02*
G01*
X164076742Y-80212602D01*
X164156855Y-80236903D01*
X164156857Y-80236904D01*
X164304518Y-80315831D01*
X164433949Y-80422051D01*
X164540168Y-80551481D01*
X164619097Y-80699145D01*
X164630509Y-80736766D01*
X164667701Y-80859373D01*
X164684112Y-81026000D01*
X164667701Y-81192627D01*
X164619096Y-81352857D01*
X164540169Y-81500518D01*
X164433949Y-81629949D01*
X164304518Y-81736169D01*
X164156857Y-81815096D01*
X164156855Y-81815097D01*
X164076742Y-81839398D01*
X163996627Y-81863701D01*
X163871752Y-81876000D01*
X163788248Y-81876000D01*
X163663373Y-81863701D01*
X163583258Y-81839398D01*
X163503145Y-81815097D01*
X163503143Y-81815096D01*
X163355482Y-81736169D01*
X163226051Y-81629949D01*
X163119831Y-81500518D01*
X163040904Y-81352857D01*
X162992299Y-81192627D01*
X162975888Y-81026000D01*
X162992299Y-80859373D01*
X163029491Y-80736766D01*
X163040903Y-80699145D01*
X163119832Y-80551481D01*
X163226051Y-80422051D01*
X163355482Y-80315831D01*
X163503143Y-80236904D01*
X163503145Y-80236903D01*
X163583258Y-80212602D01*
X163663373Y-80188299D01*
X163788248Y-80176000D01*
X163871752Y-80176000D01*
X163996627Y-80188299D01*
X163996627Y-80188299D01*
G37*
G36*
X166536627Y-80188299D02*
G01*
X166616742Y-80212602D01*
X166696855Y-80236903D01*
X166696857Y-80236904D01*
X166844518Y-80315831D01*
X166973949Y-80422051D01*
X167080168Y-80551481D01*
X167159097Y-80699145D01*
X167170509Y-80736766D01*
X167207701Y-80859373D01*
X167224112Y-81026000D01*
X167207701Y-81192627D01*
X167159096Y-81352857D01*
X167080169Y-81500518D01*
X166973949Y-81629949D01*
X166844518Y-81736169D01*
X166696857Y-81815096D01*
X166696855Y-81815097D01*
X166616742Y-81839398D01*
X166536627Y-81863701D01*
X166411752Y-81876000D01*
X166328248Y-81876000D01*
X166203373Y-81863701D01*
X166123258Y-81839398D01*
X166043145Y-81815097D01*
X166043143Y-81815096D01*
X165895482Y-81736169D01*
X165766051Y-81629949D01*
X165659831Y-81500518D01*
X165580904Y-81352857D01*
X165532299Y-81192627D01*
X165515888Y-81026000D01*
X165532299Y-80859373D01*
X165569491Y-80736766D01*
X165580903Y-80699145D01*
X165659832Y-80551481D01*
X165766051Y-80422051D01*
X165895482Y-80315831D01*
X166043143Y-80236904D01*
X166043145Y-80236903D01*
X166123258Y-80212602D01*
X166203373Y-80188299D01*
X166328248Y-80176000D01*
X166411752Y-80176000D01*
X166536627Y-80188299D01*
X166536627Y-80188299D01*
G37*
G36*
X145132015Y-80737234D02*
G01*
X145226270Y-80765826D01*
X145313128Y-80812253D01*
X145389264Y-80874736D01*
X145451747Y-80950872D01*
X145498174Y-81037730D01*
X145526766Y-81131985D01*
X145536419Y-81230000D01*
X145526766Y-81328015D01*
X145498174Y-81422270D01*
X145451747Y-81509128D01*
X145389264Y-81585264D01*
X145313128Y-81647747D01*
X145226270Y-81694174D01*
X145132015Y-81722766D01*
X145058564Y-81730000D01*
X145009436Y-81730000D01*
X144935985Y-81722766D01*
X144841730Y-81694174D01*
X144754872Y-81647747D01*
X144678736Y-81585264D01*
X144616253Y-81509128D01*
X144569826Y-81422270D01*
X144541234Y-81328015D01*
X144531581Y-81230000D01*
X144541234Y-81131985D01*
X144569826Y-81037730D01*
X144616253Y-80950872D01*
X144678736Y-80874736D01*
X144754872Y-80812253D01*
X144841730Y-80765826D01*
X144935985Y-80737234D01*
X145009436Y-80730000D01*
X145058564Y-80730000D01*
X145132015Y-80737234D01*
X145132015Y-80737234D01*
G37*
G36*
X142592015Y-80737234D02*
G01*
X142686270Y-80765826D01*
X142773128Y-80812253D01*
X142849264Y-80874736D01*
X142911747Y-80950872D01*
X142958174Y-81037730D01*
X142986766Y-81131985D01*
X142996419Y-81230000D01*
X142986766Y-81328015D01*
X142958174Y-81422270D01*
X142911747Y-81509128D01*
X142849264Y-81585264D01*
X142773128Y-81647747D01*
X142686270Y-81694174D01*
X142592015Y-81722766D01*
X142518564Y-81730000D01*
X142469436Y-81730000D01*
X142395985Y-81722766D01*
X142301730Y-81694174D01*
X142214872Y-81647747D01*
X142138736Y-81585264D01*
X142076253Y-81509128D01*
X142029826Y-81422270D01*
X142001234Y-81328015D01*
X141991581Y-81230000D01*
X142001234Y-81131985D01*
X142029826Y-81037730D01*
X142076253Y-80950872D01*
X142138736Y-80874736D01*
X142214872Y-80812253D01*
X142301730Y-80765826D01*
X142395985Y-80737234D01*
X142469436Y-80730000D01*
X142518564Y-80730000D01*
X142592015Y-80737234D01*
X142592015Y-80737234D01*
G37*
G36*
X143862015Y-80737234D02*
G01*
X143956270Y-80765826D01*
X144043128Y-80812253D01*
X144119264Y-80874736D01*
X144181747Y-80950872D01*
X144228174Y-81037730D01*
X144256766Y-81131985D01*
X144266419Y-81230000D01*
X144256766Y-81328015D01*
X144228174Y-81422270D01*
X144181747Y-81509128D01*
X144119264Y-81585264D01*
X144043128Y-81647747D01*
X143956270Y-81694174D01*
X143862015Y-81722766D01*
X143788564Y-81730000D01*
X143739436Y-81730000D01*
X143665985Y-81722766D01*
X143571730Y-81694174D01*
X143484872Y-81647747D01*
X143408736Y-81585264D01*
X143346253Y-81509128D01*
X143299826Y-81422270D01*
X143271234Y-81328015D01*
X143261581Y-81230000D01*
X143271234Y-81131985D01*
X143299826Y-81037730D01*
X143346253Y-80950872D01*
X143408736Y-80874736D01*
X143484872Y-80812253D01*
X143571730Y-80765826D01*
X143665985Y-80737234D01*
X143739436Y-80730000D01*
X143788564Y-80730000D01*
X143862015Y-80737234D01*
X143862015Y-80737234D01*
G37*
G36*
X147672015Y-80737234D02*
G01*
X147766270Y-80765826D01*
X147853128Y-80812253D01*
X147929264Y-80874736D01*
X147991747Y-80950872D01*
X148038174Y-81037730D01*
X148066766Y-81131985D01*
X148076419Y-81230000D01*
X148066766Y-81328015D01*
X148038174Y-81422270D01*
X147991747Y-81509128D01*
X147929264Y-81585264D01*
X147853128Y-81647747D01*
X147766270Y-81694174D01*
X147672015Y-81722766D01*
X147598564Y-81730000D01*
X147549436Y-81730000D01*
X147475985Y-81722766D01*
X147381730Y-81694174D01*
X147294872Y-81647747D01*
X147218736Y-81585264D01*
X147156253Y-81509128D01*
X147109826Y-81422270D01*
X147081234Y-81328015D01*
X147071581Y-81230000D01*
X147081234Y-81131985D01*
X147109826Y-81037730D01*
X147156253Y-80950872D01*
X147218736Y-80874736D01*
X147294872Y-80812253D01*
X147381730Y-80765826D01*
X147475985Y-80737234D01*
X147549436Y-80730000D01*
X147598564Y-80730000D01*
X147672015Y-80737234D01*
X147672015Y-80737234D01*
G37*
G36*
X146402015Y-80737234D02*
G01*
X146496270Y-80765826D01*
X146583128Y-80812253D01*
X146659264Y-80874736D01*
X146721747Y-80950872D01*
X146768174Y-81037730D01*
X146796766Y-81131985D01*
X146806419Y-81230000D01*
X146796766Y-81328015D01*
X146768174Y-81422270D01*
X146721747Y-81509128D01*
X146659264Y-81585264D01*
X146583128Y-81647747D01*
X146496270Y-81694174D01*
X146402015Y-81722766D01*
X146328564Y-81730000D01*
X146279436Y-81730000D01*
X146205985Y-81722766D01*
X146111730Y-81694174D01*
X146024872Y-81647747D01*
X145948736Y-81585264D01*
X145886253Y-81509128D01*
X145839826Y-81422270D01*
X145811234Y-81328015D01*
X145801581Y-81230000D01*
X145811234Y-81131985D01*
X145839826Y-81037730D01*
X145886253Y-80950872D01*
X145948736Y-80874736D01*
X146024872Y-80812253D01*
X146111730Y-80765826D01*
X146205985Y-80737234D01*
X146279436Y-80730000D01*
X146328564Y-80730000D01*
X146402015Y-80737234D01*
X146402015Y-80737234D01*
G37*
G36*
X110200766Y-79796821D02*
G01*
X110337257Y-79853358D01*
X110460097Y-79935437D01*
X110564563Y-80039903D01*
X110646642Y-80162743D01*
X110703179Y-80299234D01*
X110732000Y-80444130D01*
X110732000Y-80591870D01*
X110703179Y-80736766D01*
X110646642Y-80873257D01*
X110564563Y-80996097D01*
X110460097Y-81100563D01*
X110337257Y-81182642D01*
X110200766Y-81239179D01*
X110055870Y-81268000D01*
X109908130Y-81268000D01*
X109763234Y-81239179D01*
X109626743Y-81182642D01*
X109503903Y-81100563D01*
X109399437Y-80996097D01*
X109317358Y-80873257D01*
X109260821Y-80736766D01*
X109232000Y-80591870D01*
X109232000Y-80444130D01*
X109260821Y-80299234D01*
X109317358Y-80162743D01*
X109399437Y-80039903D01*
X109503903Y-79935437D01*
X109626743Y-79853358D01*
X109763234Y-79796821D01*
X109908130Y-79768000D01*
X110055870Y-79768000D01*
X110200766Y-79796821D01*
X110200766Y-79796821D01*
G37*
G36*
X116296766Y-79796821D02*
G01*
X116433257Y-79853358D01*
X116556097Y-79935437D01*
X116660563Y-80039903D01*
X116742642Y-80162743D01*
X116799179Y-80299234D01*
X116828000Y-80444130D01*
X116828000Y-80591870D01*
X116799179Y-80736766D01*
X116742642Y-80873257D01*
X116660563Y-80996097D01*
X116556097Y-81100563D01*
X116433257Y-81182642D01*
X116296766Y-81239179D01*
X116151870Y-81268000D01*
X116004130Y-81268000D01*
X115859234Y-81239179D01*
X115722743Y-81182642D01*
X115599903Y-81100563D01*
X115495437Y-80996097D01*
X115413358Y-80873257D01*
X115356821Y-80736766D01*
X115328000Y-80591870D01*
X115328000Y-80444130D01*
X115356821Y-80299234D01*
X115413358Y-80162743D01*
X115495437Y-80039903D01*
X115599903Y-79935437D01*
X115722743Y-79853358D01*
X115859234Y-79796821D01*
X116004130Y-79768000D01*
X116151870Y-79768000D01*
X116296766Y-79796821D01*
X116296766Y-79796821D01*
G37*
M02*
