%FSLAX45Y45*%
G04 Gerber Fmt 4.5, Leading zero omitted, Abs format (unit mm)*
G04 Created by KiCad (PCBNEW 5.1.0-5.1.0) date 2019-03-18 21:11:27*
%MOMM*%
%LPD*%
G04 APERTURE LIST*
%ADD10C,0.100000*%
%ADD11C,0.200000*%
%ADD12C,0.300000*%
G04 APERTURE END LIST*
D10*
X18400000Y-12500000D02*
X18800000Y-12500000D01*
X18200000Y-7900000D02*
X6800000Y-7900000D01*
X18200000Y-8800000D02*
X18200000Y-7900000D01*
X18800000Y-8800000D02*
X18800000Y-12500000D01*
X18800000Y-8800000D02*
X18200000Y-8800000D01*
X6800000Y-7900000D02*
X6800000Y-8800000D01*
X6100000Y-8800000D02*
X6100000Y-12500000D01*
X6100000Y-8800000D02*
X6800000Y-8800000D01*
X6100000Y-12500000D02*
X18400000Y-12500000D01*
D11*
X17408000Y-10144400D02*
X17428000Y-10164400D01*
X17428000Y-10144400D02*
X17408000Y-10164400D01*
X17408000Y-10244400D02*
X17428000Y-10264400D01*
X17428000Y-10244400D02*
X17408000Y-10264400D01*
X17408000Y-10344400D02*
X17428000Y-10364400D01*
X17428000Y-10344400D02*
X17408000Y-10364400D01*
X17508000Y-10144400D02*
X17528000Y-10164400D01*
X17528000Y-10144400D02*
X17508000Y-10164400D01*
X17508000Y-10244400D02*
X17528000Y-10264400D01*
X17528000Y-10244400D02*
X17508000Y-10264400D01*
X17508000Y-10344400D02*
X17528000Y-10364400D01*
X17528000Y-10344400D02*
X17508000Y-10364400D01*
X17608000Y-10144400D02*
X17628000Y-10164400D01*
X17628000Y-10144400D02*
X17608000Y-10164400D01*
X17608000Y-10244400D02*
X17628000Y-10264400D01*
X17628000Y-10244400D02*
X17608000Y-10264400D01*
X17608000Y-10344400D02*
X17628000Y-10364400D01*
X17628000Y-10344400D02*
X17608000Y-10364400D01*
X6547800Y-10758302D02*
G75*
G03X6547800Y-10758302I-20000J0D01*
G01*
X6725598Y-10758300D02*
G75*
G03X6725598Y-10758300I-20000J0D01*
G01*
X7055800Y-10185400D02*
G75*
G03X7055800Y-10185400I-20000J0D01*
G01*
X7119604Y-11150600D02*
G75*
G03X7119604Y-11150600I-20000J0D01*
G01*
X7182800Y-10668000D02*
G75*
G03X7182800Y-10668000I-20000J0D01*
G01*
X7208200Y-10515600D02*
G75*
G03X7208200Y-10515600I-20000J0D01*
G01*
X7259000Y-11099800D02*
G75*
G03X7259000Y-11099800I-20000J0D01*
G01*
X7284400Y-10464800D02*
G75*
G03X7284400Y-10464800I-20000J0D01*
G01*
X7360600Y-11125200D02*
G75*
G03X7360600Y-11125200I-20000J0D01*
G01*
X7370296Y-10271121D02*
G75*
G03X7370296Y-10271121I-20000J0D01*
G01*
X7386000Y-10820400D02*
G75*
G03X7386000Y-10820400I-20000J0D01*
G01*
X7458225Y-10431775D02*
G75*
G03X7458225Y-10431775I-20000J0D01*
G01*
X7462200Y-11099800D02*
G75*
G03X7462200Y-11099800I-20000J0D01*
G01*
X7741600Y-11099161D02*
G75*
G03X7741600Y-11099161I-20000J0D01*
G01*
X7763350Y-10439402D02*
G75*
G03X7763350Y-10439402I-20000J0D01*
G01*
X7894000Y-11607800D02*
G75*
G03X7894000Y-11607800I-20000J0D01*
G01*
X8275000Y-9448203D02*
G75*
G03X8275000Y-9448203I-20000J0D01*
G01*
X8668400Y-10363200D02*
G75*
G03X8668400Y-10363200I-20000J0D01*
G01*
X8732200Y-9615300D02*
G75*
G03X8732200Y-9615300I-20000J0D01*
G01*
X8948398Y-10363200D02*
G75*
G03X8948398Y-10363200I-20000J0D01*
G01*
X9966000Y-8465502D02*
G75*
G03X9966000Y-8465502I-20000J0D01*
G01*
X10085615Y-9878507D02*
G75*
G03X10085615Y-9878507I-20000J0D01*
G01*
X10188116Y-9395907D02*
G75*
G03X10188116Y-9395907I-20000J0D01*
G01*
X10250218Y-9700707D02*
G75*
G03X10250218Y-9700707I-20000J0D01*
G01*
X10332400Y-10383520D02*
G75*
G03X10332400Y-10383520I-20000J0D01*
G01*
X10332400Y-11054081D02*
G75*
G03X10332400Y-11054081I-20000J0D01*
G01*
X10474000Y-8465496D02*
G75*
G03X10474000Y-8465496I-20000J0D01*
G01*
X10524300Y-9067800D02*
G75*
G03X10524300Y-9067800I-20000J0D01*
G01*
X10569116Y-9472107D02*
G75*
G03X10569116Y-9472107I-20000J0D01*
G01*
X10594516Y-9218107D02*
G75*
G03X10594516Y-9218107I-20000J0D01*
G01*
X10594516Y-9726107D02*
G75*
G03X10594516Y-9726107I-20000J0D01*
G01*
X10656615Y-9878506D02*
G75*
G03X10656615Y-9878506I-20000J0D01*
G01*
X10699300Y-9067802D02*
G75*
G03X10699300Y-9067802I-20000J0D01*
G01*
X10873916Y-9813607D02*
G75*
G03X10873916Y-9813607I-20000J0D01*
G01*
X10980100Y-8585200D02*
G75*
G03X10980100Y-8585200I-20000J0D01*
G01*
X11278750Y-10693400D02*
G75*
G03X11278750Y-10693400I-20000J0D01*
G01*
X11348400Y-9029700D02*
G75*
G03X11348400Y-9029700I-20000J0D01*
G01*
X11349800Y-9550400D02*
G75*
G03X11349800Y-9550400I-20000J0D01*
G01*
X11437000Y-10312400D02*
G75*
G03X11437000Y-10312400I-20000J0D01*
G01*
X11488950Y-9283700D02*
G75*
G03X11488950Y-9283700I-20000J0D01*
G01*
X11526200Y-9029700D02*
G75*
G03X11526200Y-9029700I-20000J0D01*
G01*
X11526200Y-9550400D02*
G75*
G03X11526200Y-9550400I-20000J0D01*
G01*
X11538900Y-8585200D02*
G75*
G03X11538900Y-8585200I-20000J0D01*
G01*
X11632450Y-10012250D02*
G75*
G03X11632450Y-10012250I-20000J0D01*
G01*
X11691300Y-8864600D02*
G75*
G03X11691300Y-8864600I-20000J0D01*
G01*
X11691300Y-9029700D02*
G75*
G03X11691300Y-9029700I-20000J0D01*
G01*
X11780200Y-9189850D02*
G75*
G03X11780200Y-9189850I-20000J0D01*
G01*
X11932600Y-9359900D02*
G75*
G03X11932600Y-9359900I-20000J0D01*
G01*
X11939000Y-8465502D02*
G75*
G03X11939000Y-8465502I-20000J0D01*
G01*
X12135800Y-10693400D02*
G75*
G03X12135800Y-10693400I-20000J0D01*
G01*
X12193000Y-8134500D02*
G75*
G03X12193000Y-8134500I-20000J0D01*
G01*
X12262800Y-9029700D02*
G75*
G03X12262800Y-9029700I-20000J0D01*
G01*
X12300600Y-10312400D02*
G75*
G03X12300600Y-10312400I-20000J0D01*
G01*
X12327700Y-9474200D02*
G75*
G03X12327700Y-9474200I-20000J0D01*
G01*
X12353100Y-9982200D02*
G75*
G03X12353100Y-9982200I-20000J0D01*
G01*
X12364400Y-10134600D02*
G75*
G03X12364400Y-10134600I-20000J0D01*
G01*
X12491400Y-9728200D02*
G75*
G03X12491400Y-9728200I-20000J0D01*
G01*
X12528100Y-9982200D02*
G75*
G03X12528100Y-9982200I-20000J0D01*
G01*
X12657900Y-9474200D02*
G75*
G03X12657900Y-9474200I-20000J0D01*
G01*
X12720000Y-9728200D02*
G75*
G03X12720000Y-9728200I-20000J0D01*
G01*
X12796200Y-9815700D02*
G75*
G03X12796200Y-9815700I-20000J0D01*
G01*
X12821600Y-9029700D02*
G75*
G03X12821600Y-9029700I-20000J0D01*
G01*
X12923200Y-8509000D02*
G75*
G03X12923200Y-8509000I-20000J0D01*
G01*
X12999400Y-9310500D02*
G75*
G03X12999400Y-9310500I-20000J0D01*
G01*
X12999400Y-9485500D02*
G75*
G03X12999400Y-9485500I-20000J0D01*
G01*
X13016308Y-10707790D02*
G75*
G03X13016308Y-10707790I-20000J0D01*
G01*
X13050200Y-8128000D02*
G75*
G03X13050200Y-8128000I-20000J0D01*
G01*
X13199960Y-10301390D02*
G75*
G03X13199960Y-10301390I-20000J0D01*
G01*
X13202600Y-8788400D02*
G75*
G03X13202600Y-8788400I-20000J0D01*
G01*
X13252800Y-9118597D02*
G75*
G03X13252800Y-9118597I-20000J0D01*
G01*
X13369098Y-9575800D02*
G75*
G03X13369098Y-9575800I-20000J0D01*
G01*
X13482000Y-8915400D02*
G75*
G03X13482000Y-8915400I-20000J0D01*
G01*
X13532800Y-9271000D02*
G75*
G03X13532800Y-9271000I-20000J0D01*
G01*
X13647000Y-8465500D02*
G75*
G03X13647000Y-8465500I-20000J0D01*
G01*
X13812802Y-9118600D02*
G75*
G03X13812802Y-9118600I-20000J0D01*
G01*
X13863000Y-9855200D02*
G75*
G03X13863000Y-9855200I-20000J0D01*
G01*
X13899700Y-10134596D02*
G75*
G03X13899700Y-10134596I-20000J0D01*
G01*
X13901000Y-8134503D02*
G75*
G03X13901000Y-8134503I-20000J0D01*
G01*
X14040800Y-10033000D02*
G75*
G03X14040800Y-10033000I-20000J0D01*
G01*
X14195896Y-8508123D02*
G75*
G03X14195896Y-8508123I-20000J0D01*
G01*
X14195896Y-9038724D02*
G75*
G03X14195896Y-9038724I-20000J0D01*
G01*
X14339110Y-9164439D02*
G75*
G03X14339110Y-9164439I-20000J0D01*
G01*
X14365411Y-9250679D02*
G75*
G03X14365411Y-9250679I-20000J0D01*
G01*
X14382297Y-9601200D02*
G75*
G03X14382297Y-9601200I-20000J0D01*
G01*
X14421800Y-10033000D02*
G75*
G03X14421800Y-10033000I-20000J0D01*
G01*
X14498000Y-9753600D02*
G75*
G03X14498000Y-9753600I-20000J0D01*
G01*
X14498000Y-10312399D02*
G75*
G03X14498000Y-10312399I-20000J0D01*
G01*
X14599600Y-9118600D02*
G75*
G03X14599600Y-9118600I-20000J0D01*
G01*
X14752000Y-8788400D02*
G75*
G03X14752000Y-8788400I-20000J0D01*
G01*
X14796350Y-11909206D02*
G75*
G03X14796350Y-11909206I-20000J0D01*
G01*
X14853600Y-10769600D02*
G75*
G03X14853600Y-10769600I-20000J0D01*
G01*
X14929800Y-11557000D02*
G75*
G03X14929800Y-11557000I-20000J0D01*
G01*
X14955200Y-8128000D02*
G75*
G03X14955200Y-8128000I-20000J0D01*
G01*
X15006000Y-8763000D02*
G75*
G03X15006000Y-8763000I-20000J0D01*
G01*
X15082200Y-11226800D02*
G75*
G03X15082200Y-11226800I-20000J0D01*
G01*
X15142006Y-10337800D02*
G75*
G03X15142006Y-10337800I-20000J0D01*
G01*
X15193731Y-11385966D02*
G75*
G03X15193731Y-11385966I-20000J0D01*
G01*
X15193731Y-11482486D02*
G75*
G03X15193731Y-11482486I-20000J0D01*
G01*
X15193731Y-11573926D02*
G75*
G03X15193731Y-11573926I-20000J0D01*
G01*
X15224857Y-10764749D02*
G75*
G03X15224857Y-10764749I-20000J0D01*
G01*
X15280091Y-11385966D02*
G75*
G03X15280091Y-11385966I-20000J0D01*
G01*
X15285171Y-11482486D02*
G75*
G03X15285171Y-11482486I-20000J0D01*
G01*
X15285171Y-11573926D02*
G75*
G03X15285171Y-11573926I-20000J0D01*
G01*
X15403151Y-11223408D02*
G75*
G03X15403151Y-11223408I-20000J0D01*
G01*
X15412400Y-8763000D02*
G75*
G03X15412400Y-8763000I-20000J0D01*
G01*
X15463200Y-8114897D02*
G75*
G03X15463200Y-8114897I-20000J0D01*
G01*
X15463200Y-8940800D02*
G75*
G03X15463200Y-8940800I-20000J0D01*
G01*
X15544253Y-11618506D02*
G75*
G03X15544253Y-11618506I-20000J0D01*
G01*
X15590200Y-9448800D02*
G75*
G03X15590200Y-9448800I-20000J0D01*
G01*
X15615600Y-8915400D02*
G75*
G03X15615600Y-8915400I-20000J0D01*
G01*
X15666750Y-8989647D02*
G75*
G03X15666750Y-8989647I-20000J0D01*
G01*
X15683653Y-9763121D02*
G75*
G03X15683653Y-9763121I-20000J0D01*
G01*
X15844200Y-9702800D02*
G75*
G03X15844200Y-9702800I-20000J0D01*
G01*
X15869600Y-8864600D02*
G75*
G03X15869600Y-8864600I-20000J0D01*
G01*
X15869600Y-9931400D02*
G75*
G03X15869600Y-9931400I-20000J0D01*
G01*
X15920400Y-9448800D02*
G75*
G03X15920400Y-9448800I-20000J0D01*
G01*
X15945800Y-8940800D02*
G75*
G03X15945800Y-8940800I-20000J0D01*
G01*
X15971200Y-9753600D02*
G75*
G03X15971200Y-9753600I-20000J0D01*
G01*
X15971200Y-10033000D02*
G75*
G03X15971200Y-10033000I-20000J0D01*
G01*
X16250599Y-12243400D02*
G75*
G03X16250599Y-12243400I-20000J0D01*
G01*
X16250600Y-11683397D02*
G75*
G03X16250600Y-11683397I-20000J0D01*
G01*
X16352200Y-9601200D02*
G75*
G03X16352200Y-9601200I-20000J0D01*
G01*
X16444302Y-10171300D02*
G75*
G03X16444302Y-10171300I-20000J0D01*
G01*
X16493300Y-9220200D02*
G75*
G03X16493300Y-9220200I-20000J0D01*
G01*
X16530000Y-9880600D02*
G75*
G03X16530000Y-9880600I-20000J0D01*
G01*
X16606200Y-10171300D02*
G75*
G03X16606200Y-10171300I-20000J0D01*
G01*
X16631600Y-9601200D02*
G75*
G03X16631600Y-9601200I-20000J0D01*
G01*
X16657000Y-10363200D02*
G75*
G03X16657000Y-10363200I-20000J0D01*
G01*
X16747301Y-10668002D02*
G75*
G03X16747301Y-10668002I-20000J0D01*
G01*
X16809400Y-9321800D02*
G75*
G03X16809400Y-9321800I-20000J0D01*
G01*
X16809400Y-9763121D02*
G75*
G03X16809400Y-9763121I-20000J0D01*
G01*
X16834800Y-10972799D02*
G75*
G03X16834800Y-10972799I-20000J0D01*
G01*
X16876716Y-10185400D02*
G75*
G03X16876716Y-10185400I-20000J0D01*
G01*
X16885600Y-9169400D02*
G75*
G03X16885600Y-9169400I-20000J0D01*
G01*
X16885600Y-9550400D02*
G75*
G03X16885600Y-9550400I-20000J0D01*
G01*
X16922297Y-10668000D02*
G75*
G03X16922297Y-10668000I-20000J0D01*
G01*
X17038000Y-11734800D02*
G75*
G03X17038000Y-11734800I-20000J0D01*
G01*
X17165000Y-10820400D02*
G75*
G03X17165000Y-10820400I-20000J0D01*
G01*
X17167108Y-10403202D02*
G75*
G03X17167108Y-10403202I-20000J0D01*
G01*
X17189764Y-10182486D02*
G75*
G03X17189764Y-10182486I-20000J0D01*
G01*
X17208956Y-11333465D02*
G75*
G03X17208956Y-11333465I-20000J0D01*
G01*
X17215800Y-11023600D02*
G75*
G03X17215800Y-11023600I-20000J0D01*
G01*
X17241200Y-10591800D02*
G75*
G03X17241200Y-10591800I-20000J0D01*
G01*
X17266600Y-8864600D02*
G75*
G03X17266600Y-8864600I-20000J0D01*
G01*
X17266600Y-8966200D02*
G75*
G03X17266600Y-8966200I-20000J0D01*
G01*
X17266600Y-9067800D02*
G75*
G03X17266600Y-9067800I-20000J0D01*
G01*
X17266600Y-9169400D02*
G75*
G03X17266600Y-9169400I-20000J0D01*
G01*
X17266600Y-9271000D02*
G75*
G03X17266600Y-9271000I-20000J0D01*
G01*
X17266600Y-10795001D02*
G75*
G03X17266600Y-10795001I-20000J0D01*
G01*
X17281202Y-10006026D02*
G75*
G03X17281202Y-10006026I-20000J0D01*
G01*
X17317400Y-9779000D02*
G75*
G03X17317400Y-9779000I-20000J0D01*
G01*
X17342800Y-9448800D02*
G75*
G03X17342800Y-9448800I-20000J0D01*
G01*
X17356900Y-9626600D02*
G75*
G03X17356900Y-9626600I-20000J0D01*
G01*
X17368200Y-9118600D02*
G75*
G03X17368200Y-9118600I-20000J0D01*
G01*
X17407697Y-8966200D02*
G75*
G03X17407697Y-8966200I-20000J0D01*
G01*
X17407700Y-9271000D02*
G75*
G03X17407700Y-9271000I-20000J0D01*
G01*
X17420000Y-10140000D02*
G75*
G03X17420000Y-10140000I-20000J0D01*
G01*
X17420000Y-10250000D02*
G75*
G03X17420000Y-10250000I-20000J0D01*
G01*
X17420000Y-10360000D02*
G75*
G03X17420000Y-10360000I-20000J0D01*
G01*
X17444400Y-9753600D02*
G75*
G03X17444400Y-9753600I-20000J0D01*
G01*
X17469800Y-9118600D02*
G75*
G03X17469800Y-9118600I-20000J0D01*
G01*
X17478909Y-10690723D02*
G75*
G03X17478909Y-10690723I-20000J0D01*
G01*
X17530000Y-10140000D02*
G75*
G03X17530000Y-10140000I-20000J0D01*
G01*
X17530000Y-10250000D02*
G75*
G03X17530000Y-10250000I-20000J0D01*
G01*
X17530000Y-10360000D02*
G75*
G03X17530000Y-10360000I-20000J0D01*
G01*
X17546000Y-9906000D02*
G75*
G03X17546000Y-9906000I-20000J0D01*
G01*
X17571400Y-9118600D02*
G75*
G03X17571400Y-9118600I-20000J0D01*
G01*
X17571401Y-10667999D02*
G75*
G03X17571401Y-10667999I-20000J0D01*
G01*
X17589957Y-11826467D02*
G75*
G03X17589957Y-11826467I-20000J0D01*
G01*
X17640000Y-10140000D02*
G75*
G03X17640000Y-10140000I-20000J0D01*
G01*
X17640000Y-10250000D02*
G75*
G03X17640000Y-10250000I-20000J0D01*
G01*
X17640000Y-10360000D02*
G75*
G03X17640000Y-10360000I-20000J0D01*
G01*
X17673000Y-9448800D02*
G75*
G03X17673000Y-9448800I-20000J0D01*
G01*
X17673000Y-9550400D02*
G75*
G03X17673000Y-9550400I-20000J0D01*
G01*
X17673209Y-10755562D02*
G75*
G03X17673209Y-10755562I-20000J0D01*
G01*
X17785500Y-10443560D02*
G75*
G03X17785500Y-10443560I-20000J0D01*
G01*
X17825400Y-9702800D02*
G75*
G03X17825400Y-9702800I-20000J0D01*
G01*
X17825400Y-10541000D02*
G75*
G03X17825400Y-10541000I-20000J0D01*
G01*
X17850800Y-9956800D02*
G75*
G03X17850800Y-9956800I-20000J0D01*
G01*
X17850800Y-10718800D02*
G75*
G03X17850800Y-10718800I-20000J0D01*
G01*
X17876200Y-8966200D02*
G75*
G03X17876200Y-8966200I-20000J0D01*
G01*
X17876200Y-9067800D02*
G75*
G03X17876200Y-9067800I-20000J0D01*
G01*
X17876200Y-9169400D02*
G75*
G03X17876200Y-9169400I-20000J0D01*
G01*
X17876200Y-9271000D02*
G75*
G03X17876200Y-9271000I-20000J0D01*
G01*
X17876200Y-9372600D02*
G75*
G03X17876200Y-9372600I-20000J0D01*
G01*
X17876200Y-9474200D02*
G75*
G03X17876200Y-9474200I-20000J0D01*
G01*
X17876200Y-9575800D02*
G75*
G03X17876200Y-9575800I-20000J0D01*
G01*
X17901600Y-10185396D02*
G75*
G03X17901600Y-10185396I-20000J0D01*
G01*
X17977800Y-10820400D02*
G75*
G03X17977800Y-10820400I-20000J0D01*
G01*
X17982353Y-10460247D02*
G75*
G03X17982353Y-10460247I-20000J0D01*
G01*
X18003200Y-10236200D02*
G75*
G03X18003200Y-10236200I-20000J0D01*
G01*
X18003200Y-10334526D02*
G75*
G03X18003200Y-10334526I-20000J0D01*
G01*
X18181000Y-10490200D02*
G75*
G03X18181000Y-10490200I-20000J0D01*
G01*
X18294900Y-9194800D02*
G75*
G03X18294900Y-9194800I-20000J0D01*
G01*
X18319297Y-10134600D02*
G75*
G03X18319297Y-10134600I-20000J0D01*
G01*
X18319300Y-10363200D02*
G75*
G03X18319300Y-10363200I-20000J0D01*
G01*
X18398302Y-10617200D02*
G75*
G03X18398302Y-10617200I-20000J0D01*
G01*
X18573300Y-11125201D02*
G75*
G03X18573300Y-11125201I-20000J0D01*
G01*
X18651300Y-9448800D02*
G75*
G03X18651300Y-9448800I-20000J0D01*
G01*
X17112000Y-8699000D02*
X17112000Y-8745000D01*
X17089000Y-8722000D02*
X17135000Y-8722000D01*
X17988000Y-8699000D02*
X17988000Y-8745000D01*
X17965000Y-8722000D02*
X18011000Y-8722000D01*
X8323478Y-12057278D02*
X8323478Y-12021922D01*
X8288122Y-12021922D01*
X8288122Y-12057278D01*
X8323478Y-12057278D01*
X8323478Y-12157278D02*
X8323478Y-12121922D01*
X8288122Y-12121922D01*
X8288122Y-12157278D01*
X8323478Y-12157278D01*
X14249400Y-8155500D02*
X14281900Y-8123000D01*
X14249400Y-8090500D01*
X14216900Y-8123000D01*
X14249400Y-8155500D01*
X14249400Y-8282500D02*
X14281900Y-8250000D01*
X14249400Y-8217500D01*
X14216900Y-8250000D01*
X14249400Y-8282500D01*
X14376400Y-8155500D02*
X14408900Y-8123000D01*
X14376400Y-8090500D01*
X14343900Y-8123000D01*
X14376400Y-8155500D01*
X14376400Y-8282500D02*
X14408900Y-8250000D01*
X14376400Y-8217500D01*
X14343900Y-8250000D01*
X14376400Y-8282500D01*
X14503400Y-8155500D02*
X14535900Y-8123000D01*
X14503400Y-8090500D01*
X14470900Y-8123000D01*
X14503400Y-8155500D01*
X14503400Y-8282500D02*
X14535900Y-8250000D01*
X14503400Y-8217500D01*
X14470900Y-8250000D01*
X14503400Y-8282500D01*
X14630400Y-8155500D02*
X14662900Y-8123000D01*
X14630400Y-8090500D01*
X14597900Y-8123000D01*
X14630400Y-8155500D01*
X14630400Y-8282500D02*
X14662900Y-8250000D01*
X14630400Y-8217500D01*
X14597900Y-8250000D01*
X14630400Y-8282500D01*
X14757400Y-8155500D02*
X14789900Y-8123000D01*
X14757400Y-8090500D01*
X14724900Y-8123000D01*
X14757400Y-8155500D01*
X14757400Y-8282500D02*
X14789900Y-8250000D01*
X14757400Y-8217500D01*
X14724900Y-8250000D01*
X14757400Y-8282500D01*
X8500000Y-8450000D02*
X8600000Y-8550000D01*
X8600000Y-8450000D02*
X8500000Y-8550000D01*
X8600000Y-8500000D02*
G75*
G03X8600000Y-8500000I-50000J0D01*
G01*
X8590000Y-8575000D02*
X8590000Y-8425000D01*
X8510000Y-8575000D02*
X8510000Y-8425000D01*
X8590000Y-8425000D02*
G75*
G03X8510000Y-8425000I-40000J0D01*
G01*
X8510000Y-8575000D02*
G75*
G03X8590000Y-8575000I40000J0D01*
G01*
X8950000Y-8550000D02*
X9050000Y-8650000D01*
X9050000Y-8550000D02*
X8950000Y-8650000D01*
X9050000Y-8600000D02*
G75*
G03X9050000Y-8600000I-50000J0D01*
G01*
X9065000Y-8560000D02*
X8935000Y-8560000D01*
X9065000Y-8640000D02*
X8935000Y-8640000D01*
X8935000Y-8560000D02*
G75*
G03X8935000Y-8640000I0J-40000D01*
G01*
X9065000Y-8640000D02*
G75*
G03X9065000Y-8560000I0J40000D01*
G01*
X8950000Y-9150000D02*
X9050000Y-9250000D01*
X9050000Y-9150000D02*
X8950000Y-9250000D01*
X9050000Y-9200000D02*
G75*
G03X9050000Y-9200000I-50000J0D01*
G01*
X9100000Y-9160000D02*
X8900000Y-9160000D01*
X9100000Y-9240000D02*
X8900000Y-9240000D01*
X8900000Y-9160000D02*
G75*
G03X8900000Y-9240000I0J-40000D01*
G01*
X9100000Y-9240000D02*
G75*
G03X9100000Y-9160000I0J40000D01*
G01*
X9400000Y-8450000D02*
X9500000Y-8550000D01*
X9500000Y-8450000D02*
X9400000Y-8550000D01*
X9500000Y-8500000D02*
G75*
G03X9500000Y-8500000I-50000J0D01*
G01*
X9490000Y-8575000D02*
X9490000Y-8425000D01*
X9410000Y-8575000D02*
X9410000Y-8425000D01*
X9490000Y-8425000D02*
G75*
G03X9410000Y-8425000I-40000J0D01*
G01*
X9410000Y-8575000D02*
G75*
G03X9490000Y-8575000I40000J0D01*
G01*
X15825000Y-8052600D02*
X15925000Y-8152600D01*
X15925000Y-8052600D02*
X15825000Y-8152600D01*
X15925000Y-8102600D02*
G75*
G03X15925000Y-8102600I-50000J0D01*
G01*
X16079000Y-8052600D02*
X16179000Y-8152600D01*
X16179000Y-8052600D02*
X16079000Y-8152600D01*
X16179000Y-8102600D02*
G75*
G03X16179000Y-8102600I-50000J0D01*
G01*
X16333000Y-8052600D02*
X16433000Y-8152600D01*
X16433000Y-8052600D02*
X16333000Y-8152600D01*
X16433000Y-8102600D02*
G75*
G03X16433000Y-8102600I-50000J0D01*
G01*
X16587000Y-8052600D02*
X16687000Y-8152600D01*
X16687000Y-8052600D02*
X16587000Y-8152600D01*
X16687000Y-8102600D02*
G75*
G03X16687000Y-8102600I-50000J0D01*
G01*
X7135000Y-8435000D02*
X7265000Y-8565000D01*
X7265000Y-8435000D02*
X7135000Y-8565000D01*
X7200000Y-8435000D02*
X7200000Y-8565000D01*
X7135000Y-8500000D02*
X7265000Y-8500000D01*
X7635000Y-8435000D02*
X7765000Y-8565000D01*
X7765000Y-8435000D02*
X7635000Y-8565000D01*
X7700000Y-8435000D02*
X7700000Y-8565000D01*
X7635000Y-8500000D02*
X7765000Y-8500000D01*
X9935000Y-11835000D02*
X10065000Y-11965000D01*
X10065000Y-11835000D02*
X9935000Y-11965000D01*
X10000000Y-11835000D02*
X10000000Y-11965000D01*
X9935000Y-11900000D02*
X10065000Y-11900000D01*
X10435000Y-11835000D02*
X10565000Y-11965000D01*
X10565000Y-11835000D02*
X10435000Y-11965000D01*
X10500000Y-11835000D02*
X10500000Y-11965000D01*
X10435000Y-11900000D02*
X10565000Y-11900000D01*
X8920000Y-8220000D02*
X9080000Y-8380000D01*
X9080000Y-8220000D02*
X8920000Y-8380000D01*
X9056569Y-8356569D02*
X9056569Y-8243431D01*
X8943431Y-8243431D01*
X8943431Y-8356569D01*
X9056569Y-8356569D01*
X6275000Y-12075000D02*
X6525000Y-12325000D01*
X6525000Y-12075000D02*
X6275000Y-12325000D01*
X6400000Y-12325000D02*
X6525000Y-12200000D01*
X6400000Y-12075000D01*
X6275000Y-12200000D01*
X6400000Y-12325000D01*
X18375000Y-12075000D02*
X18625000Y-12325000D01*
X18625000Y-12075000D02*
X18375000Y-12325000D01*
X18500000Y-12325000D02*
X18625000Y-12200000D01*
X18500000Y-12075000D01*
X18375000Y-12200000D01*
X18500000Y-12325000D01*
D12*
X6381428Y-12970714D02*
X6381428Y-12670714D01*
X6452857Y-12670714D01*
X6495714Y-12685000D01*
X6524286Y-12713571D01*
X6538571Y-12742143D01*
X6552857Y-12799286D01*
X6552857Y-12842143D01*
X6538571Y-12899286D01*
X6524286Y-12927857D01*
X6495714Y-12956429D01*
X6452857Y-12970714D01*
X6381428Y-12970714D01*
X6681428Y-12970714D02*
X6681428Y-12770714D01*
X6681428Y-12827857D02*
X6695714Y-12799286D01*
X6710000Y-12785000D01*
X6738571Y-12770714D01*
X6767143Y-12770714D01*
X6867143Y-12970714D02*
X6867143Y-12770714D01*
X6867143Y-12670714D02*
X6852857Y-12685000D01*
X6867143Y-12699286D01*
X6881428Y-12685000D01*
X6867143Y-12670714D01*
X6867143Y-12699286D01*
X7052857Y-12970714D02*
X7024286Y-12956429D01*
X7010000Y-12927857D01*
X7010000Y-12670714D01*
X7210000Y-12970714D02*
X7181428Y-12956429D01*
X7167143Y-12927857D01*
X7167143Y-12670714D01*
X7552857Y-12970714D02*
X7552857Y-12670714D01*
X7652857Y-12885000D01*
X7752857Y-12670714D01*
X7752857Y-12970714D01*
X8024286Y-12970714D02*
X8024286Y-12813571D01*
X8010000Y-12785000D01*
X7981428Y-12770714D01*
X7924286Y-12770714D01*
X7895714Y-12785000D01*
X8024286Y-12956429D02*
X7995714Y-12970714D01*
X7924286Y-12970714D01*
X7895714Y-12956429D01*
X7881428Y-12927857D01*
X7881428Y-12899286D01*
X7895714Y-12870714D01*
X7924286Y-12856429D01*
X7995714Y-12856429D01*
X8024286Y-12842143D01*
X8167143Y-12770714D02*
X8167143Y-13070714D01*
X8167143Y-12785000D02*
X8195714Y-12770714D01*
X8252857Y-12770714D01*
X8281428Y-12785000D01*
X8295714Y-12799286D01*
X8310000Y-12827857D01*
X8310000Y-12913571D01*
X8295714Y-12942143D01*
X8281428Y-12956429D01*
X8252857Y-12970714D01*
X8195714Y-12970714D01*
X8167143Y-12956429D01*
X8438571Y-12942143D02*
X8452857Y-12956429D01*
X8438571Y-12970714D01*
X8424286Y-12956429D01*
X8438571Y-12942143D01*
X8438571Y-12970714D01*
X8438571Y-12785000D02*
X8452857Y-12799286D01*
X8438571Y-12813571D01*
X8424286Y-12799286D01*
X8438571Y-12785000D01*
X8438571Y-12813571D01*
X6075000Y-13455000D02*
X6095000Y-13475000D01*
X6095000Y-13455000D02*
X6075000Y-13475000D01*
X6438571Y-13300714D02*
X6467143Y-13300714D01*
X6495714Y-13315000D01*
X6510000Y-13329286D01*
X6524286Y-13357857D01*
X6538571Y-13415000D01*
X6538571Y-13486429D01*
X6524286Y-13543571D01*
X6510000Y-13572143D01*
X6495714Y-13586429D01*
X6467143Y-13600714D01*
X6438571Y-13600714D01*
X6410000Y-13586429D01*
X6395714Y-13572143D01*
X6381428Y-13543571D01*
X6367143Y-13486429D01*
X6367143Y-13415000D01*
X6381428Y-13357857D01*
X6395714Y-13329286D01*
X6410000Y-13315000D01*
X6438571Y-13300714D01*
X6667143Y-13572143D02*
X6681428Y-13586429D01*
X6667143Y-13600714D01*
X6652857Y-13586429D01*
X6667143Y-13572143D01*
X6667143Y-13600714D01*
X6795714Y-13329286D02*
X6810000Y-13315000D01*
X6838571Y-13300714D01*
X6910000Y-13300714D01*
X6938571Y-13315000D01*
X6952857Y-13329286D01*
X6967143Y-13357857D01*
X6967143Y-13386429D01*
X6952857Y-13429286D01*
X6781428Y-13600714D01*
X6967143Y-13600714D01*
X7152857Y-13300714D02*
X7181428Y-13300714D01*
X7210000Y-13315000D01*
X7224286Y-13329286D01*
X7238571Y-13357857D01*
X7252857Y-13415000D01*
X7252857Y-13486429D01*
X7238571Y-13543571D01*
X7224286Y-13572143D01*
X7210000Y-13586429D01*
X7181428Y-13600714D01*
X7152857Y-13600714D01*
X7124286Y-13586429D01*
X7110000Y-13572143D01*
X7095714Y-13543571D01*
X7081428Y-13486429D01*
X7081428Y-13415000D01*
X7095714Y-13357857D01*
X7110000Y-13329286D01*
X7124286Y-13315000D01*
X7152857Y-13300714D01*
X7381428Y-13600714D02*
X7381428Y-13400714D01*
X7381428Y-13429286D02*
X7395714Y-13415000D01*
X7424286Y-13400714D01*
X7467143Y-13400714D01*
X7495714Y-13415000D01*
X7510000Y-13443571D01*
X7510000Y-13600714D01*
X7510000Y-13443571D02*
X7524286Y-13415000D01*
X7552857Y-13400714D01*
X7595714Y-13400714D01*
X7624286Y-13415000D01*
X7638571Y-13443571D01*
X7638571Y-13600714D01*
X7781428Y-13600714D02*
X7781428Y-13400714D01*
X7781428Y-13429286D02*
X7795714Y-13415000D01*
X7824286Y-13400714D01*
X7867143Y-13400714D01*
X7895714Y-13415000D01*
X7910000Y-13443571D01*
X7910000Y-13600714D01*
X7910000Y-13443571D02*
X7924286Y-13415000D01*
X7952857Y-13400714D01*
X7995714Y-13400714D01*
X8024286Y-13415000D01*
X8038571Y-13443571D01*
X8038571Y-13600714D01*
X8624286Y-13286429D02*
X8367143Y-13672143D01*
X9010000Y-13300714D02*
X9038571Y-13300714D01*
X9067143Y-13315000D01*
X9081428Y-13329286D01*
X9095714Y-13357857D01*
X9110000Y-13415000D01*
X9110000Y-13486429D01*
X9095714Y-13543571D01*
X9081428Y-13572143D01*
X9067143Y-13586429D01*
X9038571Y-13600714D01*
X9010000Y-13600714D01*
X8981428Y-13586429D01*
X8967143Y-13572143D01*
X8952857Y-13543571D01*
X8938571Y-13486429D01*
X8938571Y-13415000D01*
X8952857Y-13357857D01*
X8967143Y-13329286D01*
X8981428Y-13315000D01*
X9010000Y-13300714D01*
X9238571Y-13572143D02*
X9252857Y-13586429D01*
X9238571Y-13600714D01*
X9224286Y-13586429D01*
X9238571Y-13572143D01*
X9238571Y-13600714D01*
X9438571Y-13300714D02*
X9467143Y-13300714D01*
X9495714Y-13315000D01*
X9510000Y-13329286D01*
X9524286Y-13357857D01*
X9538571Y-13415000D01*
X9538571Y-13486429D01*
X9524286Y-13543571D01*
X9510000Y-13572143D01*
X9495714Y-13586429D01*
X9467143Y-13600714D01*
X9438571Y-13600714D01*
X9410000Y-13586429D01*
X9395714Y-13572143D01*
X9381428Y-13543571D01*
X9367143Y-13486429D01*
X9367143Y-13415000D01*
X9381428Y-13357857D01*
X9395714Y-13329286D01*
X9410000Y-13315000D01*
X9438571Y-13300714D01*
X9724286Y-13300714D02*
X9752857Y-13300714D01*
X9781428Y-13315000D01*
X9795714Y-13329286D01*
X9810000Y-13357857D01*
X9824286Y-13415000D01*
X9824286Y-13486429D01*
X9810000Y-13543571D01*
X9795714Y-13572143D01*
X9781428Y-13586429D01*
X9752857Y-13600714D01*
X9724286Y-13600714D01*
X9695714Y-13586429D01*
X9681428Y-13572143D01*
X9667143Y-13543571D01*
X9652857Y-13486429D01*
X9652857Y-13415000D01*
X9667143Y-13357857D01*
X9681428Y-13329286D01*
X9695714Y-13315000D01*
X9724286Y-13300714D01*
X9995714Y-13429286D02*
X9967143Y-13415000D01*
X9952857Y-13400714D01*
X9938571Y-13372143D01*
X9938571Y-13357857D01*
X9952857Y-13329286D01*
X9967143Y-13315000D01*
X9995714Y-13300714D01*
X10052857Y-13300714D01*
X10081428Y-13315000D01*
X10095714Y-13329286D01*
X10110000Y-13357857D01*
X10110000Y-13372143D01*
X10095714Y-13400714D01*
X10081428Y-13415000D01*
X10052857Y-13429286D01*
X9995714Y-13429286D01*
X9967143Y-13443571D01*
X9952857Y-13457857D01*
X9938571Y-13486429D01*
X9938571Y-13543571D01*
X9952857Y-13572143D01*
X9967143Y-13586429D01*
X9995714Y-13600714D01*
X10052857Y-13600714D01*
X10081428Y-13586429D01*
X10095714Y-13572143D01*
X10110000Y-13543571D01*
X10110000Y-13486429D01*
X10095714Y-13457857D01*
X10081428Y-13443571D01*
X10052857Y-13429286D01*
X10224286Y-13300714D02*
X10224286Y-13357857D01*
X10338571Y-13300714D02*
X10338571Y-13357857D01*
X10781428Y-13715000D02*
X10767143Y-13700714D01*
X10738571Y-13657857D01*
X10724286Y-13629286D01*
X10710000Y-13586429D01*
X10695714Y-13515000D01*
X10695714Y-13457857D01*
X10710000Y-13386429D01*
X10724286Y-13343571D01*
X10738571Y-13315000D01*
X10767143Y-13272143D01*
X10781428Y-13257857D01*
X10910000Y-13600714D02*
X10967143Y-13600714D01*
X10995714Y-13586429D01*
X11010000Y-13572143D01*
X11038571Y-13529286D01*
X11052857Y-13472143D01*
X11052857Y-13357857D01*
X11038571Y-13329286D01*
X11024286Y-13315000D01*
X10995714Y-13300714D01*
X10938571Y-13300714D01*
X10910000Y-13315000D01*
X10895714Y-13329286D01*
X10881428Y-13357857D01*
X10881428Y-13429286D01*
X10895714Y-13457857D01*
X10910000Y-13472143D01*
X10938571Y-13486429D01*
X10995714Y-13486429D01*
X11024286Y-13472143D01*
X11038571Y-13457857D01*
X11052857Y-13429286D01*
X11410000Y-13600714D02*
X11410000Y-13300714D01*
X11538571Y-13600714D02*
X11538571Y-13443571D01*
X11524286Y-13415000D01*
X11495714Y-13400714D01*
X11452857Y-13400714D01*
X11424286Y-13415000D01*
X11410000Y-13429286D01*
X11724286Y-13600714D02*
X11695714Y-13586429D01*
X11681428Y-13572143D01*
X11667143Y-13543571D01*
X11667143Y-13457857D01*
X11681428Y-13429286D01*
X11695714Y-13415000D01*
X11724286Y-13400714D01*
X11767143Y-13400714D01*
X11795714Y-13415000D01*
X11810000Y-13429286D01*
X11824286Y-13457857D01*
X11824286Y-13543571D01*
X11810000Y-13572143D01*
X11795714Y-13586429D01*
X11767143Y-13600714D01*
X11724286Y-13600714D01*
X11995714Y-13600714D02*
X11967143Y-13586429D01*
X11952857Y-13557857D01*
X11952857Y-13300714D01*
X12224286Y-13586429D02*
X12195714Y-13600714D01*
X12138571Y-13600714D01*
X12110000Y-13586429D01*
X12095714Y-13557857D01*
X12095714Y-13443571D01*
X12110000Y-13415000D01*
X12138571Y-13400714D01*
X12195714Y-13400714D01*
X12224286Y-13415000D01*
X12238571Y-13443571D01*
X12238571Y-13472143D01*
X12095714Y-13500714D01*
X12352857Y-13586429D02*
X12381428Y-13600714D01*
X12438571Y-13600714D01*
X12467143Y-13586429D01*
X12481428Y-13557857D01*
X12481428Y-13543571D01*
X12467143Y-13515000D01*
X12438571Y-13500714D01*
X12395714Y-13500714D01*
X12367143Y-13486429D01*
X12352857Y-13457857D01*
X12352857Y-13443571D01*
X12367143Y-13415000D01*
X12395714Y-13400714D01*
X12438571Y-13400714D01*
X12467143Y-13415000D01*
X12581428Y-13715000D02*
X12595714Y-13700714D01*
X12624286Y-13657857D01*
X12638571Y-13629286D01*
X12652857Y-13586429D01*
X12667143Y-13515000D01*
X12667143Y-13457857D01*
X12652857Y-13386429D01*
X12638571Y-13343571D01*
X12624286Y-13315000D01*
X12595714Y-13272143D01*
X12581428Y-13257857D01*
X6095000Y-13861000D02*
G75*
G03X6095000Y-13861000I-20000J0D01*
G01*
X6438571Y-13696714D02*
X6467143Y-13696714D01*
X6495714Y-13711000D01*
X6510000Y-13725286D01*
X6524286Y-13753857D01*
X6538571Y-13811000D01*
X6538571Y-13882429D01*
X6524286Y-13939571D01*
X6510000Y-13968143D01*
X6495714Y-13982429D01*
X6467143Y-13996714D01*
X6438571Y-13996714D01*
X6410000Y-13982429D01*
X6395714Y-13968143D01*
X6381428Y-13939571D01*
X6367143Y-13882429D01*
X6367143Y-13811000D01*
X6381428Y-13753857D01*
X6395714Y-13725286D01*
X6410000Y-13711000D01*
X6438571Y-13696714D01*
X6667143Y-13968143D02*
X6681428Y-13982429D01*
X6667143Y-13996714D01*
X6652857Y-13982429D01*
X6667143Y-13968143D01*
X6667143Y-13996714D01*
X6938571Y-13796714D02*
X6938571Y-13996714D01*
X6867143Y-13682429D02*
X6795714Y-13896714D01*
X6981428Y-13896714D01*
X7152857Y-13696714D02*
X7181428Y-13696714D01*
X7210000Y-13711000D01*
X7224286Y-13725286D01*
X7238571Y-13753857D01*
X7252857Y-13811000D01*
X7252857Y-13882429D01*
X7238571Y-13939571D01*
X7224286Y-13968143D01*
X7210000Y-13982429D01*
X7181428Y-13996714D01*
X7152857Y-13996714D01*
X7124286Y-13982429D01*
X7110000Y-13968143D01*
X7095714Y-13939571D01*
X7081428Y-13882429D01*
X7081428Y-13811000D01*
X7095714Y-13753857D01*
X7110000Y-13725286D01*
X7124286Y-13711000D01*
X7152857Y-13696714D01*
X7381428Y-13996714D02*
X7381428Y-13796714D01*
X7381428Y-13825286D02*
X7395714Y-13811000D01*
X7424286Y-13796714D01*
X7467143Y-13796714D01*
X7495714Y-13811000D01*
X7510000Y-13839571D01*
X7510000Y-13996714D01*
X7510000Y-13839571D02*
X7524286Y-13811000D01*
X7552857Y-13796714D01*
X7595714Y-13796714D01*
X7624286Y-13811000D01*
X7638571Y-13839571D01*
X7638571Y-13996714D01*
X7781428Y-13996714D02*
X7781428Y-13796714D01*
X7781428Y-13825286D02*
X7795714Y-13811000D01*
X7824286Y-13796714D01*
X7867143Y-13796714D01*
X7895714Y-13811000D01*
X7910000Y-13839571D01*
X7910000Y-13996714D01*
X7910000Y-13839571D02*
X7924286Y-13811000D01*
X7952857Y-13796714D01*
X7995714Y-13796714D01*
X8024286Y-13811000D01*
X8038571Y-13839571D01*
X8038571Y-13996714D01*
X8624286Y-13682429D02*
X8367143Y-14068143D01*
X9010000Y-13696714D02*
X9038571Y-13696714D01*
X9067143Y-13711000D01*
X9081428Y-13725286D01*
X9095714Y-13753857D01*
X9110000Y-13811000D01*
X9110000Y-13882429D01*
X9095714Y-13939571D01*
X9081428Y-13968143D01*
X9067143Y-13982429D01*
X9038571Y-13996714D01*
X9010000Y-13996714D01*
X8981428Y-13982429D01*
X8967143Y-13968143D01*
X8952857Y-13939571D01*
X8938571Y-13882429D01*
X8938571Y-13811000D01*
X8952857Y-13753857D01*
X8967143Y-13725286D01*
X8981428Y-13711000D01*
X9010000Y-13696714D01*
X9238571Y-13968143D02*
X9252857Y-13982429D01*
X9238571Y-13996714D01*
X9224286Y-13982429D01*
X9238571Y-13968143D01*
X9238571Y-13996714D01*
X9438571Y-13696714D02*
X9467143Y-13696714D01*
X9495714Y-13711000D01*
X9510000Y-13725286D01*
X9524286Y-13753857D01*
X9538571Y-13811000D01*
X9538571Y-13882429D01*
X9524286Y-13939571D01*
X9510000Y-13968143D01*
X9495714Y-13982429D01*
X9467143Y-13996714D01*
X9438571Y-13996714D01*
X9410000Y-13982429D01*
X9395714Y-13968143D01*
X9381428Y-13939571D01*
X9367143Y-13882429D01*
X9367143Y-13811000D01*
X9381428Y-13753857D01*
X9395714Y-13725286D01*
X9410000Y-13711000D01*
X9438571Y-13696714D01*
X9824286Y-13996714D02*
X9652857Y-13996714D01*
X9738571Y-13996714D02*
X9738571Y-13696714D01*
X9710000Y-13739571D01*
X9681428Y-13768143D01*
X9652857Y-13782429D01*
X10081428Y-13696714D02*
X10024286Y-13696714D01*
X9995714Y-13711000D01*
X9981428Y-13725286D01*
X9952857Y-13768143D01*
X9938571Y-13825286D01*
X9938571Y-13939571D01*
X9952857Y-13968143D01*
X9967143Y-13982429D01*
X9995714Y-13996714D01*
X10052857Y-13996714D01*
X10081428Y-13982429D01*
X10095714Y-13968143D01*
X10110000Y-13939571D01*
X10110000Y-13868143D01*
X10095714Y-13839571D01*
X10081428Y-13825286D01*
X10052857Y-13811000D01*
X9995714Y-13811000D01*
X9967143Y-13825286D01*
X9952857Y-13839571D01*
X9938571Y-13868143D01*
X10224286Y-13696714D02*
X10224286Y-13753857D01*
X10338571Y-13696714D02*
X10338571Y-13753857D01*
X10781428Y-14111000D02*
X10767143Y-14096714D01*
X10738571Y-14053857D01*
X10724286Y-14025286D01*
X10710000Y-13982429D01*
X10695714Y-13911000D01*
X10695714Y-13853857D01*
X10710000Y-13782429D01*
X10724286Y-13739571D01*
X10738571Y-13711000D01*
X10767143Y-13668143D01*
X10781428Y-13653857D01*
X11052857Y-13996714D02*
X10881428Y-13996714D01*
X10967143Y-13996714D02*
X10967143Y-13696714D01*
X10938571Y-13739571D01*
X10910000Y-13768143D01*
X10881428Y-13782429D01*
X11195714Y-13996714D02*
X11252857Y-13996714D01*
X11281428Y-13982429D01*
X11295714Y-13968143D01*
X11324286Y-13925286D01*
X11338571Y-13868143D01*
X11338571Y-13753857D01*
X11324286Y-13725286D01*
X11310000Y-13711000D01*
X11281428Y-13696714D01*
X11224286Y-13696714D01*
X11195714Y-13711000D01*
X11181428Y-13725286D01*
X11167143Y-13753857D01*
X11167143Y-13825286D01*
X11181428Y-13853857D01*
X11195714Y-13868143D01*
X11224286Y-13882429D01*
X11281428Y-13882429D01*
X11310000Y-13868143D01*
X11324286Y-13853857D01*
X11338571Y-13825286D01*
X11481428Y-13996714D02*
X11538571Y-13996714D01*
X11567143Y-13982429D01*
X11581428Y-13968143D01*
X11610000Y-13925286D01*
X11624286Y-13868143D01*
X11624286Y-13753857D01*
X11610000Y-13725286D01*
X11595714Y-13711000D01*
X11567143Y-13696714D01*
X11510000Y-13696714D01*
X11481428Y-13711000D01*
X11467143Y-13725286D01*
X11452857Y-13753857D01*
X11452857Y-13825286D01*
X11467143Y-13853857D01*
X11481428Y-13868143D01*
X11510000Y-13882429D01*
X11567143Y-13882429D01*
X11595714Y-13868143D01*
X11610000Y-13853857D01*
X11624286Y-13825286D01*
X11981428Y-13996714D02*
X11981428Y-13696714D01*
X12110000Y-13996714D02*
X12110000Y-13839571D01*
X12095714Y-13811000D01*
X12067143Y-13796714D01*
X12024286Y-13796714D01*
X11995714Y-13811000D01*
X11981428Y-13825286D01*
X12295714Y-13996714D02*
X12267143Y-13982429D01*
X12252857Y-13968143D01*
X12238571Y-13939571D01*
X12238571Y-13853857D01*
X12252857Y-13825286D01*
X12267143Y-13811000D01*
X12295714Y-13796714D01*
X12338571Y-13796714D01*
X12367143Y-13811000D01*
X12381428Y-13825286D01*
X12395714Y-13853857D01*
X12395714Y-13939571D01*
X12381428Y-13968143D01*
X12367143Y-13982429D01*
X12338571Y-13996714D01*
X12295714Y-13996714D01*
X12567143Y-13996714D02*
X12538571Y-13982429D01*
X12524286Y-13953857D01*
X12524286Y-13696714D01*
X12795714Y-13982429D02*
X12767143Y-13996714D01*
X12710000Y-13996714D01*
X12681428Y-13982429D01*
X12667143Y-13953857D01*
X12667143Y-13839571D01*
X12681428Y-13811000D01*
X12710000Y-13796714D01*
X12767143Y-13796714D01*
X12795714Y-13811000D01*
X12810000Y-13839571D01*
X12810000Y-13868143D01*
X12667143Y-13896714D01*
X12924286Y-13982429D02*
X12952857Y-13996714D01*
X13010000Y-13996714D01*
X13038571Y-13982429D01*
X13052857Y-13953857D01*
X13052857Y-13939571D01*
X13038571Y-13911000D01*
X13010000Y-13896714D01*
X12967143Y-13896714D01*
X12938571Y-13882429D01*
X12924286Y-13853857D01*
X12924286Y-13839571D01*
X12938571Y-13811000D01*
X12967143Y-13796714D01*
X13010000Y-13796714D01*
X13038571Y-13811000D01*
X13152857Y-14111000D02*
X13167143Y-14096714D01*
X13195714Y-14053857D01*
X13210000Y-14025286D01*
X13224286Y-13982429D01*
X13238571Y-13911000D01*
X13238571Y-13853857D01*
X13224286Y-13782429D01*
X13210000Y-13739571D01*
X13195714Y-13711000D01*
X13167143Y-13668143D01*
X13152857Y-13653857D01*
X6072000Y-14234000D02*
X6072000Y-14280000D01*
X6049000Y-14257000D02*
X6095000Y-14257000D01*
X6438571Y-14092714D02*
X6467143Y-14092714D01*
X6495714Y-14107000D01*
X6510000Y-14121286D01*
X6524286Y-14149857D01*
X6538571Y-14207000D01*
X6538571Y-14278429D01*
X6524286Y-14335571D01*
X6510000Y-14364143D01*
X6495714Y-14378429D01*
X6467143Y-14392714D01*
X6438571Y-14392714D01*
X6410000Y-14378429D01*
X6395714Y-14364143D01*
X6381428Y-14335571D01*
X6367143Y-14278429D01*
X6367143Y-14207000D01*
X6381428Y-14149857D01*
X6395714Y-14121286D01*
X6410000Y-14107000D01*
X6438571Y-14092714D01*
X6667143Y-14364143D02*
X6681428Y-14378429D01*
X6667143Y-14392714D01*
X6652857Y-14378429D01*
X6667143Y-14364143D01*
X6667143Y-14392714D01*
X6938571Y-14192714D02*
X6938571Y-14392714D01*
X6867143Y-14078429D02*
X6795714Y-14292714D01*
X6981428Y-14292714D01*
X7224286Y-14092714D02*
X7167143Y-14092714D01*
X7138571Y-14107000D01*
X7124286Y-14121286D01*
X7095714Y-14164143D01*
X7081428Y-14221286D01*
X7081428Y-14335571D01*
X7095714Y-14364143D01*
X7110000Y-14378429D01*
X7138571Y-14392714D01*
X7195714Y-14392714D01*
X7224286Y-14378429D01*
X7238571Y-14364143D01*
X7252857Y-14335571D01*
X7252857Y-14264143D01*
X7238571Y-14235571D01*
X7224286Y-14221286D01*
X7195714Y-14207000D01*
X7138571Y-14207000D01*
X7110000Y-14221286D01*
X7095714Y-14235571D01*
X7081428Y-14264143D01*
X7381428Y-14392714D02*
X7381428Y-14192714D01*
X7381428Y-14221286D02*
X7395714Y-14207000D01*
X7424286Y-14192714D01*
X7467143Y-14192714D01*
X7495714Y-14207000D01*
X7510000Y-14235571D01*
X7510000Y-14392714D01*
X7510000Y-14235571D02*
X7524286Y-14207000D01*
X7552857Y-14192714D01*
X7595714Y-14192714D01*
X7624286Y-14207000D01*
X7638571Y-14235571D01*
X7638571Y-14392714D01*
X7781428Y-14392714D02*
X7781428Y-14192714D01*
X7781428Y-14221286D02*
X7795714Y-14207000D01*
X7824286Y-14192714D01*
X7867143Y-14192714D01*
X7895714Y-14207000D01*
X7910000Y-14235571D01*
X7910000Y-14392714D01*
X7910000Y-14235571D02*
X7924286Y-14207000D01*
X7952857Y-14192714D01*
X7995714Y-14192714D01*
X8024286Y-14207000D01*
X8038571Y-14235571D01*
X8038571Y-14392714D01*
X8624286Y-14078429D02*
X8367143Y-14464143D01*
X9010000Y-14092714D02*
X9038571Y-14092714D01*
X9067143Y-14107000D01*
X9081428Y-14121286D01*
X9095714Y-14149857D01*
X9110000Y-14207000D01*
X9110000Y-14278429D01*
X9095714Y-14335571D01*
X9081428Y-14364143D01*
X9067143Y-14378429D01*
X9038571Y-14392714D01*
X9010000Y-14392714D01*
X8981428Y-14378429D01*
X8967143Y-14364143D01*
X8952857Y-14335571D01*
X8938571Y-14278429D01*
X8938571Y-14207000D01*
X8952857Y-14149857D01*
X8967143Y-14121286D01*
X8981428Y-14107000D01*
X9010000Y-14092714D01*
X9238571Y-14364143D02*
X9252857Y-14378429D01*
X9238571Y-14392714D01*
X9224286Y-14378429D01*
X9238571Y-14364143D01*
X9238571Y-14392714D01*
X9438571Y-14092714D02*
X9467143Y-14092714D01*
X9495714Y-14107000D01*
X9510000Y-14121286D01*
X9524286Y-14149857D01*
X9538571Y-14207000D01*
X9538571Y-14278429D01*
X9524286Y-14335571D01*
X9510000Y-14364143D01*
X9495714Y-14378429D01*
X9467143Y-14392714D01*
X9438571Y-14392714D01*
X9410000Y-14378429D01*
X9395714Y-14364143D01*
X9381428Y-14335571D01*
X9367143Y-14278429D01*
X9367143Y-14207000D01*
X9381428Y-14149857D01*
X9395714Y-14121286D01*
X9410000Y-14107000D01*
X9438571Y-14092714D01*
X9824286Y-14392714D02*
X9652857Y-14392714D01*
X9738571Y-14392714D02*
X9738571Y-14092714D01*
X9710000Y-14135571D01*
X9681428Y-14164143D01*
X9652857Y-14178429D01*
X9995714Y-14221286D02*
X9967143Y-14207000D01*
X9952857Y-14192714D01*
X9938571Y-14164143D01*
X9938571Y-14149857D01*
X9952857Y-14121286D01*
X9967143Y-14107000D01*
X9995714Y-14092714D01*
X10052857Y-14092714D01*
X10081428Y-14107000D01*
X10095714Y-14121286D01*
X10110000Y-14149857D01*
X10110000Y-14164143D01*
X10095714Y-14192714D01*
X10081428Y-14207000D01*
X10052857Y-14221286D01*
X9995714Y-14221286D01*
X9967143Y-14235571D01*
X9952857Y-14249857D01*
X9938571Y-14278429D01*
X9938571Y-14335571D01*
X9952857Y-14364143D01*
X9967143Y-14378429D01*
X9995714Y-14392714D01*
X10052857Y-14392714D01*
X10081428Y-14378429D01*
X10095714Y-14364143D01*
X10110000Y-14335571D01*
X10110000Y-14278429D01*
X10095714Y-14249857D01*
X10081428Y-14235571D01*
X10052857Y-14221286D01*
X10224286Y-14092714D02*
X10224286Y-14149857D01*
X10338571Y-14092714D02*
X10338571Y-14149857D01*
X10781428Y-14507000D02*
X10767143Y-14492714D01*
X10738571Y-14449857D01*
X10724286Y-14421286D01*
X10710000Y-14378429D01*
X10695714Y-14307000D01*
X10695714Y-14249857D01*
X10710000Y-14178429D01*
X10724286Y-14135571D01*
X10738571Y-14107000D01*
X10767143Y-14064143D01*
X10781428Y-14049857D01*
X10881428Y-14121286D02*
X10895714Y-14107000D01*
X10924286Y-14092714D01*
X10995714Y-14092714D01*
X11024286Y-14107000D01*
X11038571Y-14121286D01*
X11052857Y-14149857D01*
X11052857Y-14178429D01*
X11038571Y-14221286D01*
X10867143Y-14392714D01*
X11052857Y-14392714D01*
X11410000Y-14392714D02*
X11410000Y-14092714D01*
X11538571Y-14392714D02*
X11538571Y-14235571D01*
X11524286Y-14207000D01*
X11495714Y-14192714D01*
X11452857Y-14192714D01*
X11424286Y-14207000D01*
X11410000Y-14221286D01*
X11724286Y-14392714D02*
X11695714Y-14378429D01*
X11681428Y-14364143D01*
X11667143Y-14335571D01*
X11667143Y-14249857D01*
X11681428Y-14221286D01*
X11695714Y-14207000D01*
X11724286Y-14192714D01*
X11767143Y-14192714D01*
X11795714Y-14207000D01*
X11810000Y-14221286D01*
X11824286Y-14249857D01*
X11824286Y-14335571D01*
X11810000Y-14364143D01*
X11795714Y-14378429D01*
X11767143Y-14392714D01*
X11724286Y-14392714D01*
X11995714Y-14392714D02*
X11967143Y-14378429D01*
X11952857Y-14349857D01*
X11952857Y-14092714D01*
X12224286Y-14378429D02*
X12195714Y-14392714D01*
X12138571Y-14392714D01*
X12110000Y-14378429D01*
X12095714Y-14349857D01*
X12095714Y-14235571D01*
X12110000Y-14207000D01*
X12138571Y-14192714D01*
X12195714Y-14192714D01*
X12224286Y-14207000D01*
X12238571Y-14235571D01*
X12238571Y-14264143D01*
X12095714Y-14292714D01*
X12352857Y-14378429D02*
X12381428Y-14392714D01*
X12438571Y-14392714D01*
X12467143Y-14378429D01*
X12481428Y-14349857D01*
X12481428Y-14335571D01*
X12467143Y-14307000D01*
X12438571Y-14292714D01*
X12395714Y-14292714D01*
X12367143Y-14278429D01*
X12352857Y-14249857D01*
X12352857Y-14235571D01*
X12367143Y-14207000D01*
X12395714Y-14192714D01*
X12438571Y-14192714D01*
X12467143Y-14207000D01*
X12581428Y-14507000D02*
X12595714Y-14492714D01*
X12624286Y-14449857D01*
X12638571Y-14421286D01*
X12652857Y-14378429D01*
X12667143Y-14307000D01*
X12667143Y-14249857D01*
X12652857Y-14178429D01*
X12638571Y-14135571D01*
X12624286Y-14107000D01*
X12595714Y-14064143D01*
X12581428Y-14049857D01*
X6087678Y-14670678D02*
X6087678Y-14635322D01*
X6052322Y-14635322D01*
X6052322Y-14670678D01*
X6087678Y-14670678D01*
X6438571Y-14488714D02*
X6467143Y-14488714D01*
X6495714Y-14503000D01*
X6510000Y-14517286D01*
X6524286Y-14545857D01*
X6538571Y-14603000D01*
X6538571Y-14674429D01*
X6524286Y-14731571D01*
X6510000Y-14760143D01*
X6495714Y-14774429D01*
X6467143Y-14788714D01*
X6438571Y-14788714D01*
X6410000Y-14774429D01*
X6395714Y-14760143D01*
X6381428Y-14731571D01*
X6367143Y-14674429D01*
X6367143Y-14603000D01*
X6381428Y-14545857D01*
X6395714Y-14517286D01*
X6410000Y-14503000D01*
X6438571Y-14488714D01*
X6667143Y-14760143D02*
X6681428Y-14774429D01*
X6667143Y-14788714D01*
X6652857Y-14774429D01*
X6667143Y-14760143D01*
X6667143Y-14788714D01*
X6952857Y-14488714D02*
X6810000Y-14488714D01*
X6795714Y-14631571D01*
X6810000Y-14617286D01*
X6838571Y-14603000D01*
X6910000Y-14603000D01*
X6938571Y-14617286D01*
X6952857Y-14631571D01*
X6967143Y-14660143D01*
X6967143Y-14731571D01*
X6952857Y-14760143D01*
X6938571Y-14774429D01*
X6910000Y-14788714D01*
X6838571Y-14788714D01*
X6810000Y-14774429D01*
X6795714Y-14760143D01*
X7152857Y-14488714D02*
X7181428Y-14488714D01*
X7210000Y-14503000D01*
X7224286Y-14517286D01*
X7238571Y-14545857D01*
X7252857Y-14603000D01*
X7252857Y-14674429D01*
X7238571Y-14731571D01*
X7224286Y-14760143D01*
X7210000Y-14774429D01*
X7181428Y-14788714D01*
X7152857Y-14788714D01*
X7124286Y-14774429D01*
X7110000Y-14760143D01*
X7095714Y-14731571D01*
X7081428Y-14674429D01*
X7081428Y-14603000D01*
X7095714Y-14545857D01*
X7110000Y-14517286D01*
X7124286Y-14503000D01*
X7152857Y-14488714D01*
X7381428Y-14788714D02*
X7381428Y-14588714D01*
X7381428Y-14617286D02*
X7395714Y-14603000D01*
X7424286Y-14588714D01*
X7467143Y-14588714D01*
X7495714Y-14603000D01*
X7510000Y-14631571D01*
X7510000Y-14788714D01*
X7510000Y-14631571D02*
X7524286Y-14603000D01*
X7552857Y-14588714D01*
X7595714Y-14588714D01*
X7624286Y-14603000D01*
X7638571Y-14631571D01*
X7638571Y-14788714D01*
X7781428Y-14788714D02*
X7781428Y-14588714D01*
X7781428Y-14617286D02*
X7795714Y-14603000D01*
X7824286Y-14588714D01*
X7867143Y-14588714D01*
X7895714Y-14603000D01*
X7910000Y-14631571D01*
X7910000Y-14788714D01*
X7910000Y-14631571D02*
X7924286Y-14603000D01*
X7952857Y-14588714D01*
X7995714Y-14588714D01*
X8024286Y-14603000D01*
X8038571Y-14631571D01*
X8038571Y-14788714D01*
X8624286Y-14474429D02*
X8367143Y-14860143D01*
X9010000Y-14488714D02*
X9038571Y-14488714D01*
X9067143Y-14503000D01*
X9081428Y-14517286D01*
X9095714Y-14545857D01*
X9110000Y-14603000D01*
X9110000Y-14674429D01*
X9095714Y-14731571D01*
X9081428Y-14760143D01*
X9067143Y-14774429D01*
X9038571Y-14788714D01*
X9010000Y-14788714D01*
X8981428Y-14774429D01*
X8967143Y-14760143D01*
X8952857Y-14731571D01*
X8938571Y-14674429D01*
X8938571Y-14603000D01*
X8952857Y-14545857D01*
X8967143Y-14517286D01*
X8981428Y-14503000D01*
X9010000Y-14488714D01*
X9238571Y-14760143D02*
X9252857Y-14774429D01*
X9238571Y-14788714D01*
X9224286Y-14774429D01*
X9238571Y-14760143D01*
X9238571Y-14788714D01*
X9438571Y-14488714D02*
X9467143Y-14488714D01*
X9495714Y-14503000D01*
X9510000Y-14517286D01*
X9524286Y-14545857D01*
X9538571Y-14603000D01*
X9538571Y-14674429D01*
X9524286Y-14731571D01*
X9510000Y-14760143D01*
X9495714Y-14774429D01*
X9467143Y-14788714D01*
X9438571Y-14788714D01*
X9410000Y-14774429D01*
X9395714Y-14760143D01*
X9381428Y-14731571D01*
X9367143Y-14674429D01*
X9367143Y-14603000D01*
X9381428Y-14545857D01*
X9395714Y-14517286D01*
X9410000Y-14503000D01*
X9438571Y-14488714D01*
X9652857Y-14517286D02*
X9667143Y-14503000D01*
X9695714Y-14488714D01*
X9767143Y-14488714D01*
X9795714Y-14503000D01*
X9810000Y-14517286D01*
X9824286Y-14545857D01*
X9824286Y-14574429D01*
X9810000Y-14617286D01*
X9638571Y-14788714D01*
X9824286Y-14788714D01*
X10010000Y-14488714D02*
X10038571Y-14488714D01*
X10067143Y-14503000D01*
X10081428Y-14517286D01*
X10095714Y-14545857D01*
X10110000Y-14603000D01*
X10110000Y-14674429D01*
X10095714Y-14731571D01*
X10081428Y-14760143D01*
X10067143Y-14774429D01*
X10038571Y-14788714D01*
X10010000Y-14788714D01*
X9981428Y-14774429D01*
X9967143Y-14760143D01*
X9952857Y-14731571D01*
X9938571Y-14674429D01*
X9938571Y-14603000D01*
X9952857Y-14545857D01*
X9967143Y-14517286D01*
X9981428Y-14503000D01*
X10010000Y-14488714D01*
X10224286Y-14488714D02*
X10224286Y-14545857D01*
X10338571Y-14488714D02*
X10338571Y-14545857D01*
X10781428Y-14903000D02*
X10767143Y-14888714D01*
X10738571Y-14845857D01*
X10724286Y-14817286D01*
X10710000Y-14774429D01*
X10695714Y-14703000D01*
X10695714Y-14645857D01*
X10710000Y-14574429D01*
X10724286Y-14531571D01*
X10738571Y-14503000D01*
X10767143Y-14460143D01*
X10781428Y-14445857D01*
X10881428Y-14517286D02*
X10895714Y-14503000D01*
X10924286Y-14488714D01*
X10995714Y-14488714D01*
X11024286Y-14503000D01*
X11038571Y-14517286D01*
X11052857Y-14545857D01*
X11052857Y-14574429D01*
X11038571Y-14617286D01*
X10867143Y-14788714D01*
X11052857Y-14788714D01*
X11410000Y-14788714D02*
X11410000Y-14488714D01*
X11538571Y-14788714D02*
X11538571Y-14631571D01*
X11524286Y-14603000D01*
X11495714Y-14588714D01*
X11452857Y-14588714D01*
X11424286Y-14603000D01*
X11410000Y-14617286D01*
X11724286Y-14788714D02*
X11695714Y-14774429D01*
X11681428Y-14760143D01*
X11667143Y-14731571D01*
X11667143Y-14645857D01*
X11681428Y-14617286D01*
X11695714Y-14603000D01*
X11724286Y-14588714D01*
X11767143Y-14588714D01*
X11795714Y-14603000D01*
X11810000Y-14617286D01*
X11824286Y-14645857D01*
X11824286Y-14731571D01*
X11810000Y-14760143D01*
X11795714Y-14774429D01*
X11767143Y-14788714D01*
X11724286Y-14788714D01*
X11995714Y-14788714D02*
X11967143Y-14774429D01*
X11952857Y-14745857D01*
X11952857Y-14488714D01*
X12224286Y-14774429D02*
X12195714Y-14788714D01*
X12138571Y-14788714D01*
X12110000Y-14774429D01*
X12095714Y-14745857D01*
X12095714Y-14631571D01*
X12110000Y-14603000D01*
X12138571Y-14588714D01*
X12195714Y-14588714D01*
X12224286Y-14603000D01*
X12238571Y-14631571D01*
X12238571Y-14660143D01*
X12095714Y-14688714D01*
X12352857Y-14774429D02*
X12381428Y-14788714D01*
X12438571Y-14788714D01*
X12467143Y-14774429D01*
X12481428Y-14745857D01*
X12481428Y-14731571D01*
X12467143Y-14703000D01*
X12438571Y-14688714D01*
X12395714Y-14688714D01*
X12367143Y-14674429D01*
X12352857Y-14645857D01*
X12352857Y-14631571D01*
X12367143Y-14603000D01*
X12395714Y-14588714D01*
X12438571Y-14588714D01*
X12467143Y-14603000D01*
X12581428Y-14903000D02*
X12595714Y-14888714D01*
X12624286Y-14845857D01*
X12638571Y-14817286D01*
X12652857Y-14774429D01*
X12667143Y-14703000D01*
X12667143Y-14645857D01*
X12652857Y-14574429D01*
X12638571Y-14531571D01*
X12624286Y-14503000D01*
X12595714Y-14460143D01*
X12581428Y-14445857D01*
X6062500Y-15081500D02*
X6095000Y-15049000D01*
X6062500Y-15016500D01*
X6030000Y-15049000D01*
X6062500Y-15081500D01*
X6438571Y-14884714D02*
X6467143Y-14884714D01*
X6495714Y-14899000D01*
X6510000Y-14913286D01*
X6524286Y-14941857D01*
X6538571Y-14999000D01*
X6538571Y-15070429D01*
X6524286Y-15127571D01*
X6510000Y-15156143D01*
X6495714Y-15170429D01*
X6467143Y-15184714D01*
X6438571Y-15184714D01*
X6410000Y-15170429D01*
X6395714Y-15156143D01*
X6381428Y-15127571D01*
X6367143Y-15070429D01*
X6367143Y-14999000D01*
X6381428Y-14941857D01*
X6395714Y-14913286D01*
X6410000Y-14899000D01*
X6438571Y-14884714D01*
X6667143Y-15156143D02*
X6681428Y-15170429D01*
X6667143Y-15184714D01*
X6652857Y-15170429D01*
X6667143Y-15156143D01*
X6667143Y-15184714D01*
X6938571Y-14884714D02*
X6881428Y-14884714D01*
X6852857Y-14899000D01*
X6838571Y-14913286D01*
X6810000Y-14956143D01*
X6795714Y-15013286D01*
X6795714Y-15127571D01*
X6810000Y-15156143D01*
X6824286Y-15170429D01*
X6852857Y-15184714D01*
X6910000Y-15184714D01*
X6938571Y-15170429D01*
X6952857Y-15156143D01*
X6967143Y-15127571D01*
X6967143Y-15056143D01*
X6952857Y-15027571D01*
X6938571Y-15013286D01*
X6910000Y-14999000D01*
X6852857Y-14999000D01*
X6824286Y-15013286D01*
X6810000Y-15027571D01*
X6795714Y-15056143D01*
X7238571Y-14884714D02*
X7095714Y-14884714D01*
X7081428Y-15027571D01*
X7095714Y-15013286D01*
X7124286Y-14999000D01*
X7195714Y-14999000D01*
X7224286Y-15013286D01*
X7238571Y-15027571D01*
X7252857Y-15056143D01*
X7252857Y-15127571D01*
X7238571Y-15156143D01*
X7224286Y-15170429D01*
X7195714Y-15184714D01*
X7124286Y-15184714D01*
X7095714Y-15170429D01*
X7081428Y-15156143D01*
X7381428Y-15184714D02*
X7381428Y-14984714D01*
X7381428Y-15013286D02*
X7395714Y-14999000D01*
X7424286Y-14984714D01*
X7467143Y-14984714D01*
X7495714Y-14999000D01*
X7510000Y-15027571D01*
X7510000Y-15184714D01*
X7510000Y-15027571D02*
X7524286Y-14999000D01*
X7552857Y-14984714D01*
X7595714Y-14984714D01*
X7624286Y-14999000D01*
X7638571Y-15027571D01*
X7638571Y-15184714D01*
X7781428Y-15184714D02*
X7781428Y-14984714D01*
X7781428Y-15013286D02*
X7795714Y-14999000D01*
X7824286Y-14984714D01*
X7867143Y-14984714D01*
X7895714Y-14999000D01*
X7910000Y-15027571D01*
X7910000Y-15184714D01*
X7910000Y-15027571D02*
X7924286Y-14999000D01*
X7952857Y-14984714D01*
X7995714Y-14984714D01*
X8024286Y-14999000D01*
X8038571Y-15027571D01*
X8038571Y-15184714D01*
X8624286Y-14870429D02*
X8367143Y-15256143D01*
X9010000Y-14884714D02*
X9038571Y-14884714D01*
X9067143Y-14899000D01*
X9081428Y-14913286D01*
X9095714Y-14941857D01*
X9110000Y-14999000D01*
X9110000Y-15070429D01*
X9095714Y-15127571D01*
X9081428Y-15156143D01*
X9067143Y-15170429D01*
X9038571Y-15184714D01*
X9010000Y-15184714D01*
X8981428Y-15170429D01*
X8967143Y-15156143D01*
X8952857Y-15127571D01*
X8938571Y-15070429D01*
X8938571Y-14999000D01*
X8952857Y-14941857D01*
X8967143Y-14913286D01*
X8981428Y-14899000D01*
X9010000Y-14884714D01*
X9238571Y-15156143D02*
X9252857Y-15170429D01*
X9238571Y-15184714D01*
X9224286Y-15170429D01*
X9238571Y-15156143D01*
X9238571Y-15184714D01*
X9438571Y-14884714D02*
X9467143Y-14884714D01*
X9495714Y-14899000D01*
X9510000Y-14913286D01*
X9524286Y-14941857D01*
X9538571Y-14999000D01*
X9538571Y-15070429D01*
X9524286Y-15127571D01*
X9510000Y-15156143D01*
X9495714Y-15170429D01*
X9467143Y-15184714D01*
X9438571Y-15184714D01*
X9410000Y-15170429D01*
X9395714Y-15156143D01*
X9381428Y-15127571D01*
X9367143Y-15070429D01*
X9367143Y-14999000D01*
X9381428Y-14941857D01*
X9395714Y-14913286D01*
X9410000Y-14899000D01*
X9438571Y-14884714D01*
X9652857Y-14913286D02*
X9667143Y-14899000D01*
X9695714Y-14884714D01*
X9767143Y-14884714D01*
X9795714Y-14899000D01*
X9810000Y-14913286D01*
X9824286Y-14941857D01*
X9824286Y-14970429D01*
X9810000Y-15013286D01*
X9638571Y-15184714D01*
X9824286Y-15184714D01*
X10081428Y-14884714D02*
X10024286Y-14884714D01*
X9995714Y-14899000D01*
X9981428Y-14913286D01*
X9952857Y-14956143D01*
X9938571Y-15013286D01*
X9938571Y-15127571D01*
X9952857Y-15156143D01*
X9967143Y-15170429D01*
X9995714Y-15184714D01*
X10052857Y-15184714D01*
X10081428Y-15170429D01*
X10095714Y-15156143D01*
X10110000Y-15127571D01*
X10110000Y-15056143D01*
X10095714Y-15027571D01*
X10081428Y-15013286D01*
X10052857Y-14999000D01*
X9995714Y-14999000D01*
X9967143Y-15013286D01*
X9952857Y-15027571D01*
X9938571Y-15056143D01*
X10224286Y-14884714D02*
X10224286Y-14941857D01*
X10338571Y-14884714D02*
X10338571Y-14941857D01*
X10781428Y-15299000D02*
X10767143Y-15284714D01*
X10738571Y-15241857D01*
X10724286Y-15213286D01*
X10710000Y-15170429D01*
X10695714Y-15099000D01*
X10695714Y-15041857D01*
X10710000Y-14970429D01*
X10724286Y-14927571D01*
X10738571Y-14899000D01*
X10767143Y-14856143D01*
X10781428Y-14841857D01*
X11052857Y-15184714D02*
X10881428Y-15184714D01*
X10967143Y-15184714D02*
X10967143Y-14884714D01*
X10938571Y-14927571D01*
X10910000Y-14956143D01*
X10881428Y-14970429D01*
X11238571Y-14884714D02*
X11267143Y-14884714D01*
X11295714Y-14899000D01*
X11310000Y-14913286D01*
X11324286Y-14941857D01*
X11338571Y-14999000D01*
X11338571Y-15070429D01*
X11324286Y-15127571D01*
X11310000Y-15156143D01*
X11295714Y-15170429D01*
X11267143Y-15184714D01*
X11238571Y-15184714D01*
X11210000Y-15170429D01*
X11195714Y-15156143D01*
X11181428Y-15127571D01*
X11167143Y-15070429D01*
X11167143Y-14999000D01*
X11181428Y-14941857D01*
X11195714Y-14913286D01*
X11210000Y-14899000D01*
X11238571Y-14884714D01*
X11695714Y-15184714D02*
X11695714Y-14884714D01*
X11824286Y-15184714D02*
X11824286Y-15027571D01*
X11810000Y-14999000D01*
X11781428Y-14984714D01*
X11738571Y-14984714D01*
X11710000Y-14999000D01*
X11695714Y-15013286D01*
X12010000Y-15184714D02*
X11981428Y-15170429D01*
X11967143Y-15156143D01*
X11952857Y-15127571D01*
X11952857Y-15041857D01*
X11967143Y-15013286D01*
X11981428Y-14999000D01*
X12010000Y-14984714D01*
X12052857Y-14984714D01*
X12081428Y-14999000D01*
X12095714Y-15013286D01*
X12110000Y-15041857D01*
X12110000Y-15127571D01*
X12095714Y-15156143D01*
X12081428Y-15170429D01*
X12052857Y-15184714D01*
X12010000Y-15184714D01*
X12281428Y-15184714D02*
X12252857Y-15170429D01*
X12238571Y-15141857D01*
X12238571Y-14884714D01*
X12510000Y-15170429D02*
X12481428Y-15184714D01*
X12424286Y-15184714D01*
X12395714Y-15170429D01*
X12381428Y-15141857D01*
X12381428Y-15027571D01*
X12395714Y-14999000D01*
X12424286Y-14984714D01*
X12481428Y-14984714D01*
X12510000Y-14999000D01*
X12524286Y-15027571D01*
X12524286Y-15056143D01*
X12381428Y-15084714D01*
X12638571Y-15170429D02*
X12667143Y-15184714D01*
X12724286Y-15184714D01*
X12752857Y-15170429D01*
X12767143Y-15141857D01*
X12767143Y-15127571D01*
X12752857Y-15099000D01*
X12724286Y-15084714D01*
X12681428Y-15084714D01*
X12652857Y-15070429D01*
X12638571Y-15041857D01*
X12638571Y-15027571D01*
X12652857Y-14999000D01*
X12681428Y-14984714D01*
X12724286Y-14984714D01*
X12752857Y-14999000D01*
X12867143Y-15299000D02*
X12881428Y-15284714D01*
X12910000Y-15241857D01*
X12924286Y-15213286D01*
X12938571Y-15170429D01*
X12952857Y-15099000D01*
X12952857Y-15041857D01*
X12938571Y-14970429D01*
X12924286Y-14927571D01*
X12910000Y-14899000D01*
X12881428Y-14856143D01*
X12867143Y-14841857D01*
X5995000Y-15395000D02*
X6095000Y-15495000D01*
X6095000Y-15395000D02*
X5995000Y-15495000D01*
X6095000Y-15445000D02*
G75*
G03X6095000Y-15445000I-50000J0D01*
G01*
X6538571Y-15580714D02*
X6367143Y-15580714D01*
X6452857Y-15580714D02*
X6452857Y-15280714D01*
X6424286Y-15323571D01*
X6395714Y-15352143D01*
X6367143Y-15366429D01*
X6667143Y-15552143D02*
X6681428Y-15566429D01*
X6667143Y-15580714D01*
X6652857Y-15566429D01*
X6667143Y-15552143D01*
X6667143Y-15580714D01*
X6867143Y-15280714D02*
X6895714Y-15280714D01*
X6924286Y-15295000D01*
X6938571Y-15309286D01*
X6952857Y-15337857D01*
X6967143Y-15395000D01*
X6967143Y-15466429D01*
X6952857Y-15523571D01*
X6938571Y-15552143D01*
X6924286Y-15566429D01*
X6895714Y-15580714D01*
X6867143Y-15580714D01*
X6838571Y-15566429D01*
X6824286Y-15552143D01*
X6810000Y-15523571D01*
X6795714Y-15466429D01*
X6795714Y-15395000D01*
X6810000Y-15337857D01*
X6824286Y-15309286D01*
X6838571Y-15295000D01*
X6867143Y-15280714D01*
X7152857Y-15280714D02*
X7181428Y-15280714D01*
X7210000Y-15295000D01*
X7224286Y-15309286D01*
X7238571Y-15337857D01*
X7252857Y-15395000D01*
X7252857Y-15466429D01*
X7238571Y-15523571D01*
X7224286Y-15552143D01*
X7210000Y-15566429D01*
X7181428Y-15580714D01*
X7152857Y-15580714D01*
X7124286Y-15566429D01*
X7110000Y-15552143D01*
X7095714Y-15523571D01*
X7081428Y-15466429D01*
X7081428Y-15395000D01*
X7095714Y-15337857D01*
X7110000Y-15309286D01*
X7124286Y-15295000D01*
X7152857Y-15280714D01*
X7381428Y-15580714D02*
X7381428Y-15380714D01*
X7381428Y-15409286D02*
X7395714Y-15395000D01*
X7424286Y-15380714D01*
X7467143Y-15380714D01*
X7495714Y-15395000D01*
X7510000Y-15423571D01*
X7510000Y-15580714D01*
X7510000Y-15423571D02*
X7524286Y-15395000D01*
X7552857Y-15380714D01*
X7595714Y-15380714D01*
X7624286Y-15395000D01*
X7638571Y-15423571D01*
X7638571Y-15580714D01*
X7781428Y-15580714D02*
X7781428Y-15380714D01*
X7781428Y-15409286D02*
X7795714Y-15395000D01*
X7824286Y-15380714D01*
X7867143Y-15380714D01*
X7895714Y-15395000D01*
X7910000Y-15423571D01*
X7910000Y-15580714D01*
X7910000Y-15423571D02*
X7924286Y-15395000D01*
X7952857Y-15380714D01*
X7995714Y-15380714D01*
X8024286Y-15395000D01*
X8038571Y-15423571D01*
X8038571Y-15580714D01*
X8624286Y-15266429D02*
X8367143Y-15652143D01*
X9010000Y-15280714D02*
X9038571Y-15280714D01*
X9067143Y-15295000D01*
X9081428Y-15309286D01*
X9095714Y-15337857D01*
X9110000Y-15395000D01*
X9110000Y-15466429D01*
X9095714Y-15523571D01*
X9081428Y-15552143D01*
X9067143Y-15566429D01*
X9038571Y-15580714D01*
X9010000Y-15580714D01*
X8981428Y-15566429D01*
X8967143Y-15552143D01*
X8952857Y-15523571D01*
X8938571Y-15466429D01*
X8938571Y-15395000D01*
X8952857Y-15337857D01*
X8967143Y-15309286D01*
X8981428Y-15295000D01*
X9010000Y-15280714D01*
X9238571Y-15552143D02*
X9252857Y-15566429D01*
X9238571Y-15580714D01*
X9224286Y-15566429D01*
X9238571Y-15552143D01*
X9238571Y-15580714D01*
X9438571Y-15280714D02*
X9467143Y-15280714D01*
X9495714Y-15295000D01*
X9510000Y-15309286D01*
X9524286Y-15337857D01*
X9538571Y-15395000D01*
X9538571Y-15466429D01*
X9524286Y-15523571D01*
X9510000Y-15552143D01*
X9495714Y-15566429D01*
X9467143Y-15580714D01*
X9438571Y-15580714D01*
X9410000Y-15566429D01*
X9395714Y-15552143D01*
X9381428Y-15523571D01*
X9367143Y-15466429D01*
X9367143Y-15395000D01*
X9381428Y-15337857D01*
X9395714Y-15309286D01*
X9410000Y-15295000D01*
X9438571Y-15280714D01*
X9638571Y-15280714D02*
X9824286Y-15280714D01*
X9724286Y-15395000D01*
X9767143Y-15395000D01*
X9795714Y-15409286D01*
X9810000Y-15423571D01*
X9824286Y-15452143D01*
X9824286Y-15523571D01*
X9810000Y-15552143D01*
X9795714Y-15566429D01*
X9767143Y-15580714D01*
X9681428Y-15580714D01*
X9652857Y-15566429D01*
X9638571Y-15552143D01*
X9967143Y-15580714D02*
X10024286Y-15580714D01*
X10052857Y-15566429D01*
X10067143Y-15552143D01*
X10095714Y-15509286D01*
X10110000Y-15452143D01*
X10110000Y-15337857D01*
X10095714Y-15309286D01*
X10081428Y-15295000D01*
X10052857Y-15280714D01*
X9995714Y-15280714D01*
X9967143Y-15295000D01*
X9952857Y-15309286D01*
X9938571Y-15337857D01*
X9938571Y-15409286D01*
X9952857Y-15437857D01*
X9967143Y-15452143D01*
X9995714Y-15466429D01*
X10052857Y-15466429D01*
X10081428Y-15452143D01*
X10095714Y-15437857D01*
X10110000Y-15409286D01*
X10224286Y-15280714D02*
X10224286Y-15337857D01*
X10338571Y-15280714D02*
X10338571Y-15337857D01*
X10781428Y-15695000D02*
X10767143Y-15680714D01*
X10738571Y-15637857D01*
X10724286Y-15609286D01*
X10710000Y-15566429D01*
X10695714Y-15495000D01*
X10695714Y-15437857D01*
X10710000Y-15366429D01*
X10724286Y-15323571D01*
X10738571Y-15295000D01*
X10767143Y-15252143D01*
X10781428Y-15237857D01*
X11024286Y-15380714D02*
X11024286Y-15580714D01*
X10952857Y-15266429D02*
X10881428Y-15480714D01*
X11067143Y-15480714D01*
X11410000Y-15580714D02*
X11410000Y-15280714D01*
X11538571Y-15580714D02*
X11538571Y-15423571D01*
X11524286Y-15395000D01*
X11495714Y-15380714D01*
X11452857Y-15380714D01*
X11424286Y-15395000D01*
X11410000Y-15409286D01*
X11724286Y-15580714D02*
X11695714Y-15566429D01*
X11681428Y-15552143D01*
X11667143Y-15523571D01*
X11667143Y-15437857D01*
X11681428Y-15409286D01*
X11695714Y-15395000D01*
X11724286Y-15380714D01*
X11767143Y-15380714D01*
X11795714Y-15395000D01*
X11810000Y-15409286D01*
X11824286Y-15437857D01*
X11824286Y-15523571D01*
X11810000Y-15552143D01*
X11795714Y-15566429D01*
X11767143Y-15580714D01*
X11724286Y-15580714D01*
X11995714Y-15580714D02*
X11967143Y-15566429D01*
X11952857Y-15537857D01*
X11952857Y-15280714D01*
X12224286Y-15566429D02*
X12195714Y-15580714D01*
X12138571Y-15580714D01*
X12110000Y-15566429D01*
X12095714Y-15537857D01*
X12095714Y-15423571D01*
X12110000Y-15395000D01*
X12138571Y-15380714D01*
X12195714Y-15380714D01*
X12224286Y-15395000D01*
X12238571Y-15423571D01*
X12238571Y-15452143D01*
X12095714Y-15480714D01*
X12352857Y-15566429D02*
X12381428Y-15580714D01*
X12438571Y-15580714D01*
X12467143Y-15566429D01*
X12481428Y-15537857D01*
X12481428Y-15523571D01*
X12467143Y-15495000D01*
X12438571Y-15480714D01*
X12395714Y-15480714D01*
X12367143Y-15466429D01*
X12352857Y-15437857D01*
X12352857Y-15423571D01*
X12367143Y-15395000D01*
X12395714Y-15380714D01*
X12438571Y-15380714D01*
X12467143Y-15395000D01*
X12838571Y-15466429D02*
X13067143Y-15466429D01*
X12952857Y-15580714D02*
X12952857Y-15352143D01*
X13567143Y-15380714D02*
X13567143Y-15580714D01*
X13495714Y-15266429D02*
X13424286Y-15480714D01*
X13610000Y-15480714D01*
X13938571Y-15566429D02*
X13967143Y-15580714D01*
X14024286Y-15580714D01*
X14052857Y-15566429D01*
X14067143Y-15537857D01*
X14067143Y-15523571D01*
X14052857Y-15495000D01*
X14024286Y-15480714D01*
X13981428Y-15480714D01*
X13952857Y-15466429D01*
X13938571Y-15437857D01*
X13938571Y-15423571D01*
X13952857Y-15395000D01*
X13981428Y-15380714D01*
X14024286Y-15380714D01*
X14052857Y-15395000D01*
X14238571Y-15580714D02*
X14210000Y-15566429D01*
X14195714Y-15537857D01*
X14195714Y-15280714D01*
X14395714Y-15580714D02*
X14367143Y-15566429D01*
X14352857Y-15552143D01*
X14338571Y-15523571D01*
X14338571Y-15437857D01*
X14352857Y-15409286D01*
X14367143Y-15395000D01*
X14395714Y-15380714D01*
X14438571Y-15380714D01*
X14467143Y-15395000D01*
X14481428Y-15409286D01*
X14495714Y-15437857D01*
X14495714Y-15523571D01*
X14481428Y-15552143D01*
X14467143Y-15566429D01*
X14438571Y-15580714D01*
X14395714Y-15580714D01*
X14581428Y-15380714D02*
X14695714Y-15380714D01*
X14624286Y-15280714D02*
X14624286Y-15537857D01*
X14638571Y-15566429D01*
X14667143Y-15580714D01*
X14695714Y-15580714D01*
X14781428Y-15566429D02*
X14810000Y-15580714D01*
X14867143Y-15580714D01*
X14895714Y-15566429D01*
X14910000Y-15537857D01*
X14910000Y-15523571D01*
X14895714Y-15495000D01*
X14867143Y-15480714D01*
X14824286Y-15480714D01*
X14795714Y-15466429D01*
X14781428Y-15437857D01*
X14781428Y-15423571D01*
X14795714Y-15395000D01*
X14824286Y-15380714D01*
X14867143Y-15380714D01*
X14895714Y-15395000D01*
X15010000Y-15695000D02*
X15024286Y-15680714D01*
X15052857Y-15637857D01*
X15067143Y-15609286D01*
X15081428Y-15566429D01*
X15095714Y-15495000D01*
X15095714Y-15437857D01*
X15081428Y-15366429D01*
X15067143Y-15323571D01*
X15052857Y-15295000D01*
X15024286Y-15252143D01*
X15010000Y-15237857D01*
X5965000Y-15776000D02*
X6095000Y-15906000D01*
X6095000Y-15776000D02*
X5965000Y-15906000D01*
X6030000Y-15776000D02*
X6030000Y-15906000D01*
X5965000Y-15841000D02*
X6095000Y-15841000D01*
X6538571Y-15976714D02*
X6367143Y-15976714D01*
X6452857Y-15976714D02*
X6452857Y-15676714D01*
X6424286Y-15719571D01*
X6395714Y-15748143D01*
X6367143Y-15762429D01*
X6667143Y-15948143D02*
X6681428Y-15962429D01*
X6667143Y-15976714D01*
X6652857Y-15962429D01*
X6667143Y-15948143D01*
X6667143Y-15976714D01*
X6781428Y-15676714D02*
X6967143Y-15676714D01*
X6867143Y-15791000D01*
X6910000Y-15791000D01*
X6938571Y-15805286D01*
X6952857Y-15819571D01*
X6967143Y-15848143D01*
X6967143Y-15919571D01*
X6952857Y-15948143D01*
X6938571Y-15962429D01*
X6910000Y-15976714D01*
X6824286Y-15976714D01*
X6795714Y-15962429D01*
X6781428Y-15948143D01*
X7152857Y-15676714D02*
X7181428Y-15676714D01*
X7210000Y-15691000D01*
X7224286Y-15705286D01*
X7238571Y-15733857D01*
X7252857Y-15791000D01*
X7252857Y-15862429D01*
X7238571Y-15919571D01*
X7224286Y-15948143D01*
X7210000Y-15962429D01*
X7181428Y-15976714D01*
X7152857Y-15976714D01*
X7124286Y-15962429D01*
X7110000Y-15948143D01*
X7095714Y-15919571D01*
X7081428Y-15862429D01*
X7081428Y-15791000D01*
X7095714Y-15733857D01*
X7110000Y-15705286D01*
X7124286Y-15691000D01*
X7152857Y-15676714D01*
X7381428Y-15976714D02*
X7381428Y-15776714D01*
X7381428Y-15805286D02*
X7395714Y-15791000D01*
X7424286Y-15776714D01*
X7467143Y-15776714D01*
X7495714Y-15791000D01*
X7510000Y-15819571D01*
X7510000Y-15976714D01*
X7510000Y-15819571D02*
X7524286Y-15791000D01*
X7552857Y-15776714D01*
X7595714Y-15776714D01*
X7624286Y-15791000D01*
X7638571Y-15819571D01*
X7638571Y-15976714D01*
X7781428Y-15976714D02*
X7781428Y-15776714D01*
X7781428Y-15805286D02*
X7795714Y-15791000D01*
X7824286Y-15776714D01*
X7867143Y-15776714D01*
X7895714Y-15791000D01*
X7910000Y-15819571D01*
X7910000Y-15976714D01*
X7910000Y-15819571D02*
X7924286Y-15791000D01*
X7952857Y-15776714D01*
X7995714Y-15776714D01*
X8024286Y-15791000D01*
X8038571Y-15819571D01*
X8038571Y-15976714D01*
X8624286Y-15662429D02*
X8367143Y-16048143D01*
X9010000Y-15676714D02*
X9038571Y-15676714D01*
X9067143Y-15691000D01*
X9081428Y-15705286D01*
X9095714Y-15733857D01*
X9110000Y-15791000D01*
X9110000Y-15862429D01*
X9095714Y-15919571D01*
X9081428Y-15948143D01*
X9067143Y-15962429D01*
X9038571Y-15976714D01*
X9010000Y-15976714D01*
X8981428Y-15962429D01*
X8967143Y-15948143D01*
X8952857Y-15919571D01*
X8938571Y-15862429D01*
X8938571Y-15791000D01*
X8952857Y-15733857D01*
X8967143Y-15705286D01*
X8981428Y-15691000D01*
X9010000Y-15676714D01*
X9238571Y-15948143D02*
X9252857Y-15962429D01*
X9238571Y-15976714D01*
X9224286Y-15962429D01*
X9238571Y-15948143D01*
X9238571Y-15976714D01*
X9438571Y-15676714D02*
X9467143Y-15676714D01*
X9495714Y-15691000D01*
X9510000Y-15705286D01*
X9524286Y-15733857D01*
X9538571Y-15791000D01*
X9538571Y-15862429D01*
X9524286Y-15919571D01*
X9510000Y-15948143D01*
X9495714Y-15962429D01*
X9467143Y-15976714D01*
X9438571Y-15976714D01*
X9410000Y-15962429D01*
X9395714Y-15948143D01*
X9381428Y-15919571D01*
X9367143Y-15862429D01*
X9367143Y-15791000D01*
X9381428Y-15733857D01*
X9395714Y-15705286D01*
X9410000Y-15691000D01*
X9438571Y-15676714D01*
X9810000Y-15676714D02*
X9667143Y-15676714D01*
X9652857Y-15819571D01*
X9667143Y-15805286D01*
X9695714Y-15791000D01*
X9767143Y-15791000D01*
X9795714Y-15805286D01*
X9810000Y-15819571D01*
X9824286Y-15848143D01*
X9824286Y-15919571D01*
X9810000Y-15948143D01*
X9795714Y-15962429D01*
X9767143Y-15976714D01*
X9695714Y-15976714D01*
X9667143Y-15962429D01*
X9652857Y-15948143D01*
X10110000Y-15976714D02*
X9938571Y-15976714D01*
X10024286Y-15976714D02*
X10024286Y-15676714D01*
X9995714Y-15719571D01*
X9967143Y-15748143D01*
X9938571Y-15762429D01*
X10224286Y-15676714D02*
X10224286Y-15733857D01*
X10338571Y-15676714D02*
X10338571Y-15733857D01*
X10781428Y-16091000D02*
X10767143Y-16076714D01*
X10738571Y-16033857D01*
X10724286Y-16005286D01*
X10710000Y-15962429D01*
X10695714Y-15891000D01*
X10695714Y-15833857D01*
X10710000Y-15762429D01*
X10724286Y-15719571D01*
X10738571Y-15691000D01*
X10767143Y-15648143D01*
X10781428Y-15633857D01*
X11024286Y-15776714D02*
X11024286Y-15976714D01*
X10952857Y-15662429D02*
X10881428Y-15876714D01*
X11067143Y-15876714D01*
X11410000Y-15976714D02*
X11410000Y-15676714D01*
X11538571Y-15976714D02*
X11538571Y-15819571D01*
X11524286Y-15791000D01*
X11495714Y-15776714D01*
X11452857Y-15776714D01*
X11424286Y-15791000D01*
X11410000Y-15805286D01*
X11724286Y-15976714D02*
X11695714Y-15962429D01*
X11681428Y-15948143D01*
X11667143Y-15919571D01*
X11667143Y-15833857D01*
X11681428Y-15805286D01*
X11695714Y-15791000D01*
X11724286Y-15776714D01*
X11767143Y-15776714D01*
X11795714Y-15791000D01*
X11810000Y-15805286D01*
X11824286Y-15833857D01*
X11824286Y-15919571D01*
X11810000Y-15948143D01*
X11795714Y-15962429D01*
X11767143Y-15976714D01*
X11724286Y-15976714D01*
X11995714Y-15976714D02*
X11967143Y-15962429D01*
X11952857Y-15933857D01*
X11952857Y-15676714D01*
X12224286Y-15962429D02*
X12195714Y-15976714D01*
X12138571Y-15976714D01*
X12110000Y-15962429D01*
X12095714Y-15933857D01*
X12095714Y-15819571D01*
X12110000Y-15791000D01*
X12138571Y-15776714D01*
X12195714Y-15776714D01*
X12224286Y-15791000D01*
X12238571Y-15819571D01*
X12238571Y-15848143D01*
X12095714Y-15876714D01*
X12352857Y-15962429D02*
X12381428Y-15976714D01*
X12438571Y-15976714D01*
X12467143Y-15962429D01*
X12481428Y-15933857D01*
X12481428Y-15919571D01*
X12467143Y-15891000D01*
X12438571Y-15876714D01*
X12395714Y-15876714D01*
X12367143Y-15862429D01*
X12352857Y-15833857D01*
X12352857Y-15819571D01*
X12367143Y-15791000D01*
X12395714Y-15776714D01*
X12438571Y-15776714D01*
X12467143Y-15791000D01*
X12581428Y-16091000D02*
X12595714Y-16076714D01*
X12624286Y-16033857D01*
X12638571Y-16005286D01*
X12652857Y-15962429D01*
X12667143Y-15891000D01*
X12667143Y-15833857D01*
X12652857Y-15762429D01*
X12638571Y-15719571D01*
X12624286Y-15691000D01*
X12595714Y-15648143D01*
X12581428Y-15633857D01*
X5935000Y-16157000D02*
X6095000Y-16317000D01*
X6095000Y-16157000D02*
X5935000Y-16317000D01*
X6071569Y-16293569D02*
X6071569Y-16180431D01*
X5958431Y-16180431D01*
X5958431Y-16293569D01*
X6071569Y-16293569D01*
X6538571Y-16372714D02*
X6367143Y-16372714D01*
X6452857Y-16372714D02*
X6452857Y-16072714D01*
X6424286Y-16115571D01*
X6395714Y-16144143D01*
X6367143Y-16158429D01*
X6667143Y-16344143D02*
X6681428Y-16358429D01*
X6667143Y-16372714D01*
X6652857Y-16358429D01*
X6667143Y-16344143D01*
X6667143Y-16372714D01*
X6938571Y-16072714D02*
X6881428Y-16072714D01*
X6852857Y-16087000D01*
X6838571Y-16101286D01*
X6810000Y-16144143D01*
X6795714Y-16201286D01*
X6795714Y-16315571D01*
X6810000Y-16344143D01*
X6824286Y-16358429D01*
X6852857Y-16372714D01*
X6910000Y-16372714D01*
X6938571Y-16358429D01*
X6952857Y-16344143D01*
X6967143Y-16315571D01*
X6967143Y-16244143D01*
X6952857Y-16215571D01*
X6938571Y-16201286D01*
X6910000Y-16187000D01*
X6852857Y-16187000D01*
X6824286Y-16201286D01*
X6810000Y-16215571D01*
X6795714Y-16244143D01*
X7152857Y-16072714D02*
X7181428Y-16072714D01*
X7210000Y-16087000D01*
X7224286Y-16101286D01*
X7238571Y-16129857D01*
X7252857Y-16187000D01*
X7252857Y-16258429D01*
X7238571Y-16315571D01*
X7224286Y-16344143D01*
X7210000Y-16358429D01*
X7181428Y-16372714D01*
X7152857Y-16372714D01*
X7124286Y-16358429D01*
X7110000Y-16344143D01*
X7095714Y-16315571D01*
X7081428Y-16258429D01*
X7081428Y-16187000D01*
X7095714Y-16129857D01*
X7110000Y-16101286D01*
X7124286Y-16087000D01*
X7152857Y-16072714D01*
X7381428Y-16372714D02*
X7381428Y-16172714D01*
X7381428Y-16201286D02*
X7395714Y-16187000D01*
X7424286Y-16172714D01*
X7467143Y-16172714D01*
X7495714Y-16187000D01*
X7510000Y-16215571D01*
X7510000Y-16372714D01*
X7510000Y-16215571D02*
X7524286Y-16187000D01*
X7552857Y-16172714D01*
X7595714Y-16172714D01*
X7624286Y-16187000D01*
X7638571Y-16215571D01*
X7638571Y-16372714D01*
X7781428Y-16372714D02*
X7781428Y-16172714D01*
X7781428Y-16201286D02*
X7795714Y-16187000D01*
X7824286Y-16172714D01*
X7867143Y-16172714D01*
X7895714Y-16187000D01*
X7910000Y-16215571D01*
X7910000Y-16372714D01*
X7910000Y-16215571D02*
X7924286Y-16187000D01*
X7952857Y-16172714D01*
X7995714Y-16172714D01*
X8024286Y-16187000D01*
X8038571Y-16215571D01*
X8038571Y-16372714D01*
X8624286Y-16058429D02*
X8367143Y-16444143D01*
X9010000Y-16072714D02*
X9038571Y-16072714D01*
X9067143Y-16087000D01*
X9081428Y-16101286D01*
X9095714Y-16129857D01*
X9110000Y-16187000D01*
X9110000Y-16258429D01*
X9095714Y-16315571D01*
X9081428Y-16344143D01*
X9067143Y-16358429D01*
X9038571Y-16372714D01*
X9010000Y-16372714D01*
X8981428Y-16358429D01*
X8967143Y-16344143D01*
X8952857Y-16315571D01*
X8938571Y-16258429D01*
X8938571Y-16187000D01*
X8952857Y-16129857D01*
X8967143Y-16101286D01*
X8981428Y-16087000D01*
X9010000Y-16072714D01*
X9238571Y-16344143D02*
X9252857Y-16358429D01*
X9238571Y-16372714D01*
X9224286Y-16358429D01*
X9238571Y-16344143D01*
X9238571Y-16372714D01*
X9438571Y-16072714D02*
X9467143Y-16072714D01*
X9495714Y-16087000D01*
X9510000Y-16101286D01*
X9524286Y-16129857D01*
X9538571Y-16187000D01*
X9538571Y-16258429D01*
X9524286Y-16315571D01*
X9510000Y-16344143D01*
X9495714Y-16358429D01*
X9467143Y-16372714D01*
X9438571Y-16372714D01*
X9410000Y-16358429D01*
X9395714Y-16344143D01*
X9381428Y-16315571D01*
X9367143Y-16258429D01*
X9367143Y-16187000D01*
X9381428Y-16129857D01*
X9395714Y-16101286D01*
X9410000Y-16087000D01*
X9438571Y-16072714D01*
X9795714Y-16072714D02*
X9738571Y-16072714D01*
X9710000Y-16087000D01*
X9695714Y-16101286D01*
X9667143Y-16144143D01*
X9652857Y-16201286D01*
X9652857Y-16315571D01*
X9667143Y-16344143D01*
X9681428Y-16358429D01*
X9710000Y-16372714D01*
X9767143Y-16372714D01*
X9795714Y-16358429D01*
X9810000Y-16344143D01*
X9824286Y-16315571D01*
X9824286Y-16244143D01*
X9810000Y-16215571D01*
X9795714Y-16201286D01*
X9767143Y-16187000D01*
X9710000Y-16187000D01*
X9681428Y-16201286D01*
X9667143Y-16215571D01*
X9652857Y-16244143D01*
X9924286Y-16072714D02*
X10110000Y-16072714D01*
X10010000Y-16187000D01*
X10052857Y-16187000D01*
X10081428Y-16201286D01*
X10095714Y-16215571D01*
X10110000Y-16244143D01*
X10110000Y-16315571D01*
X10095714Y-16344143D01*
X10081428Y-16358429D01*
X10052857Y-16372714D01*
X9967143Y-16372714D01*
X9938571Y-16358429D01*
X9924286Y-16344143D01*
X10224286Y-16072714D02*
X10224286Y-16129857D01*
X10338571Y-16072714D02*
X10338571Y-16129857D01*
X10781428Y-16487000D02*
X10767143Y-16472714D01*
X10738571Y-16429857D01*
X10724286Y-16401286D01*
X10710000Y-16358429D01*
X10695714Y-16287000D01*
X10695714Y-16229857D01*
X10710000Y-16158429D01*
X10724286Y-16115571D01*
X10738571Y-16087000D01*
X10767143Y-16044143D01*
X10781428Y-16029857D01*
X11052857Y-16372714D02*
X10881428Y-16372714D01*
X10967143Y-16372714D02*
X10967143Y-16072714D01*
X10938571Y-16115571D01*
X10910000Y-16144143D01*
X10881428Y-16158429D01*
X11410000Y-16372714D02*
X11410000Y-16072714D01*
X11538571Y-16372714D02*
X11538571Y-16215571D01*
X11524286Y-16187000D01*
X11495714Y-16172714D01*
X11452857Y-16172714D01*
X11424286Y-16187000D01*
X11410000Y-16201286D01*
X11724286Y-16372714D02*
X11695714Y-16358429D01*
X11681428Y-16344143D01*
X11667143Y-16315571D01*
X11667143Y-16229857D01*
X11681428Y-16201286D01*
X11695714Y-16187000D01*
X11724286Y-16172714D01*
X11767143Y-16172714D01*
X11795714Y-16187000D01*
X11810000Y-16201286D01*
X11824286Y-16229857D01*
X11824286Y-16315571D01*
X11810000Y-16344143D01*
X11795714Y-16358429D01*
X11767143Y-16372714D01*
X11724286Y-16372714D01*
X11995714Y-16372714D02*
X11967143Y-16358429D01*
X11952857Y-16329857D01*
X11952857Y-16072714D01*
X12224286Y-16358429D02*
X12195714Y-16372714D01*
X12138571Y-16372714D01*
X12110000Y-16358429D01*
X12095714Y-16329857D01*
X12095714Y-16215571D01*
X12110000Y-16187000D01*
X12138571Y-16172714D01*
X12195714Y-16172714D01*
X12224286Y-16187000D01*
X12238571Y-16215571D01*
X12238571Y-16244143D01*
X12095714Y-16272714D01*
X12338571Y-16487000D02*
X12352857Y-16472714D01*
X12381428Y-16429857D01*
X12395714Y-16401286D01*
X12410000Y-16358429D01*
X12424286Y-16287000D01*
X12424286Y-16229857D01*
X12410000Y-16158429D01*
X12395714Y-16115571D01*
X12381428Y-16087000D01*
X12352857Y-16044143D01*
X12338571Y-16029857D01*
X12881428Y-16487000D02*
X12867143Y-16472714D01*
X12838571Y-16429857D01*
X12824286Y-16401286D01*
X12810000Y-16358429D01*
X12795714Y-16287000D01*
X12795714Y-16229857D01*
X12810000Y-16158429D01*
X12824286Y-16115571D01*
X12838571Y-16087000D01*
X12867143Y-16044143D01*
X12881428Y-16029857D01*
X12995714Y-16172714D02*
X12995714Y-16372714D01*
X12995714Y-16201286D02*
X13010000Y-16187000D01*
X13038571Y-16172714D01*
X13081428Y-16172714D01*
X13110000Y-16187000D01*
X13124286Y-16215571D01*
X13124286Y-16372714D01*
X13310000Y-16372714D02*
X13281428Y-16358429D01*
X13267143Y-16344143D01*
X13252857Y-16315571D01*
X13252857Y-16229857D01*
X13267143Y-16201286D01*
X13281428Y-16187000D01*
X13310000Y-16172714D01*
X13352857Y-16172714D01*
X13381428Y-16187000D01*
X13395714Y-16201286D01*
X13410000Y-16229857D01*
X13410000Y-16315571D01*
X13395714Y-16344143D01*
X13381428Y-16358429D01*
X13352857Y-16372714D01*
X13310000Y-16372714D01*
X13495714Y-16172714D02*
X13610000Y-16172714D01*
X13538571Y-16072714D02*
X13538571Y-16329857D01*
X13552857Y-16358429D01*
X13581428Y-16372714D01*
X13610000Y-16372714D01*
X13938571Y-16172714D02*
X13938571Y-16472714D01*
X13938571Y-16187000D02*
X13967143Y-16172714D01*
X14024286Y-16172714D01*
X14052857Y-16187000D01*
X14067143Y-16201286D01*
X14081428Y-16229857D01*
X14081428Y-16315571D01*
X14067143Y-16344143D01*
X14052857Y-16358429D01*
X14024286Y-16372714D01*
X13967143Y-16372714D01*
X13938571Y-16358429D01*
X14252857Y-16372714D02*
X14224286Y-16358429D01*
X14210000Y-16329857D01*
X14210000Y-16072714D01*
X14495714Y-16372714D02*
X14495714Y-16215571D01*
X14481428Y-16187000D01*
X14452857Y-16172714D01*
X14395714Y-16172714D01*
X14367143Y-16187000D01*
X14495714Y-16358429D02*
X14467143Y-16372714D01*
X14395714Y-16372714D01*
X14367143Y-16358429D01*
X14352857Y-16329857D01*
X14352857Y-16301286D01*
X14367143Y-16272714D01*
X14395714Y-16258429D01*
X14467143Y-16258429D01*
X14495714Y-16244143D01*
X14595714Y-16172714D02*
X14710000Y-16172714D01*
X14638571Y-16072714D02*
X14638571Y-16329857D01*
X14652857Y-16358429D01*
X14681428Y-16372714D01*
X14710000Y-16372714D01*
X14924286Y-16358429D02*
X14895714Y-16372714D01*
X14838571Y-16372714D01*
X14810000Y-16358429D01*
X14795714Y-16329857D01*
X14795714Y-16215571D01*
X14810000Y-16187000D01*
X14838571Y-16172714D01*
X14895714Y-16172714D01*
X14924286Y-16187000D01*
X14938571Y-16215571D01*
X14938571Y-16244143D01*
X14795714Y-16272714D01*
X15195714Y-16372714D02*
X15195714Y-16072714D01*
X15195714Y-16358429D02*
X15167143Y-16372714D01*
X15110000Y-16372714D01*
X15081428Y-16358429D01*
X15067143Y-16344143D01*
X15052857Y-16315571D01*
X15052857Y-16229857D01*
X15067143Y-16201286D01*
X15081428Y-16187000D01*
X15110000Y-16172714D01*
X15167143Y-16172714D01*
X15195714Y-16187000D01*
X15310000Y-16487000D02*
X15324286Y-16472714D01*
X15352857Y-16429857D01*
X15367143Y-16401286D01*
X15381428Y-16358429D01*
X15395714Y-16287000D01*
X15395714Y-16229857D01*
X15381428Y-16158429D01*
X15367143Y-16115571D01*
X15352857Y-16087000D01*
X15324286Y-16044143D01*
X15310000Y-16029857D01*
X5845000Y-16508000D02*
X6095000Y-16758000D01*
X6095000Y-16508000D02*
X5845000Y-16758000D01*
X5970000Y-16758000D02*
X6095000Y-16633000D01*
X5970000Y-16508000D01*
X5845000Y-16633000D01*
X5970000Y-16758000D01*
X6367143Y-16497286D02*
X6381428Y-16483000D01*
X6410000Y-16468714D01*
X6481428Y-16468714D01*
X6510000Y-16483000D01*
X6524286Y-16497286D01*
X6538571Y-16525857D01*
X6538571Y-16554429D01*
X6524286Y-16597286D01*
X6352857Y-16768714D01*
X6538571Y-16768714D01*
X6667143Y-16740143D02*
X6681428Y-16754429D01*
X6667143Y-16768714D01*
X6652857Y-16754429D01*
X6667143Y-16740143D01*
X6667143Y-16768714D01*
X6952857Y-16468714D02*
X6810000Y-16468714D01*
X6795714Y-16611571D01*
X6810000Y-16597286D01*
X6838571Y-16583000D01*
X6910000Y-16583000D01*
X6938571Y-16597286D01*
X6952857Y-16611571D01*
X6967143Y-16640143D01*
X6967143Y-16711571D01*
X6952857Y-16740143D01*
X6938571Y-16754429D01*
X6910000Y-16768714D01*
X6838571Y-16768714D01*
X6810000Y-16754429D01*
X6795714Y-16740143D01*
X7152857Y-16468714D02*
X7181428Y-16468714D01*
X7210000Y-16483000D01*
X7224286Y-16497286D01*
X7238571Y-16525857D01*
X7252857Y-16583000D01*
X7252857Y-16654429D01*
X7238571Y-16711571D01*
X7224286Y-16740143D01*
X7210000Y-16754429D01*
X7181428Y-16768714D01*
X7152857Y-16768714D01*
X7124286Y-16754429D01*
X7110000Y-16740143D01*
X7095714Y-16711571D01*
X7081428Y-16654429D01*
X7081428Y-16583000D01*
X7095714Y-16525857D01*
X7110000Y-16497286D01*
X7124286Y-16483000D01*
X7152857Y-16468714D01*
X7381428Y-16768714D02*
X7381428Y-16568714D01*
X7381428Y-16597286D02*
X7395714Y-16583000D01*
X7424286Y-16568714D01*
X7467143Y-16568714D01*
X7495714Y-16583000D01*
X7510000Y-16611571D01*
X7510000Y-16768714D01*
X7510000Y-16611571D02*
X7524286Y-16583000D01*
X7552857Y-16568714D01*
X7595714Y-16568714D01*
X7624286Y-16583000D01*
X7638571Y-16611571D01*
X7638571Y-16768714D01*
X7781428Y-16768714D02*
X7781428Y-16568714D01*
X7781428Y-16597286D02*
X7795714Y-16583000D01*
X7824286Y-16568714D01*
X7867143Y-16568714D01*
X7895714Y-16583000D01*
X7910000Y-16611571D01*
X7910000Y-16768714D01*
X7910000Y-16611571D02*
X7924286Y-16583000D01*
X7952857Y-16568714D01*
X7995714Y-16568714D01*
X8024286Y-16583000D01*
X8038571Y-16611571D01*
X8038571Y-16768714D01*
X8624286Y-16454429D02*
X8367143Y-16840143D01*
X9010000Y-16468714D02*
X9038571Y-16468714D01*
X9067143Y-16483000D01*
X9081428Y-16497286D01*
X9095714Y-16525857D01*
X9110000Y-16583000D01*
X9110000Y-16654429D01*
X9095714Y-16711571D01*
X9081428Y-16740143D01*
X9067143Y-16754429D01*
X9038571Y-16768714D01*
X9010000Y-16768714D01*
X8981428Y-16754429D01*
X8967143Y-16740143D01*
X8952857Y-16711571D01*
X8938571Y-16654429D01*
X8938571Y-16583000D01*
X8952857Y-16525857D01*
X8967143Y-16497286D01*
X8981428Y-16483000D01*
X9010000Y-16468714D01*
X9238571Y-16740143D02*
X9252857Y-16754429D01*
X9238571Y-16768714D01*
X9224286Y-16754429D01*
X9238571Y-16740143D01*
X9238571Y-16768714D01*
X9438571Y-16468714D02*
X9467143Y-16468714D01*
X9495714Y-16483000D01*
X9510000Y-16497286D01*
X9524286Y-16525857D01*
X9538571Y-16583000D01*
X9538571Y-16654429D01*
X9524286Y-16711571D01*
X9510000Y-16740143D01*
X9495714Y-16754429D01*
X9467143Y-16768714D01*
X9438571Y-16768714D01*
X9410000Y-16754429D01*
X9395714Y-16740143D01*
X9381428Y-16711571D01*
X9367143Y-16654429D01*
X9367143Y-16583000D01*
X9381428Y-16525857D01*
X9395714Y-16497286D01*
X9410000Y-16483000D01*
X9438571Y-16468714D01*
X9681428Y-16768714D02*
X9738571Y-16768714D01*
X9767143Y-16754429D01*
X9781428Y-16740143D01*
X9810000Y-16697286D01*
X9824286Y-16640143D01*
X9824286Y-16525857D01*
X9810000Y-16497286D01*
X9795714Y-16483000D01*
X9767143Y-16468714D01*
X9710000Y-16468714D01*
X9681428Y-16483000D01*
X9667143Y-16497286D01*
X9652857Y-16525857D01*
X9652857Y-16597286D01*
X9667143Y-16625857D01*
X9681428Y-16640143D01*
X9710000Y-16654429D01*
X9767143Y-16654429D01*
X9795714Y-16640143D01*
X9810000Y-16625857D01*
X9824286Y-16597286D01*
X9995714Y-16597286D02*
X9967143Y-16583000D01*
X9952857Y-16568714D01*
X9938571Y-16540143D01*
X9938571Y-16525857D01*
X9952857Y-16497286D01*
X9967143Y-16483000D01*
X9995714Y-16468714D01*
X10052857Y-16468714D01*
X10081428Y-16483000D01*
X10095714Y-16497286D01*
X10110000Y-16525857D01*
X10110000Y-16540143D01*
X10095714Y-16568714D01*
X10081428Y-16583000D01*
X10052857Y-16597286D01*
X9995714Y-16597286D01*
X9967143Y-16611571D01*
X9952857Y-16625857D01*
X9938571Y-16654429D01*
X9938571Y-16711571D01*
X9952857Y-16740143D01*
X9967143Y-16754429D01*
X9995714Y-16768714D01*
X10052857Y-16768714D01*
X10081428Y-16754429D01*
X10095714Y-16740143D01*
X10110000Y-16711571D01*
X10110000Y-16654429D01*
X10095714Y-16625857D01*
X10081428Y-16611571D01*
X10052857Y-16597286D01*
X10224286Y-16468714D02*
X10224286Y-16525857D01*
X10338571Y-16468714D02*
X10338571Y-16525857D01*
X10781428Y-16883000D02*
X10767143Y-16868714D01*
X10738571Y-16825857D01*
X10724286Y-16797286D01*
X10710000Y-16754429D01*
X10695714Y-16683000D01*
X10695714Y-16625857D01*
X10710000Y-16554429D01*
X10724286Y-16511571D01*
X10738571Y-16483000D01*
X10767143Y-16440143D01*
X10781428Y-16425857D01*
X10881428Y-16497286D02*
X10895714Y-16483000D01*
X10924286Y-16468714D01*
X10995714Y-16468714D01*
X11024286Y-16483000D01*
X11038571Y-16497286D01*
X11052857Y-16525857D01*
X11052857Y-16554429D01*
X11038571Y-16597286D01*
X10867143Y-16768714D01*
X11052857Y-16768714D01*
X11410000Y-16768714D02*
X11410000Y-16468714D01*
X11538571Y-16768714D02*
X11538571Y-16611571D01*
X11524286Y-16583000D01*
X11495714Y-16568714D01*
X11452857Y-16568714D01*
X11424286Y-16583000D01*
X11410000Y-16597286D01*
X11724286Y-16768714D02*
X11695714Y-16754429D01*
X11681428Y-16740143D01*
X11667143Y-16711571D01*
X11667143Y-16625857D01*
X11681428Y-16597286D01*
X11695714Y-16583000D01*
X11724286Y-16568714D01*
X11767143Y-16568714D01*
X11795714Y-16583000D01*
X11810000Y-16597286D01*
X11824286Y-16625857D01*
X11824286Y-16711571D01*
X11810000Y-16740143D01*
X11795714Y-16754429D01*
X11767143Y-16768714D01*
X11724286Y-16768714D01*
X11995714Y-16768714D02*
X11967143Y-16754429D01*
X11952857Y-16725857D01*
X11952857Y-16468714D01*
X12224286Y-16754429D02*
X12195714Y-16768714D01*
X12138571Y-16768714D01*
X12110000Y-16754429D01*
X12095714Y-16725857D01*
X12095714Y-16611571D01*
X12110000Y-16583000D01*
X12138571Y-16568714D01*
X12195714Y-16568714D01*
X12224286Y-16583000D01*
X12238571Y-16611571D01*
X12238571Y-16640143D01*
X12095714Y-16668714D01*
X12352857Y-16754429D02*
X12381428Y-16768714D01*
X12438571Y-16768714D01*
X12467143Y-16754429D01*
X12481428Y-16725857D01*
X12481428Y-16711571D01*
X12467143Y-16683000D01*
X12438571Y-16668714D01*
X12395714Y-16668714D01*
X12367143Y-16654429D01*
X12352857Y-16625857D01*
X12352857Y-16611571D01*
X12367143Y-16583000D01*
X12395714Y-16568714D01*
X12438571Y-16568714D01*
X12467143Y-16583000D01*
X12581428Y-16883000D02*
X12595714Y-16868714D01*
X12624286Y-16825857D01*
X12638571Y-16797286D01*
X12652857Y-16754429D01*
X12667143Y-16683000D01*
X12667143Y-16625857D01*
X12652857Y-16554429D01*
X12638571Y-16511571D01*
X12624286Y-16483000D01*
X12595714Y-16440143D01*
X12581428Y-16425857D01*
X13124286Y-16883000D02*
X13110000Y-16868714D01*
X13081428Y-16825857D01*
X13067143Y-16797286D01*
X13052857Y-16754429D01*
X13038571Y-16683000D01*
X13038571Y-16625857D01*
X13052857Y-16554429D01*
X13067143Y-16511571D01*
X13081428Y-16483000D01*
X13110000Y-16440143D01*
X13124286Y-16425857D01*
X13238571Y-16568714D02*
X13238571Y-16768714D01*
X13238571Y-16597286D02*
X13252857Y-16583000D01*
X13281428Y-16568714D01*
X13324286Y-16568714D01*
X13352857Y-16583000D01*
X13367143Y-16611571D01*
X13367143Y-16768714D01*
X13552857Y-16768714D02*
X13524286Y-16754429D01*
X13510000Y-16740143D01*
X13495714Y-16711571D01*
X13495714Y-16625857D01*
X13510000Y-16597286D01*
X13524286Y-16583000D01*
X13552857Y-16568714D01*
X13595714Y-16568714D01*
X13624286Y-16583000D01*
X13638571Y-16597286D01*
X13652857Y-16625857D01*
X13652857Y-16711571D01*
X13638571Y-16740143D01*
X13624286Y-16754429D01*
X13595714Y-16768714D01*
X13552857Y-16768714D01*
X13738571Y-16568714D02*
X13852857Y-16568714D01*
X13781428Y-16468714D02*
X13781428Y-16725857D01*
X13795714Y-16754429D01*
X13824286Y-16768714D01*
X13852857Y-16768714D01*
X14181428Y-16568714D02*
X14181428Y-16868714D01*
X14181428Y-16583000D02*
X14210000Y-16568714D01*
X14267143Y-16568714D01*
X14295714Y-16583000D01*
X14310000Y-16597286D01*
X14324286Y-16625857D01*
X14324286Y-16711571D01*
X14310000Y-16740143D01*
X14295714Y-16754429D01*
X14267143Y-16768714D01*
X14210000Y-16768714D01*
X14181428Y-16754429D01*
X14495714Y-16768714D02*
X14467143Y-16754429D01*
X14452857Y-16725857D01*
X14452857Y-16468714D01*
X14738571Y-16768714D02*
X14738571Y-16611571D01*
X14724286Y-16583000D01*
X14695714Y-16568714D01*
X14638571Y-16568714D01*
X14610000Y-16583000D01*
X14738571Y-16754429D02*
X14710000Y-16768714D01*
X14638571Y-16768714D01*
X14610000Y-16754429D01*
X14595714Y-16725857D01*
X14595714Y-16697286D01*
X14610000Y-16668714D01*
X14638571Y-16654429D01*
X14710000Y-16654429D01*
X14738571Y-16640143D01*
X14838571Y-16568714D02*
X14952857Y-16568714D01*
X14881428Y-16468714D02*
X14881428Y-16725857D01*
X14895714Y-16754429D01*
X14924286Y-16768714D01*
X14952857Y-16768714D01*
X15167143Y-16754429D02*
X15138571Y-16768714D01*
X15081428Y-16768714D01*
X15052857Y-16754429D01*
X15038571Y-16725857D01*
X15038571Y-16611571D01*
X15052857Y-16583000D01*
X15081428Y-16568714D01*
X15138571Y-16568714D01*
X15167143Y-16583000D01*
X15181428Y-16611571D01*
X15181428Y-16640143D01*
X15038571Y-16668714D01*
X15438571Y-16768714D02*
X15438571Y-16468714D01*
X15438571Y-16754429D02*
X15410000Y-16768714D01*
X15352857Y-16768714D01*
X15324286Y-16754429D01*
X15310000Y-16740143D01*
X15295714Y-16711571D01*
X15295714Y-16625857D01*
X15310000Y-16597286D01*
X15324286Y-16583000D01*
X15352857Y-16568714D01*
X15410000Y-16568714D01*
X15438571Y-16583000D01*
X15552857Y-16883000D02*
X15567143Y-16868714D01*
X15595714Y-16825857D01*
X15610000Y-16797286D01*
X15624286Y-16754429D01*
X15638571Y-16683000D01*
X15638571Y-16625857D01*
X15624286Y-16554429D01*
X15610000Y-16511571D01*
X15595714Y-16483000D01*
X15567143Y-16440143D01*
X15552857Y-16425857D01*
M02*
