%TF.GenerationSoftware,KiCad,Pcbnew,5.1.0-5.1.0*%
%TF.CreationDate,2019-03-18T21:11:32+01:00*%
%TF.ProjectId,motherboard,6d6f7468-6572-4626-9f61-72642e6b6963,rev?*%
%TF.SameCoordinates,Original*%
%TF.FileFunction,Copper,L3,Inr*%
%TF.FilePolarity,Positive*%
%FSLAX46Y46*%
G04 Gerber Fmt 4.6, Leading zero omitted, Abs format (unit mm)*
G04 Created by KiCad (PCBNEW 5.1.0-5.1.0) date 2019-03-18 21:11:32*
%MOMM*%
%LPD*%
G04 APERTURE LIST*
%ADD10C,0.200000*%
%ADD11R,2.600000X2.600000*%
%ADD12C,2.600000*%
%ADD13R,4.000000X2.000000*%
%ADD14O,3.300000X2.000000*%
%ADD15O,2.000000X3.500000*%
%ADD16R,1.700000X1.700000*%
%ADD17O,1.700000X1.700000*%
%ADD18C,0.970000*%
%ADD19R,1.000000X1.000000*%
%ADD20O,1.000000X1.000000*%
%ADD21R,0.850000X0.850000*%
%ADD22O,0.850000X0.850000*%
%ADD23C,0.800000*%
%ADD24C,2.032000*%
%ADD25C,1.016000*%
%ADD26C,0.406400*%
%ADD27C,0.508000*%
%ADD28C,0.304800*%
%ADD29C,0.762000*%
G04 APERTURE END LIST*
D10*
X176180000Y-103544000D03*
X175180000Y-103544000D03*
X174180000Y-103544000D03*
X176180000Y-102544000D03*
X175180000Y-102544000D03*
X174180000Y-102544000D03*
X176180000Y-101544000D03*
X175180000Y-101544000D03*
X174180000Y-101544000D03*
D11*
X77000000Y-85000000D03*
D12*
X72000000Y-85000000D03*
D13*
X90000000Y-92000000D03*
D14*
X90000000Y-86000000D03*
D15*
X94500000Y-85000000D03*
X85500000Y-85000000D03*
D16*
X158750000Y-81026000D03*
D17*
X161290000Y-81026000D03*
X163830000Y-81026000D03*
X166370000Y-81026000D03*
D18*
X179880000Y-87220000D03*
X171120000Y-87220000D03*
D12*
X105000000Y-119000000D03*
D11*
X100000000Y-119000000D03*
D19*
X142494000Y-82500000D03*
D20*
X142494000Y-81230000D03*
X143764000Y-82500000D03*
X143764000Y-81230000D03*
X145034000Y-82500000D03*
X145034000Y-81230000D03*
X146304000Y-82500000D03*
X146304000Y-81230000D03*
X147574000Y-82500000D03*
X147574000Y-81230000D03*
D21*
X83058000Y-120396000D03*
D22*
X83058000Y-121396000D03*
D23*
X174000000Y-101400000D03*
X115062000Y-90297000D03*
X115189000Y-85852000D03*
X115062000Y-95504000D03*
X119126000Y-93599000D03*
X128016000Y-90297000D03*
X129794000Y-93105000D03*
X127762000Y-98157000D03*
X125081000Y-99822000D03*
X173482000Y-91186000D03*
X174498000Y-91186000D03*
X175514000Y-91186000D03*
X178562000Y-89662000D03*
X178562000Y-90678000D03*
X178562000Y-91694000D03*
X178562000Y-92710000D03*
X178562000Y-93726000D03*
X178562000Y-94742000D03*
X178562000Y-95758000D03*
X176530000Y-95504000D03*
X176530000Y-94488000D03*
X172466000Y-88646000D03*
X172466000Y-89662000D03*
X172466000Y-90678000D03*
X172466000Y-91694000D03*
X172466000Y-92710000D03*
X87122000Y-96153000D03*
X73660000Y-108204000D03*
X152600911Y-113859664D03*
X152651711Y-115739264D03*
X151737311Y-115739264D03*
X152651711Y-114824864D03*
X151737311Y-114824864D03*
X151737311Y-113859664D03*
X105491162Y-94721072D03*
X138430000Y-98552000D03*
X77216000Y-110991610D03*
X186313000Y-94488000D03*
X182992970Y-101346000D03*
X183783024Y-106172000D03*
X185533000Y-111252012D03*
X171889561Y-113334646D03*
X162306000Y-116833970D03*
X155242529Y-116185064D03*
X147763497Y-119092064D03*
X153831511Y-112234080D03*
X65278000Y-107583024D03*
X71628002Y-106680000D03*
X77433500Y-104394016D03*
X82550000Y-94482026D03*
X105043000Y-90678000D03*
X138810000Y-81345028D03*
X119190000Y-84655020D03*
X173876998Y-92710000D03*
X173876974Y-89662000D03*
X141758963Y-90387238D03*
X154432000Y-81148972D03*
X132328000Y-91185972D03*
X133490980Y-95758000D03*
X138797000Y-101345962D03*
X143622974Y-96012000D03*
X166370000Y-103632000D03*
X164243019Y-101713000D03*
X165862000Y-101713000D03*
X106366148Y-98785058D03*
X108539162Y-98136071D03*
X102302178Y-97007072D03*
X124714000Y-97282000D03*
X114689500Y-92837000D03*
X169022970Y-106680000D03*
X173369002Y-96266000D03*
X175100000Y-101400000D03*
X176200000Y-101400000D03*
X174000000Y-102500000D03*
X175100000Y-102500000D03*
X176200000Y-102500000D03*
X174000000Y-103600000D03*
X175100000Y-103600000D03*
X176200000Y-103600000D03*
X74382250Y-104317750D03*
X86484000Y-103632000D03*
X144780000Y-97536000D03*
X141758957Y-85081228D03*
X137928022Y-91186000D03*
X129794000Y-94855000D03*
X126379000Y-94742000D03*
X123077000Y-94742000D03*
X122428000Y-90297000D03*
X136270000Y-84655000D03*
X109601000Y-85852000D03*
X113284000Y-90297000D03*
X116713000Y-90297000D03*
X116713000Y-88646000D03*
X121730000Y-81344998D03*
X129032000Y-85090000D03*
X130302000Y-81280000D03*
X134620000Y-89154000D03*
X156467503Y-89896474D03*
X159258000Y-89408000D03*
X167894000Y-93218000D03*
X167894000Y-97631210D03*
X143454107Y-92506789D03*
X168656000Y-95504000D03*
X158496000Y-88646000D03*
X155956000Y-89154000D03*
X168656000Y-91694000D03*
X131826000Y-87884000D03*
X143191096Y-91644391D03*
X147320000Y-87884000D03*
X177655000Y-104435602D03*
X149860000Y-87630000D03*
X153924000Y-87630000D03*
X154432000Y-89408000D03*
X155702000Y-94488000D03*
X159004000Y-94488000D03*
X171958000Y-110236000D03*
X182993000Y-103632000D03*
X168148000Y-109727992D03*
X171471077Y-104032021D03*
X172612021Y-100060256D03*
X174244000Y-97536000D03*
X140208000Y-100330000D03*
X144018000Y-100330000D03*
X159512000Y-100330000D03*
X158496000Y-99314000D03*
X116124500Y-100122500D03*
X156636534Y-97631210D03*
X135128000Y-92710000D03*
X158242000Y-97028000D03*
X172974000Y-97790000D03*
X167273015Y-106680015D03*
X179578000Y-108204000D03*
X172466000Y-107950014D03*
X170180000Y-117348000D03*
X165100000Y-98806000D03*
X175260000Y-99060000D03*
X178054000Y-97028000D03*
X172212000Y-105918000D03*
X178308000Y-99568000D03*
X178816000Y-101853956D03*
X168567155Y-101854000D03*
X171697643Y-101824856D03*
X164733000Y-92202000D03*
X162305994Y-122434000D03*
X175699573Y-118264668D03*
X182748998Y-91948000D03*
X104540000Y-84654962D03*
X106793000Y-90678022D03*
X105745162Y-97261072D03*
X105745162Y-92181072D03*
X101681162Y-93959072D03*
X131799604Y-103013902D03*
X100656146Y-98785072D03*
X114170000Y-103124000D03*
X122806000Y-103124000D03*
X144780000Y-103123990D03*
X151220064Y-103378002D03*
X179832000Y-102362000D03*
X179623534Y-104602466D03*
X181610000Y-104902000D03*
X179832000Y-103345255D03*
X149098000Y-115570000D03*
X150622000Y-112268000D03*
X152048566Y-107647489D03*
X127000000Y-97282000D03*
X123331000Y-99822000D03*
X117602000Y-91898500D03*
X113298000Y-95504000D03*
X123444000Y-101346000D03*
X89283980Y-103632000D03*
X99460000Y-84655018D03*
X148336000Y-107696000D03*
X173228000Y-94488000D03*
X163322000Y-96012000D03*
X166116000Y-96012000D03*
X73406000Y-111252000D03*
X103124000Y-110540812D03*
X129963084Y-107077902D03*
X70996044Y-111506000D03*
X112587500Y-106934000D03*
X121158000Y-106934000D03*
X67055982Y-107583000D03*
X174589093Y-106907234D03*
X176532094Y-107555616D03*
X178308000Y-107188000D03*
X175514006Y-106679994D03*
X103124000Y-103835200D03*
X74422000Y-110998000D03*
X78740000Y-116078000D03*
X72390000Y-110998000D03*
X72644000Y-104648000D03*
X159512000Y-97536000D03*
X178054000Y-105410000D03*
X71882000Y-105156000D03*
X70358000Y-101854000D03*
X171450000Y-108204000D03*
X73502957Y-102711210D03*
X149352000Y-81280000D03*
X145796000Y-91186000D03*
D24*
X75800000Y-101700000D02*
X75800000Y-102900000D01*
X75800000Y-102900000D02*
X74382250Y-104317750D01*
X77100000Y-100400000D02*
X75800000Y-101700000D01*
X77000000Y-87316000D02*
X77100000Y-87416000D01*
X77000000Y-85000000D02*
X77000000Y-87316000D01*
X77100000Y-87416000D02*
X77100000Y-100400000D01*
X86484000Y-103632000D02*
X80332000Y-103632000D01*
X80332000Y-103632000D02*
X77100000Y-100400000D01*
D25*
X142494000Y-81230000D02*
X142494000Y-82500000D01*
X137928022Y-88131978D02*
X140978772Y-85081228D01*
X140978772Y-85081228D02*
X141758957Y-85081228D01*
X137928022Y-91186000D02*
X137928022Y-88131978D01*
X123077000Y-94742000D02*
X126379000Y-94742000D01*
X122428000Y-94093000D02*
X123077000Y-94742000D01*
X122428000Y-90297000D02*
X122428000Y-94093000D01*
X126492000Y-94855000D02*
X126379000Y-94742000D01*
X129794000Y-94855000D02*
X126492000Y-94855000D01*
X136270000Y-85472000D02*
X136270000Y-84655000D01*
X135128000Y-86614000D02*
X136270000Y-85472000D01*
X129286000Y-86614000D02*
X135128000Y-86614000D01*
X122428000Y-90297000D02*
X125603000Y-90297000D01*
X125603000Y-90297000D02*
X129286000Y-86614000D01*
X113284000Y-89408000D02*
X113284000Y-90297000D01*
X109601000Y-85852000D02*
X109728000Y-85852000D01*
X112522000Y-88646000D02*
X116713000Y-88646000D01*
X109728000Y-85852000D02*
X112522000Y-88646000D01*
X112522000Y-88646000D02*
X113284000Y-89408000D01*
X116713000Y-88646000D02*
X116713000Y-90297000D01*
X116713000Y-88646000D02*
X118872000Y-88646000D01*
X121730000Y-85788000D02*
X121730000Y-81344998D01*
X118872000Y-88646000D02*
X121730000Y-85788000D01*
X178054000Y-97028000D02*
X176530000Y-97028000D01*
X175659999Y-97898001D02*
X176530000Y-97028000D01*
X175260000Y-99060000D02*
X175659999Y-98660001D01*
X175659999Y-98660001D02*
X175659999Y-97898001D01*
X178816000Y-100076000D02*
X178816000Y-101853956D01*
X178308000Y-99568000D02*
X178816000Y-100076000D01*
X170434000Y-104705685D02*
X170434000Y-101854000D01*
D26*
X170434000Y-101854000D02*
X170884314Y-101854001D01*
X170434000Y-101854000D02*
X168567155Y-101854000D01*
D25*
X172212000Y-105918000D02*
X171646315Y-105918000D01*
X170884314Y-101854001D02*
X169132840Y-101854000D01*
X171646315Y-105918000D02*
X170434000Y-104705685D01*
X169132840Y-101854000D02*
X168567155Y-101854000D01*
X170913459Y-101824856D02*
X170884314Y-101854001D01*
X171697643Y-101824856D02*
X170913459Y-101824856D01*
X170180000Y-117348000D02*
X165094000Y-122434000D01*
X162871679Y-122434000D02*
X162305994Y-122434000D01*
X165094000Y-122434000D02*
X162871679Y-122434000D01*
X163830000Y-85090000D02*
X163830000Y-81026000D01*
X164733000Y-92202000D02*
X164733000Y-85993000D01*
X164733000Y-85993000D02*
X163830000Y-85090000D01*
X164733000Y-98439000D02*
X165100000Y-98806000D01*
X164733000Y-92202000D02*
X164733000Y-98439000D01*
X175133888Y-118264668D02*
X175699573Y-118264668D01*
X170180000Y-117348000D02*
X174217220Y-117348000D01*
X174217220Y-117348000D02*
X175133888Y-118264668D01*
X170180000Y-107950000D02*
X171812001Y-106317999D01*
X170180000Y-117348000D02*
X170180000Y-107950000D01*
X171812001Y-106317999D02*
X172212000Y-105918000D01*
X170434000Y-98806000D02*
X165100000Y-98806000D01*
X170697354Y-99050646D02*
X170434000Y-99314000D01*
X172869576Y-99060000D02*
X172860222Y-99050646D01*
X175260000Y-99060000D02*
X172869576Y-99060000D01*
X170434000Y-101854000D02*
X170434000Y-99314000D01*
X172860222Y-99050646D02*
X170697354Y-99050646D01*
X170434000Y-99314000D02*
X170434000Y-98806000D01*
X178054000Y-97028000D02*
X179578000Y-97028000D01*
X182749000Y-93857000D02*
X182749000Y-91948000D01*
X179578000Y-97028000D02*
X182749000Y-93857000D01*
X106680000Y-90565022D02*
X106793000Y-90678022D01*
X106680000Y-89408000D02*
X106680000Y-90565022D01*
X104540000Y-84654962D02*
X104540000Y-87268000D01*
X104540000Y-87268000D02*
X106680000Y-89408000D01*
X105745162Y-92181072D02*
X103459162Y-92181072D01*
X101681162Y-93959072D02*
X103459162Y-92181072D01*
X104221162Y-98785072D02*
X100656146Y-98785072D01*
X105745162Y-97261072D02*
X104221162Y-98785072D01*
X100656162Y-98785072D02*
X100656162Y-99894162D01*
X100656146Y-98785072D02*
X100656162Y-98785072D01*
X100656162Y-99894162D02*
X102362000Y-101600000D01*
X112014000Y-101600000D02*
X113538000Y-103124000D01*
X131689506Y-103124000D02*
X131799604Y-103013902D01*
X113538000Y-103124000D02*
X131689506Y-103124000D01*
X102362000Y-101600000D02*
X112014000Y-101600000D01*
X131799604Y-103013902D02*
X144669912Y-103013902D01*
X144669912Y-103013902D02*
X144780000Y-103123990D01*
D27*
X150222001Y-112667999D02*
X149098000Y-113792000D01*
X150622000Y-112268000D02*
X150222001Y-112667999D01*
X149098000Y-115570000D02*
X149098000Y-113792000D01*
X152048564Y-110841436D02*
X150622000Y-112268000D01*
X152048564Y-107647489D02*
X152048564Y-110841436D01*
D26*
X126600001Y-97681999D02*
X126600001Y-99967999D01*
X127000000Y-97282000D02*
X126600001Y-97681999D01*
X126600001Y-99967999D02*
X125730000Y-100838000D01*
X125730000Y-100838000D02*
X124347000Y-100838000D01*
X124347000Y-100838000D02*
X123331000Y-99822000D01*
D28*
X113797072Y-95004928D02*
X113797072Y-94990928D01*
X113298000Y-95504000D02*
X113797072Y-95004928D01*
X113797072Y-94990928D02*
X114300000Y-94488000D01*
X114300000Y-94488000D02*
X116967000Y-94488000D01*
X117602000Y-93853000D02*
X117602000Y-91898500D01*
X116967000Y-94488000D02*
X117602000Y-93853000D01*
D27*
X116967000Y-94488000D02*
X116967000Y-99949000D01*
X118364000Y-101346000D02*
X123444000Y-101346000D01*
X116967000Y-99949000D02*
X118364000Y-101346000D01*
D25*
X89283980Y-103632000D02*
X99460000Y-93455980D01*
X99460000Y-85220703D02*
X99460000Y-84655018D01*
X99460000Y-93455980D02*
X99460000Y-85220703D01*
X100000000Y-116684000D02*
X100000000Y-119000000D01*
X98886000Y-115570000D02*
X100000000Y-116684000D01*
X103124000Y-111332000D02*
X103124000Y-111106497D01*
X98886000Y-115570000D02*
X103124000Y-111332000D01*
X103124000Y-111106497D02*
X103124000Y-110540812D01*
X163322000Y-96012000D02*
X155194000Y-96012000D01*
X146558000Y-104648000D02*
X146558000Y-106934000D01*
X155194000Y-96012000D02*
X146558000Y-104648000D01*
X166624000Y-96520000D02*
X166116000Y-96012000D01*
X169926000Y-96520000D02*
X166624000Y-96520000D01*
X173228000Y-94488000D02*
X171958000Y-94488000D01*
X171958000Y-94488000D02*
X169926000Y-96520000D01*
X73406000Y-111252000D02*
X73406000Y-113538000D01*
X81788000Y-115570000D02*
X98886000Y-115570000D01*
X80010000Y-113792000D02*
X81788000Y-115570000D01*
X72898000Y-113284000D02*
X73406000Y-113792000D01*
X73406000Y-113792000D02*
X80010000Y-113792000D01*
X106586938Y-107077874D02*
X103124000Y-110540812D01*
X147797949Y-107077874D02*
X121158000Y-107077874D01*
X148367564Y-107647489D02*
X147797949Y-107077874D01*
X121158000Y-107077874D02*
X121014126Y-106934000D01*
X121014126Y-106934000D02*
X112665874Y-106934000D01*
X112522000Y-107077874D02*
X106586938Y-107077874D01*
X112665874Y-106934000D02*
X112522000Y-107077874D01*
X74168000Y-113792000D02*
X73264982Y-113792000D01*
X67455981Y-107982999D02*
X67055982Y-107583000D01*
X73264982Y-113792000D02*
X67455981Y-107982999D01*
X75438000Y-110998000D02*
X76454000Y-109982000D01*
D29*
X74422000Y-110998000D02*
X75438000Y-110998000D01*
D25*
X96570800Y-103835200D02*
X103124000Y-103835200D01*
X90932000Y-109474000D02*
X96570800Y-103835200D01*
X76454000Y-109982000D02*
X76962000Y-109474000D01*
X76962000Y-109474000D02*
X90932000Y-109474000D01*
M02*
